<svg xmlns="http://www.w3.org/2000/svg" viewBox="0 0 619 1080"><defs><style>.cls-1{fill:#ff8358;}.cls-2{fill:#333;}.cls-3{fill:#1a1a1a;}.cls-4{fill:#2a421f;}.cls-5{fill:#345b24;}.cls-6{fill:#e85e38;}.cls-7{fill:#e6e6e6;}.cls-8{fill:#d3502d;}</style></defs><g id="calf_l"><rect class="cls-1" x="168.29" y="819.05" width="234.41" height="68.29" rx="15.1" transform="translate(-575.56 592.37) rotate(-54.65)"/><path class="cls-1" d="M291.05,1017c8.87-8.31-10.54-38.87-23.84-57-4.38-6-8.14-10.7-9.93-12.71-8.86-10-18.22-20.22-30.5-25.29,0,0,1.66,3.19,2.68,5.21-.6-1.05-1.51-2.76-2.8-5.25h0l.12,0-.48-.69c.11.22.23.42.35.63l-.08-.06c-.53-.21-1.11-.45-1.65-.62-10.29-3.63-23-2.28-30.8,4.59-4.65,4-7.59,10.07-7.39,18.14a27.85,27.85,0,0,0,2.47,10.71c5.39,12.28,16.39,19.93,27.05,27.28q21.42,14.67,42.76,29.36c7.12,4.89,15.76,8.43,22.69,8.62C285.49,1020,288.78,1019.17,291.05,1017Z"/><path class="cls-2" d="M186.72,934.54,291.05,1017s-1.31,9.9-22.68,3S167.45,962.07,186.72,934.54Z"/><path class="cls-2" d="M248,992c3,0,23.52-14.46,25.76-22.73,0,0,13,2.8,8.13,12.76L261,1001Z"/></g><g id="thigh_l"><rect class="cls-2" x="215.58" y="623.06" width="262.16" height="76.37" rx="15.1" transform="translate(-324.83 987.63) rotate(-88.26)"/></g><g id="calf_r"><rect class="cls-1" x="327.19" y="772.81" width="68.29" height="234.41" rx="15.1" transform="translate(-283.55 178.1) rotate(-20.08)"/><path class="cls-1" d="M457.88,914.8c-9.07-8.09-37.76,14-54.65,28.88-5.62,4.9-9.92,9.07-11.77,11-9.13,9.72-18.49,20-22.44,32.65,0,0,3-1.93,5-3.13-1,.68-2.61,1.75-5,3.26h0a.61.61,0,0,0,.05-.12l-.65.54.6-.41-.06.08c-.16.55-.35,1.15-.46,1.7-2.7,10.58-.21,23.08,7.34,30.27,4.44,4.26,10.71,6.65,18.73,5.72a27.69,27.69,0,0,0,10.44-3.42c11.75-6.48,18.38-18.12,24.74-29.4q12.67-22.65,25.39-45.23c4.23-7.53,7-16.45,6.54-23.38C461.39,920.07,460.24,916.87,457.88,914.8Z"/><path class="cls-2" d="M376,1020c-1.37-1.77,82.39-107.86,85.7-106.93S478,915,469,931,407,1060,376,1020Z"/><path class="cls-2" d="M440,947s-8.52-16.39-15.76-20.2a6.79,6.79,0,0,1,6-7.51L437,918l10.84,11.34Z"/></g><g id="thigh_r"><rect class="cls-3" x="253.54" y="547.58" width="76.37" height="262.16" rx="15.1" transform="translate(-189.65 118.34) rotate(-17.41)"/></g><g id="lower_arm_l" data-name="lower arm_l"><rect class="cls-2" x="525" y="533" width="13" height="454"/><rect class="cls-2" x="487" y="533" width="87" height="15"/><circle class="cls-1" cx="530.54" cy="538.07" r="30.81"/><path class="cls-1" d="M528,537l.83-.26a19.9,19.9,0,0,1-27.7-5L426.32,424.4a19.89,19.89,0,0,1,4.95-27.69l1.64-1.14a19.89,19.89,0,0,1,27.69,4.95l74.82,107.39C541.7,516.92,537,530.72,528,537Z"/></g><g id="upper_arm_l" data-name="upper arm_l"><rect class="cls-4" x="383.58" y="224.66" width="51.51" height="202.46" rx="19.89" transform="translate(-93.27 180.45) rotate(-22.39)"/></g><g id="body_1"><path class="cls-5" d="M292.48,216.11s-35.26,8.78-68,26c0,0-15.64,98.42-16.9,126.33s-.08,70.77,0,97.57-5.37,107.55-10.68,116.07c0,0,163.56,13.51,209.07-38.55,0,0-3.58-117.37-3.82-151s2.14-154.44-3.73-159S369.15,216.1,342,213.8A192.31,192.31,0,0,0,292.48,216.11Z"/></g><g id="lower_arm_r" data-name="lower arm_r"><circle class="cls-1" cx="89.46" cy="537.12" r="30.81"/><rect class="cls-1" x="38.54" y="444.26" width="170.66" height="41.78" rx="19.89" transform="translate(-349.51 377.81) rotate(-64.63)"/></g><g id="upper_arm_r" data-name="upper arm_r"><rect class="cls-4" x="97.23" y="306.41" width="202.46" height="49.07" rx="19.89" transform="translate(-187.39 325.61) rotate(-58.26)"/></g><g id="neck"><path class="cls-6" d="M361.7,260.31s-14.64-33.38-4.17-47.34l-52.78-18.33S304.4,309.63,361.7,260.31Z"/></g><g id="head"><path class="cls-7" d="M378.8,80.82S359.68,40,307.37,67.52s-51.49,125.36-1.93,132.81S406.13,171,406.13,171s18.92-22.73,11.2-55.73S397.84,78.54,378.8,80.82Z"/><path class="cls-1" d="M406.86,118.6c3.61-4.55,3.35,83.09-19.24,101.06S321.8,244,305.44,200.33c0,0,5.47-18,5.15-21.81,0,0-13.23-2.75-17.13-15s4.94-17,7.44-16.66,12.06-.15,14.36,14.53c0,0,12.7-14.64,12.31-23.09l8.43-4S390.8,138.87,406.86,118.6Z"/><ellipse cx="361.24" cy="161.94" rx="10.72" ry="4.02" transform="translate(166.85 506.81) rotate(-84.74)"/><ellipse cx="387.92" cy="164.4" rx="10.72" ry="4.02" transform="translate(188.63 535.61) rotate(-84.74)"/><path class="cls-5" d="M269.78,124.23s122.41,1.07,147.55-8.92l-9.14-41.26S367.63,44.16,352,45.26,295,49.56,286.8,61.87,269.78,124.23,269.78,124.23Z"/><path class="cls-4" d="M335.83,123.46S370,117.73,384.51,113s36.69-16.7,51.26-11.34-18.44,13.61-18.44,13.61S383.12,127.66,335.83,123.46Z"/><path class="cls-8" d="M333.59,201.35a1.5,1.5,0,0,1-.59-2.89,37.23,37.23,0,0,0,19.46-18.13c.67-1.3,1-1.84,1.57-2.14a1.5,1.5,0,0,1,1.66,2.46c-.12.2-.36.65-.57,1.06a40,40,0,0,1-20.95,19.52A1.51,1.51,0,0,1,333.59,201.35Zm21.78-20.48Z"/></g></svg>