<svg xmlns="http://www.w3.org/2000/svg" xmlns:xlink="http://www.w3.org/1999/xlink" viewBox="0 0 619 1080"><defs><style>.cls-1{fill:none;}.cls-2{fill:#ff8358;}.cls-3{fill:#ccc;}.cls-4{fill:#29abe2;}.cls-5{fill:#2092ba;}.cls-6{fill:#009245;}.cls-7{clip-path:url(#clip-path);}.cls-8{fill:#1b4c31;}.cls-9{clip-path:url(#clip-path-2);}.cls-10{clip-path:url(#clip-path-3);}.cls-11{fill:#e85e38;}.cls-12{fill:#333;}</style><clipPath id="clip-path"><rect class="cls-1" x="386.25" y="225.83" width="68.29" height="269.17" rx="19.89" transform="translate(-105.58 187.26) rotate(-22.39)"/></clipPath><clipPath id="clip-path-2"><path class="cls-1" d="M292.48,216.11s-35.26,8.78-68,26c0,0-15.64,98.42-16.9,126.33s-.08,70.77,0,97.57-5.37,107.55-10.68,116.07c0,0,163.56,13.51,209.07-38.55,0,0-3.58-117.37-3.82-151s2.14-154.44-3.73-159S369.15,216.1,342,213.8A192.31,192.31,0,0,0,292.48,216.11Z"/></clipPath><clipPath id="clip-path-3"><rect class="cls-1" x="58.09" y="329.11" width="266.35" height="68.29" rx="19.89" transform="translate(-218.95 347.26) rotate(-60)"/></clipPath></defs><g id="calf_l"><rect class="cls-2" x="168.29" y="819.05" width="234.41" height="68.29" rx="15.1" transform="translate(-575.56 592.37) rotate(-54.65)"/><path class="cls-3" d="M291.05,1017c8.87-8.31-10.54-38.87-23.84-57-4.38-6-8.14-10.7-9.93-12.71-8.86-10-18.22-20.22-30.5-25.29,0,0,1.66,3.19,2.68,5.21-.6-1.05-1.51-2.76-2.8-5.25h0l.12,0-.48-.69c.11.22.23.42.35.63l-.08-.06c-.53-.21-1.11-.45-1.65-.62-10.29-3.63-23-2.28-30.8,4.59-4.65,4-7.59,10.07-7.39,18.14a27.85,27.85,0,0,0,2.47,10.71c5.39,12.28,16.39,19.93,27.05,27.28q21.42,14.67,42.76,29.36c7.12,4.89,15.76,8.43,22.69,8.62C285.49,1020,288.78,1019.17,291.05,1017Z"/></g><g id="thigh_l"><rect class="cls-2" x="229.07" y="643" width="234.41" height="68.29" rx="15.1" transform="translate(-341.08 1002.66) rotate(-88.26)"/><rect class="cls-4" x="263.89" y="576.19" width="168.38" height="76.37" rx="15.1" transform="translate(-276.6 943.61) rotate(-88.26)"/></g><g id="calf_r"><rect class="cls-2" x="327.19" y="772.81" width="68.29" height="234.41" rx="15.1" transform="translate(-283.55 178.1) rotate(-20.08)"/><path class="cls-3" d="M457.88,914.8c-9.07-8.09-37.76,14-54.65,28.88-5.62,4.9-9.92,9.07-11.77,11-9.13,9.72-18.49,20-22.44,32.65,0,0,3-1.93,5-3.13-1,.68-2.61,1.75-5,3.26h0a.61.61,0,0,0,.05-.12l-.65.54.6-.41-.06.08c-.16.55-.35,1.15-.46,1.7-2.7,10.58-.21,23.08,7.34,30.27,4.44,4.26,10.71,6.65,18.73,5.72a27.69,27.69,0,0,0,10.44-3.42c11.75-6.48,18.38-18.12,24.74-29.4q12.67-22.65,25.39-45.23c4.23-7.53,7-16.45,6.54-23.38C461.39,920.07,460.24,916.87,457.88,914.8Z"/></g><g id="thigh_r"><rect class="cls-2" x="263.13" y="581.93" width="68.29" height="234.41" rx="15.1" transform="translate(-195.52 120.94) rotate(-17.41)"/><rect class="cls-5" x="239.85" y="549.68" width="76.37" height="170.64" rx="15.1" transform="translate(-177.22 112.25) rotate(-17.41)"/></g><g id="lower_arm_l" data-name="lower arm_l"><circle class="cls-2" cx="522.54" cy="553.07" r="30.81"/><rect class="cls-2" x="451.98" y="395.82" width="41.78" height="170.66" rx="19.89" transform="translate(-190.17 356.66) rotate(-34.86)"/></g><g id="upper_arm_l" data-name="upper arm_l"><rect class="cls-6" x="386.25" y="225.83" width="68.29" height="269.17" rx="19.89" transform="translate(-105.58 187.26) rotate(-22.39)"/><g class="cls-7"><rect class="cls-8" x="240.39" y="217.44" width="251" height="14" transform="translate(-50.38 119.73) rotate(-17.41)"/><rect class="cls-8" x="247.87" y="241.3" width="251" height="14" transform="translate(-57.18 123.06) rotate(-17.41)"/><rect class="cls-8" x="255.35" y="265.15" width="251" height="14" transform="translate(-63.97 126.38) rotate(-17.41)"/><rect class="cls-8" x="262.83" y="289.01" width="251" height="14" transform="translate(-70.76 129.71) rotate(-17.41)"/><rect class="cls-8" x="270.3" y="312.86" width="251" height="14" transform="translate(-77.56 133.04) rotate(-17.41)"/><rect class="cls-8" x="277.78" y="336.72" width="251" height="14" transform="translate(-84.35 136.37) rotate(-17.41)"/><rect class="cls-8" x="285.26" y="360.57" width="251" height="14" transform="translate(-91.14 139.7) rotate(-17.41)"/><rect class="cls-8" x="292.74" y="384.43" width="251" height="14" transform="translate(-97.94 143.03) rotate(-17.41)"/><rect class="cls-8" x="300.22" y="408.28" width="251" height="14" transform="translate(-104.73 146.36) rotate(-17.41)"/><rect class="cls-8" x="307.7" y="432.14" width="251" height="14" transform="translate(-111.52 149.69) rotate(-17.41)"/><rect class="cls-8" x="315.17" y="455.99" width="251" height="14" transform="translate(-118.32 153.02) rotate(-17.41)"/><rect class="cls-8" x="322.65" y="479.85" width="251" height="14" transform="translate(-125.11 156.35) rotate(-17.41)"/><rect class="cls-8" x="330.13" y="503.7" width="251" height="14" transform="translate(-131.9 159.68) rotate(-17.41)"/><rect class="cls-8" x="337.61" y="527.56" width="251" height="14" transform="translate(-138.7 163.01) rotate(-17.41)"/></g></g><g id="body_1"><path class="cls-6" d="M292.48,216.11s-35.26,8.78-68,26c0,0-15.64,98.42-16.9,126.33s-.08,70.77,0,97.57-5.37,107.55-10.68,116.07c0,0,163.56,13.51,209.07-38.55,0,0-3.58-117.37-3.82-151s2.14-154.44-3.73-159S369.15,216.1,342,213.8A192.31,192.31,0,0,0,292.48,216.11Z"/><g class="cls-9"><rect class="cls-8" x="191" y="231" width="251" height="14"/><rect class="cls-8" x="191" y="256" width="251" height="14"/><rect class="cls-8" x="191" y="281" width="251" height="14"/><rect class="cls-8" x="191" y="306" width="251" height="14"/><rect class="cls-8" x="191" y="331" width="251" height="14"/><rect class="cls-8" x="191" y="356" width="251" height="14"/><rect class="cls-8" x="191" y="381" width="251" height="14"/><rect class="cls-8" x="191" y="406" width="251" height="14"/><rect class="cls-8" x="191" y="431" width="251" height="14"/><rect class="cls-8" x="191" y="456" width="251" height="14"/><rect class="cls-8" x="191" y="481" width="251" height="14"/><rect class="cls-8" x="191" y="506" width="251" height="14"/><rect class="cls-8" x="191" y="531" width="251" height="14"/><rect class="cls-8" x="191" y="556" width="251" height="14"/></g></g><g id="lower_arm_r" data-name="lower arm_r"><circle class="cls-2" cx="96.46" cy="541.12" r="30.81"/><rect class="cls-2" x="45.54" y="448.26" width="170.66" height="41.78" rx="19.89" transform="translate(-349.12 386.43) rotate(-64.63)"/></g><g id="upper_arm_r" data-name="upper arm_r"><rect class="cls-6" x="58.09" y="329.11" width="266.35" height="68.29" rx="19.89" transform="translate(-218.95 347.26) rotate(-60)"/><g class="cls-10"><rect class="cls-8" x="249.13" y="104.5" width="14" height="251" transform="translate(-61.42 362.91) rotate(-64.63)"/><rect class="cls-8" x="238.42" y="127.09" width="14" height="251" transform="translate(-87.96 366.14) rotate(-64.63)"/><rect class="cls-8" x="227.71" y="149.68" width="14" height="251" transform="translate(-114.49 369.38) rotate(-64.63)"/><rect class="cls-8" x="217" y="172.27" width="14" height="251" transform="translate(-141.02 372.61) rotate(-64.63)"/><rect class="cls-8" x="206.29" y="194.86" width="14" height="251" transform="translate(-167.56 375.85) rotate(-64.63)"/><rect class="cls-8" x="195.58" y="217.45" width="14" height="251" transform="translate(-194.09 379.09) rotate(-64.63)"/><rect class="cls-8" x="184.87" y="240.04" width="14" height="251" transform="translate(-220.62 382.32) rotate(-64.63)"/><rect class="cls-8" x="174.16" y="262.63" width="14" height="251" transform="translate(-247.16 385.56) rotate(-64.63)"/><rect class="cls-8" x="163.45" y="285.22" width="14" height="251" transform="translate(-273.69 388.79) rotate(-64.63)"/><rect class="cls-8" x="152.74" y="307.81" width="14" height="251" transform="translate(-300.23 392.03) rotate(-64.63)"/><rect class="cls-8" x="142.03" y="330.4" width="14" height="251" transform="translate(-326.76 395.26) rotate(-64.63)"/><rect class="cls-8" x="131.32" y="352.99" width="14" height="251" transform="translate(-353.29 398.5) rotate(-64.63)"/><rect class="cls-8" x="120.61" y="375.58" width="14" height="251" transform="translate(-379.83 401.73) rotate(-64.63)"/><rect class="cls-8" x="109.9" y="398.17" width="14" height="251" transform="translate(-406.36 404.97) rotate(-64.63)"/></g></g><g id="neck"><path class="cls-11" d="M285.59,175.57v48.89s28.82,37.08,53.82,0V179.58Z"/></g><g id="head"><path class="cls-12" d="M312.5,102.08s42,10.89,73.26-7.59c0,0,3.93,31.16,4.08,42.84,0,0,7.16-43.71-5.84-62.52S316,29,282,79s3.59,96.57,3.59,96.57l6.67,9.6S306,158.26,309.5,148.63,312.5,102.08,312.5,102.08Z"/><path class="cls-2" d="M386,94c5.14-2.71,10.72,82.92-10.13,102.89s-63.31,30.28-83.61-11.72c0,0,3.8-18.45,3.14-22.19,0,0-13.44-1.52-18.44-13.34s3.36-17.36,5.88-17.27,12-1.26,15.63,13.14c0,0,10.69-36.14,9.53-44.51l5,1s37.35,7.26,58-1A99.42,99.42,0,0,0,386,94Z"/><ellipse cx="344.3" cy="141.83" rx="4.02" ry="10.72"/><ellipse cx="371.1" cy="141.83" rx="4.02" ry="10.72"/></g></svg>