<svg xmlns="http://www.w3.org/2000/svg" viewBox="0 0 619 1080"><defs><style>.cls-1{fill:#666;}.cls-2{fill:#1f3598;}.cls-3{fill:#4d4d4d;}.cls-4{fill:#b26938;}.cls-5{fill:#e6e6e6;}.cls-6{fill:#1a1a1a;}.cls-7{fill:#f7931e;}.cls-8{fill:#995323;}.cls-9{fill:#c69c6d;}</style></defs><g id="calf_l"><rect class="cls-1" x="168.29" y="819.05" width="234.41" height="68.29" rx="15.1" transform="translate(-575.56 592.37) rotate(-54.65)"/><path class="cls-2" d="M291.05,1017c8.87-8.31-10.54-38.87-23.84-57-4.38-6-8.14-10.7-9.93-12.71-8.86-10-18.22-20.22-30.5-25.29,0,0,1.66,3.19,2.68,5.21-.6-1.05-1.51-2.76-2.8-5.25h0l.12,0-.48-.69c.11.22.23.42.35.63l-.08-.06c-.53-.21-1.11-.45-1.65-.62-10.29-3.63-23-2.28-30.8,4.59-4.65,4-7.59,10.07-7.39,18.14a27.85,27.85,0,0,0,2.47,10.71c5.39,12.28,16.39,19.93,27.05,27.28q21.42,14.67,42.76,29.36c7.12,4.89,15.76,8.43,22.69,8.62C285.49,1020,288.78,1019.17,291.05,1017Z"/></g><g id="thigh_l"><rect class="cls-1" x="215.58" y="623.06" width="262.16" height="76.37" rx="15.1" transform="translate(-324.83 987.63) rotate(-88.26)"/></g><g id="calf_r"><rect class="cls-3" x="327.19" y="772.81" width="68.29" height="234.41" rx="15.1" transform="translate(-283.55 178.1) rotate(-20.08)"/><path class="cls-2" d="M457.88,914.8c-9.07-8.09-37.76,14-54.65,28.88-5.62,4.9-9.92,9.07-11.77,11-9.13,9.72-18.49,20-22.44,32.65,0,0,3-1.93,5-3.13-1,.68-2.61,1.75-5,3.26h0a.61.61,0,0,0,.05-.12l-.65.54.6-.41-.06.08c-.16.55-.35,1.15-.46,1.7-2.7,10.58-.21,23.08,7.34,30.27,4.44,4.26,10.71,6.65,18.73,5.72a27.69,27.69,0,0,0,10.44-3.42c11.75-6.48,18.38-18.12,24.74-29.4q12.67-22.65,25.39-45.23c4.23-7.53,7-16.45,6.54-23.38C461.39,920.07,460.24,916.87,457.88,914.8Z"/></g><g id="thigh_r"><rect class="cls-3" x="253.54" y="547.58" width="76.37" height="262.16" rx="15.1" transform="translate(-189.65 118.34) rotate(-17.41)"/></g><g id="lower_arm_l" data-name="lower arm_l"><circle class="cls-4" cx="530.54" cy="541.07" r="30.81"/><rect class="cls-4" x="459.98" y="383.82" width="41.78" height="170.66" rx="19.89" transform="translate(-181.87 359.08) rotate(-34.86)"/></g><g id="upper_arm_l" data-name="upper arm_l"><rect class="cls-5" x="377.05" y="224.84" width="68.29" height="202.46" rx="19.89" transform="translate(-93.19 181.17) rotate(-22.39)"/></g><g id="body_1"><path class="cls-5" d="M296,212.61s-35.26,8.78-68,26c0,0-15.64,98.42-16.9,126.33s-.08,70.77,0,97.57-5.37,107.55-10.68,116.07c0,0,163.56,13.51,209.07-38.55,0,0-3.58-117.37-3.82-151s2.14-154.44-3.73-159-29.26-17.4-56.42-19.7A192.31,192.31,0,0,0,296,212.61Z"/></g><g id="lower_arm_r" data-name="lower arm_r"><circle class="cls-4" cx="96.46" cy="541.12" r="30.81"/><rect class="cls-4" x="45.54" y="448.26" width="170.66" height="41.78" rx="19.89" transform="translate(-349.12 386.43) rotate(-64.63)"/></g><g id="upper_arm_r" data-name="upper arm_r"><rect class="cls-5" x="106.34" y="296.44" width="202.46" height="68.29" rx="19.89" transform="translate(-182.77 333.18) rotate(-58.26)"/></g><g id="body_2"><path class="cls-6" d="M271,342l-7.85-116.69L226,237s-30.45,168.31-35.22,232.15-10.65,114.54-10.65,114.54,42.1,9.21,121-2.74C301.12,581,272,359,271,342Z"/><path class="cls-7" d="M204.94,462s53.34-2,66.22-4L273,474l-70,2.79Z"/><polygon class="cls-7" points="200.89 485.65 197 513 214.73 513 217.39 485.65 200.89 485.65"/><polygon class="cls-7" points="224.92 485.65 223.14 513 240.63 513 240.63 485.65 224.92 485.65"/><polygon class="cls-7" points="251.96 485.65 273 482.99 275.39 513 251.96 513 251.96 485.65"/><path class="cls-7" d="M201,572.84h-.08a1,1,0,0,1-.92-1.07l.4-5a1,1,0,0,1,1.08-.91,1,1,0,0,1,.92,1.07l-.41,5A1,1,0,0,1,201,572.84Zm1.2-15h-.08a1,1,0,0,1-.91-1.07l.4-5a1,1,0,0,1,2,.16l-.4,5A1,1,0,0,1,202.18,557.89Zm1.21-14.95h-.08a1,1,0,0,1-.92-1.08l.41-5a1,1,0,0,1,1.07-.92,1,1,0,0,1,.92,1.08l-.4,5A1,1,0,0,1,203.39,542.94Zm1.21-15h-.08a1,1,0,0,1-.92-1.08l.4-5a1,1,0,1,1,2,.16l-.41,5A1,1,0,0,1,204.6,528Z"/><path class="cls-7" d="M234.77,571.92a1,1,0,0,1-1-.95l-.29-5a1,1,0,0,1,2-.11l.29,5a1,1,0,0,1-.94,1.06Zm-.87-15a1,1,0,0,1-1-.94l-.29-5a1,1,0,0,1,.94-1.06,1,1,0,0,1,1.06.94l.28,5a1,1,0,0,1-.94,1.06ZM233,542a1,1,0,0,1-1-1l-.29-5a1,1,0,0,1,2-.11l.29,5a1,1,0,0,1-.94,1.06Zm-.87-15a1,1,0,0,1-1-.94l-.28-5a1,1,0,0,1,.94-1.06,1,1,0,0,1,1,.94l.29,5a1,1,0,0,1-.94,1.06Z"/><path class="cls-7" d="M270.56,571.52a1,1,0,0,1-1-.86l-.69-4.95a1,1,0,0,1,2-.28l.69,5a1,1,0,0,1-.85,1.12Zm-2.06-14.85a1,1,0,0,1-1-.87l-.69-4.95a1,1,0,0,1,.85-1.13,1,1,0,0,1,1.13.86l.69,4.95a1,1,0,0,1-.86,1.13Zm-2.07-14.86a1,1,0,0,1-1-.86l-.69-5a1,1,0,0,1,.86-1.13,1,1,0,0,1,1.12.85l.69,4.95a1,1,0,0,1-.85,1.13ZM264.37,527a1,1,0,0,1-1-.86l-.69-5a1,1,0,0,1,2-.28l.69,4.95a1,1,0,0,1-.86,1.13Z"/><path class="cls-7" d="M293.74,581a1,1,0,0,1-.89-.55,18.51,18.51,0,0,1-1.12-3,1,1,0,0,1,.67-1.24,1,1,0,0,1,1.25.67,15.73,15.73,0,0,0,1,2.63,1,1,0,0,1-.44,1.35A1.06,1.06,0,0,1,293.74,581Zm-1.83-5.71a1,1,0,0,1-1-.76c-.22-.91-.44-1.9-.67-3a1,1,0,0,1,2-.41c.22,1,.44,2,.65,2.9a1,1,0,0,1-.73,1.21Zm-1.26-5.89a1,1,0,0,1-1-.81c-.18-.94-.36-1.93-.55-3a1,1,0,1,1,2-.35c.18,1,.37,2,.55,2.94a1,1,0,0,1-.8,1.18Zm-1.06-5.92a1,1,0,0,1-1-.83c-.16-1-.32-2-.48-3a1,1,0,1,1,2-.31c.16,1,.33,2,.49,3a1,1,0,0,1-.82,1.15Zm-1-5.94a1,1,0,0,1-1-.84c-.15-1-.3-2-.45-3a1,1,0,0,1,.84-1.14,1,1,0,0,1,1.14.85c.15,1,.3,2,.44,3a1,1,0,0,1-.83,1.14Zm-.88-5.94a1,1,0,0,1-1-.86c-.14-1-.28-2-.42-3a1,1,0,1,1,2-.27c.14,1,.28,2,.42,3a1,1,0,0,1-.85,1.13Zm-.83-5.95a1,1,0,0,1-1-.87l-.4-3a1,1,0,0,1,.86-1.12,1,1,0,0,1,1.12.86l.4,3a1,1,0,0,1-.86,1.13Zm-.8-6a1,1,0,0,1-1-.87l-.38-3a1,1,0,1,1,2-.25l.39,3a1,1,0,0,1-.87,1.12Zm-.76-6a1,1,0,0,1-1-.87l-.37-3a1,1,0,0,1,.87-1.12,1,1,0,0,1,1.11.87l.37,3a1,1,0,0,1-.86,1.12Zm-.74-6a1,1,0,0,1-1-.88l-.36-3a1,1,0,0,1,2-.24l.36,3a1,1,0,0,1-.87,1.11Zm-.71-6a1,1,0,0,1-1-.88l-.35-3a1,1,0,1,1,2-.23l.35,3a1,1,0,0,1-.87,1.11Zm-.7-6a1,1,0,0,1-1-.88l-.34-3a1,1,0,1,1,2-.22l.34,3a1,1,0,0,1-.88,1.11Zm-.68-6a1,1,0,0,1-1-.89l-.33-3a1,1,0,0,1,2-.22l.34,3a1,1,0,0,1-.88,1.11Zm-.66-6a1,1,0,0,1-1-.89l-.32-3a1,1,0,1,1,2-.22l.33,3a1,1,0,0,1-.88,1.1Zm-.66-6a1,1,0,0,1-1-.9l-.32-3a1,1,0,0,1,2-.22l.32,3a1,1,0,0,1-.89,1.1Zm-.64-6a1,1,0,0,1-1-.9l-.32-3a1,1,0,1,1,2-.21l.32,3a1,1,0,0,1-.89,1.1Zm-.63-6a1,1,0,0,1-1-.89l-.31-3a1,1,0,1,1,2-.21l.32,3a1,1,0,0,1-.89,1.1Zm-.62-6a1,1,0,0,1-1-.89l-.31-3a1,1,0,0,1,2-.21l.3,3a1,1,0,0,1-.89,1.1Zm-.61-6a1,1,0,0,1-1-.9l-.3-3a1,1,0,0,1,2-.2l.3,3a1,1,0,0,1-.89,1.09Zm-.61-6a1,1,0,0,1-1-.9l-.3-3a1,1,0,1,1,2-.2l.3,3a1,1,0,0,1-.9,1.09Zm-.6-6a1,1,0,0,1-1-.9l-.3-3a1,1,0,0,1,2-.19l.3,3a1,1,0,0,1-.9,1.1Zm-.59-6a1,1,0,0,1-1-.91l-.3-3a1,1,0,0,1,2-.2l.29,3a1,1,0,0,1-.9,1.09Zm-.58-6a1,1,0,0,1-1-.9l-.29-3a1,1,0,0,1,2-.19l.29,3a1,1,0,0,1-.9,1.1Zm-.58-6a1,1,0,0,1-1-.9l-.28-3a1,1,0,0,1,2-.19l.29,3a1,1,0,0,1-.9,1.09Zm-.57-6a1,1,0,0,1-1-.91l-.28-3a1,1,0,0,1,2-.19l.28,3a1,1,0,0,1-.9,1.09Zm-.57-6a1,1,0,0,1-1-.9l-.28-3a1,1,0,0,1,2-.18l.28,3a1,1,0,0,1-.9,1.09Zm-.56-6a1,1,0,0,1-1-.9l-.28-3a1,1,0,0,1,2-.19l.28,3a1,1,0,0,1-.9,1.09Zm-.56-6a1,1,0,0,1-1-.9l-.27-3a1,1,0,0,1,2-.19l.27,3a1,1,0,0,1-.9,1.09Zm-.56-6a1,1,0,0,1-1-.91l-.28-3a1,1,0,0,1,2-.18l.27,3a1,1,0,0,1-.9,1.08Zm-.54-6a1,1,0,0,1-1-.91l-.27-3a1,1,0,0,1,.9-1.09,1,1,0,0,1,1.09.91l.27,3a1,1,0,0,1-.9,1.08Zm-.55-6a1,1,0,0,1-1-.91l-.27-3a1,1,0,0,1,.91-1.08,1,1,0,0,1,1.08.9l.28,3a1,1,0,0,1-.91,1.08Zm-.54-6a1,1,0,0,1-1-.91l-.27-3a1,1,0,0,1,2-.18l.26,3a1,1,0,0,1-.9,1.09Zm-.54-6a1,1,0,0,1-1-.92l-.27-3a1,1,0,0,1,2-.18l.27,3a1,1,0,0,1-.91,1.08Zm-.53-6a1,1,0,0,1-1-.91l-.26-3a1,1,0,0,1,2-.17l.27,3a1,1,0,0,1-.91,1.08Zm-.53-6a1,1,0,0,1-1-.92l-.26-3a1,1,0,0,1,2-.17l.27,3a1,1,0,0,1-.91,1.08Zm-.53-6a1,1,0,0,1-1-.91l-.27-3a1,1,0,0,1,2-.17l.26,3a1,1,0,0,1-.91,1.08Zm-.52-6a1,1,0,0,1-1-.91l-.26-3a1,1,0,0,1,.91-1.08,1,1,0,0,1,1.08.91l.27,3a1,1,0,0,1-.91,1.08Zm-.52-6a1,1,0,0,1-1-.91l-.26-3a1,1,0,0,1,.91-1.08,1,1,0,0,1,1.09.91l.25,3a1,1,0,0,1-.91,1.08Zm-.52-6a1,1,0,0,1-1-.91l-.25-3a1,1,0,0,1,2-.17l.26,3a1,1,0,0,1-.91,1.09Zm-.51-6a1,1,0,0,1-1-.92l-.26-3a1,1,0,0,1,.92-1.08,1,1,0,0,1,1.08.91l.25,3a1,1,0,0,1-.91,1.08Zm-.52-6a1,1,0,0,1-1-.92l-.26-3a1,1,0,0,1,2-.17l.25,3a1,1,0,0,1-.91,1.08Zm-.5-6a1,1,0,0,1-1-.91l-.25-3a1,1,0,1,1,2-.16l.25,3a1,1,0,0,1-.91,1.08Zm-.51-6a1,1,0,0,1-1-.92l-.25-3a1,1,0,0,1,.91-1.08,1,1,0,0,1,1.08.91l.26,3a1,1,0,0,1-.92,1.09Zm-.5-6a1,1,0,0,1-1-.92l-.25-3a1,1,0,0,1,2-.17l.25,3a1,1,0,0,1-.91,1.08Zm-.51-6a1,1,0,0,1-1-.92l-.25-3a1,1,0,1,1,2-.16l.25,3a1,1,0,0,1-.91,1.08Zm-.49-6a1,1,0,0,1-1-.92l-.25-3a1,1,0,0,1,2-.17l.24,3a1,1,0,0,1-.91,1.08Zm-.5-6a1,1,0,0,1-1-.92l-.25-3a1,1,0,1,1,2-.16l.25,3a1,1,0,0,1-.92,1.08Zm-.49-6a1,1,0,0,1-1-.91l-.24-3a1,1,0,0,1,2-.16l.25,3a1,1,0,0,1-.92,1.08Zm-.49-6a1,1,0,0,1-1-.92l-.24-3a1,1,0,0,1,2-.17l.24,3a1,1,0,0,1-.91,1.08Zm-.49-6a1,1,0,0,1-1-.92l-.24-3a1,1,0,1,1,2-.16l.25,3a1,1,0,0,1-.92,1.08Zm-.49-6a1,1,0,0,1-1-.92l-.25-3a1,1,0,1,1,2-.16l.24,3a1,1,0,0,1-.92,1.08Zm-.48-6a1,1,0,0,1-1-.92l-.24-3a1,1,0,1,1,2-.16l.24,3a1,1,0,0,1-.92,1.08Zm-.48-6a1,1,0,0,1-1-.92l-.24-3a1,1,0,0,1,2-.16l.24,3a1,1,0,0,1-.92,1.07Zm-.48-6a1,1,0,0,1-1-.92l-.24-3a1,1,0,0,1,2-.16l.24,3a1,1,0,0,1-.92,1.08Zm-.48-6a1,1,0,0,1-1-.92l-.24-3a1,1,0,0,1,.92-1.07,1,1,0,0,1,1.07.91l.24,3a1,1,0,0,1-.92,1.08Zm-.47-6a1,1,0,0,1-1-.92l-.23-3a1,1,0,0,1,2-.16l.24,3a1,1,0,0,1-.92,1.08Zm-.47-6a1,1,0,0,1-1-.92l-.23-3a1,1,0,1,1,2-.15l.24,3a1,1,0,0,1-.92,1.08ZM229,242a1,1,0,0,1-1-.83,1,1,0,0,1,.82-1.16l3-.51a1,1,0,0,1,.34,2l-3,.51Zm5.91-1a1,1,0,0,1-.17-2l3-.51a1,1,0,0,1,1.15.81,1,1,0,0,1-.81,1.16l-3,.51Zm23.37-.34a1,1,0,0,1-1-.92l-.23-3.05a1,1,0,1,1,2-.15l.24,3a1,1,0,0,1-.92,1.08ZM240.82,240a1,1,0,0,1-.16-2l3-.51a1,1,0,1,1,.34,2L241,240Zm5.92-1a1,1,0,0,1-.17-2l3-.51a1,1,0,0,1,1.16.81,1,1,0,0,1-.82,1.16l-3,.51Zm5.91-1a1,1,0,0,1-.17-2l3-.51a1,1,0,0,1,.34,2l-3,.51Z"/><path class="cls-7" d="M186.33,584.4h0a1,1,0,0,1-1-1c0-1,0-2,.06-3a1,1,0,0,1,1-1,1,1,0,0,1,1,1c0,1,0,2-.06,3A1,1,0,0,1,186.33,584.4Zm.14-6h0a1,1,0,0,1-1-1c0-1,.06-2,.09-3a1,1,0,0,1,2,.07q0,1.52-.09,3A1,1,0,0,1,186.47,578.4Zm.21-6h0a1,1,0,0,1-1-1c0-1,.08-2,.12-3a1,1,0,0,1,1-1,1,1,0,0,1,1,1c0,1-.09,2-.13,3A1,1,0,0,1,186.68,572.4Zm.26-6h-.05a1,1,0,0,1-.95-1c.05-1,.1-2,.16-3a1,1,0,1,1,2,.1q-.08,1.51-.15,3A1,1,0,0,1,186.94,566.4Zm.32-6h-.06a1,1,0,0,1-.94-1l.18-3a1,1,0,1,1,2,.12c-.06,1-.12,2-.17,3A1,1,0,0,1,187.26,560.4Zm.36-6h-.06a1,1,0,0,1-.94-1.06l.2-3a1,1,0,0,1,2,.13l-.2,3A1,1,0,0,1,187.62,554.41Zm.4-6H188a1,1,0,0,1-.92-1.07l.21-3a1,1,0,0,1,2,.15l-.22,3A1,1,0,0,1,188,548.42Zm.44-6h-.07a1,1,0,0,1-.93-1.07l.24-3a1,1,0,0,1,1.07-.92,1,1,0,0,1,.92,1.08l-.23,3A1,1,0,0,1,188.46,542.43Zm.47-6h-.08a1,1,0,0,1-.91-1.07l.24-3a1,1,0,0,1,2,.17l-.24,3A1,1,0,0,1,188.93,536.45Zm.5-6h-.08a1,1,0,0,1-.91-1.08l.25-3a1,1,0,0,1,2,.17l-.26,3A1,1,0,0,1,189.43,530.46Zm.53-6h-.09a1,1,0,0,1-.91-1.09l.27-3a1,1,0,1,1,2,.19l-.27,3A1,1,0,0,1,190,524.48Zm.55-6h-.1a1,1,0,0,1-.9-1.09l.28-3a1,1,0,0,1,1.1-.9,1,1,0,0,1,.9,1.09l-.29,3A1,1,0,0,1,190.51,518.51Zm.57-6H191a1,1,0,0,1-.9-1.09l.3-3a1,1,0,0,1,1.09-.89,1,1,0,0,1,.9,1.09l-.3,3A1,1,0,0,1,191.08,512.53Zm.59-6h-.1a1,1,0,0,1-.89-1.1l.3-3a1,1,0,0,1,1.1-.9,1,1,0,0,1,.89,1.1l-.3,3A1,1,0,0,1,191.67,506.56Zm.62-6h-.11a1,1,0,0,1-.89-1.1l.31-3a1,1,0,0,1,1.1-.89,1,1,0,0,1,.89,1.1l-.31,3A1,1,0,0,1,192.29,500.58Zm.63-6h-.11a1,1,0,0,1-.89-1.1l.32-3a1,1,0,0,1,1.1-.88,1,1,0,0,1,.89,1.1l-.32,3A1,1,0,0,1,192.92,494.61Zm.64-6h-.11a1,1,0,0,1-.88-1.1l.33-3a1,1,0,0,1,2,.22l-.33,3A1,1,0,0,1,193.56,488.65Zm.67-6h-.12a1,1,0,0,1-.88-1.1l.34-3a1,1,0,0,1,2,.23l-.34,3A1,1,0,0,1,194.23,482.68Zm.68-6h-.12a1,1,0,0,1-.88-1.11l.34-3a1,1,0,0,1,1.11-.88,1,1,0,0,1,.88,1.11l-.34,3A1,1,0,0,1,194.91,476.72Zm.69-6h-.12a1,1,0,0,1-.88-1.11l.35-3a1,1,0,0,1,2,.24l-.35,3A1,1,0,0,1,195.6,470.75Zm.7-6h-.12a1,1,0,0,1-.87-1.11l.36-3a1,1,0,0,1,2,.24l-.35,3A1,1,0,0,1,196.3,464.79Zm.72-6h-.12a1,1,0,0,1-.87-1.11l.36-3a1,1,0,0,1,2,.24l-.37,3A1,1,0,0,1,197,458.83Zm.73-6h-.12a1,1,0,0,1-.87-1.12l.37-3a1,1,0,1,1,2,.25l-.37,3A1,1,0,0,1,197.75,452.87Zm.74-5.95h-.12a1,1,0,0,1-.87-1.12l.38-3a1,1,0,0,1,2,.25l-.37,3A1,1,0,0,1,198.49,446.92Zm.76-6h-.13a1,1,0,0,1-.87-1.11l.38-3a1,1,0,0,1,2,.25l-.38,3A1,1,0,0,1,199.25,441Zm.76-6h-.13a1,1,0,0,1-.86-1.12l.39-3a1,1,0,0,1,1.12-.87,1,1,0,0,1,.86,1.13l-.39,3A1,1,0,0,1,200,435Zm.78-6h-.13a1,1,0,0,1-.86-1.12l.39-3a1,1,0,0,1,2,.26l-.39,3A1,1,0,0,1,200.79,429Zm.78-6h-.13a1,1,0,0,1-.86-1.12l.4-3a1,1,0,0,1,2,.26l-.4,3A1,1,0,0,1,201.57,423.06Zm.8-5.94h-.14a1,1,0,0,1-.86-1.13l.4-3a1,1,0,0,1,1.13-.85,1,1,0,0,1,.85,1.12l-.4,3A1,1,0,0,1,202.37,417.12Zm.79-5.94H203a1,1,0,0,1-.86-1.12l.41-3a1,1,0,0,1,1.12-.85,1,1,0,0,1,.86,1.12l-.41,3A1,1,0,0,1,203.16,411.18Zm.81-5.94h-.13a1,1,0,0,1-.86-1.12l.41-3a1,1,0,0,1,2,.28l-.41,3A1,1,0,0,1,204,405.24Zm.82-5.94h-.14a1,1,0,0,1-.85-1.13l.41-3a1,1,0,1,1,2,.27l-.41,3A1,1,0,0,1,204.79,399.3Zm.83-5.95h-.14a1,1,0,0,1-.85-1.13l.41-3a1,1,0,1,1,2,.28l-.41,3A1,1,0,0,1,205.62,393.35Zm.83-5.94h-.14a1,1,0,0,1-.85-1.13l.42-3a1,1,0,0,1,1.13-.85,1,1,0,0,1,.85,1.14l-.42,3A1,1,0,0,1,206.45,387.41Zm.85-6h-.15a1,1,0,0,1-.84-1.13l.42-3a1,1,0,0,1,2,.28l-.43,3A1,1,0,0,1,207.3,381.46Zm.85-5.94H208a1,1,0,0,1-.85-1.13l.43-3a1,1,0,0,1,2,.28l-.43,3A1,1,0,0,1,208.15,375.52Zm.85-5.94h-.14a1,1,0,0,1-.85-1.13l.43-3a1,1,0,0,1,2,.29l-.43,3A1,1,0,0,1,209,369.58Zm.87-5.94h-.15a1,1,0,0,1-.84-1.14l.43-3a1,1,0,0,1,2,.29l-.44,3A1,1,0,0,1,209.87,363.64Zm.87-5.94h-.15a1,1,0,0,1-.84-1.14l.43-3a1,1,0,0,1,1.14-.84,1,1,0,0,1,.84,1.14l-.43,3A1,1,0,0,1,210.74,357.7Zm.87-5.94h-.14a1,1,0,0,1-.85-1.14l.45-3a1,1,0,1,1,2,.3l-.44,3A1,1,0,0,1,211.61,351.76Zm.89-5.94h-.15a1,1,0,0,1-.84-1.14l.44-3a1,1,0,1,1,2,.29l-.44,3A1,1,0,0,1,212.5,345.82Zm.89-5.93-.15,0a1,1,0,0,1-.84-1.13l.45-3a1,1,0,1,1,2,.3l-.44,3A1,1,0,0,1,213.39,339.89Zm.9-5.94h-.15a1,1,0,0,1-.84-1.14l.45-3a1,1,0,1,1,2,.3l-.45,3A1,1,0,0,1,214.29,334Zm.9-5.94H215a1,1,0,0,1-.84-1.14l.45-3a1,1,0,0,1,2,.31l-.45,3A1,1,0,0,1,215.19,328Zm.91-5.93H216a1,1,0,0,1-.84-1.14l.46-3a1,1,0,1,1,2,.3l-.45,3A1,1,0,0,1,216.1,322.08Zm.91-5.94h-.15A1,1,0,0,1,216,315l.46-3a1,1,0,0,1,1.15-.83,1,1,0,0,1,.83,1.14l-.46,3A1,1,0,0,1,217,316.14Zm.92-5.93h-.15a1,1,0,0,1-.83-1.14l.46-3a1,1,0,0,1,2,.31l-.46,3A1,1,0,0,1,217.93,310.21Zm.93-5.93h-.15a1,1,0,0,1-.84-1.15l.47-3a1,1,0,0,1,1.14-.84,1,1,0,0,1,.83,1.15l-.46,3A1,1,0,0,1,218.86,304.28Zm.94-5.93-.16,0a1,1,0,0,1-.83-1.14l.47-3a1,1,0,1,1,2,.32l-.47,3A1,1,0,0,1,219.8,298.35Zm.93-5.93-.15,0a1,1,0,0,1-.83-1.14l.47-3a1,1,0,1,1,2,.32l-.47,3A1,1,0,0,1,220.73,292.42Zm1-5.94h-.16a1,1,0,0,1-.83-1.14l.48-3a1,1,0,1,1,2,.32l-.47,3A1,1,0,0,1,221.68,286.48Zm.95-5.93h-.16a1,1,0,0,1-.83-1.15l.48-3a1,1,0,0,1,1.15-.83,1,1,0,0,1,.83,1.15l-.48,3A1,1,0,0,1,222.63,280.55Zm1-5.93h-.16a1,1,0,0,1-.83-1.15l.48-3a1,1,0,0,1,2,.32l-.48,3A1,1,0,0,1,223.59,274.62Zm1-5.93h-.16a1,1,0,0,1-.82-1.15l.48-3a1,1,0,1,1,2,.32l-.48,3A1,1,0,0,1,224.55,268.69Zm1-5.93h-.17a1,1,0,0,1-.82-1.15l.49-3a1,1,0,1,1,2,.33l-.49,3A1,1,0,0,1,225.53,262.76Zm1-5.93h-.16a1,1,0,0,1-.82-1.15l.49-3a1,1,0,1,1,2,.33l-.49,3A1,1,0,0,1,226.5,256.83Zm1-5.94h-.16a1,1,0,0,1-.83-1.15l.5-3a1,1,0,0,1,1.15-.83,1,1,0,0,1,.82,1.16l-.49,3A1,1,0,0,1,227.49,250.89Zm1-5.95h-.17a1,1,0,0,1-.82-1.15l.51-3a1,1,0,0,1,2,.34l-.51,3A1,1,0,0,1,228.49,244.94Z"/><path class="cls-6" d="M362.81,334.08s.81-111.93,0-116.51,28,4.43,35.6,15.93c0,0,1.73,8.94,3.66,41.72S410,432,411,457s0,83,0,83-35.79,32.21-76.39,36.1C334.61,576.1,362.62,353.17,362.81,334.08Z"/><path class="cls-7" d="M342.41,575.33a1,1,0,0,1-.4-.09,1,1,0,0,1-.56-1.19c0-.11.11-.62.42-2.86a1,1,0,1,1,2,.27,19,19,0,0,1-.52,3.28A1,1,0,0,1,342.41,575.33Zm.86-6h-.14a1,1,0,0,1-.86-1.12l.4-3a1,1,0,0,1,1.12-.86,1,1,0,0,1,.86,1.12l-.4,3A1,1,0,0,1,343.27,569.33Zm.77-6h-.12a1,1,0,0,1-.87-1.12l.38-3a1,1,0,0,1,2,.25l-.38,3A1,1,0,0,1,344,563.36Zm.77-6h-.13a1,1,0,0,1-.87-1.11l.38-3a1,1,0,0,1,2,.25l-.38,3A1,1,0,0,1,344.81,557.39Zm.75-6h-.13a1,1,0,0,1-.86-1.12l.37-3a1,1,0,1,1,2,.25l-.37,3A1,1,0,0,1,345.56,551.43Zm.74-6h-.12a1,1,0,0,1-.87-1.12l.37-3a1,1,0,0,1,1.11-.87,1,1,0,0,1,.87,1.11l-.37,3A1,1,0,0,1,346.3,545.46Zm59.67-.9a.91.91,0,0,1-.23,0,1,1,0,0,1-.75-1.19,11.67,11.67,0,0,0,.21-1.39,1,1,0,0,1,2,.21,15.29,15.29,0,0,1-.25,1.62A1,1,0,0,1,406,544.56Zm.44-4.5h-.05a1,1,0,0,1-.95-1c0-.89.08-1.88.11-3a1,1,0,0,1,1-1,1,1,0,0,1,1,1c0,1.11-.06,2.12-.11,3A1,1,0,0,1,406.41,540.06ZM347,539.5h-.13a1,1,0,0,1-.87-1.11l.37-3a1,1,0,0,1,2,.24l-.36,3A1,1,0,0,1,347,539.5Zm59.54-5.44h0a1,1,0,0,1-1-1c0-.94,0-1.94,0-3a1,1,0,0,1,1-1h0a1,1,0,0,1,1,1c0,1,0,2.06,0,3A1,1,0,0,1,406.58,534.06Zm-58.81-.52h-.13a1,1,0,0,1-.87-1.11l.36-3a1,1,0,0,1,1.12-.88,1,1,0,0,1,.87,1.12l-.36,3A1,1,0,0,1,347.77,533.54Zm58.84-5.48a1,1,0,0,1-1-1c0-1,0-2,0-3a1,1,0,0,1,1-1h0a1,1,0,0,1,1,1c0,1,0,2,0,3a1,1,0,0,1-1,1Zm-58.12-.49h-.12a1,1,0,0,1-.88-1.12l.36-3a1,1,0,0,1,2,.24l-.36,3A1,1,0,0,1,348.49,527.57Zm58.08-5.51a1,1,0,0,1-1-1c0-1,0-2,0-3a1,1,0,0,1,1-1,1,1,0,0,1,1,1c0,1,0,2,0,3a1,1,0,0,1-1,1Zm-57.37-.45h-.12a1,1,0,0,1-.87-1.12l.36-3a1,1,0,0,1,2,.24l-.35,3A1,1,0,0,1,349.2,521.61Zm57.28-5.56a1,1,0,0,1-1-1l-.05-3a1,1,0,0,1,2,0l.05,3a1,1,0,0,1-1,1Zm-56.57-.4h-.11a1,1,0,0,1-.88-1.11l.35-3a1,1,0,1,1,2,.24l-.35,3A1,1,0,0,1,349.91,515.65ZM406.37,510a1,1,0,0,1-1-1l-.07-3a1,1,0,0,1,1-1,1,1,0,0,1,1,1l.07,3a1,1,0,0,1-1,1Zm-55.75-.35h-.12a1,1,0,0,1-.88-1.11l.35-3a1,1,0,0,1,2,.23l-.35,3A1,1,0,0,1,350.62,509.69ZM406.23,504a1,1,0,0,1-1-1l-.08-3a1,1,0,0,1,1-1,1,1,0,0,1,1,1l.08,3a1,1,0,0,1-1,1Zm-54.91-.32h-.12a1,1,0,0,1-.88-1.1l.35-3a1,1,0,0,1,2,.23l-.35,3A1,1,0,0,1,351.32,503.72ZM406.07,498a1,1,0,0,1-1-1l-.08-3a1,1,0,0,1,1-1,1,1,0,0,1,1,1l.08,3a1,1,0,0,1-1,1ZM352,497.76h-.12a1,1,0,0,1-.87-1.11l.34-3a1,1,0,0,1,2,.23l-.35,3A1,1,0,0,1,352,497.76ZM405.9,492a1,1,0,0,1-1-1l-.09-3a1,1,0,1,1,2-.06l.09,3a1,1,0,0,1-1,1Zm-53.2-.24h-.12a1,1,0,0,1-.88-1.11l.34-3a1,1,0,0,1,1.11-.88,1,1,0,0,1,.88,1.1l-.34,3A1,1,0,0,1,352.7,491.79Zm53-5.77a1,1,0,0,1-1-1l-.1-3a1,1,0,0,1,1-1,1,1,0,0,1,1,1l.1,3a1,1,0,0,1-1,1Zm-52.34-.19h-.11a1,1,0,0,1-.88-1.11l.33-3a1,1,0,1,1,2,.23l-.34,3A1,1,0,0,1,353.38,485.83ZM405.52,480a1,1,0,0,1-1-1l-.1-3a1,1,0,0,1,1-1,1,1,0,0,1,1,1l.1,3a1,1,0,0,1-1,1Zm-51.46-.16h-.12a1,1,0,0,1-.88-1.1l.34-3a1,1,0,0,1,1.1-.89,1,1,0,0,1,.89,1.11l-.34,3A1,1,0,0,1,354.06,479.86ZM405.32,474a1,1,0,0,1-1-1l-.11-3a1,1,0,0,1,2-.08l.11,3a1,1,0,0,1-1,1Zm-50.59-.12h-.12a1,1,0,0,1-.88-1.11l.34-3a1,1,0,1,1,2,.22l-.33,3A1,1,0,0,1,354.73,473.9ZM405.1,468a1,1,0,0,1-1-1l-.11-3a1,1,0,0,1,2-.08l.1,3a1,1,0,0,1-1,1Zm-49.71-.09h-.11a1,1,0,0,1-.88-1.1l.33-3a1,1,0,0,1,2,.22l-.33,3A1,1,0,0,1,355.39,467.93Zm49.5-5.91a1,1,0,0,1-1-1l-.12-3a1,1,0,0,1,1-1,1,1,0,0,1,1,1l.12,3a1,1,0,0,1-1,1ZM356.05,462h-.11a1,1,0,0,1-.88-1.11l.32-3a1,1,0,1,1,2,.22l-.33,3A1,1,0,0,1,356.05,462ZM404.66,456a1,1,0,0,1-1-1l-.11-3a1,1,0,1,1,2-.08l.12,3a1,1,0,0,1-1,1Zm-48,0h-.11a1,1,0,0,1-.88-1.1l.32-3a1,1,0,1,1,2,.22l-.32,3A1,1,0,0,1,356.7,456Zm.65-6h-.11a1,1,0,0,1-.88-1.1l.32-3a1,1,0,0,1,1.1-.88,1,1,0,0,1,.89,1.1l-.33,3A1,1,0,0,1,357.35,450Zm47.08,0a1,1,0,0,1-1-1l-.12-3a1,1,0,0,1,1-1,1,1,0,0,1,1,1l.12,3a1,1,0,0,1-1,1Zm-46.44-6h-.11A1,1,0,0,1,357,443l.31-3a1,1,0,0,1,1.1-.88,1,1,0,0,1,.89,1.1l-.32,3A1,1,0,0,1,358,444.06Zm46.2,0a1,1,0,0,1-1-1l-.12-3a1,1,0,0,1,2-.08l.12,3a1,1,0,0,1-1,1Zm-45.57-5.93h-.1a1,1,0,0,1-.89-1.1l.31-3a1,1,0,0,1,1.1-.89,1,1,0,0,1,.89,1.09l-.31,3A1,1,0,0,1,358.62,438.09ZM404,438a1,1,0,0,1-1-1l-.12-3a1,1,0,0,1,1-1,1,1,0,0,1,1,1l.12,3a1,1,0,0,1-1,1Zm-44.7-5.91h-.1a1,1,0,0,1-.89-1.1l.31-3a1,1,0,1,1,2,.2l-.31,3A1,1,0,0,1,359.25,432.11ZM403.7,432a1,1,0,0,1-1-1l-.13-3a1,1,0,1,1,2-.08l.12,3a1,1,0,0,1-.95,1Zm-43.83-5.88h-.1a1,1,0,0,1-.89-1.1l.3-3a1,1,0,0,1,2,.2l-.3,3A1,1,0,0,1,359.87,426.14Zm43.58-.12a1,1,0,0,1-1-1l-.12-3a1,1,0,0,1,.95-1,1,1,0,0,1,1.05,1l.12,3a1,1,0,0,1-.95,1Zm-43-5.82h-.1a1,1,0,0,1-.89-1.1l.3-3a1,1,0,1,1,2,.21l-.3,3A1,1,0,0,1,360.48,420.2ZM403.2,420a1,1,0,0,1-1-.95l-.13-3a1,1,0,1,1,2-.09l.13,3a1,1,0,0,1-1,1Zm-42.11-5.79H361a1,1,0,0,1-.9-1.1l.3-3a1,1,0,1,1,2,.2l-.3,3A1,1,0,0,1,361.09,414.23Zm41.85-.21a1,1,0,0,1-1-.95l-.13-3a1,1,0,0,1,1-1,1,1,0,0,1,1,1l.13,3a1,1,0,0,1-.95,1Zm-41.25-5.76h-.1a1,1,0,0,1-.9-1.09l.3-3a1,1,0,0,1,1.09-.9,1,1,0,0,1,.9,1.1l-.3,3A1,1,0,0,1,361.69,408.26Zm41-.23a1,1,0,0,1-1-1l-.13-3a1,1,0,0,1,.95-1,1,1,0,0,1,1.05,1l.13,3a1,1,0,0,1-1,1Zm-40.4-5.76h-.1a1,1,0,0,1-.9-1.1l.3-3a1,1,0,0,1,1.09-.9,1,1,0,0,1,.9,1.09l-.3,3A1,1,0,0,1,362.28,402.27Zm40.13-.24a1,1,0,0,1-1-1l-.14-3a1,1,0,0,1,1-1,1,1,0,0,1,1,1l.13,3a1,1,0,0,1-1,1Zm-39.55-5.74h-.1a1,1,0,0,1-.89-1.09l.28-3a1,1,0,0,1,1.1-.9,1,1,0,0,1,.89,1.09l-.28,3A1,1,0,0,1,362.86,396.29Zm39.29-.26a1,1,0,0,1-1-1l-.13-3a1,1,0,1,1,2-.09l.14,3a1,1,0,0,1-1,1Zm-38.71-5.72h-.1a1,1,0,0,1-.9-1.1l.28-3a1,1,0,0,1,2,.19l-.28,3A1,1,0,0,1,363.44,390.31Zm38.44-.28a1,1,0,0,1-1-.95l-.14-3a1,1,0,1,1,2-.09l.14,3a1,1,0,0,1-1,1ZM364,384.33h-.09a1,1,0,0,1-.91-1.09l.28-3a1,1,0,0,1,1.09-.9,1,1,0,0,1,.9,1.09l-.28,3A1,1,0,0,1,364,384.33Zm37.6-.31a1,1,0,0,1-1-1l-.14-3a1,1,0,0,1,.95-1,1,1,0,0,1,1.05,1l.13,3a1,1,0,0,1-1,1Zm-37.05-5.66h-.09a1,1,0,0,1-.9-1.09l.27-3a1,1,0,0,1,1.09-.91,1,1,0,0,1,.9,1.09l-.27,3A1,1,0,0,1,364.55,378.36Zm36.78-.34a1,1,0,0,1-1-1l-.14-3a1,1,0,0,1,.95-1.05,1,1,0,0,1,1.05,1l.14,3a1,1,0,0,1-.95,1Zm-36.23-5.64H365a1,1,0,0,1-.91-1.08l.27-3a1,1,0,1,1,2,.18l-.27,3A1,1,0,0,1,365.1,372.38Zm35.95-.35a1,1,0,0,1-1-.95l-.14-3a1,1,0,0,1,1-1,1,1,0,0,1,1,.95l.14,3a1,1,0,0,1-.95,1Zm-35.42-5.63h-.09a1,1,0,0,1-.9-1.08l.26-3a1,1,0,1,1,2,.17l-.26,3A1,1,0,0,1,365.63,366.4Zm35.14-.35a1,1,0,0,1-1-.95l-.14-3a1,1,0,0,1,.95-1.05,1,1,0,0,1,1.05.95l.14,3a1,1,0,0,1-.95,1.05Zm-34.61-5.63h-.09a1,1,0,0,1-.91-1.08l.26-3a1,1,0,0,1,2,.17l-.26,3A1,1,0,0,1,366.16,360.42Zm34.33-.37a1,1,0,0,1-1-.95l-.14-3a1,1,0,0,1,.95-1.05,1,1,0,0,1,1.05.95l.14,3a1,1,0,0,1-.95,1.05Zm-33.82-5.61h-.09a1,1,0,0,1-.91-1.08l.25-3a1,1,0,0,1,2,.17l-.25,3A1,1,0,0,1,366.67,354.44Zm33.53-.39a1,1,0,0,1-1-.95l-.15-3a1,1,0,0,1,.95-1,1,1,0,0,1,1.05.95l.14,3a1,1,0,0,1-.95,1Zm-33-5.6h-.09a1,1,0,0,1-.91-1.08l.24-3a1,1,0,1,1,2,.16l-.25,3A1,1,0,0,1,367.17,348.45Zm32.75-.39a1,1,0,0,1-1-1l-.14-3a1,1,0,1,1,2-.1l.15,3a1,1,0,0,1-.95,1.05Zm-32.27-5.59h-.08a1,1,0,0,1-.92-1.08l.24-3a1,1,0,0,1,1.08-.92,1,1,0,0,1,.91,1.08l-.23,3A1,1,0,0,1,367.65,342.47Zm32-.41a1,1,0,0,1-1-.95l-.14-3a1,1,0,0,1,.95-1.05,1,1,0,0,1,1,.95l.15,3a1,1,0,0,1-.95,1.05Zm-31.51-5.58H368a1,1,0,0,1-.92-1.07l.23-3a1,1,0,1,1,2,.15l-.23,3A1,1,0,0,1,368.12,336.48Zm31.22-.42a1,1,0,0,1-1-.95l-.15-3a1,1,0,0,1,2-.1l.15,3a1,1,0,0,1-.95,1.05Zm-30.76-5.56h-.08a1,1,0,0,1-.92-1.08l.22-3a1,1,0,0,1,2,.15l-.22,3A1,1,0,0,1,368.58,330.5Zm30.47-.44a1,1,0,0,1-1-.95l-.15-3a1,1,0,0,1,2-.09l.15,3a1,1,0,0,1-.95,1Zm-30-5.55h-.07a1,1,0,0,1-.92-1.07l.21-3a1,1,0,0,1,1.06-.93,1,1,0,0,1,.93,1.06l-.21,3A1,1,0,0,1,369,324.51Zm29.74-.44a1,1,0,0,1-1-.95l-.14-3a1,1,0,1,1,2-.1l.15,3a1,1,0,0,1-.95,1.05Zm-29.32-5.55h-.07a1,1,0,0,1-.93-1.07l.21-3a1,1,0,1,1,2,.13l-.2,3A1,1,0,0,1,369.43,318.52Zm29-.45a1,1,0,0,1-1-.95l-.15-3a1,1,0,0,1,.95-1.05,1,1,0,0,1,1.05.95l.15,3a1,1,0,0,1-.95,1.05Zm-28.63-5.54h-.06a1,1,0,0,1-.94-1.06l.2-3a1,1,0,1,1,2,.13l-.19,3A1,1,0,0,1,369.83,312.53Zm28.33-.46a1,1,0,0,1-1-.95l-.15-3a1,1,0,1,1,2-.1l.15,3a1,1,0,0,1-1,1.05Zm-28-5.53h-.06a1,1,0,0,1-.94-1.06l.18-3a1,1,0,0,1,1.06-.94,1,1,0,0,1,.94,1.06l-.18,3A1,1,0,0,1,370.21,306.54Zm27.65-.47a1,1,0,0,1-1-.95l-.15-3a1,1,0,0,1,2-.1l.15,3a1,1,0,0,1-.95,1.05Zm-27.3-5.53h-.05a1,1,0,0,1-.95-1.05l.17-3a1,1,0,0,1,2,.11l-.17,3A1,1,0,0,1,370.56,300.54Zm27-.46a1,1,0,0,1-1-.95l-.15-3a1,1,0,1,1,2-.1l.15,3a1,1,0,0,1-.95,1.05Zm-26.67-5.53h-.05a1,1,0,0,1-.95-1.05l.15-3a1,1,0,0,1,1-.95,1,1,0,0,1,1,1.05l-.15,3A1,1,0,0,1,370.89,294.55Zm26.37-.47a1,1,0,0,1-1-.95l-.15-3a1,1,0,1,1,2-.1l.16,3a1,1,0,0,1-.95,1.05Zm-26.08-5.53h0a1,1,0,0,1-1-1l.14-3a1,1,0,0,1,1-1,1,1,0,0,1,1,1.05l-.14,3A1,1,0,0,1,371.18,288.55Zm25.77-.47a1,1,0,0,1-1-.95l-.15-3a1,1,0,0,1,.95-1.05,1,1,0,0,1,1.05.95l.15,3a1,1,0,0,1-.95,1.05Zm-25.51-5.53h0a1,1,0,0,1-1-1c0-1,.08-2,.12-3a1,1,0,1,1,2,.07q-.06,1.49-.12,3A1,1,0,0,1,371.44,282.55Zm25.21-.47a1,1,0,0,1-1-.95l-.16-3a1,1,0,0,1,.95-1.05,1,1,0,0,1,1.05.95l.16,3a1,1,0,0,1-.95,1.05Zm-25-5.53h0a1,1,0,0,1-1-1q.06-1.51.09-3a1,1,0,0,1,2,.06c0,1-.06,2-.09,3A1,1,0,0,1,371.66,276.55Zm24.68-.47a1,1,0,0,1-1-.95l-.15-3a1,1,0,0,1,.94-1.05,1,1,0,0,1,1.05.95l.16,3a1,1,0,0,1-.95,1.05Zm-24.51-5.53h0a1,1,0,0,1-1-1c0-1,.05-2,.07-3a1,1,0,1,1,2,0c0,1,0,2-.07,3A1,1,0,0,1,371.83,270.55Zm24.2-.47a1,1,0,0,1-1-.95l-.15-3a1,1,0,0,1,.94-1.05,1,1,0,0,1,1.05.95l.16,3a1,1,0,0,1-.95,1.05ZM372,264.55h0a1,1,0,0,1-1-1c0-1,0-2,0-3a1,1,0,0,1,1-1h0a1,1,0,0,1,1,1c0,1,0,2,0,3A1,1,0,0,1,372,264.55Zm23.77-.47a1,1,0,0,1-1-.95l-.16-3a1,1,0,1,1,2-.1l.16,3a1,1,0,0,1-1,1.05ZM372,258.54a1,1,0,0,1-1-1v-.32c0-.9,0-1.79,0-2.67a1,1,0,0,1,1-1h0a1,1,0,0,1,1,1c0,.88,0,1.78,0,2.69v.31A1,1,0,0,1,372,258.54Zm23.41-.46a1,1,0,0,1-1-.95l-.16-3a1,1,0,0,1,2-.11l.15,3a1,1,0,0,1-.94,1.05ZM372,252.54a1,1,0,0,1-1-1c0-1,0-2-.06-3a1,1,0,0,1,1-1,1,1,0,0,1,1,1c0,1,0,2,.06,3a1,1,0,0,1-1,1Zm23.14-.47a1,1,0,0,1-1-.95l-.16-3a1,1,0,0,1,2-.11l.16,3a1,1,0,0,1-.95,1Zm-23.3-5.52a1,1,0,0,1-1-1c0-1-.09-2-.14-3a1,1,0,0,1,2-.1c.05,1,.1,2,.14,3a1,1,0,0,1-1,1Zm23-.49a1,1,0,0,1-1-.95l-.15-3a1,1,0,0,1,.94-1,1,1,0,0,1,1.05.95l.16,3a1,1,0,0,1-.94,1.05Zm-23.31-5.5a1,1,0,0,1-1-.93c-.08-1-.16-2-.25-3a1,1,0,1,1,2-.19c.09,1,.18,2,.25,3a1,1,0,0,1-.92,1.07Zm23-.53a1,1,0,0,1-1-.94l-.16-3a1,1,0,0,1,.5-1,1,1,0,0,1,1.36.36h0a1,1,0,0,1,.13.45l.16,3a1,1,0,0,1-.94,1.05Zm-2.55-4.82a.91.91,0,0,1-.48-.13c-.71-.39-1.6-.83-2.63-1.3a1,1,0,0,1-.5-1.32,1,1,0,0,1,1.33-.5c1.08.5,2,1,2.76,1.37a1,1,0,0,1-.48,1.88Zm-21-.63a1,1,0,0,1-1-.87c-.14-1-.29-2-.45-2.91a1,1,0,1,1,2-.36c.17.93.32,1.94.46,3a1,1,0,0,1-.86,1.12Zm15.57-1.91a.91.91,0,0,1-.39-.08c-.89-.37-1.82-.74-2.77-1.11a1,1,0,0,1,.73-1.86c1,.37,1.9.75,2.81,1.13a1,1,0,0,1-.38,1.92Zm-5.6-2.2a1.07,1.07,0,0,1-.35-.06c-.95-.36-1.89-.71-2.81-1a1,1,0,0,1,.68-1.88l2.83,1a1,1,0,0,1-.35,1.94Zm-11.06-1.78a1,1,0,0,1-1-.75,17.56,17.56,0,0,0-.73-2.25,1,1,0,0,1,.2-1.06,1,1,0,0,1,1-.27l.48.16a1,1,0,0,1,.64,1.26.82.82,0,0,1-.11.23c.15.45.29.92.42,1.42a1,1,0,0,1-.71,1.22A.82.82,0,0,1,369.79,228.69Zm5.41-.27a1,1,0,0,1-.33-.06l-2.84-1a1,1,0,0,1,.65-1.89l2.85,1a1,1,0,0,1-.33,1.94Z"/><polygon class="cls-7" points="361 459 399.46 452.84 399.46 469.15 361 475 361 459"/><polygon class="cls-7" points="361 482.99 356.6 510.25 368 507 373.02 480.78 361 482.99"/><polygon class="cls-7" points="377 480 374.1 506.11 385.66 503.96 390 478 377 480"/><polygon class="cls-7" points="400 477 399.2 501.55 390 503 393 478 400 477"/><path class="cls-7" d="M359.05,551.78h-.11a1,1,0,0,1-.89-1.11l.57-5a1,1,0,1,1,2,.22l-.57,5A1,1,0,0,1,359.05,551.78Zm1.69-14.91h-.11a1,1,0,0,1-.88-1.11l.56-5a1,1,0,0,1,1.11-.88,1,1,0,0,1,.88,1.11l-.56,5A1,1,0,0,1,360.74,536.87Zm1.7-14.9h-.12a1,1,0,0,1-.88-1.1l.57-5a1,1,0,0,1,1.1-.88,1,1,0,0,1,.88,1.1l-.56,5A1,1,0,0,1,362.44,522Z"/><path class="cls-7" d="M382.05,546.31a1,1,0,0,1-1-1v-5a1,1,0,0,1,2,0v5A1,1,0,0,1,382.05,546.31Zm0-15a1,1,0,0,1-1-1v-5a1,1,0,0,1,2,0v5A1,1,0,0,1,382.05,531.31Zm0-15a1,1,0,0,1-1-1v-5a1,1,0,0,1,2,0v5A1,1,0,0,1,382.05,516.31Z"/><path class="cls-7" d="M395,543.6a1,1,0,0,1-1-1v-5a1,1,0,0,1,2,0v5A1,1,0,0,1,395,543.6Zm0-15a1,1,0,0,1-1-1v-5a1,1,0,0,1,2,0v5A1,1,0,0,1,395,528.6Zm0-15a1,1,0,0,1-1-1v-5a1,1,0,0,1,2,0v5A1,1,0,0,1,395,513.6Z"/></g><g id="neck"><path class="cls-8" d="M285.59,175.57v48.89s28.82,37.08,53.82,0V179.58Z"/></g><g id="head"><path class="cls-1" d="M354.35,59.44S331.58,20.59,282,52.74s-39.78,129.55,10.25,132.43,97.58-38.4,97.58-38.4,16.76-24.37,6-56.52S373.11,55.42,354.35,59.44Z"/><path class="cls-4" d="M385.76,94.49c3.18-4.87,11,82.43-9.89,102.4s-63.31,30.28-83.61-11.72c0,0,3.8-18.45,3.14-22.19,0,0-13.44-1.52-18.44-13.34s3.36-17.36,5.88-17.27,12-1.26,15.63,13.14c0,0,11.3-15.74,10.15-24.11l8-4.79S371.62,116.14,385.76,94.49Z"/><ellipse cx="344.3" cy="141.83" rx="4.02" ry="10.72"/><ellipse cx="371.1" cy="141.83" rx="4.02" ry="10.72"/><path class="cls-9" d="M319.59,184.35a1.5,1.5,0,0,1-.59-2.89,37.23,37.23,0,0,0,19.46-18.13c.67-1.3,1-1.84,1.57-2.14a1.5,1.5,0,0,1,1.66,2.46c-.12.2-.36.65-.57,1.06a40,40,0,0,1-20.95,19.52A1.51,1.51,0,0,1,319.59,184.35Zm21.78-20.48Z"/></g></svg>