<svg xmlns="http://www.w3.org/2000/svg" xmlns:xlink="http://www.w3.org/1999/xlink" viewBox="0 0 619 1080"><defs><style>.cls-1{fill:none;}.cls-2{fill:#b3b3b3;}.cls-3{fill:#4d4d4d;}.cls-4{fill:#1f3598;}.cls-5{fill:#333;}.cls-6{fill:#ff8358;}.cls-7{clip-path:url(#clip-path);}.cls-8{fill:#777;}.cls-9{fill:#009245;}.cls-10{clip-path:url(#clip-path-2);}.cls-11{clip-path:url(#clip-path-3);}.cls-12{fill:#e85e38;}</style><clipPath id="clip-path"><rect class="cls-1" x="373.55" y="228.34" width="68.29" height="202.46" rx="19.89" transform="translate(-94.79 180.1) rotate(-22.39)"/></clipPath><clipPath id="clip-path-2"><path class="cls-2" d="M292.48,216.11s-35.26,8.78-68,26c0,0-15.64,98.42-16.9,126.33s-.08,70.77,0,97.57-5.37,107.55-10.68,116.07c0,0,163.56,13.51,209.07-38.55,0,0-3.58-117.37-3.82-151s2.14-154.44-3.73-159S369.15,216.1,342,213.8A192.31,192.31,0,0,0,292.48,216.11Z"/></clipPath><clipPath id="clip-path-3"><rect class="cls-1" x="102.84" y="299.94" width="202.46" height="68.29" rx="19.89" transform="matrix(0.53, -0.85, 0.85, 0.53, -187.4, 331.86)"/></clipPath></defs><g id="calf_l"><rect class="cls-3" x="168.29" y="819.05" width="234.41" height="68.29" rx="15.1" transform="matrix(0.58, -0.82, 0.82, 0.58, -575.56, 592.37)"/><path class="cls-4" d="M291.05,1017c8.87-8.31-10.54-38.87-23.84-57-4.38-6-8.14-10.7-9.93-12.71-8.86-10-18.22-20.22-30.5-25.29,0,0,1.66,3.19,2.68,5.21-.6-1.05-1.51-2.76-2.8-5.25h0l.12,0-.48-.69c.11.22.23.42.35.63l-.08-.06c-.53-.21-1.11-.45-1.65-.62-10.29-3.63-23-2.28-30.8,4.59-4.65,4-7.59,10.07-7.39,18.14a27.85,27.85,0,0,0,2.47,10.71c5.39,12.28,16.39,19.93,27.05,27.28q21.42,14.67,42.76,29.36c7.12,4.89,15.76,8.43,22.69,8.62C285.49,1020,288.78,1019.17,291.05,1017Z"/></g><g id="thigh_l"><rect class="cls-3" x="215.58" y="623.06" width="262.16" height="76.37" rx="15.1" transform="translate(-324.83 987.63) rotate(-88.26)"/></g><g id="calf_r"><rect class="cls-5" x="327.19" y="772.81" width="68.29" height="234.41" rx="15.1" transform="translate(-283.55 178.1) rotate(-20.08)"/><path class="cls-4" d="M457.88,914.8c-9.07-8.09-37.76,14-54.65,28.88-5.62,4.9-9.92,9.07-11.77,11-9.13,9.72-18.49,20-22.44,32.65,0,0,3-1.93,5-3.13-1,.68-2.61,1.75-5,3.26h0a.61.61,0,0,0,.05-.12l-.65.54.6-.41-.06.08c-.16.55-.35,1.15-.46,1.7-2.7,10.58-.21,23.08,7.34,30.27,4.44,4.26,10.71,6.65,18.73,5.72a27.69,27.69,0,0,0,10.44-3.42c11.75-6.48,18.38-18.12,24.74-29.4q12.67-22.65,25.39-45.23c4.23-7.53,7-16.45,6.54-23.38C461.39,920.07,460.24,916.87,457.88,914.8Z"/></g><g id="thigh_r"><rect class="cls-5" x="253.54" y="547.58" width="76.37" height="262.16" rx="15.1" transform="translate(-189.65 118.34) rotate(-17.41)"/></g><g id="lower_arm_l" data-name="lower arm_l"><circle class="cls-6" cx="530.54" cy="541.07" r="30.81"/><rect class="cls-6" x="459.98" y="383.82" width="41.78" height="170.66" rx="19.89" transform="translate(-181.87 359.08) rotate(-34.86)"/></g><g id="upper_arm_l" data-name="upper arm_l"><rect class="cls-2" x="373.55" y="228.34" width="68.29" height="202.46" rx="19.89" transform="translate(-94.79 180.1) rotate(-22.39)"/><g class="cls-7"><rect class="cls-8" x="282" y="165" width="251" height="14"/><rect class="cls-8" x="282" y="190" width="251" height="14"/><rect class="cls-8" x="282" y="215" width="251" height="14"/><rect class="cls-8" x="282" y="240" width="251" height="14"/><rect class="cls-8" x="282" y="265" width="251" height="14"/><rect class="cls-8" x="282" y="290" width="251" height="14"/><rect class="cls-8" x="282" y="315" width="251" height="14"/><rect class="cls-8" x="282" y="340" width="251" height="14"/><rect class="cls-8" x="282" y="365" width="251" height="14"/><rect class="cls-8" x="282" y="390" width="251" height="14"/><rect class="cls-8" x="282" y="415" width="251" height="14"/><rect class="cls-8" x="282" y="440" width="251" height="14"/><rect class="cls-8" x="282" y="465" width="251" height="14"/><rect class="cls-8" x="282" y="490" width="251" height="14"/></g></g><g id="body_1"><path class="cls-9" d="M292.48,216.11s-35.26,8.78-68,26c0,0-15.64,98.42-16.9,126.33s-.08,70.77,0,97.57-5.37,107.55-10.68,116.07c0,0,163.56,13.51,209.07-38.55,0,0-3.58-117.37-3.82-151s2.14-154.44-3.73-159S369.15,216.1,342,213.8A192.31,192.31,0,0,0,292.48,216.11Z"/><path class="cls-2" d="M292.48,216.11s-35.26,8.78-68,26c0,0-15.64,98.42-16.9,126.33s-.08,70.77,0,97.57-5.37,107.55-10.68,116.07c0,0,163.56,13.51,209.07-38.55,0,0-3.58-117.37-3.82-151s2.14-154.44-3.73-159S369.15,216.1,342,213.8A192.31,192.31,0,0,0,292.48,216.11Z"/><g class="cls-10"><rect class="cls-8" x="191" y="231" width="251" height="14"/><rect class="cls-8" x="191" y="256" width="251" height="14"/><rect class="cls-8" x="191" y="281" width="251" height="14"/><rect class="cls-8" x="191" y="306" width="251" height="14"/><rect class="cls-8" x="191" y="331" width="251" height="14"/><rect class="cls-8" x="191" y="356" width="251" height="14"/><rect class="cls-8" x="191" y="381" width="251" height="14"/><rect class="cls-8" x="191" y="406" width="251" height="14"/><rect class="cls-8" x="191" y="431" width="251" height="14"/><rect class="cls-8" x="191" y="456" width="251" height="14"/><rect class="cls-8" x="191" y="481" width="251" height="14"/><rect class="cls-8" x="191" y="506" width="251" height="14"/><rect class="cls-8" x="191" y="531" width="251" height="14"/><rect class="cls-8" x="191" y="556" width="251" height="14"/></g></g><g id="lower_arm_r" data-name="lower arm_r"><circle class="cls-6" cx="96.46" cy="541.12" r="30.81"/><rect class="cls-6" x="45.54" y="448.26" width="170.66" height="41.78" rx="19.89" transform="matrix(0.43, -0.9, 0.9, 0.43, -349.12, 386.43)"/></g><g id="upper_arm_r" data-name="upper arm_r"><rect class="cls-2" x="102.84" y="299.94" width="202.46" height="68.29" rx="19.89" transform="matrix(0.53, -0.85, 0.85, 0.53, -187.4, 331.86)"/><g class="cls-11"><rect class="cls-8" x="79" y="150" width="251" height="14"/><rect class="cls-8" x="79" y="175" width="251" height="14"/><rect class="cls-8" x="79" y="200" width="251" height="14"/><rect class="cls-8" x="79" y="225" width="251" height="14"/><rect class="cls-8" x="79" y="250" width="251" height="14"/><rect class="cls-8" x="79" y="275" width="251" height="14"/><rect class="cls-8" x="79" y="300" width="251" height="14"/><rect class="cls-8" x="79" y="325" width="251" height="14"/><rect class="cls-8" x="79" y="350" width="251" height="14"/><rect class="cls-8" x="79" y="375" width="251" height="14"/><rect class="cls-8" x="79" y="400" width="251" height="14"/><rect class="cls-8" x="79" y="425" width="251" height="14"/><rect class="cls-8" x="79" y="450" width="251" height="14"/><rect class="cls-8" x="79" y="475" width="251" height="14"/></g></g><g id="neck"><path class="cls-12" d="M285.59,175.57v48.89s28.82,37.08,53.82,0V179.58Z"/></g><g id="head"><path d="M312.5,102.08s42,10.89,73.26-7.59c0,0,3.93,31.16,4.08,42.84,0,0,7.16-43.71-5.84-62.52S316,29,282,79s3.59,96.57,3.59,96.57l6.67,9.6S306,158.26,309.5,148.63,312.5,102.08,312.5,102.08Z"/><path class="cls-6" d="M386,94c5.14-2.71,10.72,82.92-10.13,102.89s-63.31,30.28-83.61-11.72c0,0,3.8-18.45,3.14-22.19,0,0-13.44-1.52-18.44-13.34s3.36-17.36,5.88-17.27,12-1.26,15.63,13.14c0,0,10.69-36.14,9.53-44.51l5,1s37.35,7.26,58-1A99.42,99.42,0,0,0,386,94Z"/><ellipse cx="344.3" cy="141.83" rx="4.02" ry="10.72"/><ellipse cx="371.1" cy="141.83" rx="4.02" ry="10.72"/><path d="M343.66,159H333.34A12.36,12.36,0,0,1,321,146.66v-7a12.35,12.35,0,0,1,12.34-12.34h10.32A12.35,12.35,0,0,1,356,139.64v7A12.36,12.36,0,0,1,343.66,159Zm-10.32-29.7A10.35,10.35,0,0,0,323,139.64v7A10.35,10.35,0,0,0,333.34,157h10.32A10.35,10.35,0,0,0,354,146.66v-7a10.35,10.35,0,0,0-10.34-10.34Z"/><path d="M376.66,158H366.34A12.36,12.36,0,0,1,354,145.66v-7a12.35,12.35,0,0,1,12.34-12.34h10.32A12.35,12.35,0,0,1,389,138.64v7A12.36,12.36,0,0,1,376.66,158Zm-10.32-29.7A10.35,10.35,0,0,0,356,138.64v7A10.35,10.35,0,0,0,366.34,156h10.32A10.35,10.35,0,0,0,387,145.66v-7a10.35,10.35,0,0,0-10.34-10.34Z"/><path d="M322,144.15h-.14l-22-3.15a1,1,0,0,1,.28-2l22,3.15a1,1,0,0,1-.14,2Z"/></g></svg>