<svg xmlns="http://www.w3.org/2000/svg" xmlns:xlink="http://www.w3.org/1999/xlink" viewBox="0 0 619 1080"><defs><style>.cls-1{fill:none;}.cls-2{fill:#c1272d;}.cls-3{fill:#e85e38;}.cls-4{fill:#ff8358;}.cls-5{fill:#821c5d;}.cls-6{clip-path:url(#clip-path);}.cls-7{fill:#c7b299;}</style><clipPath id="clip-path"><path class="cls-1" d="M292.48,216.11s-35.26,8.78-68,26c0,0-15.64,98.42-16.9,126.33s-.08,70.77,0,97.57,12.74,77.44,7.43,86c0,0,131.48,22.06,177-30,0,0,10.38-95.81,10.14-129.47s2.14-154.44-3.73-159S369.15,216.1,342,213.8A192.31,192.31,0,0,0,292.48,216.11Z"/></clipPath></defs><g id="calf_l"><path class="cls-2" d="M291.05,1017c8.87-8.31-10.54-38.87-23.84-57-4.38-6-8.14-10.7-9.93-12.71-8.86-10-18.22-20.22-30.5-25.29,0,0,1.66,3.19,2.68,5.21-.6-1.05-1.51-2.76-2.8-5.25h0l.12,0-.48-.69c.11.22.23.42.35.63l-.08-.06c-.53-.21-1.11-.45-1.65-.62-10.29-3.63-23-2.28-30.8,4.59-4.65,4-7.59,10.07-7.39,18.14a27.85,27.85,0,0,0,2.47,10.71c5.39,12.28,16.39,19.93,27.05,27.28q21.42,14.67,42.76,29.36c7.12,4.89,15.76,8.43,22.69,8.62C285.49,1020,288.78,1019.17,291.05,1017Z"/><rect class="cls-3" x="168.29" y="819.05" width="234.41" height="68.29" rx="15.1" transform="translate(-575.56 592.37) rotate(-54.65)"/></g><g id="thigh_l"><rect class="cls-3" x="215.58" y="623.06" width="262.16" height="76.37" rx="15.1" transform="translate(-324.83 987.63) rotate(-88.26)"/></g><g id="calf_r"><rect class="cls-4" x="327.19" y="772.81" width="68.29" height="234.41" rx="15.1" transform="translate(-283.55 178.1) rotate(-20.08)"/><path class="cls-2" d="M457.88,914.8c-9.07-8.09-37.76,14-54.65,28.88-5.62,4.9-9.92,9.07-11.77,11-9.13,9.72-18.49,20-22.44,32.65,0,0,3-1.93,5-3.13-1,.68-2.61,1.75-5,3.26h0a.61.61,0,0,0,.05-.12l-.65.54.6-.41-.06.08c-.16.55-.35,1.15-.46,1.7-2.7,10.58-.21,23.08,7.34,30.27,4.44,4.26,10.71,6.65,18.73,5.72a27.69,27.69,0,0,0,10.44-3.42c11.75-6.48,18.38-18.12,24.74-29.4q12.67-22.65,25.39-45.23c4.23-7.53,7-16.45,6.54-23.38C461.39,920.07,460.24,916.87,457.88,914.8Z"/></g><g id="thigh_r"><rect class="cls-4" x="253.54" y="547.58" width="76.37" height="262.16" rx="15.1" transform="translate(-189.65 118.34) rotate(-17.41)"/></g><g id="lower_arm_l" data-name="lower arm_l"><circle class="cls-4" cx="534.54" cy="537.07" r="30.81"/><rect class="cls-4" x="463.98" y="379.82" width="41.78" height="170.66" rx="19.89" transform="translate(-178.87 360.65) rotate(-34.86)"/></g><g id="upper_arm_l" data-name="upper arm_l"><rect class="cls-4" x="383.58" y="224.66" width="51.51" height="202.46" rx="19.89" transform="translate(-93.27 180.45) rotate(-22.39)"/></g><g id="skirt"><path class="cls-2" d="M215,552s4.78,49.55-16.11,86.27-10.17,21.29-10.17,21.29,100.39,74,227.84,3.22c0,0-24.87-106.34-24.72-141.56C391.84,521.22,225,565,215,552Z"/></g><g id="body_1"><path class="cls-5" d="M292.48,216.11s-35.26,8.78-68,26c0,0-15.64,98.42-16.9,126.33s-.08,70.77,0,97.57,12.74,77.44,7.43,86c0,0,131.48,22.06,177-30,0,0,10.38-95.81,10.14-129.47s2.14-154.44-3.73-159S369.15,216.1,342,213.8A192.31,192.31,0,0,0,292.48,216.11Z"/><g class="cls-6"><path class="cls-7" d="M419.82,206.08h-3a2,2,0,0,1,0-4h3a2,2,0,0,1,0,4Zm-13,0h-3a2,2,0,0,1,0-4h3a2,2,0,0,1,0,4Zm-13,0h-3a2,2,0,0,1,0-4h3a2,2,0,0,1,0,4Zm-13,0h-3a2,2,0,0,1,0-4h3a2,2,0,0,1,0,4Zm-13,0h-3a2,2,0,0,1,0-4h3a2,2,0,0,1,0,4Zm-13,0h-3a2,2,0,0,1,0-4h3a2,2,0,0,1,0,4Zm-13,0h-3a2,2,0,0,1,0-4h3a2,2,0,0,1,0,4Zm-13,0h-3a2,2,0,0,1,0-4h3a2,2,0,0,1,0,4Zm-13,0h-3a2,2,0,0,1,0-4h3a2,2,0,0,1,0,4Zm-13,0h-3a2,2,0,0,1,0-4h3a2,2,0,0,1,0,4Zm-13,0h-3a2,2,0,0,1,0-4h3a2,2,0,0,1,0,4Zm-13,0h-3a2,2,0,0,1,0-4h3a2,2,0,0,1,0,4Zm-13,0h-3a2,2,0,0,1,0-4h3a2,2,0,0,1,0,4Zm-13,0h-3a2,2,0,0,1,0-4h3a2,2,0,0,1,0,4Zm-13,0h-3a2,2,0,0,1,0-4h3a2,2,0,0,1,0,4Zm-13,0h-3a2,2,0,0,1,0-4h3a2,2,0,0,1,0,4Zm-13,0h-3a2,2,0,0,1,0-4h3a2,2,0,0,1,0,4Zm-13,0h-3a2,2,0,0,1,0-4h3a2,2,0,0,1,0,4Zm-13,0h-3a2,2,0,0,1,0-4h3a2,2,0,0,1,0,4Z"/><path class="cls-7" d="M419.82,224.78h-3a2,2,0,0,1,0-4h3a2,2,0,0,1,0,4Zm-13,0h-3a2,2,0,0,1,0-4h3a2,2,0,0,1,0,4Zm-13,0h-3a2,2,0,0,1,0-4h3a2,2,0,0,1,0,4Zm-13,0h-3a2,2,0,0,1,0-4h3a2,2,0,0,1,0,4Zm-13,0h-3a2,2,0,0,1,0-4h3a2,2,0,0,1,0,4Zm-13,0h-3a2,2,0,0,1,0-4h3a2,2,0,0,1,0,4Zm-13,0h-3a2,2,0,0,1,0-4h3a2,2,0,0,1,0,4Zm-13,0h-3a2,2,0,0,1,0-4h3a2,2,0,0,1,0,4Zm-13,0h-3a2,2,0,0,1,0-4h3a2,2,0,0,1,0,4Zm-13,0h-3a2,2,0,0,1,0-4h3a2,2,0,0,1,0,4Zm-13,0h-3a2,2,0,0,1,0-4h3a2,2,0,0,1,0,4Zm-13,0h-3a2,2,0,0,1,0-4h3a2,2,0,0,1,0,4Zm-13,0h-3a2,2,0,0,1,0-4h3a2,2,0,0,1,0,4Zm-13,0h-3a2,2,0,0,1,0-4h3a2,2,0,0,1,0,4Zm-13,0h-3a2,2,0,0,1,0-4h3a2,2,0,0,1,0,4Zm-13,0h-3a2,2,0,0,1,0-4h3a2,2,0,0,1,0,4Zm-13,0h-3a2,2,0,0,1,0-4h3a2,2,0,0,1,0,4Zm-13,0h-3a2,2,0,0,1,0-4h3a2,2,0,0,1,0,4Zm-13,0h-3a2,2,0,0,1,0-4h3a2,2,0,0,1,0,4Z"/><path class="cls-7" d="M419.82,243.48h-3a2,2,0,0,1,0-4h3a2,2,0,0,1,0,4Zm-13,0h-3a2,2,0,0,1,0-4h3a2,2,0,0,1,0,4Zm-13,0h-3a2,2,0,0,1,0-4h3a2,2,0,0,1,0,4Zm-13,0h-3a2,2,0,0,1,0-4h3a2,2,0,0,1,0,4Zm-13,0h-3a2,2,0,0,1,0-4h3a2,2,0,0,1,0,4Zm-13,0h-3a2,2,0,0,1,0-4h3a2,2,0,0,1,0,4Zm-13,0h-3a2,2,0,0,1,0-4h3a2,2,0,0,1,0,4Zm-13,0h-3a2,2,0,0,1,0-4h3a2,2,0,0,1,0,4Zm-13,0h-3a2,2,0,0,1,0-4h3a2,2,0,0,1,0,4Zm-13,0h-3a2,2,0,0,1,0-4h3a2,2,0,0,1,0,4Zm-13,0h-3a2,2,0,0,1,0-4h3a2,2,0,0,1,0,4Zm-13,0h-3a2,2,0,0,1,0-4h3a2,2,0,0,1,0,4Zm-13,0h-3a2,2,0,0,1,0-4h3a2,2,0,0,1,0,4Zm-13,0h-3a2,2,0,0,1,0-4h3a2,2,0,0,1,0,4Zm-13,0h-3a2,2,0,0,1,0-4h3a2,2,0,0,1,0,4Zm-13,0h-3a2,2,0,0,1,0-4h3a2,2,0,0,1,0,4Zm-13,0h-3a2,2,0,0,1,0-4h3a2,2,0,0,1,0,4Zm-13,0h-3a2,2,0,0,1,0-4h3a2,2,0,0,1,0,4Zm-13,0h-3a2,2,0,0,1,0-4h3a2,2,0,0,1,0,4Z"/><path class="cls-7" d="M419.82,262.17h-3a2,2,0,0,1,0-4h3a2,2,0,0,1,0,4Zm-13,0h-3a2,2,0,0,1,0-4h3a2,2,0,0,1,0,4Zm-13,0h-3a2,2,0,0,1,0-4h3a2,2,0,0,1,0,4Zm-13,0h-3a2,2,0,0,1,0-4h3a2,2,0,0,1,0,4Zm-13,0h-3a2,2,0,0,1,0-4h3a2,2,0,0,1,0,4Zm-13,0h-3a2,2,0,0,1,0-4h3a2,2,0,0,1,0,4Zm-13,0h-3a2,2,0,0,1,0-4h3a2,2,0,0,1,0,4Zm-13,0h-3a2,2,0,0,1,0-4h3a2,2,0,0,1,0,4Zm-13,0h-3a2,2,0,0,1,0-4h3a2,2,0,0,1,0,4Zm-13,0h-3a2,2,0,0,1,0-4h3a2,2,0,0,1,0,4Zm-13,0h-3a2,2,0,0,1,0-4h3a2,2,0,0,1,0,4Zm-13,0h-3a2,2,0,0,1,0-4h3a2,2,0,0,1,0,4Zm-13,0h-3a2,2,0,0,1,0-4h3a2,2,0,0,1,0,4Zm-13,0h-3a2,2,0,0,1,0-4h3a2,2,0,0,1,0,4Zm-13,0h-3a2,2,0,0,1,0-4h3a2,2,0,0,1,0,4Zm-13,0h-3a2,2,0,0,1,0-4h3a2,2,0,0,1,0,4Zm-13,0h-3a2,2,0,0,1,0-4h3a2,2,0,0,1,0,4Zm-13,0h-3a2,2,0,0,1,0-4h3a2,2,0,0,1,0,4Zm-13,0h-3a2,2,0,0,1,0-4h3a2,2,0,0,1,0,4Z"/><path class="cls-7" d="M419.82,280.87h-3a2,2,0,0,1,0-4h3a2,2,0,1,1,0,4Zm-13,0h-3a2,2,0,0,1,0-4h3a2,2,0,1,1,0,4Zm-13,0h-3a2,2,0,0,1,0-4h3a2,2,0,1,1,0,4Zm-13,0h-3a2,2,0,0,1,0-4h3a2,2,0,1,1,0,4Zm-13,0h-3a2,2,0,0,1,0-4h3a2,2,0,1,1,0,4Zm-13,0h-3a2,2,0,0,1,0-4h3a2,2,0,1,1,0,4Zm-13,0h-3a2,2,0,0,1,0-4h3a2,2,0,1,1,0,4Zm-13,0h-3a2,2,0,0,1,0-4h3a2,2,0,1,1,0,4Zm-13,0h-3a2,2,0,0,1,0-4h3a2,2,0,1,1,0,4Zm-13,0h-3a2,2,0,0,1,0-4h3a2,2,0,1,1,0,4Zm-13,0h-3a2,2,0,0,1,0-4h3a2,2,0,1,1,0,4Zm-13,0h-3a2,2,0,0,1,0-4h3a2,2,0,1,1,0,4Zm-13,0h-3a2,2,0,0,1,0-4h3a2,2,0,1,1,0,4Zm-13,0h-3a2,2,0,0,1,0-4h3a2,2,0,1,1,0,4Zm-13,0h-3a2,2,0,0,1,0-4h3a2,2,0,1,1,0,4Zm-13,0h-3a2,2,0,0,1,0-4h3a2,2,0,0,1,0,4Zm-13,0h-3a2,2,0,0,1,0-4h3a2,2,0,0,1,0,4Zm-13,0h-3a2,2,0,0,1,0-4h3a2,2,0,0,1,0,4Zm-13,0h-3a2,2,0,0,1,0-4h3a2,2,0,0,1,0,4Z"/><path class="cls-7" d="M419.82,299.56h-3a2,2,0,0,1,0-4h3a2,2,0,0,1,0,4Zm-13,0h-3a2,2,0,0,1,0-4h3a2,2,0,0,1,0,4Zm-13,0h-3a2,2,0,0,1,0-4h3a2,2,0,0,1,0,4Zm-13,0h-3a2,2,0,0,1,0-4h3a2,2,0,0,1,0,4Zm-13,0h-3a2,2,0,0,1,0-4h3a2,2,0,0,1,0,4Zm-13,0h-3a2,2,0,0,1,0-4h3a2,2,0,0,1,0,4Zm-13,0h-3a2,2,0,0,1,0-4h3a2,2,0,0,1,0,4Zm-13,0h-3a2,2,0,0,1,0-4h3a2,2,0,0,1,0,4Zm-13,0h-3a2,2,0,0,1,0-4h3a2,2,0,0,1,0,4Zm-13,0h-3a2,2,0,0,1,0-4h3a2,2,0,0,1,0,4Zm-13,0h-3a2,2,0,0,1,0-4h3a2,2,0,0,1,0,4Zm-13,0h-3a2,2,0,0,1,0-4h3a2,2,0,0,1,0,4Zm-13,0h-3a2,2,0,0,1,0-4h3a2,2,0,0,1,0,4Zm-13,0h-3a2,2,0,0,1,0-4h3a2,2,0,0,1,0,4Zm-13,0h-3a2,2,0,0,1,0-4h3a2,2,0,0,1,0,4Zm-13,0h-3a2,2,0,0,1,0-4h3a2,2,0,0,1,0,4Zm-13,0h-3a2,2,0,0,1,0-4h3a2,2,0,0,1,0,4Zm-13,0h-3a2,2,0,0,1,0-4h3a2,2,0,0,1,0,4Zm-13,0h-3a2,2,0,0,1,0-4h3a2,2,0,0,1,0,4Z"/><path class="cls-7" d="M419.82,318.26h-3a2,2,0,1,1,0-4h3a2,2,0,0,1,0,4Zm-13,0h-3a2,2,0,1,1,0-4h3a2,2,0,0,1,0,4Zm-13,0h-3a2,2,0,1,1,0-4h3a2,2,0,0,1,0,4Zm-13,0h-3a2,2,0,1,1,0-4h3a2,2,0,0,1,0,4Zm-13,0h-3a2,2,0,1,1,0-4h3a2,2,0,0,1,0,4Zm-13,0h-3a2,2,0,1,1,0-4h3a2,2,0,0,1,0,4Zm-13,0h-3a2,2,0,1,1,0-4h3a2,2,0,0,1,0,4Zm-13,0h-3a2,2,0,1,1,0-4h3a2,2,0,0,1,0,4Zm-13,0h-3a2,2,0,1,1,0-4h3a2,2,0,0,1,0,4Zm-13,0h-3a2,2,0,1,1,0-4h3a2,2,0,0,1,0,4Zm-13,0h-3a2,2,0,1,1,0-4h3a2,2,0,0,1,0,4Zm-13,0h-3a2,2,0,1,1,0-4h3a2,2,0,0,1,0,4Zm-13,0h-3a2,2,0,1,1,0-4h3a2,2,0,0,1,0,4Zm-13,0h-3a2,2,0,1,1,0-4h3a2,2,0,0,1,0,4Zm-13,0h-3a2,2,0,1,1,0-4h3a2,2,0,0,1,0,4Zm-13,0h-3a2,2,0,1,1,0-4h3a2,2,0,0,1,0,4Zm-13,0h-3a2,2,0,1,1,0-4h3a2,2,0,0,1,0,4Zm-13,0h-3a2,2,0,1,1,0-4h3a2,2,0,0,1,0,4Zm-13,0h-3a2,2,0,0,1,0-4h3a2,2,0,0,1,0,4Z"/><path class="cls-7" d="M419.82,337h-3a2,2,0,0,1,0-4h3a2,2,0,0,1,0,4Zm-13,0h-3a2,2,0,0,1,0-4h3a2,2,0,0,1,0,4Zm-13,0h-3a2,2,0,0,1,0-4h3a2,2,0,0,1,0,4Zm-13,0h-3a2,2,0,0,1,0-4h3a2,2,0,0,1,0,4Zm-13,0h-3a2,2,0,0,1,0-4h3a2,2,0,0,1,0,4Zm-13,0h-3a2,2,0,0,1,0-4h3a2,2,0,0,1,0,4Zm-13,0h-3a2,2,0,0,1,0-4h3a2,2,0,0,1,0,4Zm-13,0h-3a2,2,0,0,1,0-4h3a2,2,0,0,1,0,4Zm-13,0h-3a2,2,0,0,1,0-4h3a2,2,0,0,1,0,4Zm-13,0h-3a2,2,0,0,1,0-4h3a2,2,0,0,1,0,4Zm-13,0h-3a2,2,0,0,1,0-4h3a2,2,0,0,1,0,4Zm-13,0h-3a2,2,0,0,1,0-4h3a2,2,0,0,1,0,4Zm-13,0h-3a2,2,0,0,1,0-4h3a2,2,0,0,1,0,4Zm-13,0h-3a2,2,0,0,1,0-4h3a2,2,0,0,1,0,4Zm-13,0h-3a2,2,0,0,1,0-4h3a2,2,0,0,1,0,4Zm-13,0h-3a2,2,0,0,1,0-4h3a2,2,0,0,1,0,4Zm-13,0h-3a2,2,0,0,1,0-4h3a2,2,0,0,1,0,4Zm-13,0h-3a2,2,0,0,1,0-4h3a2,2,0,0,1,0,4Zm-13,0h-3a2,2,0,0,1,0-4h3a2,2,0,0,1,0,4Z"/><path class="cls-7" d="M419.82,355.65h-3a2,2,0,0,1,0-4h3a2,2,0,1,1,0,4Zm-13,0h-3a2,2,0,0,1,0-4h3a2,2,0,1,1,0,4Zm-13,0h-3a2,2,0,0,1,0-4h3a2,2,0,1,1,0,4Zm-13,0h-3a2,2,0,0,1,0-4h3a2,2,0,1,1,0,4Zm-13,0h-3a2,2,0,0,1,0-4h3a2,2,0,1,1,0,4Zm-13,0h-3a2,2,0,0,1,0-4h3a2,2,0,1,1,0,4Zm-13,0h-3a2,2,0,0,1,0-4h3a2,2,0,1,1,0,4Zm-13,0h-3a2,2,0,0,1,0-4h3a2,2,0,1,1,0,4Zm-13,0h-3a2,2,0,0,1,0-4h3a2,2,0,1,1,0,4Zm-13,0h-3a2,2,0,0,1,0-4h3a2,2,0,1,1,0,4Zm-13,0h-3a2,2,0,0,1,0-4h3a2,2,0,1,1,0,4Zm-13,0h-3a2,2,0,0,1,0-4h3a2,2,0,1,1,0,4Zm-13,0h-3a2,2,0,0,1,0-4h3a2,2,0,1,1,0,4Zm-13,0h-3a2,2,0,0,1,0-4h3a2,2,0,1,1,0,4Zm-13,0h-3a2,2,0,0,1,0-4h3a2,2,0,1,1,0,4Zm-13,0h-3a2,2,0,0,1,0-4h3a2,2,0,1,1,0,4Zm-13,0h-3a2,2,0,0,1,0-4h3a2,2,0,1,1,0,4Zm-13,0h-3a2,2,0,0,1,0-4h3a2,2,0,1,1,0,4Zm-13,0h-3a2,2,0,0,1,0-4h3a2,2,0,1,1,0,4Z"/><path class="cls-7" d="M419.82,374.35h-3a2,2,0,0,1,0-4h3a2,2,0,1,1,0,4Zm-13,0h-3a2,2,0,0,1,0-4h3a2,2,0,1,1,0,4Zm-13,0h-3a2,2,0,0,1,0-4h3a2,2,0,1,1,0,4Zm-13,0h-3a2,2,0,0,1,0-4h3a2,2,0,1,1,0,4Zm-13,0h-3a2,2,0,0,1,0-4h3a2,2,0,1,1,0,4Zm-13,0h-3a2,2,0,0,1,0-4h3a2,2,0,1,1,0,4Zm-13,0h-3a2,2,0,0,1,0-4h3a2,2,0,1,1,0,4Zm-13,0h-3a2,2,0,0,1,0-4h3a2,2,0,1,1,0,4Zm-13,0h-3a2,2,0,0,1,0-4h3a2,2,0,1,1,0,4Zm-13,0h-3a2,2,0,0,1,0-4h3a2,2,0,1,1,0,4Zm-13,0h-3a2,2,0,0,1,0-4h3a2,2,0,1,1,0,4Zm-13,0h-3a2,2,0,0,1,0-4h3a2,2,0,1,1,0,4Zm-13,0h-3a2,2,0,0,1,0-4h3a2,2,0,1,1,0,4Zm-13,0h-3a2,2,0,0,1,0-4h3a2,2,0,1,1,0,4Zm-13,0h-3a2,2,0,0,1,0-4h3a2,2,0,1,1,0,4Zm-13,0h-3a2,2,0,0,1,0-4h3a2,2,0,1,1,0,4Zm-13,0h-3a2,2,0,0,1,0-4h3a2,2,0,1,1,0,4Zm-13,0h-3a2,2,0,0,1,0-4h3a2,2,0,1,1,0,4Zm-13,0h-3a2,2,0,0,1,0-4h3a2,2,0,1,1,0,4Z"/><path class="cls-7" d="M419.82,393h-3a2,2,0,0,1,0-4h3a2,2,0,0,1,0,4Zm-13,0h-3a2,2,0,0,1,0-4h3a2,2,0,0,1,0,4Zm-13,0h-3a2,2,0,0,1,0-4h3a2,2,0,0,1,0,4Zm-13,0h-3a2,2,0,0,1,0-4h3a2,2,0,0,1,0,4Zm-13,0h-3a2,2,0,0,1,0-4h3a2,2,0,0,1,0,4Zm-13,0h-3a2,2,0,0,1,0-4h3a2,2,0,0,1,0,4Zm-13,0h-3a2,2,0,0,1,0-4h3a2,2,0,0,1,0,4Zm-13,0h-3a2,2,0,0,1,0-4h3a2,2,0,0,1,0,4Zm-13,0h-3a2,2,0,0,1,0-4h3a2,2,0,0,1,0,4Zm-13,0h-3a2,2,0,0,1,0-4h3a2,2,0,0,1,0,4Zm-13,0h-3a2,2,0,0,1,0-4h3a2,2,0,0,1,0,4Zm-13,0h-3a2,2,0,0,1,0-4h3a2,2,0,0,1,0,4Zm-13,0h-3a2,2,0,0,1,0-4h3a2,2,0,0,1,0,4Zm-13,0h-3a2,2,0,0,1,0-4h3a2,2,0,0,1,0,4Zm-13,0h-3a2,2,0,0,1,0-4h3a2,2,0,0,1,0,4Zm-13,0h-3a2,2,0,0,1,0-4h3a2,2,0,0,1,0,4Zm-13,0h-3a2,2,0,0,1,0-4h3a2,2,0,0,1,0,4Zm-13,0h-3a2,2,0,0,1,0-4h3a2,2,0,0,1,0,4Zm-13,0h-3a2,2,0,0,1,0-4h3a2,2,0,0,1,0,4Z"/><path class="cls-7" d="M419.82,411.74h-3a2,2,0,1,1,0-4h3a2,2,0,0,1,0,4Zm-13,0h-3a2,2,0,1,1,0-4h3a2,2,0,0,1,0,4Zm-13,0h-3a2,2,0,1,1,0-4h3a2,2,0,0,1,0,4Zm-13,0h-3a2,2,0,1,1,0-4h3a2,2,0,0,1,0,4Zm-13,0h-3a2,2,0,1,1,0-4h3a2,2,0,0,1,0,4Zm-13,0h-3a2,2,0,1,1,0-4h3a2,2,0,0,1,0,4Zm-13,0h-3a2,2,0,1,1,0-4h3a2,2,0,0,1,0,4Zm-13,0h-3a2,2,0,1,1,0-4h3a2,2,0,0,1,0,4Zm-13,0h-3a2,2,0,1,1,0-4h3a2,2,0,0,1,0,4Zm-13,0h-3a2,2,0,1,1,0-4h3a2,2,0,0,1,0,4Zm-13,0h-3a2,2,0,1,1,0-4h3a2,2,0,0,1,0,4Zm-13,0h-3a2,2,0,1,1,0-4h3a2,2,0,0,1,0,4Zm-13,0h-3a2,2,0,1,1,0-4h3a2,2,0,0,1,0,4Zm-13,0h-3a2,2,0,1,1,0-4h3a2,2,0,0,1,0,4Zm-13,0h-3a2,2,0,1,1,0-4h3a2,2,0,0,1,0,4Zm-13,0h-3a2,2,0,1,1,0-4h3a2,2,0,0,1,0,4Zm-13,0h-3a2,2,0,1,1,0-4h3a2,2,0,0,1,0,4Zm-13,0h-3a2,2,0,1,1,0-4h3a2,2,0,0,1,0,4Zm-13,0h-3a2,2,0,1,1,0-4h3a2,2,0,0,1,0,4Z"/><path class="cls-7" d="M419.82,430.43h-3a2,2,0,0,1,0-4h3a2,2,0,0,1,0,4Zm-13,0h-3a2,2,0,0,1,0-4h3a2,2,0,0,1,0,4Zm-13,0h-3a2,2,0,0,1,0-4h3a2,2,0,0,1,0,4Zm-13,0h-3a2,2,0,0,1,0-4h3a2,2,0,0,1,0,4Zm-13,0h-3a2,2,0,0,1,0-4h3a2,2,0,0,1,0,4Zm-13,0h-3a2,2,0,0,1,0-4h3a2,2,0,0,1,0,4Zm-13,0h-3a2,2,0,0,1,0-4h3a2,2,0,0,1,0,4Zm-13,0h-3a2,2,0,0,1,0-4h3a2,2,0,0,1,0,4Zm-13,0h-3a2,2,0,0,1,0-4h3a2,2,0,0,1,0,4Zm-13,0h-3a2,2,0,0,1,0-4h3a2,2,0,0,1,0,4Zm-13,0h-3a2,2,0,0,1,0-4h3a2,2,0,0,1,0,4Zm-13,0h-3a2,2,0,0,1,0-4h3a2,2,0,0,1,0,4Zm-13,0h-3a2,2,0,0,1,0-4h3a2,2,0,0,1,0,4Zm-13,0h-3a2,2,0,0,1,0-4h3a2,2,0,0,1,0,4Zm-13,0h-3a2,2,0,0,1,0-4h3a2,2,0,0,1,0,4Zm-13,0h-3a2,2,0,0,1,0-4h3a2,2,0,0,1,0,4Zm-13,0h-3a2,2,0,0,1,0-4h3a2,2,0,0,1,0,4Zm-13,0h-3a2,2,0,0,1,0-4h3a2,2,0,0,1,0,4Zm-13,0h-3a2,2,0,0,1,0-4h3a2,2,0,0,1,0,4Z"/><path class="cls-7" d="M419.82,449.13h-3a2,2,0,0,1,0-4h3a2,2,0,1,1,0,4Zm-13,0h-3a2,2,0,0,1,0-4h3a2,2,0,1,1,0,4Zm-13,0h-3a2,2,0,0,1,0-4h3a2,2,0,1,1,0,4Zm-13,0h-3a2,2,0,0,1,0-4h3a2,2,0,1,1,0,4Zm-13,0h-3a2,2,0,0,1,0-4h3a2,2,0,1,1,0,4Zm-13,0h-3a2,2,0,0,1,0-4h3a2,2,0,1,1,0,4Zm-13,0h-3a2,2,0,0,1,0-4h3a2,2,0,1,1,0,4Zm-13,0h-3a2,2,0,0,1,0-4h3a2,2,0,1,1,0,4Zm-13,0h-3a2,2,0,0,1,0-4h3a2,2,0,1,1,0,4Zm-13,0h-3a2,2,0,0,1,0-4h3a2,2,0,1,1,0,4Zm-13,0h-3a2,2,0,0,1,0-4h3a2,2,0,1,1,0,4Zm-13,0h-3a2,2,0,0,1,0-4h3a2,2,0,1,1,0,4Zm-13,0h-3a2,2,0,0,1,0-4h3a2,2,0,1,1,0,4Zm-13,0h-3a2,2,0,0,1,0-4h3a2,2,0,1,1,0,4Zm-13,0h-3a2,2,0,0,1,0-4h3a2,2,0,1,1,0,4Zm-13,0h-3a2,2,0,0,1,0-4h3a2,2,0,1,1,0,4Zm-13,0h-3a2,2,0,0,1,0-4h3a2,2,0,1,1,0,4Zm-13,0h-3a2,2,0,0,1,0-4h3a2,2,0,1,1,0,4Zm-13,0h-3a2,2,0,0,1,0-4h3a2,2,0,1,1,0,4Z"/><path class="cls-7" d="M419.82,467.83h-3a2,2,0,0,1,0-4h3a2,2,0,0,1,0,4Zm-13,0h-3a2,2,0,0,1,0-4h3a2,2,0,0,1,0,4Zm-13,0h-3a2,2,0,0,1,0-4h3a2,2,0,0,1,0,4Zm-13,0h-3a2,2,0,0,1,0-4h3a2,2,0,0,1,0,4Zm-13,0h-3a2,2,0,0,1,0-4h3a2,2,0,0,1,0,4Zm-13,0h-3a2,2,0,0,1,0-4h3a2,2,0,0,1,0,4Zm-13,0h-3a2,2,0,0,1,0-4h3a2,2,0,0,1,0,4Zm-13,0h-3a2,2,0,0,1,0-4h3a2,2,0,0,1,0,4Zm-13,0h-3a2,2,0,0,1,0-4h3a2,2,0,0,1,0,4Zm-13,0h-3a2,2,0,0,1,0-4h3a2,2,0,0,1,0,4Zm-13,0h-3a2,2,0,0,1,0-4h3a2,2,0,0,1,0,4Zm-13,0h-3a2,2,0,0,1,0-4h3a2,2,0,0,1,0,4Zm-13,0h-3a2,2,0,0,1,0-4h3a2,2,0,0,1,0,4Zm-13,0h-3a2,2,0,0,1,0-4h3a2,2,0,0,1,0,4Zm-13,0h-3a2,2,0,0,1,0-4h3a2,2,0,0,1,0,4Zm-13,0h-3a2,2,0,0,1,0-4h3a2,2,0,0,1,0,4Zm-13,0h-3a2,2,0,0,1,0-4h3a2,2,0,0,1,0,4Zm-13,0h-3a2,2,0,0,1,0-4h3a2,2,0,0,1,0,4Zm-13,0h-3a2,2,0,0,1,0-4h3a2,2,0,0,1,0,4Z"/><path class="cls-7" d="M419.82,486.52h-3a2,2,0,1,1,0-4h3a2,2,0,0,1,0,4Zm-13,0h-3a2,2,0,1,1,0-4h3a2,2,0,0,1,0,4Zm-13,0h-3a2,2,0,1,1,0-4h3a2,2,0,0,1,0,4Zm-13,0h-3a2,2,0,1,1,0-4h3a2,2,0,0,1,0,4Zm-13,0h-3a2,2,0,1,1,0-4h3a2,2,0,0,1,0,4Zm-13,0h-3a2,2,0,1,1,0-4h3a2,2,0,0,1,0,4Zm-13,0h-3a2,2,0,1,1,0-4h3a2,2,0,0,1,0,4Zm-13,0h-3a2,2,0,1,1,0-4h3a2,2,0,0,1,0,4Zm-13,0h-3a2,2,0,1,1,0-4h3a2,2,0,0,1,0,4Zm-13,0h-3a2,2,0,1,1,0-4h3a2,2,0,0,1,0,4Zm-13,0h-3a2,2,0,1,1,0-4h3a2,2,0,0,1,0,4Zm-13,0h-3a2,2,0,1,1,0-4h3a2,2,0,0,1,0,4Zm-13,0h-3a2,2,0,1,1,0-4h3a2,2,0,0,1,0,4Zm-13,0h-3a2,2,0,1,1,0-4h3a2,2,0,0,1,0,4Zm-13,0h-3a2,2,0,1,1,0-4h3a2,2,0,0,1,0,4Zm-13,0h-3a2,2,0,1,1,0-4h3a2,2,0,0,1,0,4Zm-13,0h-3a2,2,0,1,1,0-4h3a2,2,0,0,1,0,4Zm-13,0h-3a2,2,0,1,1,0-4h3a2,2,0,0,1,0,4Zm-13,0h-3a2,2,0,1,1,0-4h3a2,2,0,0,1,0,4Z"/><path class="cls-7" d="M419.82,505.22h-3a2,2,0,1,1,0-4h3a2,2,0,0,1,0,4Zm-13,0h-3a2,2,0,1,1,0-4h3a2,2,0,0,1,0,4Zm-13,0h-3a2,2,0,1,1,0-4h3a2,2,0,0,1,0,4Zm-13,0h-3a2,2,0,1,1,0-4h3a2,2,0,0,1,0,4Zm-13,0h-3a2,2,0,1,1,0-4h3a2,2,0,0,1,0,4Zm-13,0h-3a2,2,0,1,1,0-4h3a2,2,0,0,1,0,4Zm-13,0h-3a2,2,0,1,1,0-4h3a2,2,0,0,1,0,4Zm-13,0h-3a2,2,0,1,1,0-4h3a2,2,0,0,1,0,4Zm-13,0h-3a2,2,0,1,1,0-4h3a2,2,0,0,1,0,4Zm-13,0h-3a2,2,0,1,1,0-4h3a2,2,0,0,1,0,4Zm-13,0h-3a2,2,0,1,1,0-4h3a2,2,0,0,1,0,4Zm-13,0h-3a2,2,0,1,1,0-4h3a2,2,0,0,1,0,4Zm-13,0h-3a2,2,0,1,1,0-4h3a2,2,0,0,1,0,4Zm-13,0h-3a2,2,0,1,1,0-4h3a2,2,0,0,1,0,4Zm-13,0h-3a2,2,0,1,1,0-4h3a2,2,0,0,1,0,4Zm-13,0h-3a2,2,0,1,1,0-4h3a2,2,0,0,1,0,4Zm-13,0h-3a2,2,0,1,1,0-4h3a2,2,0,0,1,0,4Zm-13,0h-3a2,2,0,1,1,0-4h3a2,2,0,0,1,0,4Zm-13,0h-3a2,2,0,1,1,0-4h3a2,2,0,0,1,0,4Z"/><path class="cls-7" d="M419.82,523.91h-3a2,2,0,0,1,0-4h3a2,2,0,1,1,0,4Zm-13,0h-3a2,2,0,0,1,0-4h3a2,2,0,1,1,0,4Zm-13,0h-3a2,2,0,0,1,0-4h3a2,2,0,1,1,0,4Zm-13,0h-3a2,2,0,0,1,0-4h3a2,2,0,1,1,0,4Zm-13,0h-3a2,2,0,0,1,0-4h3a2,2,0,1,1,0,4Zm-13,0h-3a2,2,0,0,1,0-4h3a2,2,0,1,1,0,4Zm-13,0h-3a2,2,0,0,1,0-4h3a2,2,0,1,1,0,4Zm-13,0h-3a2,2,0,0,1,0-4h3a2,2,0,1,1,0,4Zm-13,0h-3a2,2,0,0,1,0-4h3a2,2,0,1,1,0,4Zm-13,0h-3a2,2,0,0,1,0-4h3a2,2,0,1,1,0,4Zm-13,0h-3a2,2,0,0,1,0-4h3a2,2,0,1,1,0,4Zm-13,0h-3a2,2,0,0,1,0-4h3a2,2,0,1,1,0,4Zm-13,0h-3a2,2,0,0,1,0-4h3a2,2,0,1,1,0,4Zm-13,0h-3a2,2,0,0,1,0-4h3a2,2,0,1,1,0,4Zm-13,0h-3a2,2,0,0,1,0-4h3a2,2,0,1,1,0,4Zm-13,0h-3a2,2,0,0,1,0-4h3a2,2,0,1,1,0,4Zm-13,0h-3a2,2,0,0,1,0-4h3a2,2,0,1,1,0,4Zm-13,0h-3a2,2,0,0,1,0-4h3a2,2,0,1,1,0,4Zm-13,0h-3a2,2,0,0,1,0-4h3a2,2,0,1,1,0,4Z"/><path class="cls-7" d="M419.82,542.61h-3a2,2,0,0,1,0-4h3a2,2,0,1,1,0,4Zm-13,0h-3a2,2,0,0,1,0-4h3a2,2,0,1,1,0,4Zm-13,0h-3a2,2,0,0,1,0-4h3a2,2,0,1,1,0,4Zm-13,0h-3a2,2,0,0,1,0-4h3a2,2,0,1,1,0,4Zm-13,0h-3a2,2,0,0,1,0-4h3a2,2,0,1,1,0,4Zm-13,0h-3a2,2,0,0,1,0-4h3a2,2,0,1,1,0,4Zm-13,0h-3a2,2,0,0,1,0-4h3a2,2,0,1,1,0,4Zm-13,0h-3a2,2,0,0,1,0-4h3a2,2,0,1,1,0,4Zm-13,0h-3a2,2,0,0,1,0-4h3a2,2,0,1,1,0,4Zm-13,0h-3a2,2,0,0,1,0-4h3a2,2,0,1,1,0,4Zm-13,0h-3a2,2,0,0,1,0-4h3a2,2,0,1,1,0,4Zm-13,0h-3a2,2,0,0,1,0-4h3a2,2,0,1,1,0,4Zm-13,0h-3a2,2,0,0,1,0-4h3a2,2,0,1,1,0,4Zm-13,0h-3a2,2,0,0,1,0-4h3a2,2,0,1,1,0,4Zm-13,0h-3a2,2,0,0,1,0-4h3a2,2,0,1,1,0,4Zm-13,0h-3a2,2,0,0,1,0-4h3a2,2,0,1,1,0,4Zm-13,0h-3a2,2,0,0,1,0-4h3a2,2,0,1,1,0,4Zm-13,0h-3a2,2,0,0,1,0-4h3a2,2,0,1,1,0,4Zm-13,0h-3a2,2,0,0,1,0-4h3a2,2,0,1,1,0,4Z"/><path class="cls-7" d="M419.82,561.3h-3a2,2,0,1,1,0-4h3a2,2,0,0,1,0,4Zm-13,0h-3a2,2,0,1,1,0-4h3a2,2,0,0,1,0,4Zm-13,0h-3a2,2,0,1,1,0-4h3a2,2,0,0,1,0,4Zm-13,0h-3a2,2,0,1,1,0-4h3a2,2,0,0,1,0,4Zm-13,0h-3a2,2,0,1,1,0-4h3a2,2,0,0,1,0,4Zm-13,0h-3a2,2,0,1,1,0-4h3a2,2,0,0,1,0,4Zm-13,0h-3a2,2,0,1,1,0-4h3a2,2,0,0,1,0,4Zm-13,0h-3a2,2,0,1,1,0-4h3a2,2,0,0,1,0,4Zm-13,0h-3a2,2,0,1,1,0-4h3a2,2,0,0,1,0,4Zm-13,0h-3a2,2,0,1,1,0-4h3a2,2,0,0,1,0,4Zm-13,0h-3a2,2,0,1,1,0-4h3a2,2,0,0,1,0,4Zm-13,0h-3a2,2,0,1,1,0-4h3a2,2,0,0,1,0,4Zm-13,0h-3a2,2,0,1,1,0-4h3a2,2,0,0,1,0,4Zm-13,0h-3a2,2,0,1,1,0-4h3a2,2,0,0,1,0,4Zm-13,0h-3a2,2,0,1,1,0-4h3a2,2,0,0,1,0,4Zm-13,0h-3a2,2,0,1,1,0-4h3a2,2,0,0,1,0,4Zm-13,0h-3a2,2,0,1,1,0-4h3a2,2,0,0,1,0,4Zm-13,0h-3a2,2,0,1,1,0-4h3a2,2,0,0,1,0,4Zm-13,0h-3a2,2,0,1,1,0-4h3a2,2,0,0,1,0,4Z"/><path class="cls-7" d="M419.82,580h-3a2,2,0,1,1,0-4h3a2,2,0,0,1,0,4Zm-13,0h-3a2,2,0,1,1,0-4h3a2,2,0,0,1,0,4Zm-13,0h-3a2,2,0,1,1,0-4h3a2,2,0,0,1,0,4Zm-13,0h-3a2,2,0,1,1,0-4h3a2,2,0,0,1,0,4Zm-13,0h-3a2,2,0,1,1,0-4h3a2,2,0,0,1,0,4Zm-13,0h-3a2,2,0,1,1,0-4h3a2,2,0,0,1,0,4Zm-13,0h-3a2,2,0,1,1,0-4h3a2,2,0,0,1,0,4Zm-13,0h-3a2,2,0,1,1,0-4h3a2,2,0,0,1,0,4Zm-13,0h-3a2,2,0,1,1,0-4h3a2,2,0,0,1,0,4Zm-13,0h-3a2,2,0,1,1,0-4h3a2,2,0,0,1,0,4Zm-13,0h-3a2,2,0,1,1,0-4h3a2,2,0,0,1,0,4Zm-13,0h-3a2,2,0,1,1,0-4h3a2,2,0,0,1,0,4Zm-13,0h-3a2,2,0,1,1,0-4h3a2,2,0,0,1,0,4Zm-13,0h-3a2,2,0,1,1,0-4h3a2,2,0,0,1,0,4Zm-13,0h-3a2,2,0,1,1,0-4h3a2,2,0,0,1,0,4Zm-13,0h-3a2,2,0,1,1,0-4h3a2,2,0,0,1,0,4Zm-13,0h-3a2,2,0,1,1,0-4h3a2,2,0,0,1,0,4Zm-13,0h-3a2,2,0,1,1,0-4h3a2,2,0,0,1,0,4Zm-13,0h-3a2,2,0,1,1,0-4h3a2,2,0,0,1,0,4Z"/></g></g><g id="lower_arm_r" data-name="lower arm_r"><circle class="cls-4" cx="89.46" cy="537.12" r="30.81"/><rect class="cls-4" x="38.54" y="444.26" width="170.66" height="41.78" rx="19.89" transform="translate(-349.51 377.81) rotate(-64.63)"/></g><g id="upper_arm_r" data-name="upper arm_r"><rect class="cls-4" x="97.23" y="306.41" width="202.46" height="49.07" rx="19.89" transform="translate(-187.39 325.61) rotate(-58.26)"/></g><g id="neck"><path class="cls-3" d="M285.59,175.57v48.89s28.82,37.08,53.82,0V179.58Z"/></g><g id="head"><path class="cls-2" d="M367.08,189.87s-9.92,1.77,0,28.95-41.84,18.69-34.46-10.57S367.08,189.87,367.08,189.87Z"/><path class="cls-2" d="M354.35,59.44S331.58,20.59,282,52.74a65.84,65.84,0,0,0-21.75,23.91c-22.74,41.44-8.65,106.18,32,108.52,50,2.88,97.58-38.4,97.58-38.4s16.76-24.37,6-56.52S373.11,55.42,354.35,59.44Z"/><path class="cls-2" d="M225.49,253.05s5.45-136.91,31-168.48S317,116,317,116s-20.27,37.47-19.14,78.73-8.63,53.61,10.76,76.94S236,338.1,225.49,253.05Z"/><path class="cls-4" d="M385.76,94.49c3.18-4.87,11,82.43-9.89,102.4s-63.31,30.28-83.61-11.72c0,0,3.8-18.45,3.14-22.19,0,0-13.44-1.52-18.44-13.34s3.36-17.36,5.88-17.27,12-1.26,15.63,13.14c0,0,11.3-15.74,10.15-24.11l8-4.79S371.62,116.14,385.76,94.49Z"/><ellipse cx="344.3" cy="141.83" rx="4.02" ry="10.72"/><ellipse cx="371.1" cy="141.83" rx="4.02" ry="10.72"/></g></svg>