<svg xmlns="http://www.w3.org/2000/svg" viewBox="0 0 619 1080"><defs><style>.cls-1{fill:#29abe2;}.cls-2{fill:#2092ba;}.cls-3{fill:#ff8358;}.cls-4{fill:#e85e38;}.cls-5{fill:#b3b3b3;}.cls-6{fill:#fff;}.cls-7{fill:#f15a24;}</style></defs><g id="calf_l"><rect class="cls-1" x="168.29" y="819.05" width="234.41" height="68.29" rx="15.1" transform="translate(-575.56 592.37) rotate(-54.65)"/><path d="M291.05,1017c8.87-8.31-10.54-38.87-23.84-57-4.38-6-8.14-10.7-9.93-12.71-8.86-10-18.22-20.22-30.5-25.29,0,0,1.66,3.19,2.68,5.21-.6-1.05-1.51-2.76-2.8-5.25h0l.12,0-.48-.69c.11.22.23.42.35.63l-.08-.06c-.53-.21-1.11-.45-1.65-.62-10.29-3.63-23-2.28-30.8,4.59-4.65,4-7.59,10.07-7.39,18.14a27.85,27.85,0,0,0,2.47,10.71c5.39,12.28,16.39,19.93,27.05,27.28q21.42,14.67,42.76,29.36c7.12,4.89,15.76,8.43,22.69,8.62C285.49,1020,288.78,1019.17,291.05,1017Z"/></g><g id="thigh_l"><rect class="cls-1" x="215.58" y="623.06" width="262.16" height="76.37" rx="15.1" transform="translate(-324.83 987.63) rotate(-88.26)"/></g><g id="calf_r"><rect class="cls-2" x="327.19" y="772.81" width="68.29" height="234.41" rx="15.1" transform="translate(-283.55 178.1) rotate(-20.08)"/><path d="M457.88,914.8c-9.07-8.09-37.76,14-54.65,28.88-5.62,4.9-9.92,9.07-11.77,11-9.13,9.72-18.49,20-22.44,32.65,0,0,3-1.93,5-3.13-1,.68-2.61,1.75-5,3.26h0a.61.61,0,0,0,.05-.12l-.65.54.6-.41-.06.08c-.16.55-.35,1.15-.46,1.7-2.7,10.58-.21,23.08,7.34,30.27,4.44,4.26,10.71,6.65,18.73,5.72a27.69,27.69,0,0,0,10.44-3.42c11.75-6.48,18.38-18.12,24.74-29.4q12.67-22.65,25.39-45.23c4.23-7.53,7-16.45,6.54-23.38C461.39,920.07,460.24,916.87,457.88,914.8Z"/></g><g id="thigh_r"><rect class="cls-2" x="253.54" y="547.58" width="76.37" height="262.16" rx="15.1" transform="translate(-189.65 118.34) rotate(-17.41)"/></g><g id="lower_arm_l" data-name="lower arm_l"><circle class="cls-3" cx="530.54" cy="541.07" r="30.81"/><rect class="cls-3" x="459.98" y="383.82" width="41.78" height="170.66" rx="19.89" transform="translate(-181.87 359.08) rotate(-34.86)"/></g><g id="upper_arm_l" data-name="upper arm_l"><rect class="cls-2" x="373.55" y="228.34" width="68.29" height="202.46" rx="19.89" transform="translate(-94.79 180.1) rotate(-22.39)"/></g><g id="body_1"><path class="cls-2" d="M292.48,216.11s-35.26,8.78-68,26c0,0-15.64,98.42-16.9,126.33s-.08,70.77,0,97.57-5.37,107.55-10.68,116.07c0,0,163.56,13.51,209.07-38.55,0,0-3.58-117.37-3.82-151s2.14-154.44-3.73-159S369.15,216.1,342,213.8A192.31,192.31,0,0,0,292.48,216.11Z"/></g><g id="lower_arm_r" data-name="lower arm_r"><circle class="cls-3" cx="96.46" cy="541.12" r="30.81"/><rect class="cls-3" x="45.54" y="448.26" width="170.66" height="41.78" rx="19.89" transform="translate(-349.12 386.43) rotate(-64.63)"/></g><g id="upper_arm_r" data-name="upper arm_r"><rect class="cls-2" x="102.84" y="299.94" width="202.46" height="68.29" rx="19.89" transform="translate(-187.4 331.86) rotate(-58.26)"/></g><g id="neck"><path class="cls-4" d="M285.59,175.57v48.89s28.82,37.08,53.82,0V179.58Z"/></g><g id="head"><path class="cls-5" d="M312.5,102.08s42,10.89,73.26-7.59c0,0,3.93,31.16,4.08,42.84,0,0,7.16-43.71-5.84-62.52S316,29,282,79s3.59,96.57,3.59,96.57l6.67,9.6S306,158.26,309.5,148.63,312.5,102.08,312.5,102.08Z"/><path class="cls-3" d="M386,94c5.14-2.71,10.72,82.92-10.13,102.89s-63.31,30.28-83.61-11.72c0,0,3.8-18.45,3.14-22.19,0,0-13.44-1.52-18.44-13.34s3.36-17.36,5.88-17.27,12-1.26,15.63,13.14c0,0,10.69-36.14,9.53-44.51l5,1s37.35,7.26,58-1A99.42,99.42,0,0,0,386,94Z"/><ellipse cx="344.3" cy="141.83" rx="4.02" ry="10.72"/><ellipse cx="371.1" cy="141.83" rx="4.02" ry="10.72"/><path class="cls-6" d="M343.66,159H333.34A12.36,12.36,0,0,1,321,146.66v-7a12.35,12.35,0,0,1,12.34-12.34h10.32A12.35,12.35,0,0,1,356,139.64v7A12.36,12.36,0,0,1,343.66,159Zm-10.32-29.7A10.35,10.35,0,0,0,323,139.64v7A10.35,10.35,0,0,0,333.34,157h10.32A10.35,10.35,0,0,0,354,146.66v-7a10.35,10.35,0,0,0-10.34-10.34Z"/><path class="cls-6" d="M376.66,158H366.34A12.36,12.36,0,0,1,354,145.66v-7a12.35,12.35,0,0,1,12.34-12.34h10.32A12.35,12.35,0,0,1,389,138.64v7A12.36,12.36,0,0,1,376.66,158Zm-10.32-29.7A10.35,10.35,0,0,0,356,138.64v7A10.35,10.35,0,0,0,366.34,156h10.32A10.35,10.35,0,0,0,387,145.66v-7a10.35,10.35,0,0,0-10.34-10.34Z"/><path class="cls-6" d="M322,144.15h-.14l-22-3.15a1,1,0,0,1-.85-1.13,1,1,0,0,1,1.13-.85l22,3.15a1,1,0,0,1-.14,2Z"/><path class="cls-7" d="M319.59,184.35a1.5,1.5,0,0,1-.59-2.89,37.23,37.23,0,0,0,19.46-18.13c.67-1.3,1-1.84,1.57-2.15a1.51,1.51,0,0,1,2,.68,1.49,1.49,0,0,1-.35,1.79c-.12.2-.36.65-.57,1.06a40,40,0,0,1-20.95,19.52A1.51,1.51,0,0,1,319.59,184.35Zm21.78-20.48Z"/></g></svg>