<svg xmlns="http://www.w3.org/2000/svg" xmlns:xlink="http://www.w3.org/1999/xlink" viewBox="0 0 619 1080"><defs><style>.cls-1{fill:none;}.cls-2{fill:#ff8358;}.cls-3{fill:#9e005d;}.cls-4{fill:#333;}.cls-5{fill:#1a1a1a;}.cls-6{fill:#b2142b;}.cls-7{clip-path:url(#clip-path);}.cls-8{fill:#aa538f;}.cls-9{clip-path:url(#clip-path-2);}.cls-10{clip-path:url(#clip-path-3);}.cls-11{fill:#e85e38;}.cls-12{fill:#603813;}</style><clipPath id="clip-path"><rect class="cls-1" x="373.55" y="228.34" width="68.29" height="202.46" rx="19.89" transform="translate(-94.79 180.1) rotate(-22.39)"/></clipPath><clipPath id="clip-path-2"><path class="cls-1" d="M292.48,216.11s-35.26,8.78-68,26c0,0-15.64,98.42-16.9,126.33s-.08,70.77,0,97.57-5.37,107.55-10.68,116.07c0,0,163.56,13.51,209.07-38.55,0,0-3.58-117.37-3.82-151s2.14-154.44-3.73-159S369.15,216.1,342,213.8A192.31,192.31,0,0,0,292.48,216.11Z"/></clipPath><clipPath id="clip-path-3"><rect class="cls-1" x="102.84" y="299.94" width="202.46" height="68.29" rx="19.89" transform="translate(-187.4 331.86) rotate(-58.26)"/></clipPath></defs><g id="calf_l"><rect class="cls-2" x="168.29" y="819.05" width="234.41" height="68.29" rx="15.1" transform="matrix(0.58, -0.82, 0.82, 0.58, -575.56, 592.37)"/><path class="cls-3" d="M291.05,1017c8.87-8.31-10.54-38.87-23.84-57-4.38-6-8.14-10.7-9.93-12.71-8.86-10-18.22-20.22-30.5-25.29,0,0,1.66,3.19,2.68,5.21-.6-1.05-1.51-2.76-2.8-5.25h0l.12,0-.48-.69c.11.22.23.42.35.63l-.08-.06c-.53-.21-1.11-.45-1.65-.62-10.29-3.63-23-2.28-30.8,4.59-4.65,4-7.59,10.07-7.39,18.14a27.85,27.85,0,0,0,2.47,10.71c5.39,12.28,16.39,19.93,27.05,27.28q21.42,14.67,42.76,29.36c7.12,4.89,15.76,8.43,22.69,8.62C285.49,1020,288.78,1019.17,291.05,1017Z"/></g><g id="thigh_l"><rect class="cls-4" x="215.58" y="623.06" width="262.16" height="76.37" rx="15.1" transform="translate(-324.83 987.63) rotate(-88.26)"/></g><g id="calf_r"><rect class="cls-2" x="327.19" y="772.81" width="68.29" height="234.41" rx="15.1" transform="translate(-283.55 178.1) rotate(-20.08)"/><path class="cls-3" d="M457.88,914.8c-9.07-8.09-37.76,14-54.65,28.88-5.62,4.9-9.92,9.07-11.77,11-9.13,9.72-18.49,20-22.44,32.65,0,0,3-1.93,5-3.13-1,.68-2.61,1.75-5,3.26h0a.61.61,0,0,0,.05-.12l-.65.54.6-.41-.06.08c-.16.55-.35,1.15-.46,1.7-2.7,10.58-.21,23.08,7.34,30.27,4.44,4.26,10.71,6.65,18.73,5.72a27.69,27.69,0,0,0,10.44-3.42c11.75-6.48,18.38-18.12,24.74-29.4q12.67-22.65,25.39-45.23c4.23-7.53,7-16.45,6.54-23.38C461.39,920.07,460.24,916.87,457.88,914.8Z"/></g><g id="thigh_r"><rect class="cls-5" x="253.54" y="547.58" width="76.37" height="262.16" rx="15.1" transform="translate(-189.65 118.34) rotate(-17.41)"/></g><g id="lower_arm_l" data-name="lower arm_l"><circle class="cls-2" cx="530.54" cy="541.07" r="30.81"/><rect class="cls-2" x="459.98" y="383.82" width="41.78" height="170.66" rx="19.89" transform="translate(-181.87 359.08) rotate(-34.86)"/><rect class="cls-3" x="440.73" y="383.13" width="68.29" height="154.68" rx="19.89" transform="translate(-173.16 327.85) rotate(-32.55)"/></g><g id="upper_arm_l" data-name="upper arm_l"><rect class="cls-6" x="373.55" y="228.34" width="68.29" height="202.46" rx="19.89" transform="translate(-94.79 180.1) rotate(-22.39)"/><g class="cls-7"><rect class="cls-8" x="563" y="153" width="14" height="379"/><rect class="cls-8" x="538" y="153" width="14" height="379"/><rect class="cls-8" x="513" y="153" width="14" height="379"/><rect class="cls-8" x="488" y="153" width="14" height="379"/><rect class="cls-8" x="463" y="153" width="14" height="379"/><rect class="cls-8" x="438" y="153" width="14" height="379"/><rect class="cls-8" x="413" y="153" width="14" height="379"/><rect class="cls-8" x="388" y="153" width="14" height="379"/><rect class="cls-8" x="363" y="153" width="14" height="379"/><rect class="cls-8" x="338" y="153" width="14" height="379"/><rect class="cls-8" x="313" y="153" width="14" height="379"/><rect class="cls-8" x="288" y="153" width="14" height="379"/><rect class="cls-8" x="263" y="153" width="14" height="379"/><rect class="cls-8" x="238" y="153" width="14" height="379"/></g></g><g id="body_1"><path class="cls-6" d="M292.48,216.11s-35.26,8.78-68,26c0,0-15.64,98.42-16.9,126.33s-.08,70.77,0,97.57-5.37,107.55-10.68,116.07c0,0,163.56,13.51,209.07-38.55,0,0-3.58-117.37-3.82-151s2.14-154.44-3.73-159S369.15,216.1,342,213.8A192.31,192.31,0,0,0,292.48,216.11Z"/><g class="cls-9"><rect class="cls-8" x="472" y="214" width="14" height="379"/><rect class="cls-8" x="447" y="214" width="14" height="379"/><rect class="cls-8" x="422" y="214" width="14" height="379"/><rect class="cls-8" x="397" y="214" width="14" height="379"/><rect class="cls-8" x="372" y="214" width="14" height="379"/><rect class="cls-8" x="347" y="214" width="14" height="379"/><rect class="cls-8" x="322" y="214" width="14" height="379"/><rect class="cls-8" x="297" y="214" width="14" height="379"/><rect class="cls-8" x="272" y="214" width="14" height="379"/><rect class="cls-8" x="247" y="214" width="14" height="379"/><rect class="cls-8" x="222" y="214" width="14" height="379"/><rect class="cls-8" x="197" y="214" width="14" height="379"/><rect class="cls-8" x="172" y="214" width="14" height="379"/><rect class="cls-8" x="147" y="214" width="14" height="379"/></g></g><g id="lower_arm_r" data-name="lower arm_r"><circle class="cls-2" cx="96.46" cy="541.12" r="30.81"/><rect class="cls-2" x="45.54" y="448.26" width="170.66" height="41.78" rx="19.89" transform="translate(-349.12 386.43) rotate(-64.63)"/><rect class="cls-3" x="61.53" y="417.71" width="154.68" height="68.29" rx="19.89" transform="translate(-328.91 383.77) rotate(-64.63)"/></g><g id="upper_arm_r" data-name="upper arm_r"><rect class="cls-6" x="102.84" y="299.94" width="202.46" height="68.29" rx="19.89" transform="translate(-187.4 331.86) rotate(-58.26)"/><g class="cls-10"><rect class="cls-8" x="312" y="139" width="14" height="379"/><rect class="cls-8" x="287" y="139" width="14" height="379"/><rect class="cls-8" x="262" y="139" width="14" height="379"/><rect class="cls-8" x="237" y="139" width="14" height="379"/><rect class="cls-8" x="212" y="139" width="14" height="379"/><rect class="cls-8" x="187" y="139" width="14" height="379"/><rect class="cls-8" x="162" y="139" width="14" height="379"/><rect class="cls-8" x="137" y="139" width="14" height="379"/><rect class="cls-8" x="112" y="139" width="14" height="379"/><rect class="cls-8" x="87" y="139" width="14" height="379"/><rect class="cls-8" x="62" y="139" width="14" height="379"/><rect class="cls-8" x="37" y="139" width="14" height="379"/><rect class="cls-8" x="12" y="139" width="14" height="379"/><rect class="cls-8" x="-13" y="139" width="14" height="379"/></g></g><g id="neck"><path class="cls-11" d="M285.59,175.57v48.89s28.82,37.08,53.82,0V179.58Z"/></g><g id="head"><path class="cls-12" d="M354.35,59.44S331.58,20.59,282,52.74s-39.78,129.55,10.25,132.43,97.58-38.4,97.58-38.4,16.76-24.37,6-56.52S373.11,55.42,354.35,59.44Z"/><path class="cls-2" d="M385.76,94.49c3.18-4.87,11,82.43-9.89,102.4s-63.31,30.28-83.61-11.72c0,0,3.8-18.45,3.14-22.19,0,0-13.44-1.52-18.44-13.34s3.36-17.36,5.88-17.27,12-1.26,15.63,13.14c0,0,11.3-15.74,10.15-24.11l8-4.79S371.62,116.14,385.76,94.49Z"/><ellipse cx="344.3" cy="141.83" rx="4.02" ry="10.72"/><ellipse cx="371.1" cy="141.83" rx="4.02" ry="10.72"/></g></svg>