<svg xmlns="http://www.w3.org/2000/svg" xmlns:xlink="http://www.w3.org/1999/xlink" viewBox="0 0 619 1080"><defs><style>.cls-1{fill:none;}.cls-2{fill:#4d4d4d;}.cls-3{fill:#754c24;}.cls-4{fill:#333;}.cls-5{fill:#ff8358;}.cls-6{fill:#e6e6e6;}.cls-7{clip-path:url(#clip-path);}.cls-8{fill:#ccc;}.cls-9{clip-path:url(#clip-path-2);}.cls-10{clip-path:url(#clip-path-3);}.cls-11{fill:#e85e38;}.cls-12{fill:#631c4a;}</style><clipPath id="clip-path"><rect class="cls-1" x="373.55" y="228.34" width="68.29" height="202.46" rx="19.89" transform="translate(-94.79 180.1) rotate(-22.39)"/></clipPath><clipPath id="clip-path-2"><path class="cls-1" d="M292.48,216.11s-35.26,8.78-68,26c0,0-15.64,98.42-16.9,126.33s-.08,70.77,0,97.57S178.31,670.48,173,679c0,0,226.48,34.06,272-18,0,0-42.62-234.81-42.86-268.47s2.14-154.44-3.73-159S369.15,216.1,342,213.8A192.31,192.31,0,0,0,292.48,216.11Z"/></clipPath><clipPath id="clip-path-3"><rect class="cls-1" x="102.84" y="299.94" width="202.46" height="68.29" rx="19.89" transform="translate(-187.4 331.86) rotate(-58.26)"/></clipPath></defs><g id="calf_l"><rect class="cls-2" x="168.29" y="819.05" width="234.41" height="68.29" rx="15.1" transform="matrix(0.58, -0.82, 0.82, 0.58, -575.56, 592.37)"/><path class="cls-3" d="M291.05,1017c8.87-8.31-10.54-38.87-23.84-57-4.38-6-8.14-10.7-9.93-12.71-8.86-10-18.22-20.22-30.5-25.29,0,0,1.66,3.19,2.68,5.21-.6-1.05-1.51-2.76-2.8-5.25h0l.12,0-.48-.69c.11.22.23.42.35.63l-.08-.06c-.53-.21-1.11-.45-1.65-.62-10.29-3.63-23-2.28-30.8,4.59-4.65,4-7.59,10.07-7.39,18.14a27.85,27.85,0,0,0,2.47,10.71c5.39,12.28,16.39,19.93,27.05,27.28q21.42,14.67,42.76,29.36c7.12,4.89,15.76,8.43,22.69,8.62C285.49,1020,288.78,1019.17,291.05,1017Z"/></g><g id="thigh_l"><rect class="cls-2" x="215.58" y="623.06" width="262.16" height="76.37" rx="15.1" transform="translate(-324.83 987.63) rotate(-88.26)"/></g><g id="calf_r"><rect class="cls-4" x="327.19" y="772.81" width="68.29" height="234.41" rx="15.1" transform="translate(-283.55 178.1) rotate(-20.08)"/><path class="cls-3" d="M457.88,914.8c-9.07-8.09-37.76,14-54.65,28.88-5.62,4.9-9.92,9.07-11.77,11-9.13,9.72-18.49,20-22.44,32.65,0,0,3-1.93,5-3.13-1,.68-2.61,1.75-5,3.26h0a.61.61,0,0,0,.05-.12l-.65.54.6-.41-.06.08c-.16.55-.35,1.15-.46,1.7-2.7,10.58-.21,23.08,7.34,30.27,4.44,4.26,10.71,6.65,18.73,5.72a27.69,27.69,0,0,0,10.44-3.42c11.75-6.48,18.38-18.12,24.74-29.4q12.67-22.65,25.39-45.23c4.23-7.53,7-16.45,6.54-23.38C461.39,920.07,460.24,916.87,457.88,914.8Z"/></g><g id="thigh_r"><rect class="cls-4" x="253.54" y="547.58" width="76.37" height="262.16" rx="15.1" transform="translate(-189.65 118.34) rotate(-17.41)"/></g><g id="lower_arm_l" data-name="lower arm_l"><circle class="cls-5" cx="530.54" cy="541.07" r="30.81"/><rect class="cls-5" x="459.98" y="383.82" width="41.78" height="170.66" rx="19.89" transform="translate(-181.87 359.08) rotate(-34.86)"/></g><g id="upper_arm_l" data-name="upper arm_l"><rect class="cls-6" x="373.55" y="228.34" width="68.29" height="202.46" rx="19.89" transform="translate(-94.79 180.1) rotate(-22.39)"/><g class="cls-7"><path class="cls-8" d="M511.3,91.08h-.78a2,2,0,0,1,0-4h.78a2,2,0,0,1,0,4Zm-10.78,0h-3a2,2,0,0,1,0-4h3a2,2,0,0,1,0,4Zm-13,0h-3a2,2,0,0,1,0-4h3a2,2,0,0,1,0,4Zm-13,0h-3a2,2,0,0,1,0-4h3a2,2,0,0,1,0,4Zm-13,0h-3a2,2,0,0,1,0-4h3a2,2,0,0,1,0,4Zm-13,0h-3a2,2,0,0,1,0-4h3a2,2,0,0,1,0,4Zm-13,0h-3a2,2,0,0,1,0-4h3a2,2,0,0,1,0,4Zm-13,0h-3a2,2,0,0,1,0-4h3a2,2,0,0,1,0,4Zm-13,0h-3a2,2,0,0,1,0-4h3a2,2,0,0,1,0,4Zm-13,0h-3a2,2,0,0,1,0-4h3a2,2,0,0,1,0,4Zm-13,0h-3a2,2,0,0,1,0-4h3a2,2,0,0,1,0,4Zm-13,0h-3a2,2,0,0,1,0-4h3a2,2,0,0,1,0,4Zm-13,0h-3a2,2,0,0,1,0-4h3a2,2,0,0,1,0,4Zm-13,0h-3a2,2,0,0,1,0-4h3a2,2,0,0,1,0,4Zm-13,0h-3a2,2,0,0,1,0-4h3a2,2,0,0,1,0,4Zm-13,0h-3a2,2,0,0,1,0-4h3a2,2,0,0,1,0,4Zm-13,0h-3a2,2,0,0,1,0-4h3a2,2,0,0,1,0,4Zm-13,0h-3a2,2,0,0,1,0-4h3a2,2,0,0,1,0,4Zm-13,0h-3a2,2,0,0,1,0-4h3a2,2,0,0,1,0,4Zm-13,0h-3a2,2,0,0,1,0-4h3a2,2,0,0,1,0,4Zm-13,0h-3a2,2,0,0,1,0-4h3a2,2,0,0,1,0,4Zm-13,0h-3a2,2,0,0,1,0-4h3a2,2,0,0,1,0,4Z"/><path class="cls-8" d="M511.3,116.48h-.78a2,2,0,0,1,0-4h.78a2,2,0,0,1,0,4Zm-10.78,0h-3a2,2,0,0,1,0-4h3a2,2,0,0,1,0,4Zm-13,0h-3a2,2,0,0,1,0-4h3a2,2,0,0,1,0,4Zm-13,0h-3a2,2,0,0,1,0-4h3a2,2,0,0,1,0,4Zm-13,0h-3a2,2,0,0,1,0-4h3a2,2,0,0,1,0,4Zm-13,0h-3a2,2,0,0,1,0-4h3a2,2,0,0,1,0,4Zm-13,0h-3a2,2,0,0,1,0-4h3a2,2,0,0,1,0,4Zm-13,0h-3a2,2,0,0,1,0-4h3a2,2,0,0,1,0,4Zm-13,0h-3a2,2,0,0,1,0-4h3a2,2,0,0,1,0,4Zm-13,0h-3a2,2,0,0,1,0-4h3a2,2,0,0,1,0,4Zm-13,0h-3a2,2,0,0,1,0-4h3a2,2,0,0,1,0,4Zm-13,0h-3a2,2,0,0,1,0-4h3a2,2,0,0,1,0,4Zm-13,0h-3a2,2,0,0,1,0-4h3a2,2,0,0,1,0,4Zm-13,0h-3a2,2,0,0,1,0-4h3a2,2,0,0,1,0,4Zm-13,0h-3a2,2,0,0,1,0-4h3a2,2,0,0,1,0,4Zm-13,0h-3a2,2,0,0,1,0-4h3a2,2,0,0,1,0,4Zm-13,0h-3a2,2,0,0,1,0-4h3a2,2,0,0,1,0,4Zm-13,0h-3a2,2,0,0,1,0-4h3a2,2,0,0,1,0,4Zm-13,0h-3a2,2,0,0,1,0-4h3a2,2,0,0,1,0,4Zm-13,0h-3a2,2,0,0,1,0-4h3a2,2,0,0,1,0,4Zm-13,0h-3a2,2,0,0,1,0-4h3a2,2,0,0,1,0,4Zm-13,0h-3a2,2,0,0,1,0-4h3a2,2,0,0,1,0,4Z"/><path class="cls-8" d="M511.3,141.88h-.78a2,2,0,0,1,0-4h.78a2,2,0,0,1,0,4Zm-10.78,0h-3a2,2,0,0,1,0-4h3a2,2,0,0,1,0,4Zm-13,0h-3a2,2,0,0,1,0-4h3a2,2,0,0,1,0,4Zm-13,0h-3a2,2,0,0,1,0-4h3a2,2,0,0,1,0,4Zm-13,0h-3a2,2,0,0,1,0-4h3a2,2,0,0,1,0,4Zm-13,0h-3a2,2,0,0,1,0-4h3a2,2,0,0,1,0,4Zm-13,0h-3a2,2,0,0,1,0-4h3a2,2,0,0,1,0,4Zm-13,0h-3a2,2,0,0,1,0-4h3a2,2,0,0,1,0,4Zm-13,0h-3a2,2,0,0,1,0-4h3a2,2,0,0,1,0,4Zm-13,0h-3a2,2,0,0,1,0-4h3a2,2,0,0,1,0,4Zm-13,0h-3a2,2,0,0,1,0-4h3a2,2,0,0,1,0,4Zm-13,0h-3a2,2,0,0,1,0-4h3a2,2,0,0,1,0,4Zm-13,0h-3a2,2,0,0,1,0-4h3a2,2,0,0,1,0,4Zm-13,0h-3a2,2,0,0,1,0-4h3a2,2,0,0,1,0,4Zm-13,0h-3a2,2,0,0,1,0-4h3a2,2,0,0,1,0,4Zm-13,0h-3a2,2,0,0,1,0-4h3a2,2,0,0,1,0,4Zm-13,0h-3a2,2,0,0,1,0-4h3a2,2,0,0,1,0,4Zm-13,0h-3a2,2,0,0,1,0-4h3a2,2,0,0,1,0,4Zm-13,0h-3a2,2,0,0,1,0-4h3a2,2,0,0,1,0,4Zm-13,0h-3a2,2,0,0,1,0-4h3a2,2,0,0,1,0,4Zm-13,0h-3a2,2,0,1,1,0-4h3a2,2,0,0,1,0,4Zm-13,0h-3a2,2,0,1,1,0-4h3a2,2,0,0,1,0,4Z"/><path class="cls-8" d="M511.3,167.27h-.78a2,2,0,0,1,0-4h.78a2,2,0,0,1,0,4Zm-10.78,0h-3a2,2,0,0,1,0-4h3a2,2,0,0,1,0,4Zm-13,0h-3a2,2,0,0,1,0-4h3a2,2,0,0,1,0,4Zm-13,0h-3a2,2,0,0,1,0-4h3a2,2,0,0,1,0,4Zm-13,0h-3a2,2,0,0,1,0-4h3a2,2,0,0,1,0,4Zm-13,0h-3a2,2,0,0,1,0-4h3a2,2,0,0,1,0,4Zm-13,0h-3a2,2,0,0,1,0-4h3a2,2,0,0,1,0,4Zm-13,0h-3a2,2,0,0,1,0-4h3a2,2,0,0,1,0,4Zm-13,0h-3a2,2,0,0,1,0-4h3a2,2,0,0,1,0,4Zm-13,0h-3a2,2,0,0,1,0-4h3a2,2,0,0,1,0,4Zm-13,0h-3a2,2,0,0,1,0-4h3a2,2,0,0,1,0,4Zm-13,0h-3a2,2,0,0,1,0-4h3a2,2,0,0,1,0,4Zm-13,0h-3a2,2,0,0,1,0-4h3a2,2,0,0,1,0,4Zm-13,0h-3a2,2,0,0,1,0-4h3a2,2,0,0,1,0,4Zm-13,0h-3a2,2,0,0,1,0-4h3a2,2,0,0,1,0,4Zm-13,0h-3a2,2,0,0,1,0-4h3a2,2,0,0,1,0,4Zm-13,0h-3a2,2,0,0,1,0-4h3a2,2,0,0,1,0,4Zm-13,0h-3a2,2,0,0,1,0-4h3a2,2,0,0,1,0,4Zm-13,0h-3a2,2,0,0,1,0-4h3a2,2,0,0,1,0,4Zm-13,0h-3a2,2,0,0,1,0-4h3a2,2,0,0,1,0,4Zm-13,0h-3a2,2,0,0,1,0-4h3a2,2,0,0,1,0,4Zm-13,0h-3a2,2,0,0,1,0-4h3a2,2,0,0,1,0,4Z"/><path class="cls-8" d="M511.3,192.67h-.78a2,2,0,0,1,0-4h.78a2,2,0,0,1,0,4Zm-10.78,0h-3a2,2,0,0,1,0-4h3a2,2,0,0,1,0,4Zm-13,0h-3a2,2,0,0,1,0-4h3a2,2,0,0,1,0,4Zm-13,0h-3a2,2,0,0,1,0-4h3a2,2,0,0,1,0,4Zm-13,0h-3a2,2,0,0,1,0-4h3a2,2,0,0,1,0,4Zm-13,0h-3a2,2,0,0,1,0-4h3a2,2,0,0,1,0,4Zm-13,0h-3a2,2,0,0,1,0-4h3a2,2,0,0,1,0,4Zm-13,0h-3a2,2,0,0,1,0-4h3a2,2,0,0,1,0,4Zm-13,0h-3a2,2,0,0,1,0-4h3a2,2,0,0,1,0,4Zm-13,0h-3a2,2,0,0,1,0-4h3a2,2,0,0,1,0,4Zm-13,0h-3a2,2,0,0,1,0-4h3a2,2,0,0,1,0,4Zm-13,0h-3a2,2,0,0,1,0-4h3a2,2,0,0,1,0,4Zm-13,0h-3a2,2,0,0,1,0-4h3a2,2,0,0,1,0,4Zm-13,0h-3a2,2,0,0,1,0-4h3a2,2,0,0,1,0,4Zm-13,0h-3a2,2,0,0,1,0-4h3a2,2,0,0,1,0,4Zm-13,0h-3a2,2,0,0,1,0-4h3a2,2,0,0,1,0,4Zm-13,0h-3a2,2,0,0,1,0-4h3a2,2,0,0,1,0,4Zm-13,0h-3a2,2,0,0,1,0-4h3a2,2,0,0,1,0,4Zm-13,0h-3a2,2,0,0,1,0-4h3a2,2,0,0,1,0,4Zm-13,0h-3a2,2,0,0,1,0-4h3a2,2,0,0,1,0,4Zm-13,0h-3a2,2,0,0,1,0-4h3a2,2,0,0,1,0,4Zm-13,0h-3a2,2,0,0,1,0-4h3a2,2,0,0,1,0,4Z"/><path class="cls-8" d="M511.3,218.06h-.78a2,2,0,0,1,0-4h.78a2,2,0,0,1,0,4Zm-10.78,0h-3a2,2,0,0,1,0-4h3a2,2,0,0,1,0,4Zm-13,0h-3a2,2,0,0,1,0-4h3a2,2,0,0,1,0,4Zm-13,0h-3a2,2,0,0,1,0-4h3a2,2,0,0,1,0,4Zm-13,0h-3a2,2,0,0,1,0-4h3a2,2,0,0,1,0,4Zm-13,0h-3a2,2,0,0,1,0-4h3a2,2,0,0,1,0,4Zm-13,0h-3a2,2,0,0,1,0-4h3a2,2,0,0,1,0,4Zm-13,0h-3a2,2,0,0,1,0-4h3a2,2,0,0,1,0,4Zm-13,0h-3a2,2,0,0,1,0-4h3a2,2,0,0,1,0,4Zm-13,0h-3a2,2,0,0,1,0-4h3a2,2,0,0,1,0,4Zm-13,0h-3a2,2,0,0,1,0-4h3a2,2,0,0,1,0,4Zm-13,0h-3a2,2,0,0,1,0-4h3a2,2,0,0,1,0,4Zm-13,0h-3a2,2,0,0,1,0-4h3a2,2,0,0,1,0,4Zm-13,0h-3a2,2,0,0,1,0-4h3a2,2,0,0,1,0,4Zm-13,0h-3a2,2,0,0,1,0-4h3a2,2,0,0,1,0,4Zm-13,0h-3a2,2,0,0,1,0-4h3a2,2,0,0,1,0,4Zm-13,0h-3a2,2,0,0,1,0-4h3a2,2,0,0,1,0,4Zm-13,0h-3a2,2,0,0,1,0-4h3a2,2,0,0,1,0,4Zm-13,0h-3a2,2,0,0,1,0-4h3a2,2,0,0,1,0,4Zm-13,0h-3a2,2,0,0,1,0-4h3a2,2,0,0,1,0,4Zm-13,0h-3a2,2,0,0,1,0-4h3a2,2,0,1,1,0,4Zm-13,0h-3a2,2,0,0,1,0-4h3a2,2,0,1,1,0,4Z"/><path class="cls-8" d="M511.3,243.46h-.78a2,2,0,0,1,0-4h.78a2,2,0,0,1,0,4Zm-10.78,0h-3a2,2,0,0,1,0-4h3a2,2,0,0,1,0,4Zm-13,0h-3a2,2,0,0,1,0-4h3a2,2,0,0,1,0,4Zm-13,0h-3a2,2,0,0,1,0-4h3a2,2,0,0,1,0,4Zm-13,0h-3a2,2,0,0,1,0-4h3a2,2,0,0,1,0,4Zm-13,0h-3a2,2,0,0,1,0-4h3a2,2,0,0,1,0,4Zm-13,0h-3a2,2,0,0,1,0-4h3a2,2,0,0,1,0,4Zm-13,0h-3a2,2,0,0,1,0-4h3a2,2,0,0,1,0,4Zm-13,0h-3a2,2,0,0,1,0-4h3a2,2,0,0,1,0,4Zm-13,0h-3a2,2,0,0,1,0-4h3a2,2,0,0,1,0,4Zm-13,0h-3a2,2,0,0,1,0-4h3a2,2,0,0,1,0,4Zm-13,0h-3a2,2,0,0,1,0-4h3a2,2,0,0,1,0,4Zm-13,0h-3a2,2,0,0,1,0-4h3a2,2,0,0,1,0,4Zm-13,0h-3a2,2,0,0,1,0-4h3a2,2,0,0,1,0,4Zm-13,0h-3a2,2,0,0,1,0-4h3a2,2,0,0,1,0,4Zm-13,0h-3a2,2,0,0,1,0-4h3a2,2,0,0,1,0,4Zm-13,0h-3a2,2,0,0,1,0-4h3a2,2,0,0,1,0,4Zm-13,0h-3a2,2,0,0,1,0-4h3a2,2,0,0,1,0,4Zm-13,0h-3a2,2,0,0,1,0-4h3a2,2,0,0,1,0,4Zm-13,0h-3a2,2,0,0,1,0-4h3a2,2,0,0,1,0,4Zm-13,0h-3a2,2,0,0,1,0-4h3a2,2,0,0,1,0,4Zm-13,0h-3a2,2,0,0,1,0-4h3a2,2,0,0,1,0,4Z"/><path class="cls-8" d="M511.3,268.86h-.78a2,2,0,0,1,0-4h.78a2,2,0,0,1,0,4Zm-10.78,0h-3a2,2,0,0,1,0-4h3a2,2,0,0,1,0,4Zm-13,0h-3a2,2,0,0,1,0-4h3a2,2,0,0,1,0,4Zm-13,0h-3a2,2,0,0,1,0-4h3a2,2,0,0,1,0,4Zm-13,0h-3a2,2,0,0,1,0-4h3a2,2,0,0,1,0,4Zm-13,0h-3a2,2,0,0,1,0-4h3a2,2,0,0,1,0,4Zm-13,0h-3a2,2,0,0,1,0-4h3a2,2,0,0,1,0,4Zm-13,0h-3a2,2,0,0,1,0-4h3a2,2,0,0,1,0,4Zm-13,0h-3a2,2,0,0,1,0-4h3a2,2,0,0,1,0,4Zm-13,0h-3a2,2,0,0,1,0-4h3a2,2,0,0,1,0,4Zm-13,0h-3a2,2,0,0,1,0-4h3a2,2,0,0,1,0,4Zm-13,0h-3a2,2,0,0,1,0-4h3a2,2,0,0,1,0,4Zm-13,0h-3a2,2,0,0,1,0-4h3a2,2,0,0,1,0,4Zm-13,0h-3a2,2,0,0,1,0-4h3a2,2,0,0,1,0,4Zm-13,0h-3a2,2,0,0,1,0-4h3a2,2,0,0,1,0,4Zm-13,0h-3a2,2,0,0,1,0-4h3a2,2,0,0,1,0,4Zm-13,0h-3a2,2,0,0,1,0-4h3a2,2,0,0,1,0,4Zm-13,0h-3a2,2,0,0,1,0-4h3a2,2,0,0,1,0,4Zm-13,0h-3a2,2,0,0,1,0-4h3a2,2,0,0,1,0,4Zm-13,0h-3a2,2,0,0,1,0-4h3a2,2,0,0,1,0,4Zm-13,0h-3a2,2,0,1,1,0-4h3a2,2,0,0,1,0,4Zm-13,0h-3a2,2,0,1,1,0-4h3a2,2,0,0,1,0,4Z"/><path class="cls-8" d="M511.3,294.25h-.78a2,2,0,0,1,0-4h.78a2,2,0,0,1,0,4Zm-10.78,0h-3a2,2,0,0,1,0-4h3a2,2,0,0,1,0,4Zm-13,0h-3a2,2,0,0,1,0-4h3a2,2,0,0,1,0,4Zm-13,0h-3a2,2,0,0,1,0-4h3a2,2,0,0,1,0,4Zm-13,0h-3a2,2,0,0,1,0-4h3a2,2,0,0,1,0,4Zm-13,0h-3a2,2,0,0,1,0-4h3a2,2,0,0,1,0,4Zm-13,0h-3a2,2,0,0,1,0-4h3a2,2,0,0,1,0,4Zm-13,0h-3a2,2,0,0,1,0-4h3a2,2,0,0,1,0,4Zm-13,0h-3a2,2,0,0,1,0-4h3a2,2,0,0,1,0,4Zm-13,0h-3a2,2,0,0,1,0-4h3a2,2,0,0,1,0,4Zm-13,0h-3a2,2,0,0,1,0-4h3a2,2,0,0,1,0,4Zm-13,0h-3a2,2,0,0,1,0-4h3a2,2,0,0,1,0,4Zm-13,0h-3a2,2,0,0,1,0-4h3a2,2,0,0,1,0,4Zm-13,0h-3a2,2,0,0,1,0-4h3a2,2,0,0,1,0,4Zm-13,0h-3a2,2,0,0,1,0-4h3a2,2,0,0,1,0,4Zm-13,0h-3a2,2,0,0,1,0-4h3a2,2,0,0,1,0,4Zm-13,0h-3a2,2,0,0,1,0-4h3a2,2,0,0,1,0,4Zm-13,0h-3a2,2,0,0,1,0-4h3a2,2,0,0,1,0,4Zm-13,0h-3a2,2,0,0,1,0-4h3a2,2,0,0,1,0,4Zm-13,0h-3a2,2,0,0,1,0-4h3a2,2,0,0,1,0,4Zm-13,0h-3a2,2,0,1,1,0-4h3a2,2,0,0,1,0,4Zm-13,0h-3a2,2,0,1,1,0-4h3a2,2,0,0,1,0,4Z"/><path class="cls-8" d="M511.3,319.65h-.78a2,2,0,0,1,0-4h.78a2,2,0,0,1,0,4Zm-10.78,0h-3a2,2,0,0,1,0-4h3a2,2,0,0,1,0,4Zm-13,0h-3a2,2,0,0,1,0-4h3a2,2,0,0,1,0,4Zm-13,0h-3a2,2,0,0,1,0-4h3a2,2,0,0,1,0,4Zm-13,0h-3a2,2,0,0,1,0-4h3a2,2,0,0,1,0,4Zm-13,0h-3a2,2,0,0,1,0-4h3a2,2,0,0,1,0,4Zm-13,0h-3a2,2,0,0,1,0-4h3a2,2,0,0,1,0,4Zm-13,0h-3a2,2,0,0,1,0-4h3a2,2,0,0,1,0,4Zm-13,0h-3a2,2,0,0,1,0-4h3a2,2,0,0,1,0,4Zm-13,0h-3a2,2,0,0,1,0-4h3a2,2,0,0,1,0,4Zm-13,0h-3a2,2,0,0,1,0-4h3a2,2,0,0,1,0,4Zm-13,0h-3a2,2,0,0,1,0-4h3a2,2,0,0,1,0,4Zm-13,0h-3a2,2,0,0,1,0-4h3a2,2,0,0,1,0,4Zm-13,0h-3a2,2,0,0,1,0-4h3a2,2,0,0,1,0,4Zm-13,0h-3a2,2,0,0,1,0-4h3a2,2,0,0,1,0,4Zm-13,0h-3a2,2,0,0,1,0-4h3a2,2,0,0,1,0,4Zm-13,0h-3a2,2,0,0,1,0-4h3a2,2,0,0,1,0,4Zm-13,0h-3a2,2,0,0,1,0-4h3a2,2,0,0,1,0,4Zm-13,0h-3a2,2,0,0,1,0-4h3a2,2,0,0,1,0,4Zm-13,0h-3a2,2,0,0,1,0-4h3a2,2,0,0,1,0,4Zm-13,0h-3a2,2,0,1,1,0-4h3a2,2,0,0,1,0,4Zm-13,0h-3a2,2,0,1,1,0-4h3a2,2,0,0,1,0,4Z"/><path class="cls-8" d="M511.3,345h-.78a2,2,0,0,1,0-4h.78a2,2,0,0,1,0,4Zm-10.78,0h-3a2,2,0,0,1,0-4h3a2,2,0,0,1,0,4Zm-13,0h-3a2,2,0,0,1,0-4h3a2,2,0,0,1,0,4Zm-13,0h-3a2,2,0,0,1,0-4h3a2,2,0,0,1,0,4Zm-13,0h-3a2,2,0,0,1,0-4h3a2,2,0,0,1,0,4Zm-13,0h-3a2,2,0,0,1,0-4h3a2,2,0,0,1,0,4Zm-13,0h-3a2,2,0,0,1,0-4h3a2,2,0,0,1,0,4Zm-13,0h-3a2,2,0,0,1,0-4h3a2,2,0,0,1,0,4Zm-13,0h-3a2,2,0,0,1,0-4h3a2,2,0,0,1,0,4Zm-13,0h-3a2,2,0,0,1,0-4h3a2,2,0,0,1,0,4Zm-13,0h-3a2,2,0,0,1,0-4h3a2,2,0,0,1,0,4Zm-13,0h-3a2,2,0,0,1,0-4h3a2,2,0,0,1,0,4Zm-13,0h-3a2,2,0,0,1,0-4h3a2,2,0,0,1,0,4Zm-13,0h-3a2,2,0,0,1,0-4h3a2,2,0,0,1,0,4Zm-13,0h-3a2,2,0,0,1,0-4h3a2,2,0,0,1,0,4Zm-13,0h-3a2,2,0,0,1,0-4h3a2,2,0,0,1,0,4Zm-13,0h-3a2,2,0,0,1,0-4h3a2,2,0,0,1,0,4Zm-13,0h-3a2,2,0,0,1,0-4h3a2,2,0,0,1,0,4Zm-13,0h-3a2,2,0,0,1,0-4h3a2,2,0,0,1,0,4Zm-13,0h-3a2,2,0,0,1,0-4h3a2,2,0,0,1,0,4Zm-13,0h-3a2,2,0,0,1,0-4h3a2,2,0,1,1,0,4Zm-13,0h-3a2,2,0,0,1,0-4h3a2,2,0,1,1,0,4Z"/><path class="cls-8" d="M511.3,370.44h-.78a2,2,0,0,1,0-4h.78a2,2,0,0,1,0,4Zm-10.78,0h-3a2,2,0,0,1,0-4h3a2,2,0,0,1,0,4Zm-13,0h-3a2,2,0,0,1,0-4h3a2,2,0,0,1,0,4Zm-13,0h-3a2,2,0,0,1,0-4h3a2,2,0,0,1,0,4Zm-13,0h-3a2,2,0,0,1,0-4h3a2,2,0,0,1,0,4Zm-13,0h-3a2,2,0,0,1,0-4h3a2,2,0,0,1,0,4Zm-13,0h-3a2,2,0,0,1,0-4h3a2,2,0,0,1,0,4Zm-13,0h-3a2,2,0,0,1,0-4h3a2,2,0,0,1,0,4Zm-13,0h-3a2,2,0,0,1,0-4h3a2,2,0,0,1,0,4Zm-13,0h-3a2,2,0,0,1,0-4h3a2,2,0,0,1,0,4Zm-13,0h-3a2,2,0,0,1,0-4h3a2,2,0,0,1,0,4Zm-13,0h-3a2,2,0,0,1,0-4h3a2,2,0,0,1,0,4Zm-13,0h-3a2,2,0,0,1,0-4h3a2,2,0,0,1,0,4Zm-13,0h-3a2,2,0,0,1,0-4h3a2,2,0,0,1,0,4Zm-13,0h-3a2,2,0,0,1,0-4h3a2,2,0,0,1,0,4Zm-13,0h-3a2,2,0,0,1,0-4h3a2,2,0,0,1,0,4Zm-13,0h-3a2,2,0,0,1,0-4h3a2,2,0,0,1,0,4Zm-13,0h-3a2,2,0,0,1,0-4h3a2,2,0,0,1,0,4Zm-13,0h-3a2,2,0,0,1,0-4h3a2,2,0,0,1,0,4Zm-13,0h-3a2,2,0,0,1,0-4h3a2,2,0,0,1,0,4Zm-13,0h-3a2,2,0,0,1,0-4h3a2,2,0,1,1,0,4Zm-13,0h-3a2,2,0,0,1,0-4h3a2,2,0,1,1,0,4Z"/><path class="cls-8" d="M511.3,395.83h-.78a2,2,0,0,1,0-4h.78a2,2,0,0,1,0,4Zm-10.78,0h-3a2,2,0,0,1,0-4h3a2,2,0,0,1,0,4Zm-13,0h-3a2,2,0,0,1,0-4h3a2,2,0,0,1,0,4Zm-13,0h-3a2,2,0,0,1,0-4h3a2,2,0,0,1,0,4Zm-13,0h-3a2,2,0,0,1,0-4h3a2,2,0,0,1,0,4Zm-13,0h-3a2,2,0,0,1,0-4h3a2,2,0,0,1,0,4Zm-13,0h-3a2,2,0,0,1,0-4h3a2,2,0,0,1,0,4Zm-13,0h-3a2,2,0,0,1,0-4h3a2,2,0,0,1,0,4Zm-13,0h-3a2,2,0,0,1,0-4h3a2,2,0,0,1,0,4Zm-13,0h-3a2,2,0,0,1,0-4h3a2,2,0,0,1,0,4Zm-13,0h-3a2,2,0,0,1,0-4h3a2,2,0,0,1,0,4Zm-13,0h-3a2,2,0,0,1,0-4h3a2,2,0,0,1,0,4Zm-13,0h-3a2,2,0,0,1,0-4h3a2,2,0,0,1,0,4Zm-13,0h-3a2,2,0,0,1,0-4h3a2,2,0,0,1,0,4Zm-13,0h-3a2,2,0,0,1,0-4h3a2,2,0,0,1,0,4Zm-13,0h-3a2,2,0,0,1,0-4h3a2,2,0,0,1,0,4Zm-13,0h-3a2,2,0,0,1,0-4h3a2,2,0,0,1,0,4Zm-13,0h-3a2,2,0,0,1,0-4h3a2,2,0,0,1,0,4Zm-13,0h-3a2,2,0,0,1,0-4h3a2,2,0,0,1,0,4Zm-13,0h-3a2,2,0,0,1,0-4h3a2,2,0,0,1,0,4Zm-13,0h-3a2,2,0,0,1,0-4h3a2,2,0,1,1,0,4Zm-13,0h-3a2,2,0,0,1,0-4h3a2,2,0,1,1,0,4Z"/><path class="cls-8" d="M511.3,421.23h-.78a2,2,0,0,1,0-4h.78a2,2,0,0,1,0,4Zm-10.78,0h-3a2,2,0,0,1,0-4h3a2,2,0,0,1,0,4Zm-13,0h-3a2,2,0,0,1,0-4h3a2,2,0,0,1,0,4Zm-13,0h-3a2,2,0,0,1,0-4h3a2,2,0,0,1,0,4Zm-13,0h-3a2,2,0,0,1,0-4h3a2,2,0,0,1,0,4Zm-13,0h-3a2,2,0,0,1,0-4h3a2,2,0,0,1,0,4Zm-13,0h-3a2,2,0,0,1,0-4h3a2,2,0,0,1,0,4Zm-13,0h-3a2,2,0,0,1,0-4h3a2,2,0,0,1,0,4Zm-13,0h-3a2,2,0,0,1,0-4h3a2,2,0,0,1,0,4Zm-13,0h-3a2,2,0,0,1,0-4h3a2,2,0,0,1,0,4Zm-13,0h-3a2,2,0,0,1,0-4h3a2,2,0,0,1,0,4Zm-13,0h-3a2,2,0,0,1,0-4h3a2,2,0,0,1,0,4Zm-13,0h-3a2,2,0,0,1,0-4h3a2,2,0,0,1,0,4Zm-13,0h-3a2,2,0,0,1,0-4h3a2,2,0,0,1,0,4Zm-13,0h-3a2,2,0,0,1,0-4h3a2,2,0,0,1,0,4Zm-13,0h-3a2,2,0,0,1,0-4h3a2,2,0,0,1,0,4Zm-13,0h-3a2,2,0,0,1,0-4h3a2,2,0,0,1,0,4Zm-13,0h-3a2,2,0,0,1,0-4h3a2,2,0,0,1,0,4Zm-13,0h-3a2,2,0,0,1,0-4h3a2,2,0,0,1,0,4Zm-13,0h-3a2,2,0,0,1,0-4h3a2,2,0,0,1,0,4Zm-13,0h-3a2,2,0,1,1,0-4h3a2,2,0,0,1,0,4Zm-13,0h-3a2,2,0,1,1,0-4h3a2,2,0,0,1,0,4Z"/><path class="cls-8" d="M511.3,446.62h-.78a2,2,0,0,1,0-4h.78a2,2,0,0,1,0,4Zm-10.78,0h-3a2,2,0,0,1,0-4h3a2,2,0,0,1,0,4Zm-13,0h-3a2,2,0,0,1,0-4h3a2,2,0,0,1,0,4Zm-13,0h-3a2,2,0,0,1,0-4h3a2,2,0,0,1,0,4Zm-13,0h-3a2,2,0,0,1,0-4h3a2,2,0,0,1,0,4Zm-13,0h-3a2,2,0,0,1,0-4h3a2,2,0,0,1,0,4Zm-13,0h-3a2,2,0,0,1,0-4h3a2,2,0,0,1,0,4Zm-13,0h-3a2,2,0,0,1,0-4h3a2,2,0,0,1,0,4Zm-13,0h-3a2,2,0,0,1,0-4h3a2,2,0,0,1,0,4Zm-13,0h-3a2,2,0,0,1,0-4h3a2,2,0,0,1,0,4Zm-13,0h-3a2,2,0,0,1,0-4h3a2,2,0,0,1,0,4Zm-13,0h-3a2,2,0,0,1,0-4h3a2,2,0,0,1,0,4Zm-13,0h-3a2,2,0,0,1,0-4h3a2,2,0,0,1,0,4Zm-13,0h-3a2,2,0,0,1,0-4h3a2,2,0,0,1,0,4Zm-13,0h-3a2,2,0,0,1,0-4h3a2,2,0,0,1,0,4Zm-13,0h-3a2,2,0,0,1,0-4h3a2,2,0,0,1,0,4Zm-13,0h-3a2,2,0,0,1,0-4h3a2,2,0,0,1,0,4Zm-13,0h-3a2,2,0,0,1,0-4h3a2,2,0,0,1,0,4Zm-13,0h-3a2,2,0,0,1,0-4h3a2,2,0,0,1,0,4Zm-13,0h-3a2,2,0,0,1,0-4h3a2,2,0,0,1,0,4Zm-13,0h-3a2,2,0,1,1,0-4h3a2,2,0,0,1,0,4Zm-13,0h-3a2,2,0,1,1,0-4h3a2,2,0,0,1,0,4Z"/><path class="cls-8" d="M511.3,472h-.78a2,2,0,0,1,0-4h.78a2,2,0,0,1,0,4Zm-10.78,0h-3a2,2,0,0,1,0-4h3a2,2,0,0,1,0,4Zm-13,0h-3a2,2,0,0,1,0-4h3a2,2,0,0,1,0,4Zm-13,0h-3a2,2,0,0,1,0-4h3a2,2,0,0,1,0,4Zm-13,0h-3a2,2,0,0,1,0-4h3a2,2,0,0,1,0,4Zm-13,0h-3a2,2,0,0,1,0-4h3a2,2,0,0,1,0,4Zm-13,0h-3a2,2,0,0,1,0-4h3a2,2,0,0,1,0,4Zm-13,0h-3a2,2,0,0,1,0-4h3a2,2,0,0,1,0,4Zm-13,0h-3a2,2,0,0,1,0-4h3a2,2,0,0,1,0,4Zm-13,0h-3a2,2,0,0,1,0-4h3a2,2,0,0,1,0,4Zm-13,0h-3a2,2,0,0,1,0-4h3a2,2,0,0,1,0,4Zm-13,0h-3a2,2,0,0,1,0-4h3a2,2,0,0,1,0,4Zm-13,0h-3a2,2,0,0,1,0-4h3a2,2,0,0,1,0,4Zm-13,0h-3a2,2,0,0,1,0-4h3a2,2,0,0,1,0,4Zm-13,0h-3a2,2,0,0,1,0-4h3a2,2,0,0,1,0,4Zm-13,0h-3a2,2,0,0,1,0-4h3a2,2,0,0,1,0,4Zm-13,0h-3a2,2,0,0,1,0-4h3a2,2,0,0,1,0,4Zm-13,0h-3a2,2,0,0,1,0-4h3a2,2,0,0,1,0,4Zm-13,0h-3a2,2,0,0,1,0-4h3a2,2,0,0,1,0,4Zm-13,0h-3a2,2,0,0,1,0-4h3a2,2,0,0,1,0,4Zm-13,0h-3a2,2,0,1,1,0-4h3a2,2,0,0,1,0,4Zm-13,0h-3a2,2,0,1,1,0-4h3a2,2,0,0,1,0,4Z"/><path class="cls-8" d="M511.3,497.42h-.78a2,2,0,0,1,0-4h.78a2,2,0,0,1,0,4Zm-10.78,0h-3a2,2,0,0,1,0-4h3a2,2,0,0,1,0,4Zm-13,0h-3a2,2,0,0,1,0-4h3a2,2,0,0,1,0,4Zm-13,0h-3a2,2,0,0,1,0-4h3a2,2,0,0,1,0,4Zm-13,0h-3a2,2,0,0,1,0-4h3a2,2,0,0,1,0,4Zm-13,0h-3a2,2,0,0,1,0-4h3a2,2,0,0,1,0,4Zm-13,0h-3a2,2,0,0,1,0-4h3a2,2,0,0,1,0,4Zm-13,0h-3a2,2,0,0,1,0-4h3a2,2,0,0,1,0,4Zm-13,0h-3a2,2,0,0,1,0-4h3a2,2,0,0,1,0,4Zm-13,0h-3a2,2,0,0,1,0-4h3a2,2,0,0,1,0,4Zm-13,0h-3a2,2,0,0,1,0-4h3a2,2,0,0,1,0,4Zm-13,0h-3a2,2,0,0,1,0-4h3a2,2,0,0,1,0,4Zm-13,0h-3a2,2,0,0,1,0-4h3a2,2,0,0,1,0,4Zm-13,0h-3a2,2,0,0,1,0-4h3a2,2,0,0,1,0,4Zm-13,0h-3a2,2,0,0,1,0-4h3a2,2,0,0,1,0,4Zm-13,0h-3a2,2,0,0,1,0-4h3a2,2,0,0,1,0,4Zm-13,0h-3a2,2,0,0,1,0-4h3a2,2,0,0,1,0,4Zm-13,0h-3a2,2,0,0,1,0-4h3a2,2,0,0,1,0,4Zm-13,0h-3a2,2,0,0,1,0-4h3a2,2,0,0,1,0,4Zm-13,0h-3a2,2,0,0,1,0-4h3a2,2,0,0,1,0,4Zm-13,0h-3a2,2,0,0,1,0-4h3a2,2,0,1,1,0,4Zm-13,0h-3a2,2,0,0,1,0-4h3a2,2,0,1,1,0,4Z"/><path class="cls-8" d="M511.3,522.81h-.78a2,2,0,0,1,0-4h.78a2,2,0,0,1,0,4Zm-10.78,0h-3a2,2,0,0,1,0-4h3a2,2,0,0,1,0,4Zm-13,0h-3a2,2,0,0,1,0-4h3a2,2,0,0,1,0,4Zm-13,0h-3a2,2,0,0,1,0-4h3a2,2,0,0,1,0,4Zm-13,0h-3a2,2,0,0,1,0-4h3a2,2,0,0,1,0,4Zm-13,0h-3a2,2,0,0,1,0-4h3a2,2,0,0,1,0,4Zm-13,0h-3a2,2,0,0,1,0-4h3a2,2,0,0,1,0,4Zm-13,0h-3a2,2,0,0,1,0-4h3a2,2,0,0,1,0,4Zm-13,0h-3a2,2,0,0,1,0-4h3a2,2,0,0,1,0,4Zm-13,0h-3a2,2,0,0,1,0-4h3a2,2,0,0,1,0,4Zm-13,0h-3a2,2,0,0,1,0-4h3a2,2,0,0,1,0,4Zm-13,0h-3a2,2,0,0,1,0-4h3a2,2,0,0,1,0,4Zm-13,0h-3a2,2,0,0,1,0-4h3a2,2,0,0,1,0,4Zm-13,0h-3a2,2,0,0,1,0-4h3a2,2,0,0,1,0,4Zm-13,0h-3a2,2,0,0,1,0-4h3a2,2,0,0,1,0,4Zm-13,0h-3a2,2,0,0,1,0-4h3a2,2,0,0,1,0,4Zm-13,0h-3a2,2,0,0,1,0-4h3a2,2,0,0,1,0,4Zm-13,0h-3a2,2,0,0,1,0-4h3a2,2,0,0,1,0,4Zm-13,0h-3a2,2,0,0,1,0-4h3a2,2,0,0,1,0,4Zm-13,0h-3a2,2,0,0,1,0-4h3a2,2,0,0,1,0,4Zm-13,0h-3a2,2,0,1,1,0-4h3a2,2,0,0,1,0,4Zm-13,0h-3a2,2,0,1,1,0-4h3a2,2,0,0,1,0,4Z"/><path class="cls-8" d="M511.3,548.21h-.78a2,2,0,0,1,0-4h.78a2,2,0,0,1,0,4Zm-10.78,0h-3a2,2,0,0,1,0-4h3a2,2,0,0,1,0,4Zm-13,0h-3a2,2,0,0,1,0-4h3a2,2,0,0,1,0,4Zm-13,0h-3a2,2,0,0,1,0-4h3a2,2,0,0,1,0,4Zm-13,0h-3a2,2,0,0,1,0-4h3a2,2,0,0,1,0,4Zm-13,0h-3a2,2,0,0,1,0-4h3a2,2,0,0,1,0,4Zm-13,0h-3a2,2,0,0,1,0-4h3a2,2,0,0,1,0,4Zm-13,0h-3a2,2,0,0,1,0-4h3a2,2,0,0,1,0,4Zm-13,0h-3a2,2,0,0,1,0-4h3a2,2,0,0,1,0,4Zm-13,0h-3a2,2,0,0,1,0-4h3a2,2,0,0,1,0,4Zm-13,0h-3a2,2,0,0,1,0-4h3a2,2,0,0,1,0,4Zm-13,0h-3a2,2,0,0,1,0-4h3a2,2,0,0,1,0,4Zm-13,0h-3a2,2,0,0,1,0-4h3a2,2,0,0,1,0,4Zm-13,0h-3a2,2,0,0,1,0-4h3a2,2,0,0,1,0,4Zm-13,0h-3a2,2,0,0,1,0-4h3a2,2,0,0,1,0,4Zm-13,0h-3a2,2,0,0,1,0-4h3a2,2,0,0,1,0,4Zm-13,0h-3a2,2,0,0,1,0-4h3a2,2,0,0,1,0,4Zm-13,0h-3a2,2,0,0,1,0-4h3a2,2,0,0,1,0,4Zm-13,0h-3a2,2,0,0,1,0-4h3a2,2,0,0,1,0,4Zm-13,0h-3a2,2,0,0,1,0-4h3a2,2,0,0,1,0,4Zm-13,0h-3a2,2,0,1,1,0-4h3a2,2,0,0,1,0,4Zm-13,0h-3a2,2,0,1,1,0-4h3a2,2,0,0,1,0,4Z"/><path class="cls-8" d="M511.3,573.6h-.78a2,2,0,1,1,0-4h.78a2,2,0,0,1,0,4Zm-10.78,0h-3a2,2,0,1,1,0-4h3a2,2,0,0,1,0,4Zm-13,0h-3a2,2,0,1,1,0-4h3a2,2,0,0,1,0,4Zm-13,0h-3a2,2,0,1,1,0-4h3a2,2,0,0,1,0,4Zm-13,0h-3a2,2,0,1,1,0-4h3a2,2,0,0,1,0,4Zm-13,0h-3a2,2,0,0,1,0-4h3a2,2,0,0,1,0,4Zm-13,0h-3a2,2,0,0,1,0-4h3a2,2,0,0,1,0,4Zm-13,0h-3a2,2,0,0,1,0-4h3a2,2,0,0,1,0,4Zm-13,0h-3a2,2,0,0,1,0-4h3a2,2,0,0,1,0,4Zm-13,0h-3a2,2,0,0,1,0-4h3a2,2,0,0,1,0,4Zm-13,0h-3a2,2,0,0,1,0-4h3a2,2,0,0,1,0,4Zm-13,0h-3a2,2,0,0,1,0-4h3a2,2,0,0,1,0,4Zm-13,0h-3a2,2,0,0,1,0-4h3a2,2,0,0,1,0,4Zm-13,0h-3a2,2,0,0,1,0-4h3a2,2,0,0,1,0,4Zm-13,0h-3a2,2,0,0,1,0-4h3a2,2,0,0,1,0,4Zm-13,0h-3a2,2,0,0,1,0-4h3a2,2,0,0,1,0,4Zm-13,0h-3a2,2,0,0,1,0-4h3a2,2,0,0,1,0,4Zm-13,0h-3a2,2,0,0,1,0-4h3a2,2,0,0,1,0,4Zm-13,0h-3a2,2,0,0,1,0-4h3a2,2,0,0,1,0,4Zm-13,0h-3a2,2,0,0,1,0-4h3a2,2,0,0,1,0,4Zm-13,0h-3a2,2,0,1,1,0-4h3a2,2,0,0,1,0,4Zm-13,0h-3a2,2,0,1,1,0-4h3a2,2,0,0,1,0,4Z"/><path class="cls-8" d="M511.3,599h-.78a2,2,0,0,1,0-4h.78a2,2,0,0,1,0,4Zm-10.78,0h-3a2,2,0,0,1,0-4h3a2,2,0,0,1,0,4Zm-13,0h-3a2,2,0,0,1,0-4h3a2,2,0,0,1,0,4Zm-13,0h-3a2,2,0,0,1,0-4h3a2,2,0,0,1,0,4Zm-13,0h-3a2,2,0,0,1,0-4h3a2,2,0,0,1,0,4Zm-13,0h-3a2,2,0,0,1,0-4h3a2,2,0,0,1,0,4Zm-13,0h-3a2,2,0,0,1,0-4h3a2,2,0,0,1,0,4Zm-13,0h-3a2,2,0,0,1,0-4h3a2,2,0,0,1,0,4Zm-13,0h-3a2,2,0,0,1,0-4h3a2,2,0,0,1,0,4Zm-13,0h-3a2,2,0,0,1,0-4h3a2,2,0,0,1,0,4Zm-13,0h-3a2,2,0,0,1,0-4h3a2,2,0,0,1,0,4Zm-13,0h-3a2,2,0,0,1,0-4h3a2,2,0,0,1,0,4Zm-13,0h-3a2,2,0,0,1,0-4h3a2,2,0,0,1,0,4Zm-13,0h-3a2,2,0,0,1,0-4h3a2,2,0,0,1,0,4Zm-13,0h-3a2,2,0,0,1,0-4h3a2,2,0,0,1,0,4Zm-13,0h-3a2,2,0,0,1,0-4h3a2,2,0,0,1,0,4Zm-13,0h-3a2,2,0,0,1,0-4h3a2,2,0,0,1,0,4Zm-13,0h-3a2,2,0,0,1,0-4h3a2,2,0,0,1,0,4Zm-13,0h-3a2,2,0,0,1,0-4h3a2,2,0,0,1,0,4Zm-13,0h-3a2,2,0,0,1,0-4h3a2,2,0,0,1,0,4Zm-13,0h-3a2,2,0,1,1,0-4h3a2,2,0,0,1,0,4Zm-13,0h-3a2,2,0,1,1,0-4h3a2,2,0,0,1,0,4Z"/></g><rect class="cls-8" x="401" y="403" width="87" height="28" rx="11.34" transform="translate(-136.52 232.92) rotate(-25.59)"/></g><g id="body_1"><path class="cls-6" d="M292.48,216.11s-35.26,8.78-68,26c0,0-15.64,98.42-16.9,126.33s-.08,70.77,0,97.57S178.31,670.48,173,679c0,0,226.48,34.06,272-18,0,0-42.62-234.81-42.86-268.47s2.14-154.44-3.73-159S369.15,216.1,342,213.8A192.31,192.31,0,0,0,292.48,216.11Z"/><g class="cls-9"><path class="cls-8" d="M449.3,193.08h-.78a2,2,0,0,1,0-4h.78a2,2,0,0,1,0,4Zm-10.78,0h-3a2,2,0,0,1,0-4h3a2,2,0,0,1,0,4Zm-13,0h-3a2,2,0,0,1,0-4h3a2,2,0,0,1,0,4Zm-13,0h-3a2,2,0,0,1,0-4h3a2,2,0,0,1,0,4Zm-13,0h-3a2,2,0,0,1,0-4h3a2,2,0,0,1,0,4Zm-13,0h-3a2,2,0,0,1,0-4h3a2,2,0,0,1,0,4Zm-13,0h-3a2,2,0,0,1,0-4h3a2,2,0,0,1,0,4Zm-13,0h-3a2,2,0,0,1,0-4h3a2,2,0,0,1,0,4Zm-13,0h-3a2,2,0,0,1,0-4h3a2,2,0,0,1,0,4Zm-13,0h-3a2,2,0,0,1,0-4h3a2,2,0,0,1,0,4Zm-13,0h-3a2,2,0,0,1,0-4h3a2,2,0,0,1,0,4Zm-13,0h-3a2,2,0,0,1,0-4h3a2,2,0,0,1,0,4Zm-13,0h-3a2,2,0,0,1,0-4h3a2,2,0,0,1,0,4Zm-13,0h-3a2,2,0,0,1,0-4h3a2,2,0,0,1,0,4Zm-13,0h-3a2,2,0,0,1,0-4h3a2,2,0,0,1,0,4Zm-13,0h-3a2,2,0,0,1,0-4h3a2,2,0,0,1,0,4Zm-13,0h-3a2,2,0,0,1,0-4h3a2,2,0,0,1,0,4Zm-13,0h-3a2,2,0,0,1,0-4h3a2,2,0,0,1,0,4Zm-13,0h-3a2,2,0,0,1,0-4h3a2,2,0,0,1,0,4Zm-13,0h-3a2,2,0,0,1,0-4h3a2,2,0,0,1,0,4Zm-13,0h-3a2,2,0,0,1,0-4h3a2,2,0,0,1,0,4Zm-13,0h-3a2,2,0,0,1,0-4h3a2,2,0,0,1,0,4Z"/><path class="cls-8" d="M449.3,218.48h-.78a2,2,0,0,1,0-4h.78a2,2,0,0,1,0,4Zm-10.78,0h-3a2,2,0,0,1,0-4h3a2,2,0,0,1,0,4Zm-13,0h-3a2,2,0,0,1,0-4h3a2,2,0,0,1,0,4Zm-13,0h-3a2,2,0,0,1,0-4h3a2,2,0,0,1,0,4Zm-13,0h-3a2,2,0,0,1,0-4h3a2,2,0,0,1,0,4Zm-13,0h-3a2,2,0,0,1,0-4h3a2,2,0,0,1,0,4Zm-13,0h-3a2,2,0,0,1,0-4h3a2,2,0,0,1,0,4Zm-13,0h-3a2,2,0,0,1,0-4h3a2,2,0,0,1,0,4Zm-13,0h-3a2,2,0,0,1,0-4h3a2,2,0,0,1,0,4Zm-13,0h-3a2,2,0,0,1,0-4h3a2,2,0,0,1,0,4Zm-13,0h-3a2,2,0,0,1,0-4h3a2,2,0,0,1,0,4Zm-13,0h-3a2,2,0,0,1,0-4h3a2,2,0,0,1,0,4Zm-13,0h-3a2,2,0,0,1,0-4h3a2,2,0,0,1,0,4Zm-13,0h-3a2,2,0,0,1,0-4h3a2,2,0,0,1,0,4Zm-13,0h-3a2,2,0,0,1,0-4h3a2,2,0,0,1,0,4Zm-13,0h-3a2,2,0,0,1,0-4h3a2,2,0,0,1,0,4Zm-13,0h-3a2,2,0,0,1,0-4h3a2,2,0,0,1,0,4Zm-13,0h-3a2,2,0,0,1,0-4h3a2,2,0,0,1,0,4Zm-13,0h-3a2,2,0,0,1,0-4h3a2,2,0,0,1,0,4Zm-13,0h-3a2,2,0,0,1,0-4h3a2,2,0,0,1,0,4Zm-13,0h-3a2,2,0,0,1,0-4h3a2,2,0,0,1,0,4Zm-13,0h-3a2,2,0,0,1,0-4h3a2,2,0,0,1,0,4Z"/><path class="cls-8" d="M449.3,243.88h-.78a2,2,0,0,1,0-4h.78a2,2,0,1,1,0,4Zm-10.78,0h-3a2,2,0,0,1,0-4h3a2,2,0,0,1,0,4Zm-13,0h-3a2,2,0,0,1,0-4h3a2,2,0,0,1,0,4Zm-13,0h-3a2,2,0,0,1,0-4h3a2,2,0,0,1,0,4Zm-13,0h-3a2,2,0,0,1,0-4h3a2,2,0,0,1,0,4Zm-13,0h-3a2,2,0,0,1,0-4h3a2,2,0,0,1,0,4Zm-13,0h-3a2,2,0,0,1,0-4h3a2,2,0,0,1,0,4Zm-13,0h-3a2,2,0,0,1,0-4h3a2,2,0,0,1,0,4Zm-13,0h-3a2,2,0,0,1,0-4h3a2,2,0,0,1,0,4Zm-13,0h-3a2,2,0,0,1,0-4h3a2,2,0,0,1,0,4Zm-13,0h-3a2,2,0,0,1,0-4h3a2,2,0,0,1,0,4Zm-13,0h-3a2,2,0,0,1,0-4h3a2,2,0,0,1,0,4Zm-13,0h-3a2,2,0,0,1,0-4h3a2,2,0,0,1,0,4Zm-13,0h-3a2,2,0,0,1,0-4h3a2,2,0,0,1,0,4Zm-13,0h-3a2,2,0,0,1,0-4h3a2,2,0,0,1,0,4Zm-13,0h-3a2,2,0,1,1,0-4h3a2,2,0,0,1,0,4Zm-13,0h-3a2,2,0,1,1,0-4h3a2,2,0,0,1,0,4Zm-13,0h-3a2,2,0,1,1,0-4h3a2,2,0,0,1,0,4Zm-13,0h-3a2,2,0,1,1,0-4h3a2,2,0,0,1,0,4Zm-13,0h-3a2,2,0,1,1,0-4h3a2,2,0,0,1,0,4Zm-13,0h-3a2,2,0,1,1,0-4h3a2,2,0,0,1,0,4Zm-13,0h-3a2,2,0,1,1,0-4h3a2,2,0,0,1,0,4Z"/><path class="cls-8" d="M449.3,269.27h-.78a2,2,0,0,1,0-4h.78a2,2,0,0,1,0,4Zm-10.78,0h-3a2,2,0,0,1,0-4h3a2,2,0,0,1,0,4Zm-13,0h-3a2,2,0,0,1,0-4h3a2,2,0,0,1,0,4Zm-13,0h-3a2,2,0,0,1,0-4h3a2,2,0,0,1,0,4Zm-13,0h-3a2,2,0,0,1,0-4h3a2,2,0,0,1,0,4Zm-13,0h-3a2,2,0,0,1,0-4h3a2,2,0,0,1,0,4Zm-13,0h-3a2,2,0,0,1,0-4h3a2,2,0,0,1,0,4Zm-13,0h-3a2,2,0,0,1,0-4h3a2,2,0,0,1,0,4Zm-13,0h-3a2,2,0,0,1,0-4h3a2,2,0,0,1,0,4Zm-13,0h-3a2,2,0,0,1,0-4h3a2,2,0,0,1,0,4Zm-13,0h-3a2,2,0,0,1,0-4h3a2,2,0,0,1,0,4Zm-13,0h-3a2,2,0,0,1,0-4h3a2,2,0,0,1,0,4Zm-13,0h-3a2,2,0,0,1,0-4h3a2,2,0,0,1,0,4Zm-13,0h-3a2,2,0,0,1,0-4h3a2,2,0,0,1,0,4Zm-13,0h-3a2,2,0,0,1,0-4h3a2,2,0,0,1,0,4Zm-13,0h-3a2,2,0,1,1,0-4h3a2,2,0,0,1,0,4Zm-13,0h-3a2,2,0,1,1,0-4h3a2,2,0,0,1,0,4Zm-13,0h-3a2,2,0,1,1,0-4h3a2,2,0,0,1,0,4Zm-13,0h-3a2,2,0,1,1,0-4h3a2,2,0,0,1,0,4Zm-13,0h-3a2,2,0,1,1,0-4h3a2,2,0,0,1,0,4Zm-13,0h-3a2,2,0,1,1,0-4h3a2,2,0,0,1,0,4Zm-13,0h-3a2,2,0,1,1,0-4h3a2,2,0,0,1,0,4Z"/><path class="cls-8" d="M449.3,294.67h-.78a2,2,0,0,1,0-4h.78a2,2,0,0,1,0,4Zm-10.78,0h-3a2,2,0,0,1,0-4h3a2,2,0,0,1,0,4Zm-13,0h-3a2,2,0,0,1,0-4h3a2,2,0,0,1,0,4Zm-13,0h-3a2,2,0,0,1,0-4h3a2,2,0,0,1,0,4Zm-13,0h-3a2,2,0,0,1,0-4h3a2,2,0,0,1,0,4Zm-13,0h-3a2,2,0,0,1,0-4h3a2,2,0,0,1,0,4Zm-13,0h-3a2,2,0,0,1,0-4h3a2,2,0,0,1,0,4Zm-13,0h-3a2,2,0,0,1,0-4h3a2,2,0,0,1,0,4Zm-13,0h-3a2,2,0,0,1,0-4h3a2,2,0,0,1,0,4Zm-13,0h-3a2,2,0,0,1,0-4h3a2,2,0,0,1,0,4Zm-13,0h-3a2,2,0,0,1,0-4h3a2,2,0,0,1,0,4Zm-13,0h-3a2,2,0,0,1,0-4h3a2,2,0,0,1,0,4Zm-13,0h-3a2,2,0,0,1,0-4h3a2,2,0,0,1,0,4Zm-13,0h-3a2,2,0,0,1,0-4h3a2,2,0,0,1,0,4Zm-13,0h-3a2,2,0,0,1,0-4h3a2,2,0,0,1,0,4Zm-13,0h-3a2,2,0,0,1,0-4h3a2,2,0,0,1,0,4Zm-13,0h-3a2,2,0,0,1,0-4h3a2,2,0,1,1,0,4Zm-13,0h-3a2,2,0,0,1,0-4h3a2,2,0,1,1,0,4Zm-13,0h-3a2,2,0,0,1,0-4h3a2,2,0,1,1,0,4Zm-13,0h-3a2,2,0,0,1,0-4h3a2,2,0,1,1,0,4Zm-13,0h-3a2,2,0,0,1,0-4h3a2,2,0,1,1,0,4Zm-13,0h-3a2,2,0,0,1,0-4h3a2,2,0,1,1,0,4Z"/><path class="cls-8" d="M449.3,320.06h-.78a2,2,0,0,1,0-4h.78a2,2,0,0,1,0,4Zm-10.78,0h-3a2,2,0,0,1,0-4h3a2,2,0,0,1,0,4Zm-13,0h-3a2,2,0,0,1,0-4h3a2,2,0,0,1,0,4Zm-13,0h-3a2,2,0,0,1,0-4h3a2,2,0,0,1,0,4Zm-13,0h-3a2,2,0,0,1,0-4h3a2,2,0,0,1,0,4Zm-13,0h-3a2,2,0,0,1,0-4h3a2,2,0,0,1,0,4Zm-13,0h-3a2,2,0,0,1,0-4h3a2,2,0,0,1,0,4Zm-13,0h-3a2,2,0,0,1,0-4h3a2,2,0,0,1,0,4Zm-13,0h-3a2,2,0,0,1,0-4h3a2,2,0,0,1,0,4Zm-13,0h-3a2,2,0,0,1,0-4h3a2,2,0,0,1,0,4Zm-13,0h-3a2,2,0,0,1,0-4h3a2,2,0,0,1,0,4Zm-13,0h-3a2,2,0,0,1,0-4h3a2,2,0,0,1,0,4Zm-13,0h-3a2,2,0,0,1,0-4h3a2,2,0,0,1,0,4Zm-13,0h-3a2,2,0,0,1,0-4h3a2,2,0,0,1,0,4Zm-13,0h-3a2,2,0,0,1,0-4h3a2,2,0,0,1,0,4Zm-13,0h-3a2,2,0,0,1,0-4h3a2,2,0,0,1,0,4Zm-13,0h-3a2,2,0,0,1,0-4h3a2,2,0,1,1,0,4Zm-13,0h-3a2,2,0,0,1,0-4h3a2,2,0,1,1,0,4Zm-13,0h-3a2,2,0,0,1,0-4h3a2,2,0,1,1,0,4Zm-13,0h-3a2,2,0,0,1,0-4h3a2,2,0,1,1,0,4Zm-13,0h-3a2,2,0,0,1,0-4h3a2,2,0,1,1,0,4Zm-13,0h-3a2,2,0,0,1,0-4h3a2,2,0,1,1,0,4Z"/><path class="cls-8" d="M449.3,345.46h-.78a2,2,0,0,1,0-4h.78a2,2,0,0,1,0,4Zm-10.78,0h-3a2,2,0,0,1,0-4h3a2,2,0,0,1,0,4Zm-13,0h-3a2,2,0,0,1,0-4h3a2,2,0,0,1,0,4Zm-13,0h-3a2,2,0,0,1,0-4h3a2,2,0,0,1,0,4Zm-13,0h-3a2,2,0,0,1,0-4h3a2,2,0,0,1,0,4Zm-13,0h-3a2,2,0,0,1,0-4h3a2,2,0,0,1,0,4Zm-13,0h-3a2,2,0,0,1,0-4h3a2,2,0,0,1,0,4Zm-13,0h-3a2,2,0,0,1,0-4h3a2,2,0,0,1,0,4Zm-13,0h-3a2,2,0,0,1,0-4h3a2,2,0,0,1,0,4Zm-13,0h-3a2,2,0,0,1,0-4h3a2,2,0,0,1,0,4Zm-13,0h-3a2,2,0,0,1,0-4h3a2,2,0,0,1,0,4Zm-13,0h-3a2,2,0,0,1,0-4h3a2,2,0,0,1,0,4Zm-13,0h-3a2,2,0,0,1,0-4h3a2,2,0,0,1,0,4Zm-13,0h-3a2,2,0,0,1,0-4h3a2,2,0,0,1,0,4Zm-13,0h-3a2,2,0,0,1,0-4h3a2,2,0,0,1,0,4Zm-13,0h-3a2,2,0,0,1,0-4h3a2,2,0,0,1,0,4Zm-13,0h-3a2,2,0,0,1,0-4h3a2,2,0,1,1,0,4Zm-13,0h-3a2,2,0,0,1,0-4h3a2,2,0,1,1,0,4Zm-13,0h-3a2,2,0,0,1,0-4h3a2,2,0,1,1,0,4Zm-13,0h-3a2,2,0,0,1,0-4h3a2,2,0,1,1,0,4Zm-13,0h-3a2,2,0,0,1,0-4h3a2,2,0,1,1,0,4Zm-13,0h-3a2,2,0,0,1,0-4h3a2,2,0,1,1,0,4Z"/><path class="cls-8" d="M449.3,370.86h-.78a2,2,0,0,1,0-4h.78a2,2,0,1,1,0,4Zm-10.78,0h-3a2,2,0,0,1,0-4h3a2,2,0,0,1,0,4Zm-13,0h-3a2,2,0,0,1,0-4h3a2,2,0,0,1,0,4Zm-13,0h-3a2,2,0,0,1,0-4h3a2,2,0,0,1,0,4Zm-13,0h-3a2,2,0,0,1,0-4h3a2,2,0,0,1,0,4Zm-13,0h-3a2,2,0,0,1,0-4h3a2,2,0,0,1,0,4Zm-13,0h-3a2,2,0,0,1,0-4h3a2,2,0,0,1,0,4Zm-13,0h-3a2,2,0,0,1,0-4h3a2,2,0,0,1,0,4Zm-13,0h-3a2,2,0,0,1,0-4h3a2,2,0,0,1,0,4Zm-13,0h-3a2,2,0,0,1,0-4h3a2,2,0,0,1,0,4Zm-13,0h-3a2,2,0,0,1,0-4h3a2,2,0,0,1,0,4Zm-13,0h-3a2,2,0,0,1,0-4h3a2,2,0,0,1,0,4Zm-13,0h-3a2,2,0,0,1,0-4h3a2,2,0,0,1,0,4Zm-13,0h-3a2,2,0,0,1,0-4h3a2,2,0,0,1,0,4Zm-13,0h-3a2,2,0,0,1,0-4h3a2,2,0,0,1,0,4Zm-13,0h-3a2,2,0,1,1,0-4h3a2,2,0,0,1,0,4Zm-13,0h-3a2,2,0,1,1,0-4h3a2,2,0,0,1,0,4Zm-13,0h-3a2,2,0,1,1,0-4h3a2,2,0,0,1,0,4Zm-13,0h-3a2,2,0,1,1,0-4h3a2,2,0,0,1,0,4Zm-13,0h-3a2,2,0,1,1,0-4h3a2,2,0,0,1,0,4Zm-13,0h-3a2,2,0,1,1,0-4h3a2,2,0,0,1,0,4Zm-13,0h-3a2,2,0,1,1,0-4h3a2,2,0,0,1,0,4Z"/><path class="cls-8" d="M449.3,396.25h-.78a2,2,0,0,1,0-4h.78a2,2,0,0,1,0,4Zm-10.78,0h-3a2,2,0,0,1,0-4h3a2,2,0,0,1,0,4Zm-13,0h-3a2,2,0,0,1,0-4h3a2,2,0,0,1,0,4Zm-13,0h-3a2,2,0,0,1,0-4h3a2,2,0,0,1,0,4Zm-13,0h-3a2,2,0,0,1,0-4h3a2,2,0,0,1,0,4Zm-13,0h-3a2,2,0,0,1,0-4h3a2,2,0,0,1,0,4Zm-13,0h-3a2,2,0,0,1,0-4h3a2,2,0,0,1,0,4Zm-13,0h-3a2,2,0,0,1,0-4h3a2,2,0,0,1,0,4Zm-13,0h-3a2,2,0,0,1,0-4h3a2,2,0,0,1,0,4Zm-13,0h-3a2,2,0,0,1,0-4h3a2,2,0,0,1,0,4Zm-13,0h-3a2,2,0,0,1,0-4h3a2,2,0,0,1,0,4Zm-13,0h-3a2,2,0,0,1,0-4h3a2,2,0,0,1,0,4Zm-13,0h-3a2,2,0,0,1,0-4h3a2,2,0,0,1,0,4Zm-13,0h-3a2,2,0,0,1,0-4h3a2,2,0,0,1,0,4Zm-13,0h-3a2,2,0,0,1,0-4h3a2,2,0,0,1,0,4Zm-13,0h-3a2,2,0,1,1,0-4h3a2,2,0,0,1,0,4Zm-13,0h-3a2,2,0,1,1,0-4h3a2,2,0,0,1,0,4Zm-13,0h-3a2,2,0,1,1,0-4h3a2,2,0,0,1,0,4Zm-13,0h-3a2,2,0,1,1,0-4h3a2,2,0,0,1,0,4Zm-13,0h-3a2,2,0,1,1,0-4h3a2,2,0,0,1,0,4Zm-13,0h-3a2,2,0,1,1,0-4h3a2,2,0,0,1,0,4Zm-13,0h-3a2,2,0,1,1,0-4h3a2,2,0,0,1,0,4Z"/><path class="cls-8" d="M449.3,421.65h-.78a2,2,0,0,1,0-4h.78a2,2,0,1,1,0,4Zm-10.78,0h-3a2,2,0,0,1,0-4h3a2,2,0,0,1,0,4Zm-13,0h-3a2,2,0,0,1,0-4h3a2,2,0,0,1,0,4Zm-13,0h-3a2,2,0,0,1,0-4h3a2,2,0,0,1,0,4Zm-13,0h-3a2,2,0,0,1,0-4h3a2,2,0,0,1,0,4Zm-13,0h-3a2,2,0,0,1,0-4h3a2,2,0,0,1,0,4Zm-13,0h-3a2,2,0,0,1,0-4h3a2,2,0,0,1,0,4Zm-13,0h-3a2,2,0,0,1,0-4h3a2,2,0,0,1,0,4Zm-13,0h-3a2,2,0,0,1,0-4h3a2,2,0,0,1,0,4Zm-13,0h-3a2,2,0,0,1,0-4h3a2,2,0,0,1,0,4Zm-13,0h-3a2,2,0,0,1,0-4h3a2,2,0,0,1,0,4Zm-13,0h-3a2,2,0,0,1,0-4h3a2,2,0,0,1,0,4Zm-13,0h-3a2,2,0,0,1,0-4h3a2,2,0,0,1,0,4Zm-13,0h-3a2,2,0,0,1,0-4h3a2,2,0,0,1,0,4Zm-13,0h-3a2,2,0,0,1,0-4h3a2,2,0,0,1,0,4Zm-13,0h-3a2,2,0,1,1,0-4h3a2,2,0,0,1,0,4Zm-13,0h-3a2,2,0,1,1,0-4h3a2,2,0,0,1,0,4Zm-13,0h-3a2,2,0,1,1,0-4h3a2,2,0,0,1,0,4Zm-13,0h-3a2,2,0,1,1,0-4h3a2,2,0,0,1,0,4Zm-13,0h-3a2,2,0,1,1,0-4h3a2,2,0,0,1,0,4Zm-13,0h-3a2,2,0,1,1,0-4h3a2,2,0,0,1,0,4Zm-13,0h-3a2,2,0,1,1,0-4h3a2,2,0,0,1,0,4Z"/><path class="cls-8" d="M449.3,447h-.78a2,2,0,0,1,0-4h.78a2,2,0,0,1,0,4Zm-10.78,0h-3a2,2,0,0,1,0-4h3a2,2,0,0,1,0,4Zm-13,0h-3a2,2,0,0,1,0-4h3a2,2,0,0,1,0,4Zm-13,0h-3a2,2,0,0,1,0-4h3a2,2,0,0,1,0,4Zm-13,0h-3a2,2,0,0,1,0-4h3a2,2,0,0,1,0,4Zm-13,0h-3a2,2,0,0,1,0-4h3a2,2,0,0,1,0,4Zm-13,0h-3a2,2,0,0,1,0-4h3a2,2,0,0,1,0,4Zm-13,0h-3a2,2,0,0,1,0-4h3a2,2,0,0,1,0,4Zm-13,0h-3a2,2,0,0,1,0-4h3a2,2,0,0,1,0,4Zm-13,0h-3a2,2,0,0,1,0-4h3a2,2,0,0,1,0,4Zm-13,0h-3a2,2,0,0,1,0-4h3a2,2,0,0,1,0,4Zm-13,0h-3a2,2,0,0,1,0-4h3a2,2,0,0,1,0,4Zm-13,0h-3a2,2,0,0,1,0-4h3a2,2,0,0,1,0,4Zm-13,0h-3a2,2,0,0,1,0-4h3a2,2,0,0,1,0,4Zm-13,0h-3a2,2,0,0,1,0-4h3a2,2,0,0,1,0,4Zm-13,0h-3a2,2,0,0,1,0-4h3a2,2,0,0,1,0,4Zm-13,0h-3a2,2,0,0,1,0-4h3a2,2,0,1,1,0,4Zm-13,0h-3a2,2,0,0,1,0-4h3a2,2,0,1,1,0,4Zm-13,0h-3a2,2,0,0,1,0-4h3a2,2,0,1,1,0,4Zm-13,0h-3a2,2,0,0,1,0-4h3a2,2,0,1,1,0,4Zm-13,0h-3a2,2,0,0,1,0-4h3a2,2,0,1,1,0,4Zm-13,0h-3a2,2,0,0,1,0-4h3a2,2,0,1,1,0,4Z"/><path class="cls-8" d="M449.3,472.44h-.78a2,2,0,0,1,0-4h.78a2,2,0,0,1,0,4Zm-10.78,0h-3a2,2,0,0,1,0-4h3a2,2,0,0,1,0,4Zm-13,0h-3a2,2,0,0,1,0-4h3a2,2,0,0,1,0,4Zm-13,0h-3a2,2,0,0,1,0-4h3a2,2,0,0,1,0,4Zm-13,0h-3a2,2,0,0,1,0-4h3a2,2,0,0,1,0,4Zm-13,0h-3a2,2,0,0,1,0-4h3a2,2,0,0,1,0,4Zm-13,0h-3a2,2,0,0,1,0-4h3a2,2,0,0,1,0,4Zm-13,0h-3a2,2,0,0,1,0-4h3a2,2,0,0,1,0,4Zm-13,0h-3a2,2,0,0,1,0-4h3a2,2,0,0,1,0,4Zm-13,0h-3a2,2,0,0,1,0-4h3a2,2,0,0,1,0,4Zm-13,0h-3a2,2,0,0,1,0-4h3a2,2,0,0,1,0,4Zm-13,0h-3a2,2,0,0,1,0-4h3a2,2,0,0,1,0,4Zm-13,0h-3a2,2,0,0,1,0-4h3a2,2,0,0,1,0,4Zm-13,0h-3a2,2,0,0,1,0-4h3a2,2,0,0,1,0,4Zm-13,0h-3a2,2,0,0,1,0-4h3a2,2,0,0,1,0,4Zm-13,0h-3a2,2,0,0,1,0-4h3a2,2,0,0,1,0,4Zm-13,0h-3a2,2,0,0,1,0-4h3a2,2,0,1,1,0,4Zm-13,0h-3a2,2,0,0,1,0-4h3a2,2,0,1,1,0,4Zm-13,0h-3a2,2,0,0,1,0-4h3a2,2,0,1,1,0,4Zm-13,0h-3a2,2,0,0,1,0-4h3a2,2,0,1,1,0,4Zm-13,0h-3a2,2,0,0,1,0-4h3a2,2,0,1,1,0,4Zm-13,0h-3a2,2,0,0,1,0-4h3a2,2,0,1,1,0,4Z"/><path class="cls-8" d="M449.3,497.83h-.78a2,2,0,0,1,0-4h.78a2,2,0,0,1,0,4Zm-10.78,0h-3a2,2,0,0,1,0-4h3a2,2,0,0,1,0,4Zm-13,0h-3a2,2,0,0,1,0-4h3a2,2,0,0,1,0,4Zm-13,0h-3a2,2,0,0,1,0-4h3a2,2,0,0,1,0,4Zm-13,0h-3a2,2,0,0,1,0-4h3a2,2,0,0,1,0,4Zm-13,0h-3a2,2,0,0,1,0-4h3a2,2,0,0,1,0,4Zm-13,0h-3a2,2,0,0,1,0-4h3a2,2,0,0,1,0,4Zm-13,0h-3a2,2,0,0,1,0-4h3a2,2,0,0,1,0,4Zm-13,0h-3a2,2,0,0,1,0-4h3a2,2,0,0,1,0,4Zm-13,0h-3a2,2,0,0,1,0-4h3a2,2,0,0,1,0,4Zm-13,0h-3a2,2,0,0,1,0-4h3a2,2,0,0,1,0,4Zm-13,0h-3a2,2,0,0,1,0-4h3a2,2,0,0,1,0,4Zm-13,0h-3a2,2,0,0,1,0-4h3a2,2,0,0,1,0,4Zm-13,0h-3a2,2,0,0,1,0-4h3a2,2,0,0,1,0,4Zm-13,0h-3a2,2,0,0,1,0-4h3a2,2,0,0,1,0,4Zm-13,0h-3a2,2,0,0,1,0-4h3a2,2,0,0,1,0,4Zm-13,0h-3a2,2,0,0,1,0-4h3a2,2,0,1,1,0,4Zm-13,0h-3a2,2,0,0,1,0-4h3a2,2,0,1,1,0,4Zm-13,0h-3a2,2,0,0,1,0-4h3a2,2,0,1,1,0,4Zm-13,0h-3a2,2,0,0,1,0-4h3a2,2,0,1,1,0,4Zm-13,0h-3a2,2,0,0,1,0-4h3a2,2,0,1,1,0,4Zm-13,0h-3a2,2,0,0,1,0-4h3a2,2,0,1,1,0,4Z"/><path class="cls-8" d="M449.3,523.23h-.78a2,2,0,0,1,0-4h.78a2,2,0,0,1,0,4Zm-10.78,0h-3a2,2,0,0,1,0-4h3a2,2,0,0,1,0,4Zm-13,0h-3a2,2,0,0,1,0-4h3a2,2,0,0,1,0,4Zm-13,0h-3a2,2,0,0,1,0-4h3a2,2,0,0,1,0,4Zm-13,0h-3a2,2,0,0,1,0-4h3a2,2,0,0,1,0,4Zm-13,0h-3a2,2,0,0,1,0-4h3a2,2,0,0,1,0,4Zm-13,0h-3a2,2,0,0,1,0-4h3a2,2,0,0,1,0,4Zm-13,0h-3a2,2,0,0,1,0-4h3a2,2,0,0,1,0,4Zm-13,0h-3a2,2,0,0,1,0-4h3a2,2,0,0,1,0,4Zm-13,0h-3a2,2,0,0,1,0-4h3a2,2,0,0,1,0,4Zm-13,0h-3a2,2,0,0,1,0-4h3a2,2,0,0,1,0,4Zm-13,0h-3a2,2,0,0,1,0-4h3a2,2,0,0,1,0,4Zm-13,0h-3a2,2,0,0,1,0-4h3a2,2,0,0,1,0,4Zm-13,0h-3a2,2,0,0,1,0-4h3a2,2,0,0,1,0,4Zm-13,0h-3a2,2,0,0,1,0-4h3a2,2,0,0,1,0,4Zm-13,0h-3a2,2,0,1,1,0-4h3a2,2,0,0,1,0,4Zm-13,0h-3a2,2,0,1,1,0-4h3a2,2,0,0,1,0,4Zm-13,0h-3a2,2,0,1,1,0-4h3a2,2,0,0,1,0,4Zm-13,0h-3a2,2,0,1,1,0-4h3a2,2,0,0,1,0,4Zm-13,0h-3a2,2,0,1,1,0-4h3a2,2,0,0,1,0,4Zm-13,0h-3a2,2,0,1,1,0-4h3a2,2,0,0,1,0,4Zm-13,0h-3a2,2,0,1,1,0-4h3a2,2,0,0,1,0,4Z"/><path class="cls-8" d="M449.3,548.62h-.78a2,2,0,0,1,0-4h.78a2,2,0,1,1,0,4Zm-10.78,0h-3a2,2,0,0,1,0-4h3a2,2,0,0,1,0,4Zm-13,0h-3a2,2,0,0,1,0-4h3a2,2,0,0,1,0,4Zm-13,0h-3a2,2,0,0,1,0-4h3a2,2,0,0,1,0,4Zm-13,0h-3a2,2,0,0,1,0-4h3a2,2,0,0,1,0,4Zm-13,0h-3a2,2,0,0,1,0-4h3a2,2,0,0,1,0,4Zm-13,0h-3a2,2,0,0,1,0-4h3a2,2,0,0,1,0,4Zm-13,0h-3a2,2,0,0,1,0-4h3a2,2,0,0,1,0,4Zm-13,0h-3a2,2,0,0,1,0-4h3a2,2,0,0,1,0,4Zm-13,0h-3a2,2,0,0,1,0-4h3a2,2,0,0,1,0,4Zm-13,0h-3a2,2,0,0,1,0-4h3a2,2,0,0,1,0,4Zm-13,0h-3a2,2,0,0,1,0-4h3a2,2,0,0,1,0,4Zm-13,0h-3a2,2,0,0,1,0-4h3a2,2,0,0,1,0,4Zm-13,0h-3a2,2,0,0,1,0-4h3a2,2,0,0,1,0,4Zm-13,0h-3a2,2,0,0,1,0-4h3a2,2,0,0,1,0,4Zm-13,0h-3a2,2,0,1,1,0-4h3a2,2,0,0,1,0,4Zm-13,0h-3a2,2,0,1,1,0-4h3a2,2,0,0,1,0,4Zm-13,0h-3a2,2,0,1,1,0-4h3a2,2,0,0,1,0,4Zm-13,0h-3a2,2,0,1,1,0-4h3a2,2,0,0,1,0,4Zm-13,0h-3a2,2,0,1,1,0-4h3a2,2,0,0,1,0,4Zm-13,0h-3a2,2,0,1,1,0-4h3a2,2,0,0,1,0,4Zm-13,0h-3a2,2,0,1,1,0-4h3a2,2,0,0,1,0,4Z"/><path class="cls-8" d="M449.3,574h-.78a2,2,0,0,1,0-4h.78a2,2,0,0,1,0,4Zm-10.78,0h-3a2,2,0,0,1,0-4h3a2,2,0,0,1,0,4Zm-13,0h-3a2,2,0,0,1,0-4h3a2,2,0,0,1,0,4Zm-13,0h-3a2,2,0,0,1,0-4h3a2,2,0,0,1,0,4Zm-13,0h-3a2,2,0,0,1,0-4h3a2,2,0,0,1,0,4Zm-13,0h-3a2,2,0,0,1,0-4h3a2,2,0,0,1,0,4Zm-13,0h-3a2,2,0,0,1,0-4h3a2,2,0,0,1,0,4Zm-13,0h-3a2,2,0,0,1,0-4h3a2,2,0,0,1,0,4Zm-13,0h-3a2,2,0,0,1,0-4h3a2,2,0,0,1,0,4Zm-13,0h-3a2,2,0,0,1,0-4h3a2,2,0,0,1,0,4Zm-13,0h-3a2,2,0,0,1,0-4h3a2,2,0,0,1,0,4Zm-13,0h-3a2,2,0,0,1,0-4h3a2,2,0,0,1,0,4Zm-13,0h-3a2,2,0,0,1,0-4h3a2,2,0,0,1,0,4Zm-13,0h-3a2,2,0,0,1,0-4h3a2,2,0,0,1,0,4Zm-13,0h-3a2,2,0,0,1,0-4h3a2,2,0,0,1,0,4Zm-13,0h-3a2,2,0,1,1,0-4h3a2,2,0,0,1,0,4Zm-13,0h-3a2,2,0,1,1,0-4h3a2,2,0,0,1,0,4Zm-13,0h-3a2,2,0,1,1,0-4h3a2,2,0,0,1,0,4Zm-13,0h-3a2,2,0,1,1,0-4h3a2,2,0,0,1,0,4Zm-13,0h-3a2,2,0,1,1,0-4h3a2,2,0,0,1,0,4Zm-13,0h-3a2,2,0,1,1,0-4h3a2,2,0,0,1,0,4Zm-13,0h-3a2,2,0,1,1,0-4h3a2,2,0,0,1,0,4Z"/><path class="cls-8" d="M449.3,599.42h-.78a2,2,0,0,1,0-4h.78a2,2,0,1,1,0,4Zm-10.78,0h-3a2,2,0,0,1,0-4h3a2,2,0,1,1,0,4Zm-13,0h-3a2,2,0,0,1,0-4h3a2,2,0,0,1,0,4Zm-13,0h-3a2,2,0,0,1,0-4h3a2,2,0,0,1,0,4Zm-13,0h-3a2,2,0,0,1,0-4h3a2,2,0,0,1,0,4Zm-13,0h-3a2,2,0,0,1,0-4h3a2,2,0,0,1,0,4Zm-13,0h-3a2,2,0,0,1,0-4h3a2,2,0,0,1,0,4Zm-13,0h-3a2,2,0,0,1,0-4h3a2,2,0,0,1,0,4Zm-13,0h-3a2,2,0,0,1,0-4h3a2,2,0,0,1,0,4Zm-13,0h-3a2,2,0,0,1,0-4h3a2,2,0,0,1,0,4Zm-13,0h-3a2,2,0,0,1,0-4h3a2,2,0,0,1,0,4Zm-13,0h-3a2,2,0,0,1,0-4h3a2,2,0,0,1,0,4Zm-13,0h-3a2,2,0,0,1,0-4h3a2,2,0,0,1,0,4Zm-13,0h-3a2,2,0,0,1,0-4h3a2,2,0,0,1,0,4Zm-13,0h-3a2,2,0,0,1,0-4h3a2,2,0,0,1,0,4Zm-13,0h-3a2,2,0,1,1,0-4h3a2,2,0,0,1,0,4Zm-13,0h-3a2,2,0,1,1,0-4h3a2,2,0,0,1,0,4Zm-13,0h-3a2,2,0,1,1,0-4h3a2,2,0,0,1,0,4Zm-13,0h-3a2,2,0,1,1,0-4h3a2,2,0,0,1,0,4Zm-13,0h-3a2,2,0,1,1,0-4h3a2,2,0,0,1,0,4Zm-13,0h-3a2,2,0,1,1,0-4h3a2,2,0,0,1,0,4Zm-13,0h-3a2,2,0,1,1,0-4h3a2,2,0,0,1,0,4Z"/><path class="cls-8" d="M449.3,624.81h-.78a2,2,0,0,1,0-4h.78a2,2,0,0,1,0,4Zm-10.78,0h-3a2,2,0,0,1,0-4h3a2,2,0,0,1,0,4Zm-13,0h-3a2,2,0,0,1,0-4h3a2,2,0,0,1,0,4Zm-13,0h-3a2,2,0,0,1,0-4h3a2,2,0,0,1,0,4Zm-13,0h-3a2,2,0,0,1,0-4h3a2,2,0,0,1,0,4Zm-13,0h-3a2,2,0,0,1,0-4h3a2,2,0,0,1,0,4Zm-13,0h-3a2,2,0,0,1,0-4h3a2,2,0,0,1,0,4Zm-13,0h-3a2,2,0,0,1,0-4h3a2,2,0,0,1,0,4Zm-13,0h-3a2,2,0,0,1,0-4h3a2,2,0,0,1,0,4Zm-13,0h-3a2,2,0,0,1,0-4h3a2,2,0,0,1,0,4Zm-13,0h-3a2,2,0,0,1,0-4h3a2,2,0,0,1,0,4Zm-13,0h-3a2,2,0,0,1,0-4h3a2,2,0,0,1,0,4Zm-13,0h-3a2,2,0,0,1,0-4h3a2,2,0,0,1,0,4Zm-13,0h-3a2,2,0,0,1,0-4h3a2,2,0,0,1,0,4Zm-13,0h-3a2,2,0,0,1,0-4h3a2,2,0,0,1,0,4Zm-13,0h-3a2,2,0,1,1,0-4h3a2,2,0,0,1,0,4Zm-13,0h-3a2,2,0,1,1,0-4h3a2,2,0,0,1,0,4Zm-13,0h-3a2,2,0,1,1,0-4h3a2,2,0,0,1,0,4Zm-13,0h-3a2,2,0,1,1,0-4h3a2,2,0,0,1,0,4Zm-13,0h-3a2,2,0,1,1,0-4h3a2,2,0,0,1,0,4Zm-13,0h-3a2,2,0,1,1,0-4h3a2,2,0,0,1,0,4Zm-13,0h-3a2,2,0,1,1,0-4h3a2,2,0,0,1,0,4Z"/><path class="cls-8" d="M449.3,650.21h-.78a2,2,0,0,1,0-4h.78a2,2,0,0,1,0,4Zm-10.78,0h-3a2,2,0,0,1,0-4h3a2,2,0,0,1,0,4Zm-13,0h-3a2,2,0,0,1,0-4h3a2,2,0,0,1,0,4Zm-13,0h-3a2,2,0,0,1,0-4h3a2,2,0,0,1,0,4Zm-13,0h-3a2,2,0,0,1,0-4h3a2,2,0,0,1,0,4Zm-13,0h-3a2,2,0,0,1,0-4h3a2,2,0,0,1,0,4Zm-13,0h-3a2,2,0,0,1,0-4h3a2,2,0,0,1,0,4Zm-13,0h-3a2,2,0,0,1,0-4h3a2,2,0,0,1,0,4Zm-13,0h-3a2,2,0,0,1,0-4h3a2,2,0,0,1,0,4Zm-13,0h-3a2,2,0,0,1,0-4h3a2,2,0,0,1,0,4Zm-13,0h-3a2,2,0,0,1,0-4h3a2,2,0,0,1,0,4Zm-13,0h-3a2,2,0,0,1,0-4h3a2,2,0,0,1,0,4Zm-13,0h-3a2,2,0,0,1,0-4h3a2,2,0,0,1,0,4Zm-13,0h-3a2,2,0,0,1,0-4h3a2,2,0,0,1,0,4Zm-13,0h-3a2,2,0,0,1,0-4h3a2,2,0,0,1,0,4Zm-13,0h-3a2,2,0,1,1,0-4h3a2,2,0,0,1,0,4Zm-13,0h-3a2,2,0,1,1,0-4h3a2,2,0,0,1,0,4Zm-13,0h-3a2,2,0,1,1,0-4h3a2,2,0,0,1,0,4Zm-13,0h-3a2,2,0,1,1,0-4h3a2,2,0,0,1,0,4Zm-13,0h-3a2,2,0,1,1,0-4h3a2,2,0,0,1,0,4Zm-13,0h-3a2,2,0,1,1,0-4h3a2,2,0,0,1,0,4Zm-13,0h-3a2,2,0,1,1,0-4h3a2,2,0,0,1,0,4Z"/><path class="cls-8" d="M449.3,675.6h-.78a2,2,0,1,1,0-4h.78a2,2,0,1,1,0,4Zm-10.78,0h-3a2,2,0,1,1,0-4h3a2,2,0,0,1,0,4Zm-13,0h-3a2,2,0,1,1,0-4h3a2,2,0,0,1,0,4Zm-13,0h-3a2,2,0,1,1,0-4h3a2,2,0,0,1,0,4Zm-13,0h-3a2,2,0,1,1,0-4h3a2,2,0,0,1,0,4Zm-13,0h-3a2,2,0,1,1,0-4h3a2,2,0,0,1,0,4Zm-13,0h-3a2,2,0,1,1,0-4h3a2,2,0,0,1,0,4Zm-13,0h-3a2,2,0,1,1,0-4h3a2,2,0,0,1,0,4Zm-13,0h-3a2,2,0,0,1,0-4h3a2,2,0,0,1,0,4Zm-13,0h-3a2,2,0,0,1,0-4h3a2,2,0,0,1,0,4Zm-13,0h-3a2,2,0,0,1,0-4h3a2,2,0,0,1,0,4Zm-13,0h-3a2,2,0,0,1,0-4h3a2,2,0,0,1,0,4Zm-13,0h-3a2,2,0,0,1,0-4h3a2,2,0,0,1,0,4Zm-13,0h-3a2,2,0,0,1,0-4h3a2,2,0,0,1,0,4Zm-13,0h-3a2,2,0,0,1,0-4h3a2,2,0,0,1,0,4Zm-13,0h-3a2,2,0,1,1,0-4h3a2,2,0,0,1,0,4Zm-13,0h-3a2,2,0,1,1,0-4h3a2,2,0,0,1,0,4Zm-13,0h-3a2,2,0,1,1,0-4h3a2,2,0,0,1,0,4Zm-13,0h-3a2,2,0,1,1,0-4h3a2,2,0,0,1,0,4Zm-13,0h-3a2,2,0,1,1,0-4h3a2,2,0,0,1,0,4Zm-13,0h-3a2,2,0,1,1,0-4h3a2,2,0,0,1,0,4Zm-13,0h-3a2,2,0,1,1,0-4h3a2,2,0,0,1,0,4Z"/><path class="cls-8" d="M449.3,701h-.78a2,2,0,0,1,0-4h.78a2,2,0,0,1,0,4Zm-10.78,0h-3a2,2,0,0,1,0-4h3a2,2,0,0,1,0,4Zm-13,0h-3a2,2,0,0,1,0-4h3a2,2,0,0,1,0,4Zm-13,0h-3a2,2,0,0,1,0-4h3a2,2,0,0,1,0,4Zm-13,0h-3a2,2,0,0,1,0-4h3a2,2,0,0,1,0,4Zm-13,0h-3a2,2,0,0,1,0-4h3a2,2,0,0,1,0,4Zm-13,0h-3a2,2,0,0,1,0-4h3a2,2,0,0,1,0,4Zm-13,0h-3a2,2,0,0,1,0-4h3a2,2,0,0,1,0,4Zm-13,0h-3a2,2,0,0,1,0-4h3a2,2,0,0,1,0,4Zm-13,0h-3a2,2,0,0,1,0-4h3a2,2,0,0,1,0,4Zm-13,0h-3a2,2,0,0,1,0-4h3a2,2,0,0,1,0,4Zm-13,0h-3a2,2,0,0,1,0-4h3a2,2,0,0,1,0,4Zm-13,0h-3a2,2,0,0,1,0-4h3a2,2,0,0,1,0,4Zm-13,0h-3a2,2,0,0,1,0-4h3a2,2,0,0,1,0,4Zm-13,0h-3a2,2,0,0,1,0-4h3a2,2,0,0,1,0,4Zm-13,0h-3a2,2,0,1,1,0-4h3a2,2,0,0,1,0,4Zm-13,0h-3a2,2,0,1,1,0-4h3a2,2,0,0,1,0,4Zm-13,0h-3a2,2,0,1,1,0-4h3a2,2,0,0,1,0,4Zm-13,0h-3a2,2,0,1,1,0-4h3a2,2,0,0,1,0,4Zm-13,0h-3a2,2,0,1,1,0-4h3a2,2,0,0,1,0,4Zm-13,0h-3a2,2,0,1,1,0-4h3a2,2,0,0,1,0,4Zm-13,0h-3a2,2,0,1,1,0-4h3a2,2,0,0,1,0,4Z"/></g></g><g id="lower_arm_r" data-name="lower arm_r"><circle class="cls-5" cx="96.46" cy="541.12" r="30.81"/><rect class="cls-5" x="45.54" y="448.26" width="170.66" height="41.78" rx="19.89" transform="translate(-349.12 386.43) rotate(-64.63)"/></g><g id="upper_arm_r" data-name="upper arm_r"><rect class="cls-6" x="102.84" y="299.94" width="202.46" height="68.29" rx="19.89" transform="translate(-187.4 331.86) rotate(-58.26)"/><g class="cls-10"><path class="cls-8" d="M351.3,132.08h-.78a2,2,0,0,1,0-4h.78a2,2,0,0,1,0,4Zm-10.78,0h-3a2,2,0,0,1,0-4h3a2,2,0,0,1,0,4Zm-13,0h-3a2,2,0,0,1,0-4h3a2,2,0,0,1,0,4Zm-13,0h-3a2,2,0,0,1,0-4h3a2,2,0,0,1,0,4Zm-13,0h-3a2,2,0,0,1,0-4h3a2,2,0,0,1,0,4Zm-13,0h-3a2,2,0,0,1,0-4h3a2,2,0,0,1,0,4Zm-13,0h-3a2,2,0,0,1,0-4h3a2,2,0,0,1,0,4Zm-13,0h-3a2,2,0,0,1,0-4h3a2,2,0,0,1,0,4Zm-13,0h-3a2,2,0,0,1,0-4h3a2,2,0,0,1,0,4Zm-13,0h-3a2,2,0,0,1,0-4h3a2,2,0,0,1,0,4Zm-13,0h-3a2,2,0,0,1,0-4h3a2,2,0,0,1,0,4Zm-13,0h-3a2,2,0,0,1,0-4h3a2,2,0,0,1,0,4Zm-13,0h-3a2,2,0,0,1,0-4h3a2,2,0,0,1,0,4Zm-13,0h-3a2,2,0,0,1,0-4h3a2,2,0,0,1,0,4Zm-13,0h-3a2,2,0,0,1,0-4h3a2,2,0,0,1,0,4Zm-13,0h-3a2,2,0,0,1,0-4h3a2,2,0,0,1,0,4Zm-13,0h-3a2,2,0,0,1,0-4h3a2,2,0,0,1,0,4Zm-13,0h-3a2,2,0,0,1,0-4h3a2,2,0,0,1,0,4Zm-13,0h-3a2,2,0,0,1,0-4h3a2,2,0,1,1,0,4Zm-13,0h-3a2,2,0,0,1,0-4h3a2,2,0,1,1,0,4Zm-13,0h-3a2,2,0,0,1,0-4h3a2,2,0,1,1,0,4Zm-13,0h-3a2,2,0,0,1,0-4h3a2,2,0,1,1,0,4Z"/><path class="cls-8" d="M351.3,157.48h-.78a2,2,0,0,1,0-4h.78a2,2,0,0,1,0,4Zm-10.78,0h-3a2,2,0,0,1,0-4h3a2,2,0,0,1,0,4Zm-13,0h-3a2,2,0,0,1,0-4h3a2,2,0,0,1,0,4Zm-13,0h-3a2,2,0,0,1,0-4h3a2,2,0,0,1,0,4Zm-13,0h-3a2,2,0,0,1,0-4h3a2,2,0,0,1,0,4Zm-13,0h-3a2,2,0,0,1,0-4h3a2,2,0,0,1,0,4Zm-13,0h-3a2,2,0,0,1,0-4h3a2,2,0,0,1,0,4Zm-13,0h-3a2,2,0,0,1,0-4h3a2,2,0,0,1,0,4Zm-13,0h-3a2,2,0,0,1,0-4h3a2,2,0,0,1,0,4Zm-13,0h-3a2,2,0,0,1,0-4h3a2,2,0,0,1,0,4Zm-13,0h-3a2,2,0,0,1,0-4h3a2,2,0,0,1,0,4Zm-13,0h-3a2,2,0,0,1,0-4h3a2,2,0,0,1,0,4Zm-13,0h-3a2,2,0,0,1,0-4h3a2,2,0,0,1,0,4Zm-13,0h-3a2,2,0,0,1,0-4h3a2,2,0,0,1,0,4Zm-13,0h-3a2,2,0,0,1,0-4h3a2,2,0,0,1,0,4Zm-13,0h-3a2,2,0,0,1,0-4h3a2,2,0,0,1,0,4Zm-13,0h-3a2,2,0,0,1,0-4h3a2,2,0,0,1,0,4Zm-13,0h-3a2,2,0,0,1,0-4h3a2,2,0,0,1,0,4Zm-13,0h-3a2,2,0,0,1,0-4h3a2,2,0,1,1,0,4Zm-13,0h-3a2,2,0,0,1,0-4h3a2,2,0,1,1,0,4Zm-13,0h-3a2,2,0,0,1,0-4h3a2,2,0,1,1,0,4Zm-13,0h-3a2,2,0,0,1,0-4h3a2,2,0,1,1,0,4Z"/><path class="cls-8" d="M351.3,182.88h-.78a2,2,0,0,1,0-4h.78a2,2,0,1,1,0,4Zm-10.78,0h-3a2,2,0,0,1,0-4h3a2,2,0,0,1,0,4Zm-13,0h-3a2,2,0,0,1,0-4h3a2,2,0,0,1,0,4Zm-13,0h-3a2,2,0,0,1,0-4h3a2,2,0,0,1,0,4Zm-13,0h-3a2,2,0,0,1,0-4h3a2,2,0,0,1,0,4Zm-13,0h-3a2,2,0,0,1,0-4h3a2,2,0,0,1,0,4Zm-13,0h-3a2,2,0,0,1,0-4h3a2,2,0,0,1,0,4Zm-13,0h-3a2,2,0,0,1,0-4h3a2,2,0,0,1,0,4Zm-13,0h-3a2,2,0,1,1,0-4h3a2,2,0,0,1,0,4Zm-13,0h-3a2,2,0,1,1,0-4h3a2,2,0,0,1,0,4Zm-13,0h-3a2,2,0,1,1,0-4h3a2,2,0,0,1,0,4Zm-13,0h-3a2,2,0,1,1,0-4h3a2,2,0,0,1,0,4Zm-13,0h-3a2,2,0,1,1,0-4h3a2,2,0,0,1,0,4Zm-13,0h-3a2,2,0,1,1,0-4h3a2,2,0,0,1,0,4Zm-13,0h-3a2,2,0,1,1,0-4h3a2,2,0,0,1,0,4Zm-13,0h-3a2,2,0,1,1,0-4h3a2,2,0,0,1,0,4Zm-13,0h-3a2,2,0,1,1,0-4h3a2,2,0,0,1,0,4Zm-13,0h-3a2,2,0,0,1,0-4h3a2,2,0,0,1,0,4Zm-13,0h-3a2,2,0,1,1,0-4h3a2,2,0,0,1,0,4Zm-13,0h-3a2,2,0,1,1,0-4h3a2,2,0,0,1,0,4Zm-13,0h-3a2,2,0,1,1,0-4h3a2,2,0,0,1,0,4Zm-13,0h-3a2,2,0,1,1,0-4h3a2,2,0,0,1,0,4Z"/><path class="cls-8" d="M351.3,208.27h-.78a2,2,0,0,1,0-4h.78a2,2,0,0,1,0,4Zm-10.78,0h-3a2,2,0,0,1,0-4h3a2,2,0,0,1,0,4Zm-13,0h-3a2,2,0,0,1,0-4h3a2,2,0,0,1,0,4Zm-13,0h-3a2,2,0,0,1,0-4h3a2,2,0,0,1,0,4Zm-13,0h-3a2,2,0,0,1,0-4h3a2,2,0,0,1,0,4Zm-13,0h-3a2,2,0,0,1,0-4h3a2,2,0,0,1,0,4Zm-13,0h-3a2,2,0,0,1,0-4h3a2,2,0,0,1,0,4Zm-13,0h-3a2,2,0,0,1,0-4h3a2,2,0,0,1,0,4Zm-13,0h-3a2,2,0,0,1,0-4h3a2,2,0,0,1,0,4Zm-13,0h-3a2,2,0,0,1,0-4h3a2,2,0,0,1,0,4Zm-13,0h-3a2,2,0,0,1,0-4h3a2,2,0,0,1,0,4Zm-13,0h-3a2,2,0,0,1,0-4h3a2,2,0,0,1,0,4Zm-13,0h-3a2,2,0,0,1,0-4h3a2,2,0,0,1,0,4Zm-13,0h-3a2,2,0,0,1,0-4h3a2,2,0,0,1,0,4Zm-13,0h-3a2,2,0,0,1,0-4h3a2,2,0,0,1,0,4Zm-13,0h-3a2,2,0,0,1,0-4h3a2,2,0,0,1,0,4Zm-13,0h-3a2,2,0,0,1,0-4h3a2,2,0,0,1,0,4Zm-13,0h-3a2,2,0,0,1,0-4h3a2,2,0,0,1,0,4Zm-13,0h-3a2,2,0,0,1,0-4h3a2,2,0,1,1,0,4Zm-13,0h-3a2,2,0,0,1,0-4h3a2,2,0,1,1,0,4Zm-13,0h-3a2,2,0,0,1,0-4h3a2,2,0,1,1,0,4Zm-13,0h-3a2,2,0,0,1,0-4h3a2,2,0,1,1,0,4Z"/><path class="cls-8" d="M351.3,233.67h-.78a2,2,0,0,1,0-4h.78a2,2,0,0,1,0,4Zm-10.78,0h-3a2,2,0,0,1,0-4h3a2,2,0,0,1,0,4Zm-13,0h-3a2,2,0,0,1,0-4h3a2,2,0,0,1,0,4Zm-13,0h-3a2,2,0,0,1,0-4h3a2,2,0,0,1,0,4Zm-13,0h-3a2,2,0,0,1,0-4h3a2,2,0,0,1,0,4Zm-13,0h-3a2,2,0,0,1,0-4h3a2,2,0,0,1,0,4Zm-13,0h-3a2,2,0,0,1,0-4h3a2,2,0,0,1,0,4Zm-13,0h-3a2,2,0,0,1,0-4h3a2,2,0,0,1,0,4Zm-13,0h-3a2,2,0,0,1,0-4h3a2,2,0,0,1,0,4Zm-13,0h-3a2,2,0,0,1,0-4h3a2,2,0,0,1,0,4Zm-13,0h-3a2,2,0,0,1,0-4h3a2,2,0,0,1,0,4Zm-13,0h-3a2,2,0,0,1,0-4h3a2,2,0,0,1,0,4Zm-13,0h-3a2,2,0,0,1,0-4h3a2,2,0,0,1,0,4Zm-13,0h-3a2,2,0,0,1,0-4h3a2,2,0,0,1,0,4Zm-13,0h-3a2,2,0,0,1,0-4h3a2,2,0,0,1,0,4Zm-13,0h-3a2,2,0,0,1,0-4h3a2,2,0,0,1,0,4Zm-13,0h-3a2,2,0,0,1,0-4h3a2,2,0,0,1,0,4Zm-13,0h-3a2,2,0,0,1,0-4h3a2,2,0,0,1,0,4Zm-13,0h-3a2,2,0,0,1,0-4h3a2,2,0,1,1,0,4Zm-13,0h-3a2,2,0,0,1,0-4h3a2,2,0,1,1,0,4Zm-13,0h-3a2,2,0,0,1,0-4h3a2,2,0,1,1,0,4Zm-13,0h-3a2,2,0,0,1,0-4h3a2,2,0,1,1,0,4Z"/><path class="cls-8" d="M351.3,259.06h-.78a2,2,0,0,1,0-4h.78a2,2,0,0,1,0,4Zm-10.78,0h-3a2,2,0,0,1,0-4h3a2,2,0,0,1,0,4Zm-13,0h-3a2,2,0,0,1,0-4h3a2,2,0,0,1,0,4Zm-13,0h-3a2,2,0,0,1,0-4h3a2,2,0,0,1,0,4Zm-13,0h-3a2,2,0,0,1,0-4h3a2,2,0,0,1,0,4Zm-13,0h-3a2,2,0,0,1,0-4h3a2,2,0,0,1,0,4Zm-13,0h-3a2,2,0,0,1,0-4h3a2,2,0,0,1,0,4Zm-13,0h-3a2,2,0,0,1,0-4h3a2,2,0,0,1,0,4Zm-13,0h-3a2,2,0,0,1,0-4h3a2,2,0,1,1,0,4Zm-13,0h-3a2,2,0,0,1,0-4h3a2,2,0,1,1,0,4Zm-13,0h-3a2,2,0,0,1,0-4h3a2,2,0,1,1,0,4Zm-13,0h-3a2,2,0,0,1,0-4h3a2,2,0,1,1,0,4Zm-13,0h-3a2,2,0,0,1,0-4h3a2,2,0,1,1,0,4Zm-13,0h-3a2,2,0,0,1,0-4h3a2,2,0,1,1,0,4Zm-13,0h-3a2,2,0,0,1,0-4h3a2,2,0,1,1,0,4Zm-13,0h-3a2,2,0,0,1,0-4h3a2,2,0,1,1,0,4Zm-13,0h-3a2,2,0,0,1,0-4h3a2,2,0,1,1,0,4Zm-13,0h-3a2,2,0,0,1,0-4h3a2,2,0,1,1,0,4Zm-13,0h-3a2,2,0,1,1,0-4h3a2,2,0,0,1,0,4Zm-13,0h-3a2,2,0,1,1,0-4h3a2,2,0,0,1,0,4Zm-13,0h-3a2,2,0,1,1,0-4h3a2,2,0,0,1,0,4Zm-13,0h-3a2,2,0,1,1,0-4h3a2,2,0,0,1,0,4Z"/><path class="cls-8" d="M351.3,284.46h-.78a2,2,0,0,1,0-4h.78a2,2,0,0,1,0,4Zm-10.78,0h-3a2,2,0,0,1,0-4h3a2,2,0,0,1,0,4Zm-13,0h-3a2,2,0,0,1,0-4h3a2,2,0,0,1,0,4Zm-13,0h-3a2,2,0,0,1,0-4h3a2,2,0,0,1,0,4Zm-13,0h-3a2,2,0,0,1,0-4h3a2,2,0,0,1,0,4Zm-13,0h-3a2,2,0,0,1,0-4h3a2,2,0,0,1,0,4Zm-13,0h-3a2,2,0,0,1,0-4h3a2,2,0,0,1,0,4Zm-13,0h-3a2,2,0,0,1,0-4h3a2,2,0,0,1,0,4Zm-13,0h-3a2,2,0,0,1,0-4h3a2,2,0,1,1,0,4Zm-13,0h-3a2,2,0,0,1,0-4h3a2,2,0,1,1,0,4Zm-13,0h-3a2,2,0,0,1,0-4h3a2,2,0,1,1,0,4Zm-13,0h-3a2,2,0,0,1,0-4h3a2,2,0,1,1,0,4Zm-13,0h-3a2,2,0,0,1,0-4h3a2,2,0,1,1,0,4Zm-13,0h-3a2,2,0,0,1,0-4h3a2,2,0,1,1,0,4Zm-13,0h-3a2,2,0,0,1,0-4h3a2,2,0,1,1,0,4Zm-13,0h-3a2,2,0,0,1,0-4h3a2,2,0,1,1,0,4Zm-13,0h-3a2,2,0,0,1,0-4h3a2,2,0,1,1,0,4Zm-13,0h-3a2,2,0,0,1,0-4h3a2,2,0,1,1,0,4Zm-13,0h-3a2,2,0,1,1,0-4h3a2,2,0,0,1,0,4Zm-13,0h-3a2,2,0,1,1,0-4h3a2,2,0,0,1,0,4Zm-13,0h-3a2,2,0,1,1,0-4h3a2,2,0,0,1,0,4Zm-13,0h-3a2,2,0,1,1,0-4h3a2,2,0,0,1,0,4Z"/><path class="cls-8" d="M351.3,309.86h-.78a2,2,0,0,1,0-4h.78a2,2,0,1,1,0,4Zm-10.78,0h-3a2,2,0,0,1,0-4h3a2,2,0,0,1,0,4Zm-13,0h-3a2,2,0,0,1,0-4h3a2,2,0,0,1,0,4Zm-13,0h-3a2,2,0,0,1,0-4h3a2,2,0,0,1,0,4Zm-13,0h-3a2,2,0,0,1,0-4h3a2,2,0,0,1,0,4Zm-13,0h-3a2,2,0,0,1,0-4h3a2,2,0,0,1,0,4Zm-13,0h-3a2,2,0,0,1,0-4h3a2,2,0,0,1,0,4Zm-13,0h-3a2,2,0,0,1,0-4h3a2,2,0,0,1,0,4Zm-13,0h-3a2,2,0,1,1,0-4h3a2,2,0,0,1,0,4Zm-13,0h-3a2,2,0,1,1,0-4h3a2,2,0,0,1,0,4Zm-13,0h-3a2,2,0,1,1,0-4h3a2,2,0,0,1,0,4Zm-13,0h-3a2,2,0,1,1,0-4h3a2,2,0,0,1,0,4Zm-13,0h-3a2,2,0,1,1,0-4h3a2,2,0,0,1,0,4Zm-13,0h-3a2,2,0,1,1,0-4h3a2,2,0,0,1,0,4Zm-13,0h-3a2,2,0,1,1,0-4h3a2,2,0,0,1,0,4Zm-13,0h-3a2,2,0,1,1,0-4h3a2,2,0,0,1,0,4Zm-13,0h-3a2,2,0,1,1,0-4h3a2,2,0,0,1,0,4Zm-13,0h-3a2,2,0,0,1,0-4h3a2,2,0,0,1,0,4Zm-13,0h-3a2,2,0,1,1,0-4h3a2,2,0,0,1,0,4Zm-13,0h-3a2,2,0,1,1,0-4h3a2,2,0,0,1,0,4Zm-13,0h-3a2,2,0,1,1,0-4h3a2,2,0,0,1,0,4Zm-13,0h-3a2,2,0,1,1,0-4h3a2,2,0,0,1,0,4Z"/><path class="cls-8" d="M351.3,335.25h-.78a2,2,0,0,1,0-4h.78a2,2,0,0,1,0,4Zm-10.78,0h-3a2,2,0,0,1,0-4h3a2,2,0,0,1,0,4Zm-13,0h-3a2,2,0,0,1,0-4h3a2,2,0,0,1,0,4Zm-13,0h-3a2,2,0,0,1,0-4h3a2,2,0,0,1,0,4Zm-13,0h-3a2,2,0,0,1,0-4h3a2,2,0,0,1,0,4Zm-13,0h-3a2,2,0,0,1,0-4h3a2,2,0,0,1,0,4Zm-13,0h-3a2,2,0,0,1,0-4h3a2,2,0,0,1,0,4Zm-13,0h-3a2,2,0,0,1,0-4h3a2,2,0,0,1,0,4Zm-13,0h-3a2,2,0,1,1,0-4h3a2,2,0,0,1,0,4Zm-13,0h-3a2,2,0,1,1,0-4h3a2,2,0,0,1,0,4Zm-13,0h-3a2,2,0,1,1,0-4h3a2,2,0,0,1,0,4Zm-13,0h-3a2,2,0,1,1,0-4h3a2,2,0,0,1,0,4Zm-13,0h-3a2,2,0,1,1,0-4h3a2,2,0,0,1,0,4Zm-13,0h-3a2,2,0,1,1,0-4h3a2,2,0,0,1,0,4Zm-13,0h-3a2,2,0,1,1,0-4h3a2,2,0,0,1,0,4Zm-13,0h-3a2,2,0,1,1,0-4h3a2,2,0,0,1,0,4Zm-13,0h-3a2,2,0,1,1,0-4h3a2,2,0,0,1,0,4Zm-13,0h-3a2,2,0,0,1,0-4h3a2,2,0,0,1,0,4Zm-13,0h-3a2,2,0,1,1,0-4h3a2,2,0,0,1,0,4Zm-13,0h-3a2,2,0,1,1,0-4h3a2,2,0,0,1,0,4Zm-13,0h-3a2,2,0,1,1,0-4h3a2,2,0,0,1,0,4Zm-13,0h-3a2,2,0,1,1,0-4h3a2,2,0,0,1,0,4Z"/><path class="cls-8" d="M351.3,360.65h-.78a2,2,0,0,1,0-4h.78a2,2,0,1,1,0,4Zm-10.78,0h-3a2,2,0,0,1,0-4h3a2,2,0,0,1,0,4Zm-13,0h-3a2,2,0,0,1,0-4h3a2,2,0,0,1,0,4Zm-13,0h-3a2,2,0,0,1,0-4h3a2,2,0,0,1,0,4Zm-13,0h-3a2,2,0,0,1,0-4h3a2,2,0,0,1,0,4Zm-13,0h-3a2,2,0,0,1,0-4h3a2,2,0,0,1,0,4Zm-13,0h-3a2,2,0,0,1,0-4h3a2,2,0,0,1,0,4Zm-13,0h-3a2,2,0,0,1,0-4h3a2,2,0,0,1,0,4Zm-13,0h-3a2,2,0,1,1,0-4h3a2,2,0,0,1,0,4Zm-13,0h-3a2,2,0,1,1,0-4h3a2,2,0,0,1,0,4Zm-13,0h-3a2,2,0,1,1,0-4h3a2,2,0,0,1,0,4Zm-13,0h-3a2,2,0,1,1,0-4h3a2,2,0,0,1,0,4Zm-13,0h-3a2,2,0,1,1,0-4h3a2,2,0,0,1,0,4Zm-13,0h-3a2,2,0,1,1,0-4h3a2,2,0,0,1,0,4Zm-13,0h-3a2,2,0,1,1,0-4h3a2,2,0,0,1,0,4Zm-13,0h-3a2,2,0,1,1,0-4h3a2,2,0,0,1,0,4Zm-13,0h-3a2,2,0,1,1,0-4h3a2,2,0,0,1,0,4Zm-13,0h-3a2,2,0,0,1,0-4h3a2,2,0,0,1,0,4Zm-13,0h-3a2,2,0,1,1,0-4h3a2,2,0,0,1,0,4Zm-13,0h-3a2,2,0,1,1,0-4h3a2,2,0,0,1,0,4Zm-13,0h-3a2,2,0,1,1,0-4h3a2,2,0,0,1,0,4Zm-13,0h-3a2,2,0,1,1,0-4h3a2,2,0,0,1,0,4Z"/><path class="cls-8" d="M351.3,386h-.78a2,2,0,0,1,0-4h.78a2,2,0,0,1,0,4Zm-10.78,0h-3a2,2,0,0,1,0-4h3a2,2,0,0,1,0,4Zm-13,0h-3a2,2,0,0,1,0-4h3a2,2,0,0,1,0,4Zm-13,0h-3a2,2,0,0,1,0-4h3a2,2,0,0,1,0,4Zm-13,0h-3a2,2,0,0,1,0-4h3a2,2,0,0,1,0,4Zm-13,0h-3a2,2,0,0,1,0-4h3a2,2,0,0,1,0,4Zm-13,0h-3a2,2,0,0,1,0-4h3a2,2,0,0,1,0,4Zm-13,0h-3a2,2,0,0,1,0-4h3a2,2,0,0,1,0,4Zm-13,0h-3a2,2,0,0,1,0-4h3a2,2,0,1,1,0,4Zm-13,0h-3a2,2,0,0,1,0-4h3a2,2,0,1,1,0,4Zm-13,0h-3a2,2,0,0,1,0-4h3a2,2,0,1,1,0,4Zm-13,0h-3a2,2,0,0,1,0-4h3a2,2,0,1,1,0,4Zm-13,0h-3a2,2,0,0,1,0-4h3a2,2,0,1,1,0,4Zm-13,0h-3a2,2,0,0,1,0-4h3a2,2,0,1,1,0,4Zm-13,0h-3a2,2,0,0,1,0-4h3a2,2,0,1,1,0,4Zm-13,0h-3a2,2,0,0,1,0-4h3a2,2,0,1,1,0,4Zm-13,0h-3a2,2,0,0,1,0-4h3a2,2,0,1,1,0,4Zm-13,0h-3a2,2,0,0,1,0-4h3a2,2,0,1,1,0,4Zm-13,0h-3a2,2,0,1,1,0-4h3a2,2,0,0,1,0,4Zm-13,0h-3a2,2,0,1,1,0-4h3a2,2,0,0,1,0,4Zm-13,0h-3a2,2,0,1,1,0-4h3a2,2,0,0,1,0,4Zm-13,0h-3a2,2,0,1,1,0-4h3a2,2,0,0,1,0,4Z"/><path class="cls-8" d="M351.3,411.44h-.78a2,2,0,0,1,0-4h.78a2,2,0,0,1,0,4Zm-10.78,0h-3a2,2,0,0,1,0-4h3a2,2,0,0,1,0,4Zm-13,0h-3a2,2,0,0,1,0-4h3a2,2,0,0,1,0,4Zm-13,0h-3a2,2,0,0,1,0-4h3a2,2,0,0,1,0,4Zm-13,0h-3a2,2,0,0,1,0-4h3a2,2,0,0,1,0,4Zm-13,0h-3a2,2,0,0,1,0-4h3a2,2,0,0,1,0,4Zm-13,0h-3a2,2,0,0,1,0-4h3a2,2,0,0,1,0,4Zm-13,0h-3a2,2,0,0,1,0-4h3a2,2,0,0,1,0,4Zm-13,0h-3a2,2,0,0,1,0-4h3a2,2,0,1,1,0,4Zm-13,0h-3a2,2,0,0,1,0-4h3a2,2,0,1,1,0,4Zm-13,0h-3a2,2,0,0,1,0-4h3a2,2,0,1,1,0,4Zm-13,0h-3a2,2,0,0,1,0-4h3a2,2,0,1,1,0,4Zm-13,0h-3a2,2,0,0,1,0-4h3a2,2,0,1,1,0,4Zm-13,0h-3a2,2,0,0,1,0-4h3a2,2,0,1,1,0,4Zm-13,0h-3a2,2,0,0,1,0-4h3a2,2,0,1,1,0,4Zm-13,0h-3a2,2,0,0,1,0-4h3a2,2,0,1,1,0,4Zm-13,0h-3a2,2,0,0,1,0-4h3a2,2,0,1,1,0,4Zm-13,0h-3a2,2,0,0,1,0-4h3a2,2,0,1,1,0,4Zm-13,0h-3a2,2,0,0,1,0-4h3a2,2,0,1,1,0,4Zm-13,0h-3a2,2,0,0,1,0-4h3a2,2,0,1,1,0,4Zm-13,0h-3a2,2,0,1,1,0-4h3a2,2,0,0,1,0,4Zm-13,0h-3a2,2,0,1,1,0-4h3a2,2,0,0,1,0,4Z"/><path class="cls-8" d="M351.3,436.83h-.78a2,2,0,0,1,0-4h.78a2,2,0,0,1,0,4Zm-10.78,0h-3a2,2,0,0,1,0-4h3a2,2,0,0,1,0,4Zm-13,0h-3a2,2,0,0,1,0-4h3a2,2,0,0,1,0,4Zm-13,0h-3a2,2,0,0,1,0-4h3a2,2,0,0,1,0,4Zm-13,0h-3a2,2,0,0,1,0-4h3a2,2,0,0,1,0,4Zm-13,0h-3a2,2,0,0,1,0-4h3a2,2,0,0,1,0,4Zm-13,0h-3a2,2,0,0,1,0-4h3a2,2,0,0,1,0,4Zm-13,0h-3a2,2,0,0,1,0-4h3a2,2,0,0,1,0,4Zm-13,0h-3a2,2,0,0,1,0-4h3a2,2,0,1,1,0,4Zm-13,0h-3a2,2,0,0,1,0-4h3a2,2,0,1,1,0,4Zm-13,0h-3a2,2,0,0,1,0-4h3a2,2,0,1,1,0,4Zm-13,0h-3a2,2,0,0,1,0-4h3a2,2,0,1,1,0,4Zm-13,0h-3a2,2,0,0,1,0-4h3a2,2,0,1,1,0,4Zm-13,0h-3a2,2,0,0,1,0-4h3a2,2,0,1,1,0,4Zm-13,0h-3a2,2,0,0,1,0-4h3a2,2,0,1,1,0,4Zm-13,0h-3a2,2,0,0,1,0-4h3a2,2,0,1,1,0,4Zm-13,0h-3a2,2,0,0,1,0-4h3a2,2,0,1,1,0,4Zm-13,0h-3a2,2,0,0,1,0-4h3a2,2,0,1,1,0,4Zm-13,0h-3a2,2,0,0,1,0-4h3a2,2,0,1,1,0,4Zm-13,0h-3a2,2,0,0,1,0-4h3a2,2,0,1,1,0,4Zm-13,0h-3a2,2,0,0,1,0-4h3a2,2,0,1,1,0,4Zm-13,0h-3a2,2,0,0,1,0-4h3a2,2,0,1,1,0,4Z"/><path class="cls-8" d="M351.3,462.23h-.78a2,2,0,0,1,0-4h.78a2,2,0,0,1,0,4Zm-10.78,0h-3a2,2,0,0,1,0-4h3a2,2,0,0,1,0,4Zm-13,0h-3a2,2,0,0,1,0-4h3a2,2,0,0,1,0,4Zm-13,0h-3a2,2,0,0,1,0-4h3a2,2,0,0,1,0,4Zm-13,0h-3a2,2,0,0,1,0-4h3a2,2,0,0,1,0,4Zm-13,0h-3a2,2,0,0,1,0-4h3a2,2,0,0,1,0,4Zm-13,0h-3a2,2,0,0,1,0-4h3a2,2,0,0,1,0,4Zm-13,0h-3a2,2,0,0,1,0-4h3a2,2,0,0,1,0,4Zm-13,0h-3a2,2,0,1,1,0-4h3a2,2,0,0,1,0,4Zm-13,0h-3a2,2,0,1,1,0-4h3a2,2,0,0,1,0,4Zm-13,0h-3a2,2,0,1,1,0-4h3a2,2,0,0,1,0,4Zm-13,0h-3a2,2,0,1,1,0-4h3a2,2,0,0,1,0,4Zm-13,0h-3a2,2,0,1,1,0-4h3a2,2,0,0,1,0,4Zm-13,0h-3a2,2,0,1,1,0-4h3a2,2,0,0,1,0,4Zm-13,0h-3a2,2,0,1,1,0-4h3a2,2,0,0,1,0,4Zm-13,0h-3a2,2,0,1,1,0-4h3a2,2,0,0,1,0,4Zm-13,0h-3a2,2,0,1,1,0-4h3a2,2,0,0,1,0,4Zm-13,0h-3a2,2,0,0,1,0-4h3a2,2,0,0,1,0,4Zm-13,0h-3a2,2,0,1,1,0-4h3a2,2,0,0,1,0,4Zm-13,0h-3a2,2,0,1,1,0-4h3a2,2,0,0,1,0,4Zm-13,0h-3a2,2,0,1,1,0-4h3a2,2,0,0,1,0,4Zm-13,0h-3a2,2,0,1,1,0-4h3a2,2,0,0,1,0,4Z"/><path class="cls-8" d="M351.3,487.62h-.78a2,2,0,0,1,0-4h.78a2,2,0,1,1,0,4Zm-10.78,0h-3a2,2,0,0,1,0-4h3a2,2,0,0,1,0,4Zm-13,0h-3a2,2,0,0,1,0-4h3a2,2,0,0,1,0,4Zm-13,0h-3a2,2,0,0,1,0-4h3a2,2,0,0,1,0,4Zm-13,0h-3a2,2,0,0,1,0-4h3a2,2,0,0,1,0,4Zm-13,0h-3a2,2,0,0,1,0-4h3a2,2,0,0,1,0,4Zm-13,0h-3a2,2,0,0,1,0-4h3a2,2,0,0,1,0,4Zm-13,0h-3a2,2,0,0,1,0-4h3a2,2,0,0,1,0,4Zm-13,0h-3a2,2,0,1,1,0-4h3a2,2,0,0,1,0,4Zm-13,0h-3a2,2,0,1,1,0-4h3a2,2,0,0,1,0,4Zm-13,0h-3a2,2,0,1,1,0-4h3a2,2,0,0,1,0,4Zm-13,0h-3a2,2,0,1,1,0-4h3a2,2,0,0,1,0,4Zm-13,0h-3a2,2,0,1,1,0-4h3a2,2,0,0,1,0,4Zm-13,0h-3a2,2,0,1,1,0-4h3a2,2,0,0,1,0,4Zm-13,0h-3a2,2,0,1,1,0-4h3a2,2,0,0,1,0,4Zm-13,0h-3a2,2,0,1,1,0-4h3a2,2,0,0,1,0,4Zm-13,0h-3a2,2,0,1,1,0-4h3a2,2,0,0,1,0,4Zm-13,0h-3a2,2,0,0,1,0-4h3a2,2,0,0,1,0,4Zm-13,0h-3a2,2,0,1,1,0-4h3a2,2,0,0,1,0,4Zm-13,0h-3a2,2,0,1,1,0-4h3a2,2,0,0,1,0,4Zm-13,0h-3a2,2,0,1,1,0-4h3a2,2,0,0,1,0,4Zm-13,0h-3a2,2,0,1,1,0-4h3a2,2,0,0,1,0,4Z"/><path class="cls-8" d="M351.3,513h-.78a2,2,0,0,1,0-4h.78a2,2,0,0,1,0,4Zm-10.78,0h-3a2,2,0,0,1,0-4h3a2,2,0,0,1,0,4Zm-13,0h-3a2,2,0,0,1,0-4h3a2,2,0,0,1,0,4Zm-13,0h-3a2,2,0,0,1,0-4h3a2,2,0,0,1,0,4Zm-13,0h-3a2,2,0,0,1,0-4h3a2,2,0,0,1,0,4Zm-13,0h-3a2,2,0,0,1,0-4h3a2,2,0,0,1,0,4Zm-13,0h-3a2,2,0,0,1,0-4h3a2,2,0,0,1,0,4Zm-13,0h-3a2,2,0,0,1,0-4h3a2,2,0,0,1,0,4Zm-13,0h-3a2,2,0,1,1,0-4h3a2,2,0,0,1,0,4Zm-13,0h-3a2,2,0,1,1,0-4h3a2,2,0,0,1,0,4Zm-13,0h-3a2,2,0,1,1,0-4h3a2,2,0,0,1,0,4Zm-13,0h-3a2,2,0,1,1,0-4h3a2,2,0,0,1,0,4Zm-13,0h-3a2,2,0,1,1,0-4h3a2,2,0,0,1,0,4Zm-13,0h-3a2,2,0,1,1,0-4h3a2,2,0,0,1,0,4Zm-13,0h-3a2,2,0,1,1,0-4h3a2,2,0,0,1,0,4Zm-13,0h-3a2,2,0,1,1,0-4h3a2,2,0,0,1,0,4Zm-13,0h-3a2,2,0,1,1,0-4h3a2,2,0,0,1,0,4Zm-13,0h-3a2,2,0,0,1,0-4h3a2,2,0,0,1,0,4Zm-13,0h-3a2,2,0,1,1,0-4h3a2,2,0,0,1,0,4Zm-13,0h-3a2,2,0,1,1,0-4h3a2,2,0,0,1,0,4Zm-13,0h-3a2,2,0,1,1,0-4h3a2,2,0,0,1,0,4Zm-13,0h-3a2,2,0,1,1,0-4h3a2,2,0,0,1,0,4Z"/><path class="cls-8" d="M351.3,538.42h-.78a2,2,0,0,1,0-4h.78a2,2,0,1,1,0,4Zm-10.78,0h-3a2,2,0,0,1,0-4h3a2,2,0,0,1,0,4Zm-13,0h-3a2,2,0,0,1,0-4h3a2,2,0,0,1,0,4Zm-13,0h-3a2,2,0,0,1,0-4h3a2,2,0,0,1,0,4Zm-13,0h-3a2,2,0,0,1,0-4h3a2,2,0,0,1,0,4Zm-13,0h-3a2,2,0,0,1,0-4h3a2,2,0,0,1,0,4Zm-13,0h-3a2,2,0,0,1,0-4h3a2,2,0,0,1,0,4Zm-13,0h-3a2,2,0,0,1,0-4h3a2,2,0,0,1,0,4Zm-13,0h-3a2,2,0,1,1,0-4h3a2,2,0,0,1,0,4Zm-13,0h-3a2,2,0,1,1,0-4h3a2,2,0,0,1,0,4Zm-13,0h-3a2,2,0,1,1,0-4h3a2,2,0,0,1,0,4Zm-13,0h-3a2,2,0,1,1,0-4h3a2,2,0,0,1,0,4Zm-13,0h-3a2,2,0,1,1,0-4h3a2,2,0,0,1,0,4Zm-13,0h-3a2,2,0,1,1,0-4h3a2,2,0,0,1,0,4Zm-13,0h-3a2,2,0,1,1,0-4h3a2,2,0,0,1,0,4Zm-13,0h-3a2,2,0,1,1,0-4h3a2,2,0,0,1,0,4Zm-13,0h-3a2,2,0,1,1,0-4h3a2,2,0,0,1,0,4Zm-13,0h-3a2,2,0,0,1,0-4h3a2,2,0,0,1,0,4Zm-13,0h-3a2,2,0,1,1,0-4h3a2,2,0,0,1,0,4Zm-13,0h-3a2,2,0,1,1,0-4h3a2,2,0,0,1,0,4Zm-13,0h-3a2,2,0,1,1,0-4h3a2,2,0,0,1,0,4Zm-13,0h-3a2,2,0,1,1,0-4h3a2,2,0,0,1,0,4Z"/><path class="cls-8" d="M351.3,563.81h-.78a2,2,0,0,1,0-4h.78a2,2,0,0,1,0,4Zm-10.78,0h-3a2,2,0,0,1,0-4h3a2,2,0,0,1,0,4Zm-13,0h-3a2,2,0,0,1,0-4h3a2,2,0,0,1,0,4Zm-13,0h-3a2,2,0,0,1,0-4h3a2,2,0,0,1,0,4Zm-13,0h-3a2,2,0,0,1,0-4h3a2,2,0,0,1,0,4Zm-13,0h-3a2,2,0,0,1,0-4h3a2,2,0,0,1,0,4Zm-13,0h-3a2,2,0,0,1,0-4h3a2,2,0,0,1,0,4Zm-13,0h-3a2,2,0,0,1,0-4h3a2,2,0,0,1,0,4Zm-13,0h-3a2,2,0,1,1,0-4h3a2,2,0,0,1,0,4Zm-13,0h-3a2,2,0,1,1,0-4h3a2,2,0,0,1,0,4Zm-13,0h-3a2,2,0,1,1,0-4h3a2,2,0,0,1,0,4Zm-13,0h-3a2,2,0,1,1,0-4h3a2,2,0,0,1,0,4Zm-13,0h-3a2,2,0,1,1,0-4h3a2,2,0,0,1,0,4Zm-13,0h-3a2,2,0,1,1,0-4h3a2,2,0,0,1,0,4Zm-13,0h-3a2,2,0,1,1,0-4h3a2,2,0,0,1,0,4Zm-13,0h-3a2,2,0,1,1,0-4h3a2,2,0,0,1,0,4Zm-13,0h-3a2,2,0,1,1,0-4h3a2,2,0,0,1,0,4Zm-13,0h-3a2,2,0,0,1,0-4h3a2,2,0,0,1,0,4Zm-13,0h-3a2,2,0,1,1,0-4h3a2,2,0,0,1,0,4Zm-13,0h-3a2,2,0,1,1,0-4h3a2,2,0,0,1,0,4Zm-13,0h-3a2,2,0,1,1,0-4h3a2,2,0,0,1,0,4Zm-13,0h-3a2,2,0,1,1,0-4h3a2,2,0,0,1,0,4Z"/><path class="cls-8" d="M351.3,589.21h-.78a2,2,0,0,1,0-4h.78a2,2,0,0,1,0,4Zm-10.78,0h-3a2,2,0,0,1,0-4h3a2,2,0,0,1,0,4Zm-13,0h-3a2,2,0,0,1,0-4h3a2,2,0,0,1,0,4Zm-13,0h-3a2,2,0,0,1,0-4h3a2,2,0,0,1,0,4Zm-13,0h-3a2,2,0,0,1,0-4h3a2,2,0,0,1,0,4Zm-13,0h-3a2,2,0,0,1,0-4h3a2,2,0,0,1,0,4Zm-13,0h-3a2,2,0,0,1,0-4h3a2,2,0,0,1,0,4Zm-13,0h-3a2,2,0,0,1,0-4h3a2,2,0,0,1,0,4Zm-13,0h-3a2,2,0,1,1,0-4h3a2,2,0,0,1,0,4Zm-13,0h-3a2,2,0,1,1,0-4h3a2,2,0,0,1,0,4Zm-13,0h-3a2,2,0,1,1,0-4h3a2,2,0,0,1,0,4Zm-13,0h-3a2,2,0,1,1,0-4h3a2,2,0,0,1,0,4Zm-13,0h-3a2,2,0,1,1,0-4h3a2,2,0,0,1,0,4Zm-13,0h-3a2,2,0,1,1,0-4h3a2,2,0,0,1,0,4Zm-13,0h-3a2,2,0,1,1,0-4h3a2,2,0,0,1,0,4Zm-13,0h-3a2,2,0,1,1,0-4h3a2,2,0,0,1,0,4Zm-13,0h-3a2,2,0,1,1,0-4h3a2,2,0,0,1,0,4Zm-13,0h-3a2,2,0,0,1,0-4h3a2,2,0,0,1,0,4Zm-13,0h-3a2,2,0,1,1,0-4h3a2,2,0,0,1,0,4Zm-13,0h-3a2,2,0,1,1,0-4h3a2,2,0,0,1,0,4Zm-13,0h-3a2,2,0,1,1,0-4h3a2,2,0,0,1,0,4Zm-13,0h-3a2,2,0,1,1,0-4h3a2,2,0,0,1,0,4Z"/><path class="cls-8" d="M351.3,614.6h-.78a2,2,0,0,1,0-4h.78a2,2,0,1,1,0,4Zm-10.78,0h-3a2,2,0,0,1,0-4h3a2,2,0,0,1,0,4Zm-13,0h-3a2,2,0,0,1,0-4h3a2,2,0,0,1,0,4Zm-13,0h-3a2,2,0,0,1,0-4h3a2,2,0,0,1,0,4Zm-13,0h-3a2,2,0,0,1,0-4h3a2,2,0,0,1,0,4Zm-13,0h-3a2,2,0,0,1,0-4h3a2,2,0,0,1,0,4Zm-13,0h-3a2,2,0,0,1,0-4h3a2,2,0,0,1,0,4Zm-13,0h-3a2,2,0,0,1,0-4h3a2,2,0,0,1,0,4Zm-13,0h-3a2,2,0,1,1,0-4h3a2,2,0,0,1,0,4Zm-13,0h-3a2,2,0,1,1,0-4h3a2,2,0,0,1,0,4Zm-13,0h-3a2,2,0,1,1,0-4h3a2,2,0,0,1,0,4Zm-13,0h-3a2,2,0,1,1,0-4h3a2,2,0,0,1,0,4Zm-13,0h-3a2,2,0,1,1,0-4h3a2,2,0,0,1,0,4Zm-13,0h-3a2,2,0,1,1,0-4h3a2,2,0,0,1,0,4Zm-13,0h-3a2,2,0,1,1,0-4h3a2,2,0,0,1,0,4Zm-13,0h-3a2,2,0,1,1,0-4h3a2,2,0,0,1,0,4Zm-13,0h-3a2,2,0,1,1,0-4h3a2,2,0,0,1,0,4Zm-13,0h-3a2,2,0,0,1,0-4h3a2,2,0,0,1,0,4Zm-13,0h-3a2,2,0,1,1,0-4h3a2,2,0,0,1,0,4Zm-13,0h-3a2,2,0,1,1,0-4h3a2,2,0,0,1,0,4Zm-13,0h-3a2,2,0,1,1,0-4h3a2,2,0,0,1,0,4Zm-13,0h-3a2,2,0,1,1,0-4h3a2,2,0,0,1,0,4Z"/><path class="cls-8" d="M351.3,640h-.78a2,2,0,0,1,0-4h.78a2,2,0,0,1,0,4Zm-10.78,0h-3a2,2,0,0,1,0-4h3a2,2,0,0,1,0,4Zm-13,0h-3a2,2,0,0,1,0-4h3a2,2,0,0,1,0,4Zm-13,0h-3a2,2,0,0,1,0-4h3a2,2,0,0,1,0,4Zm-13,0h-3a2,2,0,0,1,0-4h3a2,2,0,0,1,0,4Zm-13,0h-3a2,2,0,0,1,0-4h3a2,2,0,0,1,0,4Zm-13,0h-3a2,2,0,0,1,0-4h3a2,2,0,0,1,0,4Zm-13,0h-3a2,2,0,0,1,0-4h3a2,2,0,0,1,0,4Zm-13,0h-3a2,2,0,1,1,0-4h3a2,2,0,0,1,0,4Zm-13,0h-3a2,2,0,1,1,0-4h3a2,2,0,0,1,0,4Zm-13,0h-3a2,2,0,1,1,0-4h3a2,2,0,0,1,0,4Zm-13,0h-3a2,2,0,1,1,0-4h3a2,2,0,0,1,0,4Zm-13,0h-3a2,2,0,1,1,0-4h3a2,2,0,0,1,0,4Zm-13,0h-3a2,2,0,1,1,0-4h3a2,2,0,0,1,0,4Zm-13,0h-3a2,2,0,1,1,0-4h3a2,2,0,0,1,0,4Zm-13,0h-3a2,2,0,1,1,0-4h3a2,2,0,0,1,0,4Zm-13,0h-3a2,2,0,1,1,0-4h3a2,2,0,0,1,0,4Zm-13,0h-3a2,2,0,0,1,0-4h3a2,2,0,0,1,0,4Zm-13,0h-3a2,2,0,1,1,0-4h3a2,2,0,0,1,0,4Zm-13,0h-3a2,2,0,1,1,0-4h3a2,2,0,0,1,0,4Zm-13,0h-3a2,2,0,1,1,0-4h3a2,2,0,0,1,0,4Zm-13,0h-3a2,2,0,1,1,0-4h3a2,2,0,0,1,0,4Z"/></g><rect class="cls-8" x="144.5" y="367.5" width="28" height="87" rx="11.34" transform="translate(-268.42 302.46) rotate(-54.65)"/></g><g id="neck"><path class="cls-11" d="M285.59,175.57v48.89s28.82,37.08,53.82,0V179.58Z"/></g><g id="head"><path class="cls-12" d="M399.89,72.7a25,25,0,0,0-14.15-20.27A25,25,0,0,0,351.28,33,25,25,0,0,0,319,29.29a25,25,0,0,0-38.41,15.3A25,25,0,0,0,265.29,83a25,25,0,0,0,3,31.61,25,25,0,1,0,46.84,17,25,25,0,0,0,6.63-6.66A24.87,24.87,0,0,0,338,118.34a25,25,0,0,0,26.41-.23,25,25,0,0,0,31.15-28.87A24.83,24.83,0,0,0,399.89,72.7Z"/><path class="cls-12" d="M273,84s-13,8.62-12,19.81-11,18.42-3,27.3,14,9.53,9,18.89,2.8,15.76,10.9,20.88,2.62,12.46,14.36,14.29,6.21-39.66,6.21-39.66Z"/><path class="cls-5" d="M385.76,94.49c3.18-4.87,11,82.43-9.89,102.4s-63.31,30.28-83.61-11.72c0,0,3.8-18.45,3.14-22.19,0,0-13.44-1.52-18.44-13.34s3.36-17.36,5.88-17.27,12-1.26,15.63,13.14c0,0,11.3-15.74,10.15-24.11l8-4.79S371.62,116.14,385.76,94.49Z"/><ellipse cx="337.3" cy="141.83" rx="4.02" ry="10.72" transform="translate(57.87 378.06) rotate(-63.02)"/><ellipse cx="372.3" cy="141.83" rx="10.72" ry="4.02" transform="translate(-22.5 88.43) rotate(-13.15)"/><path d="M343.66,159H333.34A12.36,12.36,0,0,1,321,146.66v-7a12.35,12.35,0,0,1,12.34-12.34h10.32A12.35,12.35,0,0,1,356,139.64v7A12.36,12.36,0,0,1,343.66,159Zm-10.32-29.7A10.35,10.35,0,0,0,323,139.64v7A10.35,10.35,0,0,0,333.34,157h10.32A10.35,10.35,0,0,0,354,146.66v-7a10.35,10.35,0,0,0-10.34-10.34Z"/><path d="M376.66,158H366.34A12.36,12.36,0,0,1,354,145.66v-7a12.35,12.35,0,0,1,12.34-12.34h10.32A12.35,12.35,0,0,1,389,138.64v7A12.36,12.36,0,0,1,376.66,158Zm-10.32-29.7A10.35,10.35,0,0,0,356,138.64v7A10.35,10.35,0,0,0,366.34,156h10.32A10.35,10.35,0,0,0,387,145.66v-7a10.35,10.35,0,0,0-10.34-10.34Z"/><path d="M322,144.15h-.14l-22-3.15a1,1,0,0,1-.85-1.13,1,1,0,0,1,1.13-.85l22,3.15a1,1,0,0,1-.14,2Z"/><path class="cls-12" d="M272,71s-18.54,2.52-16.77,10.76-8.86.82-6.54,12.53S258.35,113,260.18,115s25.66,0,25.66,0Z"/></g></svg>