<svg xmlns="http://www.w3.org/2000/svg" xmlns:xlink="http://www.w3.org/1999/xlink" viewBox="0 0 619 1080"><defs><style>.cls-1{fill:none;}.cls-2{fill:#e85e38;}.cls-3{fill:#4d4d4d;}.cls-4{fill:#ff8358;}.cls-5{fill:#333;}.cls-6{fill:#ceaa93;}.cls-7{fill:#dbbaa1;}.cls-8{fill:#c69c6d;}.cls-9{fill:#a67c52;}.cls-10{clip-path:url(#clip-path);}.cls-11{fill:#39b54a;}.cls-12{fill:#c1272d;}</style><clipPath id="clip-path"><polygon class="cls-1" points="45.3 549.5 72.63 635.82 95.04 613.96 65.5 529.8 45.3 549.5"/></clipPath></defs><g id="calf_l"><rect class="cls-2" x="168.29" y="819.05" width="234.41" height="68.29" rx="15.1" transform="translate(-575.56 592.37) rotate(-54.65)"/><path d="M291.05,1017c8.87-8.31-10.54-38.87-23.84-57-4.38-6-8.14-10.7-9.93-12.71-8.86-10-18.22-20.22-30.5-25.29,0,0,1.66,3.19,2.68,5.21-.6-1.05-1.51-2.76-2.8-5.25h0l.12,0-.48-.69c.11.22.23.42.35.63l-.08-.06c-.53-.21-1.11-.45-1.65-.62-10.29-3.63-23-2.28-30.8,4.59-4.65,4-7.59,10.07-7.39,18.14a27.85,27.85,0,0,0,2.47,10.71c5.39,12.28,16.39,19.93,27.05,27.28q21.42,14.67,42.76,29.36c7.12,4.89,15.76,8.43,22.69,8.62C285.49,1020,288.78,1019.17,291.05,1017Z"/></g><g id="thigh_l"><rect class="cls-2" x="215.58" y="623.06" width="262.16" height="76.37" rx="15.1" transform="translate(-324.83 987.63) rotate(-88.26)"/><rect class="cls-3" x="287.01" y="549.3" width="129.97" height="91.96" rx="15.1" transform="translate(-253.72 929) rotate(-88.26)"/></g><g id="calf_r"><rect class="cls-4" x="327.19" y="772.81" width="68.29" height="234.41" rx="15.1" transform="translate(-283.55 178.1) rotate(-20.08)"/><path d="M457.88,914.8c-9.07-8.09-37.76,14-54.65,28.88-5.62,4.9-9.92,9.07-11.77,11-9.13,9.72-18.49,20-22.44,32.65,0,0,3-1.93,5-3.13-1,.68-2.61,1.75-5,3.26h0a.61.61,0,0,0,.05-.12l-.65.54.6-.41-.06.08c-.16.55-.35,1.15-.46,1.7-2.7,10.58-.21,23.08,7.34,30.27,4.44,4.26,10.71,6.65,18.73,5.72a27.69,27.69,0,0,0,10.44-3.42c11.75-6.48,18.38-18.12,24.74-29.4q12.67-22.65,25.39-45.23c4.23-7.53,7-16.45,6.54-23.38C461.39,920.07,460.24,916.87,457.88,914.8Z"/></g><g id="thigh_r"><rect class="cls-4" x="253.54" y="547.58" width="76.37" height="262.16" rx="15.1" transform="translate(-189.65 118.34) rotate(-17.41)"/><rect class="cls-5" x="219.62" y="551.83" width="93.96" height="110.81" rx="15.1" transform="translate(-169.43 107.55) rotate(-17.41)"/></g><g id="lower_arm_l" data-name="lower arm_l"><circle class="cls-4" cx="530.54" cy="541.07" r="30.81"/><rect class="cls-4" x="459.98" y="383.82" width="41.78" height="170.66" rx="19.89" transform="translate(-181.87 359.08) rotate(-34.86)"/></g><g id="upper_arm_l" data-name="upper arm_l"><rect class="cls-6" x="373.55" y="228.34" width="68.29" height="202.46" rx="19.89" transform="translate(-94.79 180.1) rotate(-22.39)"/></g><g id="body_1"><path class="cls-7" d="M292.48,215.64s-35.26,7.38-68,21.88c0,0-15.64,82.75-16.9,106.21s-.08,59.5,0,82S178.31,597.64,173,604.8c0,0,226.48,28.63,272-15.13,0,0-42.62-197.41-42.86-225.71s2.14-129.84-3.73-133.7S369.15,215.63,342,213.7A227.65,227.65,0,0,0,292.48,215.64Z"/><path d="M355,215.3s43.11,393.56,59.56,424.13S491,665,488,626s-48-200.26-48-200.26l-7,2.86S456,509,451,513s-39.21,14.51-46.61-2.75S360.9,216.44,360.9,216.44Z"/></g><g id="lower_arm_r" data-name="lower arm_r"><circle class="cls-4" cx="96.46" cy="541.12" r="30.81"/><rect class="cls-4" x="45.54" y="448.26" width="170.66" height="41.78" rx="19.89" transform="translate(-349.12 386.43) rotate(-64.63)"/><polygon class="cls-8" points="45.3 549.5 72.63 635.82 95.04 613.96 65.5 529.8 45.3 549.5"/><polygon class="cls-9" points="114.42 568.73 65.5 529.8 95.04 613.96 114.42 568.73"/><polygon class="cls-9" points="114.42 568.73 65.5 529.8 95.04 613.96 114.42 568.73"/><g class="cls-10"><rect class="cls-11" x="64.34" y="537.27" width="4" height="104.46" transform="matrix(0.95, -0.32, 0.32, 0.95, -184.56, 51.95)"/><rect class="cls-12" x="72.34" y="527.27" width="4" height="104.46" transform="matrix(0.95, -0.32, 0.32, 0.95, -180.95, 53.98)"/></g></g><g id="upper_arm_r" data-name="upper arm_r"><rect class="cls-7" x="102.84" y="299.94" width="202.46" height="68.29" rx="19.89" transform="translate(-187.29 343.77) rotate(-60)"/></g><g id="neck"><path class="cls-2" d="M285.59,175.57v48.89s28.82,37.08,53.82,0V179.58Z"/></g><g id="head"><path d="M371.22,104.23l-25.53,6.38a49.68,49.68,0,0,0,10-7.29c1.53-1.48,5.43-3.33,5.47-4.56.16-4.94-1.06,5.21-1.06,5.21s4.71-4.49-14.44,2.44-9.95.91-9.95.91l1.75-3.09-12.76,4.56-1.28-5.44L312,113.06v21.55l-3.94,1.8,7.52,20.79L300.7,177.1l-2.18,12.07s-5.7-6.54-12.09-15.65c-6-8.58-11.73-18.21-13.73-28.62-2.62-13.66-6.62-27.94-8.58-41.87-1.86-13.18,5-23.49,12.21-33.87C285.2,56.42,296.52,44.45,312.24,41a45.66,45.66,0,0,1,17.93-.27c2.86.52,6.38,1.15,8.94,2.61,2.12,1.21,3.56,3.38,6.13,3.91,4.75,1,8.9-5.29,14.25-5,11.77.72,23.55,6.9,31.57,15.43,7.77,8.26,10.46,20,10.94,31s-.29,24-5.65,33.8a180.22,180.22,0,0,0-10.54,24.19l-9.12-37Z"/><path class="cls-4" d="M386,86c5.14-2.71,10.72,90.92-10.13,110.89s-63.31,30.28-83.61-11.72c0,0,3.8-18.45,3.14-22.19,0,0-13.44-1.52-18.44-13.34s3.36-17.36,5.88-17.27,12-1.26,15.63,13.14c0,0,9.69-38.14,8.53-46.51V86s21.93,5.76,44,3C359,88,381.24,88.51,386,86Z"/><path d="M327.32,140.54c.31-2.2,5.31-3.32,11.18-2.49s10.36,3.27,10.05,5.47"/><path d="M361.7,143.86c-.42-2.18,4-4.85,9.77-6s10.86-.25,11.28,1.93"/><path d="M391.34,89.64s-20,15.5-26.43,18.24a48,48,0,0,1-11.86,3.38l12-10.81s-14.85,5.41-19.35,6,11.61-5,13.59-11.35c0,0-5.31,5.52-17.17,8.26s4.56-7.3,5.47-10A44.52,44.52,0,0,0,349,86l-29,14,11-11s-20,14-23,18c-1.65,2.2-9,10-9,10l6.65-32.12,71.11-12.73Z"/><path d="M292,185s61.87,34.89,89,5c0,0-13.24,33.33-56.62,23.17S299.36,202,292,185Z"/></g></svg>