<svg xmlns="http://www.w3.org/2000/svg" viewBox="0 0 140.27 144.41"><defs><style>.cls-1{fill:#e85e38;}</style></defs><g id="圖層_2" data-name="圖層 2"><g id="圖層_1-2" data-name="圖層 1"><path d="M130.11,43.68h0a1,1,0,0,1-1-1l.33-40.27a1,1,0,0,1,1-1h0a1,1,0,0,1,1,1l-.33,40.26A1,1,0,0,1,130.11,43.68Z"/><path d="M120.62,28.94a1,1,0,0,1,1.38.32l8.11,13,8.32-12.84a1,1,0,1,1,1.68,1.09l-9.18,14.15a1,1,0,0,1-1.68,0l-9-14.3a1.08,1.08,0,0,1-.15-.54A1,1,0,0,1,120.62,28.94Z"/><rect x="25.7" width="69.91" height="35.41"/><path class="cls-1" d="M103.78,55.56h-10a2,2,0,0,1,0-4h8V42.94a2,2,0,0,1,4,0v10c0,.1,0,.21,0,.31s0,.21,0,.31A2,2,0,0,1,103.78,55.56Zm-20,0h-10a2,2,0,0,1,0-4h10a2,2,0,0,1,0,4Zm-20,0h-10a2,2,0,0,1,0-4h10a2,2,0,0,1,0,4Zm-20,0H33.87a2,2,0,0,1-2-2,2,2,0,0,1,2-2,2.12,2.12,0,0,1,.44,0h9.47a2,2,0,0,1,0,4ZM33.87,45.47a2,2,0,0,1-2-2v-10a2,2,0,0,1,4,0v10A2,2,0,0,1,33.87,45.47Zm69.91-10.53a2,2,0,0,1-2-2v-10a2,2,0,1,1,4,0v10A2,2,0,0,1,103.78,34.94ZM33.87,25.47a2,2,0,0,1-2-2V18.16a2,2,0,0,1,2-2h4.69a2,2,0,0,1,0,4H35.87v3.31A2,2,0,0,1,33.87,25.47Zm64.69-5.31h-10a2,2,0,0,1,0-4h10a2,2,0,0,1,0,4Zm-20,0h-10a2,2,0,0,1,0-4h10a2,2,0,0,1,0,4Zm-20,0h-10a2,2,0,0,1,0-4h10a2,2,0,0,1,0,4Z"/><path d="M82.92,55.26a2.83,2.83,0,0,0-1.14.26,2.69,2.69,0,0,0-2.18-1.1,2.24,2.24,0,0,0-1.23.32,2.69,2.69,0,0,0-2.08-1,4.48,4.48,0,0,0-.62.06V47.66a2.73,2.73,0,1,0-5.45,0V59.09l-1.33-2A2.49,2.49,0,0,0,67.2,56a2.84,2.84,0,0,0-2,.45A2.92,2.92,0,0,0,64,58.12a2.46,2.46,0,0,0,.29,2c.06.1,5.45,8.25,6.4,9.64a3.9,3.9,0,0,0,.58.72v3.93a1.42,1.42,0,0,0,1.43,1.42h8.9a1.41,1.41,0,0,0,1.43-1.42V71a7.07,7.07,0,0,0,2.5-5.23V58A2.68,2.68,0,0,0,82.92,55.26Zm1,10.39v.13A5.41,5.41,0,0,1,82,69.87H73a5,5,0,0,1-.94-1c-1-1.37-6.34-9.55-6.37-9.65a.9.9,0,0,1-.1-.71,1.27,1.27,0,0,1,.56-.75,1.38,1.38,0,0,1,.71-.22H67a.79.79,0,0,1,.62.39l2.76,4.15a.8.8,0,0,0,.88.33.78.78,0,0,0,.55-.75v-14a1.17,1.17,0,0,1,2.34,0V58.8a.78.78,0,1,0,1.55,0V55.49a1.33,1.33,0,0,1,.62-.16,1.19,1.19,0,0,1,1.07.71v3a.78.78,0,0,0,1.56,0V56.23a1.18,1.18,0,0,1,.72-.26,1.15,1.15,0,0,1,1.1.82v2.59a.78.78,0,1,0,1.56,0V57.05a1.21,1.21,0,0,1,.68-.23A1.08,1.08,0,0,1,84,58v7.66Z"/><rect y="90.85" width="43.88" height="24.18"/><rect y="120.23" width="43.88" height="24.18"/><path class="cls-1" d="M20.66,96.2a.7.7,0,0,1,.5.21.73.73,0,0,1,.21.52v12.3a4.75,4.75,0,0,1-.29,1.84,2.12,2.12,0,0,1-1,1,8.89,8.89,0,0,1-3.49.53.74.74,0,0,1-.53-.21.87.87,0,0,1-.33-.51,10.87,10.87,0,0,0-.55-1.67.47.47,0,0,1,0-.43.39.39,0,0,1,.38-.18c.56,0,1,0,1.45,0l.71,0a.7.7,0,0,0,.41-.1.47.47,0,0,0,.12-.37V99.26c0-.06,0-.08-.1-.08H6.87c-.07,0-.1,0-.1.08v12.6a.69.69,0,0,1-.21.5.66.66,0,0,1-.5.21H4.46a.67.67,0,0,1-.49-.21.66.66,0,0,1-.22-.5V96.93A.7.7,0,0,1,4,96.41a.67.67,0,0,1,.49-.21h5c.07,0,.11,0,.12-.08a23.49,23.49,0,0,0,.8-2.63.85.85,0,0,1,.32-.47.71.71,0,0,1,.43-.14h.12l2.49.34a.53.53,0,0,1,.4.28.48.48,0,0,1,0,.48c-.39.84-.75,1.55-1.06,2.14,0,0,0,.08,0,.08Zm-4,11.18a.64.64,0,0,1-.22.49.67.67,0,0,1-.52.22H11.26c-.07,0-.11,0-.11.1v.61a.73.73,0,0,1-.2.52.67.67,0,0,1-.51.22H9.15a.73.73,0,0,1-.73-.74v-7.3a.69.69,0,0,1,.21-.51.77.77,0,0,1,.52-.2H15.9a.73.73,0,0,1,.52.2.67.67,0,0,1,.22.51Zm-2.78-3.88s0-.08-.1-.08h-2.5c-.07,0-.11,0-.11.08v1.88c0,.05,0,.08.11.08h2.5c.07,0,.1,0,.1-.08Z"/><path class="cls-1" d="M42.84,96.63a.72.72,0,0,1-.21.52.73.73,0,0,1-.52.21h-7.4c-.07,0-.11,0-.11.08v2.9s0,0,0,0,0,0,0,0a.91.91,0,0,1,.51-.31.9.9,0,0,1,.6.09,47.39,47.39,0,0,1,5.77,3.42.62.62,0,0,1,.27.47.71.71,0,0,1-.15.53l-1.37,1.67a.67.67,0,0,1-.48.25.71.71,0,0,1-.52-.17,40,40,0,0,0-4.6-3.1c-.06,0-.09,0-.09.05v8.56a.72.72,0,0,1-.2.5.69.69,0,0,1-.51.21H32.05a.69.69,0,0,1-.51-.21.72.72,0,0,1-.2-.5V97.44s0-.08-.1-.08H24.75a.73.73,0,0,1-.52-.21.72.72,0,0,1-.21-.52V95a.73.73,0,0,1,.73-.74H42.11a.73.73,0,0,1,.73.74Z"/><path d="M49.27,100a.65.65,0,0,1,.29.46.68.68,0,0,1-.11.54l-.94,1.35a.61.61,0,0,1-.45.28.69.69,0,0,1-.53-.14A16.33,16.33,0,0,0,45,101.05a.61.61,0,0,1-.32-.38.5.5,0,0,1,0-.17.51.51,0,0,1,.1-.32l.79-1.13A1,1,0,0,1,46,98.7a1,1,0,0,1,.62,0A18.47,18.47,0,0,1,49.27,100ZM47.94,111.7a.63.63,0,0,1-.43.31.6.6,0,0,1-.53-.11l-1.47-1.06a.7.7,0,0,1-.3-.47v-.14a.8.8,0,0,1,.1-.41,58.73,58.73,0,0,0,3-5.38.56.56,0,0,1,.39-.31.57.57,0,0,1,.49.12l1.2,1a.91.91,0,0,1,.31.51.9.9,0,0,1-.07.62C49.78,108.23,48.86,110,47.94,111.7Zm2.53-17.31a.6.6,0,0,1,.31.46.67.67,0,0,1-.13.55l-.92,1.31a.64.64,0,0,1-.45.27.69.69,0,0,1-.52-.15,16.85,16.85,0,0,0-2.51-1.47.58.58,0,0,1-.32-.38.59.59,0,0,1,.09-.51l.78-1.06a.79.79,0,0,1,.49-.35.82.82,0,0,1,.26,0,1,1,0,0,1,.35.06A18.54,18.54,0,0,1,50.47,94.39ZM63.36,99a.7.7,0,0,1,.5.21.66.66,0,0,1,.21.51v2.69a.7.7,0,0,1-.71.71H62.11s-.08,0-.08.11V110a3.51,3.51,0,0,1-.22,1.42,1.61,1.61,0,0,1-.82.78,6.55,6.55,0,0,1-2.51.39.84.84,0,0,1-.54-.2,1,1,0,0,1-.33-.5,9.42,9.42,0,0,0-.33-1,.48.48,0,0,1,.45-.63l1.12,0c.24,0,.37-.11.37-.34v-.31c0-.05,0-.08-.11-.08H54.87a.07.07,0,0,0-.08.08v2.22a.66.66,0,0,1-.21.51.72.72,0,0,1-.52.21H52.73a.73.73,0,0,1-.52-.21.66.66,0,0,1-.21-.51v-8.64c0-.07,0-.11-.08-.11h-1a.69.69,0,0,1-.52-.2.67.67,0,0,1-.22-.51V99.75a.64.64,0,0,1,.22-.51.7.7,0,0,1,.52-.21h1s.08,0,.08-.1V94.2a.72.72,0,0,1,.73-.73h8.71a.72.72,0,0,1,.73.73v4.73c0,.07,0,.1.08.1Zm-2.29,3c.07,0,.1,0,.1-.08v-.55c0-.07,0-.1-.1-.1H53c-.07,0-.1,0-.1.1V102c0,.06,0,.08.1.08Zm-6.32-6.28c-.07,0-.1,0-.1.08v3.1c0,.07,0,.1.1.1h.82a.09.09,0,0,0,.1-.1V97.16a.7.7,0,0,1,.71-.72h2.78a.09.09,0,0,0,.1-.1v-.51s0-.08-.1-.08Zm0,9c0,.06,0,.09.08.09h4.24c.07,0,.11,0,.11-.09v-.34c0-.06,0-.08-.11-.08H54.87s-.08,0-.08.08Zm0,2.66a.07.07,0,0,0,.08.08h4.24c.07,0,.11,0,.11-.08V107c0-.06,0-.08-.11-.08H54.87s-.08,0-.08.08Zm3.1-8.47a.09.09,0,0,0,.1.1h1.17a.09.09,0,0,0,.1-.1v-.61s0-.08-.1-.08H58c-.06,0-.1,0-.1.08Z"/><path d="M80.53,97.3c0,.07,0,.1.1.1h3.3a.72.72,0,0,1,.72.72v.57q-.15,6.72-.33,9.3a8.25,8.25,0,0,1-.65,3.28,2.76,2.76,0,0,1-.78.81,3.16,3.16,0,0,1-1,.39,8.43,8.43,0,0,1-1.83.15H80a.77.77,0,0,1-.54-.22,1,1,0,0,1-.28-.52,7.58,7.58,0,0,0-.47-1.51.45.45,0,0,1,0-.42.4.4,0,0,1,.36-.17l1.24,0a.84.84,0,0,0,.72-.37,6.67,6.67,0,0,0,.43-2.44q.17-2,.22-6.73c0-.06,0-.08-.08-.08H80.55c-.07,0-.11,0-.11.08a30,30,0,0,1-1.12,7.23,10.79,10.79,0,0,1-3,4.82.52.52,0,0,1-.48.16.65.65,0,0,1-.46-.28,9.85,9.85,0,0,0-.88-1,.2.2,0,0,0-.14-.06l-8.08.75a.72.72,0,0,1-.54-.17.76.76,0,0,1-.27-.5l-.15-1.06a.67.67,0,0,1,.16-.52.6.6,0,0,1,.48-.24l3.28-.2a.1.1,0,0,0,.08-.1v-.72c0-.06,0-.1-.08-.1H66.56a.73.73,0,0,1-.52-.2.7.7,0,0,1-.22-.51v-.67a.7.7,0,0,1,.22-.5.67.67,0,0,1,.52-.22h2.69s.08,0,.08-.1v-.35c0-.06,0-.1-.08-.1H66.64a.73.73,0,0,1-.74-.71v-5.2a.67.67,0,0,1,.22-.51.72.72,0,0,1,.52-.21h2.61s.08,0,.08-.1v-.32c0-.07,0-.11-.08-.11H66.13a.72.72,0,0,1-.71-.71v-.71a.66.66,0,0,1,.21-.51.69.69,0,0,1,.5-.21h3.12s.08,0,.08-.1v-.3c0-.07,0-.11-.08-.11-.84.06-1.68.09-2.51.11a.79.79,0,0,1-.55-.18,1,1,0,0,1-.33-.5c-.06-.26-.14-.51-.22-.75a.57.57,0,0,1,0-.48.51.51,0,0,1,.4-.24,60.16,60.16,0,0,0,7.6-.83h.21a1.24,1.24,0,0,1,.41.08,1,1,0,0,1,.47.41l.55,1a.53.53,0,0,1,0,.49.48.48,0,0,1-.38.28c-.76.14-1.7.27-2.81.39-.07,0-.11,0-.11.1v.55c0,.07,0,.1.11.1h3a.7.7,0,0,1,.52.21.67.67,0,0,1,.22.51v.71a.73.73,0,0,1-.74.71h-3a.1.1,0,0,0-.11.11v.32c0,.07,0,.1.11.1h2.69a.7.7,0,0,1,.71.72v5.2a.74.74,0,0,1-.2.5.69.69,0,0,1-.51.21H72.17a.1.1,0,0,0-.11.1v.35c0,.07,0,.1.11.1H75a.73.73,0,0,1,.73.72v1.3a0,0,0,0,0,0,0h0a10.69,10.69,0,0,0,1.31-3.38,28.66,28.66,0,0,0,.53-4.57c0-.07,0-.1-.1-.1h-.84a.66.66,0,0,1-.5-.22.7.7,0,0,1-.21-.52V98.12a.69.69,0,0,1,.21-.5.66.66,0,0,1,.5-.22h.9c.07,0,.1,0,.1-.1V93.88a.69.69,0,0,1,.21-.5.68.68,0,0,1,.5-.22h1.47a.75.75,0,0,1,.72.72C80.55,95.33,80.54,96.47,80.53,97.3Zm-12.14,3.55c-.07,0-.1,0-.1.08v.45c0,.05,0,.08.1.08h.86a.07.07,0,0,0,.08-.08v-.45a.07.07,0,0,0-.08-.08Zm-.1,2.87c0,.06,0,.09.1.09h.86s.08,0,.08-.09v-.44c0-.07,0-.11-.08-.11h-.86c-.07,0-.1,0-.1.11Zm4.81-2.79c0-.05,0-.08-.1-.08h-.83c-.07,0-.11,0-.11.08v.45c0,.05,0,.08.11.08H73c.07,0,.1,0,.1-.08Zm-.1,2.88c.07,0,.1,0,.1-.09v-.44c0-.07,0-.11-.1-.11h-.83a.1.1,0,0,0-.11.11v.44c0,.06,0,.09.11.09Zm-.83,4.48a.1.1,0,0,0-.11.1v.53c0,.06,0,.09.11.09l3.14-.25a.19.19,0,0,0,.14-.08c.08-.12.15-.22.2-.31s0-.08,0-.08Z"/><path d="M103.37,107.11a.73.73,0,0,1-.74.71h-2.4v0q2.89,1.06,4.89,2a.37.37,0,0,1,.22.37.4.4,0,0,1-.18.33l-1.86,1.22a1.11,1.11,0,0,1-1.24,0,32,32,0,0,0-4.61-2.1.38.38,0,0,1-.26-.32.39.39,0,0,1,.14-.39l1.24-1.07v0s0,0,0,0h-5s0,0,0,0v0l1.3,1.07a.4.4,0,0,1,.16.39.44.44,0,0,1-.26.38,37.16,37.16,0,0,1-5.59,2.18,1.11,1.11,0,0,1-.34.06,1,1,0,0,1-.8-.43c-.37-.43-.74-.84-1.12-1.24a.39.39,0,0,1-.12-.28.27.27,0,0,1,0-.13.37.37,0,0,1,.28-.28,26.36,26.36,0,0,0,4.61-1.74s0,0,0,0H89.58a.72.72,0,0,1-.71-.71V97.57a.69.69,0,0,1,.21-.5.66.66,0,0,1,.5-.22h4.49c.05,0,.08,0,.1-.08s.06-.39.1-.73c0-.06,0-.08-.08-.08H87.91a.75.75,0,0,1-.72-.72v-1.3a.71.71,0,0,1,.22-.52.66.66,0,0,1,.5-.22h16.15a.66.66,0,0,1,.5.22.7.7,0,0,1,.21.52v1.3a.69.69,0,0,1-.21.5.7.7,0,0,1-.5.22H97.9c-.07,0-.11,0-.12.08-.11.31-.2.55-.27.73s0,.08.06.08h5.06a.67.67,0,0,1,.52.22.7.7,0,0,1,.22.5Zm-11.26-8c-.06,0-.08,0-.08.08v.57s0,.08.08.08h7.83c.07,0,.1,0,.1-.08V99.2c0-.06,0-.08-.1-.08Zm0,2.85c-.06,0-.08,0-.08.08v.53c0,.07,0,.1.08.1h7.83c.07,0,.1,0,.1-.1v-.53s0-.08-.1-.08Zm0,2.86c-.06,0-.08,0-.08.08v.57s0,.08.08.08h7.83c.07,0,.1,0,.1-.08v-.57c0-.06,0-.08-.1-.08Z"/><path d="M126.53,95.53a.7.7,0,0,1-.21.5.73.73,0,0,1-.52.21h-7.35a.12.12,0,0,0-.12.08l-.43,1.31c0,.05,0,.08.07.08h6.93a.69.69,0,0,1,.5.21.73.73,0,0,1,.21.52v13a.69.69,0,0,1-.21.5.7.7,0,0,1-.5.22h-1.67a.7.7,0,0,1-.5-.22.67.67,0,0,1-.22-.52v-.2c0-.07,0-.1-.1-.1H111.28c-.07,0-.1,0-.1.1v.2a.71.71,0,0,1-.22.52.7.7,0,0,1-.5.22H109a.74.74,0,0,1-.52-.22.7.7,0,0,1-.21-.52v-13a.7.7,0,0,1,.21-.5.73.73,0,0,1,.52-.21h5.59a.1.1,0,0,0,.1-.08l.1-.65.09-.66s0-.08-.09-.08h-6.6a.7.7,0,0,1-.52-.21.72.72,0,0,1-.22-.5V94.1a.73.73,0,0,1,.74-.71H125.8a.73.73,0,0,1,.52.21.69.69,0,0,1,.21.5Zm-15.25,5a.09.09,0,0,0-.1.1v7.63c0,.07,0,.1.1.1h1.47s.08,0,.08-.1v-7.63c0-.06,0-.1-.08-.1Zm6.69,1s.08,0,.08-.1v-.78c0-.06,0-.1-.08-.1H115.6s-.08,0-.08.1v.78c0,.07,0,.1.08.1Zm0,3.45a.07.07,0,0,0,.08-.08v-.94c0-.06,0-.08-.08-.08H115.6s-.08,0-.08.08v.94a.07.07,0,0,0,.08.08Zm-2.37,2.34s-.08,0-.08.1v.86c0,.07,0,.1.08.1H118s.08,0,.08-.1v-.86c0-.06,0-.1-.08-.1Zm6.81,1.06c.07,0,.1,0,.1-.1v-7.63a.09.09,0,0,0-.1-.1h-1.55a.09.09,0,0,0-.1.1v7.63c0,.07,0,.1.1.1Z"/><path class="cls-1" d="M8,134.61h.57c.15,0,.26-.12.31-.36A11.83,11.83,0,0,0,9,132.76a.36.36,0,0,1,.21-.35.38.38,0,0,1,.4,0,7.65,7.65,0,0,0,1.39.63,1,1,0,0,1,.48.36.75.75,0,0,1,.13.56,5.77,5.77,0,0,1-.86,2.73,2.21,2.21,0,0,1-1.85.8H7.42a2.45,2.45,0,0,1-2.18-.83,6,6,0,0,1-.55-3.09v-3c0-.06,0-.09-.08-.09l-1,.19a.7.7,0,0,1-.55-.11.66.66,0,0,1-.29-.46l-.24-1.39v-.14a.73.73,0,0,1,.12-.41.72.72,0,0,1,.47-.29l1.47-.26a.1.1,0,0,0,.08-.1v-4.39a.73.73,0,0,1,.21-.52.7.7,0,0,1,.5-.21H7a.66.66,0,0,1,.51.21.73.73,0,0,1,.21.52V127c0,.06,0,.09.1.08l2.89-.53a.71.71,0,0,1,.53.12.7.7,0,0,1,.31.47l.22,1.32a.65.65,0,0,1-.11.56.66.66,0,0,1-.48.28L7.79,130c-.07,0-.1,0-.1.1v3.53a3.74,3.74,0,0,0,0,.86C7.77,134.56,7.86,134.61,8,134.61ZM10.44,124a.73.73,0,0,1,.2-.52.67.67,0,0,1,.51-.22H21.37a.68.68,0,0,1,.51.23.64.64,0,0,1,.2.49c0,.2,0,.47,0,.79-.11,5.4-.24,9.13-.38,11.21a9.8,9.8,0,0,1-.8,4,3.24,3.24,0,0,1-.92,1,3.52,3.52,0,0,1-1.16.47,10.06,10.06,0,0,1-2,.14h-.33a.81.81,0,0,1-.53-.22.92.92,0,0,1-.28-.51,9.08,9.08,0,0,0-.55-1.77.42.42,0,0,1,.05-.42.36.36,0,0,1,.36-.17c.47,0,1,0,1.69,0A.91.91,0,0,0,18,138a7.46,7.46,0,0,0,.61-3.14c.13-1.76.22-4.65.29-8.67,0-.07,0-.1-.08-.1H16.41a.09.09,0,0,0-.1.1c0,1,0,1.93-.08,2.69s-.11,1.6-.2,2.51a24.3,24.3,0,0,1-.37,2.41,19.61,19.61,0,0,1-.61,2.18,11.3,11.3,0,0,1-.91,2,12.45,12.45,0,0,1-1.25,1.77,9.76,9.76,0,0,1-1.68,1.59.68.68,0,0,1-.38.12.44.44,0,0,1-.15,0,.66.66,0,0,1-.44-.3A9.42,9.42,0,0,0,9,139.79a.54.54,0,0,1-.16-.41.5.5,0,0,1,.22-.44,8.4,8.4,0,0,0,1.45-1.33,10.11,10.11,0,0,0,1.06-1.46,8,8,0,0,0,.74-1.69,17.91,17.91,0,0,0,.47-1.8,16.61,16.61,0,0,0,.28-2c.07-.81.11-1.52.13-2.13s0-1.37,0-2.31c0-.07,0-.1-.1-.1h-2a.7.7,0,0,1-.71-.72Z"/><path class="cls-1" d="M29.2,130.76a.62.62,0,0,1,.51.1.61.61,0,0,1,.28.45l.19,1.28a.81.81,0,0,1-.13.57.8.8,0,0,1-.48.35l-1,.29a.11.11,0,0,0-.11.12v4.63a5,5,0,0,1-.2,1.61,1.85,1.85,0,0,1-.71.94,4.56,4.56,0,0,1-2.33.57h0a.73.73,0,0,1-.51-.21.84.84,0,0,1-.3-.51,12.5,12.5,0,0,0-.39-1.42.45.45,0,0,1,.07-.45.44.44,0,0,1,.4-.19h.41a3.25,3.25,0,0,0,.48,0,.35.35,0,0,0,.26-.07.33.33,0,0,0,.07-.25v-3.88c0-.06,0-.09-.08-.08l-.92.25a.65.65,0,0,1-.53-.07.68.68,0,0,1-.3-.44l-.33-1.49a1,1,0,0,1,0-.16.61.61,0,0,1,.12-.37A.68.68,0,0,1,24,132l.81-.17.72-.15a.13.13,0,0,0,.08-.13v-3c0-.07,0-.11-.08-.11H24.41a.69.69,0,0,1-.5-.21.7.7,0,0,1-.22-.5v-1.35a.72.72,0,0,1,.22-.5.69.69,0,0,1,.5-.21h1.16c.05,0,.08,0,.08-.1v-3a.67.67,0,0,1,.22-.51.73.73,0,0,1,.52-.2h1.32a.72.72,0,0,1,.5.2.69.69,0,0,1,.21.51v3c0,.07,0,.1.11.1h1.3a.29.29,0,0,1,.19.08.3.3,0,0,1,.08.21h0a8.9,8.9,0,0,0,2.75-3.49.87.87,0,0,1,.4-.46.91.91,0,0,1,.58-.11l1.35.2a.61.61,0,0,1,.4.3.47.47,0,0,1,0,.5,1.83,1.83,0,0,1-.14.28c0,.06,0,.08.06.08h2a1,1,0,0,1,.22,0,.82.82,0,0,1,.47.15l1,.61a.84.84,0,0,1,.35.48.78.78,0,0,1-.06.56c-.27.5-.6,1.05-1,1.65,0,0,0,.08,0,.08H41.7a.69.69,0,0,1,.51.21.72.72,0,0,1,.2.52V133a.68.68,0,0,1-.2.5.69.69,0,0,1-.51.21H40.6a.72.72,0,0,1-.52-.21.7.7,0,0,1-.22-.5v-.71c0-.07,0-.11-.08-.11H38.72a2.2,2.2,0,0,1-1.64-.45,2.9,2.9,0,0,1-.4-1.79v-.75c0-.06,0-.08-.1-.08h-.3c-.07,0-.11,0-.11.08a5.86,5.86,0,0,1-.51,1.85,3.22,3.22,0,0,1-1.16,1.31.6.6,0,0,1-.52.08.86.86,0,0,1-.46-.35c-.08-.09-.15-.19-.22-.28s0,0,0,0,0,0,0,0V133a.66.66,0,0,1-.22.5.7.7,0,0,1-.52.21h-1a.7.7,0,0,1-.5-.21.69.69,0,0,1-.21-.5v-5.44a.2.2,0,0,0-.06-.15l-.51-.47h-.05a.06.06,0,0,0,0,.06v.73a.7.7,0,0,1-.22.5.69.69,0,0,1-.5.21h-.85a.1.1,0,0,0-.11.11v2.34c0,.07,0,.1.11.08ZM43.05,136a.73.73,0,0,1-.22.52.69.69,0,0,1-.5.21H38.89c-.07,0-.09,0,0,.06A5.71,5.71,0,0,0,42.68,139a.33.33,0,0,1,.29.25.35.35,0,0,1-.07.38,11.61,11.61,0,0,0-.87,1.32.94.94,0,0,1-.43.43.76.76,0,0,1-.59.06,7.93,7.93,0,0,1-2.69-1.17,6.2,6.2,0,0,1-1.76-2l-.05,0,0,0q-1.45,2.25-5.38,3.27l-.21,0a.87.87,0,0,1-.37-.09.86.86,0,0,1-.42-.42,9.2,9.2,0,0,0-.72-1.15.5.5,0,0,1-.08-.26.78.78,0,0,1,0-.16.4.4,0,0,1,.33-.27,10.9,10.9,0,0,0,2.87-1,4.33,4.33,0,0,0,1.61-1.42s0-.06,0-.06H30.71a.7.7,0,0,1-.52-.21A.73.73,0,0,1,30,136v-1a.73.73,0,0,1,.74-.71h4.12c.07,0,.1,0,.1-.11s0-.46.08-.79a.75.75,0,0,1,.76-.71h1.3a.67.67,0,0,1,.49.21.59.59,0,0,1,.18.5c0,.34-.05.6-.08.79s0,.11.08.11h4.59a.69.69,0,0,1,.5.21.7.7,0,0,1,.22.5Zm-6.94-10.4c0-.05,0-.08,0-.08H34.24a.2.2,0,0,0-.15.06c-.31.42-.59.77-.85,1.06a0,0,0,0,0,0,0s0,0,0,0h2.18a.19.19,0,0,0,.14-.08A8.42,8.42,0,0,0,36.11,125.62Zm-2.79,3.45c-.06,0-.08,0-.08.08v1.49s0,0,0,.05h0a2.39,2.39,0,0,0,.77-1.53c0-.06,0-.08-.08-.08Zm6.5,1.18a.27.27,0,0,0,0-.16v-.94c0-.06,0-.08-.08-.08h-.85c-.07,0-.11,0-.11.08v.75a1.15,1.15,0,0,0,0,.36c0,.05.11.07.23.07h.47A.37.37,0,0,0,39.82,130.25Z"/><path d="M45.13,138.16a.72.72,0,0,1,.73-.73h16.8a.66.66,0,0,1,.51.21.72.72,0,0,1,.21.52v1.67a.69.69,0,0,1-.21.5.67.67,0,0,1-.51.22H45.86a.73.73,0,0,1-.52-.22.69.69,0,0,1-.21-.5Zm1.18-13.64a.69.69,0,0,1,.21-.5.72.72,0,0,1,.5-.22H61.58a.7.7,0,0,1,.5.22.66.66,0,0,1,.22.5v1.67a.67.67,0,0,1-.22.51.68.68,0,0,1-.5.2H47a.7.7,0,0,1-.71-.71Zm1.51,6.67a.73.73,0,0,1,.2-.52.67.67,0,0,1,.51-.22H59.89a.66.66,0,0,1,.5.22.7.7,0,0,1,.21.52v1.63a.72.72,0,0,1-.21.52.69.69,0,0,1-.5.21H48.53a.69.69,0,0,1-.51-.21.75.75,0,0,1-.2-.52Z"/><path d="M68.76,122.54a.78.78,0,0,1,.37-.43.76.76,0,0,1,.32-.08.66.66,0,0,1,.23,0l1.38.43a.64.64,0,0,1,.42.35.66.66,0,0,1,0,.55,33.66,33.66,0,0,1-1.3,3.18.34.34,0,0,0,0,.18V141a.64.64,0,0,1-.22.51.69.69,0,0,1-.5.21H68a.67.67,0,0,1-.5-.21.64.64,0,0,1-.22-.51v-9.27s0,0,0,0h0c-.16.23-.33.44-.49.65a.4.4,0,0,1-.69-.14c-.26-.7-.55-1.36-.86-2a1.26,1.26,0,0,1-.12-.51,1.13,1.13,0,0,1,.26-.7A20.83,20.83,0,0,0,68.76,122.54Zm3,1A.68.68,0,0,1,72,123a.72.72,0,0,1,.52-.21H83.81a.72.72,0,0,1,.52.21.68.68,0,0,1,.21.51v17.23a.69.69,0,0,1-.21.5.72.72,0,0,1-.52.21H82.38a.72.72,0,0,1-.52-.21.69.69,0,0,1-.21-.5v-.22c0-.06,0-.09-.08-.09H74.65c-.07,0-.1,0-.1.09v.4a.69.69,0,0,1-.21.5.68.68,0,0,1-.5.22H72.53a.73.73,0,0,1-.73-.72Zm2.75,14.21c0,.07,0,.1.1.1h6.92c.05,0,.08,0,.08-.1V125.48c0-.06,0-.08-.08-.08H74.65c-.07,0-.1,0-.1.08Zm6.77-8.6a.73.73,0,0,1-.21.52.7.7,0,0,1-.5.21H79.28a.07.07,0,0,0-.08.08v1.37a.07.07,0,0,0,.08.08h1a.72.72,0,0,1,.52.21.73.73,0,0,1,.21.52v4.2a.7.7,0,0,1-.21.52.69.69,0,0,1-.52.22H76a.69.69,0,0,1-.52-.22.7.7,0,0,1-.21-.52v-4.2a.73.73,0,0,1,.21-.52.72.72,0,0,1,.52-.21h.77c.07,0,.11,0,.11-.08v-1.37s0-.08-.11-.08H75.63a.69.69,0,0,1-.51-.21.77.77,0,0,1-.2-.52v-.7a.77.77,0,0,1,.2-.52.69.69,0,0,1,.51-.21h1.14c.07,0,.11,0,.11-.08v-1.21a.7.7,0,0,1,.21-.5.69.69,0,0,1,.5-.21h.88a.73.73,0,0,1,.52.21.7.7,0,0,1,.21.5v1.21a.07.07,0,0,0,.08.08h1.33a.7.7,0,0,1,.5.21.73.73,0,0,1,.21.52ZM78.65,135s.08,0,.08-.1v-1.41a.07.07,0,0,0-.08-.08H77.49c-.06,0-.08,0-.08.08v1.41c0,.07,0,.1.08.1Z"/><path d="M105.59,137.16a.5.5,0,0,1,.16.47.52.52,0,0,1-.28.41l-1.37.79s0,0,0,0,0,0,0,0l1.37,0a.35.35,0,0,1,.34.21.32.32,0,0,1,.08.22.38.38,0,0,1-.06.19q-.22.53-.42,1.14a1,1,0,0,1-.34.5.9.9,0,0,1-.56.19H96.45a18.46,18.46,0,0,1-4.63-.46A5.21,5.21,0,0,1,89,139s0,0,0,0,0,0,0,0a8.58,8.58,0,0,1-1,2.2.39.39,0,0,1-.37.2h0a.55.55,0,0,1-.41-.22,8.2,8.2,0,0,0-.81-1,1,1,0,0,1-.25-.53v-.1a.79.79,0,0,1,.13-.45,11.69,11.69,0,0,0,.89-4.87.66.66,0,0,1,.22-.5.67.67,0,0,1,.52-.22h1a.68.68,0,0,1,.69.72c0,.57,0,1-.06,1.44a.25.25,0,0,0,0,.19,5.46,5.46,0,0,0,.69,1.22s0,0,0,0V133c0-.07,0-.1-.08-.1H87.19a.72.72,0,0,1-.71-.71v-.74a.69.69,0,0,1,.21-.5.7.7,0,0,1,.5-.21h8a.72.72,0,0,1,.52.21.69.69,0,0,1,.21.5v.74a.7.7,0,0,1-.21.5.72.72,0,0,1-.52.21H92.84c-.07,0-.1,0-.1.1v1.18c0,.07,0,.11.1.11h1.94a.69.69,0,0,1,.51.21.68.68,0,0,1,.2.5v.71a.68.68,0,0,1-.2.5.67.67,0,0,1-.51.22H92.84c-.07,0-.1,0-.1.1v2a.11.11,0,0,0,.1.12,20.93,20.93,0,0,0,3.61.25h.17s0,0,0,0,0,0,0,0c-.4-.38-.77-.72-1.13-1a.41.41,0,0,1-.16-.38.41.41,0,0,1,.25-.35,8.62,8.62,0,0,0,1.95-1.31,1.24,1.24,0,0,1,.84-.34,1.17,1.17,0,0,1,.35.06l1.08.33a.44.44,0,0,1,.33.33.43.43,0,0,1-.09.44,12.15,12.15,0,0,1-2.75,2.28s0,0,0,0,0,0,0,0q4.26,0,6.42,0c.07,0,.09,0,0-.06a15,15,0,0,0-2.22-2.22.47.47,0,0,1-.16-.42.37.37,0,0,1,.24-.35l1-.53s0,0,0,0H97.13a.7.7,0,0,1-.52-.21.69.69,0,0,1-.22-.52v-8.28a.66.66,0,0,1,.22-.5.7.7,0,0,1,.52-.21H99a.11.11,0,0,0,.12-.1l.19-.64s0-.08-.06-.08H96.55a.67.67,0,0,1-.49-.21.7.7,0,0,1-.22-.52v-.63a.67.67,0,0,1,.22-.52.64.64,0,0,1,.49-.22h8.24a.75.75,0,0,1,.74.74V124a.73.73,0,0,1-.74.73h-2.63a.14.14,0,0,0-.12.08l-.33.66s0,.08.06.08h2.53a.66.66,0,0,1,.51.21.69.69,0,0,1,.21.5v8.28a.72.72,0,0,1-.21.52.66.66,0,0,1-.51.21h-.83s0,0,0,0,0,0,0,.05A15.51,15.51,0,0,1,105.59,137.16Zm-11.2-14.58a.75.75,0,0,1,.74.74V129a.75.75,0,0,1-.74.74H88a.66.66,0,0,1-.5-.22.7.7,0,0,1-.21-.52v-5.68a.7.7,0,0,1,.21-.52.66.66,0,0,1,.5-.22Zm-2.16,2.63c.07,0,.1,0,.1-.08v-.47s0-.08-.1-.08H90.05c-.06,0-.08,0-.08.08v.47c0,.05,0,.08.08.08Zm0,2.53c.07,0,.1,0,.1-.08v-.49s0-.08-.1-.08H90.05c-.06,0-.08,0-.08.08v.49s0,.08.08.08Zm9.91.43c.06,0,.08,0,.08-.1v-.45c0-.07,0-.1-.08-.1h-3a.09.09,0,0,0-.1.1v.45a.09.09,0,0,0,.1.1Zm0,2.53c.06,0,.08,0,.08-.11v-.46c0-.06,0-.09-.08-.09h-3c-.06,0-.1,0-.1.09v.46a.1.1,0,0,0,.1.11Zm0,2.53c.06,0,.08,0,.08-.11v-.47c0-.05,0-.08-.08-.08h-3c-.06,0-.1,0-.1.08v.47a.1.1,0,0,0,.1.11Z"/><path d="M109.24,123.11a.69.69,0,0,1,.21-.5.73.73,0,0,1,.52-.21H123.8a.72.72,0,0,1,.52.21.69.69,0,0,1,.21.5v17a.72.72,0,0,1-.73.73H122a.7.7,0,0,1-.5-.21.72.72,0,0,1-.21-.52v-.41c0-.05,0-.08-.1-.08h-8.77c-.07,0-.1,0-.1.08v.41a.73.73,0,0,1-.72.73H110a.73.73,0,0,1-.52-.21.72.72,0,0,1-.21-.52Zm12.05,2.33c0-.06,0-.09-.1-.09h-8.77c-.07,0-.1,0-.1.09v1.63c0,.07,0,.1.1.1h8.77c.07,0,.1,0,.1-.1Zm0,4.69c0-.07,0-.11-.1-.11h-8.77c-.07,0-.1,0-.1.11v1.75c0,.05,0,.08.1.08h8.77c.07,0,.1,0,.1-.08Zm-9,6.48c0,.06,0,.08.1.08h8.77c.07,0,.1,0,.1-.08V134.9c0-.06,0-.08-.1-.08h-8.77c-.07,0-.1,0-.1.08Z"/></g></g></svg>