<svg xmlns="http://www.w3.org/2000/svg" viewBox="0 0 137.05 187.31"><defs><style>.cls-1{fill:#fff;}.cls-2{fill:#f0f;}.cls-3{fill:#754c24;}.cls-4{fill:#666;}.cls-5{fill:#603813;}.cls-6{fill:#ff8358;}.cls-7{fill:#ccc;}.cls-8{fill:#009245;}.cls-9{fill:#e85e38;}</style></defs><g id="圖層_2" data-name="圖層 2"><g id="圖層_1-2" data-name="圖層 1"><rect x="68.75" y="16.4" width="68.3" height="68.3" rx="16.08"/><path class="cls-1" d="M129.56,43.77H77.75a.5.5,0,0,1-.5-.5.5.5,0,0,1,.5-.5h51.81a.51.51,0,0,1,.5.5A.5.5,0,0,1,129.56,43.77Z"/><path class="cls-1" d="M129.56,48.82H77.75a.5.5,0,0,1-.5-.5.5.5,0,0,1,.5-.5h51.81a.51.51,0,0,1,.5.5A.5.5,0,0,1,129.56,48.82Z"/><path class="cls-1" d="M129.56,53.87H77.75a.5.5,0,0,1,0-1h51.81a.5.5,0,0,1,0,1Z"/><path class="cls-1" d="M129.56,58.92H77.75a.5.5,0,0,1-.5-.5.5.5,0,0,1,.5-.5h51.81a.5.5,0,0,1,.5.5A.51.51,0,0,1,129.56,58.92Z"/><path class="cls-1" d="M129.56,64H77.75a.5.5,0,0,1-.5-.5.5.5,0,0,1,.5-.5h51.81a.51.51,0,0,1,.5.5A.5.5,0,0,1,129.56,64Z"/><path class="cls-1" d="M129.56,69H77.75a.5.5,0,0,1,0-1h51.81a.5.5,0,0,1,0,1Z"/><ellipse class="cls-2" cx="63.21" cy="108.8" rx="29.82" ry="10.11"/><rect class="cls-3" x="45.03" y="90.71" width="27.29" height="7.95" rx="3.98" transform="translate(-52.5 87.76) rotate(-54.65)"/><path class="cls-4" d="M59.32,113.76c1-1-1.23-4.52-2.77-6.64-.51-.7-.95-1.24-1.16-1.48a10.33,10.33,0,0,0-3.55-2.94l.31.6-.33-.61h0l-.06-.08a.25.25,0,0,1,0,.07h0l-.2-.07a3.73,3.73,0,0,0-3.58.54,2.57,2.57,0,0,0-.86,2.11,3.39,3.39,0,0,0,.28,1.25,8.07,8.07,0,0,0,3.15,3.17l5,3.42a5.47,5.47,0,0,0,2.64,1A1.52,1.52,0,0,0,59.32,113.76Z"/><rect class="cls-3" x="50.53" y="67.89" width="30.53" height="8.89" rx="4.45" transform="translate(-8.51 135.9) rotate(-88.26)"/><rect class="cls-5" x="63.53" y="85.33" width="7.95" height="27.29" rx="3.98" transform="translate(-29.87 29.18) rotate(-20.08)"/><path class="cls-4" d="M78.75,101.86c-1.06-.94-4.4,1.63-6.37,3.36-.65.58-1.15,1.06-1.37,1.29a10.36,10.36,0,0,0-2.61,3.8L69,110l-.58.38h0v0l-.07.06.07,0h0a1.33,1.33,0,0,0,0,.19,3.72,3.72,0,0,0,.85,3.53,2.61,2.61,0,0,0,2.18.66,3.12,3.12,0,0,0,1.22-.39,8.09,8.09,0,0,0,2.88-3.43q1.47-2.64,3-5.26a5.42,5.42,0,0,0,.76-2.73A1.5,1.5,0,0,0,78.75,101.86Z"/><rect class="cls-5" x="54.96" y="59.1" width="8.89" height="30.53" rx="4.45" transform="translate(-19.53 21.17) rotate(-17.41)"/><circle class="cls-6" cx="87.21" cy="58.34" r="3.59"/><rect class="cls-6" x="78.99" y="40.03" width="4.87" height="19.87" rx="2.43" transform="translate(-13.95 55.51) rotate(-34.86)"/><rect class="cls-7" x="71.37" y="27.87" width="7.95" height="23.57" rx="3.98" transform="translate(-9.42 31.68) rotate(-22.39)"/><rect class="cls-8" x="68.93" y="21.93" width="7.95" height="23.57" rx="3.98" transform="translate(-7.35 30.31) rotate(-22.39)"/><path class="cls-8" d="M59.49,20.51a39.94,39.94,0,0,0-7.92,3S49.75,35,49.6,38.25s0,8.24,0,11.36S49,62.13,48.36,63.12c0,0,19,1.58,24.34-4.49,0,0-.41-13.66-.44-17.58s.25-18-.44-18.52a14.47,14.47,0,0,0-6.57-2.29A22.21,22.21,0,0,0,59.49,20.51Z"/><path class="cls-5" d="M68.18,20.82S61,42.62,56.87,47.39l.93.82A133.86,133.86,0,0,0,69.11,21.14Z"/><rect class="cls-5" x="46.99" y="40.43" width="11.93" height="14.5" rx="5.96" transform="translate(-8.85 83.13) rotate(-71.83)"/><circle class="cls-6" cx="36.66" cy="58.35" r="3.59"/><rect class="cls-6" x="30.74" y="47.54" width="19.87" height="4.87" rx="2.43" transform="translate(-21.91 65.31) rotate(-64.63)"/><rect class="cls-7" x="34.03" y="35.62" width="23.57" height="7.95" rx="3.98" transform="translate(-11.96 57.73) rotate(-58.26)"/><rect class="cls-8" x="37.41" y="30.27" width="23.57" height="7.95" rx="3.98" transform="translate(-5.81 58.06) rotate(-58.26)"/><path class="cls-9" d="M58.69,15.79v5.69S62,25.8,65,21.48V16.25Z"/><path d="M66.69,2.26S64-2.26,58.27,1.48,53.64,16.57,59.46,16.9s11.37-4.47,11.37-4.47a7.85,7.85,0,0,0,.7-6.58C70.28,2.11,68.88,1.8,66.69,2.26Z"/><path class="cls-6" d="M70.35,6.34c.37-.56,1.28,9.6-1.15,11.93s-7.37,3.52-9.74-1.37a15.78,15.78,0,0,0,.37-2.58,2.83,2.83,0,0,1-2.15-1.55c-.58-1.38.39-2,.69-2s1.39-.15,1.82,1.53c0,0,1.31-1.84,1.18-2.81l.93-.56S68.7,8.87,70.35,6.34Z"/><ellipse cx="65.52" cy="11.86" rx="0.47" ry="1.25"/><ellipse cx="68.64" cy="11.86" rx="0.47" ry="1.25"/><path d="M65.45,13.86h-1.2a1.44,1.44,0,0,1-1.44-1.44V11.6a1.43,1.43,0,0,1,1.44-1.43h1.2a1.44,1.44,0,0,1,1.44,1.43v.82A1.45,1.45,0,0,1,65.45,13.86Zm-1.2-3.46A1.21,1.21,0,0,0,63,11.6v.82a1.21,1.21,0,0,0,1.21,1.2h1.2a1.2,1.2,0,0,0,1.2-1.2V11.6a1.2,1.2,0,0,0-1.2-1.2Z"/><path d="M69.29,13.74h-1.2a1.44,1.44,0,0,1-1.44-1.44v-.81a1.44,1.44,0,0,1,1.44-1.44h1.2a1.44,1.44,0,0,1,1.44,1.44v.81A1.44,1.44,0,0,1,69.29,13.74Zm-1.2-3.46a1.21,1.21,0,0,0-1.2,1.21v.81a1.21,1.21,0,0,0,1.2,1.21h1.2A1.21,1.21,0,0,0,70.5,12.3v-.81a1.21,1.21,0,0,0-1.21-1.21Z"/><path d="M62.93,12.13h0l-2.56-.37a.12.12,0,1,1,0-.23l2.56.37A.1.1,0,0,1,63,12,.12.12,0,0,1,62.93,12.13Z"/><rect x="40.23" y="136.49" width="43.88" height="24.18"/><path d="M3.06,154.14a.37.37,0,0,1,.07-.29.36.36,0,0,1,.26-.14l.69-.08a.72.72,0,0,1,.55.14.74.74,0,0,1,.29.49,21.57,21.57,0,0,1,.24,2.24A.85.85,0,0,1,5,157a.69.69,0,0,1-.52.26l-.45.06a.57.57,0,0,1-.5-.15.61.61,0,0,1-.22-.48c0-.64-.07-1.37-.16-2.18h0a9.65,9.65,0,0,1-1,3.12.69.69,0,0,1-.46.33.79.79,0,0,1-.6-.09l-.65-.33a.53.53,0,0,1-.31-.4A1,1,0,0,1,0,157a.61.61,0,0,1,.1-.34,7.68,7.68,0,0,0,.9-2.35.7.7,0,0,1,.33-.44.61.61,0,0,1,.51-.07l1.18.37h0A0,0,0,0,0,3.06,154.14Zm16.64-9.46a.77.77,0,0,1-.2.52.69.69,0,0,1-.51.21H16c-.06,0-.08,0-.08.08v2.65c0,.07,0,.1.08.1h2.34a.71.71,0,0,1,.52.22.7.7,0,0,1,.22.5v8.46a.73.73,0,0,1-.74.71H16.72a.56.56,0,0,1-.41-.16.57.57,0,0,1-.16-.39c0-.05,0-.08-.06-.08h-3a.07.07,0,0,0-.08.08.61.61,0,0,1-.18.45.58.58,0,0,1-.45.19H11a.67.67,0,0,1-.51-.22.72.72,0,0,1-.2-.5v-1.08c0-.07,0-.09-.1-.06l-.94.39a.62.62,0,0,1-.53,0,.66.66,0,0,1-.35-.4,14.74,14.74,0,0,0-.86-2.12.61.61,0,0,1,0-.51.62.62,0,0,1,.37-.37l1-.34v0L1,153.28a.66.66,0,0,1-.51-.18.67.67,0,0,1-.22-.51l0-1.08A.73.73,0,0,1,.41,151a.64.64,0,0,1,.49-.23l2.85,0c.06,0,.08,0,.08-.1v-.47s0-.08-.08-.08H1.47a.66.66,0,0,1-.51-.21.73.73,0,0,1-.21-.52v-.8A.72.72,0,0,1,1,148a.66.66,0,0,1,.51-.21H3.75c.06,0,.08,0,.08-.09v-.42c0-.06,0-.08-.08-.08H1.35A.71.71,0,0,1,.83,147a.69.69,0,0,1-.22-.52V139.7a.69.69,0,0,1,.22-.52.7.7,0,0,1,.52-.21H9.14a.7.7,0,0,1,.5.21.72.72,0,0,1,.21.52v6.79a.73.73,0,0,1-.71.74H6.59c-.07,0-.1,0-.1.08v.42c0,.06,0,.09.1.09H9a.7.7,0,0,1,.52.21.69.69,0,0,1,.22.52v.8a.73.73,0,0,1-.74.73H6.59c-.07,0-.1,0-.1.08v.39c0,.07,0,.09.1.08l2.73-.06a.66.66,0,0,1,.5.18.61.61,0,0,1,.19.51l0,.9a.72.72,0,0,1-.21.52.78.78,0,0,1-.52.23l-.19,0c-.06,0-.08,0-.06.08a11.93,11.93,0,0,1,1.27,2.59h0V149a.72.72,0,0,1,.2-.5.7.7,0,0,1,.51-.22h1.82c.07,0,.1,0,.1-.1v-9a.73.73,0,0,1,.2-.51.69.69,0,0,1,.51-.2h1.49a.69.69,0,0,1,.52.2.7.7,0,0,1,.22.51v3.36c0,.06,0,.09.08.09h3a.69.69,0,0,1,.51.21.75.75,0,0,1,.2.52ZM4.28,141.05c0-.07,0-.11-.1-.11H2.92c-.06,0-.09,0-.09.11v.57s0,.07.09.06l.16-.06a.67.67,0,0,1,.55.06.69.69,0,0,1,.35.43c.1.39.2.77.28,1.12h0ZM2.86,142.7l0,0v2.47s0,.08.09.08H4.18c.07,0,.1,0,.1-.08v-.7c0-.07,0-.09-.1-.06l-.33.1a.48.48,0,0,1-.48-.05A.59.59,0,0,1,3.1,144C3,143.64,3,143.2,2.86,142.7Zm2.48,11.68a.66.66,0,0,1,.07-.53.59.59,0,0,1,.44-.28l.33-.06a.79.79,0,0,1,.92.57,15.2,15.2,0,0,1,.51,2.1.67.67,0,0,1-.12.54A.7.7,0,0,1,7,157l-.42.09a.59.59,0,0,1-.51-.12.69.69,0,0,1-.27-.46C5.7,155.88,5.55,155.16,5.34,154.38Zm2.1-12.68c.06,0,.08,0,.08-.06v-.59c0-.07,0-.11-.08-.11H6.14c-.06,0-.08,0-.08.11v2.42s0,0,0,0c.13-.46.25-.91.36-1.34a.64.64,0,0,1,.32-.43.6.6,0,0,1,.52-.06Zm-1.38,3.45s0,.08.08.08h1.3c.06,0,.08,0,.08-.08v-1.94s0,0,0,0-.12.29-.34.83a.71.71,0,0,1-.4.4.77.77,0,0,1-.58,0l0,0c-.06,0-.08,0-.08.06Zm10,9.62a.07.07,0,0,0,.08-.08v-3.63c0-.06,0-.08-.08-.08H13.13c-.05,0-.08,0-.08.08v3.63a.07.07,0,0,0,.08.08Z"/><path d="M24.71,147.51c.06,0,.09,0,.09-.1v-.9s0-.08-.09-.08H21.76a.68.68,0,0,1-.49-.2.67.67,0,0,1-.21-.49.72.72,0,0,1,.7-.7h2.95c.06,0,.09,0,.09-.08v-.24c0-.06,0-.08-.09-.08h-2.1a.75.75,0,0,1-.71-.74v-2.06a.67.67,0,0,1,.22-.51.7.7,0,0,1,.49-.2h2.1c.06,0,.09,0,.09-.1v-.21c0-.07,0-.1-.09-.1H22.12a.74.74,0,0,1-.5-.2.69.69,0,0,1-.21-.5.66.66,0,0,1,.21-.5.7.7,0,0,1,.5-.21h2.59c.06,0,.09,0,.09-.1v-.06a.69.69,0,0,1,.21-.51.71.71,0,0,1,.52-.2h.82a.72.72,0,0,1,.52.2.69.69,0,0,1,.21.51v.06c0,.07,0,.1.08.1h2.78a.69.69,0,0,1,.51.21.69.69,0,0,1,.2.5.68.68,0,0,1-.71.7H27.16c-.05,0-.08,0-.08.1V141c0,.06,0,.1.08.1h2.31a.68.68,0,0,1,.71.71v2.06a.73.73,0,0,1-.2.52.7.7,0,0,1-.51.22H27.16c-.05,0-.08,0-.08.08V145c0,.06,0,.08.08.08H30a.67.67,0,0,1,.49.21.68.68,0,0,1,.2.49.68.68,0,0,1-.69.69H27.16a.07.07,0,0,0-.08.08v.9c0,.07,0,.1.08.1h.59c.07,0,.11,0,.11-.1v-.14a.69.69,0,0,1,.21-.5.66.66,0,0,1,.5-.22h.67a.66.66,0,0,1,.5.22.7.7,0,0,1,.22.5v.95a.71.71,0,0,1-.22.52.66.66,0,0,1-.5.22H22.78a.67.67,0,0,1-.52-.22.71.71,0,0,1-.22-.52v-.95a.7.7,0,0,1,.22-.5.67.67,0,0,1,.52-.22h.55a.67.67,0,0,1,.51.22.72.72,0,0,1,.2.5v.14a.09.09,0,0,0,.1.1Zm7.59,5.57s-.08,0-.08.1v.24c0,.07,0,.11.08.11h7.14a.72.72,0,0,1,.52.21.69.69,0,0,1,.21.5v.45a.69.69,0,0,1-.21.5.72.72,0,0,1-.52.21H32.3s-.08,0-.08.1v.25a2.89,2.89,0,0,1-.28,1.44,1.68,1.68,0,0,1-1,.72,9.77,9.77,0,0,1-3,.33.89.89,0,0,1-.56-.2,1.12,1.12,0,0,1-.38-.5c-.11-.28-.23-.58-.37-.89a.38.38,0,0,1,0-.42A.42.42,0,0,1,27,156c.39,0,.73,0,1,0a6.46,6.46,0,0,0,.69,0,.53.53,0,0,0,.35-.08.33.33,0,0,0,.1-.28v-.17c0-.06,0-.1-.08-.1H22a.72.72,0,0,1-.52-.21.69.69,0,0,1-.21-.5v-.45a.69.69,0,0,1,.21-.5.72.72,0,0,1,.52-.21h7.12c.05,0,.08,0,.08-.11v-.24c0-.07,0-.1-.08-.1H23.41a.69.69,0,0,1-.5-.21.66.66,0,0,1-.21-.51V152a.73.73,0,0,1,.71-.74h5.71c.05,0,.08,0,.08-.08V151c0-.06,0-.08-.08-.08l-2.71,0h-2a.91.91,0,0,1-.56-.23,1,1,0,0,1-.32-.51.48.48,0,0,0-.06-.18.54.54,0,0,1,.07-.48.49.49,0,0,1,.42-.21h.92c4.1,0,7.43-.13,10-.39a.71.71,0,0,1,.2,0,1.49,1.49,0,0,1,1.06.41l.6.51a.31.31,0,0,1,.1.34.31.31,0,0,1-.29.23c-1.15.15-2.56.27-4.22.36a.11.11,0,0,0-.08.11v.34c0,.06,0,.08.08.08h5.85a.67.67,0,0,1,.51.22.7.7,0,0,1,.21.52v.32a.72.72,0,0,1-.72.72Zm-8.38-11c-.07,0-.1,0-.1.08v.2c0,.06,0,.08.1.08h.79c.06,0,.09,0,.09-.08v-.2c0-.06,0-.08-.09-.08Zm-.1,1.57a.09.09,0,0,0,.1.1h.79c.06,0,.09,0,.09-.1v-.21c0-.07,0-.1-.09-.1h-.79c-.07,0-.1,0-.1.1Zm4.36-1.49c0-.06,0-.08-.08-.08h-.94c-.05,0-.08,0-.08.08v.2c0,.06,0,.08.08.08h.94s.08,0,.08-.08Zm-.08,1.59s.08,0,.08-.1v-.21c0-.07,0-.1-.08-.1h-.94c-.05,0-.08,0-.08.1v.21c0,.06,0,.1.08.1Zm9.28-.23a5.17,5.17,0,0,1,1.38.15.63.63,0,0,1,.42.32.54.54,0,0,1,0,.51A6.93,6.93,0,0,1,37.3,147s0,0,0,0a.05.05,0,0,0,0,.05,16.31,16.31,0,0,0,2.65.59.37.37,0,0,1,.3.25.36.36,0,0,1-.06.39,7.55,7.55,0,0,0-.65.89,1,1,0,0,1-.49.41.8.8,0,0,1-.41.1.62.62,0,0,1-.18,0,12,12,0,0,1-3.63-1.28.19.19,0,0,0-.16,0,13.52,13.52,0,0,1-2.51.63.75.75,0,0,1-.57-.1,1,1,0,0,1-.41-.45c-.1-.22-.2-.43-.31-.63a.47.47,0,0,1,0-.43.39.39,0,0,1,.34-.25c.56-.08,1.05-.17,1.47-.26,0,0,.06,0,0-.08l-.47-.51a.44.44,0,0,1-.08-.45.5.5,0,0,1,.32-.33l.55-.16s0,0,0,0,0,0,0,0h-1.3a.73.73,0,0,1-.52-.2.69.69,0,0,1-.21-.51v-.39a.7.7,0,0,1,.21-.52.67.67,0,0,1,.52-.22s0,0,0,0,0,0,0,0c-.26-.24-.52-.49-.8-.73a.46.46,0,0,1-.18-.37.51.51,0,0,1,.23-.43,1.81,1.81,0,0,0,.69-.77,2.5,2.5,0,0,0,.16-.94v-.51a.69.69,0,0,1,.22-.52.7.7,0,0,1,.52-.21h4.77a.69.69,0,0,1,.51.21.75.75,0,0,1,.2.52v.92a3.4,3.4,0,0,0,0,.43.17.17,0,0,0,.08.16.15.15,0,0,0,.08,0h.19a.27.27,0,0,0,.14,0c.07,0,.12-.12.14-.27a.29.29,0,0,0,0-.14.41.41,0,0,1,.24-.33.38.38,0,0,1,.4,0l.49.24a1,1,0,0,1,.46.41.75.75,0,0,1,.13.43.88.88,0,0,1,0,.16,2.69,2.69,0,0,1-.21.75,1.42,1.42,0,0,1-.73.66,2.34,2.34,0,0,1-1,.18h-1a1.93,1.93,0,0,1-1.47-.53,1.6,1.6,0,0,1-.35-.64,4.52,4.52,0,0,1-.14-1.09c0-.07,0-.11-.1-.11H34.36c-.07,0-.1,0-.1.11a3.66,3.66,0,0,1-1.16,2.4s0,0,0,0,0,0,0,0ZM36,145.41s0,0,0,0,0,0,0,0H34.28s-.05,0-.05,0,0,0,0,0A4.52,4.52,0,0,0,35,146a.17.17,0,0,0,.17,0A6.63,6.63,0,0,0,36,145.41Z"/><path class="cls-2" d="M45.41,152.85a.73.73,0,0,1-.52-.21.69.69,0,0,1-.21-.5v-5.28s0,0,0,0h0a1.93,1.93,0,0,1-.25.24.7.7,0,0,1-1,0c-.51-.5-1-1-1.55-1.41a.52.52,0,0,1-.2-.43.54.54,0,0,1,.2-.44,16.11,16.11,0,0,0,2.47-2.59,17.78,17.78,0,0,0,2-3.16.75.75,0,0,1,.41-.41.63.63,0,0,1,.32-.08.73.73,0,0,1,.25,0l1.87.57a.57.57,0,0,1,.4.35.56.56,0,0,1,0,.53c-.11.21-.24.46-.39.73,0,.05,0,.08.06.08h2.31a.15.15,0,0,0,.14-.08,14.39,14.39,0,0,0,.78-1.63.76.76,0,0,1,.37-.44.74.74,0,0,1,.58-.07l2.08.47a.48.48,0,0,1,.35.3.56.56,0,0,1,0,.49l-.57.88c0,.05,0,.08,0,.08h4.41a.64.64,0,0,1,.49.22.67.67,0,0,1,.22.52v1a.68.68,0,0,1-.22.5.67.67,0,0,1-.49.21H54.41c-.07,0-.11,0-.11.1V144c0,.06,0,.08.11.08H58.5a.71.71,0,0,1,.52.22.69.69,0,0,1,.22.52v.79a.75.75,0,0,1-.74.74H54.41c-.07,0-.11,0-.11.08v.67c0,.07,0,.1.11.1H58.5a.7.7,0,0,1,.52.21.64.64,0,0,1,.22.51v.81a.66.66,0,0,1-.22.5.67.67,0,0,1-.52.22H54.41c-.07,0-.11,0-.11.1v.73c0,.06,0,.09.11.09H60.2a.73.73,0,0,1,.52.21.72.72,0,0,1,.21.52v1a.69.69,0,0,1-.21.5.73.73,0,0,1-.52.21Zm-.38,4.9a.89.89,0,0,1-.53.32.59.59,0,0,1-.23,0,.88.88,0,0,1-.39-.08l-1.59-.65A.49.49,0,0,1,42,157v-.1a.55.55,0,0,1,.12-.35,10.57,10.57,0,0,0,1.69-2.83.86.86,0,0,1,.39-.45.8.8,0,0,1,.57-.06l1.55.39a.62.62,0,0,1,.43.31.64.64,0,0,1,0,.54A12.76,12.76,0,0,1,45,157.75Zm6.17-13.67c.07,0,.11,0,.11-.08v-.63c0-.07,0-.1-.11-.1H47.82c-.06,0-.08,0-.08.1V144c0,.06,0,.08.08.08Zm0,3.12c.07,0,.11,0,.11-.1v-.67c0-.05,0-.08-.11-.08H47.82c-.06,0-.08,0-.08.08v.67c0,.07,0,.1.08.1Zm0,3.17c.07,0,.11,0,.11-.09v-.73c0-.07,0-.1-.11-.1H47.82c-.06,0-.08,0-.08.1v.73c0,.06,0,.09.08.09ZM48,154.59v-.11a.7.7,0,0,1,.15-.42.71.71,0,0,1,.46-.27l1.39-.16a.71.71,0,0,1,.55.14.8.8,0,0,1,.31.49c.17,1,.3,1.82.36,2.59a.72.72,0,0,1-.17.54.81.81,0,0,1-.5.3l-1.57.22a.6.6,0,0,1-.5-.14.67.67,0,0,1-.23-.49C48.21,156.39,48.12,155.5,48,154.59Zm4.2.06a1.37,1.37,0,0,1,0-.19.66.66,0,0,1,.08-.32.73.73,0,0,1,.43-.31l1.45-.22a.84.84,0,0,1,.58.09.76.76,0,0,1,.38.46,18.89,18.89,0,0,1,.77,2.59.56.56,0,0,1-.09.53.72.72,0,0,1-.48.3l-1.63.31a.64.64,0,0,1-.52-.11.67.67,0,0,1-.27-.46A26.27,26.27,0,0,0,52.2,154.65Zm4.27-.19a.45.45,0,0,1-.09-.28.65.65,0,0,1,0-.2.49.49,0,0,1,.35-.33l1.55-.47a.75.75,0,0,1,.29-.06,1,1,0,0,1,.32.06.91.91,0,0,1,.49.37,32.54,32.54,0,0,1,1.84,3,.75.75,0,0,1,.06.29,1,1,0,0,1,0,.24.59.59,0,0,1-.39.35l-1.75.57a.73.73,0,0,1-.25,0,.87.87,0,0,1-.32-.06.9.9,0,0,1-.41-.43A28.62,28.62,0,0,0,56.47,154.46Z"/><path class="cls-2" d="M65.7,154.14a.41.41,0,0,1,.07-.29.36.36,0,0,1,.26-.14l.69-.08a.71.71,0,0,1,.55.14.7.7,0,0,1,.29.49,21.57,21.57,0,0,1,.24,2.24.79.79,0,0,1-.19.54.68.68,0,0,1-.52.26l-.45.06a.57.57,0,0,1-.5-.15.63.63,0,0,1-.21-.48c0-.64-.07-1.37-.17-2.18h0a9.41,9.41,0,0,1-1,3.12.67.67,0,0,1-.46.33.79.79,0,0,1-.6-.09l-.65-.33a.58.58,0,0,1-.31-.4,1,1,0,0,1,0-.17.62.62,0,0,1,.11-.34,7.94,7.94,0,0,0,.89-2.35.78.78,0,0,1,.33-.44.61.61,0,0,1,.51-.07l1.18.37s0,0,0,0A0,0,0,0,0,65.7,154.14Zm16.64-9.46a.77.77,0,0,1-.2.52.69.69,0,0,1-.51.21h-3a.07.07,0,0,0-.08.08v2.65c0,.07,0,.1.08.1H81a.74.74,0,0,1,.52.22.69.69,0,0,1,.21.5v8.46a.69.69,0,0,1-.21.5.73.73,0,0,1-.52.21H79.37a.56.56,0,0,1-.58-.55c0-.05,0-.08-.06-.08h-3c-.06,0-.09,0-.09.08a.61.61,0,0,1-.18.45.58.58,0,0,1-.45.19H73.68a.64.64,0,0,1-.51-.22.69.69,0,0,1-.21-.5v-1.08c0-.07,0-.09-.1-.06l-.94.39a.62.62,0,0,1-.53,0,.66.66,0,0,1-.35-.4,14.65,14.65,0,0,0-.85-2.12.54.54,0,0,1,0-.51.63.63,0,0,1,.36-.37l1-.34v0l-7.87.34a.66.66,0,0,1-.51-.18.67.67,0,0,1-.22-.51l0-1.08a.76.76,0,0,1,.2-.51.65.65,0,0,1,.49-.23l2.86,0s.08,0,.08-.1v-.47a.07.07,0,0,0-.08-.08H64.11a.69.69,0,0,1-.51-.21.77.77,0,0,1-.2-.52v-.8a.75.75,0,0,1,.2-.52.69.69,0,0,1,.51-.21H66.4s.08,0,.08-.09v-.42c0-.06,0-.08-.08-.08H64a.73.73,0,0,1-.52-.22.72.72,0,0,1-.21-.52V139.7A.72.72,0,0,1,64,139h7.79a.69.69,0,0,1,.5.21.72.72,0,0,1,.21.52v6.79a.72.72,0,0,1-.21.52.7.7,0,0,1-.5.22H69.23c-.07,0-.1,0-.1.08v.42c0,.06,0,.09.1.09H71.6a.73.73,0,0,1,.52.21.72.72,0,0,1,.21.52v.8a.72.72,0,0,1-.73.73H69.23c-.07,0-.1,0-.1.08v.39c0,.07,0,.09.1.08l2.73-.06a.66.66,0,0,1,.5.18.62.62,0,0,1,.2.51l0,.9a.73.73,0,0,1-.22.52.76.76,0,0,1-.52.23l-.18,0c-.07,0-.09,0-.06.08a12.35,12.35,0,0,1,1.26,2.59h0V149a.69.69,0,0,1,.21-.5.67.67,0,0,1,.51-.22h1.81c.07,0,.1,0,.1-.1v-9a.69.69,0,0,1,.21-.51.66.66,0,0,1,.51-.2h1.48a.73.73,0,0,1,.53.2.69.69,0,0,1,.21.51v3.36c0,.06,0,.09.08.09h3a.69.69,0,0,1,.51.21.75.75,0,0,1,.2.52Zm-15.41-3.63a.1.1,0,0,0-.11-.11H65.56s-.08,0-.08.11v.57s0,.07.08.06l.16-.06a.66.66,0,0,1,.55.06.66.66,0,0,1,.35.43c.11.39.2.77.29,1.12h0ZM65.5,142.7s0,0,0,0,0,0,0,0v2.45a.07.07,0,0,0,.08.08h1.26c.07,0,.11,0,.11-.08v-.7c0-.07,0-.09-.11-.06l-.32.1a.5.5,0,0,1-.49-.05.62.62,0,0,1-.27-.44C65.69,143.64,65.61,143.2,65.5,142.7ZM68,154.38a.62.62,0,0,1,.07-.53.58.58,0,0,1,.44-.28l.32-.06a.75.75,0,0,1,.57.1.73.73,0,0,1,.35.47,15.2,15.2,0,0,1,.51,2.1.7.7,0,0,1-.11.54.74.74,0,0,1-.48.31l-.43.09a.59.59,0,0,1-.51-.12.64.64,0,0,1-.26-.46C68.35,155.88,68.19,155.16,68,154.38Zm2.1-12.68s.08,0,.08-.06v-.59c0-.07,0-.11-.08-.11H68.78s-.08,0-.08.11v2.42s0,0,0,0c.14-.46.26-.91.37-1.34a.65.65,0,0,1,.83-.49Zm-1.39,3.45a.07.07,0,0,0,.08.08h1.31a.07.07,0,0,0,.08-.08v-1.94s0,0,0,0-.13.29-.35.83a.69.69,0,0,1-.4.4.77.77,0,0,1-.58,0l0,0s-.08,0-.08.06Zm10,9.62c.06,0,.08,0,.08-.08v-3.63c0-.06,0-.08-.08-.08H75.78c-.06,0-.09,0-.09.08v3.63c0,.05,0,.08.09.08Z"/><path d="M91.19,139.09a.82.82,0,0,1,.24-.52.71.71,0,0,1,.52-.22h2a.7.7,0,0,1,.51.22.72.72,0,0,1,.2.5c0,.2,0,.43,0,.67,0,.53.07,1.07.13,1.6s.18,1.23.36,2.08a24.83,24.83,0,0,0,.64,2.44,18.08,18.08,0,0,0,1.07,2.53,15.92,15.92,0,0,0,1.58,2.51,15.13,15.13,0,0,0,4.48,3.77.46.46,0,0,1,.24.43.43.43,0,0,1-.16.34,9,9,0,0,0-1.39,1.53.87.87,0,0,1-.47.33.45.45,0,0,1-.2,0,.64.64,0,0,1-.35-.1,16.39,16.39,0,0,1-7.38-9.36s0,0,0,0,0,0,0,0a18.53,18.53,0,0,1-6.79,9.32.73.73,0,0,1-.41.12h-.12a.94.94,0,0,1-.51-.29,8.29,8.29,0,0,0-1.55-1.44.5.5,0,0,1-.2-.41.46.46,0,0,1,.22-.41,15,15,0,0,0,1.61-1.2,16.76,16.76,0,0,0,1.8-1.75,11.66,11.66,0,0,0,1.35-1.91,20.24,20.24,0,0,0,1-1.95,15,15,0,0,0,.71-2q.3-1.1.45-1.89a17.59,17.59,0,0,0,.26-1.8c.07-.68.11-1.2.13-1.57s0-.82,0-1.37A1,1,0,0,0,91.19,139.09Z"/><path d="M116.44,141.43q0,.09.06.09h6.89a.65.65,0,0,1,.69.69c0,.15,0,.36,0,.63q-.25,7.08-.57,10.07a9.45,9.45,0,0,1-.87,3.8,3.2,3.2,0,0,1-.78.81,2.81,2.81,0,0,1-1,.41,7,7,0,0,1-1.65.14.8.8,0,0,1-.54-.21.91.91,0,0,1-.29-.52,8.41,8.41,0,0,0-.43-1.59.42.42,0,0,1,0-.42.36.36,0,0,1,.36-.17l1,0a1,1,0,0,0,.74-.43q.63-.85,1-8.12h0a33.25,33.25,0,0,1-2.23,6.06,15.72,15.72,0,0,1-3.16,4.51.77.77,0,0,1-.52.2.88.88,0,0,1-.54-.2,10.18,10.18,0,0,0-1.28-.92.54.54,0,0,1-.23-.39.47.47,0,0,1,.17-.41,13.78,13.78,0,0,0,3.54-4.63,28.7,28.7,0,0,0,2.23-6.44c0-.07,0-.1-.08-.1h-.39c-.06,0-.09,0-.1.1a29.21,29.21,0,0,1-1.72,4.65,15.23,15.23,0,0,1-2.36,3.73.68.68,0,0,1-.51.23.77.77,0,0,1-.53-.19c-.37-.3-.75-.57-1.14-.83a.54.54,0,0,1-.26-.41.51.51,0,0,1,.17-.45,15.83,15.83,0,0,0,3.86-6.73c0-.07,0-.1-.06-.1h-.45c-.07,0-.11,0-.12.08a17.88,17.88,0,0,1-1.63,3,.62.62,0,0,1-.46.27.63.63,0,0,1-.52-.17c-.36-.27-.73-.54-1.13-.82a.66.66,0,0,1-.27-.44.62.62,0,0,1,.13-.51c.1-.14.19-.28.29-.41s0-.08,0-.08h-1c-.06,0-.08,0-.08.1V148c0,.07,0,.09.08.06l.87-.22a.66.66,0,0,1,.51.09.59.59,0,0,1,.29.44l.18,1.24a.87.87,0,0,1-.59.94l-1.26.39c-.06,0-.08,0-.08.1v6.52a.66.66,0,0,1-.22.5.67.67,0,0,1-.52.22h-1.32a.75.75,0,0,1-.72-.72v-5.71c0-.05,0-.07-.1-.06l-2.16.63a.61.61,0,0,1-.54-.07.65.65,0,0,1-.32-.44l-.36-1.48a.73.73,0,0,1,.09-.54.65.65,0,0,1,.44-.32q1-.22,2.85-.69a.13.13,0,0,0,.1-.13v-3.42c0-.07,0-.1-.1-.1h-.9a.12.12,0,0,0-.12.1c-.13.62-.28,1.17-.43,1.65a.51.51,0,0,1-.34.33.54.54,0,0,1-.49-.09c-.29-.2-.59-.4-.9-.59a1,1,0,0,1-.39-.45.87.87,0,0,1-.06-.32.77.77,0,0,1,0-.27,27.6,27.6,0,0,0,.8-5.24.64.64,0,0,1,.24-.47.59.59,0,0,1,.51-.12l1.08.16a.83.83,0,0,1,.5.31.73.73,0,0,1,.16.55c-.06.49-.11,1-.17,1.47,0,.07,0,.1.08.1h.39c.07,0,.1,0,.1-.1v-3.08a.73.73,0,0,1,.72-.73h1.32a.7.7,0,0,1,.52.21.69.69,0,0,1,.22.52v3.08c0,.07,0,.1.08.1h.69a.7.7,0,0,1,.52.21.72.72,0,0,1,.22.5v1.51s0,0,0,0,0,0,0,0a19.4,19.4,0,0,0,2-5.44.78.78,0,0,1,.32-.46.7.7,0,0,1,.54-.11l1.31.24a.71.71,0,0,1,.47.32.68.68,0,0,1,.08.54C116.77,140.22,116.61,140.82,116.44,141.43Z"/><path d="M18,168.26a.64.64,0,0,1,.49.22.67.67,0,0,1,.22.52v15a6.32,6.32,0,0,1-.18,1.68,2,2,0,0,1-.7,1,3.68,3.68,0,0,1-2,.57l-.06,0a.72.72,0,0,1-.49-.21.87.87,0,0,1-.28-.5c0-.26-.09-.52-.15-.76,0,0,0,0,0,0s0,0,0,0a1.56,1.56,0,0,1-.66.76,2.36,2.36,0,0,1-1.07.22H12a2.1,2.1,0,0,1-1.73-.55,3.47,3.47,0,0,1-.43-2V183c0-.07,0-.11-.08-.11H9.18a.13.13,0,0,0-.13.11,4.91,4.91,0,0,1-.84,2.22,5,5,0,0,1-2.09,1.49.83.83,0,0,1-.56,0,.9.9,0,0,1-.46-.4,8.15,8.15,0,0,0-.57-.8.48.48,0,0,1,.22-.73,3.34,3.34,0,0,0,1.33-.7A2.23,2.23,0,0,0,6.63,183c0-.07,0-.11-.06-.11H6.44a.73.73,0,0,1-.52-.21.69.69,0,0,1-.21-.5v-1.88a.17.17,0,0,1-.18,0A14.19,14.19,0,0,0,4,179C4,179,4,179,4,179v7.5a.7.7,0,0,1-.22.5.66.66,0,0,1-.5.22H1.67a.68.68,0,0,1-.5-.22.69.69,0,0,1-.21-.5V169a.7.7,0,0,1,.21-.52.68.68,0,0,1,.5-.22H8.48a.64.64,0,0,1,.51.22.7.7,0,0,1,.21.52v5.71a.73.73,0,0,1-.21.52.66.66,0,0,1-.51.21H4.06c-.07,0-.1,0-.1.08v3.25c0,.06,0,.08.08,0A5.05,5.05,0,0,0,5.91,177a1.11,1.11,0,0,1,.45-.41.81.81,0,0,1,.57-.06l1.51.35c.07,0,.1,0,.1-.06v-.13a.73.73,0,0,1,.21-.52.66.66,0,0,1,.51-.21h2.85a1.17,1.17,0,0,1,1,.65,5.39,5.39,0,0,0,1.78,1.7.44.44,0,0,1,.22.36A.4.4,0,0,1,15,179a8.93,8.93,0,0,0-1.16,1.12.27.27,0,0,0,0,.16v1.84a.7.7,0,0,1-.22.5.72.72,0,0,1-.52.21h-.69c-.06,0-.08,0-.08.11v1.22a1.79,1.79,0,0,0,0,.43.14.14,0,0,0,.15.08h.22q.21,0,.27-.45a.47.47,0,0,1,.67-.35,4.41,4.41,0,0,0,.84.31.34.34,0,0,0,.18,0l.39,0,.3,0a.29.29,0,0,0,.21-.06.36.36,0,0,0,.06-.25v-8.4c0-.05,0-.08-.1-.08H10.93a.72.72,0,0,1-.52-.21.73.73,0,0,1-.21-.52V169a.7.7,0,0,1,.21-.52.69.69,0,0,1,.52-.22ZM6.36,170.34a.07.07,0,0,0-.08-.08H4.06c-.07,0-.1,0-.1.08v.53c0,.07,0,.11.1.11H6.28s.08,0,.08-.11Zm-2.4,3c0,.06,0,.08.1.08H6.28s.08,0,.08-.08v-.51a.07.07,0,0,0-.08-.08H4.06c-.07,0-.1,0-.1.08ZM11.42,178a.17.17,0,0,0-.14-.06h-2a.66.66,0,0,1-.51-.21.73.73,0,0,1-.21-.52V177s0,0,0,0a7.89,7.89,0,0,1-1.1,1.71s0,.06,0,.06h4.45s0,0,0,0,0,0,0,0A6.05,6.05,0,0,1,11.42,178Zm-.2,3.14c.06,0,.1,0,.1-.08v-.59a.09.09,0,0,0-.1-.1H8.12c-.06,0-.08,0-.08.1v.59s0,.08.08.08Zm4.38-10.83c0-.05,0-.08-.1-.08H13.17a.07.07,0,0,0-.08.08v.53c0,.07,0,.11.08.11H15.5c.07,0,.1,0,.1-.11Zm-2.51,3c0,.06,0,.08.08.08H15.5c.07,0,.1,0,.1-.08v-.51s0-.08-.1-.08H13.17a.07.07,0,0,0-.08.08Z"/><path d="M27.1,170.91a.73.73,0,0,1,.52.22.7.7,0,0,1,.21.52v.92a.7.7,0,0,1-.21.5.72.72,0,0,1-.52.21H21.49a.69.69,0,0,1-.51-.21.74.74,0,0,1-.2-.5v-.92a.73.73,0,0,1,.2-.52.7.7,0,0,1,.51-.22Zm12.44,12.48a.7.7,0,0,1-.21.52.68.68,0,0,1-.5.22H37.66s0,0,0,0l.34.16.35.17.31.15.35.16.32.14.31.16.29.14.28.14a.38.38,0,0,1,.23.37.4.4,0,0,1-.21.35l-1.3.77a1.18,1.18,0,0,1-.59.18,1.12,1.12,0,0,1-.64-.2c-.8-.48-1.63-.93-2.48-1.37a.46.46,0,0,1-.26-.37.4.4,0,0,1,.17-.4l.64-.53,0,0s0,0,0,0H32.26a0,0,0,0,0,0,0l0,0,.86.55a.5.5,0,0,1,.21.4.42.42,0,0,1-.21.4,13.38,13.38,0,0,1-3.31,1.54.86.86,0,0,1-.34.07,1.23,1.23,0,0,1-.84-.37,13.12,13.12,0,0,0-1.3-1.16s-.07,0-.07,0a.49.49,0,0,1-.16.38.54.54,0,0,1-.39.17H24c-.07,0-.1,0-.1.08a.73.73,0,0,1-.2.51.66.66,0,0,1-.49.2h-.92a.66.66,0,0,1-.51-.21.72.72,0,0,1-.21-.52v-5.79a.72.72,0,0,1,.72-.72h4.26a.69.69,0,0,1,.5.21.66.66,0,0,1,.21.51v5c0,.06,0,.08.09.07a12.2,12.2,0,0,0,3.34-1.35s0,0,0,0h-.9a.73.73,0,0,1-.73-.74v-4.91a.72.72,0,0,1,.21-.52.73.73,0,0,1,.52-.21h9a.7.7,0,0,1,.5.21.72.72,0,0,1,.21.52Zm-12.95-9.48a.66.66,0,0,1,.5.22.69.69,0,0,1,.21.5v.81a.66.66,0,0,1-.21.51.69.69,0,0,1-.5.21H22.37a.69.69,0,0,1-.51-.21.66.66,0,0,1-.2-.51v-.81a.68.68,0,0,1,.2-.5.67.67,0,0,1,.51-.22Zm-4.22,5.14a.69.69,0,0,1-.51-.21.72.72,0,0,1-.2-.52v-.8a.71.71,0,0,1,.2-.52.69.69,0,0,1,.51-.21h4.22a.69.69,0,0,1,.5.21.72.72,0,0,1,.21.52v.8a.73.73,0,0,1-.21.52.69.69,0,0,1-.5.21Zm4.16-11a.69.69,0,0,1,.5.21.73.73,0,0,1,.21.52v.8a.72.72,0,0,1-.21.52.69.69,0,0,1-.5.21h-4a.7.7,0,0,1-.5-.21.72.72,0,0,1-.21-.52v-.8a.73.73,0,0,1,.21-.52.7.7,0,0,1,.5-.21Zm-1.75,15.78s.08,0,.08-.08v-1.59c0-.07,0-.1-.08-.1H24c-.07,0-.1,0-.1.1v1.59c0,.06,0,.08.1.08Zm7.76-13.21c.06,0,.09,0,.09-.08v-.37c0-.05,0-.08-.09-.08H29.06a.67.67,0,0,1-.52-.22.71.71,0,0,1-.22-.52V169a.71.71,0,0,1,.22-.52.67.67,0,0,1,.52-.22h3.48c.06,0,.09,0,.09-.08a.72.72,0,0,1,.73-.73h1.51a.72.72,0,0,1,.73.73c0,.06,0,.08.09.08h3.77a.73.73,0,0,1,.73.74v.36a.73.73,0,0,1-.73.74H35.69c-.06,0-.09,0-.09.08v.37s0,.08.09.08h3.24a.69.69,0,0,1,.51.21.77.77,0,0,1,.2.52v.25a.74.74,0,0,1-.2.5.69.69,0,0,1-.51.21H29.75a.72.72,0,0,1-.52-.21.7.7,0,0,1-.21-.5v-.25a.73.73,0,0,1,.21-.52.72.72,0,0,1,.52-.21Zm-3.44,6.73a.69.69,0,0,1-.52-.22.7.7,0,0,1-.21-.52v-3.14a.69.69,0,0,1,.21-.51.75.75,0,0,1,.52-.2H39.38a.77.77,0,0,1,.52.2.69.69,0,0,1,.21.51v3.14a.73.73,0,0,1-.73.74Zm1.61-1.49s0,.08.1.08h6.71c.07,0,.1,0,.1-.08v-.22c0-.06,0-.09-.1-.09H36.28a2.52,2.52,0,0,1-1.4-.26,1.31,1.31,0,0,1-.4-1c0-.07,0-.1-.08-.1h-.57s-.09,0-.1.1a1.85,1.85,0,0,1-.55.95,2.68,2.68,0,0,1-1.29.52l-.18,0a1,1,0,0,1-.84-.57l-.1-.15h0l0,0ZM32,174.26a0,0,0,0,0,0,0s0,0-.05,0H30.81c-.07,0-.1,0-.1.1v.3c0,.07,0,.1.1.09C31.45,174.61,31.84,174.48,32,174.26Zm-.15,5c-.07,0-.1,0-.1.11v.26c0,.07,0,.1.1.1h4.79c.07,0,.11,0,.11-.1v-.26a.1.1,0,0,0-.11-.11Zm0,1.47c-.07,0-.1,0-.1.08v.31s0,.08.1.08h4.79c.07,0,.11,0,.11-.08v-.31c0-.05,0-.08-.11-.08Zm0,1.45c-.07,0-.1,0-.1.1v.31c0,.07,0,.1.1.1h4.79c.07,0,.11,0,.11-.1v-.31c0-.07,0-.1-.11-.1Zm5.69-7.6c.06,0,.08-.06.08-.13v-.14c0-.07,0-.1-.1-.1H36.38c-.07,0-.1,0-.1.1a.4.4,0,0,0,.07.24s.11.06.23.06h.76A.56.56,0,0,0,37.54,174.55Z"/><path d="M59.52,180.13a.73.73,0,0,1-.71.74H53.1A.12.12,0,0,0,53,181a6.84,6.84,0,0,1-1.25,2.4c0,.06,0,.09,0,.11a19.65,19.65,0,0,0,3.9.53c.8,0,1.72.06,2.75.06.82,0,1.7,0,2.65,0a.34.34,0,0,1,.33.2.38.38,0,0,1,.06.18.42.42,0,0,1-.06.21,7.65,7.65,0,0,0-.71,1.69,1.08,1.08,0,0,1-.33.51.81.81,0,0,1-.55.2c-2.33,0-4.33-.16-6-.36a18.64,18.64,0,0,1-4.54-1.1.17.17,0,0,0-.17,0,17.43,17.43,0,0,1-4.65,1.63l-.2,0a1.19,1.19,0,0,1-.41-.08,1.1,1.1,0,0,1-.45-.43,12.16,12.16,0,0,0-1-1.51.42.42,0,0,1-.1-.25.23.23,0,0,1,0-.14.38.38,0,0,1,.31-.26,21.6,21.6,0,0,0,3.4-.78c.07,0,.08-.06,0-.1a14.62,14.62,0,0,1-1.34-1.39.52.52,0,0,1-.09-.48.48.48,0,0,1,.31-.35l1.29-.51v0H44.82a.73.73,0,0,1-.52-.22.7.7,0,0,1-.21-.52v-7.48a.66.66,0,0,1,.21-.51.72.72,0,0,1,.52-.21h5.26c.06,0,.08,0,.08-.1v-.73c0-.06,0-.08-.08-.08h-7a.75.75,0,0,1-.74-.74V169a.75.75,0,0,1,.74-.74H60.14a.74.74,0,0,1,.52.22.7.7,0,0,1,.21.52v1.24a.7.7,0,0,1-.21.52.74.74,0,0,1-.52.22H53.47c-.07,0-.1,0-.1.08v.73c0,.07,0,.1.1.1h5.34a.69.69,0,0,1,.5.21.66.66,0,0,1,.21.51ZM47,174.34s-.08,0-.08.1v.74a.07.07,0,0,0,.08.08h3c.06,0,.08,0,.08-.08v-.74c0-.07,0-.1-.08-.1Zm0,3.16s-.08,0-.08.1v.76a.07.07,0,0,0,.08.08h3c.06,0,.08,0,.08-.08v-.76c0-.06,0-.1-.08-.1ZM49.63,181c0-.06,0-.08-.06-.08h-2.4s0,0,0,0,0,0,0,0a8.29,8.29,0,0,0,1.48,1.22.12.12,0,0,0,.15,0A5,5,0,0,0,49.63,181Zm6.9-6.51c0-.07,0-.1-.11-.1h-3c-.07,0-.1,0-.1.1v.74s0,.08.1.08h3c.07,0,.11,0,.11-.08Zm-.11,4c.07,0,.11,0,.11-.08v-.76a.1.1,0,0,0-.11-.1h-3a.09.09,0,0,0-.1.1v.76s0,.08.1.08Z"/><path d="M79.26,176.69a1.56,1.56,0,0,1,.31,0,1.2,1.2,0,0,1,.57.14l1,.47a.72.72,0,0,1,.39.43,1.27,1.27,0,0,1,0,.26.89.89,0,0,1-.06.31,13.74,13.74,0,0,1-2.39,3.61,12.93,12.93,0,0,1-3.37,2.57,23.11,23.11,0,0,1-4.07,1.69,33.74,33.74,0,0,1-4.82,1l-.14,0a.72.72,0,0,1-.43-.15.91.91,0,0,1-.38-.44,11,11,0,0,0-.68-1.47.44.44,0,0,1,0-.43.48.48,0,0,1,.34-.27,26.36,26.36,0,0,0,6.83-1.52c.05,0,.06-.07,0-.11A23.25,23.25,0,0,0,70,181.09a.15.15,0,0,0-.16,0c-.64.3-1.29.58-2,.84a1,1,0,0,1-.58,0,.88.88,0,0,1-.46-.37,10.1,10.1,0,0,0-1-1.22.45.45,0,0,1,.18-.74,19.36,19.36,0,0,0,6.65-3.47l0,0a28.74,28.74,0,0,1-7.61,2.63.74.74,0,0,1-.56-.09,1,1,0,0,1-.42-.44,13.08,13.08,0,0,0-.69-1.3.53.53,0,0,1-.06-.24.52.52,0,0,1,0-.21.36.36,0,0,1,.32-.26,28.43,28.43,0,0,0,5.71-1.55s0,0,0,0a.07.07,0,0,0,0-.06,17.09,17.09,0,0,0-2.08-1.36.15.15,0,0,0-.16,0c-.52.24-1,.45-1.34.61a1,1,0,0,1-.61,0,1,1,0,0,1-.48-.34,9.73,9.73,0,0,0-1.06-1.16.44.44,0,0,1-.12-.4.35.35,0,0,1,.27-.29,16.17,16.17,0,0,0,6.42-3.71,1.23,1.23,0,0,1,.92-.43.9.9,0,0,1,.28,0l1.86.41a.35.35,0,0,1,.31.27.37.37,0,0,1-.09.4,3.06,3.06,0,0,0-.22.24s0,0,0,.05l0,0h3.36l.13,0a1.18,1.18,0,0,1,.26,0,1,1,0,0,1,.53.14l1,.55a.68.68,0,0,1,.35.44.65.65,0,0,1-.09.54,13.56,13.56,0,0,1-3.93,4.18,0,0,0,0,0,0,.05l0,0,1.81.43a.36.36,0,0,1,.32.27.4.4,0,0,1-.09.42c-.23.26-.46.5-.67.71a.09.09,0,0,0,0,.05s0,0,0,0h2.81Zm-4.65-5.25s0,0,0,0,0,0,0,0h-4.2a.27.27,0,0,0-.16.06l-.35.23a.05.05,0,0,0,0,.05l0,0a18.79,18.79,0,0,1,2.29,1.45.14.14,0,0,0,.16,0A13.18,13.18,0,0,0,74.61,171.44Zm2.8,7.86c0-.06,0-.09,0-.09H73.25a.29.29,0,0,0-.17.06l-.46.29a.06.06,0,0,0,0,.1,17.38,17.38,0,0,1,2.5,1.72s.09,0,.15,0A9.65,9.65,0,0,0,77.41,179.3Z"/><path d="M89.72,175.81a.67.67,0,0,1-.51-.22.65.65,0,0,1-.22-.5v-.51a.07.07,0,0,0-.08-.08l-3.83.66a.79.79,0,0,1-.56-.14.66.66,0,0,1-.28-.48l-.16-1a.25.25,0,0,1,0-.12.64.64,0,0,1,.14-.41.72.72,0,0,1,.47-.26c1-.1,2.36-.27,4.22-.51a.11.11,0,0,0,.1-.12v-.82a.07.07,0,0,0-.08-.08H85.16a.69.69,0,0,1-.5-.21.7.7,0,0,1-.22-.52v-.84a.73.73,0,0,1,.72-.73h3.75s.08,0,.08-.09v-.65a.73.73,0,0,1,.73-.73h1.6a.73.73,0,0,1,.73.73v6.93a.65.65,0,0,1-.22.5.67.67,0,0,1-.51.22Zm10,.32a.73.73,0,0,1,.71.74v7.48a3.56,3.56,0,0,1-.3,1.63,1.9,1.9,0,0,1-1,.88,10.23,10.23,0,0,1-3.3.41.87.87,0,0,1-.55-.2.94.94,0,0,1-.33-.49c-.12-.43-.27-.85-.44-1.29a.4.4,0,0,1,0-.42.41.41,0,0,1,.37-.19l1.92,0a.67.67,0,0,0,.4-.09.38.38,0,0,0,.11-.3v-.37a.09.09,0,0,0-.1-.1H89.44a.09.09,0,0,0-.1.1v2.66a.7.7,0,0,1-.72.71H87a.74.74,0,0,1-.5-.2.69.69,0,0,1-.21-.51v-9.73a.73.73,0,0,1,.71-.74Zm-2.41,2.25c0-.06,0-.08-.1-.08H89.44c-.07,0-.1,0-.1.08v.53c0,.07,0,.1.1.1h7.75c.07,0,.1,0,.1-.1Zm-8,3.32c0,.07,0,.1.1.1h7.75c.07,0,.1,0,.1-.1v-.55c0-.07,0-.1-.1-.1H89.44c-.07,0-.1,0-.1.1Zm8.34-8.56h1.79A.69.69,0,0,0,100,173a1,1,0,0,0,.23-.6.46.46,0,0,1,.26-.36.45.45,0,0,1,.45,0,12.61,12.61,0,0,0,1.33.48.83.83,0,0,1,.46.35.63.63,0,0,1,.13.39.88.88,0,0,1,0,.16,3,3,0,0,1-1,1.79,3.55,3.55,0,0,1-2.07.5H97.19a3.9,3.9,0,0,1-2.74-.71,3.66,3.66,0,0,1-.71-2.6v-4.2a.69.69,0,0,1,.22-.52.7.7,0,0,1,.52-.21h1.65a.7.7,0,0,1,.5.21.72.72,0,0,1,.21.52v1.1c0,.07,0,.09.08.06,1-.28,2-.59,2.88-.91a.88.88,0,0,1,.62,0,1.07,1.07,0,0,1,.54.32l1,1.08a.47.47,0,0,1,.09.45.42.42,0,0,1-.31.31,44.23,44.23,0,0,1-4.78,1.14s-.08.05-.08.12v.55c0,.36,0,.58.14.66A1.15,1.15,0,0,0,97.68,173.14Z"/><path d="M121,182.27a.67.67,0,0,1-.22.51.7.7,0,0,1-.52.21h-1.57s0,0,0,0a30.62,30.62,0,0,1,4.16,1.93.48.48,0,0,1,.25.43.48.48,0,0,1-.19.39l-1,.84a1,1,0,0,1-.57.21,1.09,1.09,0,0,1-.61-.15,29,29,0,0,0-3.81-2,.43.43,0,0,1-.11-.73l1.21-.92a.08.08,0,0,0,0,0s0,0,0,0h-2c-.06,0-.08,0-.08.1v1.69a3,3,0,0,1-.27,1.44,1.65,1.65,0,0,1-1,.72,9.48,9.48,0,0,1-2.85.31.85.85,0,0,1-.55-.2.83.83,0,0,1-.33-.49,10.81,10.81,0,0,0-.53-1.33s-.06-.07-.1,0a24.47,24.47,0,0,1-3.1,1.61,1,1,0,0,1-.62.07,1,1,0,0,1-.54-.31c-.44-.44-.83-.81-1.17-1.13a.36.36,0,0,1-.14-.26.25.25,0,0,1,0-.1.35.35,0,0,1,.27-.29,14.12,14.12,0,0,0,3.89-1.73s0,0,0,0,0,0,0,0h-.47a.72.72,0,0,1-.52-.21.66.66,0,0,1-.21-.51V178.7a.69.69,0,0,1,.21-.51.75.75,0,0,1,.52-.2h11.93a.73.73,0,0,1,.52.2.7.7,0,0,1,.22.51Zm1.67-7.09a.73.73,0,0,1,.52.21.72.72,0,0,1,.21.52v.88a.7.7,0,0,1-.21.5.73.73,0,0,1-.52.21H105.59a.72.72,0,0,1-.52-.21.7.7,0,0,1-.21-.5v-.88a.72.72,0,0,1,.73-.73h7c.06,0,.08,0,.08-.09v-.38c0-.06,0-.08-.08-.08h-4.73a.72.72,0,0,1-.5-.22.7.7,0,0,1-.21-.52v-5.14a.73.73,0,0,1,.21-.52.7.7,0,0,1,.5-.21h12.75a.7.7,0,0,1,.5.21.73.73,0,0,1,.21.52v5.14a.7.7,0,0,1-.21.52.72.72,0,0,1-.5.22h-4.73c-.06,0-.09,0-.09.08v.38a.08.08,0,0,0,.09.09Zm-9.91,9.48v-1.57c0-.07,0-.1-.08-.1h-3s0,0,0,0l1.53.61a.42.42,0,0,1,.28.35.34.34,0,0,1-.16.38c-.23.18-.48.36-.73.53,0,0,0,0,0,0s0,0,0,0c.47,0,1.05,0,1.73,0a.65.65,0,0,0,.31-.08A.3.3,0,0,0,112.75,184.66Zm-2.65-14.83a.1.1,0,0,0-.11.11v.42a.1.1,0,0,0,.11.11h8c.07,0,.1,0,.1-.11v-.42c0-.07,0-.11-.1-.11Zm0,2.33c-.07,0-.11,0-.11.08v.47c0,.07,0,.1.11.1h8c.07,0,.1,0,.1-.1v-.47c0-.05,0-.08-.1-.08Zm7.72,8.81c.06,0,.09,0,.09-.08v-.8c0-.05,0-.08-.09-.08h-7.24a.07.07,0,0,0-.08.08v.8a.07.07,0,0,0,.08.08Z"/></g></g></svg>