<svg xmlns="http://www.w3.org/2000/svg" xmlns:xlink="http://www.w3.org/1999/xlink" viewBox="0 0 162.43 239.51"><defs><style>.cls-1{fill:none;}.cls-2{fill:#ff8358;}.cls-3{fill:#333;}.cls-4{fill:#0b825d;}.cls-5{clip-path:url(#clip-path);}.cls-6{fill:#ed1c24;}.cls-7{fill:#e85e38;}.cls-8{clip-path:url(#clip-path-2);}.cls-9{fill:#999;}.cls-10{fill:#4db2a3;}.cls-11{fill:#1a1a1a;}</style><clipPath id="clip-path"><rect class="cls-1" x="78.39" y="75.79" width="17.28" height="10.16" rx="5.04" transform="translate(3.55 165.41) rotate(-88.26)"/></clipPath><clipPath id="clip-path-2"><rect class="cls-1" x="71.38" y="75" width="10.16" height="14.73" rx="5.04" transform="translate(-21.14 26.64) rotate(-17.41)"/></clipPath></defs><g id="圖層_2" data-name="圖層 2"><g id="圖層_1-2" data-name="圖層 1"><rect class="cls-2" x="63.05" y="110.64" width="31.17" height="9.08" rx="4.51" transform="translate(-60.81 112.67) rotate(-54.65)"/><path class="cls-2" d="M79.37,137c1.18-1.1-1.4-5.17-3.17-7.58-.58-.8-1.08-1.42-1.32-1.69a11.66,11.66,0,0,0-4-3.36s.22.42.35.69l-.37-.7h0l-.07-.09a.22.22,0,0,1,0,.08h0l-.22-.08a4.27,4.27,0,0,0-4.09.61,3,3,0,0,0-1,2.41,3.73,3.73,0,0,0,.33,1.43,9.21,9.21,0,0,0,3.6,3.62l5.68,3.91a6.09,6.09,0,0,0,3,1.14A1.67,1.67,0,0,0,79.37,137Z"/><path class="cls-3" d="M65.5,126l13.87,11s-.17,1.32-3,.39S62.94,129.66,65.5,126Z"/><path class="cls-3" d="M73.65,133.64c.4,0,3.13-1.93,3.43-3,0,0,1.73.37,1.08,1.69l-2.78,2.52Z"/><rect class="cls-2" x="71.13" y="87.23" width="31.17" height="9.08" rx="4.51" transform="translate(-7.65 175.66) rotate(-88.26)"/><rect class="cls-4" x="78.39" y="75.79" width="17.28" height="10.16" rx="5.04" transform="translate(3.55 165.41) rotate(-88.26)"/><g class="cls-5"><path class="cls-6" d="M99.29,64.36h-.4a.27.27,0,1,1,0-.53h.4a.27.27,0,1,1,0,.53Zm-1.73,0h-.4a.27.27,0,0,1,0-.53h.4a.27.27,0,1,1,0,.53Zm-1.73,0h-.4a.27.27,0,0,1,0-.53h.4a.27.27,0,1,1,0,.53Zm-1.73,0h-.4a.27.27,0,0,1,0-.53h.4a.27.27,0,1,1,0,.53Zm-1.72,0H92a.27.27,0,1,1,0-.53h.4a.27.27,0,0,1,0,.53Zm-1.73,0h-.4a.27.27,0,1,1,0-.53h.4a.27.27,0,0,1,0,.53Zm-1.73,0h-.4a.27.27,0,1,1,0-.53h.4a.27.27,0,0,1,0,.53Zm-1.73,0h-.4a.27.27,0,1,1,0-.53h.4a.27.27,0,1,1,0,.53Zm-1.73,0h-.4a.27.27,0,0,1,0-.53h.4a.27.27,0,1,1,0,.53Zm-1.73,0h-.4a.27.27,0,0,1,0-.53h.4a.27.27,0,1,1,0,.53Zm-1.73,0h-.4a.27.27,0,0,1,0-.53H82a.27.27,0,1,1,0,.53Zm-1.73,0h-.39a.27.27,0,1,1,0-.53h.39a.27.27,0,1,1,0,.53Zm-1.72,0h-.4a.27.27,0,1,1,0-.53h.4a.27.27,0,0,1,0,.53Zm-1.73,0h-.4a.27.27,0,1,1,0-.53h.4a.27.27,0,0,1,0,.53Zm-1.73,0h-.4a.27.27,0,1,1,0-.53h.4a.27.27,0,0,1,0,.53Zm-1.73,0H73a.27.27,0,0,1,0-.53h.4a.27.27,0,1,1,0,.53Zm-1.73,0h-.4a.27.27,0,0,1,0-.53h.4a.27.27,0,1,1,0,.53Zm-1.73,0h-.4a.27.27,0,0,1,0-.53h.4a.27.27,0,1,1,0,.53Zm-1.73,0h-.39a.27.27,0,1,1,0-.53h.39a.27.27,0,1,1,0,.53Z"/><path class="cls-6" d="M99.29,65.77h-.4a.27.27,0,1,1,0-.53h.4a.27.27,0,1,1,0,.53Zm-1.73,0h-.4a.27.27,0,0,1,0-.53h.4a.27.27,0,1,1,0,.53Zm-1.73,0h-.4a.27.27,0,0,1,0-.53h.4a.27.27,0,1,1,0,.53Zm-1.73,0h-.4a.27.27,0,0,1,0-.53h.4a.27.27,0,1,1,0,.53Zm-1.72,0H92a.27.27,0,1,1,0-.53h.4a.27.27,0,0,1,0,.53Zm-1.73,0h-.4a.27.27,0,1,1,0-.53h.4a.27.27,0,0,1,0,.53Zm-1.73,0h-.4a.27.27,0,1,1,0-.53h.4a.27.27,0,0,1,0,.53Zm-1.73,0h-.4a.27.27,0,1,1,0-.53h.4a.27.27,0,1,1,0,.53Zm-1.73,0h-.4a.27.27,0,0,1,0-.53h.4a.27.27,0,1,1,0,.53Zm-1.73,0h-.4a.27.27,0,0,1,0-.53h.4a.27.27,0,1,1,0,.53Zm-1.73,0h-.4a.27.27,0,0,1,0-.53H82a.27.27,0,1,1,0,.53Zm-1.73,0h-.39a.27.27,0,1,1,0-.53h.39a.27.27,0,1,1,0,.53Zm-1.72,0h-.4a.27.27,0,1,1,0-.53h.4a.27.27,0,0,1,0,.53Zm-1.73,0h-.4a.27.27,0,1,1,0-.53h.4a.27.27,0,0,1,0,.53Zm-1.73,0h-.4a.27.27,0,1,1,0-.53h.4a.27.27,0,0,1,0,.53Zm-1.73,0H73a.27.27,0,0,1,0-.53h.4a.27.27,0,1,1,0,.53Zm-1.73,0h-.4a.27.27,0,0,1,0-.53h.4a.27.27,0,1,1,0,.53Zm-1.73,0h-.4a.27.27,0,0,1,0-.53h.4a.27.27,0,1,1,0,.53Zm-1.73,0h-.39a.27.27,0,1,1,0-.53h.39a.27.27,0,1,1,0,.53Z"/><path class="cls-6" d="M99.29,67.18h-.4a.27.27,0,1,1,0-.53h.4a.27.27,0,1,1,0,.53Zm-1.73,0h-.4a.27.27,0,0,1,0-.53h.4a.27.27,0,1,1,0,.53Zm-1.73,0h-.4a.27.27,0,0,1,0-.53h.4a.27.27,0,1,1,0,.53Zm-1.73,0h-.4a.27.27,0,0,1,0-.53h.4a.27.27,0,1,1,0,.53Zm-1.72,0H92a.27.27,0,1,1,0-.53h.4a.27.27,0,0,1,0,.53Zm-1.73,0h-.4a.27.27,0,1,1,0-.53h.4a.27.27,0,0,1,0,.53Zm-1.73,0h-.4a.27.27,0,1,1,0-.53h.4a.27.27,0,0,1,0,.53Zm-1.73,0h-.4a.27.27,0,1,1,0-.53h.4a.27.27,0,1,1,0,.53Zm-1.73,0h-.4a.27.27,0,0,1,0-.53h.4a.27.27,0,1,1,0,.53Zm-1.73,0h-.4a.27.27,0,0,1,0-.53h.4a.27.27,0,1,1,0,.53Zm-1.73,0h-.4a.27.27,0,0,1,0-.53H82a.27.27,0,1,1,0,.53Zm-1.73,0h-.39a.27.27,0,1,1,0-.53h.39a.27.27,0,1,1,0,.53Zm-1.72,0h-.4a.27.27,0,1,1,0-.53h.4a.27.27,0,0,1,0,.53Zm-1.73,0h-.4a.27.27,0,1,1,0-.53h.4a.27.27,0,0,1,0,.53Zm-1.73,0h-.4a.27.27,0,1,1,0-.53h.4a.27.27,0,0,1,0,.53Zm-1.73,0H73a.27.27,0,0,1,0-.53h.4a.27.27,0,1,1,0,.53Zm-1.73,0h-.4a.27.27,0,0,1,0-.53h.4a.27.27,0,1,1,0,.53Zm-1.73,0h-.4a.27.27,0,0,1,0-.53h.4a.27.27,0,1,1,0,.53Zm-1.73,0h-.39a.27.27,0,1,1,0-.53h.39a.27.27,0,1,1,0,.53Z"/><path class="cls-6" d="M99.29,68.59h-.4a.27.27,0,1,1,0-.53h.4a.27.27,0,1,1,0,.53Zm-1.73,0h-.4a.27.27,0,0,1,0-.53h.4a.27.27,0,1,1,0,.53Zm-1.73,0h-.4a.27.27,0,0,1,0-.53h.4a.27.27,0,1,1,0,.53Zm-1.73,0h-.4a.27.27,0,0,1,0-.53h.4a.27.27,0,1,1,0,.53Zm-1.72,0H92a.27.27,0,1,1,0-.53h.4a.27.27,0,0,1,0,.53Zm-1.73,0h-.4a.27.27,0,1,1,0-.53h.4a.27.27,0,0,1,0,.53Zm-1.73,0h-.4a.27.27,0,1,1,0-.53h.4a.27.27,0,0,1,0,.53Zm-1.73,0h-.4a.27.27,0,1,1,0-.53h.4a.27.27,0,1,1,0,.53Zm-1.73,0h-.4a.27.27,0,0,1,0-.53h.4a.27.27,0,1,1,0,.53Zm-1.73,0h-.4a.27.27,0,0,1,0-.53h.4a.27.27,0,1,1,0,.53Zm-1.73,0h-.4a.27.27,0,0,1,0-.53H82a.27.27,0,1,1,0,.53Zm-1.73,0h-.39a.27.27,0,1,1,0-.53h.39a.27.27,0,1,1,0,.53Zm-1.72,0h-.4a.27.27,0,1,1,0-.53h.4a.27.27,0,0,1,0,.53Zm-1.73,0h-.4a.27.27,0,1,1,0-.53h.4a.27.27,0,0,1,0,.53Zm-1.73,0h-.4a.27.27,0,1,1,0-.53h.4a.27.27,0,0,1,0,.53Zm-1.73,0H73a.27.27,0,0,1,0-.53h.4a.27.27,0,1,1,0,.53Zm-1.73,0h-.4a.27.27,0,0,1,0-.53h.4a.27.27,0,1,1,0,.53Zm-1.73,0h-.4a.27.27,0,0,1,0-.53h.4a.27.27,0,1,1,0,.53Zm-1.73,0h-.39a.27.27,0,1,1,0-.53h.39a.27.27,0,1,1,0,.53Z"/><path class="cls-6" d="M99.29,70h-.4a.27.27,0,1,1,0-.53h.4a.27.27,0,1,1,0,.53Zm-1.73,0h-.4a.27.27,0,0,1,0-.53h.4a.27.27,0,1,1,0,.53Zm-1.73,0h-.4a.27.27,0,0,1,0-.53h.4a.27.27,0,1,1,0,.53ZM94.1,70h-.4a.27.27,0,0,1,0-.53h.4a.27.27,0,1,1,0,.53Zm-1.72,0H92a.27.27,0,1,1,0-.53h.4a.27.27,0,0,1,0,.53Zm-1.73,0h-.4a.27.27,0,1,1,0-.53h.4a.27.27,0,0,1,0,.53Zm-1.73,0h-.4a.27.27,0,1,1,0-.53h.4a.27.27,0,0,1,0,.53Zm-1.73,0h-.4a.27.27,0,1,1,0-.53h.4a.27.27,0,1,1,0,.53Zm-1.73,0h-.4a.27.27,0,0,1,0-.53h.4a.27.27,0,1,1,0,.53Zm-1.73,0h-.4a.27.27,0,0,1,0-.53h.4a.27.27,0,1,1,0,.53ZM82,70h-.4a.27.27,0,0,1,0-.53H82A.27.27,0,1,1,82,70Zm-1.73,0h-.39a.27.27,0,1,1,0-.53h.39a.27.27,0,1,1,0,.53Zm-1.72,0h-.4a.27.27,0,1,1,0-.53h.4a.27.27,0,0,1,0,.53Zm-1.73,0h-.4a.27.27,0,1,1,0-.53h.4a.27.27,0,0,1,0,.53Zm-1.73,0h-.4a.27.27,0,1,1,0-.53h.4a.27.27,0,0,1,0,.53Zm-1.73,0H73a.27.27,0,0,1,0-.53h.4a.27.27,0,1,1,0,.53Zm-1.73,0h-.4a.27.27,0,0,1,0-.53h.4a.27.27,0,1,1,0,.53ZM69.9,70h-.4a.27.27,0,0,1,0-.53h.4a.27.27,0,1,1,0,.53Zm-1.73,0h-.39a.27.27,0,1,1,0-.53h.39a.27.27,0,1,1,0,.53Z"/><path class="cls-6" d="M99.29,71.41h-.4a.27.27,0,1,1,0-.53h.4a.27.27,0,1,1,0,.53Zm-1.73,0h-.4a.27.27,0,0,1,0-.53h.4a.27.27,0,1,1,0,.53Zm-1.73,0h-.4a.27.27,0,0,1,0-.53h.4a.27.27,0,1,1,0,.53Zm-1.73,0h-.4a.27.27,0,0,1,0-.53h.4a.27.27,0,1,1,0,.53Zm-1.72,0H92a.27.27,0,1,1,0-.53h.4a.27.27,0,0,1,0,.53Zm-1.73,0h-.4a.27.27,0,1,1,0-.53h.4a.27.27,0,0,1,0,.53Zm-1.73,0h-.4a.27.27,0,1,1,0-.53h.4a.27.27,0,0,1,0,.53Zm-1.73,0h-.4a.27.27,0,1,1,0-.53h.4a.27.27,0,1,1,0,.53Zm-1.73,0h-.4a.27.27,0,0,1,0-.53h.4a.27.27,0,1,1,0,.53Zm-1.73,0h-.4a.27.27,0,0,1,0-.53h.4a.27.27,0,1,1,0,.53Zm-1.73,0h-.4a.27.27,0,0,1,0-.53H82a.27.27,0,1,1,0,.53Zm-1.73,0h-.39a.27.27,0,1,1,0-.53h.39a.27.27,0,1,1,0,.53Zm-1.72,0h-.4a.27.27,0,1,1,0-.53h.4a.27.27,0,0,1,0,.53Zm-1.73,0h-.4a.27.27,0,1,1,0-.53h.4a.27.27,0,0,1,0,.53Zm-1.73,0h-.4a.27.27,0,1,1,0-.53h.4a.27.27,0,0,1,0,.53Zm-1.73,0H73a.27.27,0,0,1,0-.53h.4a.27.27,0,1,1,0,.53Zm-1.73,0h-.4a.27.27,0,0,1,0-.53h.4a.27.27,0,1,1,0,.53Zm-1.73,0h-.4a.27.27,0,0,1,0-.53h.4a.27.27,0,1,1,0,.53Zm-1.73,0h-.39a.27.27,0,1,1,0-.53h.39a.27.27,0,1,1,0,.53Z"/><path class="cls-6" d="M99.29,72.82h-.4a.27.27,0,1,1,0-.53h.4a.27.27,0,1,1,0,.53Zm-1.73,0h-.4a.27.27,0,0,1,0-.53h.4a.27.27,0,1,1,0,.53Zm-1.73,0h-.4a.27.27,0,0,1,0-.53h.4a.27.27,0,1,1,0,.53Zm-1.73,0h-.4a.27.27,0,0,1,0-.53h.4a.27.27,0,1,1,0,.53Zm-1.72,0H92a.27.27,0,1,1,0-.53h.4a.27.27,0,0,1,0,.53Zm-1.73,0h-.4a.27.27,0,1,1,0-.53h.4a.27.27,0,0,1,0,.53Zm-1.73,0h-.4a.27.27,0,1,1,0-.53h.4a.27.27,0,0,1,0,.53Zm-1.73,0h-.4a.27.27,0,1,1,0-.53h.4a.27.27,0,1,1,0,.53Zm-1.73,0h-.4a.27.27,0,0,1,0-.53h.4a.27.27,0,1,1,0,.53Zm-1.73,0h-.4a.27.27,0,0,1,0-.53h.4a.27.27,0,1,1,0,.53Zm-1.73,0h-.4a.27.27,0,0,1,0-.53H82a.27.27,0,1,1,0,.53Zm-1.73,0h-.39a.27.27,0,1,1,0-.53h.39a.27.27,0,1,1,0,.53Zm-1.72,0h-.4a.27.27,0,1,1,0-.53h.4a.27.27,0,0,1,0,.53Zm-1.73,0h-.4a.27.27,0,1,1,0-.53h.4a.27.27,0,0,1,0,.53Zm-1.73,0h-.4a.27.27,0,1,1,0-.53h.4a.27.27,0,0,1,0,.53Zm-1.73,0H73a.27.27,0,0,1,0-.53h.4a.27.27,0,1,1,0,.53Zm-1.73,0h-.4a.27.27,0,0,1,0-.53h.4a.27.27,0,1,1,0,.53Zm-1.73,0h-.4a.27.27,0,0,1,0-.53h.4a.27.27,0,1,1,0,.53Zm-1.73,0h-.39a.27.27,0,1,1,0-.53h.39a.27.27,0,1,1,0,.53Z"/><path class="cls-6" d="M99.29,74.23h-.4a.27.27,0,1,1,0-.53h.4a.27.27,0,1,1,0,.53Zm-1.73,0h-.4a.27.27,0,0,1,0-.53h.4a.27.27,0,1,1,0,.53Zm-1.73,0h-.4a.27.27,0,0,1,0-.53h.4a.27.27,0,1,1,0,.53Zm-1.73,0h-.4a.27.27,0,0,1,0-.53h.4a.27.27,0,1,1,0,.53Zm-1.72,0H92a.27.27,0,1,1,0-.53h.4a.27.27,0,0,1,0,.53Zm-1.73,0h-.4a.27.27,0,1,1,0-.53h.4a.27.27,0,0,1,0,.53Zm-1.73,0h-.4a.27.27,0,1,1,0-.53h.4a.27.27,0,0,1,0,.53Zm-1.73,0h-.4a.27.27,0,1,1,0-.53h.4a.27.27,0,1,1,0,.53Zm-1.73,0h-.4a.27.27,0,0,1,0-.53h.4a.27.27,0,1,1,0,.53Zm-1.73,0h-.4a.27.27,0,0,1,0-.53h.4a.27.27,0,1,1,0,.53Zm-1.73,0h-.4a.27.27,0,0,1,0-.53H82a.27.27,0,1,1,0,.53Zm-1.73,0h-.39a.27.27,0,1,1,0-.53h.39a.27.27,0,1,1,0,.53Zm-1.72,0h-.4a.27.27,0,1,1,0-.53h.4a.27.27,0,0,1,0,.53Zm-1.73,0h-.4a.27.27,0,1,1,0-.53h.4a.27.27,0,0,1,0,.53Zm-1.73,0h-.4a.27.27,0,1,1,0-.53h.4a.27.27,0,0,1,0,.53Zm-1.73,0H73a.27.27,0,0,1,0-.53h.4a.27.27,0,1,1,0,.53Zm-1.73,0h-.4a.27.27,0,0,1,0-.53h.4a.27.27,0,1,1,0,.53Zm-1.73,0h-.4a.27.27,0,0,1,0-.53h.4a.27.27,0,1,1,0,.53Zm-1.73,0h-.39a.27.27,0,1,1,0-.53h.39a.27.27,0,1,1,0,.53Z"/><path class="cls-6" d="M99.29,75.64h-.4a.27.27,0,1,1,0-.53h.4a.27.27,0,1,1,0,.53Zm-1.73,0h-.4a.27.27,0,0,1,0-.53h.4a.27.27,0,1,1,0,.53Zm-1.73,0h-.4a.27.27,0,0,1,0-.53h.4a.27.27,0,1,1,0,.53Zm-1.73,0h-.4a.27.27,0,0,1,0-.53h.4a.27.27,0,1,1,0,.53Zm-1.72,0H92a.27.27,0,1,1,0-.53h.4a.27.27,0,0,1,0,.53Zm-1.73,0h-.4a.27.27,0,1,1,0-.53h.4a.27.27,0,0,1,0,.53Zm-1.73,0h-.4a.27.27,0,1,1,0-.53h.4a.27.27,0,0,1,0,.53Zm-1.73,0h-.4a.27.27,0,1,1,0-.53h.4a.27.27,0,1,1,0,.53Zm-1.73,0h-.4a.27.27,0,0,1,0-.53h.4a.27.27,0,1,1,0,.53Zm-1.73,0h-.4a.27.27,0,0,1,0-.53h.4a.27.27,0,1,1,0,.53Zm-1.73,0h-.4a.27.27,0,0,1,0-.53H82a.27.27,0,1,1,0,.53Zm-1.73,0h-.39a.27.27,0,1,1,0-.53h.39a.27.27,0,1,1,0,.53Zm-1.72,0h-.4a.27.27,0,1,1,0-.53h.4a.27.27,0,0,1,0,.53Zm-1.73,0h-.4a.27.27,0,1,1,0-.53h.4a.27.27,0,0,1,0,.53Zm-1.73,0h-.4a.27.27,0,1,1,0-.53h.4a.27.27,0,0,1,0,.53Zm-1.73,0H73a.27.27,0,0,1,0-.53h.4a.27.27,0,1,1,0,.53Zm-1.73,0h-.4a.27.27,0,0,1,0-.53h.4a.27.27,0,1,1,0,.53Zm-1.73,0h-.4a.27.27,0,0,1,0-.53h.4a.27.27,0,1,1,0,.53Zm-1.73,0h-.39a.27.27,0,1,1,0-.53h.39a.27.27,0,1,1,0,.53Z"/><path class="cls-6" d="M99.29,77.05h-.4a.27.27,0,1,1,0-.53h.4a.27.27,0,1,1,0,.53Zm-1.73,0h-.4a.27.27,0,0,1,0-.53h.4a.27.27,0,1,1,0,.53Zm-1.73,0h-.4a.27.27,0,0,1,0-.53h.4a.27.27,0,1,1,0,.53Zm-1.73,0h-.4a.27.27,0,0,1,0-.53h.4a.27.27,0,1,1,0,.53Zm-1.72,0H92a.27.27,0,1,1,0-.53h.4a.27.27,0,0,1,0,.53Zm-1.73,0h-.4a.27.27,0,1,1,0-.53h.4a.27.27,0,0,1,0,.53Zm-1.73,0h-.4a.27.27,0,1,1,0-.53h.4a.27.27,0,0,1,0,.53Zm-1.73,0h-.4a.27.27,0,1,1,0-.53h.4a.27.27,0,1,1,0,.53Zm-1.73,0h-.4a.27.27,0,0,1,0-.53h.4a.27.27,0,1,1,0,.53Zm-1.73,0h-.4a.27.27,0,0,1,0-.53h.4a.27.27,0,1,1,0,.53Zm-1.73,0h-.4a.27.27,0,0,1,0-.53H82a.27.27,0,1,1,0,.53Zm-1.73,0h-.39a.27.27,0,1,1,0-.53h.39a.27.27,0,1,1,0,.53Zm-1.72,0h-.4a.27.27,0,1,1,0-.53h.4a.27.27,0,0,1,0,.53Zm-1.73,0h-.4a.27.27,0,1,1,0-.53h.4a.27.27,0,0,1,0,.53Zm-1.73,0h-.4a.27.27,0,1,1,0-.53h.4a.27.27,0,0,1,0,.53Zm-1.73,0H73a.27.27,0,0,1,0-.53h.4a.27.27,0,1,1,0,.53Zm-1.73,0h-.4a.27.27,0,0,1,0-.53h.4a.27.27,0,1,1,0,.53Zm-1.73,0h-.4a.27.27,0,0,1,0-.53h.4a.27.27,0,1,1,0,.53Zm-1.73,0h-.39a.27.27,0,1,1,0-.53h.39a.27.27,0,1,1,0,.53Z"/><path class="cls-6" d="M99.29,78.46h-.4a.27.27,0,1,1,0-.53h.4a.27.27,0,1,1,0,.53Zm-1.73,0h-.4a.27.27,0,0,1,0-.53h.4a.27.27,0,1,1,0,.53Zm-1.73,0h-.4a.27.27,0,0,1,0-.53h.4a.27.27,0,1,1,0,.53Zm-1.73,0h-.4a.27.27,0,0,1,0-.53h.4a.27.27,0,1,1,0,.53Zm-1.72,0H92a.27.27,0,1,1,0-.53h.4a.27.27,0,0,1,0,.53Zm-1.73,0h-.4a.27.27,0,1,1,0-.53h.4a.27.27,0,0,1,0,.53Zm-1.73,0h-.4a.27.27,0,1,1,0-.53h.4a.27.27,0,0,1,0,.53Zm-1.73,0h-.4a.27.27,0,1,1,0-.53h.4a.27.27,0,1,1,0,.53Zm-1.73,0h-.4a.27.27,0,0,1,0-.53h.4a.27.27,0,1,1,0,.53Zm-1.73,0h-.4a.27.27,0,0,1,0-.53h.4a.27.27,0,1,1,0,.53Zm-1.73,0h-.4a.27.27,0,0,1,0-.53H82a.27.27,0,1,1,0,.53Zm-1.73,0h-.39a.27.27,0,1,1,0-.53h.39a.27.27,0,1,1,0,.53Zm-1.72,0h-.4a.27.27,0,1,1,0-.53h.4a.27.27,0,0,1,0,.53Zm-1.73,0h-.4a.27.27,0,1,1,0-.53h.4a.27.27,0,0,1,0,.53Zm-1.73,0h-.4a.27.27,0,1,1,0-.53h.4a.27.27,0,0,1,0,.53Zm-1.73,0H73a.27.27,0,0,1,0-.53h.4a.27.27,0,1,1,0,.53Zm-1.73,0h-.4a.27.27,0,0,1,0-.53h.4a.27.27,0,1,1,0,.53Zm-1.73,0h-.4a.27.27,0,0,1,0-.53h.4a.27.27,0,1,1,0,.53Zm-1.73,0h-.39a.27.27,0,1,1,0-.53h.39a.27.27,0,1,1,0,.53Z"/><path class="cls-6" d="M99.29,79.87h-.4a.27.27,0,1,1,0-.53h.4a.27.27,0,1,1,0,.53Zm-1.73,0h-.4a.27.27,0,0,1,0-.53h.4a.27.27,0,1,1,0,.53Zm-1.73,0h-.4a.27.27,0,0,1,0-.53h.4a.27.27,0,1,1,0,.53Zm-1.73,0h-.4a.27.27,0,0,1,0-.53h.4a.27.27,0,1,1,0,.53Zm-1.72,0H92a.27.27,0,1,1,0-.53h.4a.27.27,0,0,1,0,.53Zm-1.73,0h-.4a.27.27,0,1,1,0-.53h.4a.27.27,0,0,1,0,.53Zm-1.73,0h-.4a.27.27,0,1,1,0-.53h.4a.27.27,0,0,1,0,.53Zm-1.73,0h-.4a.27.27,0,1,1,0-.53h.4a.27.27,0,1,1,0,.53Zm-1.73,0h-.4a.27.27,0,0,1,0-.53h.4a.27.27,0,1,1,0,.53Zm-1.73,0h-.4a.27.27,0,0,1,0-.53h.4a.27.27,0,1,1,0,.53Zm-1.73,0h-.4a.27.27,0,0,1,0-.53H82a.27.27,0,1,1,0,.53Zm-1.73,0h-.39a.27.27,0,1,1,0-.53h.39a.27.27,0,1,1,0,.53Zm-1.72,0h-.4a.27.27,0,1,1,0-.53h.4a.27.27,0,0,1,0,.53Zm-1.73,0h-.4a.27.27,0,1,1,0-.53h.4a.27.27,0,0,1,0,.53Zm-1.73,0h-.4a.27.27,0,1,1,0-.53h.4a.27.27,0,0,1,0,.53Zm-1.73,0H73a.27.27,0,0,1,0-.53h.4a.27.27,0,1,1,0,.53Zm-1.73,0h-.4a.27.27,0,0,1,0-.53h.4a.27.27,0,1,1,0,.53Zm-1.73,0h-.4a.27.27,0,0,1,0-.53h.4a.27.27,0,1,1,0,.53Zm-1.73,0h-.39a.27.27,0,1,1,0-.53h.39a.27.27,0,1,1,0,.53Z"/><path class="cls-6" d="M99.29,81.28h-.4a.27.27,0,1,1,0-.53h.4a.27.27,0,1,1,0,.53Zm-1.73,0h-.4a.27.27,0,0,1,0-.53h.4a.27.27,0,1,1,0,.53Zm-1.73,0h-.4a.27.27,0,0,1,0-.53h.4a.27.27,0,1,1,0,.53Zm-1.73,0h-.4a.27.27,0,0,1,0-.53h.4a.27.27,0,1,1,0,.53Zm-1.72,0H92a.27.27,0,1,1,0-.53h.4a.27.27,0,0,1,0,.53Zm-1.73,0h-.4a.27.27,0,1,1,0-.53h.4a.27.27,0,0,1,0,.53Zm-1.73,0h-.4a.27.27,0,1,1,0-.53h.4a.27.27,0,0,1,0,.53Zm-1.73,0h-.4a.27.27,0,1,1,0-.53h.4a.27.27,0,1,1,0,.53Zm-1.73,0h-.4a.27.27,0,0,1,0-.53h.4a.27.27,0,1,1,0,.53Zm-1.73,0h-.4a.27.27,0,0,1,0-.53h.4a.27.27,0,1,1,0,.53Zm-1.73,0h-.4a.27.27,0,0,1,0-.53H82a.27.27,0,1,1,0,.53Zm-1.73,0h-.39a.27.27,0,1,1,0-.53h.39a.27.27,0,1,1,0,.53Zm-1.72,0h-.4a.27.27,0,1,1,0-.53h.4a.27.27,0,0,1,0,.53Zm-1.73,0h-.4a.27.27,0,1,1,0-.53h.4a.27.27,0,0,1,0,.53Zm-1.73,0h-.4a.27.27,0,1,1,0-.53h.4a.27.27,0,0,1,0,.53Zm-1.73,0H73a.27.27,0,0,1,0-.53h.4a.27.27,0,1,1,0,.53Zm-1.73,0h-.4a.27.27,0,0,1,0-.53h.4a.27.27,0,1,1,0,.53Zm-1.73,0h-.4a.27.27,0,0,1,0-.53h.4a.27.27,0,1,1,0,.53Zm-1.73,0h-.39a.27.27,0,1,1,0-.53h.39a.27.27,0,1,1,0,.53Z"/><path class="cls-6" d="M99.29,82.69h-.4a.27.27,0,1,1,0-.53h.4a.27.27,0,1,1,0,.53Zm-1.73,0h-.4a.27.27,0,0,1,0-.53h.4a.27.27,0,1,1,0,.53Zm-1.73,0h-.4a.27.27,0,0,1,0-.53h.4a.27.27,0,1,1,0,.53Zm-1.73,0h-.4a.27.27,0,0,1,0-.53h.4a.27.27,0,1,1,0,.53Zm-1.72,0H92a.27.27,0,1,1,0-.53h.4a.27.27,0,0,1,0,.53Zm-1.73,0h-.4a.27.27,0,1,1,0-.53h.4a.27.27,0,0,1,0,.53Zm-1.73,0h-.4a.27.27,0,1,1,0-.53h.4a.27.27,0,0,1,0,.53Zm-1.73,0h-.4a.27.27,0,1,1,0-.53h.4a.27.27,0,1,1,0,.53Zm-1.73,0h-.4a.27.27,0,0,1,0-.53h.4a.27.27,0,1,1,0,.53Zm-1.73,0h-.4a.27.27,0,0,1,0-.53h.4a.27.27,0,1,1,0,.53Zm-1.73,0h-.4a.27.27,0,0,1,0-.53H82a.27.27,0,1,1,0,.53Zm-1.73,0h-.39a.27.27,0,1,1,0-.53h.39a.27.27,0,1,1,0,.53Zm-1.72,0h-.4a.27.27,0,1,1,0-.53h.4a.27.27,0,0,1,0,.53Zm-1.73,0h-.4a.27.27,0,1,1,0-.53h.4a.27.27,0,0,1,0,.53Zm-1.73,0h-.4a.27.27,0,1,1,0-.53h.4a.27.27,0,0,1,0,.53Zm-1.73,0H73a.27.27,0,0,1,0-.53h.4a.27.27,0,1,1,0,.53Zm-1.73,0h-.4a.27.27,0,0,1,0-.53h.4a.27.27,0,1,1,0,.53Zm-1.73,0h-.4a.27.27,0,0,1,0-.53h.4a.27.27,0,1,1,0,.53Zm-1.73,0h-.39a.27.27,0,1,1,0-.53h.39a.27.27,0,1,1,0,.53Z"/><path class="cls-6" d="M99.29,84.1h-.4a.27.27,0,1,1,0-.53h.4a.27.27,0,1,1,0,.53Zm-1.73,0h-.4a.27.27,0,0,1,0-.53h.4a.27.27,0,1,1,0,.53Zm-1.73,0h-.4a.27.27,0,0,1,0-.53h.4a.27.27,0,1,1,0,.53Zm-1.73,0h-.4a.27.27,0,0,1,0-.53h.4a.27.27,0,1,1,0,.53Zm-1.72,0H92a.27.27,0,1,1,0-.53h.4a.27.27,0,0,1,0,.53Zm-1.73,0h-.4a.27.27,0,1,1,0-.53h.4a.27.27,0,0,1,0,.53Zm-1.73,0h-.4a.27.27,0,1,1,0-.53h.4a.27.27,0,0,1,0,.53Zm-1.73,0h-.4a.27.27,0,1,1,0-.53h.4a.27.27,0,1,1,0,.53Zm-1.73,0h-.4a.27.27,0,0,1,0-.53h.4a.27.27,0,1,1,0,.53Zm-1.73,0h-.4a.27.27,0,0,1,0-.53h.4a.27.27,0,1,1,0,.53ZM82,84.1h-.4a.27.27,0,0,1,0-.53H82a.27.27,0,1,1,0,.53Zm-1.73,0h-.39a.27.27,0,1,1,0-.53h.39a.27.27,0,1,1,0,.53Zm-1.72,0h-.4a.27.27,0,1,1,0-.53h.4a.27.27,0,0,1,0,.53Zm-1.73,0h-.4a.27.27,0,1,1,0-.53h.4a.27.27,0,0,1,0,.53Zm-1.73,0h-.4a.27.27,0,1,1,0-.53h.4a.27.27,0,0,1,0,.53Zm-1.73,0H73a.27.27,0,0,1,0-.53h.4a.27.27,0,1,1,0,.53Zm-1.73,0h-.4a.27.27,0,0,1,0-.53h.4a.27.27,0,1,1,0,.53Zm-1.73,0h-.4a.27.27,0,0,1,0-.53h.4a.27.27,0,1,1,0,.53Zm-1.73,0h-.39a.27.27,0,1,1,0-.53h.39a.27.27,0,1,1,0,.53Z"/><path class="cls-6" d="M99.29,85.51h-.4a.27.27,0,1,1,0-.53h.4a.27.27,0,1,1,0,.53Zm-1.73,0h-.4a.27.27,0,0,1,0-.53h.4a.27.27,0,1,1,0,.53Zm-1.73,0h-.4a.27.27,0,0,1,0-.53h.4a.27.27,0,1,1,0,.53Zm-1.73,0h-.4a.27.27,0,0,1,0-.53h.4a.27.27,0,1,1,0,.53Zm-1.72,0H92A.27.27,0,1,1,92,85h.4a.27.27,0,0,1,0,.53Zm-1.73,0h-.4a.27.27,0,1,1,0-.53h.4a.27.27,0,0,1,0,.53Zm-1.73,0h-.4a.27.27,0,1,1,0-.53h.4a.27.27,0,0,1,0,.53Zm-1.73,0h-.4a.27.27,0,1,1,0-.53h.4a.27.27,0,1,1,0,.53Zm-1.73,0h-.4a.27.27,0,0,1,0-.53h.4a.27.27,0,1,1,0,.53Zm-1.73,0h-.4a.27.27,0,0,1,0-.53h.4a.27.27,0,1,1,0,.53Zm-1.73,0h-.4a.27.27,0,0,1,0-.53H82a.27.27,0,1,1,0,.53Zm-1.73,0h-.39a.27.27,0,1,1,0-.53h.39a.27.27,0,1,1,0,.53Zm-1.72,0h-.4a.27.27,0,1,1,0-.53h.4a.27.27,0,0,1,0,.53Zm-1.73,0h-.4a.27.27,0,1,1,0-.53h.4a.27.27,0,0,1,0,.53Zm-1.73,0h-.4a.27.27,0,1,1,0-.53h.4a.27.27,0,0,1,0,.53Zm-1.73,0H73A.27.27,0,0,1,73,85h.4a.27.27,0,1,1,0,.53Zm-1.73,0h-.4a.27.27,0,0,1,0-.53h.4a.27.27,0,1,1,0,.53Zm-1.73,0h-.4a.27.27,0,0,1,0-.53h.4a.27.27,0,1,1,0,.53Zm-1.73,0h-.39a.27.27,0,1,1,0-.53h.39a.27.27,0,1,1,0,.53Z"/><path class="cls-6" d="M99.29,86.92h-.4a.27.27,0,1,1,0-.53h.4a.27.27,0,1,1,0,.53Zm-1.73,0h-.4a.27.27,0,0,1,0-.53h.4a.27.27,0,1,1,0,.53Zm-1.73,0h-.4a.27.27,0,0,1,0-.53h.4a.27.27,0,1,1,0,.53Zm-1.73,0h-.4a.27.27,0,0,1,0-.53h.4a.27.27,0,1,1,0,.53Zm-1.72,0H92a.27.27,0,1,1,0-.53h.4a.27.27,0,0,1,0,.53Zm-1.73,0h-.4a.27.27,0,1,1,0-.53h.4a.27.27,0,0,1,0,.53Zm-1.73,0h-.4a.27.27,0,1,1,0-.53h.4a.27.27,0,0,1,0,.53Zm-1.73,0h-.4a.27.27,0,1,1,0-.53h.4a.27.27,0,1,1,0,.53Zm-1.73,0h-.4a.27.27,0,0,1,0-.53h.4a.27.27,0,1,1,0,.53Zm-1.73,0h-.4a.27.27,0,0,1,0-.53h.4a.27.27,0,1,1,0,.53Zm-1.73,0h-.4a.27.27,0,0,1,0-.53H82a.27.27,0,1,1,0,.53Zm-1.73,0h-.39a.27.27,0,1,1,0-.53h.39a.27.27,0,1,1,0,.53Zm-1.72,0h-.4a.27.27,0,1,1,0-.53h.4a.27.27,0,0,1,0,.53Zm-1.73,0h-.4a.27.27,0,1,1,0-.53h.4a.27.27,0,0,1,0,.53Zm-1.73,0h-.4a.27.27,0,1,1,0-.53h.4a.27.27,0,0,1,0,.53Zm-1.73,0H73a.27.27,0,0,1,0-.53h.4a.27.27,0,1,1,0,.53Zm-1.73,0h-.4a.27.27,0,0,1,0-.53h.4a.27.27,0,1,1,0,.53Zm-1.73,0h-.4a.27.27,0,0,1,0-.53h.4a.27.27,0,1,1,0,.53Zm-1.73,0h-.39a.27.27,0,1,1,0-.53h.39a.27.27,0,1,1,0,.53Z"/><path class="cls-6" d="M99.29,88.33h-.4a.27.27,0,1,1,0-.53h.4a.27.27,0,1,1,0,.53Zm-1.73,0h-.4a.27.27,0,0,1,0-.53h.4a.27.27,0,1,1,0,.53Zm-1.73,0h-.4a.27.27,0,0,1,0-.53h.4a.27.27,0,1,1,0,.53Zm-1.73,0h-.4a.27.27,0,0,1,0-.53h.4a.27.27,0,1,1,0,.53Zm-1.72,0H92a.27.27,0,1,1,0-.53h.4a.27.27,0,0,1,0,.53Zm-1.73,0h-.4a.27.27,0,1,1,0-.53h.4a.27.27,0,0,1,0,.53Zm-1.73,0h-.4a.27.27,0,1,1,0-.53h.4a.27.27,0,0,1,0,.53Zm-1.73,0h-.4a.27.27,0,1,1,0-.53h.4a.27.27,0,1,1,0,.53Zm-1.73,0h-.4a.27.27,0,0,1,0-.53h.4a.27.27,0,1,1,0,.53Zm-1.73,0h-.4a.27.27,0,0,1,0-.53h.4a.27.27,0,1,1,0,.53Zm-1.73,0h-.4a.27.27,0,0,1,0-.53H82a.27.27,0,1,1,0,.53Zm-1.73,0h-.39a.27.27,0,1,1,0-.53h.39a.27.27,0,1,1,0,.53Zm-1.72,0h-.4a.27.27,0,1,1,0-.53h.4a.27.27,0,0,1,0,.53Zm-1.73,0h-.4a.27.27,0,1,1,0-.53h.4a.27.27,0,0,1,0,.53Zm-1.73,0h-.4a.27.27,0,1,1,0-.53h.4a.27.27,0,0,1,0,.53Zm-1.73,0H73a.27.27,0,0,1,0-.53h.4a.27.27,0,1,1,0,.53Zm-1.73,0h-.4a.27.27,0,0,1,0-.53h.4a.27.27,0,1,1,0,.53Zm-1.73,0h-.4a.27.27,0,0,1,0-.53h.4a.27.27,0,1,1,0,.53Zm-1.73,0h-.39a.27.27,0,1,1,0-.53h.39a.27.27,0,1,1,0,.53Z"/><path class="cls-6" d="M99.29,89.74h-.4a.27.27,0,1,1,0-.53h.4a.27.27,0,1,1,0,.53Zm-1.73,0h-.4a.27.27,0,0,1,0-.53h.4a.27.27,0,1,1,0,.53Zm-1.73,0h-.4a.27.27,0,0,1,0-.53h.4a.27.27,0,1,1,0,.53Zm-1.73,0h-.4a.27.27,0,0,1,0-.53h.4a.27.27,0,1,1,0,.53Zm-1.72,0H92a.27.27,0,1,1,0-.53h.4a.27.27,0,0,1,0,.53Zm-1.73,0h-.4a.27.27,0,1,1,0-.53h.4a.27.27,0,0,1,0,.53Zm-1.73,0h-.4a.27.27,0,1,1,0-.53h.4a.27.27,0,0,1,0,.53Zm-1.73,0h-.4a.27.27,0,1,1,0-.53h.4a.27.27,0,1,1,0,.53Zm-1.73,0h-.4a.27.27,0,0,1,0-.53h.4a.27.27,0,1,1,0,.53Zm-1.73,0h-.4a.27.27,0,0,1,0-.53h.4a.27.27,0,1,1,0,.53Zm-1.73,0h-.4a.27.27,0,0,1,0-.53H82a.27.27,0,1,1,0,.53Zm-1.73,0h-.39a.27.27,0,1,1,0-.53h.39a.27.27,0,1,1,0,.53Zm-1.72,0h-.4a.27.27,0,1,1,0-.53h.4a.27.27,0,0,1,0,.53Zm-1.73,0h-.4a.27.27,0,1,1,0-.53h.4a.27.27,0,0,1,0,.53Zm-1.73,0h-.4a.27.27,0,1,1,0-.53h.4a.27.27,0,0,1,0,.53Zm-1.73,0H73a.27.27,0,0,1,0-.53h.4a.27.27,0,1,1,0,.53Zm-1.73,0h-.4a.27.27,0,0,1,0-.53h.4a.27.27,0,1,1,0,.53Zm-1.73,0h-.4a.27.27,0,0,1,0-.53h.4a.27.27,0,1,1,0,.53Zm-1.73,0h-.39a.27.27,0,1,1,0-.53h.39a.27.27,0,1,1,0,.53Z"/><path class="cls-6" d="M99.29,91.15h-.4a.27.27,0,1,1,0-.53h.4a.27.27,0,1,1,0,.53Zm-1.73,0h-.4a.27.27,0,0,1,0-.53h.4a.27.27,0,1,1,0,.53Zm-1.73,0h-.4a.27.27,0,0,1,0-.53h.4a.27.27,0,1,1,0,.53Zm-1.73,0h-.4a.27.27,0,0,1,0-.53h.4a.27.27,0,1,1,0,.53Zm-1.72,0H92a.27.27,0,1,1,0-.53h.4a.27.27,0,0,1,0,.53Zm-1.73,0h-.4a.27.27,0,1,1,0-.53h.4a.27.27,0,0,1,0,.53Zm-1.73,0h-.4a.27.27,0,1,1,0-.53h.4a.27.27,0,0,1,0,.53Zm-1.73,0h-.4a.27.27,0,1,1,0-.53h.4a.27.27,0,1,1,0,.53Zm-1.73,0h-.4a.27.27,0,0,1,0-.53h.4a.27.27,0,1,1,0,.53Zm-1.73,0h-.4a.27.27,0,0,1,0-.53h.4a.27.27,0,1,1,0,.53Zm-1.73,0h-.4a.27.27,0,0,1,0-.53H82a.27.27,0,1,1,0,.53Zm-1.73,0h-.39a.27.27,0,1,1,0-.53h.39a.27.27,0,1,1,0,.53Zm-1.72,0h-.4a.27.27,0,1,1,0-.53h.4a.27.27,0,0,1,0,.53Zm-1.73,0h-.4a.27.27,0,1,1,0-.53h.4a.27.27,0,0,1,0,.53Zm-1.73,0h-.4a.27.27,0,1,1,0-.53h.4a.27.27,0,0,1,0,.53Zm-1.73,0H73a.27.27,0,0,1,0-.53h.4a.27.27,0,1,1,0,.53Zm-1.73,0h-.4a.27.27,0,0,1,0-.53h.4a.27.27,0,1,1,0,.53Zm-1.73,0h-.4a.27.27,0,0,1,0-.53h.4a.27.27,0,1,1,0,.53Zm-1.73,0h-.39a.27.27,0,1,1,0-.53h.39a.27.27,0,1,1,0,.53Z"/><path class="cls-6" d="M99.29,92.56h-.4a.27.27,0,1,1,0-.53h.4a.27.27,0,1,1,0,.53Zm-1.73,0h-.4a.27.27,0,0,1,0-.53h.4a.27.27,0,1,1,0,.53Zm-1.73,0h-.4a.27.27,0,0,1,0-.53h.4a.27.27,0,1,1,0,.53Zm-1.73,0h-.4a.27.27,0,0,1,0-.53h.4a.27.27,0,1,1,0,.53Zm-1.72,0H92A.27.27,0,1,1,92,92h.4a.27.27,0,0,1,0,.53Zm-1.73,0h-.4a.27.27,0,1,1,0-.53h.4a.27.27,0,0,1,0,.53Zm-1.73,0h-.4a.27.27,0,1,1,0-.53h.4a.27.27,0,0,1,0,.53Zm-1.73,0h-.4a.27.27,0,1,1,0-.53h.4a.27.27,0,1,1,0,.53Zm-1.73,0h-.4a.27.27,0,0,1,0-.53h.4a.27.27,0,1,1,0,.53Zm-1.73,0h-.4a.27.27,0,0,1,0-.53h.4a.27.27,0,1,1,0,.53Zm-1.73,0h-.4a.27.27,0,0,1,0-.53H82a.27.27,0,1,1,0,.53Zm-1.73,0h-.39a.27.27,0,1,1,0-.53h.39a.27.27,0,1,1,0,.53Zm-1.72,0h-.4a.27.27,0,1,1,0-.53h.4a.27.27,0,0,1,0,.53Zm-1.73,0h-.4a.27.27,0,1,1,0-.53h.4a.27.27,0,0,1,0,.53Zm-1.73,0h-.4a.27.27,0,1,1,0-.53h.4a.27.27,0,0,1,0,.53Zm-1.73,0H73A.27.27,0,0,1,73,92h.4a.27.27,0,1,1,0,.53Zm-1.73,0h-.4a.27.27,0,0,1,0-.53h.4a.27.27,0,1,1,0,.53Zm-1.73,0h-.4a.27.27,0,0,1,0-.53h.4a.27.27,0,1,1,0,.53Zm-1.73,0h-.39a.27.27,0,1,1,0-.53h.39a.27.27,0,1,1,0,.53Z"/></g><rect class="cls-7" x="84.18" y="104.49" width="9.08" height="31.17" rx="4.51" transform="translate(-35.83 37.75) rotate(-20.08)"/><path class="cls-7" d="M101.56,123.37c-1.21-1.07-5,1.86-7.27,3.84-.75.65-1.32,1.21-1.56,1.47a11.79,11.79,0,0,0-3,4.34l.66-.42c-.13.1-.35.24-.66.44h0v0l-.08.07.08-.05h0a1.55,1.55,0,0,0-.06.23,4.27,4.27,0,0,0,1,4,3,3,0,0,0,2.5.76,3.56,3.56,0,0,0,1.38-.45,9.15,9.15,0,0,0,3.29-3.91c1.13-2,2.26-4,3.38-6a6.1,6.1,0,0,0,.87-3.11A1.74,1.74,0,0,0,101.56,123.37Z"/><path class="cls-3" d="M90.67,137.36c-.18-.23,11-14.34,11.4-14.22s2.16.26,1,2.39S94.79,142.68,90.67,137.36Z"/><path class="cls-3" d="M99.18,127.65s-1.13-2.18-2.09-2.68a.89.89,0,0,1,.79-1l.9-.17,1.44,1.51Z"/><rect class="cls-7" x="75.66" y="79.11" width="9.08" height="31.17" rx="4.51" transform="translate(-24.65 28.33) rotate(-17.41)"/><rect class="cls-4" x="71.38" y="75" width="10.16" height="14.73" rx="5.04" transform="translate(-21.14 26.64) rotate(-17.41)"/><rect class="cls-4" x="71.38" y="75" width="10.16" height="14.73" rx="5.04" transform="translate(-21.14 26.64) rotate(-17.41)"/><g class="cls-8"><path class="cls-6" d="M99.29,64.36h-.4a.27.27,0,1,1,0-.53h.4a.27.27,0,1,1,0,.53Zm-1.73,0h-.4a.27.27,0,0,1,0-.53h.4a.27.27,0,1,1,0,.53Zm-1.73,0h-.4a.27.27,0,0,1,0-.53h.4a.27.27,0,1,1,0,.53Zm-1.73,0h-.4a.27.27,0,0,1,0-.53h.4a.27.27,0,1,1,0,.53Zm-1.72,0H92a.27.27,0,1,1,0-.53h.4a.27.27,0,0,1,0,.53Zm-1.73,0h-.4a.27.27,0,1,1,0-.53h.4a.27.27,0,0,1,0,.53Zm-1.73,0h-.4a.27.27,0,1,1,0-.53h.4a.27.27,0,0,1,0,.53Zm-1.73,0h-.4a.27.27,0,1,1,0-.53h.4a.27.27,0,1,1,0,.53Zm-1.73,0h-.4a.27.27,0,0,1,0-.53h.4a.27.27,0,1,1,0,.53Zm-1.73,0h-.4a.27.27,0,0,1,0-.53h.4a.27.27,0,1,1,0,.53Zm-1.73,0h-.4a.27.27,0,0,1,0-.53H82a.27.27,0,1,1,0,.53Zm-1.73,0h-.39a.27.27,0,1,1,0-.53h.39a.27.27,0,1,1,0,.53Zm-1.72,0h-.4a.27.27,0,1,1,0-.53h.4a.27.27,0,0,1,0,.53Zm-1.73,0h-.4a.27.27,0,1,1,0-.53h.4a.27.27,0,0,1,0,.53Zm-1.73,0h-.4a.27.27,0,1,1,0-.53h.4a.27.27,0,0,1,0,.53Zm-1.73,0H73a.27.27,0,0,1,0-.53h.4a.27.27,0,1,1,0,.53Zm-1.73,0h-.4a.27.27,0,0,1,0-.53h.4a.27.27,0,1,1,0,.53Zm-1.73,0h-.4a.27.27,0,0,1,0-.53h.4a.27.27,0,1,1,0,.53Zm-1.73,0h-.39a.27.27,0,1,1,0-.53h.39a.27.27,0,1,1,0,.53Z"/><path class="cls-6" d="M99.29,65.77h-.4a.27.27,0,1,1,0-.53h.4a.27.27,0,1,1,0,.53Zm-1.73,0h-.4a.27.27,0,0,1,0-.53h.4a.27.27,0,1,1,0,.53Zm-1.73,0h-.4a.27.27,0,0,1,0-.53h.4a.27.27,0,1,1,0,.53Zm-1.73,0h-.4a.27.27,0,0,1,0-.53h.4a.27.27,0,1,1,0,.53Zm-1.72,0H92a.27.27,0,1,1,0-.53h.4a.27.27,0,0,1,0,.53Zm-1.73,0h-.4a.27.27,0,1,1,0-.53h.4a.27.27,0,0,1,0,.53Zm-1.73,0h-.4a.27.27,0,1,1,0-.53h.4a.27.27,0,0,1,0,.53Zm-1.73,0h-.4a.27.27,0,1,1,0-.53h.4a.27.27,0,1,1,0,.53Zm-1.73,0h-.4a.27.27,0,0,1,0-.53h.4a.27.27,0,1,1,0,.53Zm-1.73,0h-.4a.27.27,0,0,1,0-.53h.4a.27.27,0,1,1,0,.53Zm-1.73,0h-.4a.27.27,0,0,1,0-.53H82a.27.27,0,1,1,0,.53Zm-1.73,0h-.39a.27.27,0,1,1,0-.53h.39a.27.27,0,1,1,0,.53Zm-1.72,0h-.4a.27.27,0,1,1,0-.53h.4a.27.27,0,0,1,0,.53Zm-1.73,0h-.4a.27.27,0,1,1,0-.53h.4a.27.27,0,0,1,0,.53Zm-1.73,0h-.4a.27.27,0,1,1,0-.53h.4a.27.27,0,0,1,0,.53Zm-1.73,0H73a.27.27,0,0,1,0-.53h.4a.27.27,0,1,1,0,.53Zm-1.73,0h-.4a.27.27,0,0,1,0-.53h.4a.27.27,0,1,1,0,.53Zm-1.73,0h-.4a.27.27,0,0,1,0-.53h.4a.27.27,0,1,1,0,.53Zm-1.73,0h-.39a.27.27,0,1,1,0-.53h.39a.27.27,0,1,1,0,.53Z"/><path class="cls-6" d="M99.29,67.18h-.4a.27.27,0,1,1,0-.53h.4a.27.27,0,1,1,0,.53Zm-1.73,0h-.4a.27.27,0,0,1,0-.53h.4a.27.27,0,1,1,0,.53Zm-1.73,0h-.4a.27.27,0,0,1,0-.53h.4a.27.27,0,1,1,0,.53Zm-1.73,0h-.4a.27.27,0,0,1,0-.53h.4a.27.27,0,1,1,0,.53Zm-1.72,0H92a.27.27,0,1,1,0-.53h.4a.27.27,0,0,1,0,.53Zm-1.73,0h-.4a.27.27,0,1,1,0-.53h.4a.27.27,0,0,1,0,.53Zm-1.73,0h-.4a.27.27,0,1,1,0-.53h.4a.27.27,0,0,1,0,.53Zm-1.73,0h-.4a.27.27,0,1,1,0-.53h.4a.27.27,0,1,1,0,.53Zm-1.73,0h-.4a.27.27,0,0,1,0-.53h.4a.27.27,0,1,1,0,.53Zm-1.73,0h-.4a.27.27,0,0,1,0-.53h.4a.27.27,0,1,1,0,.53Zm-1.73,0h-.4a.27.27,0,0,1,0-.53H82a.27.27,0,1,1,0,.53Zm-1.73,0h-.39a.27.27,0,1,1,0-.53h.39a.27.27,0,1,1,0,.53Zm-1.72,0h-.4a.27.27,0,1,1,0-.53h.4a.27.27,0,0,1,0,.53Zm-1.73,0h-.4a.27.27,0,1,1,0-.53h.4a.27.27,0,0,1,0,.53Zm-1.73,0h-.4a.27.27,0,1,1,0-.53h.4a.27.27,0,0,1,0,.53Zm-1.73,0H73a.27.27,0,0,1,0-.53h.4a.27.27,0,1,1,0,.53Zm-1.73,0h-.4a.27.27,0,0,1,0-.53h.4a.27.27,0,1,1,0,.53Zm-1.73,0h-.4a.27.27,0,0,1,0-.53h.4a.27.27,0,1,1,0,.53Zm-1.73,0h-.39a.27.27,0,1,1,0-.53h.39a.27.27,0,1,1,0,.53Z"/><path class="cls-6" d="M99.29,68.59h-.4a.27.27,0,1,1,0-.53h.4a.27.27,0,1,1,0,.53Zm-1.73,0h-.4a.27.27,0,0,1,0-.53h.4a.27.27,0,1,1,0,.53Zm-1.73,0h-.4a.27.27,0,0,1,0-.53h.4a.27.27,0,1,1,0,.53Zm-1.73,0h-.4a.27.27,0,0,1,0-.53h.4a.27.27,0,1,1,0,.53Zm-1.72,0H92a.27.27,0,1,1,0-.53h.4a.27.27,0,0,1,0,.53Zm-1.73,0h-.4a.27.27,0,1,1,0-.53h.4a.27.27,0,0,1,0,.53Zm-1.73,0h-.4a.27.27,0,1,1,0-.53h.4a.27.27,0,0,1,0,.53Zm-1.73,0h-.4a.27.27,0,1,1,0-.53h.4a.27.27,0,1,1,0,.53Zm-1.73,0h-.4a.27.27,0,0,1,0-.53h.4a.27.27,0,1,1,0,.53Zm-1.73,0h-.4a.27.27,0,0,1,0-.53h.4a.27.27,0,1,1,0,.53Zm-1.73,0h-.4a.27.27,0,0,1,0-.53H82a.27.27,0,1,1,0,.53Zm-1.73,0h-.39a.27.27,0,1,1,0-.53h.39a.27.27,0,1,1,0,.53Zm-1.72,0h-.4a.27.27,0,1,1,0-.53h.4a.27.27,0,0,1,0,.53Zm-1.73,0h-.4a.27.27,0,1,1,0-.53h.4a.27.27,0,0,1,0,.53Zm-1.73,0h-.4a.27.27,0,1,1,0-.53h.4a.27.27,0,0,1,0,.53Zm-1.73,0H73a.27.27,0,0,1,0-.53h.4a.27.27,0,1,1,0,.53Zm-1.73,0h-.4a.27.27,0,0,1,0-.53h.4a.27.27,0,1,1,0,.53Zm-1.73,0h-.4a.27.27,0,0,1,0-.53h.4a.27.27,0,1,1,0,.53Zm-1.73,0h-.39a.27.27,0,1,1,0-.53h.39a.27.27,0,1,1,0,.53Z"/><path class="cls-6" d="M99.29,70h-.4a.27.27,0,1,1,0-.53h.4a.27.27,0,1,1,0,.53Zm-1.73,0h-.4a.27.27,0,0,1,0-.53h.4a.27.27,0,1,1,0,.53Zm-1.73,0h-.4a.27.27,0,0,1,0-.53h.4a.27.27,0,1,1,0,.53ZM94.1,70h-.4a.27.27,0,0,1,0-.53h.4a.27.27,0,1,1,0,.53Zm-1.72,0H92a.27.27,0,1,1,0-.53h.4a.27.27,0,0,1,0,.53Zm-1.73,0h-.4a.27.27,0,1,1,0-.53h.4a.27.27,0,0,1,0,.53Zm-1.73,0h-.4a.27.27,0,1,1,0-.53h.4a.27.27,0,0,1,0,.53Zm-1.73,0h-.4a.27.27,0,1,1,0-.53h.4a.27.27,0,1,1,0,.53Zm-1.73,0h-.4a.27.27,0,0,1,0-.53h.4a.27.27,0,1,1,0,.53Zm-1.73,0h-.4a.27.27,0,0,1,0-.53h.4a.27.27,0,1,1,0,.53ZM82,70h-.4a.27.27,0,0,1,0-.53H82A.27.27,0,1,1,82,70Zm-1.73,0h-.39a.27.27,0,1,1,0-.53h.39a.27.27,0,1,1,0,.53Zm-1.72,0h-.4a.27.27,0,1,1,0-.53h.4a.27.27,0,0,1,0,.53Zm-1.73,0h-.4a.27.27,0,1,1,0-.53h.4a.27.27,0,0,1,0,.53Zm-1.73,0h-.4a.27.27,0,1,1,0-.53h.4a.27.27,0,0,1,0,.53Zm-1.73,0H73a.27.27,0,0,1,0-.53h.4a.27.27,0,1,1,0,.53Zm-1.73,0h-.4a.27.27,0,0,1,0-.53h.4a.27.27,0,1,1,0,.53ZM69.9,70h-.4a.27.27,0,0,1,0-.53h.4a.27.27,0,1,1,0,.53Zm-1.73,0h-.39a.27.27,0,1,1,0-.53h.39a.27.27,0,1,1,0,.53Z"/><path class="cls-6" d="M99.29,71.41h-.4a.27.27,0,1,1,0-.53h.4a.27.27,0,1,1,0,.53Zm-1.73,0h-.4a.27.27,0,0,1,0-.53h.4a.27.27,0,1,1,0,.53Zm-1.73,0h-.4a.27.27,0,0,1,0-.53h.4a.27.27,0,1,1,0,.53Zm-1.73,0h-.4a.27.27,0,0,1,0-.53h.4a.27.27,0,1,1,0,.53Zm-1.72,0H92a.27.27,0,1,1,0-.53h.4a.27.27,0,0,1,0,.53Zm-1.73,0h-.4a.27.27,0,1,1,0-.53h.4a.27.27,0,0,1,0,.53Zm-1.73,0h-.4a.27.27,0,1,1,0-.53h.4a.27.27,0,0,1,0,.53Zm-1.73,0h-.4a.27.27,0,1,1,0-.53h.4a.27.27,0,1,1,0,.53Zm-1.73,0h-.4a.27.27,0,0,1,0-.53h.4a.27.27,0,1,1,0,.53Zm-1.73,0h-.4a.27.27,0,0,1,0-.53h.4a.27.27,0,1,1,0,.53Zm-1.73,0h-.4a.27.27,0,0,1,0-.53H82a.27.27,0,1,1,0,.53Zm-1.73,0h-.39a.27.27,0,1,1,0-.53h.39a.27.27,0,1,1,0,.53Zm-1.72,0h-.4a.27.27,0,1,1,0-.53h.4a.27.27,0,0,1,0,.53Zm-1.73,0h-.4a.27.27,0,1,1,0-.53h.4a.27.27,0,0,1,0,.53Zm-1.73,0h-.4a.27.27,0,1,1,0-.53h.4a.27.27,0,0,1,0,.53Zm-1.73,0H73a.27.27,0,0,1,0-.53h.4a.27.27,0,1,1,0,.53Zm-1.73,0h-.4a.27.27,0,0,1,0-.53h.4a.27.27,0,1,1,0,.53Zm-1.73,0h-.4a.27.27,0,0,1,0-.53h.4a.27.27,0,1,1,0,.53Zm-1.73,0h-.39a.27.27,0,1,1,0-.53h.39a.27.27,0,1,1,0,.53Z"/><path class="cls-6" d="M99.29,72.82h-.4a.27.27,0,1,1,0-.53h.4a.27.27,0,1,1,0,.53Zm-1.73,0h-.4a.27.27,0,0,1,0-.53h.4a.27.27,0,1,1,0,.53Zm-1.73,0h-.4a.27.27,0,0,1,0-.53h.4a.27.27,0,1,1,0,.53Zm-1.73,0h-.4a.27.27,0,0,1,0-.53h.4a.27.27,0,1,1,0,.53Zm-1.72,0H92a.27.27,0,1,1,0-.53h.4a.27.27,0,0,1,0,.53Zm-1.73,0h-.4a.27.27,0,1,1,0-.53h.4a.27.27,0,0,1,0,.53Zm-1.73,0h-.4a.27.27,0,1,1,0-.53h.4a.27.27,0,0,1,0,.53Zm-1.73,0h-.4a.27.27,0,1,1,0-.53h.4a.27.27,0,1,1,0,.53Zm-1.73,0h-.4a.27.27,0,0,1,0-.53h.4a.27.27,0,1,1,0,.53Zm-1.73,0h-.4a.27.27,0,0,1,0-.53h.4a.27.27,0,1,1,0,.53Zm-1.73,0h-.4a.27.27,0,0,1,0-.53H82a.27.27,0,1,1,0,.53Zm-1.73,0h-.39a.27.27,0,1,1,0-.53h.39a.27.27,0,1,1,0,.53Zm-1.72,0h-.4a.27.27,0,1,1,0-.53h.4a.27.27,0,0,1,0,.53Zm-1.73,0h-.4a.27.27,0,1,1,0-.53h.4a.27.27,0,0,1,0,.53Zm-1.73,0h-.4a.27.27,0,1,1,0-.53h.4a.27.27,0,0,1,0,.53Zm-1.73,0H73a.27.27,0,0,1,0-.53h.4a.27.27,0,1,1,0,.53Zm-1.73,0h-.4a.27.27,0,0,1,0-.53h.4a.27.27,0,1,1,0,.53Zm-1.73,0h-.4a.27.27,0,0,1,0-.53h.4a.27.27,0,1,1,0,.53Zm-1.73,0h-.39a.27.27,0,1,1,0-.53h.39a.27.27,0,1,1,0,.53Z"/><path class="cls-6" d="M99.29,74.23h-.4a.27.27,0,1,1,0-.53h.4a.27.27,0,1,1,0,.53Zm-1.73,0h-.4a.27.27,0,0,1,0-.53h.4a.27.27,0,1,1,0,.53Zm-1.73,0h-.4a.27.27,0,0,1,0-.53h.4a.27.27,0,1,1,0,.53Zm-1.73,0h-.4a.27.27,0,0,1,0-.53h.4a.27.27,0,1,1,0,.53Zm-1.72,0H92a.27.27,0,1,1,0-.53h.4a.27.27,0,0,1,0,.53Zm-1.73,0h-.4a.27.27,0,1,1,0-.53h.4a.27.27,0,0,1,0,.53Zm-1.73,0h-.4a.27.27,0,1,1,0-.53h.4a.27.27,0,0,1,0,.53Zm-1.73,0h-.4a.27.27,0,1,1,0-.53h.4a.27.27,0,1,1,0,.53Zm-1.73,0h-.4a.27.27,0,0,1,0-.53h.4a.27.27,0,1,1,0,.53Zm-1.73,0h-.4a.27.27,0,0,1,0-.53h.4a.27.27,0,1,1,0,.53Zm-1.73,0h-.4a.27.27,0,0,1,0-.53H82a.27.27,0,1,1,0,.53Zm-1.73,0h-.39a.27.27,0,1,1,0-.53h.39a.27.27,0,1,1,0,.53Zm-1.72,0h-.4a.27.27,0,1,1,0-.53h.4a.27.27,0,0,1,0,.53Zm-1.73,0h-.4a.27.27,0,1,1,0-.53h.4a.27.27,0,0,1,0,.53Zm-1.73,0h-.4a.27.27,0,1,1,0-.53h.4a.27.27,0,0,1,0,.53Zm-1.73,0H73a.27.27,0,0,1,0-.53h.4a.27.27,0,1,1,0,.53Zm-1.73,0h-.4a.27.27,0,0,1,0-.53h.4a.27.27,0,1,1,0,.53Zm-1.73,0h-.4a.27.27,0,0,1,0-.53h.4a.27.27,0,1,1,0,.53Zm-1.73,0h-.39a.27.27,0,1,1,0-.53h.39a.27.27,0,1,1,0,.53Z"/><path class="cls-6" d="M99.29,75.64h-.4a.27.27,0,1,1,0-.53h.4a.27.27,0,1,1,0,.53Zm-1.73,0h-.4a.27.27,0,0,1,0-.53h.4a.27.27,0,1,1,0,.53Zm-1.73,0h-.4a.27.27,0,0,1,0-.53h.4a.27.27,0,1,1,0,.53Zm-1.73,0h-.4a.27.27,0,0,1,0-.53h.4a.27.27,0,1,1,0,.53Zm-1.72,0H92a.27.27,0,1,1,0-.53h.4a.27.27,0,0,1,0,.53Zm-1.73,0h-.4a.27.27,0,1,1,0-.53h.4a.27.27,0,0,1,0,.53Zm-1.73,0h-.4a.27.27,0,1,1,0-.53h.4a.27.27,0,0,1,0,.53Zm-1.73,0h-.4a.27.27,0,1,1,0-.53h.4a.27.27,0,1,1,0,.53Zm-1.73,0h-.4a.27.27,0,0,1,0-.53h.4a.27.27,0,1,1,0,.53Zm-1.73,0h-.4a.27.27,0,0,1,0-.53h.4a.27.27,0,1,1,0,.53Zm-1.73,0h-.4a.27.27,0,0,1,0-.53H82a.27.27,0,1,1,0,.53Zm-1.73,0h-.39a.27.27,0,1,1,0-.53h.39a.27.27,0,1,1,0,.53Zm-1.72,0h-.4a.27.27,0,1,1,0-.53h.4a.27.27,0,0,1,0,.53Zm-1.73,0h-.4a.27.27,0,1,1,0-.53h.4a.27.27,0,0,1,0,.53Zm-1.73,0h-.4a.27.27,0,1,1,0-.53h.4a.27.27,0,0,1,0,.53Zm-1.73,0H73a.27.27,0,0,1,0-.53h.4a.27.27,0,1,1,0,.53Zm-1.73,0h-.4a.27.27,0,0,1,0-.53h.4a.27.27,0,1,1,0,.53Zm-1.73,0h-.4a.27.27,0,0,1,0-.53h.4a.27.27,0,1,1,0,.53Zm-1.73,0h-.39a.27.27,0,1,1,0-.53h.39a.27.27,0,1,1,0,.53Z"/><path class="cls-6" d="M99.29,77.05h-.4a.27.27,0,1,1,0-.53h.4a.27.27,0,1,1,0,.53Zm-1.73,0h-.4a.27.27,0,0,1,0-.53h.4a.27.27,0,1,1,0,.53Zm-1.73,0h-.4a.27.27,0,0,1,0-.53h.4a.27.27,0,1,1,0,.53Zm-1.73,0h-.4a.27.27,0,0,1,0-.53h.4a.27.27,0,1,1,0,.53Zm-1.72,0H92a.27.27,0,1,1,0-.53h.4a.27.27,0,0,1,0,.53Zm-1.73,0h-.4a.27.27,0,1,1,0-.53h.4a.27.27,0,0,1,0,.53Zm-1.73,0h-.4a.27.27,0,1,1,0-.53h.4a.27.27,0,0,1,0,.53Zm-1.73,0h-.4a.27.27,0,1,1,0-.53h.4a.27.27,0,1,1,0,.53Zm-1.73,0h-.4a.27.27,0,0,1,0-.53h.4a.27.27,0,1,1,0,.53Zm-1.73,0h-.4a.27.27,0,0,1,0-.53h.4a.27.27,0,1,1,0,.53Zm-1.73,0h-.4a.27.27,0,0,1,0-.53H82a.27.27,0,1,1,0,.53Zm-1.73,0h-.39a.27.27,0,1,1,0-.53h.39a.27.27,0,1,1,0,.53Zm-1.72,0h-.4a.27.27,0,1,1,0-.53h.4a.27.27,0,0,1,0,.53Zm-1.73,0h-.4a.27.27,0,1,1,0-.53h.4a.27.27,0,0,1,0,.53Zm-1.73,0h-.4a.27.27,0,1,1,0-.53h.4a.27.27,0,0,1,0,.53Zm-1.73,0H73a.27.27,0,0,1,0-.53h.4a.27.27,0,1,1,0,.53Zm-1.73,0h-.4a.27.27,0,0,1,0-.53h.4a.27.27,0,1,1,0,.53Zm-1.73,0h-.4a.27.27,0,0,1,0-.53h.4a.27.27,0,1,1,0,.53Zm-1.73,0h-.39a.27.27,0,1,1,0-.53h.39a.27.27,0,1,1,0,.53Z"/><path class="cls-6" d="M99.29,78.46h-.4a.27.27,0,1,1,0-.53h.4a.27.27,0,1,1,0,.53Zm-1.73,0h-.4a.27.27,0,0,1,0-.53h.4a.27.27,0,1,1,0,.53Zm-1.73,0h-.4a.27.27,0,0,1,0-.53h.4a.27.27,0,1,1,0,.53Zm-1.73,0h-.4a.27.27,0,0,1,0-.53h.4a.27.27,0,1,1,0,.53Zm-1.72,0H92a.27.27,0,1,1,0-.53h.4a.27.27,0,0,1,0,.53Zm-1.73,0h-.4a.27.27,0,1,1,0-.53h.4a.27.27,0,0,1,0,.53Zm-1.73,0h-.4a.27.27,0,1,1,0-.53h.4a.27.27,0,0,1,0,.53Zm-1.73,0h-.4a.27.27,0,1,1,0-.53h.4a.27.27,0,1,1,0,.53Zm-1.73,0h-.4a.27.27,0,0,1,0-.53h.4a.27.27,0,1,1,0,.53Zm-1.73,0h-.4a.27.27,0,0,1,0-.53h.4a.27.27,0,1,1,0,.53Zm-1.73,0h-.4a.27.27,0,0,1,0-.53H82a.27.27,0,1,1,0,.53Zm-1.73,0h-.39a.27.27,0,1,1,0-.53h.39a.27.27,0,1,1,0,.53Zm-1.72,0h-.4a.27.27,0,1,1,0-.53h.4a.27.27,0,0,1,0,.53Zm-1.73,0h-.4a.27.27,0,1,1,0-.53h.4a.27.27,0,0,1,0,.53Zm-1.73,0h-.4a.27.27,0,1,1,0-.53h.4a.27.27,0,0,1,0,.53Zm-1.73,0H73a.27.27,0,0,1,0-.53h.4a.27.27,0,1,1,0,.53Zm-1.73,0h-.4a.27.27,0,0,1,0-.53h.4a.27.27,0,1,1,0,.53Zm-1.73,0h-.4a.27.27,0,0,1,0-.53h.4a.27.27,0,1,1,0,.53Zm-1.73,0h-.39a.27.27,0,1,1,0-.53h.39a.27.27,0,1,1,0,.53Z"/><path class="cls-6" d="M99.29,79.87h-.4a.27.27,0,1,1,0-.53h.4a.27.27,0,1,1,0,.53Zm-1.73,0h-.4a.27.27,0,0,1,0-.53h.4a.27.27,0,1,1,0,.53Zm-1.73,0h-.4a.27.27,0,0,1,0-.53h.4a.27.27,0,1,1,0,.53Zm-1.73,0h-.4a.27.27,0,0,1,0-.53h.4a.27.27,0,1,1,0,.53Zm-1.72,0H92a.27.27,0,1,1,0-.53h.4a.27.27,0,0,1,0,.53Zm-1.73,0h-.4a.27.27,0,1,1,0-.53h.4a.27.27,0,0,1,0,.53Zm-1.73,0h-.4a.27.27,0,1,1,0-.53h.4a.27.27,0,0,1,0,.53Zm-1.73,0h-.4a.27.27,0,1,1,0-.53h.4a.27.27,0,1,1,0,.53Zm-1.73,0h-.4a.27.27,0,0,1,0-.53h.4a.27.27,0,1,1,0,.53Zm-1.73,0h-.4a.27.27,0,0,1,0-.53h.4a.27.27,0,1,1,0,.53Zm-1.73,0h-.4a.27.27,0,0,1,0-.53H82a.27.27,0,1,1,0,.53Zm-1.73,0h-.39a.27.27,0,1,1,0-.53h.39a.27.27,0,1,1,0,.53Zm-1.72,0h-.4a.27.27,0,1,1,0-.53h.4a.27.27,0,0,1,0,.53Zm-1.73,0h-.4a.27.27,0,1,1,0-.53h.4a.27.27,0,0,1,0,.53Zm-1.73,0h-.4a.27.27,0,1,1,0-.53h.4a.27.27,0,0,1,0,.53Zm-1.73,0H73a.27.27,0,0,1,0-.53h.4a.27.27,0,1,1,0,.53Zm-1.73,0h-.4a.27.27,0,0,1,0-.53h.4a.27.27,0,1,1,0,.53Zm-1.73,0h-.4a.27.27,0,0,1,0-.53h.4a.27.27,0,1,1,0,.53Zm-1.73,0h-.39a.27.27,0,1,1,0-.53h.39a.27.27,0,1,1,0,.53Z"/><path class="cls-6" d="M99.29,81.28h-.4a.27.27,0,1,1,0-.53h.4a.27.27,0,1,1,0,.53Zm-1.73,0h-.4a.27.27,0,0,1,0-.53h.4a.27.27,0,1,1,0,.53Zm-1.73,0h-.4a.27.27,0,0,1,0-.53h.4a.27.27,0,1,1,0,.53Zm-1.73,0h-.4a.27.27,0,0,1,0-.53h.4a.27.27,0,1,1,0,.53Zm-1.72,0H92a.27.27,0,1,1,0-.53h.4a.27.27,0,0,1,0,.53Zm-1.73,0h-.4a.27.27,0,1,1,0-.53h.4a.27.27,0,0,1,0,.53Zm-1.73,0h-.4a.27.27,0,1,1,0-.53h.4a.27.27,0,0,1,0,.53Zm-1.73,0h-.4a.27.27,0,1,1,0-.53h.4a.27.27,0,1,1,0,.53Zm-1.73,0h-.4a.27.27,0,0,1,0-.53h.4a.27.27,0,1,1,0,.53Zm-1.73,0h-.4a.27.27,0,0,1,0-.53h.4a.27.27,0,1,1,0,.53Zm-1.73,0h-.4a.27.27,0,0,1,0-.53H82a.27.27,0,1,1,0,.53Zm-1.73,0h-.39a.27.27,0,1,1,0-.53h.39a.27.27,0,1,1,0,.53Zm-1.72,0h-.4a.27.27,0,1,1,0-.53h.4a.27.27,0,0,1,0,.53Zm-1.73,0h-.4a.27.27,0,1,1,0-.53h.4a.27.27,0,0,1,0,.53Zm-1.73,0h-.4a.27.27,0,1,1,0-.53h.4a.27.27,0,0,1,0,.53Zm-1.73,0H73a.27.27,0,0,1,0-.53h.4a.27.27,0,1,1,0,.53Zm-1.73,0h-.4a.27.27,0,0,1,0-.53h.4a.27.27,0,1,1,0,.53Zm-1.73,0h-.4a.27.27,0,0,1,0-.53h.4a.27.27,0,1,1,0,.53Zm-1.73,0h-.39a.27.27,0,1,1,0-.53h.39a.27.27,0,1,1,0,.53Z"/><path class="cls-6" d="M99.29,82.69h-.4a.27.27,0,1,1,0-.53h.4a.27.27,0,1,1,0,.53Zm-1.73,0h-.4a.27.27,0,0,1,0-.53h.4a.27.27,0,1,1,0,.53Zm-1.73,0h-.4a.27.27,0,0,1,0-.53h.4a.27.27,0,1,1,0,.53Zm-1.73,0h-.4a.27.27,0,0,1,0-.53h.4a.27.27,0,1,1,0,.53Zm-1.72,0H92a.27.27,0,1,1,0-.53h.4a.27.27,0,0,1,0,.53Zm-1.73,0h-.4a.27.27,0,1,1,0-.53h.4a.27.27,0,0,1,0,.53Zm-1.73,0h-.4a.27.27,0,1,1,0-.53h.4a.27.27,0,0,1,0,.53Zm-1.73,0h-.4a.27.27,0,1,1,0-.53h.4a.27.27,0,1,1,0,.53Zm-1.73,0h-.4a.27.27,0,0,1,0-.53h.4a.27.27,0,1,1,0,.53Zm-1.73,0h-.4a.27.27,0,0,1,0-.53h.4a.27.27,0,1,1,0,.53Zm-1.73,0h-.4a.27.27,0,0,1,0-.53H82a.27.27,0,1,1,0,.53Zm-1.73,0h-.39a.27.27,0,1,1,0-.53h.39a.27.27,0,1,1,0,.53Zm-1.72,0h-.4a.27.27,0,1,1,0-.53h.4a.27.27,0,0,1,0,.53Zm-1.73,0h-.4a.27.27,0,1,1,0-.53h.4a.27.27,0,0,1,0,.53Zm-1.73,0h-.4a.27.27,0,1,1,0-.53h.4a.27.27,0,0,1,0,.53Zm-1.73,0H73a.27.27,0,0,1,0-.53h.4a.27.27,0,1,1,0,.53Zm-1.73,0h-.4a.27.27,0,0,1,0-.53h.4a.27.27,0,1,1,0,.53Zm-1.73,0h-.4a.27.27,0,0,1,0-.53h.4a.27.27,0,1,1,0,.53Zm-1.73,0h-.39a.27.27,0,1,1,0-.53h.39a.27.27,0,1,1,0,.53Z"/><path class="cls-6" d="M99.29,84.1h-.4a.27.27,0,1,1,0-.53h.4a.27.27,0,1,1,0,.53Zm-1.73,0h-.4a.27.27,0,0,1,0-.53h.4a.27.27,0,1,1,0,.53Zm-1.73,0h-.4a.27.27,0,0,1,0-.53h.4a.27.27,0,1,1,0,.53Zm-1.73,0h-.4a.27.27,0,0,1,0-.53h.4a.27.27,0,1,1,0,.53Zm-1.72,0H92a.27.27,0,1,1,0-.53h.4a.27.27,0,0,1,0,.53Zm-1.73,0h-.4a.27.27,0,1,1,0-.53h.4a.27.27,0,0,1,0,.53Zm-1.73,0h-.4a.27.27,0,1,1,0-.53h.4a.27.27,0,0,1,0,.53Zm-1.73,0h-.4a.27.27,0,1,1,0-.53h.4a.27.27,0,1,1,0,.53Zm-1.73,0h-.4a.27.27,0,0,1,0-.53h.4a.27.27,0,1,1,0,.53Zm-1.73,0h-.4a.27.27,0,0,1,0-.53h.4a.27.27,0,1,1,0,.53ZM82,84.1h-.4a.27.27,0,0,1,0-.53H82a.27.27,0,1,1,0,.53Zm-1.73,0h-.39a.27.27,0,1,1,0-.53h.39a.27.27,0,1,1,0,.53Zm-1.72,0h-.4a.27.27,0,1,1,0-.53h.4a.27.27,0,0,1,0,.53Zm-1.73,0h-.4a.27.27,0,1,1,0-.53h.4a.27.27,0,0,1,0,.53Zm-1.73,0h-.4a.27.27,0,1,1,0-.53h.4a.27.27,0,0,1,0,.53Zm-1.73,0H73a.27.27,0,0,1,0-.53h.4a.27.27,0,1,1,0,.53Zm-1.73,0h-.4a.27.27,0,0,1,0-.53h.4a.27.27,0,1,1,0,.53Zm-1.73,0h-.4a.27.27,0,0,1,0-.53h.4a.27.27,0,1,1,0,.53Zm-1.73,0h-.39a.27.27,0,1,1,0-.53h.39a.27.27,0,1,1,0,.53Z"/><path class="cls-6" d="M99.29,85.51h-.4a.27.27,0,1,1,0-.53h.4a.27.27,0,1,1,0,.53Zm-1.73,0h-.4a.27.27,0,0,1,0-.53h.4a.27.27,0,1,1,0,.53Zm-1.73,0h-.4a.27.27,0,0,1,0-.53h.4a.27.27,0,1,1,0,.53Zm-1.73,0h-.4a.27.27,0,0,1,0-.53h.4a.27.27,0,1,1,0,.53Zm-1.72,0H92A.27.27,0,1,1,92,85h.4a.27.27,0,0,1,0,.53Zm-1.73,0h-.4a.27.27,0,1,1,0-.53h.4a.27.27,0,0,1,0,.53Zm-1.73,0h-.4a.27.27,0,1,1,0-.53h.4a.27.27,0,0,1,0,.53Zm-1.73,0h-.4a.27.27,0,1,1,0-.53h.4a.27.27,0,1,1,0,.53Zm-1.73,0h-.4a.27.27,0,0,1,0-.53h.4a.27.27,0,1,1,0,.53Zm-1.73,0h-.4a.27.27,0,0,1,0-.53h.4a.27.27,0,1,1,0,.53Zm-1.73,0h-.4a.27.27,0,0,1,0-.53H82a.27.27,0,1,1,0,.53Zm-1.73,0h-.39a.27.27,0,1,1,0-.53h.39a.27.27,0,1,1,0,.53Zm-1.72,0h-.4a.27.27,0,1,1,0-.53h.4a.27.27,0,0,1,0,.53Zm-1.73,0h-.4a.27.27,0,1,1,0-.53h.4a.27.27,0,0,1,0,.53Zm-1.73,0h-.4a.27.27,0,1,1,0-.53h.4a.27.27,0,0,1,0,.53Zm-1.73,0H73A.27.27,0,0,1,73,85h.4a.27.27,0,1,1,0,.53Zm-1.73,0h-.4a.27.27,0,0,1,0-.53h.4a.27.27,0,1,1,0,.53Zm-1.73,0h-.4a.27.27,0,0,1,0-.53h.4a.27.27,0,1,1,0,.53Zm-1.73,0h-.39a.27.27,0,1,1,0-.53h.39a.27.27,0,1,1,0,.53Z"/><path class="cls-6" d="M99.29,86.92h-.4a.27.27,0,1,1,0-.53h.4a.27.27,0,1,1,0,.53Zm-1.73,0h-.4a.27.27,0,0,1,0-.53h.4a.27.27,0,1,1,0,.53Zm-1.73,0h-.4a.27.27,0,0,1,0-.53h.4a.27.27,0,1,1,0,.53Zm-1.73,0h-.4a.27.27,0,0,1,0-.53h.4a.27.27,0,1,1,0,.53Zm-1.72,0H92a.27.27,0,1,1,0-.53h.4a.27.27,0,0,1,0,.53Zm-1.73,0h-.4a.27.27,0,1,1,0-.53h.4a.27.27,0,0,1,0,.53Zm-1.73,0h-.4a.27.27,0,1,1,0-.53h.4a.27.27,0,0,1,0,.53Zm-1.73,0h-.4a.27.27,0,1,1,0-.53h.4a.27.27,0,1,1,0,.53Zm-1.73,0h-.4a.27.27,0,0,1,0-.53h.4a.27.27,0,1,1,0,.53Zm-1.73,0h-.4a.27.27,0,0,1,0-.53h.4a.27.27,0,1,1,0,.53Zm-1.73,0h-.4a.27.27,0,0,1,0-.53H82a.27.27,0,1,1,0,.53Zm-1.73,0h-.39a.27.27,0,1,1,0-.53h.39a.27.27,0,1,1,0,.53Zm-1.72,0h-.4a.27.27,0,1,1,0-.53h.4a.27.27,0,0,1,0,.53Zm-1.73,0h-.4a.27.27,0,1,1,0-.53h.4a.27.27,0,0,1,0,.53Zm-1.73,0h-.4a.27.27,0,1,1,0-.53h.4a.27.27,0,0,1,0,.53Zm-1.73,0H73a.27.27,0,0,1,0-.53h.4a.27.27,0,1,1,0,.53Zm-1.73,0h-.4a.27.27,0,0,1,0-.53h.4a.27.27,0,1,1,0,.53Zm-1.73,0h-.4a.27.27,0,0,1,0-.53h.4a.27.27,0,1,1,0,.53Zm-1.73,0h-.39a.27.27,0,1,1,0-.53h.39a.27.27,0,1,1,0,.53Z"/><path class="cls-6" d="M99.29,88.33h-.4a.27.27,0,1,1,0-.53h.4a.27.27,0,1,1,0,.53Zm-1.73,0h-.4a.27.27,0,0,1,0-.53h.4a.27.27,0,1,1,0,.53Zm-1.73,0h-.4a.27.27,0,0,1,0-.53h.4a.27.27,0,1,1,0,.53Zm-1.73,0h-.4a.27.27,0,0,1,0-.53h.4a.27.27,0,1,1,0,.53Zm-1.72,0H92a.27.27,0,1,1,0-.53h.4a.27.27,0,0,1,0,.53Zm-1.73,0h-.4a.27.27,0,1,1,0-.53h.4a.27.27,0,0,1,0,.53Zm-1.73,0h-.4a.27.27,0,1,1,0-.53h.4a.27.27,0,0,1,0,.53Zm-1.73,0h-.4a.27.27,0,1,1,0-.53h.4a.27.27,0,1,1,0,.53Zm-1.73,0h-.4a.27.27,0,0,1,0-.53h.4a.27.27,0,1,1,0,.53Zm-1.73,0h-.4a.27.27,0,0,1,0-.53h.4a.27.27,0,1,1,0,.53Zm-1.73,0h-.4a.27.27,0,0,1,0-.53H82a.27.27,0,1,1,0,.53Zm-1.73,0h-.39a.27.27,0,1,1,0-.53h.39a.27.27,0,1,1,0,.53Zm-1.72,0h-.4a.27.27,0,1,1,0-.53h.4a.27.27,0,0,1,0,.53Zm-1.73,0h-.4a.27.27,0,1,1,0-.53h.4a.27.27,0,0,1,0,.53Zm-1.73,0h-.4a.27.27,0,1,1,0-.53h.4a.27.27,0,0,1,0,.53Zm-1.73,0H73a.27.27,0,0,1,0-.53h.4a.27.27,0,1,1,0,.53Zm-1.73,0h-.4a.27.27,0,0,1,0-.53h.4a.27.27,0,1,1,0,.53Zm-1.73,0h-.4a.27.27,0,0,1,0-.53h.4a.27.27,0,1,1,0,.53Zm-1.73,0h-.39a.27.27,0,1,1,0-.53h.39a.27.27,0,1,1,0,.53Z"/><path class="cls-6" d="M99.29,89.74h-.4a.27.27,0,1,1,0-.53h.4a.27.27,0,1,1,0,.53Zm-1.73,0h-.4a.27.27,0,0,1,0-.53h.4a.27.27,0,1,1,0,.53Zm-1.73,0h-.4a.27.27,0,0,1,0-.53h.4a.27.27,0,1,1,0,.53Zm-1.73,0h-.4a.27.27,0,0,1,0-.53h.4a.27.27,0,1,1,0,.53Zm-1.72,0H92a.27.27,0,1,1,0-.53h.4a.27.27,0,0,1,0,.53Zm-1.73,0h-.4a.27.27,0,1,1,0-.53h.4a.27.27,0,0,1,0,.53Zm-1.73,0h-.4a.27.27,0,1,1,0-.53h.4a.27.27,0,0,1,0,.53Zm-1.73,0h-.4a.27.27,0,1,1,0-.53h.4a.27.27,0,1,1,0,.53Zm-1.73,0h-.4a.27.27,0,0,1,0-.53h.4a.27.27,0,1,1,0,.53Zm-1.73,0h-.4a.27.27,0,0,1,0-.53h.4a.27.27,0,1,1,0,.53Zm-1.73,0h-.4a.27.27,0,0,1,0-.53H82a.27.27,0,1,1,0,.53Zm-1.73,0h-.39a.27.27,0,1,1,0-.53h.39a.27.27,0,1,1,0,.53Zm-1.72,0h-.4a.27.27,0,1,1,0-.53h.4a.27.27,0,0,1,0,.53Zm-1.73,0h-.4a.27.27,0,1,1,0-.53h.4a.27.27,0,0,1,0,.53Zm-1.73,0h-.4a.27.27,0,1,1,0-.53h.4a.27.27,0,0,1,0,.53Zm-1.73,0H73a.27.27,0,0,1,0-.53h.4a.27.27,0,1,1,0,.53Zm-1.73,0h-.4a.27.27,0,0,1,0-.53h.4a.27.27,0,1,1,0,.53Zm-1.73,0h-.4a.27.27,0,0,1,0-.53h.4a.27.27,0,1,1,0,.53Zm-1.73,0h-.39a.27.27,0,1,1,0-.53h.39a.27.27,0,1,1,0,.53Z"/><path class="cls-6" d="M99.29,91.15h-.4a.27.27,0,1,1,0-.53h.4a.27.27,0,1,1,0,.53Zm-1.73,0h-.4a.27.27,0,0,1,0-.53h.4a.27.27,0,1,1,0,.53Zm-1.73,0h-.4a.27.27,0,0,1,0-.53h.4a.27.27,0,1,1,0,.53Zm-1.73,0h-.4a.27.27,0,0,1,0-.53h.4a.27.27,0,1,1,0,.53Zm-1.72,0H92a.27.27,0,1,1,0-.53h.4a.27.27,0,0,1,0,.53Zm-1.73,0h-.4a.27.27,0,1,1,0-.53h.4a.27.27,0,0,1,0,.53Zm-1.73,0h-.4a.27.27,0,1,1,0-.53h.4a.27.27,0,0,1,0,.53Zm-1.73,0h-.4a.27.27,0,1,1,0-.53h.4a.27.27,0,1,1,0,.53Zm-1.73,0h-.4a.27.27,0,0,1,0-.53h.4a.27.27,0,1,1,0,.53Zm-1.73,0h-.4a.27.27,0,0,1,0-.53h.4a.27.27,0,1,1,0,.53Zm-1.73,0h-.4a.27.27,0,0,1,0-.53H82a.27.27,0,1,1,0,.53Zm-1.73,0h-.39a.27.27,0,1,1,0-.53h.39a.27.27,0,1,1,0,.53Zm-1.72,0h-.4a.27.27,0,1,1,0-.53h.4a.27.27,0,0,1,0,.53Zm-1.73,0h-.4a.27.27,0,1,1,0-.53h.4a.27.27,0,0,1,0,.53Zm-1.73,0h-.4a.27.27,0,1,1,0-.53h.4a.27.27,0,0,1,0,.53Zm-1.73,0H73a.27.27,0,0,1,0-.53h.4a.27.27,0,1,1,0,.53Zm-1.73,0h-.4a.27.27,0,0,1,0-.53h.4a.27.27,0,1,1,0,.53Zm-1.73,0h-.4a.27.27,0,0,1,0-.53h.4a.27.27,0,1,1,0,.53Zm-1.73,0h-.39a.27.27,0,1,1,0-.53h.39a.27.27,0,1,1,0,.53Z"/><path class="cls-6" d="M99.29,92.56h-.4a.27.27,0,1,1,0-.53h.4a.27.27,0,1,1,0,.53Zm-1.73,0h-.4a.27.27,0,0,1,0-.53h.4a.27.27,0,1,1,0,.53Zm-1.73,0h-.4a.27.27,0,0,1,0-.53h.4a.27.27,0,1,1,0,.53Zm-1.73,0h-.4a.27.27,0,0,1,0-.53h.4a.27.27,0,1,1,0,.53Zm-1.72,0H92A.27.27,0,1,1,92,92h.4a.27.27,0,0,1,0,.53Zm-1.73,0h-.4a.27.27,0,1,1,0-.53h.4a.27.27,0,0,1,0,.53Zm-1.73,0h-.4a.27.27,0,1,1,0-.53h.4a.27.27,0,0,1,0,.53Zm-1.73,0h-.4a.27.27,0,1,1,0-.53h.4a.27.27,0,1,1,0,.53Zm-1.73,0h-.4a.27.27,0,0,1,0-.53h.4a.27.27,0,1,1,0,.53Zm-1.73,0h-.4a.27.27,0,0,1,0-.53h.4a.27.27,0,1,1,0,.53Zm-1.73,0h-.4a.27.27,0,0,1,0-.53H82a.27.27,0,1,1,0,.53Zm-1.73,0h-.39a.27.27,0,1,1,0-.53h.39a.27.27,0,1,1,0,.53Zm-1.72,0h-.4a.27.27,0,1,1,0-.53h.4a.27.27,0,0,1,0,.53Zm-1.73,0h-.4a.27.27,0,1,1,0-.53h.4a.27.27,0,0,1,0,.53Zm-1.73,0h-.4a.27.27,0,1,1,0-.53h.4a.27.27,0,0,1,0,.53Zm-1.73,0H73A.27.27,0,0,1,73,92h.4a.27.27,0,1,1,0,.53Zm-1.73,0h-.4a.27.27,0,0,1,0-.53h.4a.27.27,0,1,1,0,.53Zm-1.73,0h-.4a.27.27,0,0,1,0-.53h.4a.27.27,0,1,1,0,.53Zm-1.73,0h-.39a.27.27,0,1,1,0-.53h.39a.27.27,0,1,1,0,.53Z"/></g><circle class="cls-2" cx="111.22" cy="73.68" r="4.1"/><rect class="cls-2" x="101.84" y="52.77" width="5.56" height="22.69" rx="2.76" transform="translate(-17.87 71.31) rotate(-34.86)"/><rect class="cls-9" x="99.28" y="52.67" width="9.08" height="20.57" rx="4.51" transform="matrix(0.84, -0.54, 0.54, 0.84, -17.57, 65.75)"/><rect class="cls-9" x="90.34" y="32.09" width="9.08" height="26.92" rx="4.51" transform="translate(-10.2 39.57) rotate(-22.39)"/><path class="cls-9" d="M79.57,30.46a45.87,45.87,0,0,0-9,3.47S68.44,47,68.27,50.73s0,9.41,0,13S67.56,78,66.85,79.13c0,0,21.75,1.8,27.8-5.12,0,0-.47-15.61-.5-20.09s.28-20.53-.5-21.14a16.41,16.41,0,0,0-7.5-2.62A25.53,25.53,0,0,0,79.57,30.46Z"/><circle class="cls-2" cx="53.5" cy="73.68" r="4.1"/><rect class="cls-2" x="46.73" y="61.34" width="22.69" height="5.56" rx="2.76" transform="translate(-24.74 89.12) rotate(-64.63)"/><rect class="cls-9" x="48.85" y="57.27" width="20.57" height="9.08" rx="4.51" transform="translate(-22.05 88.77) rotate(-64.63)"/><rect class="cls-9" x="54.35" y="41.61" width="26.92" height="9.08" rx="4.51" transform="translate(-7.12 79.54) rotate(-58.26)"/><path class="cls-7" d="M78.65,25.07v6.51s3.83,4.93,7.15,0v-6Z"/><path d="M82.23,15.3s5.58,1.45,9.74-1c0,0,.52,4.15.54,5.7,0,0,.95-5.81-.78-8.31s-9-6.1-13.56.55.48,12.84.48,12.84l.89,1.28s1.82-3.58,2.29-4.86S82.23,15.3,82.23,15.3Z"/><path class="cls-2" d="M92,14.23c.68-.36,1.43,11-1.35,13.68s-8.41,4-11.11-1.56a18.47,18.47,0,0,0,.41-3,3.22,3.22,0,0,1-2.45-1.77c-.66-1.58.45-2.31.78-2.3s1.6-.17,2.08,1.75c0,0,1.42-4.81,1.27-5.92l.66.13s5,1,7.72-.13A13.15,13.15,0,0,0,92,14.23Z"/><ellipse cx="86.46" cy="20.59" rx="0.53" ry="1.43"/><ellipse cx="90.02" cy="20.59" rx="0.53" ry="1.43"/><path d="M86.37,22.87H85a1.63,1.63,0,0,1-1.64-1.64V20.3A1.63,1.63,0,0,1,85,18.66h1.37A1.64,1.64,0,0,1,88,20.3v.93A1.64,1.64,0,0,1,86.37,22.87ZM85,18.92a1.38,1.38,0,0,0-1.38,1.38v.93A1.38,1.38,0,0,0,85,22.61h1.37a1.38,1.38,0,0,0,1.38-1.38V20.3a1.38,1.38,0,0,0-1.38-1.38Z"/><path d="M90.76,22.74H89.39a1.64,1.64,0,0,1-1.64-1.64v-.94a1.64,1.64,0,0,1,1.64-1.64h1.37a1.65,1.65,0,0,1,1.64,1.64v.94A1.65,1.65,0,0,1,90.76,22.74Zm-1.37-3.95A1.38,1.38,0,0,0,88,20.16v.94a1.37,1.37,0,0,0,1.38,1.37h1.37a1.37,1.37,0,0,0,1.37-1.37v-.94a1.37,1.37,0,0,0-1.37-1.37Z"/><path d="M83.49,20.9h0l-2.92-.42a.14.14,0,1,1,0-.27l2.93.42a.13.13,0,0,1,.11.15A.13.13,0,0,1,83.49,20.9Z"/><polygon points="83.49 14.99 88.01 17.02 86.21 14.99 89.34 16.75 88.28 14.89 91.07 16.62 89.48 14.04 83.49 14.99"/><rect x="1.07" y="186.43" width="48.33" height="26.63"/><rect x="48.08" y="154.77" width="69.58" height="26.63"/><path d="M5.93,174.21A.41.41,0,0,1,6,173.9a.44.44,0,0,1,.29-.16l.76-.09a.81.81,0,0,1,.92.7c.13.82.22,1.65.27,2.47a.91.91,0,0,1-.21.59.76.76,0,0,1-.58.28l-.49.07a.63.63,0,0,1-.55-.17.67.67,0,0,1-.24-.52A22.68,22.68,0,0,0,6,174.66H6A10.55,10.55,0,0,1,4.8,178.1a.71.71,0,0,1-.5.37.93.93,0,0,1-.67-.1L2.92,178a.61.61,0,0,1-.34-.45.55.55,0,0,1,0-.18.67.67,0,0,1,.11-.38,8.9,8.9,0,0,0,1-2.58.82.82,0,0,1,.36-.49.66.66,0,0,1,.56-.08l1.3.41h0S5.93,174.23,5.93,174.21Zm18.32-10.42a.77.77,0,0,1-.22.57.74.74,0,0,1-.56.24H20.14a.08.08,0,0,0-.09.09v2.92c0,.07,0,.11.09.11h2.59a.78.78,0,0,1,.57.24.74.74,0,0,1,.24.55v9.32a.75.75,0,0,1-.24.55.78.78,0,0,1-.57.24H21a.59.59,0,0,1-.44-.18.6.6,0,0,1-.18-.43c0-.06,0-.09-.07-.09H17a.08.08,0,0,0-.09.09.68.68,0,0,1-.2.49.67.67,0,0,1-.49.21H14.71a.73.73,0,0,1-.56-.24.78.78,0,0,1-.23-.55v-1.19c0-.08,0-.1-.11-.07l-1,.43a.72.72,0,0,1-.59,0,.7.7,0,0,1-.38-.43,16.11,16.11,0,0,0-.94-2.34.62.62,0,0,1,0-.56.69.69,0,0,1,.41-.41l1.07-.38v0c-3.86.18-6.75.3-8.67.38a.75.75,0,0,1-.8-.76l-.05-1.19a.85.85,0,0,1,.23-.57.69.69,0,0,1,.53-.24l3.15,0c.06,0,.09,0,.09-.11v-.52a.08.08,0,0,0-.09-.09H4.17a.77.77,0,0,1-.56-.23.81.81,0,0,1-.22-.58v-.87a.77.77,0,0,1,.22-.57.74.74,0,0,1,.56-.24H6.69a.08.08,0,0,0,.09-.09v-.47a.08.08,0,0,0-.09-.09H4a.75.75,0,0,1-.57-.24.76.76,0,0,1-.24-.57v-7.48a.78.78,0,0,1,.24-.57A.75.75,0,0,1,4,157.5h8.58a.75.75,0,0,1,.55.24.78.78,0,0,1,.24.57v7.48a.76.76,0,0,1-.24.57.75.75,0,0,1-.55.24H9.81c-.07,0-.11,0-.11.09v.47c0,.06,0,.09.11.09h2.61a.78.78,0,0,1,.57.24.75.75,0,0,1,.24.57v.87a.78.78,0,0,1-.24.58.81.81,0,0,1-.57.23H9.81c-.07,0-.11,0-.11.09v.43c0,.07,0,.1.11.09l3-.07a.71.71,0,0,1,.55.2.66.66,0,0,1,.21.57l0,1a.82.82,0,0,1-.23.58.94.94,0,0,1-.58.26l-.2,0c-.07,0-.1,0-.07.09a13.42,13.42,0,0,1,1.4,2.85s0,0,0,0v-7.32a.76.76,0,0,1,.23-.55.73.73,0,0,1,.56-.24h2a.1.1,0,0,0,.11-.11V157.7a.75.75,0,0,1,.79-.78h1.64a.8.8,0,0,1,.57.22.73.73,0,0,1,.23.56v3.71a.08.08,0,0,0,.09.09h3.33a.74.74,0,0,1,.56.24.77.77,0,0,1,.22.57Zm-17-4a.1.1,0,0,0-.11-.11H5.77c-.06,0-.09,0-.09.11v.63c0,.06,0,.08.09.07l.18-.07a.74.74,0,0,1,.6.07.73.73,0,0,1,.39.47c.12.44.22.85.31,1.24h0ZM5.7,161.61s0,0,0,0,0,0,0,0v2.7a.08.08,0,0,0,.09.09H7.16c.08,0,.11,0,.11-.09v-.77c0-.07,0-.09-.11-.06l-.36.11a.55.55,0,0,1-.54-.06.67.67,0,0,1-.29-.48Q5.88,162.45,5.7,161.61Zm2.74,12.87a.69.69,0,0,1,.08-.58.65.65,0,0,1,.48-.32l.36-.06a.86.86,0,0,1,1,.63,15.76,15.76,0,0,1,.56,2.31.7.7,0,0,1-.12.59.78.78,0,0,1-.53.35l-.47.09a.63.63,0,0,1-.56-.12.74.74,0,0,1-.29-.51C8.84,176.13,8.67,175.34,8.44,174.48Zm2.31-14c.06,0,.09,0,.09-.07v-.65c0-.07,0-.11-.09-.11H9.32c-.06,0-.09,0-.09.11v2.68h0c.15-.51.28-1,.4-1.49a.73.73,0,0,1,.35-.47.74.74,0,0,1,.58-.07Zm-1.52,3.8a.08.08,0,0,0,.09.09h1.43a.08.08,0,0,0,.09-.09v-2.14h0l-.38.92a.79.79,0,0,1-.44.44.83.83,0,0,1-.64,0l0,0c-.06,0-.09,0-.09.07Zm11,10.6a.08.08,0,0,0,.09-.09v-4a.08.08,0,0,0-.09-.09H17a.08.08,0,0,0-.09.09v4a.08.08,0,0,0,.09.09Z"/><path d="M29.78,166.91c.06,0,.09,0,.09-.11v-1a.08.08,0,0,0-.09-.09H26.52a.76.76,0,1,1,0-1.52h3.26a.08.08,0,0,0,.09-.09v-.27a.08.08,0,0,0-.09-.09H27.47a.74.74,0,0,1-.55-.24.78.78,0,0,1-.24-.57v-2.27a.73.73,0,0,1,.24-.56.76.76,0,0,1,.55-.23h2.31c.06,0,.09,0,.09-.11v-.22q0-.12-.09-.12H26.93a.75.75,0,0,1-.55-.22.75.75,0,0,1,0-1.1.76.76,0,0,1,.55-.23h2.85c.06,0,.09,0,.09-.11v-.07a.77.77,0,0,1,.23-.56.81.81,0,0,1,.58-.22h.9a.8.8,0,0,1,.57.22.73.73,0,0,1,.23.56v.07c0,.08,0,.11.09.11h3.06a.77.77,0,0,1,.56.23.77.77,0,0,1,0,1.1.76.76,0,0,1-.56.22H32.47s-.09,0-.09.12v.22c0,.08,0,.11.09.11H35a.79.79,0,0,1,.79.79v2.27a.81.81,0,0,1-.23.57.73.73,0,0,1-.56.24H32.47a.08.08,0,0,0-.09.09v.27a.08.08,0,0,0,.09.09h3.1a.73.73,0,0,1,.54.22.75.75,0,0,1,0,1.08.73.73,0,0,1-.54.22h-3.1a.08.08,0,0,0-.09.09v1c0,.08,0,.11.09.11h.66a.1.1,0,0,0,.11-.11v-.16a.79.79,0,0,1,.78-.78h.75a.79.79,0,0,1,.78.78v1.06a.81.81,0,0,1-.23.57.75.75,0,0,1-.55.24H27.65a.78.78,0,0,1-.58-.24.81.81,0,0,1-.23-.57v-1.06a.78.78,0,0,1,.23-.55.82.82,0,0,1,.58-.23h.6a.75.75,0,0,1,.56.23.78.78,0,0,1,.23.55v.16a.1.1,0,0,0,.11.11ZM38.13,173c-.05,0-.09,0-.09.12v.27c0,.07,0,.11.09.11H46a.81.81,0,0,1,.57.23.76.76,0,0,1,.23.56v.49a.74.74,0,0,1-.23.55.78.78,0,0,1-.57.24H38.13c-.05,0-.09,0-.09.11V176a3.28,3.28,0,0,1-.3,1.58,1.88,1.88,0,0,1-1.09.8,10.82,10.82,0,0,1-3.28.36,1,1,0,0,1-.62-.22,1.27,1.27,0,0,1-.41-.55c-.12-.31-.26-.64-.4-1a.41.41,0,0,1,0-.46.43.43,0,0,1,.39-.22c.43,0,.81,0,1.12,0s.59,0,.77,0a.62.62,0,0,0,.38-.09.39.39,0,0,0,.11-.31v-.18c0-.08,0-.11-.09-.11H26.79a.78.78,0,0,1-.57-.24.75.75,0,0,1-.24-.55v-.49a.77.77,0,0,1,.24-.56.81.81,0,0,1,.57-.23h7.84c.06,0,.09,0,.09-.11v-.27q0-.12-.09-.12H28.34a.77.77,0,0,1-.55-.22.73.73,0,0,1-.23-.56v-.36a.74.74,0,0,1,.23-.57.75.75,0,0,1,.55-.24h6.29a.08.08,0,0,0,.09-.09v-.25a.08.08,0,0,0-.09-.09l-3,0h-2.2a1,1,0,0,1-.61-.25,1.07,1.07,0,0,1-.35-.56.93.93,0,0,0-.07-.2.58.58,0,0,1,.08-.53.52.52,0,0,1,.46-.24h1q6.78,0,11-.42a.91.91,0,0,1,.23,0,1.64,1.64,0,0,1,1.16.45l.66.56a.36.36,0,0,1,.11.39.32.32,0,0,1-.32.24c-1.27.17-2.82.3-4.65.41a.11.11,0,0,0-.09.11V171a.08.08,0,0,0,.09.09h6.45a.73.73,0,0,1,.56.24.78.78,0,0,1,.23.57v.36a.77.77,0,0,1-.23.56.75.75,0,0,1-.56.22ZM28.9,160.89c-.07,0-.11,0-.11.09v.23c0,.06,0,.09.11.09h.88a.08.08,0,0,0,.09-.09V161a.08.08,0,0,0-.09-.09Zm-.11,1.73c0,.08,0,.12.11.12h.88q.09,0,.09-.12v-.22c0-.08,0-.11-.09-.11H28.9a.1.1,0,0,0-.11.11ZM33.6,161a.08.08,0,0,0-.09-.09h-1a.08.08,0,0,0-.09.09v.23a.08.08,0,0,0,.09.09h1a.08.08,0,0,0,.09-.09Zm-.09,1.76q.09,0,.09-.12v-.22c0-.08,0-.11-.09-.11h-1s-.09,0-.09.11v.22c0,.08,0,.12.09.12Zm10.22-.25a5.69,5.69,0,0,1,1.52.16.77.77,0,0,1,.47.35.63.63,0,0,1,0,.57,7.71,7.71,0,0,1-2.09,2.78s0,0,0,0a.05.05,0,0,0,0,.05,18.35,18.35,0,0,0,2.92.65.42.42,0,0,1,.34.27.43.43,0,0,1-.07.43,8.4,8.4,0,0,0-.72,1,1.08,1.08,0,0,1-.54.45.94.94,0,0,1-.45.11l-.2,0a13.11,13.11,0,0,1-4-1.42.23.23,0,0,0-.18,0,15,15,0,0,1-2.76.7.88.88,0,0,1-.63-.12,1.25,1.25,0,0,1-.45-.49,6.44,6.44,0,0,0-.34-.7.52.52,0,0,1,0-.47.43.43,0,0,1,.37-.27c.62-.09,1.16-.19,1.62-.29.06,0,.07-.05,0-.09l-.52-.56a.5.5,0,0,1-.08-.5.51.51,0,0,1,.35-.36l.61-.18s0,0,0,0,0,0,0,0H37.48a.8.8,0,0,1-.57-.22.75.75,0,0,1-.24-.57v-.42a.78.78,0,0,1,.24-.58.81.81,0,0,1,.57-.23l0,0a.09.09,0,0,0,0-.05l-.88-.81a.49.49,0,0,1-.2-.4.55.55,0,0,1,.24-.47,2,2,0,0,0,.77-.86,2.74,2.74,0,0,0,.18-1v-.56a.78.78,0,0,1,.23-.57.78.78,0,0,1,.58-.24h5.25a.73.73,0,0,1,.56.24.78.78,0,0,1,.23.57v1a4,4,0,0,0,0,.47.18.18,0,0,0,.09.18s.05,0,.09,0h.2a.34.34,0,0,0,.16,0c.08,0,.13-.13.16-.29a.91.91,0,0,0,0-.16.47.47,0,0,1,.7-.34l.54.27a1.25,1.25,0,0,1,.51.45.92.92,0,0,1,.14.47,1.1,1.1,0,0,1,0,.18,2.66,2.66,0,0,1-.23.83,1.5,1.5,0,0,1-.81.72,2.42,2.42,0,0,1-1.14.2H43.86a2.06,2.06,0,0,1-1.61-.58,1.71,1.71,0,0,1-.4-.71,4.85,4.85,0,0,1-.14-1.2c0-.07,0-.11-.12-.11H40.4a.1.1,0,0,0-.11.11A4,4,0,0,1,39,162.42s0,0,0,.05l0,0Zm-1.51,2.11s0,0,0-.06a0,0,0,0,0,0,0H40.31s-.05,0-.05,0,0,0,0,.06a6.05,6.05,0,0,0,.83.65.19.19,0,0,0,.18,0A7.32,7.32,0,0,0,42.22,164.6Z"/><path class="cls-10" d="M70.19,170.12a.8.8,0,0,1-.23.56.77.77,0,0,1-.56.23H66.82c-.06,0-.09,0-.09.11,0,.45-.07,1-.11,1.62a.08.08,0,0,0,.09.09H68.3a.82.82,0,0,1,.79.81v1.3a.82.82,0,0,1-.79.79H66.39c-.07,0-.12,0-.13.09a4.8,4.8,0,0,1-.54,1.68,2.59,2.59,0,0,1-.9.88,3.87,3.87,0,0,1-1.19.38,10.49,10.49,0,0,1-1.89.13,3.77,3.77,0,0,1-.47,0,.82.82,0,0,1-.58-.23,1.18,1.18,0,0,1-.34-.58,6.22,6.22,0,0,0-.32-1,.45.45,0,0,1,0-.46.47.47,0,0,1,.41-.21c.39,0,.74,0,1.06,0h.4a1,1,0,0,0,.83-.4.77.77,0,0,0,.09-.2q0-.09-.06-.09H54.46c-.06,0-.09,0-.11.09v0a.87.87,0,0,1-.34.55.79.79,0,0,1-.6.19l-1.8-.11a.68.68,0,0,1-.53-.27.69.69,0,0,1-.12-.56c.27-1.36.52-2.87.74-4.54,0-.07,0-.11-.07-.11H49.34a.78.78,0,0,1-.55-.23.8.8,0,0,1-.23-.56v-1.37a.81.81,0,0,1,.23-.57.74.74,0,0,1,.55-.23H52c.06,0,.1,0,.11-.12l.25-2.38s0,0,0,0,0,0,0,0l-.2.23a.91.91,0,0,1-.56.28.88.88,0,0,1-.61-.17c-.55-.39-1.16-.78-1.82-1.17a.6.6,0,0,1-.28-.45.54.54,0,0,1,.17-.47,17.43,17.43,0,0,0,2.38-2.83,21.82,21.82,0,0,0,1.91-3.37.83.83,0,0,1,.45-.45.85.85,0,0,1,.38-.09l.25,0,2,.59a.58.58,0,0,1,.42.36.66.66,0,0,1,0,.58l-.31.61c0,.06,0,.09.07.09H68.48a.77.77,0,0,1,.56.23.78.78,0,0,1,.23.55v1.37a.82.82,0,0,1-.23.58.77.77,0,0,1-.56.23H54.89a.17.17,0,0,0-.16.09c-.15.23-.36.54-.65.94,0,.06,0,.09.05.09h12a.74.74,0,0,1,.56.24.8.8,0,0,1,.22.57v.61c0,.43,0,1,0,1.73s0,1.2,0,1.44A.08.08,0,0,0,67,168H69.4a.73.73,0,0,1,.56.23.81.81,0,0,1,.23.57Zm-12.72.75a.06.06,0,0,0,0-.05l0,0H55.18c-.06,0-.1,0-.11.11-.09.59-.17,1.16-.25,1.73q0,.09.09.09h3.57s0,0,0,0,0,0,0,0c-.36-.24-.71-.47-1.07-.68a.6.6,0,0,1-.32-.45.51.51,0,0,1,.18-.49Zm.16-4.63s0,0,0-.05l0,0H55.77c-.08,0-.12,0-.12.11L55.43,168a.08.08,0,0,0,.09.09h3a0,0,0,0,0,0,0s0,0,0,0c-.33-.22-.65-.42-1-.6a.58.58,0,0,1-.3-.45.58.58,0,0,1,.17-.5Zm3.73,6.42s0,0,0,.05a.06.06,0,0,0,0,0h1.85c.06,0,.09,0,.11-.09s0-.5,0-.92,0-.7.05-.83a.08.08,0,0,0-.09-.09h-3l0,0s0,0,0,0c.44.27.77.5,1,.68a.58.58,0,0,1,.28.5.69.69,0,0,1-.21.55Zm2.11-4.6a.1.1,0,0,0,.11-.09l0-1.69c0-.07,0-.11-.09-.11h-3l0,0s0,0,0,0c.41.25.76.48,1.06.69a.67.67,0,0,1,.28.53.74.74,0,0,1-.22.55h0v0s0,0,0,0Z"/><path class="cls-10" d="M71.67,166a.74.74,0,0,1,.24-.55.75.75,0,0,1,.57-.24H92.29a.78.78,0,0,1,.57.24.74.74,0,0,1,.24.55v2.06a.78.78,0,0,1-.24.58.81.81,0,0,1-.57.23H72.48a.78.78,0,0,1-.57-.23.78.78,0,0,1-.24-.58Z"/><path class="cls-10" d="M98.29,157.68a.81.81,0,0,1,.4-.47.8.8,0,0,1,.36-.09.85.85,0,0,1,.25,0l1.52.47a.68.68,0,0,1,.46.38.74.74,0,0,1,0,.6,35.89,35.89,0,0,1-1.44,3.51.46.46,0,0,0,0,.2V178a.74.74,0,0,1-.23.57.82.82,0,0,1-.55.22h-1.6a.82.82,0,0,1-.55-.22.78.78,0,0,1-.23-.57V167.74a0,0,0,0,0,0,0H96.6q-.27.39-.54.72a.42.42,0,0,1-.43.15.45.45,0,0,1-.33-.31c-.29-.76-.6-1.49-1-2.2a1.3,1.3,0,0,1-.13-.56,1.21,1.21,0,0,1,.29-.76A23.11,23.11,0,0,0,98.29,157.68Zm3.34,1.06a.73.73,0,0,1,.24-.56.79.79,0,0,1,.57-.23h12.42a.78.78,0,0,1,.57.23.73.73,0,0,1,.24.56v19a.75.75,0,0,1-.24.55.78.78,0,0,1-.57.23h-1.57a.78.78,0,0,1-.57-.23.75.75,0,0,1-.24-.55v-.25a.08.08,0,0,0-.09-.09h-7.61q-.12,0-.12.09v.45a.78.78,0,0,1-.23.55.75.75,0,0,1-.55.24h-1.44a.76.76,0,0,1-.57-.24.75.75,0,0,1-.24-.55Zm3,15.65c0,.08,0,.11.12.11h7.61c.06,0,.09,0,.09-.11V160.92a.08.08,0,0,0-.09-.09h-7.61q-.12,0-.12.09Zm7.46-9.48a.82.82,0,0,1-.23.58.8.8,0,0,1-.56.23h-1.45a.08.08,0,0,0-.09.09v1.51a.08.08,0,0,0,.09.09H111a.79.79,0,0,1,.81.81v4.62a.79.79,0,0,1-.81.81h-4.69a.78.78,0,0,1-.57-.23.78.78,0,0,1-.24-.58v-4.62a.78.78,0,0,1,.24-.58.78.78,0,0,1,.57-.23h.85c.08,0,.11,0,.11-.09v-1.51c0-.06,0-.09-.11-.09h-1.26a.77.77,0,0,1-.56-.23.81.81,0,0,1-.22-.58v-.76a.78.78,0,0,1,.22-.57.74.74,0,0,1,.56-.24h1.26c.08,0,.11,0,.11-.09v-1.32a.74.74,0,0,1,.24-.55.75.75,0,0,1,.55-.24h1a.78.78,0,0,1,.57.24.74.74,0,0,1,.24.55v1.32a.08.08,0,0,0,.09.09h1.45a.77.77,0,0,1,.56.24.79.79,0,0,1,.23.57Zm-2.94,6.52c.06,0,.09,0,.09-.11v-1.55a.08.08,0,0,0-.09-.09H107.9a.08.08,0,0,0-.09.09v1.55c0,.07,0,.11.09.11Z"/><path d="M126,157.64a.89.89,0,0,1,.26-.58.81.81,0,0,1,.57-.23h2.25a.77.77,0,0,1,.56.23.78.78,0,0,1,.23.55c0,.23,0,.48-.05.75,0,.58.08,1.17.15,1.76s.2,1.35.39,2.29a23.3,23.3,0,0,0,.71,2.68,18.35,18.35,0,0,0,1.18,2.79,15.7,15.7,0,0,0,4.17,5.23,15,15,0,0,0,2.5,1.69.5.5,0,0,1,.27.47.48.48,0,0,1-.18.38,9.58,9.58,0,0,0-1.53,1.68,1,1,0,0,1-.52.36.59.59,0,0,1-.22.05.73.73,0,0,1-.38-.11,18,18,0,0,1-8.13-10.31,0,0,0,0,0,0,0s0,0,0,0a20.38,20.38,0,0,1-7.48,10.26.77.77,0,0,1-.45.14h-.13a1,1,0,0,1-.56-.32,9.36,9.36,0,0,0-1.71-1.59.56.56,0,0,1-.23-.45.5.5,0,0,1,.25-.45,16.82,16.82,0,0,0,1.78-1.33,17.21,17.21,0,0,0,2-1.92,13.11,13.11,0,0,0,1.5-2.11c.44-.77.8-1.48,1.1-2.14a16.12,16.12,0,0,0,.77-2.2c.23-.81.39-1.5.51-2.08s.2-1.24.28-2,.12-1.32.14-1.73,0-.9.06-1.5A2.45,2.45,0,0,0,126,157.64Z"/><path d="M153.81,160.22c0,.06,0,.09.07.09h7.59a.81.81,0,0,1,.56.22.8.8,0,0,1,.2.54c0,.17,0,.4,0,.7-.2,5.2-.41,8.89-.63,11.1a10.21,10.21,0,0,1-1,4.17,3.38,3.38,0,0,1-.85.9,3.06,3.06,0,0,1-1,.45,7.69,7.69,0,0,1-1.82.16.85.85,0,0,1-.6-.24,1.1,1.1,0,0,1-.33-.57,8.47,8.47,0,0,0-.47-1.75.47.47,0,0,1,.06-.46.38.38,0,0,1,.39-.19l1.1,0a1.06,1.06,0,0,0,.81-.47c.47-.63.82-3.61,1.08-8.94h0a36.88,36.88,0,0,1-2.45,6.67,17.63,17.63,0,0,1-3.48,5,.85.85,0,0,1-.57.23.92.92,0,0,1-.6-.23,12.83,12.83,0,0,0-1.42-1,.56.56,0,0,1-.24-.43.47.47,0,0,1,.18-.44,15.39,15.39,0,0,0,3.89-5.1,31.07,31.07,0,0,0,2.46-7.1c0-.08,0-.11-.09-.11h-.42c-.06,0-.1,0-.12.11a30.85,30.85,0,0,1-1.88,5.12,17.1,17.1,0,0,1-2.61,4.11.7.7,0,0,1-.56.25.91.91,0,0,1-.58-.2q-.61-.5-1.26-.93a.55.55,0,0,1-.28-.44.56.56,0,0,1,.19-.5,17.47,17.47,0,0,0,4.24-7.41c0-.08,0-.11-.06-.11h-.5c-.07,0-.12,0-.13.09a19.14,19.14,0,0,1-1.8,3.25.69.69,0,0,1-.5.31.73.73,0,0,1-.58-.19q-.59-.45-1.23-.9a.76.76,0,0,1-.31-.5.71.71,0,0,1,.15-.56l.32-.45c0-.06,0-.09,0-.09h-1.08c-.06,0-.09,0-.09.11v2.95q0,.1.09.06l1-.24a.71.71,0,0,1,.56.1.64.64,0,0,1,.31.48l.21,1.37a.92.92,0,0,1-.14.63.88.88,0,0,1-.52.4l-1.39.43c-.06,0-.09.05-.09.11v7.19a.8.8,0,0,1-.81.79h-1.46a.75.75,0,0,1-.55-.24.78.78,0,0,1-.23-.55v-6.29c0-.06,0-.08-.11-.07l-2.39.7a.76.76,0,0,1-.94-.56l-.4-1.64a.8.8,0,0,1,.1-.6.7.7,0,0,1,.48-.34c.76-.17,1.81-.42,3.15-.77.07,0,.11-.07.11-.13v-3.78a.1.1,0,0,0-.11-.11h-1a.13.13,0,0,0-.14.11c-.15.69-.3,1.3-.47,1.82a.55.55,0,0,1-.38.36.58.58,0,0,1-.54-.09c-.31-.22-.64-.44-1-.65a1.08,1.08,0,0,1-.43-.49,1.13,1.13,0,0,1-.06-.36.88.88,0,0,1,0-.29,29.77,29.77,0,0,0,.88-5.78.65.65,0,0,1,.27-.51.63.63,0,0,1,.56-.14l1.19.18a.94.94,0,0,1,.55.34.79.79,0,0,1,.17.61l-.18,1.61q0,.12.09.12h.43c.07,0,.11,0,.11-.12v-3.39a.81.81,0,0,1,.23-.57.75.75,0,0,1,.55-.24h1.46a.78.78,0,0,1,.58.24.81.81,0,0,1,.23.57v3.39q0,.12.09.12h.77a.77.77,0,0,1,.57.23.74.74,0,0,1,.23.55v1.66a.05.05,0,0,0,0,0s0,0,0,0a21.75,21.75,0,0,0,2.18-6,.79.79,0,0,1,.35-.51.77.77,0,0,1,.59-.12l1.44.27a.76.76,0,0,1,.52.35.73.73,0,0,1,.09.59C154.18,158.89,154,159.55,153.81,160.22Z"/><path class="cls-10" d="M23.8,196.35a.73.73,0,0,1-.23.55.78.78,0,0,1-.57.24H20.73l0,0a.06.06,0,0,0,0,.05,11.63,11.63,0,0,0,3.09,2.08.5.5,0,0,1,.32.5.5.5,0,0,1-.16.36,12.94,12.94,0,0,0-1.14,1.37.27.27,0,0,0-.07.18v8.08a.74.74,0,0,1-.24.55.75.75,0,0,1-.57.24H20.26a.57.57,0,0,1-.42-.17.57.57,0,0,1-.17-.41.08.08,0,0,0-.09-.09H13.74a.08.08,0,0,0-.09.09.65.65,0,0,1-.67.67H11.54a.78.78,0,0,1-.57-.24.74.74,0,0,1-.24-.55v-7.79a0,0,0,0,1,0,0,10.55,10.55,0,0,0-1-1.33s0,0,0,0v0a.91.91,0,0,1-.12.64.89.89,0,0,1-.49.41l-1.1.36a.12.12,0,0,0-.11.14v5a5.65,5.65,0,0,1-.23,1.78,2,2,0,0,1-.78,1,4.91,4.91,0,0,1-2.56.63h0a.86.86,0,0,1-.56-.22.93.93,0,0,1-.33-.57,13.63,13.63,0,0,0-.43-1.57A.51.51,0,0,1,3,207.9a.46.46,0,0,1,.44-.2H3.9a3.75,3.75,0,0,0,.54,0c.14,0,.23,0,.28-.08s.08-.14.08-.28v-4c0-.08,0-.1-.09-.07l-1.17.38a.69.69,0,0,1-.58-.07.6.6,0,0,1-.31-.47l-.3-1.64v-.15a.92.92,0,0,1,.14-.48.89.89,0,0,1,.52-.35c.57-.15,1.13-.31,1.7-.48a.1.1,0,0,0,.09-.11v-3.64c0-.07,0-.11-.09-.11H3.43a.75.75,0,0,1-.55-.24.76.76,0,0,1-.23-.55v-1.48a.78.78,0,0,1,.23-.55.74.74,0,0,1,.55-.23H4.71q.09,0,.09-.12V189.7a.74.74,0,0,1,.24-.56.8.8,0,0,1,.57-.22H7.07a.77.77,0,0,1,.55.22.74.74,0,0,1,.24.56V193c0,.08,0,.12.11.12h.94a.73.73,0,0,1,.55.23.75.75,0,0,1,.24.55v1.48a.82.82,0,0,1-.79.79H8a.1.1,0,0,0-.11.11V199c0,.06,0,.08.11.07l.61-.2a.64.64,0,0,1,.54.05.62.62,0,0,1,.29.44c0,.08.05.1.11.07a9.92,9.92,0,0,0,3.32-2.2s0,0,0-.05,0,0,0,0H10.71a.76.76,0,0,1-.57-.24.74.74,0,0,1-.24-.55v-1a.8.8,0,0,1,.81-.81h1q.09,0,.06-.09c-.09-.3-.18-.62-.29-.94a.76.76,0,0,1,0-.61.68.68,0,0,1,.46-.38l.38-.12s0,0,0,0l-.92,0a.91.91,0,0,1-.6-.22,1.05,1.05,0,0,1-.36-.56,5.57,5.57,0,0,0-.25-.83.58.58,0,0,1,.07-.53.56.56,0,0,1,.45-.26,90.47,90.47,0,0,0,10-.87.9.9,0,0,1,.24,0,1.14,1.14,0,0,1,1,.53l.76,1.08a.48.48,0,0,1,.05.49.49.49,0,0,1-.38.3l-1.53.22h0l0,0L22,192a.65.65,0,0,1,.44.36.62.62,0,0,1,0,.56l-.77,1.46c0,.06,0,.09,0,.09H23a.81.81,0,0,1,.57.23.78.78,0,0,1,.23.58ZM16,200.89a.82.82,0,0,1-.79-.79v-1.34a.05.05,0,0,0,0,0s0,0-.05,0a12.18,12.18,0,0,1-2.56,2.36s0,0,0,0l0,0H21s0,0,0,0,0,0,0,0a13.77,13.77,0,0,1-2.81-2.67,0,0,0,0,0,0,0s0,0,0,0v1.66a.74.74,0,0,1-.24.55.75.75,0,0,1-.55.24Zm-.79-8.58c0-.06,0-.09-.11-.09l-1,.07q-.09,0-.06.09.24.54.42,1a.7.7,0,0,1,0,.6.81.81,0,0,1-.46.41l-.32.09s0,0,0,0h1.46c.07,0,.11,0,.11-.09Zm-.07,12.13a.1.1,0,0,0,.11-.11v-.72c0-.06,0-.09-.11-.09H13.76c-.07,0-.11,0-.11.09v.72a.1.1,0,0,0,.11.11Zm-1.35,2.24c-.07,0-.11,0-.11.12v.72c0,.06,0,.09.11.09h1.35c.08,0,.11,0,.11-.09v-.72c0-.08,0-.12-.11-.12Zm5.8-2.24a.1.1,0,0,0,.11-.11v-.72c0-.06,0-.09-.11-.09H18.05a.08.08,0,0,0-.09.09v.72c0,.07,0,.11.09.11ZM18,207.52a.08.08,0,0,0,.09.09h1.51c.07,0,.11,0,.11-.09v-.72c0-.08,0-.12-.11-.12H18.05c-.05,0-.09,0-.09.12Zm.21-13.12c0,.06,0,.09.11.09h.29a.13.13,0,0,0,.14-.09,17.5,17.5,0,0,0,1-2.47.08.08,0,0,0,0-.07l-.07,0c-.34,0-.81.09-1.39.13-.08,0-.11.06-.11.11Z"/><path class="cls-10" d="M47.32,195.27a.81.81,0,0,1-.22.58.77.77,0,0,1-.56.23H45.7c-.06,0-.09,0-.11.12a26.42,26.42,0,0,1-2.29,7.88.17.17,0,0,0,0,.18,11.24,11.24,0,0,0,3.6,3.05.58.58,0,0,1,.29.43.56.56,0,0,1-.14.49,11.84,11.84,0,0,0-1.3,1.67.87.87,0,0,1-.5.36.7.7,0,0,1-.6-.09,13.23,13.23,0,0,1-3.32-2.88.1.1,0,0,0-.14,0,13.82,13.82,0,0,1-3.79,3.12.71.71,0,0,1-.6.06.81.81,0,0,1-.46-.37A15,15,0,0,0,35,208l-.05,0s0,0,0,.05a3.78,3.78,0,0,1-.43,1.39,2.41,2.41,0,0,1-.72.76,2.89,2.89,0,0,1-.94.39,7.4,7.4,0,0,1-1.66.15.86.86,0,0,1-.59-.23,1.06,1.06,0,0,1-.31-.58,10.38,10.38,0,0,0-.43-1.5.45.45,0,0,1,.07-.46.48.48,0,0,1,.4-.21l.72,0a.75.75,0,0,0,.65-.36,5.86,5.86,0,0,0,.31-1.91c.06-1,.11-2.76.14-5.17,0-.07,0-.11-.09-.11H31c-.08,0-.12,0-.12.11a23.28,23.28,0,0,1-.64,5.28A11.39,11.39,0,0,1,28,210a.58.58,0,0,1-.5.25A.73.73,0,0,1,27,210a13.34,13.34,0,0,0-1.28-1.13.85.85,0,0,1-.31-.51v-.14a.71.71,0,0,1,.16-.45A10.47,10.47,0,0,0,27.25,204a20.29,20.29,0,0,0,.44-4.33v-4.2a.1.1,0,0,0-.11-.11h-1.1a.76.76,0,0,1-.55-.23.75.75,0,0,1-.24-.55v-1.49a.78.78,0,0,1,.24-.57.74.74,0,0,1,.55-.24H28.9a.08.08,0,0,0,.09-.09v-2.51a.75.75,0,0,1,.24-.57.78.78,0,0,1,.57-.24h1.71a.78.78,0,0,1,.57.24.75.75,0,0,1,.24.57v2.51a.08.08,0,0,0,.09.09h2.65a.74.74,0,0,1,.56.24.8.8,0,0,1,.22.57v1.49a.77.77,0,0,1-.78.78H31c-.08,0-.12,0-.12.11v1.62q0,.09.12.09h3.52a.8.8,0,0,1,.81.81v0s0,0,0,0a0,0,0,0,0,0,0,21.28,21.28,0,0,0,2.74-8.35.75.75,0,0,1,.31-.54A.7.7,0,0,1,39,189l1.86.26a.8.8,0,0,1,.53.32.76.76,0,0,1,.14.58c-.15.84-.33,1.76-.56,2.74,0,.08,0,.12.07.12h5.53a.73.73,0,0,1,.56.23.77.77,0,0,1,.22.55ZM34.9,207.74s0,0,0,0a.08.08,0,0,0,.07,0,11.1,11.1,0,0,0,4.4-3.46.15.15,0,0,0,0-.16A23.17,23.17,0,0,1,38,200.51s0,0,0,0a.07.07,0,0,0-.06,0l-.18.26a.63.63,0,0,1-.49.3.74.74,0,0,1-.56-.21c-.42-.37-.89-.75-1.4-1.14,0,0-.06,0-.06,0C35.19,203.76,35.08,206.42,34.9,207.74Zm7.39-11.57a.08.08,0,0,0-.09-.09H40s0,0,0,0a.19.19,0,0,0,0,.08,25.31,25.31,0,0,0,1.26,4.33s0,0,0,0a0,0,0,0,0,0,0A26.49,26.49,0,0,0,42.29,196.17Z"/><path d="M61.7,207.38h4a1.37,1.37,0,0,0,1.2-.45,4.32,4.32,0,0,0,.49-1.84.43.43,0,0,1,.27-.39.48.48,0,0,1,.49,0,11,11,0,0,0,1.57.65,1,1,0,0,1,.54.4.92.92,0,0,1,.14.48v.13a5.54,5.54,0,0,1-1.32,3.12,4.35,4.35,0,0,1-3.06.88H61.38c-1.8,0-3-.32-3.65-1s-.95-1.84-.95-3.62v-5.53c0-.07,0-.1-.09-.07l-.61.25a.86.86,0,0,1-.63,0A.78.78,0,0,1,55,200l-.83-1.86s0,0,0,0,0,0,0,0v11.77a.82.82,0,0,1-.81.79H51.66a.8.8,0,0,1-.81-.79V199.7s0,0,0,0,0,0,0,0l-.4.49a.46.46,0,0,1-.46.18.49.49,0,0,1-.4-.31c-.31-.71-.65-1.38-1-2a1.07,1.07,0,0,1-.13-.53v-.12a1.08,1.08,0,0,1,.29-.63,22.86,22.86,0,0,0,4.15-7,.88.88,0,0,1,.43-.46.81.81,0,0,1,.61-.06l1.57.52a.66.66,0,0,1,.45.38.74.74,0,0,1,0,.6,39.14,39.14,0,0,1-1.71,3.69.45.45,0,0,0,0,.2v3c0,.08,0,.1.09.07l2.45-1c.06,0,.09-.06.09-.13v-4.18a.81.81,0,0,1,.23-.57.78.78,0,0,1,.58-.24h1.7a.78.78,0,0,1,.58.24.81.81,0,0,1,.23.57v2.88q0,.09.09.06l1.37-.53a.13.13,0,0,0,.09-.14v-4.87a.75.75,0,0,1,.24-.57.83.83,0,0,1,.57-.22H64a.85.85,0,0,1,.57.22.75.75,0,0,1,.24.57v3.64q0,.09.09.06l1.34-.54a.38.38,0,0,0,.18-.09l.34-.22a1.57,1.57,0,0,1,.85-.27,2,2,0,0,1,.57.09l1.1.43a.47.47,0,0,1,.27.23.58.58,0,0,1,0,.37v.11c0,4.18-.08,6.63-.13,7.35a2.65,2.65,0,0,1-1.26,2.36,4.82,4.82,0,0,1-2,.4.82.82,0,0,1-.58-.22.94.94,0,0,1-.3-.56,8.86,8.86,0,0,0-.51-2.05h0v3.37a.73.73,0,0,1-.24.56.81.81,0,0,1-.57.23H62.46a.79.79,0,0,1-.57-.23.73.73,0,0,1-.24-.56v-5.95c0-.08,0-.1-.09-.07l-1.37.54a.15.15,0,0,0-.09.14v6.85a2.06,2.06,0,0,0,.27,1.33A2.17,2.17,0,0,0,61.7,207.38Zm4.76-11c0-.07,0-.1-.09-.07l-1.48.59a.14.14,0,0,0-.09.13v3.51c0,.07,0,.11.09.11.5,0,.86,0,1,0a.46.46,0,0,0,.31-.09.62.62,0,0,0,.12-.36C66.41,200,66.44,198.74,66.46,196.42Z"/><path d="M84,190.06a.77.77,0,0,1,.56.23.75.75,0,0,1,.22.56v7.48a.77.77,0,0,1-.22.55.74.74,0,0,1-.56.24H81.21s-.09,0-.09.11v10.64a.73.73,0,0,1-.23.55.78.78,0,0,1-.57.24H78.83a.78.78,0,0,1-.57-.24.73.73,0,0,1-.23-.55V191.19s0,0,0,0c-.46,1.22-.87,2.22-1.21,3a.46.46,0,0,0,0,.21v15.54a.82.82,0,0,1-.79.79h-1.6a.75.75,0,0,1-.55-.24.78.78,0,0,1-.23-.55v-9.86s0-.05,0-.05,0,0,0,0l-.4.54a.46.46,0,0,1-.77-.14,22.42,22.42,0,0,0-.94-2.22,1.42,1.42,0,0,1-.14-.59,1.23,1.23,0,0,1,.27-.74,24.24,24.24,0,0,0,3.62-7.25.85.85,0,0,1,.4-.47.8.8,0,0,1,.36-.09.77.77,0,0,1,.25,0l2.09.61c.15,0,.19.14.13.29s0,0,0,0Zm-1.69,2.59c0-.08,0-.12-.11-.12h-1s-.09,0-.09.12v.67a.08.08,0,0,0,.09.09h1c.07,0,.11,0,.11-.09Zm-1.15,3.88c0,.08,0,.11.09.11h1a.1.1,0,0,0,.11-.11v-.69c0-.06,0-.09-.11-.09h-1a.08.08,0,0,0-.09.09Zm10.74-6.47a.78.78,0,0,1,.57.23.73.73,0,0,1,.24.56V207a5.25,5.25,0,0,1-.3,2,2.2,2.2,0,0,1-1.07,1.08,9.75,9.75,0,0,1-3.91.58h0a.91.91,0,0,1-.58-.22,1,1,0,0,1-.36-.57,11.9,11.9,0,0,0-.57-1.68.49.49,0,0,1,.06-.47.42.42,0,0,1,.42-.2c.66,0,1.23,0,1.73,0l.83,0a.63.63,0,0,0,.46-.13.65.65,0,0,0,.12-.46v-7.72c0-.08,0-.11-.09-.11h-3a.78.78,0,0,1-.57-.24.75.75,0,0,1-.24-.55v-7.48a.73.73,0,0,1,.24-.56.81.81,0,0,1,.57-.23Zm-2.38,2.59q0-.12-.09-.12h-1.1c-.08,0-.11,0-.11.12v.67c0,.06,0,.09.11.09h1.1a.08.08,0,0,0,.09-.09Zm-1.3,3.88c0,.08,0,.11.11.11h1.1c.06,0,.09,0,.09-.11v-.69a.08.08,0,0,0-.09-.09h-1.1c-.08,0-.11,0-.11.09Z"/><path d="M109.54,192.31c0,.06,0,.09.07.09H115a.78.78,0,0,1,.58.24.76.76,0,0,1,.23.55c0,.24,0,.46,0,.67q-.23,8.08-.51,11.2a8.94,8.94,0,0,1-1,4,3.27,3.27,0,0,1-1,1,4.74,4.74,0,0,1-1.38.46,12.2,12.2,0,0,1-2.09.13l-.85,0a.81.81,0,0,1-.57-.24,1,1,0,0,1-.33-.57,8.08,8.08,0,0,0-.61-1.75.43.43,0,0,1,0-.44.39.39,0,0,1,.38-.19c.78.05,1.67.07,2.67.07a1.32,1.32,0,0,0,1-.41c.33-.36.58-1.41.74-3.17s.3-4.57.39-8.42c0-.07,0-.11-.09-.11h-4.16a.16.16,0,0,0-.16.09,24.11,24.11,0,0,1-1.46,2.67.69.69,0,0,1-.49.32.67.67,0,0,1-.56-.16l-1.19-.85c-.06-.05-.09,0-.09,0v10a.8.8,0,0,1-.79.81H98.49a.08.08,0,0,0-.09.09v.74a.78.78,0,0,1-.24.58.81.81,0,0,1-.57.23H96.17a.77.77,0,0,1-.56-.23.81.81,0,0,1-.22-.58V193.43a.8.8,0,0,1,.22-.57.74.74,0,0,1,.56-.24H97.9a.12.12,0,0,0,.12-.09q.28-1.46.42-2.85a.73.73,0,0,1,.29-.54.76.76,0,0,1,.45-.15h.12l2.06.29a.64.64,0,0,1,.48.31.57.57,0,0,1,.06.56c-.37,1.08-.66,1.88-.85,2.38,0,.06,0,.09.07.09h2.51a.75.75,0,0,1,.55.24.78.78,0,0,1,.24.57v2.16s0,0,0,0,0,0,0,0a24.38,24.38,0,0,0,2.5-5.88.81.81,0,0,1,.37-.5.68.68,0,0,1,.59-.09l1.69.38a.77.77,0,0,1,.47.38.71.71,0,0,1,.06.57C110,191,109.78,191.65,109.54,192.31Zm-8.25,6.33c.08,0,.12,0,.12-.11v-2.9c0-.07,0-.11-.12-.11h-2.8c-.06,0-.09,0-.09.11v2.9c0,.08,0,.11.09.11Zm-2.89,6.72c0,.07,0,.11.09.11h2.8c.08,0,.12,0,.12-.11v-3.75q0-.09-.12-.09h-2.8a.08.08,0,0,0-.09.09Zm13-3a.86.86,0,0,1,.11.4.64.64,0,0,1,0,.23.77.77,0,0,1-.38.49l-1.46.9a.8.8,0,0,1-.36.09l-.2,0a.69.69,0,0,1-.45-.38q-.64-1.31-2.27-4a.86.86,0,0,1-.11-.4,1.5,1.5,0,0,1,0-.2.73.73,0,0,1,.39-.47l1.21-.7a.81.81,0,0,1,.43-.11.79.79,0,0,1,.2,0,.86.86,0,0,1,.51.36Q110.83,201.27,111.45,202.35Z"/><path d="M138.67,197.63a.73.73,0,0,1-.24.56.78.78,0,0,1-.57.23H126.59a.16.16,0,0,0-.16.09c0,.07-.11.22-.23.43,0,.06,0,.09,0,.09h9.5a.75.75,0,0,1,.57.23.78.78,0,0,1,.24.57V210a.74.74,0,0,1-.24.56.78.78,0,0,1-.57.22h-1.86a.66.66,0,0,1-.5-.2.68.68,0,0,1-.2-.49s0-.07-.09-.07h-7.21c-.06,0-.09,0-.09.07a.68.68,0,0,1-.2.49.66.66,0,0,1-.5.2h-1.68a.77.77,0,0,1-.57-.22.74.74,0,0,1-.24-.56v-6.22a.05.05,0,0,0,0,0h0a16.33,16.33,0,0,1-2.54,2,.72.72,0,0,1-.6.1.92.92,0,0,1-.52-.35,16.66,16.66,0,0,0-1.1-1.41.64.64,0,0,1-.16-.41.2.2,0,0,1,0-.11.56.56,0,0,1,.29-.45,14.33,14.33,0,0,0,4.67-4.6c0-.06,0-.09,0-.09h-3.71a.78.78,0,0,1-.57-.23.73.73,0,0,1-.24-.56v-1a.75.75,0,0,1,.24-.55.74.74,0,0,1,.57-.23h5.08c.07,0,.12,0,.13-.09a2.17,2.17,0,0,0,.1-.21,1.16,1.16,0,0,0,.08-.2c0-.06,0-.09-.07-.09h-3.77a.78.78,0,0,1-.55-.23.75.75,0,0,1-.24-.55v-.9a.73.73,0,0,1,.24-.56.78.78,0,0,1,.55-.23H125a.13.13,0,0,0,.14-.11l.13-.43q0-.09-.09-.09c-1,0-2,0-3,0l-1.32,0a.87.87,0,0,1-.6-.22,1,1,0,0,1-.32-.56c-.06-.3-.14-.61-.23-.92a.58.58,0,0,1,.07-.53.5.5,0,0,1,.45-.24,123.77,123.77,0,0,0,14.55-.69H135a1.33,1.33,0,0,1,1.07.51l.88,1.13a.4.4,0,0,1,.08.45.46.46,0,0,1-.37.29q-3.37.45-7.62.65a.14.14,0,0,0-.13.09l-.14.54c0,.07,0,.11.07.11h7.82a.77.77,0,0,1,.56.23.75.75,0,0,1,.22.56v.9a.77.77,0,0,1-.78.78H128a.14.14,0,0,0-.13.09l-.16.41c0,.06,0,.09.07.09h10.08a.74.74,0,0,1,.57.23.75.75,0,0,1,.24.55Zm-5.57,4.52a.08.08,0,0,0,.09-.09v-.45a.08.08,0,0,0-.09-.09h-7.19c-.07,0-.11,0-.11.09v.45c0,.06,0,.09.11.09Zm-7.19,2a.1.1,0,0,0-.11.11v.45c0,.06,0,.09.11.09h7.19a.08.08,0,0,0,.09-.09v-.45c0-.07,0-.11-.09-.11Zm-.11,3.26a.1.1,0,0,0,.11.11h7.19c.06,0,.09,0,.09-.11V207c0-.07,0-.11-.09-.11h-7.19a.1.1,0,0,0-.11.11Z"/><path d="M145.86,196.82a.75.75,0,0,1,.33.51.78.78,0,0,1-.13.62l-1,1.46a.76.76,0,0,1-.49.3.69.69,0,0,1-.58-.15,18.86,18.86,0,0,0-2.9-1.61.68.68,0,0,1-.36-.43.53.53,0,0,1,0-.2.61.61,0,0,1,.14-.36l.81-1.21a1,1,0,0,1,.54-.4,1.18,1.18,0,0,1,.67,0A22.59,22.59,0,0,1,145.86,196.82Zm-1.24,5a.62.62,0,0,1,.43-.34.56.56,0,0,1,.52.14l1.32,1.12a1,1,0,0,1,.35.56,1.08,1.08,0,0,1-.08.68c-.91,2-1.89,3.88-2.92,5.75a.73.73,0,0,1-1,.22l-1.62-1.19a.86.86,0,0,1-.34-.54,1,1,0,0,1,0-.16.77.77,0,0,1,.14-.44Q143.14,204.79,144.62,201.81Zm2.67-11a.77.77,0,0,1,.33.52.74.74,0,0,1-.15.61l-1,1.41a.7.7,0,0,1-.5.29.71.71,0,0,1-.58-.15,17.26,17.26,0,0,0-2.89-1.75.66.66,0,0,1-.35-.43.61.61,0,0,1,.1-.54l.9-1.19a.92.92,0,0,1,.54-.38,1,1,0,0,1,.67,0A18.79,18.79,0,0,1,147.29,190.8Zm15.08,17.43a1.11,1.11,0,0,1,.06.34.91.91,0,0,1-.06.32.86.86,0,0,1-.41.47l-1.79,1a.65.65,0,0,1-.32.09.7.7,0,0,1-.25-.05.75.75,0,0,1-.42-.4l-.39-1a.11.11,0,0,0-.15-.06q-2.65.24-10.42.87a.81.81,0,0,1-.6-.19.84.84,0,0,1-.3-.55l-.23-1.8a.69.69,0,0,1,.17-.56.78.78,0,0,1,.53-.27l.76,0a.15.15,0,0,0,.14-.09,36.79,36.79,0,0,0,1.79-5.23q0-.12-.06-.12h-2.63a.74.74,0,0,1-.57-.23.75.75,0,0,1-.24-.55v-1.6a.75.75,0,0,1,.24-.55.78.78,0,0,1,.57-.23h4.78c.06,0,.09,0,.09-.11v-2.54a.08.08,0,0,0-.09-.09h-3.64a.74.74,0,0,1-.56-.24.8.8,0,0,1-.22-.57v-1.57a.77.77,0,0,1,.22-.57.8.8,0,0,1,.56-.22h3.64c.06,0,.09,0,.09-.11v-2.16a.82.82,0,0,1,.81-.81h1.87a.78.78,0,0,1,.57.24.77.77,0,0,1,.23.57v2.16c0,.07,0,.11.09.11h3.85a.85.85,0,0,1,.57.22.74.74,0,0,1,.23.57v1.57a.77.77,0,0,1-.23.57.78.78,0,0,1-.57.24h-3.85a.08.08,0,0,0-.09.09v2.54c0,.07,0,.11.09.11h5a.78.78,0,0,1,.55.23.75.75,0,0,1,.24.55v1.6a.75.75,0,0,1-.24.55.74.74,0,0,1-.55.23h-7c.16,0,.21.15.15.32-.69,1.8-1.38,3.42-2.09,4.87,0,.06,0,.09,0,.07L157,206c.06,0,.08,0,0-.09-.39-.58-.75-1.09-1.06-1.52a.71.71,0,0,1-.11-.58.66.66,0,0,1,.36-.46l1.48-.78a.93.93,0,0,1,.65-.09.9.9,0,0,1,.56.33A28.12,28.12,0,0,1,162.37,208.23Z"/><path class="cls-11" d="M117.65,30.3A15.15,15.15,0,1,1,132.8,15.15,15.17,15.17,0,0,1,117.65,30.3Zm0-28.3A13.15,13.15,0,1,0,130.8,15.15,13.17,13.17,0,0,0,117.65,2Z"/><polygon class="cls-11" points="126.06 15.35 113.35 8.01 113.35 22.69 126.06 15.35"/><path d="M4.49,238.53a.37.37,0,0,1,.11.28.34.34,0,0,1,0,.1.42.42,0,0,1-.25.29l-.52.23a.68.68,0,0,1-.34.08H3.33a.85.85,0,0,1-.44-.25,11.46,11.46,0,0,1,0-15.22.77.77,0,0,1,.44-.24l.15,0a.81.81,0,0,1,.34.08l.52.23a.41.41,0,0,1,.25.29.38.38,0,0,1,0,.1.4.4,0,0,1-.11.28,10.43,10.43,0,0,0,0,13.78Z"/><path d="M18.31,237.18s0,.08.08.08h2.84a.58.58,0,0,1,.57.57v.72a.61.61,0,0,1-.17.42.56.56,0,0,1-.4.17H13a.55.55,0,0,1-.41-.17.61.61,0,0,1-.17-.42v-.72a.56.56,0,0,1,.17-.4.55.55,0,0,1,.41-.17h3.28s.06,0,.06-.08v-3.24c0-.05,0-.08-.06-.08H14a.54.54,0,0,1-.42-.17.52.52,0,0,1-.17-.4v-.67a.53.53,0,0,1,.17-.41A.54.54,0,0,1,14,232h2.25a.05.05,0,0,0,.06-.06v-2.79q0-.09-.06-.09H14.7a.11.11,0,0,0-.1.07,12.15,12.15,0,0,1-.77,1.78.48.48,0,0,1-.34.24.52.52,0,0,1-.43-.09,9,9,0,0,0-.88-.54s-.06,0-.06,0a21.83,21.83,0,0,1-.93,4,.09.09,0,0,0,0,.11c.48.46.87.88,1.19,1.25a.66.66,0,0,1,.16.44.74.74,0,0,1-.16.47l-.55.69a.41.41,0,0,1-.35.17.56.56,0,0,1-.36-.17,12.6,12.6,0,0,0-.81-1s-.07,0-.1,0a8.42,8.42,0,0,1-2.32,2.5.53.53,0,0,1-.29.1l-.13,0a.53.53,0,0,1-.36-.25c-.15-.24-.3-.46-.46-.67a.52.52,0,0,1-.1-.4.46.46,0,0,1,.21-.33,6.34,6.34,0,0,0,2-2.32.07.07,0,0,0,0-.11l-.75-.69s-.05,0-.05,0a.34.34,0,0,1-.21.24.38.38,0,0,1-.33,0l-.67-.41a.79.79,0,0,1-.33-.37.88.88,0,0,1-.05-.48c.28-1.16.58-2.63.92-4.41a.06.06,0,0,0-.07-.07H6.81a.58.58,0,0,1-.57-.57v-.65a.58.58,0,0,1,.57-.59h.78c.06,0,.09,0,.1-.06.13-.77.27-1.65.43-2.67a.58.58,0,0,1,.21-.39.6.6,0,0,1,.37-.13h.07l.73.07a.51.51,0,0,1,.38.2.49.49,0,0,1,.1.42c-.17.94-.31,1.78-.44,2.5a.05.05,0,0,0,.06.06h1.08q.9,0,1.14,0a.51.51,0,0,1,.39.21.54.54,0,0,1,.15.41c0,.82-.11,1.47-.16,2,0,0,0,0,0,0l0,0a13.91,13.91,0,0,0,1.32-4.37.59.59,0,0,1,.23-.38.53.53,0,0,1,.44-.1L15,225a.53.53,0,0,1,.38.23.61.61,0,0,1,.11.44c-.07.37-.17.85-.3,1.45,0,.06,0,.08.05.08h1s.06,0,.06-.08v-2.58a.53.53,0,0,1,.18-.4.57.57,0,0,1,.41-.17h.83a.54.54,0,0,1,.4.17.53.53,0,0,1,.18.4v2.58c0,.06,0,.08.08.08H20.8a.57.57,0,0,1,.42.17.5.5,0,0,1,.17.4v.72a.52.52,0,0,1-.17.4.54.54,0,0,1-.42.17H18.39c-.06,0-.08,0-.08.09V232s0,.06.08.06h2.23a.52.52,0,0,1,.41.18.57.57,0,0,1,.17.41v.67a.56.56,0,0,1-.17.4.52.52,0,0,1-.41.17H18.39c-.06,0-.08,0-.08.08ZM10.48,229s0-.08-.08-.08H9.28a.09.09,0,0,0-.1.07c-.17.82-.39,1.91-.69,3.3a.11.11,0,0,0,0,.11l1.05.88s.07,0,.08,0A20.21,20.21,0,0,0,10.48,229Z"/><path d="M36.76,231.92a.61.61,0,0,1,.42.17.59.59,0,0,1,.17.42v6.37a.58.58,0,0,1-.17.4.61.61,0,0,1-.42.17h-.91a.55.55,0,0,1-.41-.17.58.58,0,0,1-.17-.4v0c0-.05,0-.08-.08-.08H29.67a.07.07,0,0,0-.08.08.55.55,0,0,1-.16.4.57.57,0,0,1-.41.17h-.83a.56.56,0,0,1-.57-.57v-4.1s0-.06-.07,0a22,22,0,0,1-3.09,1.4.59.59,0,0,1-.45,0,.71.71,0,0,1-.35-.31c-.17-.3-.35-.57-.52-.82a.46.46,0,0,1-.08-.25.23.23,0,0,1,0-.11.3.3,0,0,1,.24-.24,19.32,19.32,0,0,0,5.23-2.68s0-.07,0-.1a22.28,22.28,0,0,0-2.45-2.22.11.11,0,0,0-.11,0c-.4.31-.84.62-1.31.93a.55.55,0,0,1-.45.07.68.68,0,0,1-.38-.23,4.89,4.89,0,0,0-.64-.71.39.39,0,0,1-.12-.36.39.39,0,0,1,.2-.31,14.35,14.35,0,0,0,2.79-2.1,13.18,13.18,0,0,0,2-2.44.78.78,0,0,1,.37-.32.67.67,0,0,1,.33-.08h.15l1.11.21a.38.38,0,0,1,.29.23.42.42,0,0,1,0,.38l-.49.73s0,.07,0,.07h3.69l.07,0a.83.83,0,0,1,.22,0,.64.64,0,0,1,.35.1l.59.29a.66.66,0,0,1,.3.36.61.61,0,0,1,0,.46,15.34,15.34,0,0,1-3.61,5.24,0,0,0,0,0,0,0l0,0Zm-4.26-4.65s0-.05,0-.05h-4a.15.15,0,0,0-.12.05l-.71.73c-.05,0-.05.08,0,.1a21.65,21.65,0,0,1,2.54,2.12s.07,0,.1,0A12.92,12.92,0,0,0,32.5,227.27Zm-2.91,9.65a.07.07,0,0,0,.08.08h5.52c.06,0,.08,0,.08-.08V233.8c0-.05,0-.07-.08-.07H29.67c-.05,0-.08,0-.08.07Z"/><path d="M55,232.78a.52.52,0,0,1-.18.41.57.57,0,0,1-.41.17H46.92c-.06,0-.09,0-.1.08,0,.34-.09.61-.13.81s0,.09.05.09h5.73a.55.55,0,0,1,.54.57q0,.1,0,.18a16,16,0,0,1-.4,2.54,2.47,2.47,0,0,1-.58,1.2,2.37,2.37,0,0,1-1.6.57c-.24,0-.58,0-1,0h-1a.58.58,0,0,1-.42-.18.91.91,0,0,1-.25-.41,3.48,3.48,0,0,0-.21-.62.32.32,0,0,1,0-.34.27.27,0,0,1,.27-.14c.65,0,1.24.05,1.78.05a1.13,1.13,0,0,0,.69-.16,2.78,2.78,0,0,0,.51-1.57c0-.05,0-.08-.07-.08H46.18a.11.11,0,0,0-.11.06,5.58,5.58,0,0,1-1.71,2,9.36,9.36,0,0,1-3,1.36.69.69,0,0,1-.47,0,.77.77,0,0,1-.35-.34,8.35,8.35,0,0,0-.49-.78.33.33,0,0,1-.05-.33.34.34,0,0,1,.26-.24,9.63,9.63,0,0,0,2-.71,4.19,4.19,0,0,0,1.32-1,4.28,4.28,0,0,0,.72-1.13,6.31,6.31,0,0,0,.36-1.37c0-.06,0-.08-.05-.08H40.5a.61.61,0,0,1-.42-.17.55.55,0,0,1-.17-.41v-.57a.58.58,0,0,1,.17-.4.61.61,0,0,1,.42-.17h5.83a.07.07,0,0,0,.08-.08V231a.57.57,0,0,1,.17-.42.5.5,0,0,1,.4-.17h.89a.51.51,0,0,1,.4.17.57.57,0,0,1,.17.42v.6c0,.05,0,.08.08.08H54.4a.57.57,0,0,1,.41.17.55.55,0,0,1,.18.4Zm-11.6-5.45a.4.4,0,0,1,0-.34.41.41,0,0,1,.26-.22H40.89a.58.58,0,0,1-.4-.17.61.61,0,0,1-.17-.42v-.55a.57.57,0,0,1,.17-.42.54.54,0,0,1,.4-.17h5.39a.06.06,0,0,0,.07-.07v-.55a.52.52,0,0,1,.17-.41.56.56,0,0,1,.41-.16h.94a.54.54,0,0,1,.4.16.55.55,0,0,1,.17.41V225s0,.07.08.07H54a.54.54,0,0,1,.4.17.57.57,0,0,1,.17.42v.55a.61.61,0,0,1-.17.42.58.58,0,0,1-.4.17H52.21a.11.11,0,0,0-.1.06l-.75,1.31s0,.07,0,.07H54a.54.54,0,0,1,.4.17.56.56,0,0,1,.17.4v1.84a.54.54,0,0,1-.17.4.54.54,0,0,1-.4.17h-.8a.54.54,0,0,1-.42-.17.51.51,0,0,1-.17-.4V230c0-.05,0-.08-.07-.08H42.28a.07.07,0,0,0-.08.08v.65a.58.58,0,0,1-.16.4.53.53,0,0,1-.41.17h-.72a.52.52,0,0,1-.4-.17.51.51,0,0,1-.17-.4v-1.84a.58.58,0,0,1,.57-.57h2.73s.07,0,0-.07A5.54,5.54,0,0,0,43.39,227.33Zm2.34.8a.11.11,0,0,0,.09.07h3.37a.11.11,0,0,0,.1-.07,12.08,12.08,0,0,0,.49-1.31s0-.06-.05-.06H45.24c-.05,0-.06,0,0,.06A7.34,7.34,0,0,1,45.73,228.13Z"/><path d="M71.61,227.13a.54.54,0,0,1-.17.4.56.56,0,0,1-.42.18H62.73a.1.1,0,0,0-.1.06A11,11,0,0,1,62,229s0,.07,0,.07h7.08a.58.58,0,0,1,.59.59v7.67a2.92,2.92,0,0,1-.19,1.19,1.31,1.31,0,0,1-.67.64,6.09,6.09,0,0,1-2.39.33.67.67,0,0,1-.44-.17.72.72,0,0,1-.26-.4c-.08-.28-.16-.55-.26-.82a.33.33,0,0,1,0-.34.36.36,0,0,1,.31-.17l1.53,0a.55.55,0,0,0,.3-.07.37.37,0,0,0,.08-.26v-.93c0-.05,0-.08-.07-.08H61.83s-.07,0-.07.08v2.55a.52.52,0,0,1-.17.4.57.57,0,0,1-.42.17h-.81a.56.56,0,0,1-.4-.17.52.52,0,0,1-.17-.4v-6.63l0,0a0,0,0,0,0,0,0,12.15,12.15,0,0,1-1.7,1.57.56.56,0,0,1-.42.1.61.61,0,0,1-.4-.23c-.16-.21-.35-.42-.55-.64a.47.47,0,0,1-.13-.34.48.48,0,0,1,.21-.41,13.11,13.11,0,0,0,3.66-4.49s0-.06,0-.06h-3a.54.54,0,0,1-.41-.18.51.51,0,0,1-.17-.4v-.71a.52.52,0,0,1,.17-.41.57.57,0,0,1,.41-.17h3.84c.06,0,.09,0,.1-.08.18-.47.35-.93.49-1.39A.58.58,0,0,1,62,224a.59.59,0,0,1,.31-.09l.13,0,.93.2a.51.51,0,0,1,.34.27.46.46,0,0,1,0,.41c-.12.36-.22.67-.32.93,0,.06,0,.08,0,.08H71a.59.59,0,0,1,.42.17.55.55,0,0,1,.17.41Zm-3.89,4.71s.07,0,.07-.07v-.93s0-.06-.07-.06H61.83s-.07,0-.07.06v.93s0,.07.07.07Zm-6,2.68s0,.06.07.06h5.89s.07,0,.07-.06v-1a.06.06,0,0,0-.07-.07H61.83a.06.06,0,0,0-.07.07Z"/><path d="M79.76,230.53a.57.57,0,0,1-.41.21h-.06a.65.65,0,0,1-.38-.11l-.1-.08a.62.62,0,0,1-.24-.39.66.66,0,0,1,.06-.46l.8-1.36a.07.07,0,0,0,0-.1l-1.4-.62a.55.55,0,0,1-.33-.32.45.45,0,0,1-.07-.25.52.52,0,0,1,0-.21l0-.13a.65.65,0,0,1,.31-.36.59.59,0,0,1,.45-.06l1.5.34s.08,0,.08-.07l.16-1.55a.6.6,0,0,1,.2-.41.63.63,0,0,1,.44-.16H81a.63.63,0,0,1,.44.16.6.6,0,0,1,.2.41l.16,1.55c0,.06,0,.08.08.07l1.49-.34a.6.6,0,0,1,.45.06.54.54,0,0,1,.28.36l0,.13a.71.71,0,0,1,0,.2.68.68,0,0,1-.07.26.58.58,0,0,1-.33.32l-1.42.62a.07.07,0,0,0,0,.1l.83,1.36a.62.62,0,0,1,.09.46.68.68,0,0,1-.25.39l-.13.08a.55.55,0,0,1-.36.13l-.08,0a.55.55,0,0,1-.41-.21l-1-1.19s-.06,0-.09,0Z"/><path d="M105.1,230.06a.53.53,0,0,1-.17.41.6.6,0,0,1-.41.16H99.16a.3.3,0,0,0-.15.05c-.64.46-1.26.87-1.84,1.26,0,0,0,0,0,0s0,0,0,0h5.41a.61.61,0,0,1,.42.17.57.57,0,0,1,.17.42v6.27a.58.58,0,0,1-.17.4.61.61,0,0,1-.42.17H101.5a.36.36,0,0,1-.28-.12.34.34,0,0,1-.12-.27s0,0,0,0H95.4s-.05,0-.05.06a.4.4,0,0,1-.13.31.41.41,0,0,1-.32.13h-1a.54.54,0,0,1-.4-.17.56.56,0,0,1-.17-.4v-4.82s0-.07-.06,0c-.74.32-1.4.59-2,.81a.64.64,0,0,1-.47,0,.74.74,0,0,1-.38-.3c-.18-.25-.35-.49-.52-.71a.36.36,0,0,1-.1-.25.38.38,0,0,1,0-.1.33.33,0,0,1,.25-.26,29.91,29.91,0,0,0,5.62-2.56v0s0,0,0,0h-5a.65.65,0,0,1-.42-.16.57.57,0,0,1-.17-.41v-.61a.58.58,0,0,1,.17-.4.61.61,0,0,1,.42-.17h4.7c.06,0,.09,0,.09-.08v-1.37c0-.05,0-.07-.09-.07H92.14a.55.55,0,0,1-.42-.17.57.57,0,0,1-.17-.42v-.55a.61.61,0,0,1,.17-.42.59.59,0,0,1,.42-.17H95.4q.09,0,.09-.06v-1.16a.52.52,0,0,1,.17-.41.54.54,0,0,1,.4-.16h.81a.57.57,0,0,1,.42.16.55.55,0,0,1,.17.41v1.16s0,.06.07.06h3a.58.58,0,0,1,.59.59v.16a0,0,0,0,0,0,0h0a20.14,20.14,0,0,0,1.33-1.6.64.64,0,0,1,.39-.25.67.67,0,0,1,.46,0l.67.35a.43.43,0,0,1,.26.31.44.44,0,0,1-.08.4,25.26,25.26,0,0,1-2.9,3.17v0h3.25a.57.57,0,0,1,.41.17.54.54,0,0,1,.17.4Zm-4.06,4.6a.05.05,0,0,0,.06-.06v-.93s0-.07-.06-.07H95.42a.06.06,0,0,0-.07.07v.93s0,.06.07.06Zm-5.69,2.58a.06.06,0,0,0,.07.07H101s.06,0,.06-.07v-1c0-.06,0-.08-.06-.08H95.42s-.07,0-.07.08Zm2.18-9.88s-.07,0-.07.07v1.37s0,.08.07.08h.78a.18.18,0,0,0,.13,0c.62-.48,1.18-1,1.68-1.42,0,0,0,0,0,0l0,0Z"/><path d="M121.16,232.83a.55.55,0,0,1,.54.58v.17c-.16,1.64-.31,2.84-.47,3.62a3.21,3.21,0,0,1-.63,1.56,1.86,1.86,0,0,1-1.26.62,9,9,0,0,1-1.14.05h-.26a.59.59,0,0,1-.42-.17.82.82,0,0,1-.25-.42,3.13,3.13,0,0,0-.2-.68.31.31,0,0,1,.05-.32.29.29,0,0,1,.28-.14c.3,0,.64,0,1,0a.78.78,0,0,0,.55-.19,6.64,6.64,0,0,0,.67-2.94s0-.07-.06-.07h-9.8a.17.17,0,0,0-.13.05l-.74.49s0,0,0,0,0,0,0,0l.92.29a.59.59,0,0,1,.35.29.55.55,0,0,1,.05.45,7,7,0,0,1-1.4,2.81.62.62,0,0,1-.42.22.78.78,0,0,1-.48-.12l-.59-.36a.46.46,0,0,1-.19-.35.47.47,0,0,1,.13-.37,6.17,6.17,0,0,0,1.37-2.7l0,0h0a7.05,7.05,0,0,1-.65.38.56.56,0,0,1-.44,0,.59.59,0,0,1-.35-.29c-.14-.25-.28-.49-.44-.73a.57.57,0,0,1-.08-.28.59.59,0,0,1,0-.13.46.46,0,0,1,.26-.33,15.07,15.07,0,0,0,5.83-5.42s0-.07,0-.07H108a.53.53,0,0,1-.41-.17.51.51,0,0,1-.17-.4v-.58a.54.54,0,0,1,.17-.41.57.57,0,0,1,.41-.17h2.16s.06,0,0-.06a15.88,15.88,0,0,0-.75-1.57.49.49,0,0,1,0-.41.46.46,0,0,1,.29-.29l.64-.25a.69.69,0,0,1,.47,0,.62.62,0,0,1,.37.28,11.91,11.91,0,0,1,.77,1.43.49.49,0,0,1,0,.44.56.56,0,0,1-.32.32l-.23.1s0,0,0,0h2.28a.1.1,0,0,0,.1-.06,17.74,17.74,0,0,0,1-2.26.61.61,0,0,1,.29-.34.67.67,0,0,1,.28-.06h.16l.89.25a.5.5,0,0,1,.32.27.46.46,0,0,1,0,.43c-.22.58-.46,1.14-.72,1.7,0,0,0,.06,0,.06h2.63a.48.48,0,0,1,.37.17.53.53,0,0,1,.1.41c-.13.69-.3,1.5-.52,2.41,0,0,0,.07.06.07H120a.46.46,0,0,1,.38.17.44.44,0,0,1,.1.4c-.19,1-.34,1.86-.48,2.43,0,.06,0,.08.07.08Zm-10,3.5a.53.53,0,0,1,.09-.42.49.49,0,0,1,.35-.22l.46-.05a.69.69,0,0,1,.47.11.59.59,0,0,1,.25.38,10.5,10.5,0,0,1,.29,1.93.54.54,0,0,1-.14.44.65.65,0,0,1-.41.21l-.57.08a.4.4,0,0,1-.39-.12.55.55,0,0,1-.18-.38A11.31,11.31,0,0,0,111.11,236.33Zm7.32-4.79s0-.06-.07-.06h-5.27a.15.15,0,0,0-.13.05,16.74,16.74,0,0,1-1.14,1.24s0,0,0,0,0,0,0,0h6.24a.1.1,0,0,0,.1-.08C118.23,232.46,118.32,232.06,118.43,231.54Zm-4.72,4.61a.52.52,0,0,1,0-.42.51.51,0,0,1,.35-.25l.4-.08a.62.62,0,0,1,.48,0,.68.68,0,0,1,.31.36,14.42,14.42,0,0,1,.47,1.6.55.55,0,0,1-.07.45.65.65,0,0,1-.37.26l-.47.12a.54.54,0,0,1-.41-.07.58.58,0,0,1-.25-.36A12.18,12.18,0,0,0,113.71,236.15Zm3.41-7.64c0-.06,0-.09-.05-.09h-1.89a.12.12,0,0,0-.11.07c-.22.38-.47.78-.74,1.19,0,0,0,.07,0,.07h2.42a.09.09,0,0,0,.1-.07Q117,229.08,117.12,228.51Zm1.11,7.93a.42.42,0,0,1,0,.22.46.46,0,0,1-.06.22.56.56,0,0,1-.34.3l-.38.14a.55.55,0,0,1-.18,0,.79.79,0,0,1-.25-.05.58.58,0,0,1-.29-.34c-.14-.38-.32-.78-.52-1.19a.43.43,0,0,1-.07-.23.39.39,0,0,1,0-.18.43.43,0,0,1,.29-.28l.28-.1a.59.59,0,0,1,.23-.05.64.64,0,0,1,.24.05.76.76,0,0,1,.38.3A9,9,0,0,1,118.23,236.44Z"/><path d="M127.23,224.59a.71.71,0,0,1,.59-.4.71.71,0,0,1,.2,0l.86.29a.5.5,0,0,1,.31.7,27.56,27.56,0,0,1-1.45,2.8.21.21,0,0,0,0,.13v10.69a.6.6,0,0,1-.57.58h-.83a.54.54,0,0,1-.42-.18.51.51,0,0,1-.17-.4V231s0,0,0,0h0a16.48,16.48,0,0,1-1.19,1.32.36.36,0,0,1-.35.11.44.44,0,0,1-.31-.24c-.2-.4-.4-.77-.59-1.09a.66.66,0,0,1-.11-.36.36.36,0,0,1,0-.1.65.65,0,0,1,.21-.41,16.22,16.22,0,0,0,2.17-2.54A17.71,17.71,0,0,0,127.23,224.59Zm6.39,12.8h2.45a.74.74,0,0,0,.74-.46,6.31,6.31,0,0,0,.3-1.89.29.29,0,0,1,.17-.27.34.34,0,0,1,.35,0,6,6,0,0,0,.81.37.83.83,0,0,1,.37.3.64.64,0,0,1,.11.37,4.39,4.39,0,0,1-.76,2.7,2.25,2.25,0,0,1-1.91.73h-2.86a2.83,2.83,0,0,1-2.14-.63,3.7,3.7,0,0,1-.57-2.41V224.85a.59.59,0,0,1,.17-.42.57.57,0,0,1,.42-.17h.85a.54.54,0,0,1,.4.17.59.59,0,0,1,.17.42v5.06q0,.09.06,0a26.36,26.36,0,0,0,3.71-2.51.61.61,0,0,1,.43-.13.52.52,0,0,1,.39.19l.73.87a.48.48,0,0,1,.11.41.5.5,0,0,1-.22.36,40.55,40.55,0,0,1-5.15,2.85.13.13,0,0,0-.06.12v4.13a1.79,1.79,0,0,0,.16,1C133,237.32,133.21,237.39,133.62,237.39Z"/><path d="M153.82,231.92a.61.61,0,0,1,.42.17.59.59,0,0,1,.17.42v6.37a.58.58,0,0,1-.17.4.61.61,0,0,1-.42.17h-.92a.53.53,0,0,1-.4-.17.58.58,0,0,1-.17-.4v0c0-.05,0-.08-.08-.08h-5.52a.07.07,0,0,0-.08.08.59.59,0,0,1-.16.4.57.57,0,0,1-.41.17h-.83a.55.55,0,0,1-.41-.17.56.56,0,0,1-.17-.4v-4.1s0-.06-.06,0a22,22,0,0,1-3.09,1.4.61.61,0,0,1-.46,0,.73.73,0,0,1-.34-.31c-.17-.3-.35-.57-.52-.82a.39.39,0,0,1-.08-.25.45.45,0,0,1,0-.11.32.32,0,0,1,.25-.24,19.26,19.26,0,0,0,5.22-2.68c.05,0,.05-.07,0-.1a22.28,22.28,0,0,0-2.45-2.22.11.11,0,0,0-.11,0c-.41.31-.84.62-1.31.93a.55.55,0,0,1-.45.07.68.68,0,0,1-.38-.23,4.89,4.89,0,0,0-.64-.71.39.39,0,0,1-.12-.36.37.37,0,0,1,.2-.31,14.35,14.35,0,0,0,2.79-2.1,12.72,12.72,0,0,0,2-2.44.85.85,0,0,1,.38-.32.67.67,0,0,1,.33-.08H146l1.11.21a.38.38,0,0,1,.3.23.4.4,0,0,1,0,.38c-.14.23-.3.47-.48.73,0,0,0,.07,0,.07h3.69l.06,0,.23,0a.64.64,0,0,1,.35.1l.58.29a.64.64,0,0,1,.31.36.61.61,0,0,1,0,.46,15.34,15.34,0,0,1-3.61,5.24s0,0,0,0,0,0,0,0Zm-4.26-4.65s0-.05,0-.05h-4a.13.13,0,0,0-.12.05c-.3.31-.54.56-.72.73s0,.08,0,.1a21.08,21.08,0,0,1,2.55,2.12.07.07,0,0,0,.1,0A12.92,12.92,0,0,0,149.56,227.27Zm-2.91,9.65a.07.07,0,0,0,.08.08h5.52c.06,0,.08,0,.08-.08V233.8c0-.05,0-.07-.08-.07h-5.52s-.08,0-.08.07Z"/><path d="M157.28,224.75a.4.4,0,0,1-.11-.28.38.38,0,0,1,0-.1.43.43,0,0,1,.25-.29l.52-.23a.8.8,0,0,1,.33-.08l.16,0a.77.77,0,0,1,.44.24,11.33,11.33,0,0,1,2.11,3.36,11.17,11.17,0,0,1,.78,4.25,10.85,10.85,0,0,1-2.89,7.61.85.85,0,0,1-.44.25h-.16a.67.67,0,0,1-.33-.08l-.52-.23a.45.45,0,0,1-.25-.29.34.34,0,0,1,0-.1.37.37,0,0,1,.11-.28,10.43,10.43,0,0,0,0-13.78Z"/></g></g></svg>