<svg xmlns="http://www.w3.org/2000/svg" viewBox="0 0 149.81 202.31"><defs><style>.cls-1{fill:#fff;}.cls-2{fill:#f0f;}.cls-3{fill:#754c24;}.cls-4{fill:#666;}.cls-5{fill:#603813;}.cls-6{fill:#ff8358;}.cls-7{fill:#ccc;}.cls-8{fill:#009245;}.cls-9{fill:#e85e38;}</style></defs><g id="圖層_2" data-name="圖層 2"><g id="圖層_1-2" data-name="圖層 1"><rect x="74.58" y="18.06" width="75.23" height="75.23" rx="16.08"/><path class="cls-1" d="M141.55,31.49H84.49A.5.5,0,0,1,84,31a.5.5,0,0,1,.5-.5h57.06a.5.5,0,0,1,.5.5A.5.5,0,0,1,141.55,31.49Z"/><path class="cls-1" d="M141.55,37.05H84.49a.5.5,0,0,1-.5-.5.5.5,0,0,1,.5-.5h57.06a.5.5,0,0,1,.5.5A.5.5,0,0,1,141.55,37.05Z"/><path class="cls-1" d="M141.55,42.61H84.49a.5.5,0,0,1-.5-.5.5.5,0,0,1,.5-.5h57.06a.5.5,0,0,1,.5.5A.5.5,0,0,1,141.55,42.61Z"/><path class="cls-1" d="M141.55,48.17H84.49a.5.5,0,0,1-.5-.5.5.5,0,0,1,.5-.5h57.06a.5.5,0,0,1,.5.5A.5.5,0,0,1,141.55,48.17Z"/><path class="cls-1" d="M141.55,53.73H84.49a.5.5,0,0,1-.5-.5.5.5,0,0,1,.5-.5h57.06a.5.5,0,0,1,.5.5A.5.5,0,0,1,141.55,53.73Z"/><path class="cls-1" d="M141.55,59.28H84.49a.5.5,0,0,1-.5-.5.5.5,0,0,1,.5-.5h57.06a.5.5,0,0,1,.5.5A.5.5,0,0,1,141.55,59.28Z"/><path class="cls-1" d="M141.55,64.84H84.49a.5.5,0,0,1-.5-.5.5.5,0,0,1,.5-.5h57.06a.5.5,0,0,1,.5.5A.5.5,0,0,1,141.55,64.84Z"/><path class="cls-1" d="M141.55,70.4H84.49a.5.5,0,0,1-.5-.5.5.5,0,0,1,.5-.5h57.06a.5.5,0,0,1,.5.5A.5.5,0,0,1,141.55,70.4Z"/><path class="cls-1" d="M141.55,76H84.49a.5.5,0,0,1-.5-.5.5.5,0,0,1,.5-.5h57.06a.5.5,0,0,1,.5.5A.5.5,0,0,1,141.55,76Z"/><ellipse class="cls-2" cx="68.48" cy="119.84" rx="32.85" ry="11.14"/><rect class="cls-3" x="48.45" y="99.92" width="30.06" height="8.76" rx="4.38" transform="translate(-58.31 95.72) rotate(-54.65)"/><path class="cls-4" d="M64.19,125.31c1.14-1.07-1.35-5-3-7.32-.57-.77-1-1.37-1.28-1.63A11.27,11.27,0,0,0,56,113.12l.34.67-.35-.68h0l-.06-.09s0,0,0,.08h0l-.21-.08a4.13,4.13,0,0,0-4,.59,2.9,2.9,0,0,0-.95,2.33,3.81,3.81,0,0,0,.32,1.37,8.85,8.85,0,0,0,3.47,3.5l5.48,3.77a6,6,0,0,0,2.92,1.1A1.65,1.65,0,0,0,64.19,125.31Z"/><rect class="cls-3" x="54.51" y="74.78" width="33.62" height="9.79" rx="4.9" transform="translate(-10.48 148.55) rotate(-88.26)"/><rect class="cls-5" x="68.83" y="93.99" width="8.76" height="30.06" rx="4.38" transform="translate(-32.97 31.75) rotate(-20.08)"/><path class="cls-4" d="M85.59,112.2c-1.16-1-4.84,1.79-7,3.7-.72.63-1.27,1.16-1.51,1.42a11.46,11.46,0,0,0-2.88,4.18l.64-.4-.64.42h0v0l-.09.07.08,0h0l-.06.22a4.14,4.14,0,0,0,.94,3.88,2.9,2.9,0,0,0,2.41.74,3.78,3.78,0,0,0,1.34-.44A9,9,0,0,0,82,122.16q1.62-2.91,3.26-5.8a5.91,5.91,0,0,0,.83-3A1.61,1.61,0,0,0,85.59,112.2Z"/><rect class="cls-5" x="59.38" y="65.1" width="9.79" height="33.62" rx="4.9" transform="translate(-21.56 22.98) rotate(-17.41)"/><circle class="cls-6" cx="94.91" cy="64.26" r="3.95"/><rect class="cls-6" x="85.86" y="44.1" width="5.36" height="21.89" rx="2.68" transform="translate(-15.57 60.49) rotate(-34.86)"/><rect class="cls-7" x="77.47" y="30.7" width="8.76" height="25.97" rx="4.38" transform="translate(-10.47 34.46) rotate(-22.39)"/><rect class="cls-8" x="74.77" y="24.16" width="8.76" height="25.97" rx="4.38" transform="translate(-8.18 32.94) rotate(-22.39)"/><path class="cls-8" d="M64.38,22.59a44,44,0,0,0-8.73,3.34s-2,12.62-2.16,16.2,0,9.07,0,12.51-.69,13.8-1.37,14.89c0,0,21,1.73,26.81-5,0,0-.46-15-.49-19.37s.28-19.8-.48-20.39a15.9,15.9,0,0,0-7.23-2.53A24.79,24.79,0,0,0,64.38,22.59Z"/><path class="cls-5" d="M74,22.93s-8,24-12.46,29.27l1,.9A147.45,147.45,0,0,0,75,23.29Z"/><rect class="cls-5" x="50.61" y="44.53" width="13.14" height="15.97" rx="6.57" transform="matrix(0.31, -0.95, 0.95, 0.31, -10.54, 90.47)"/><circle class="cls-6" cx="39.24" cy="64.27" r="3.95"/><rect class="cls-6" x="32.71" y="52.36" width="21.89" height="5.36" rx="2.68" transform="translate(-24.78 70.9) rotate(-64.63)"/><rect class="cls-7" x="36.34" y="39.24" width="25.97" height="8.76" rx="4.38" transform="translate(-13.72 62.61) rotate(-58.26)"/><rect class="cls-8" x="40.05" y="33.34" width="25.97" height="8.76" rx="4.38" transform="translate(-6.94 62.98) rotate(-58.26)"/><path class="cls-9" d="M63.49,17.39v6.27s3.7,4.75,6.91,0V17.9Z"/><path d="M72.31,2.49s-2.92-5-9.28-.86-5.1,16.62,1.32,17,12.51-4.93,12.51-4.93a8.66,8.66,0,0,0,.78-7.25C76.26,2.32,74.72,2,72.31,2.49Z"/><path class="cls-6" d="M76.34,7c.41-.63,1.41,10.57-1.27,13.13S67,24,64.35,18.62a17.49,17.49,0,0,0,.4-2.85,3.08,3.08,0,0,1-2.36-1.71c-.64-1.52.43-2.22.75-2.21s1.54-.16,2,1.68c0,0,1.45-2,1.3-3.09l1-.61S74.53,9.77,76.34,7Z"/><ellipse cx="71.02" cy="13.06" rx="0.52" ry="1.37"/><ellipse cx="74.46" cy="13.06" rx="0.52" ry="1.37"/><path d="M70.94,15.26H69.62A1.58,1.58,0,0,1,68,13.68v-.9a1.58,1.58,0,0,1,1.58-1.58h1.32a1.58,1.58,0,0,1,1.58,1.58v.9A1.58,1.58,0,0,1,70.94,15.26Zm-1.32-3.81a1.34,1.34,0,0,0-1.33,1.33v.9A1.34,1.34,0,0,0,69.62,15h1.32a1.34,1.34,0,0,0,1.33-1.33v-.9a1.34,1.34,0,0,0-1.33-1.33Z"/><path d="M75.17,15.13H73.85a1.58,1.58,0,0,1-1.58-1.58v-.9a1.58,1.58,0,0,1,1.58-1.58h1.32a1.59,1.59,0,0,1,1.59,1.58v.9A1.59,1.59,0,0,1,75.17,15.13Zm-1.32-3.81a1.34,1.34,0,0,0-1.33,1.33v.9a1.34,1.34,0,0,0,1.33,1.33h1.32a1.33,1.33,0,0,0,1.33-1.33v-.9a1.33,1.33,0,0,0-1.33-1.33Z"/><path d="M68.16,13.36h0L65.32,13a.12.12,0,0,1-.11-.14.13.13,0,0,1,.15-.11l2.82.4a.13.13,0,0,1,.11.15A.13.13,0,0,1,68.16,13.36Z"/><rect x="44.31" y="146.34" width="48.33" height="26.63"/><path d="M3.37,165.78a.4.4,0,0,1,.08-.32.36.36,0,0,1,.28-.15l.76-.09a.82.82,0,0,1,.61.15.79.79,0,0,1,.31.54,21,21,0,0,1,.27,2.47.91.91,0,0,1-.21.6.79.79,0,0,1-.57.28l-.5.07a.66.66,0,0,1-.55-.17.67.67,0,0,1-.23-.53q0-1-.18-2.4h0a10.27,10.27,0,0,1-1.14,3.43.73.73,0,0,1-.51.37.85.85,0,0,1-.66-.1l-.72-.36a.63.63,0,0,1-.34-.45,1.1,1.1,0,0,1,0-.18.76.76,0,0,1,.11-.38,8.36,8.36,0,0,0,1-2.58.8.8,0,0,1,.36-.48.63.63,0,0,1,.56-.08l1.3.4h0A0,0,0,0,0,3.37,165.78ZM21.7,155.36a.81.81,0,0,1-.23.57.72.72,0,0,1-.56.23H17.59a.08.08,0,0,0-.09.09v2.92q0,.12.09.12h2.58a.81.81,0,0,1,.57.23.75.75,0,0,1,.24.55v9.32a.74.74,0,0,1-.24.55.78.78,0,0,1-.57.24H18.42A.61.61,0,0,1,18,170a.58.58,0,0,1-.18-.43c0-.06,0-.09-.07-.09H14.46c-.05,0-.08,0-.08.09a.67.67,0,0,1-.21.5.68.68,0,0,1-.49.2H12.15a.74.74,0,0,1-.56-.24.75.75,0,0,1-.22-.55v-1.19q0-.1-.12-.06l-1,.42a.66.66,0,0,1-.58,0,.71.71,0,0,1-.39-.44,16.47,16.47,0,0,0-.94-2.33.64.64,0,0,1,0-.57.66.66,0,0,1,.4-.4l1.08-.38v-.05c-3.87.18-6.75.31-8.67.38a.7.7,0,0,1-.56-.2.7.7,0,0,1-.25-.56l-.05-1.19a.8.8,0,0,1,.23-.56.69.69,0,0,1,.54-.25l3.14,0q.09,0,.09-.12v-.51a.08.08,0,0,0-.09-.09H1.62a.73.73,0,0,1-.56-.24.79.79,0,0,1-.23-.57v-.88a.81.81,0,0,1,.23-.57.73.73,0,0,1,.56-.24H4.13c.06,0,.09,0,.09-.08v-.48a.08.08,0,0,0-.09-.09H1.48a.81.81,0,0,1-.57-.23.78.78,0,0,1-.24-.58v-7.47a.78.78,0,0,1,.24-.58.81.81,0,0,1,.57-.23h8.58a.76.76,0,0,1,.55.23.78.78,0,0,1,.24.58v7.47a.78.78,0,0,1-.24.58.76.76,0,0,1-.55.23H7.25c-.07,0-.11,0-.11.09v.48c0,.06,0,.08.11.08H9.86a.76.76,0,0,1,.57.24.78.78,0,0,1,.24.57v.88a.82.82,0,0,1-.81.81H7.25c-.07,0-.11,0-.11.09v.42c0,.08,0,.11.11.09l3-.06a.7.7,0,0,1,.56.2.72.72,0,0,1,.21.56l0,1a.78.78,0,0,1-.24.57.84.84,0,0,1-.57.26l-.2,0c-.08,0-.1,0-.07.09a13.67,13.67,0,0,1,1.39,2.86h0v-7.33a.77.77,0,0,1,.78-.78h2c.08,0,.11,0,.11-.12v-9.9a.79.79,0,0,1,.79-.79h1.64a.81.81,0,0,1,.57.23.73.73,0,0,1,.24.56V153c0,.06,0,.08.09.08h3.32a.73.73,0,0,1,.56.24.81.81,0,0,1,.23.57Zm-17-4c0-.08,0-.11-.12-.11H3.21c-.06,0-.09,0-.09.11V152q0,.09.09.06l.18-.06a.81.81,0,0,1,.61.06.79.79,0,0,1,.38.48c.12.43.22.84.31,1.23h0Zm-1.58,1.82s0,0,0,0a0,0,0,0,0,0,0v2.69a.08.08,0,0,0,.09.09H4.6q.12,0,.12-.09v-.76c0-.08,0-.1-.12-.07l-.35.11a.54.54,0,0,1-.54-.05.67.67,0,0,1-.3-.49C3.35,154.21,3.26,153.73,3.14,153.18Zm2.74,12.87a.76.76,0,0,1,.08-.59.67.67,0,0,1,.49-.31l.36-.07a.84.84,0,0,1,.62.11.85.85,0,0,1,.39.52A17.52,17.52,0,0,1,8.38,168a.77.77,0,0,1-.13.6.79.79,0,0,1-.52.35l-.48.09a.66.66,0,0,1-.56-.13.74.74,0,0,1-.29-.5A23.53,23.53,0,0,0,5.88,166.05Zm2.32-14c.06,0,.09,0,.09-.07v-.65c0-.08,0-.11-.09-.11H6.76c-.06,0-.09,0-.09.11V154s0,0,0,0c.15-.51.29-1,.41-1.48a.65.65,0,0,1,.35-.47A.67.67,0,0,1,8,152Zm-1.53,3.79a.08.08,0,0,0,.09.09H8.2a.08.08,0,0,0,.09-.09v-2.13s0,0,0,0a9.34,9.34,0,0,0-.39.92.78.78,0,0,1-.43.44.94.94,0,0,1-.64,0l0,0q-.09,0-.09.06Zm11,10.6a.08.08,0,0,0,.09-.09v-4a.08.08,0,0,0-.09-.09H14.46c-.05,0-.08,0-.08.09v4c0,.06,0,.09.08.09Z"/><path d="M27.22,158.48c.06,0,.09,0,.09-.11v-1a.08.08,0,0,0-.09-.09H24a.76.76,0,0,1-.54-1.31.77.77,0,0,1,.54-.22h3.25a.08.08,0,0,0,.09-.09v-.27a.08.08,0,0,0-.09-.09H24.91a.8.8,0,0,1-.79-.81v-2.27a.74.74,0,0,1,.24-.56.77.77,0,0,1,.55-.22h2.31c.06,0,.09,0,.09-.11v-.23c0-.07,0-.11-.09-.11H24.37a.78.78,0,0,1-.55-.23.72.72,0,0,1-.24-.55.74.74,0,0,1,.24-.55.77.77,0,0,1,.55-.22h2.85c.06,0,.09,0,.09-.11v-.07a.73.73,0,0,1,.24-.56.81.81,0,0,1,.57-.23H29a.81.81,0,0,1,.57.23.73.73,0,0,1,.24.56v.07c0,.07,0,.11.09.11h3a.75.75,0,0,1,.56.22.76.76,0,0,1,.23.55A.79.79,0,0,1,33,151h-3c-.06,0-.09,0-.09.11v.23c0,.07,0,.11.09.11h2.54a.75.75,0,0,1,.78.78v2.27a.81.81,0,0,1-.22.58.77.77,0,0,1-.56.23H29.92a.08.08,0,0,0-.09.09v.27a.08.08,0,0,0,.09.09H33a.77.77,0,0,1,.54.22.77.77,0,0,1,0,1.08.74.74,0,0,1-.54.23h-3.1a.08.08,0,0,0-.09.09v1c0,.07,0,.11.09.11h.65a.1.1,0,0,0,.11-.11v-.16a.82.82,0,0,1,.79-.79h.74a.82.82,0,0,1,.79.79v1a.8.8,0,0,1-.79.81H25.09a.78.78,0,0,1-.57-.23.78.78,0,0,1-.24-.58v-1a.82.82,0,0,1,.81-.79h.61a.74.74,0,0,1,.56.24.77.77,0,0,1,.22.55v.16a.1.1,0,0,0,.11.11Zm8.36,6.13c-.06,0-.09,0-.09.11V165c0,.08,0,.11.09.11h7.86a.78.78,0,0,1,.57.24.75.75,0,0,1,.24.55v.49a.74.74,0,0,1-.24.55.78.78,0,0,1-.57.24H35.58c-.06,0-.09,0-.09.11v.27a3.19,3.19,0,0,1-.31,1.59,1.88,1.88,0,0,1-1.08.79,10.86,10.86,0,0,1-3.28.36,1,1,0,0,1-.62-.21,1.27,1.27,0,0,1-.42-.55c-.12-.32-.25-.65-.4-1a.41.41,0,0,1,0-.46.46.46,0,0,1,.39-.21l1.13,0,.76,0a.6.6,0,0,0,.38-.09.38.38,0,0,0,.11-.32v-.18c0-.07,0-.11-.09-.11H24.24a.78.78,0,0,1-.58-.24.73.73,0,0,1-.23-.55v-.49a.74.74,0,0,1,.23-.55.78.78,0,0,1,.58-.24h7.83c.06,0,.09,0,.09-.11v-.27c0-.07,0-.11-.09-.11H25.79a.79.79,0,0,1-.79-.79v-.36a.78.78,0,0,1,.24-.57.73.73,0,0,1,.55-.23h6.28a.08.08,0,0,0,.09-.09v-.25a.08.08,0,0,0-.09-.09l-3,0h-2.2a1,1,0,0,1-.62-.25,1.1,1.1,0,0,1-.35-.56.68.68,0,0,0-.07-.2.59.59,0,0,1,.08-.53.55.55,0,0,1,.46-.23h1c4.52,0,8.19-.15,11-.43l.22,0a1.68,1.68,0,0,1,1.17.45l.65.56a.33.33,0,0,1,.11.38.33.33,0,0,1-.31.25c-1.27.16-2.82.3-4.65.4-.06,0-.09.05-.09.11v.39a.08.08,0,0,0,.09.09H42a.74.74,0,0,1,.57.23.8.8,0,0,1,.22.57v.36a.75.75,0,0,1-.79.79Zm-9.23-12.15q-.12,0-.12.09v.22q0,.09.12.09h.87a.08.08,0,0,0,.09-.09v-.22a.08.08,0,0,0-.09-.09Zm-.12,1.73c0,.07,0,.11.12.11h.87c.06,0,.09,0,.09-.11V154c0-.07,0-.11-.09-.11h-.87c-.08,0-.12,0-.12.11ZM31,152.55a.08.08,0,0,0-.09-.09h-1a.08.08,0,0,0-.09.09v.22a.08.08,0,0,0,.09.09h1a.08.08,0,0,0,.09-.09ZM31,154.3c.06,0,.09,0,.09-.11V154c0-.07,0-.11-.09-.11h-1c-.06,0-.09,0-.09.11v.23c0,.07,0,.11.09.11Zm10.22-.25a6.29,6.29,0,0,1,1.53.16.73.73,0,0,1,.46.36.59.59,0,0,1,0,.56,7.55,7.55,0,0,1-2.09,2.79s0,0,0,0a.07.07,0,0,0,0,.06,19.8,19.8,0,0,0,2.92.65.42.42,0,0,1,.34.27.39.39,0,0,1-.07.42,9.71,9.71,0,0,0-.72,1,1.1,1.1,0,0,1-.53.45.88.88,0,0,1-.45.11.82.82,0,0,1-.21,0,13.31,13.31,0,0,1-4-1.41.29.29,0,0,0-.18,0,14.17,14.17,0,0,1-2.77.7.83.83,0,0,1-.63-.11,1.19,1.19,0,0,1-.44-.5c-.11-.24-.22-.47-.34-.69a.49.49,0,0,1,0-.47.39.39,0,0,1,.37-.27c.61-.09,1.15-.19,1.61-.3.06,0,.07,0,0-.09l-.51-.56a.49.49,0,0,1-.09-.49.54.54,0,0,1,.36-.36l.6-.18s0,0,0,0a0,0,0,0,0,0,0H34.93a.81.81,0,0,1-.58-.22.77.77,0,0,1-.23-.56v-.43a.81.81,0,0,1,.23-.57.78.78,0,0,1,.58-.24s0,0,0,0,0,0,0,0c-.28-.27-.58-.54-.88-.81a.51.51,0,0,1-.2-.41.55.55,0,0,1,.25-.47,2,2,0,0,0,.76-.85,2.8,2.8,0,0,0,.18-1v-.56a.78.78,0,0,1,.24-.57.76.76,0,0,1,.57-.24h5.26a.74.74,0,0,1,.56.24.8.8,0,0,1,.22.57v1a4.34,4.34,0,0,0,0,.48.18.18,0,0,0,.09.18l.09,0h.21a.37.37,0,0,0,.15,0c.08,0,.13-.12.16-.29a.6.6,0,0,0,0-.16.45.45,0,0,1,.69-.33l.54.27a1.1,1.1,0,0,1,.52.45.88.88,0,0,1,.13.47,1.1,1.1,0,0,1,0,.18,2.8,2.8,0,0,1-.22.83,1.66,1.66,0,0,1-.81.72,2.64,2.64,0,0,1-1.15.2h-1a2.1,2.1,0,0,1-1.62-.59,1.72,1.72,0,0,1-.39-.7,4.4,4.4,0,0,1-.15-1.2c0-.08,0-.12-.11-.12H37.85a.11.11,0,0,0-.12.12A4,4,0,0,1,36.45,154a.06.06,0,0,0,0,0s0,0,0,0Zm-1.5,2.11a.07.07,0,0,0,0,0s0,0,0,0H37.76a.07.07,0,0,0-.06,0,0,0,0,0,0,0,0,5.45,5.45,0,0,0,.83.66.19.19,0,0,0,.18,0A6.58,6.58,0,0,0,39.67,156.16Z"/><path class="cls-2" d="M50,164.36a.79.79,0,0,1-.57-.23.75.75,0,0,1-.24-.55v-5.82s0,0,0,0h0a2.17,2.17,0,0,1-.26.27.8.8,0,0,1-.58.22.78.78,0,0,1-.55-.26c-.57-.55-1.14-1.07-1.71-1.55a.64.64,0,0,1,0-1,17.26,17.26,0,0,0,2.72-2.85,19.87,19.87,0,0,0,2.16-3.48.83.83,0,0,1,.45-.45.8.8,0,0,1,.36-.09.86.86,0,0,1,.27,0l2.06.62a.64.64,0,0,1,.44.39.66.66,0,0,1,0,.58c-.12.24-.26.51-.43.81,0,.06,0,.09.07.09h2.54a.16.16,0,0,0,.15-.09,16.59,16.59,0,0,0,.86-1.8.88.88,0,0,1,1.05-.56l2.29.52a.54.54,0,0,1,.39.33.64.64,0,0,1,0,.54c-.24.38-.45.7-.63,1,0,.06,0,.09.05.09h4.85a.8.8,0,0,1,.79.81V153a.82.82,0,0,1-.79.79h-5.7c-.08,0-.12,0-.12.11v.69q0,.09.12.09h4.51a.75.75,0,0,1,.57.24.78.78,0,0,1,.24.57v.88A.78.78,0,0,1,65,157a.75.75,0,0,1-.57.24H59.93q-.12,0-.12.09V158c0,.07,0,.11.12.11h4.51a.78.78,0,0,1,.57.23.73.73,0,0,1,.24.56v.9a.75.75,0,0,1-.24.55.78.78,0,0,1-.57.23H59.93c-.08,0-.12,0-.12.11v.81q0,.09.12.09H66.3a.78.78,0,0,1,.58.24.81.81,0,0,1,.23.57v1.15a.78.78,0,0,1-.23.55.82.82,0,0,1-.58.23Zm-.43,5.39a.88.88,0,0,1-.58.36.7.7,0,0,1-.25,0,1,1,0,0,1-.42-.09l-1.76-.72a.55.55,0,0,1-.31-.41v-.11a.57.57,0,0,1,.13-.38,11.91,11.91,0,0,0,1.87-3.12.93.93,0,0,1,.43-.5.83.83,0,0,1,.62-.06l1.71.42a.68.68,0,0,1,.47.35.7.7,0,0,1,0,.6A13.87,13.87,0,0,1,49.59,169.75ZM56.4,154.7c.07,0,.11,0,.11-.09v-.69a.1.1,0,0,0-.11-.11H52.67c-.06,0-.09,0-.09.11v.69a.08.08,0,0,0,.09.09Zm0,3.44a.1.1,0,0,0,.11-.11v-.74c0-.06,0-.09-.11-.09H52.67a.08.08,0,0,0-.09.09V158c0,.07,0,.11.09.11Zm0,3.48c.07,0,.11,0,.11-.09v-.81a.1.1,0,0,0-.11-.11H52.67c-.06,0-.09,0-.09.11v.81a.08.08,0,0,0,.09.09Zm-3.53,4.65v-.11a.86.86,0,0,1,.16-.47.78.78,0,0,1,.52-.29l1.52-.18a.82.82,0,0,1,.61.15.92.92,0,0,1,.34.54c.19,1.05.33,2,.4,2.86a.8.8,0,0,1-.19.59,1,1,0,0,1-.55.33l-1.73.24a.68.68,0,0,1-.55-.15.77.77,0,0,1-.26-.54C53.1,168.26,53,167.28,52.87,166.27Zm4.63.07a1.68,1.68,0,0,1,0-.2.69.69,0,0,1,.09-.36.77.77,0,0,1,.47-.34l1.59-.25a.94.94,0,0,1,.64.1.92.92,0,0,1,.42.51,22.23,22.23,0,0,1,.85,2.85.66.66,0,0,1-.1.59.79.79,0,0,1-.53.33l-1.79.34a.71.71,0,0,1-.58-.12.75.75,0,0,1-.3-.51A27.47,27.47,0,0,0,57.5,166.34Zm4.69-.2a.57.57,0,0,1-.09-.32.59.59,0,0,1,0-.22.55.55,0,0,1,.38-.36l1.71-.52a.87.87,0,0,1,.31-.07,1.15,1.15,0,0,1,.36.07,1,1,0,0,1,.54.41,34.17,34.17,0,0,1,2,3.32.74.74,0,0,1,.07.32.82.82,0,0,1,0,.26.69.69,0,0,1-.43.39l-1.93.63a.84.84,0,0,1-.27,0,.92.92,0,0,1-.36-.07,1,1,0,0,1-.45-.47A29,29,0,0,0,62.19,166.14Z"/><path class="cls-2" d="M72.37,165.78a.4.4,0,0,1,.08-.32.36.36,0,0,1,.28-.15l.76-.09a.82.82,0,0,1,.61.15.79.79,0,0,1,.31.54,21,21,0,0,1,.27,2.47.91.91,0,0,1-.21.6.79.79,0,0,1-.57.28l-.5.07a.66.66,0,0,1-.55-.17.67.67,0,0,1-.23-.53q0-1-.18-2.4h0a10.27,10.27,0,0,1-1.14,3.43.73.73,0,0,1-.51.37.85.85,0,0,1-.66-.1l-.72-.36a.63.63,0,0,1-.34-.45,1.1,1.1,0,0,1,0-.18.76.76,0,0,1,.11-.38,8.36,8.36,0,0,0,1-2.58.8.8,0,0,1,.36-.48.63.63,0,0,1,.56-.08l1.3.4h0A0,0,0,0,0,72.37,165.78ZM90.7,155.36a.81.81,0,0,1-.23.57.72.72,0,0,1-.56.23H86.59a.08.08,0,0,0-.09.09v2.92q0,.12.09.12h2.58a.81.81,0,0,1,.57.23.75.75,0,0,1,.24.55v9.32a.74.74,0,0,1-.24.55.78.78,0,0,1-.57.24H87.42A.61.61,0,0,1,87,170a.58.58,0,0,1-.18-.43c0-.06,0-.09-.07-.09H83.46s-.08,0-.08.09a.67.67,0,0,1-.21.5.68.68,0,0,1-.49.2H81.15a.74.74,0,0,1-.56-.24.75.75,0,0,1-.22-.55v-1.19q0-.1-.12-.06l-1,.42a.66.66,0,0,1-.58,0,.71.71,0,0,1-.39-.44,16.47,16.47,0,0,0-.94-2.33.64.64,0,0,1,0-.57.66.66,0,0,1,.4-.4l1.08-.38v-.05c-3.87.18-6.75.31-8.67.38a.77.77,0,0,1-.81-.76l0-1.19a.8.8,0,0,1,.23-.56.69.69,0,0,1,.54-.25l3.14,0q.09,0,.09-.12v-.51a.08.08,0,0,0-.09-.09H70.62a.73.73,0,0,1-.56-.24.79.79,0,0,1-.23-.57v-.88a.81.81,0,0,1,.23-.57.73.73,0,0,1,.56-.24h2.51c.06,0,.09,0,.09-.08v-.48a.08.08,0,0,0-.09-.09H70.48a.81.81,0,0,1-.57-.23.78.78,0,0,1-.24-.58v-7.47a.78.78,0,0,1,.24-.58.81.81,0,0,1,.57-.23h8.58a.76.76,0,0,1,.55.23.78.78,0,0,1,.24.58v7.47a.78.78,0,0,1-.24.58.76.76,0,0,1-.55.23H76.25c-.07,0-.11,0-.11.09v.48c0,.06,0,.08.11.08h2.61a.76.76,0,0,1,.57.24.78.78,0,0,1,.24.57v.88a.82.82,0,0,1-.81.81H76.25c-.07,0-.11,0-.11.09v.42c0,.08,0,.11.11.09l3-.06a.7.7,0,0,1,.56.2.72.72,0,0,1,.21.56l0,1a.78.78,0,0,1-.24.57.84.84,0,0,1-.57.26l-.2,0c-.08,0-.1,0-.07.09a13.67,13.67,0,0,1,1.39,2.86h.05v-7.33a.77.77,0,0,1,.78-.78h2c.08,0,.11,0,.11-.12v-9.9a.79.79,0,0,1,.79-.79h1.64a.81.81,0,0,1,.57.23.73.73,0,0,1,.24.56V153c0,.06,0,.08.09.08h3.32a.73.73,0,0,1,.56.24.81.81,0,0,1,.23.57Zm-17-4c0-.08,0-.11-.12-.11H72.21c-.06,0-.09,0-.09.11V152q0,.09.09.06l.18-.06a.81.81,0,0,1,.61.06.79.79,0,0,1,.38.48c.12.43.22.84.31,1.23h0Zm-1.58,1.82s0,0,0,0a0,0,0,0,0,0,0v2.69a.08.08,0,0,0,.09.09H73.6q.12,0,.12-.09v-.76c0-.08,0-.1-.12-.07l-.35.11a.54.54,0,0,1-.54-.05.67.67,0,0,1-.3-.49C72.35,154.21,72.26,153.73,72.14,153.18Zm2.74,12.87a.76.76,0,0,1,.08-.59.67.67,0,0,1,.49-.31l.36-.07a.84.84,0,0,1,.62.11.85.85,0,0,1,.39.52,17.52,17.52,0,0,1,.56,2.31.77.77,0,0,1-.13.6.79.79,0,0,1-.52.35l-.48.09a.66.66,0,0,1-.56-.13.74.74,0,0,1-.29-.5A23.53,23.53,0,0,0,74.88,166.05Zm2.32-14c.06,0,.09,0,.09-.07v-.65c0-.08,0-.11-.09-.11H75.76c-.06,0-.09,0-.09.11V154s0,0,0,0c.15-.51.29-1,.41-1.48a.65.65,0,0,1,.35-.47A.67.67,0,0,1,77,152Zm-1.53,3.79a.08.08,0,0,0,.09.09H77.2a.08.08,0,0,0,.09-.09v-2.13s0,0,0,0a9.34,9.34,0,0,0-.39.92.78.78,0,0,1-.43.44.94.94,0,0,1-.64,0l0,0q-.09,0-.09.06Zm11,10.6a.08.08,0,0,0,.09-.09v-4a.08.08,0,0,0-.09-.09H83.46s-.08,0-.08.09v4c0,.06,0,.09.08.09Z"/><path d="M100.45,149.2a.88.88,0,0,1,.25-.57.78.78,0,0,1,.58-.24h2.24a.73.73,0,0,1,.56.24.78.78,0,0,1,.23.55c0,.22,0,.47,0,.74,0,.58.08,1.17.15,1.76s.2,1.36.39,2.29a25.73,25.73,0,0,0,.71,2.69,19.82,19.82,0,0,0,1.18,2.78,17.1,17.1,0,0,0,1.74,2.77,15.72,15.72,0,0,0,2.44,2.47,16,16,0,0,0,2.49,1.68.53.53,0,0,1,.09.86,9.24,9.24,0,0,0-1.53,1.68.93.93,0,0,1-.51.36.62.62,0,0,1-.23,0,.67.67,0,0,1-.38-.11,18,18,0,0,1-8.13-10.31l0,0s0,0,0,0a20.35,20.35,0,0,1-7.48,10.27.76.76,0,0,1-.44.13h-.14A1,1,0,0,1,94,169a9.1,9.1,0,0,0-1.71-1.6.55.55,0,0,1-.22-.45.52.52,0,0,1,.24-.45,14.65,14.65,0,0,0,1.78-1.32,18.21,18.21,0,0,0,2-1.92,13.52,13.52,0,0,0,1.49-2.11,23.26,23.26,0,0,0,1.1-2.15,15.66,15.66,0,0,0,.77-2.2c.23-.81.4-1.5.51-2.08s.21-1.24.28-2,.12-1.33.15-1.73,0-.91,0-1.51A1.24,1.24,0,0,0,100.45,149.2Z"/><path d="M128.25,151.78c0,.06,0,.09.07.09h7.59a.8.8,0,0,1,.56.23.76.76,0,0,1,.2.54c0,.16,0,.4,0,.69q-.28,7.8-.63,11.1a10.38,10.38,0,0,1-1,4.18,3.74,3.74,0,0,1-.86.9,3.39,3.39,0,0,1-1,.45,8.39,8.39,0,0,1-1.82.15.9.9,0,0,1-.6-.23,1,1,0,0,1-.32-.58,9.35,9.35,0,0,0-.47-1.75.5.5,0,0,1,.05-.46.43.43,0,0,1,.4-.19c.3,0,.66,0,1.1,0a1,1,0,0,0,.8-.47q.71-.94,1.08-8.94h0a35.88,35.88,0,0,1-2.45,6.67,17.69,17.69,0,0,1-3.48,5,.8.8,0,0,1-.57.22.91.91,0,0,1-.6-.22,11.51,11.51,0,0,0-1.41-1,.59.59,0,0,1-.25-.43.54.54,0,0,1,.18-.45,15.34,15.34,0,0,0,3.9-5.1,31.71,31.71,0,0,0,2.46-7.1c0-.07,0-.11-.09-.11h-.43c-.06,0-.1,0-.11.11a31.93,31.93,0,0,1-1.89,5.13,17.4,17.4,0,0,1-2.6,4.11.75.75,0,0,1-.57.24.87.87,0,0,1-.58-.2,12.7,12.7,0,0,0-1.26-.92.59.59,0,0,1-.28-.45.54.54,0,0,1,.19-.49,17.56,17.56,0,0,0,4.25-7.42c0-.07,0-.11-.07-.11h-.49a.13.13,0,0,0-.14.09,19.25,19.25,0,0,1-1.8,3.26.64.64,0,0,1-.5.3.7.7,0,0,1-.57-.19c-.39-.3-.8-.6-1.24-.9a.76.76,0,0,1-.3-.49.66.66,0,0,1,.14-.56l.32-.45c0-.06,0-.09,0-.09H122c-.06,0-.09,0-.09.11V159c0,.08,0,.1.09.07l1-.25a.74.74,0,0,1,.56.1.69.69,0,0,1,.32.49l.2,1.37a1,1,0,0,1-.14.63.93.93,0,0,1-.51.4c-.32.09-.78.23-1.39.43a.1.1,0,0,0-.09.11v7.19a.75.75,0,0,1-.24.55.81.81,0,0,1-.57.23h-1.46a.76.76,0,0,1-.55-.23.75.75,0,0,1-.24-.55v-6.29c0-.06,0-.08-.11-.07l-2.38.7a.75.75,0,0,1-.6-.08.77.77,0,0,1-.35-.49l-.4-1.63a.84.84,0,0,1,.1-.6.72.72,0,0,1,.48-.35c.77-.16,1.82-.42,3.15-.76a.16.16,0,0,0,.11-.14V156a.1.1,0,0,0-.11-.11h-1a.12.12,0,0,0-.13.11,18.77,18.77,0,0,1-.48,1.82.53.53,0,0,1-.38.36.59.59,0,0,1-.54-.09c-.31-.23-.64-.44-1-.65a1.08,1.08,0,0,1-.42-.5.92.92,0,0,1,0-.65,30.43,30.43,0,0,0,.87-5.77.76.76,0,0,1,.27-.52.63.63,0,0,1,.56-.13l1.19.18a.86.86,0,0,1,.55.33.76.76,0,0,1,.17.61l-.18,1.62c0,.07,0,.11.09.11h.43a.1.1,0,0,0,.11-.11v-3.39a.78.78,0,0,1,.24-.58.76.76,0,0,1,.55-.23h1.46a.81.81,0,0,1,.57.23.78.78,0,0,1,.24.58v3.39c0,.07,0,.11.09.11h.76a.76.76,0,0,1,.57.24.74.74,0,0,1,.24.55v1.66s0,0,0,0,0,0,0,0a21.32,21.32,0,0,0,2.18-6,.8.8,0,0,1,.35-.5.7.7,0,0,1,.59-.12l1.44.26a.81.81,0,0,1,.52.35.71.71,0,0,1,.09.6C128.62,150.45,128.45,151.11,128.25,151.78Z"/><path d="M19.77,181.34a.78.78,0,0,1,.55.23.82.82,0,0,1,.23.58v16.5a7.06,7.06,0,0,1-.2,1.86,2.21,2.21,0,0,1-.76,1.11,4.2,4.2,0,0,1-2.21.63l-.06,0a.81.81,0,0,1-.54-.22,1,1,0,0,1-.32-.57c0-.28-.09-.56-.15-.83,0,0,0,0,0,0s0,0,0,0a1.67,1.67,0,0,1-.73.83,2.43,2.43,0,0,1-1.18.25H13.18a2.31,2.31,0,0,1-1.9-.61,3.77,3.77,0,0,1-.48-2.24v-1.37c0-.08,0-.11-.09-.11h-.6a.12.12,0,0,0-.14.11A5.51,5.51,0,0,1,9,200a5.39,5.39,0,0,1-2.3,1.64.83.83,0,0,1-.62,0,.92.92,0,0,1-.5-.43,8.61,8.61,0,0,0-.63-.88.5.5,0,0,1-.08-.47.5.5,0,0,1,.32-.34,3.52,3.52,0,0,0,1.46-.77,2.35,2.35,0,0,0,.61-1.18c0-.08,0-.11-.07-.11H7.1a.8.8,0,0,1-.81-.79v-2.07a.18.18,0,0,1-.2,0,14.88,14.88,0,0,0-1.64-1.37c-.06,0-.09,0-.09,0v8.26a.75.75,0,0,1-.24.55.75.75,0,0,1-.55.24H1.84a.75.75,0,0,1-.55-.24.74.74,0,0,1-.23-.55V182.15a.79.79,0,0,1,.78-.81h7.5a.78.78,0,0,1,.57.23.85.85,0,0,1,.22.58v6.28a.85.85,0,0,1-.22.58.78.78,0,0,1-.57.23H4.47c-.08,0-.11,0-.11.09v3.57c0,.08,0,.09.09,0a5.48,5.48,0,0,0,2.06-2,1.19,1.19,0,0,1,.5-.44.82.82,0,0,1,.63-.07l1.66.38c.07,0,.11,0,.11-.07v-.13a.78.78,0,0,1,.23-.57.73.73,0,0,1,.56-.24h3.14a1.3,1.3,0,0,1,1.15.72,5.82,5.82,0,0,0,2,1.86.52.52,0,0,1,.25.41.46.46,0,0,1-.18.42,9.52,9.52,0,0,0-1.28,1.24.3.3,0,0,0-.05.18v2a.8.8,0,0,1-.8.79h-.77c-.06,0-.09,0-.09.11v1.35a1.48,1.48,0,0,0,0,.47c0,.06.07.09.16.09H14c.15,0,.25-.17.29-.5a.53.53,0,0,1,.27-.37.52.52,0,0,1,.47,0,5.61,5.61,0,0,0,.92.34.46.46,0,0,0,.21,0l.42,0a1.4,1.4,0,0,0,.34,0,.35.35,0,0,0,.23-.06.45.45,0,0,0,.06-.27v-9.26c0-.06,0-.09-.11-.09H12a.78.78,0,0,1-.57-.23.78.78,0,0,1-.24-.58v-6.28a.78.78,0,0,1,.24-.58.78.78,0,0,1,.57-.23ZM7,183.63a.08.08,0,0,0-.09-.09H4.47c-.08,0-.11,0-.11.09v.58c0,.08,0,.11.11.11H6.92c.06,0,.09,0,.09-.11ZM4.36,187c0,.06,0,.09.11.09H6.92A.08.08,0,0,0,7,187v-.56a.08.08,0,0,0-.09-.09H4.47c-.08,0-.11,0-.11.09Zm8.22,5.15a.17.17,0,0,0-.16-.07H10.2a.73.73,0,0,1-.56-.24.81.81,0,0,1-.23-.57V191s0,0,0,0a8.89,8.89,0,0,1-1.22,1.88c0,.05,0,.07,0,.07h4.89l0,0a.09.09,0,0,0,0-.05A8.24,8.24,0,0,1,12.58,192.1Zm-.23,3.45q.12,0,.12-.09v-.65c0-.07,0-.11-.12-.11H8.94c-.06,0-.09,0-.09.11v.65a.08.08,0,0,0,.09.09Zm4.83-11.92c0-.06,0-.09-.11-.09H14.51a.08.08,0,0,0-.09.09v.58c0,.08,0,.11.09.11h2.56c.08,0,.11,0,.11-.11ZM14.42,187a.08.08,0,0,0,.09.09h2.56c.08,0,.11,0,.11-.09v-.56c0-.06,0-.09-.11-.09H14.51a.08.08,0,0,0-.09.09Z"/><path d="M29.85,184.26a.74.74,0,0,1,.57.23.78.78,0,0,1,.24.57v1a.75.75,0,0,1-.24.55.78.78,0,0,1-.57.23H23.67a.77.77,0,0,1-.78-.78v-1a.8.8,0,0,1,.22-.57.73.73,0,0,1,.56-.23ZM43.55,198a.82.82,0,0,1-.23.58.78.78,0,0,1-.55.23H41.49s0,0,0,0l.37.18.38.18.35.17.38.18.35.16.34.17L44,200l.31.16a.41.41,0,0,1,.25.41.44.44,0,0,1-.22.38l-1.44.85a1.19,1.19,0,0,1-1.35,0c-.88-.53-1.8-1-2.74-1.51a.49.49,0,0,1-.28-.41.44.44,0,0,1,.19-.44l.7-.58s0,0,0,0,0,0-.05,0H35.53a0,0,0,0,0,0,0s0,0,0,0l.95.6a.52.52,0,0,1,.23.44.47.47,0,0,1-.23.44,14.66,14.66,0,0,1-3.64,1.71,1.36,1.36,0,0,1-.38.06,1.3,1.3,0,0,1-.92-.4,15.83,15.83,0,0,0-1.44-1.28c-.05,0-.07,0-.07,0a.61.61,0,0,1-.61.61h-3q-.12,0-.12.09a.76.76,0,0,1-.22.56.74.74,0,0,1-.54.23h-1a.74.74,0,0,1-.56-.24.81.81,0,0,1-.23-.57v-6.38a.75.75,0,0,1,.23-.56.77.77,0,0,1,.56-.23h4.69a.76.76,0,0,1,.55.23.73.73,0,0,1,.24.56v5.5c0,.06,0,.08.09.07a13.33,13.33,0,0,0,3.68-1.48s0,0,0,0h-1A.79.79,0,0,1,32,198v-5.41a.78.78,0,0,1,.23-.57.78.78,0,0,1,.58-.24h9.93a.75.75,0,0,1,.55.24.78.78,0,0,1,.23.57ZM29.29,187.56a.78.78,0,0,1,.55.23.75.75,0,0,1,.24.55v.9a.73.73,0,0,1-.24.56.78.78,0,0,1-.55.23H24.64a.77.77,0,0,1-.56-.23.75.75,0,0,1-.23-.56v-.9a.78.78,0,0,1,.23-.55.77.77,0,0,1,.56-.23Zm-4.65,5.66a.74.74,0,0,1-.56-.24.79.79,0,0,1-.23-.57v-.88a.81.81,0,0,1,.23-.57.73.73,0,0,1,.56-.23h4.65a.74.74,0,0,1,.55.23.78.78,0,0,1,.24.57v.88a.76.76,0,0,1-.24.57.75.75,0,0,1-.55.24Zm4.58-12.11a.75.75,0,0,1,.55.24.76.76,0,0,1,.24.57v.88a.78.78,0,0,1-.24.57.74.74,0,0,1-.55.23H24.77a.74.74,0,0,1-.55-.23.81.81,0,0,1-.23-.57v-.88a.79.79,0,0,1,.23-.57.75.75,0,0,1,.55-.24ZM27.29,198.5a.08.08,0,0,0,.09-.09v-1.76c0-.07,0-.11-.09-.11h-.85c-.08,0-.12,0-.12.11v1.76q0,.09.12.09Zm8.56-14.56a.08.08,0,0,0,.09-.09v-.4a.08.08,0,0,0-.09-.09H32a.78.78,0,0,1-.58-.24.81.81,0,0,1-.23-.57v-.4a.79.79,0,0,1,.81-.81h3.84a.08.08,0,0,0,.09-.09.79.79,0,0,1,.81-.81h1.66a.81.81,0,0,1,.57.23.78.78,0,0,1,.24.58.08.08,0,0,0,.09.09h4.15a.78.78,0,0,1,.57.23.78.78,0,0,1,.24.58v.4a.78.78,0,0,1-.24.57.75.75,0,0,1-.57.24H39.31a.08.08,0,0,0-.09.09v.4a.08.08,0,0,0,.09.09h3.57a.74.74,0,0,1,.56.24.78.78,0,0,1,.22.57V185a.77.77,0,0,1-.22.55.74.74,0,0,1-.56.24H32.77a.76.76,0,0,1-.57-.24A.75.75,0,0,1,32,185v-.27a.82.82,0,0,1,.81-.81Zm-3.8,7.41a.77.77,0,0,1-.57-.23.78.78,0,0,1-.24-.57v-3.46a.75.75,0,0,1,.24-.57.85.85,0,0,1,.57-.22H43.37a.81.81,0,0,1,.57.22.75.75,0,0,1,.24.57v3.46a.78.78,0,0,1-.24.57.74.74,0,0,1-.57.23Zm1.78-1.64c0,.06,0,.09.11.09h7.39c.07,0,.11,0,.11-.09v-.24c0-.06,0-.09-.11-.09H40a2.83,2.83,0,0,1-1.54-.29A1.45,1.45,0,0,1,38,188c0-.07,0-.11-.09-.11h-.63c-.06,0-.09,0-.11.11a1.91,1.91,0,0,1-.61,1,3,3,0,0,1-1.41.57l-.2,0A1.08,1.08,0,0,1,34,189l-.12-.15a0,0,0,0,0,0,0s0,0,0,0Zm1.41-1.77s0,0,0-.06,0,0,0,0H33.94a.1.1,0,0,0-.11.11v.34c0,.07,0,.1.11.09C34.64,188.33,35.08,188.18,35.24,187.94Zm-.16,5.48a.1.1,0,0,0-.11.11v.29c0,.08,0,.12.11.12h5.28c.08,0,.11,0,.11-.12v-.29a.1.1,0,0,0-.11-.11Zm0,1.62c-.07,0-.11,0-.11.09v.33c0,.06,0,.09.11.09h5.28c.08,0,.11,0,.11-.09v-.33c0-.06,0-.09-.11-.09Zm0,1.59a.1.1,0,0,0-.11.11v.34a.1.1,0,0,0,.11.11h5.28c.08,0,.11,0,.11-.11v-.34a.1.1,0,0,0-.11-.11Zm6.27-8.36a.16.16,0,0,0,.09-.15V188a.1.1,0,0,0-.11-.11H40.07A.1.1,0,0,0,40,188a.45.45,0,0,0,.08.27c0,.05.12.07.25.07h.84A.69.69,0,0,0,41.35,188.27Z"/><path d="M65.56,194.41a.77.77,0,0,1-.23.57.75.75,0,0,1-.55.24H58.49a.15.15,0,0,0-.14.09A7.66,7.66,0,0,1,57,198c0,.06,0,.1,0,.11a20.31,20.31,0,0,0,4.29.58c.88,0,1.89.07,3,.07.9,0,1.87,0,2.92,0a.38.38,0,0,1,.36.22.45.45,0,0,1,.06.2.49.49,0,0,1-.06.23,9,9,0,0,0-.79,1.86,1.05,1.05,0,0,1-.36.56.92.92,0,0,1-.6.23,65.45,65.45,0,0,1-6.63-.41,20.21,20.21,0,0,1-5-1.21.19.19,0,0,0-.18,0,18.79,18.79,0,0,1-5.12,1.8l-.22,0a1.2,1.2,0,0,1-.45-.09,1.13,1.13,0,0,1-.5-.47A16.12,16.12,0,0,0,46.61,200a.41.41,0,0,1-.12-.27.28.28,0,0,1,0-.16.42.42,0,0,1,.34-.29,23.31,23.31,0,0,0,3.75-.86c.07,0,.08-.06,0-.11a14.21,14.21,0,0,1-1.48-1.53.55.55,0,0,1-.1-.52.57.57,0,0,1,.34-.4l1.42-.56v0H49.37a.75.75,0,0,1-.57-.24.78.78,0,0,1-.24-.57v-8.24a.75.75,0,0,1,.24-.57.77.77,0,0,1,.57-.22h5.79c.06,0,.09,0,.09-.11v-.81a.08.08,0,0,0-.09-.09H47.44a.8.8,0,0,1-.81-.81v-1.37a.8.8,0,0,1,.81-.81h18.8a.78.78,0,0,1,.57.24.76.76,0,0,1,.24.57v1.37a.76.76,0,0,1-.24.57.78.78,0,0,1-.57.24H58.89c-.07,0-.11,0-.11.09v.81a.1.1,0,0,0,.11.11h5.89a.77.77,0,0,1,.55.22.74.74,0,0,1,.23.57ZM51.82,188c-.06,0-.09,0-.09.11V189a.08.08,0,0,0,.09.09h3.34a.08.08,0,0,0,.09-.09v-.81c0-.07,0-.11-.09-.11Zm0,3.48c-.06,0-.09,0-.09.11v.83a.08.08,0,0,0,.09.09h3.34a.08.08,0,0,0,.09-.09v-.83c0-.07,0-.11-.09-.11Zm2.85,3.8c0-.06,0-.09-.07-.09H52l0,0s0,0,0,0a9.28,9.28,0,0,0,1.64,1.35.14.14,0,0,0,.16,0A5.5,5.5,0,0,0,54.67,195.31Zm7.59-7.17a.1.1,0,0,0-.11-.11H58.89a.1.1,0,0,0-.11.11V189c0,.06,0,.09.11.09h3.26c.07,0,.11,0,.11-.09Zm-.11,4.4c.07,0,.11,0,.11-.09v-.83a.1.1,0,0,0-.11-.11H58.89a.1.1,0,0,0-.11.11v.83c0,.06,0,.09.11.09Z"/><path d="M87.31,190.61l.33,0a1.34,1.34,0,0,1,.63.16l1.06.51a.82.82,0,0,1,.42.48,1,1,0,0,1,0,.29.82.82,0,0,1-.07.33,14.5,14.5,0,0,1-2.63,4,14,14,0,0,1-3.71,2.84A24.13,24.13,0,0,1,78.91,201a35.37,35.37,0,0,1-5.31,1.15l-.15,0a.8.8,0,0,1-.47-.15,1,1,0,0,1-.43-.5,12,12,0,0,0-.74-1.62.44.44,0,0,1,0-.47.5.5,0,0,1,.37-.29,29.58,29.58,0,0,0,7.52-1.68c.06,0,.07-.07,0-.12a27.33,27.33,0,0,0-2.65-1.91.19.19,0,0,0-.18,0c-.7.33-1.42.64-2.15.93a1,1,0,0,1-.64,0,.94.94,0,0,1-.51-.41,12.1,12.1,0,0,0-1-1.35.48.48,0,0,1-.12-.46.49.49,0,0,1,.32-.35A21.36,21.36,0,0,0,80.05,190s0,0,0,0a31.75,31.75,0,0,1-8.38,2.9.86.86,0,0,1-.62-.1,1.12,1.12,0,0,1-.46-.48,12.07,12.07,0,0,0-.76-1.44.54.54,0,0,1-.07-.27.59.59,0,0,1,.05-.22.43.43,0,0,1,.36-.3,30.9,30.9,0,0,0,6.28-1.7s0,0,0,0a.08.08,0,0,0,0-.05,18.57,18.57,0,0,0-2.29-1.51.19.19,0,0,0-.18,0c-.57.27-1.07.5-1.49.68a1.14,1.14,0,0,1-.66,0,1,1,0,0,1-.53-.37,11,11,0,0,0-1.16-1.28.48.48,0,0,1-.14-.44.4.4,0,0,1,.29-.33A17.53,17.53,0,0,0,77.38,181a1.37,1.37,0,0,1,1-.47,1.12,1.12,0,0,1,.31.05l2,.45a.39.39,0,0,1,.34.3.4.4,0,0,1-.1.44,2.1,2.1,0,0,0-.24.27,0,0,0,0,0,0,0,0,0,0,0,0,0,0h3.71a.31.31,0,0,0,.13,0l.29,0a1.11,1.11,0,0,1,.59.16l1.05.6a.75.75,0,0,1,.38.49.68.68,0,0,1-.09.59,15,15,0,0,1-4.33,4.61s0,0,0,0,0,0,0,0l2,.47a.41.41,0,0,1,.35.3.46.46,0,0,1-.1.46c-.26.29-.5.55-.74.79a.06.06,0,0,0,0,0,0,0,0,0,0,0,0h3.1A.35.35,0,0,0,87.31,190.61Zm-5.13-5.77a0,0,0,0,0,0,0s0,0,0,0H77.54a.34.34,0,0,0-.18.07,3.46,3.46,0,0,0-.39.25s0,0,0,0,0,0,0,0a21.2,21.2,0,0,1,2.52,1.59.15.15,0,0,0,.18,0A14.67,14.67,0,0,0,82.18,184.84Zm3.08,8.65c0-.06,0-.09,0-.09H80.68a.27.27,0,0,0-.18.07l-.52.31a.08.08,0,0,0,0,.06.08.08,0,0,0,0,0,20.44,20.44,0,0,1,2.77,1.89s.09,0,.15,0A10.31,10.31,0,0,0,85.26,193.49Z"/><path d="M98.83,189.65a.8.8,0,0,1-.81-.79v-.56a.08.08,0,0,0-.09-.09l-4.22.72a.82.82,0,0,1-.61-.15.71.71,0,0,1-.31-.53l-.18-1.12a.31.31,0,0,1,0-.13.73.73,0,0,1,.16-.45.78.78,0,0,1,.52-.29q1.58-.16,4.65-.57a.12.12,0,0,0,.11-.13v-.9a.08.08,0,0,0-.09-.09H93.8a.74.74,0,0,1-.55-.24.75.75,0,0,1-.24-.57v-.92a.78.78,0,0,1,.24-.57.74.74,0,0,1,.55-.24h4.13a.08.08,0,0,0,.09-.09v-.72a.81.81,0,0,1,.23-.57.78.78,0,0,1,.58-.23h1.75a.75.75,0,0,1,.57.23.78.78,0,0,1,.24.57v7.64a.75.75,0,0,1-.24.55.76.76,0,0,1-.57.24Zm11,.36a.74.74,0,0,1,.55.23.78.78,0,0,1,.24.57v8.25a3.88,3.88,0,0,1-.33,1.79,2.11,2.11,0,0,1-1.13,1,11.45,11.45,0,0,1-3.64.45,1,1,0,0,1-.61-.21,1.06,1.06,0,0,1-.36-.55,14.08,14.08,0,0,0-.49-1.42.45.45,0,0,1,0-.46.49.49,0,0,1,.42-.21l2.11,0a.69.69,0,0,0,.44-.1.42.42,0,0,0,.12-.33v-.4a.1.1,0,0,0-.11-.11H98.51a.1.1,0,0,0-.11.11v2.92a.75.75,0,0,1-.78.78H95.8a.75.75,0,0,1-.55-.22.74.74,0,0,1-.24-.56V190.81a.78.78,0,0,1,.24-.57.73.73,0,0,1,.55-.23Zm-2.65,2.47c0-.06,0-.09-.11-.09H98.51c-.07,0-.11,0-.11.09v.58a.1.1,0,0,0,.11.11h8.54a.1.1,0,0,0,.11-.11Zm-8.76,3.66a.1.1,0,0,0,.11.11h8.54a.1.1,0,0,0,.11-.11v-.61a.1.1,0,0,0-.11-.11H98.51a.1.1,0,0,0-.11.11Zm9.19-9.44h2a.83.83,0,0,0,.57-.16,1.15,1.15,0,0,0,.24-.67.53.53,0,0,1,.3-.4.5.5,0,0,1,.49,0,14.17,14.17,0,0,0,1.46.54.92.92,0,0,1,.52.38.74.74,0,0,1,.13.42,1.1,1.1,0,0,1,0,.18,3.21,3.21,0,0,1-1.07,2,3.83,3.83,0,0,1-2.28.55h-2.85a4.3,4.3,0,0,1-3-.78,4,4,0,0,1-.78-2.86v-4.63a.78.78,0,0,1,.24-.57.77.77,0,0,1,.57-.23h1.82a.74.74,0,0,1,.55.23.78.78,0,0,1,.24.57v1.22q0,.1.09.06c1.15-.31,2.21-.65,3.16-1a1.09,1.09,0,0,1,.69,0,1.17,1.17,0,0,1,.59.36l1.06,1.19a.52.52,0,0,1,.1.49.47.47,0,0,1-.35.34,47,47,0,0,1-5.25,1.26c-.06,0-.09.06-.09.13v.61a1.13,1.13,0,0,0,.15.73A1.28,1.28,0,0,0,107.59,186.7Z"/><path d="M133.26,196.77a.74.74,0,0,1-.24.56.77.77,0,0,1-.57.22h-1.73s0,0,0,0a32.76,32.76,0,0,1,4.58,2.13.51.51,0,0,1,.27.47.52.52,0,0,1-.2.43l-1.15.92a1,1,0,0,1-.62.24,1.35,1.35,0,0,1-.68-.17,32.41,32.41,0,0,0-4.2-2.18.45.45,0,0,1-.28-.37.47.47,0,0,1,.17-.44l1.32-1a0,0,0,0,0,0,0,0,0,0,0,0,0,0h-2.24q-.09,0-.09.12v1.86a3.28,3.28,0,0,1-.3,1.58,1.83,1.83,0,0,1-1.07.8,10.61,10.61,0,0,1-3.15.34,1,1,0,0,1-1-.77,12.77,12.77,0,0,0-.59-1.46c0-.06-.07-.07-.11,0a25,25,0,0,1-3.42,1.77,1,1,0,0,1-.68.08,1.15,1.15,0,0,1-.6-.35c-.47-.48-.9-.89-1.28-1.23a.4.4,0,0,1-.15-.29.22.22,0,0,1,0-.12.37.37,0,0,1,.29-.31,15.62,15.62,0,0,0,4.29-1.91,0,0,0,0,0,0,0,0,0,0,0,0,0,0h-.52a.8.8,0,0,1-.57-.22.74.74,0,0,1-.24-.56v-3.93a.75.75,0,0,1,.24-.57.85.85,0,0,1,.57-.22h13.14a.81.81,0,0,1,.57.22.75.75,0,0,1,.24.57ZM135.1,189a.82.82,0,0,1,.81.81v1a.75.75,0,0,1-.24.55.78.78,0,0,1-.57.23H116.3a.81.81,0,0,1-.57-.23.75.75,0,0,1-.24-.55v-1a.75.75,0,0,1,.24-.57.78.78,0,0,1,.57-.24H124a.08.08,0,0,0,.09-.09v-.43a.08.08,0,0,0-.09-.09h-5.21a.74.74,0,0,1-.55-.23.78.78,0,0,1-.24-.57v-5.66a.8.8,0,0,1,.79-.81h14a.8.8,0,0,1,.79.81v5.66a.78.78,0,0,1-.24.57.74.74,0,0,1-.55.23h-5.21a.08.08,0,0,0-.09.09v.43a.08.08,0,0,0,.09.09ZM124.19,199.4v-1.73q0-.12-.09-.12h-3.26s0,0,0,0l1.68.67a.49.49,0,0,1,.32.38.4.4,0,0,1-.18.43c-.26.2-.53.39-.81.58,0,0,0,0,0,.05l0,0c.53,0,1.16,0,1.91,0a.63.63,0,0,0,.34-.09A.3.3,0,0,0,124.19,199.4Zm-2.92-16.33c-.08,0-.12,0-.12.11v.47c0,.08,0,.11.12.11h8.85a.1.1,0,0,0,.11-.11v-.47a.1.1,0,0,0-.11-.11Zm0,2.56q-.12,0-.12.09v.51a.11.11,0,0,0,.12.12h8.85c.07,0,.11,0,.11-.12v-.51c0-.06,0-.09-.11-.09Zm8.51,9.7a.08.08,0,0,0,.09-.09v-.88a.08.08,0,0,0-.09-.09h-8a.08.08,0,0,0-.09.09v.88a.08.08,0,0,0,.09.09Z"/></g></g></svg>