<svg xmlns="http://www.w3.org/2000/svg" viewBox="0 0 168.02 158.35"><defs><style>.cls-1{fill:#e85e38;}</style></defs><g id="圖層_2" data-name="圖層 2"><g id="圖層_1-2" data-name="圖層 1"><path d="M157.85,48.26h0a1,1,0,0,1-1-1l.37-44.59a1,1,0,0,1,1-1h0a1,1,0,0,1,1,1l-.37,44.6A1,1,0,0,1,157.85,48.26Z"/><path d="M148.37,33.51a1,1,0,0,1,1.38.32l8.11,13L166.18,34a1,1,0,1,1,1.68,1.08l-9.18,14.16a1,1,0,0,1-.85.45,1,1,0,0,1-.84-.47l-8.94-14.3a1,1,0,0,1-.15-.54A1,1,0,0,1,148.37,33.51Z"/><rect x="28.31" width="77" height="39"/><path class="cls-1" d="M114.31,61h-10a2,2,0,0,1,0-4h8V47a2,2,0,0,1,4,0V57a2,2,0,0,1-.27,1,2,2,0,0,1-1.73,3Zm-20,0h-10a2,2,0,0,1,0-4h10a2,2,0,0,1,0,4Zm-20,0h-10a2,2,0,0,1,0-4h10a2,2,0,0,1,0,4Zm-20,0h-10a2,2,0,0,1,0-4h10a2,2,0,0,1,0,4Zm-17-3a2,2,0,0,1-2-2V46a2,2,0,0,1,4,0V56A2,2,0,0,1,37.31,58Zm77-19a2,2,0,0,1-2-2V27a2,2,0,0,1,4,0V37A2,2,0,0,1,114.31,39Zm-77-1a2,2,0,0,1-2-2V26a2,2,0,0,1,4,0V36A2,2,0,0,1,37.31,38Zm74-16h-10a2,2,0,0,1,0-4h10a2,2,0,0,1,0,4Zm-20,0h-10a2,2,0,0,1,0-4h10a2,2,0,0,1,0,4Zm-20,0h-10a2,2,0,0,1,0-4h10a2,2,0,0,1,0,4Zm-20,0h-10a2,2,0,0,1,0-4h10a2,2,0,0,1,0,4Z"/><path d="M91.33,60.87a3,3,0,0,0-1.25.28,3,3,0,0,0-2.4-1.21,2.49,2.49,0,0,0-1.36.35A3,3,0,0,0,84,59.22a5.41,5.41,0,0,0-.68.07V52.5a3,3,0,1,0-6,0V65.09l-1.46-2.22A2.77,2.77,0,0,0,74,61.69a3.13,3.13,0,0,0-2.18.5A3.26,3.26,0,0,0,70.51,64a2.79,2.79,0,0,0,.32,2.19c.08.1,6,9.08,7,10.62a4.71,4.71,0,0,0,.64.79v4.32a1.57,1.57,0,0,0,1.58,1.58h9.8a1.56,1.56,0,0,0,1.57-1.58V78.25a7.75,7.75,0,0,0,2.76-5.76V63.91A3,3,0,0,0,91.33,60.87Zm1.14,11.44v.15A6,6,0,0,1,90.33,77h-10a5.75,5.75,0,0,1-1-1.07c-1-1.5-7-10.52-7-10.62a1,1,0,0,1-.11-.79,1.39,1.39,0,0,1,.61-.82,1.5,1.5,0,0,1,.79-.25h.18a.89.89,0,0,1,.68.43l3,4.57A.85.85,0,0,0,79.06,68V52.5a1.29,1.29,0,0,1,2.58,0V64.77a.86.86,0,0,0,1.71,0V61.12a1.47,1.47,0,0,1,.68-.18,1.32,1.32,0,0,1,1.18.79V65a.86.86,0,1,0,1.72,0v-3a1.24,1.24,0,0,1,.79-.29,1.26,1.26,0,0,1,1.21.9v2.86a.86.86,0,1,0,1.72,0V62.83a1.35,1.35,0,0,1,.75-.25,1.19,1.19,0,0,1,1.14,1.29v8.44Z"/><rect y="100.07" width="48.33" height="26.63"/><rect y="131.72" width="48.33" height="26.63"/><path class="cls-1" d="M22.75,106a.75.75,0,0,1,.55.24.76.76,0,0,1,.24.57v13.54a5.21,5.21,0,0,1-.32,2,2.34,2.34,0,0,1-1.08,1.12,9.59,9.59,0,0,1-3.84.58.82.82,0,0,1-.58-.22,1,1,0,0,1-.36-.56,12.13,12.13,0,0,0-.61-1.85.5.5,0,0,1,.06-.47.44.44,0,0,1,.42-.2c.61,0,1.14.05,1.59.05s.56,0,.79,0a.68.68,0,0,0,.45-.11.49.49,0,0,0,.13-.4V109.33c0-.06,0-.09-.11-.09H7.57q-.12,0-.12.09v13.88a.77.77,0,0,1-.22.55.74.74,0,0,1-.56.24H4.92a.74.74,0,0,1-.55-.24.75.75,0,0,1-.24-.55V106.77a.76.76,0,0,1,.24-.57.74.74,0,0,1,.55-.24H10.4c.07,0,.12,0,.13-.09a25.58,25.58,0,0,0,.88-2.9.93.93,0,0,1,.36-.51.76.76,0,0,1,.47-.16h.13l2.74.38a.57.57,0,0,1,.44.31.51.51,0,0,1,0,.52c-.43.93-.82,1.72-1.16,2.36,0,.06,0,.09,0,.09Zm-4.42,12.31a.75.75,0,0,1-.24.55.78.78,0,0,1-.57.24H12.4c-.08,0-.12,0-.12.11v.67a.77.77,0,0,1-.22.57.74.74,0,0,1-.56.24H10.08a.78.78,0,0,1-.57-.24.75.75,0,0,1-.24-.57v-8a.74.74,0,0,1,.24-.56.81.81,0,0,1,.57-.23h7.44a.81.81,0,0,1,.57.23.74.74,0,0,1,.24.56ZM15.27,114c0-.06,0-.09-.11-.09H12.4q-.12,0-.12.09v2.07q0,.09.12.09h2.76c.07,0,.11,0,.11-.09Z"/><path class="cls-1" d="M47.19,106.43a.8.8,0,0,1-.81.81H38.23q-.12,0-.12.09v3.19s0,0,0,0,0,0,0,0a.93.93,0,0,1,.56-.33.92.92,0,0,1,.65.09,49.48,49.48,0,0,1,6.36,3.77.66.66,0,0,1,.3.52.74.74,0,0,1-.16.58L44.38,117a.68.68,0,0,1-.53.27.74.74,0,0,1-.57-.18,41.56,41.56,0,0,0-5.08-3.41c-.06,0-.09,0-.09,0v9.44a.77.77,0,0,1-.78.78h-2a.78.78,0,0,1-.57-.23.82.82,0,0,1-.22-.55V107.33c0-.06,0-.09-.11-.09H27.27a.79.79,0,0,1-.81-.81v-1.77a.78.78,0,0,1,.23-.57.78.78,0,0,1,.58-.24H46.38a.76.76,0,0,1,.57.24.75.75,0,0,1,.24.57Z"/><path d="M54.26,110.14a.75.75,0,0,1,.33.5.79.79,0,0,1-.12.6l-1,1.48a.69.69,0,0,1-.49.32.8.8,0,0,1-.59-.16,17.81,17.81,0,0,0-2.8-1.57.7.7,0,0,1-.36-.43.57.57,0,0,1,0-.18.6.6,0,0,1,.12-.36l.87-1.23a1,1,0,0,1,.54-.4,1.21,1.21,0,0,1,.68,0A19,19,0,0,1,54.26,110.14ZM52.8,123a.71.71,0,0,1-.47.35.68.68,0,0,1-.58-.12l-1.62-1.17a.79.79,0,0,1-.34-.52v-.16a.83.83,0,0,1,.12-.44A66,66,0,0,0,53.25,115a.6.6,0,0,1,.43-.34.61.61,0,0,1,.54.13l1.32,1.08a1,1,0,0,1,.27,1.24Q54.33,120.24,52.8,123ZM55.59,104a.74.74,0,0,1,.35.52.79.79,0,0,1-.15.61l-1,1.43a.7.7,0,0,1-.51.29.73.73,0,0,1-.57-.15A17.68,17.68,0,0,0,50.94,105a.63.63,0,0,1-.35-.43.67.67,0,0,1,.1-.56l.86-1.17a.93.93,0,0,1,.53-.38,1.13,1.13,0,0,1,.3,0,1.21,1.21,0,0,1,.38.06A22.45,22.45,0,0,1,55.59,104Zm14.19,5.12a.76.76,0,0,1,.55.23.73.73,0,0,1,.24.56v3a.79.79,0,0,1-.79.79H68.41c-.06,0-.09,0-.09.11v7.46a4,4,0,0,1-.24,1.57,1.84,1.84,0,0,1-.9.86,7.14,7.14,0,0,1-2.76.42.91.91,0,0,1-.6-.21,1.17,1.17,0,0,1-.37-.55,8.54,8.54,0,0,0-.36-1.08.48.48,0,0,1,.07-.47.48.48,0,0,1,.42-.23c.36,0,.78,0,1.24,0a.35.35,0,0,0,.4-.39v-.33c0-.06,0-.09-.11-.09H60.44a.08.08,0,0,0-.09.09v2.45a.74.74,0,0,1-.24.56.77.77,0,0,1-.57.22H58.08a.8.8,0,0,1-.57-.22.74.74,0,0,1-.24-.56v-9.53c0-.07,0-.11-.09-.11H56a.77.77,0,0,1-.57-.22.75.75,0,0,1-.24-.57v-3a.73.73,0,0,1,.24-.56.78.78,0,0,1,.57-.23h1.08c.06,0,.09,0,.09-.11v-5.21a.75.75,0,0,1,.23-.57A.78.78,0,0,1,58,103H67.6a.8.8,0,0,1,.81.81V109c0,.08,0,.11.09.11Zm-2.51,3.3c.07,0,.11,0,.11-.08v-.61a.1.1,0,0,0-.11-.11h-8.9a.1.1,0,0,0-.11.11v.61c0,.06,0,.08.11.08Zm-7-6.91q-.12,0-.12.09V109c0,.08,0,.11.12.11h.89c.08,0,.12,0,.12-.11v-2a.75.75,0,0,1,.22-.56.77.77,0,0,1,.56-.23h3.06a.1.1,0,0,0,.11-.11v-.56c0-.06,0-.09-.11-.09Zm0,9.9a.08.08,0,0,0,.09.09h4.67c.08,0,.11,0,.11-.09V115c0-.06,0-.09-.11-.09H60.44a.08.08,0,0,0-.09.09Zm0,2.92a.08.08,0,0,0,.09.09h4.67c.08,0,.11,0,.11-.09v-.4c0-.06,0-.09-.11-.09H60.44a.08.08,0,0,0-.09.09ZM63.76,109c0,.08,0,.11.12.11h1.28a.1.1,0,0,0,.11-.11v-.67c0-.06,0-.09-.11-.09H63.88q-.12,0-.12.09Z"/><path d="M88.7,107.17c0,.08,0,.12.11.12h3.64a.75.75,0,0,1,.78.78v.63c-.1,4.94-.22,8.36-.36,10.24a8.85,8.85,0,0,1-.72,3.62,2.92,2.92,0,0,1-.85.89,3.71,3.71,0,0,1-1.1.43,9.39,9.39,0,0,1-2,.16h-.09a.82.82,0,0,1-.58-.23,1.08,1.08,0,0,1-.32-.58,8.43,8.43,0,0,0-.52-1.66.48.48,0,0,1,.06-.46.42.42,0,0,1,.39-.19c.38,0,.83,0,1.37,0a.92.92,0,0,0,.79-.4,7.37,7.37,0,0,0,.48-2.7c.12-1.49.19-4,.24-7.41q0-.09-.09-.09H88.72c-.08,0-.11,0-.11.09a33.19,33.19,0,0,1-1.24,8,12,12,0,0,1-3.3,5.32.62.62,0,0,1-.53.17.73.73,0,0,1-.5-.31,13.49,13.49,0,0,0-1-1.08.26.26,0,0,0-.16-.07l-8.89.84a.84.84,0,0,1-.9-.75L72,121.35a.74.74,0,0,1,.17-.58.66.66,0,0,1,.53-.25l3.61-.23a.1.1,0,0,0,.09-.11v-.79c0-.07,0-.11-.09-.11h-3a.8.8,0,0,1-.57-.22.75.75,0,0,1-.24-.57v-.74a.75.75,0,0,1,.24-.55.81.81,0,0,1,.57-.23h3q.09,0,.09-.12v-.38c0-.07,0-.11-.09-.11H73.4a.76.76,0,0,1-.57-.24.74.74,0,0,1-.24-.55v-5.72a.73.73,0,0,1,.24-.56.79.79,0,0,1,.57-.23h2.87c.06,0,.09,0,.09-.11v-.36c0-.08,0-.11-.09-.11H72.84a.82.82,0,0,1-.79-.79v-.79a.74.74,0,0,1,.24-.56.77.77,0,0,1,.55-.22h3.43c.06,0,.09,0,.09-.11v-.34c0-.08,0-.11-.09-.11-.92.06-1.84.09-2.76.11a.88.88,0,0,1-.6-.19,1,1,0,0,1-.36-.55c-.08-.29-.16-.56-.25-.83a.61.61,0,0,1,.06-.53.52.52,0,0,1,.43-.26,66.89,66.89,0,0,0,8.38-.92h.23a1.2,1.2,0,0,1,.45.09,1.12,1.12,0,0,1,.51.45L83,104a.58.58,0,0,1,0,.54.51.51,0,0,1-.41.31c-.84.15-1.88.29-3.1.43-.08,0-.12,0-.12.11V106c0,.07,0,.11.12.11h3.25a.81.81,0,0,1,.58.22.77.77,0,0,1,.23.56v.79a.8.8,0,0,1-.81.79H79.49c-.08,0-.12,0-.12.11V109c0,.07,0,.11.12.11h3a.79.79,0,0,1,.79.79v5.72a.76.76,0,0,1-.23.55.73.73,0,0,1-.56.24h-3c-.08,0-.12,0-.12.11v.38a.11.11,0,0,0,.12.12h3.1a.81.81,0,0,1,.57.23.75.75,0,0,1,.24.55v1.44s0,0,0,0h0a11.79,11.79,0,0,0,1.44-3.73,31.33,31.33,0,0,0,.58-5,.1.1,0,0,0-.11-.11h-.92a.8.8,0,0,1-.79-.81v-1.46a.75.75,0,0,1,.24-.55.74.74,0,0,1,.55-.23h1c.07,0,.11,0,.11-.12V103.4a.78.78,0,0,1,.23-.55.75.75,0,0,1,.55-.24h1.62a.82.82,0,0,1,.79.79C88.72,105,88.71,106.26,88.7,107.17Zm-13.37,3.91c-.07,0-.11,0-.11.09v.5c0,.06,0,.09.11.09h.94a.08.08,0,0,0,.09-.09v-.5a.08.08,0,0,0-.09-.09Zm-.11,3.17c0,.06,0,.09.11.09h.94a.08.08,0,0,0,.09-.09v-.49q0-.12-.09-.12h-.94c-.07,0-.11,0-.11.12Zm5.3-3.08c0-.06,0-.09-.11-.09h-.92q-.12,0-.12.09v.5q0,.09.12.09h.92c.07,0,.11,0,.11-.09Zm-.11,3.17c.07,0,.11,0,.11-.09v-.49c0-.08,0-.12-.11-.12h-.92a.11.11,0,0,0-.12.12v.49q0,.09.12.09Zm-.92,4.94c-.08,0-.12,0-.12.11V120q0,.09.12.09L83,119.8a.18.18,0,0,0,.15-.09l.23-.34c0-.06,0-.09,0-.09Z"/><path d="M113.85,118a.79.79,0,0,1-.81.78h-2.65v0q3.19,1.17,5.39,2.16a.39.39,0,0,1,.25.4.42.42,0,0,1-.2.36l-2,1.35a1.27,1.27,0,0,1-.69.22,1.36,1.36,0,0,1-.68-.2,34.75,34.75,0,0,0-5.07-2.31.42.42,0,0,1-.29-.35.46.46,0,0,1,.15-.44l1.37-1.17v0s0,0,0,0h-5.5s0,0,0,0v0l1.44,1.17a.45.45,0,0,1,.18.44.48.48,0,0,1-.29.41,41.35,41.35,0,0,1-6.16,2.41,1.31,1.31,0,0,1-.38.06,1.08,1.08,0,0,1-.87-.47c-.41-.48-.82-.93-1.24-1.37a.42.42,0,0,1-.13-.31.34.34,0,0,1,0-.14.41.41,0,0,1,.31-.31,29.28,29.28,0,0,0,5.08-1.91s0,0,0,0H98.67a.74.74,0,0,1-.55-.23.75.75,0,0,1-.24-.55V107.47a.74.74,0,0,1,.24-.55.75.75,0,0,1,.55-.24h4.94a.1.1,0,0,0,.11-.09c0-.16.07-.43.11-.81q0-.09-.09-.09H96.83a.76.76,0,0,1-.55-.23.75.75,0,0,1-.24-.55v-1.44a.75.75,0,0,1,.24-.57.74.74,0,0,1,.55-.24h17.79a.75.75,0,0,1,.55.24.78.78,0,0,1,.23.57v1.44a.79.79,0,0,1-.78.78h-6.79c-.07,0-.12,0-.13.09-.12.35-.22.62-.29.81s0,.09.06.09H113a.78.78,0,0,1,.58.24.76.76,0,0,1,.23.55Zm-12.4-8.81a.08.08,0,0,0-.09.09v.63a.08.08,0,0,0,.09.09h8.63c.07,0,.11,0,.11-.09v-.63c0-.06,0-.09-.11-.09Zm0,3.15a.08.08,0,0,0-.09.09V113c0,.08,0,.11.09.11h8.63a.1.1,0,0,0,.11-.11v-.58c0-.06,0-.09-.11-.09Zm0,3.14a.08.08,0,0,0-.09.09v.63a.08.08,0,0,0,.09.09h8.63c.07,0,.11,0,.11-.09v-.63c0-.06,0-.09-.11-.09Z"/><path d="M139.37,105.22a.75.75,0,0,1-.24.55.76.76,0,0,1-.57.24h-8.09c-.07,0-.12,0-.13.09l-.47,1.43q0,.09.06.09h7.64a.75.75,0,0,1,.55.24.78.78,0,0,1,.24.57v14.29a.75.75,0,0,1-.24.55.78.78,0,0,1-.55.23h-1.84a.8.8,0,0,1-.79-.81v-.22c0-.08,0-.11-.11-.11H122.57c-.08,0-.12,0-.12.11v.22a.79.79,0,0,1-.78.81h-1.62a.81.81,0,0,1-.57-.23.78.78,0,0,1-.24-.58V108.41a.75.75,0,0,1,.24-.55.78.78,0,0,1,.57-.24h6.16c.06,0,.09,0,.11-.09l.11-.72.09-.71c0-.06,0-.09-.09-.09h-7.28a.78.78,0,0,1-.57-.24.75.75,0,0,1-.24-.55v-1.57a.74.74,0,0,1,.24-.55.78.78,0,0,1,.57-.24h19.41a.76.76,0,0,1,.57.24.74.74,0,0,1,.24.55Zm-16.8,5.46c-.08,0-.12,0-.12.11v8.4c0,.08,0,.11.12.11h1.61c.06,0,.09,0,.09-.11v-8.4c0-.07,0-.11-.09-.11Zm7.36,1.08q.09,0,.09-.12v-.85c0-.07,0-.11-.09-.11h-2.6c-.06,0-.09,0-.09.11v.85q0,.12.09.12Zm0,3.79a.08.08,0,0,0,.09-.09v-1a.08.08,0,0,0-.09-.09h-2.6a.08.08,0,0,0-.09.09v1a.08.08,0,0,0,.09.09Zm-2.6,2.58q-.09,0-.09.12v.94c0,.08,0,.11.09.11h2.6c.06,0,.09,0,.09-.11v-.94q0-.12-.09-.12Zm7.5,1.17c.08,0,.11,0,.11-.11v-8.4a.1.1,0,0,0-.11-.11h-1.71a.1.1,0,0,0-.11.11v8.4a.1.1,0,0,0,.11.11Z"/><path class="cls-1" d="M8.82,148.27h.63c.17,0,.28-.13.34-.4a11.07,11.07,0,0,0,.14-1.64.41.41,0,0,1,.22-.39.45.45,0,0,1,.45,0,8.25,8.25,0,0,0,1.53.69,1,1,0,0,1,.52.4.83.83,0,0,1,.15.61,6.38,6.38,0,0,1-1,3,2.43,2.43,0,0,1-2,.88H8.17a2.69,2.69,0,0,1-2.4-.91,6.69,6.69,0,0,1-.61-3.4v-3.26a.08.08,0,0,0-.09-.09L4,144a.73.73,0,0,1-.61-.12.74.74,0,0,1-.32-.51l-.26-1.52v-.16a.81.81,0,0,1,.13-.45.75.75,0,0,1,.52-.31l1.61-.3a.1.1,0,0,0,.09-.11v-4.83a.78.78,0,0,1,.24-.57.75.75,0,0,1,.55-.24H7.68a.74.74,0,0,1,.56.24.81.81,0,0,1,.23.57v4.23c0,.07,0,.1.11.09l3.19-.59a.8.8,0,0,1,.58.14.8.8,0,0,1,.34.51l.25,1.46a.77.77,0,0,1-.13.61.73.73,0,0,1-.53.31l-3.7.7c-.08,0-.11,0-.11.11v3.89a4.42,4.42,0,0,0,0,.94A.28.28,0,0,0,8.82,148.27Zm2.68-11.75a.8.8,0,0,1,.22-.57.73.73,0,0,1,.56-.23H23.54a.74.74,0,0,1,.56.24.73.73,0,0,1,.22.54c0,.23,0,.52,0,.88q-.18,8.91-.43,12.34c-.16,2.28-.45,3.74-.87,4.37a3.78,3.78,0,0,1-1,1.1,4.18,4.18,0,0,1-1.28.52,12,12,0,0,1-2.23.15h-.36a1,1,0,0,1-.89-.81,10.26,10.26,0,0,0-.61-2,.5.5,0,0,1,.05-.46.41.41,0,0,1,.4-.19c.52,0,1.14,0,1.86,0a1,1,0,0,0,.9-.49c.3-.37.52-1.53.66-3.46s.25-5.11.33-9.55c0-.07,0-.11-.09-.11H18.08A.1.1,0,0,0,18,139q0,1.71-.09,3c-.05.84-.12,1.76-.23,2.76a24.68,24.68,0,0,1-.4,2.65,21.66,21.66,0,0,1-.68,2.41,11.84,11.84,0,0,1-1,2.24,14,14,0,0,1-1.38,2,11.77,11.77,0,0,1-1.84,1.75.75.75,0,0,1-.43.13l-.15,0a.76.76,0,0,1-.5-.34A10.07,10.07,0,0,0,10,154a.61.61,0,0,1-.18-.45A.58.58,0,0,1,10,153a9.22,9.22,0,0,0,1.59-1.46,12.23,12.23,0,0,0,1.17-1.6,9.55,9.55,0,0,0,.81-1.87,20.13,20.13,0,0,0,.52-2,19.46,19.46,0,0,0,.31-2.25c.07-.89.12-1.67.14-2.34s0-1.51.06-2.55a.1.1,0,0,0-.11-.11H12.28a.75.75,0,0,1-.78-.78Z"/><path class="cls-1" d="M32.16,144a.67.67,0,0,1,.56.11.69.69,0,0,1,.32.49l.2,1.42a.9.9,0,0,1-.15.63.87.87,0,0,1-.52.38l-1.15.31a.13.13,0,0,0-.11.14v5.1a5.58,5.58,0,0,1-.23,1.77,2,2,0,0,1-.78,1,4.91,4.91,0,0,1-2.56.63h0a.81.81,0,0,1-.56-.22.93.93,0,0,1-.33-.56,13.24,13.24,0,0,0-.43-1.58.51.51,0,0,1,.08-.49.46.46,0,0,1,.44-.2h.44l.54,0a.39.39,0,0,0,.28-.08.38.38,0,0,0,.08-.28v-4.27q0-.12-.09-.09l-1,.27a.69.69,0,0,1-.58-.08.73.73,0,0,1-.34-.48l-.36-1.64a1.1,1.1,0,0,1,0-.18.74.74,0,0,1,.13-.41.79.79,0,0,1,.5-.36l.89-.19.79-.17c.06,0,.09-.06.09-.13v-3.33c0-.07,0-.11-.09-.11H26.88a.79.79,0,0,1-.78-.78v-1.49a.79.79,0,0,1,.78-.78h1.28c.06,0,.09,0,.09-.11V135a.75.75,0,0,1,.24-.57.85.85,0,0,1,.57-.22h1.46a.82.82,0,0,1,.55.22.75.75,0,0,1,.24.57v3.28a.1.1,0,0,0,.11.11h1.44a.28.28,0,0,1,.2.09.29.29,0,0,1,.09.22h0a9.72,9.72,0,0,0,3-3.84,1,1,0,0,1,.43-.5,1,1,0,0,1,.65-.13l1.48.23a.7.7,0,0,1,.45.32.57.57,0,0,1,0,.55l-.16.32c0,.06,0,.09.07.09h2.2a.79.79,0,0,1,.25-.05,1,1,0,0,1,.51.16l1.08.67a.91.91,0,0,1,.38.53.83.83,0,0,1-.06.62c-.3.55-.66,1.16-1.08,1.82,0,.06,0,.09,0,.09h3.44a.77.77,0,0,1,.56.23.82.82,0,0,1,.23.58v6.06a.78.78,0,0,1-.23.55.74.74,0,0,1-.56.24H44.72a.82.82,0,0,1-.81-.79v-.78q0-.12-.09-.12H42.65a2.45,2.45,0,0,1-1.81-.5,3.16,3.16,0,0,1-.44-2v-.83c0-.06,0-.09-.11-.09H40q-.12,0-.12.09a6.72,6.72,0,0,1-.56,2.05A3.55,3.55,0,0,1,38,145.73a.65.65,0,0,1-.57.09.94.94,0,0,1-.51-.38,3.24,3.24,0,0,1-.24-.31.06.06,0,0,0,0,0,.05.05,0,0,0,0,0v1.32a.74.74,0,0,1-.24.55.76.76,0,0,1-.57.24H34.65a.75.75,0,0,1-.55-.24.76.76,0,0,1-.23-.55v-6a.2.2,0,0,0-.07-.16l-.56-.52a.06.06,0,0,0-.06,0,.06.06,0,0,0,0,.06v.81a.75.75,0,0,1-.24.55.76.76,0,0,1-.55.23h-.94a.1.1,0,0,0-.11.11v2.59c0,.07,0,.1.11.09Zm15.25,5.79a.78.78,0,0,1-.23.57.75.75,0,0,1-.55.24h-3.8c-.07,0-.09,0,0,.07A6.36,6.36,0,0,0,47,153.08a.39.39,0,0,1,.32.28.38.38,0,0,1-.07.41,14.23,14.23,0,0,0-1,1.46,1,1,0,0,1-.47.48.92.92,0,0,1-.65.06,8.77,8.77,0,0,1-3-1.29,6.78,6.78,0,0,1-1.94-2.17.08.08,0,0,0-.06,0l-.05,0c-1.07,1.65-3,2.85-5.93,3.6l-.23,0a1,1,0,0,1-.87-.56,9.17,9.17,0,0,0-.79-1.26.52.52,0,0,1-.09-.29,1.1,1.1,0,0,1,0-.18.42.42,0,0,1,.36-.29,12.58,12.58,0,0,0,3.17-1.09,4.86,4.86,0,0,0,1.77-1.56s0-.07,0-.07H33.82a.78.78,0,0,1-.57-.24.74.74,0,0,1-.23-.57V148.7a.73.73,0,0,1,.23-.55.78.78,0,0,1,.57-.24h4.54a.1.1,0,0,0,.11-.11c0-.23.06-.52.09-.88a.84.84,0,0,1,.26-.56.8.8,0,0,1,.57-.22h1.44a.74.74,0,0,1,.54.23.68.68,0,0,1,.2.55c0,.38-.06.67-.09.88s0,.11.09.11h5.06a.75.75,0,0,1,.55.24.76.76,0,0,1,.23.55Zm-7.63-11.45c0-.06,0-.09-.05-.09h-2a.25.25,0,0,0-.16.06,14,14,0,0,1-.94,1.17s0,0,0,.05l0,0H39a.19.19,0,0,0,.16-.09A11.33,11.33,0,0,0,39.78,138.37Zm-3.08,3.79a.08.08,0,0,0-.09.09v1.64a.08.08,0,0,0,0,.06h0a2.66,2.66,0,0,0,.85-1.69c0-.06,0-.09-.09-.09Zm7.16,1.3a.3.3,0,0,0,0-.18v-1a.08.08,0,0,0-.09-.09h-.94q-.12,0-.12.09v.83a1,1,0,0,0,.05.4c0,.05.11.07.25.07h.51A.39.39,0,0,0,43.86,143.46Z"/><path d="M49.7,152.18a.75.75,0,0,1,.24-.57.78.78,0,0,1,.57-.24H69a.74.74,0,0,1,.56.24.78.78,0,0,1,.23.57V154a.78.78,0,0,1-.23.55.74.74,0,0,1-.56.24H50.51a.78.78,0,0,1-.57-.24.75.75,0,0,1-.24-.55Zm1.31-15a.79.79,0,0,1,.78-.78h16a.74.74,0,0,1,.55.23.75.75,0,0,1,.24.55V139a.75.75,0,0,1-.24.57.77.77,0,0,1-.55.22h-16a.77.77,0,0,1-.55-.22A.74.74,0,0,1,51,139Zm1.66,7.35a.81.81,0,0,1,.22-.58.77.77,0,0,1,.56-.23H66a.78.78,0,0,1,.55.23.82.82,0,0,1,.23.58v1.79a.82.82,0,0,1-.23.58.78.78,0,0,1-.55.23H53.45a.77.77,0,0,1-.56-.23.81.81,0,0,1-.22-.58Z"/><path d="M75.74,135a.84.84,0,0,1,.4-.47.8.8,0,0,1,.36-.09.85.85,0,0,1,.25.05l1.52.47a.7.7,0,0,1,.46.38.76.76,0,0,1,0,.61,35.71,35.71,0,0,1-1.44,3.5.45.45,0,0,0,0,.2v15.64a.74.74,0,0,1-.24.56.77.77,0,0,1-.55.22H74.9a.77.77,0,0,1-.78-.78V145s0,0,0,0h0q-.27.39-.54.72a.4.4,0,0,1-.42.15.45.45,0,0,1-.34-.3c-.29-.77-.6-1.5-.94-2.21a1.32,1.32,0,0,1-.14-.56,1.21,1.21,0,0,1,.29-.76A23.11,23.11,0,0,0,75.74,135ZM79.08,136a.73.73,0,0,1,.24-.56.81.81,0,0,1,.57-.23H92.31a.82.82,0,0,1,.58.23.75.75,0,0,1,.23.56v19a.8.8,0,0,1-.81.79H90.74a.76.76,0,0,1-.57-.24.75.75,0,0,1-.24-.55v-.25a.08.08,0,0,0-.09-.09H82.23q-.12,0-.12.09v.45a.74.74,0,0,1-.23.55.75.75,0,0,1-.55.24H79.89a.78.78,0,0,1-.57-.24.75.75,0,0,1-.24-.55Zm3,15.65a.11.11,0,0,0,.12.12h7.61q.09,0,.09-.12V138.21a.08.08,0,0,0-.09-.09H82.23q-.12,0-.12.09Zm7.46-9.47a.81.81,0,0,1-.23.57.74.74,0,0,1-.55.23H87.33a.08.08,0,0,0-.09.09v1.51a.08.08,0,0,0,.09.09H88.4a.78.78,0,0,1,.58.24.78.78,0,0,1,.23.57v4.62a.79.79,0,0,1-.81.81H83.71a.78.78,0,0,1-.57-.23.78.78,0,0,1-.24-.58v-4.62a.82.82,0,0,1,.81-.81h.85q.12,0,.12-.09V143.1s0-.09-.12-.09H83.31a.74.74,0,0,1-.57-.23.8.8,0,0,1-.22-.57v-.77a.8.8,0,0,1,.22-.57.75.75,0,0,1,.57-.24h1.25q.12,0,.12-.09v-1.32a.74.74,0,0,1,.23-.55.75.75,0,0,1,.55-.24h1a.78.78,0,0,1,.57.24.75.75,0,0,1,.24.55v1.32a.08.08,0,0,0,.09.09h1.46a.75.75,0,0,1,.55.24.81.81,0,0,1,.23.57Zm-2.94,6.51c.06,0,.09,0,.09-.11v-1.55a.08.08,0,0,0-.09-.09H85.35a.08.08,0,0,0-.09.09v1.55c0,.07,0,.11.09.11Z"/><path d="M116.3,151.08a.54.54,0,0,1,.18.51.56.56,0,0,1-.31.45l-1.51.88s0,0,0,0,0,0,0,0l1.51-.05a.52.52,0,0,1,.47.47.35.35,0,0,1-.07.2c-.16.39-.32.81-.47,1.26a1,1,0,0,1-.37.55,1,1,0,0,1-.62.22h-8.89a20.33,20.33,0,0,1-5.1-.51,5.78,5.78,0,0,1-3.08-2l0,0s0,0,0,0a9.08,9.08,0,0,1-1,2.43.45.45,0,0,1-.41.23h0a.65.65,0,0,1-.45-.25,10.19,10.19,0,0,0-.9-1.1,1.07,1.07,0,0,1-.27-.59v-.11a1,1,0,0,1,.13-.49,12.67,12.67,0,0,0,1-5.37.75.75,0,0,1,.24-.55.78.78,0,0,1,.57-.24h1.06a.74.74,0,0,1,.56.24.68.68,0,0,1,.2.55c0,.63,0,1.16-.07,1.59a.36.36,0,0,0,0,.21,5.93,5.93,0,0,0,.76,1.34s0,0,0,0V146.5q0-.12-.09-.12H96a.74.74,0,0,1-.55-.23.75.75,0,0,1-.24-.55v-.81A.82.82,0,0,1,96,144h8.78a.8.8,0,0,1,.81.79v.81a.79.79,0,0,1-.81.78h-2.56c-.07,0-.11,0-.11.12v1.3a.1.1,0,0,0,.11.11h2.14a.74.74,0,0,1,.56.24.75.75,0,0,1,.22.55v.78a.75.75,0,0,1-.22.55.74.74,0,0,1-.56.24h-2.14a.1.1,0,0,0-.11.11v2.23a.12.12,0,0,0,.11.13,22.79,22.79,0,0,0,4,.27h.18l0,0a.09.09,0,0,0,0-.05q-.64-.63-1.23-1.14a.45.45,0,0,1-.18-.43.41.41,0,0,1,.27-.38,9.6,9.6,0,0,0,2.15-1.44,1.38,1.38,0,0,1,.92-.38,1.15,1.15,0,0,1,.39.07l1.19.36a.53.53,0,0,1,.37.37.49.49,0,0,1-.1.48,13.83,13.83,0,0,1-3,2.52s0,0,0,0l0,0c3.13,0,5.48,0,7.07,0,.08,0,.09,0,0-.07a17.16,17.16,0,0,0-2.45-2.45.5.5,0,0,1-.18-.46.41.41,0,0,1,.27-.39l1.14-.59s0,0,0,0H107a.75.75,0,0,1-.57-.24.78.78,0,0,1-.24-.57V139a.82.82,0,0,1,.81-.79h2.11a.12.12,0,0,0,.14-.11l.2-.7c0-.06,0-.09-.07-.09h-3a.74.74,0,0,1-.55-.23.78.78,0,0,1-.24-.57v-.7a.76.76,0,0,1,.24-.57.75.75,0,0,1,.55-.24h9.07a.8.8,0,0,1,.81.81v.7a.81.81,0,0,1-.23.57.78.78,0,0,1-.58.23h-2.89a.15.15,0,0,0-.14.09l-.36.72c0,.06,0,.09.07.09h2.79a.74.74,0,0,1,.56.24.77.77,0,0,1,.22.55v9.12a.8.8,0,0,1-.22.57.74.74,0,0,1-.56.24H114s0,0,0,0,0,0,0,0A16.28,16.28,0,0,1,116.3,151.08ZM104,135a.8.8,0,0,1,.81.81v6.26a.8.8,0,0,1-.81.81h-7a.8.8,0,0,1-.79-.81v-6.26a.8.8,0,0,1,.79-.81Zm-2.38,2.9c.07,0,.11,0,.11-.09v-.52c0-.06,0-.09-.11-.09h-2.4a.08.08,0,0,0-.09.09v.52a.08.08,0,0,0,.09.09Zm0,2.78c.07,0,.11,0,.11-.09v-.54c0-.06,0-.09-.11-.09h-2.4a.08.08,0,0,0-.09.09v.54a.08.08,0,0,0,.09.09Zm10.91.47c.06,0,.09,0,.09-.11v-.49q0-.12-.09-.12h-3.27a.11.11,0,0,0-.12.12v.49c0,.08,0,.11.12.11Zm0,2.79c.06,0,.09,0,.09-.11v-.52a.08.08,0,0,0-.09-.09h-3.27q-.12,0-.12.09v.52c0,.07,0,.11.12.11Zm0,2.78c.06,0,.09,0,.09-.11v-.52a.08.08,0,0,0-.09-.09h-3.27q-.12,0-.12.09v.52c0,.08,0,.11.12.11Z"/><path d="M120.32,135.6a.75.75,0,0,1,.24-.55.78.78,0,0,1,.57-.23h15.23a.81.81,0,0,1,.57.23.75.75,0,0,1,.24.55v18.78a.76.76,0,0,1-.24.57.78.78,0,0,1-.57.24h-2a.8.8,0,0,1-.78-.81v-.45q0-.09-.12-.09h-9.66c-.07,0-.11,0-.11.09v.45a.79.79,0,0,1-.23.57.75.75,0,0,1-.55.24h-1.8a.75.75,0,0,1-.57-.24.76.76,0,0,1-.24-.57Zm13.28,2.56q0-.09-.12-.09h-9.66c-.07,0-.11,0-.11.09V140a.1.1,0,0,0,.11.11h9.66c.08,0,.12,0,.12-.11Zm0,5.17c0-.08,0-.11-.12-.11h-9.66a.1.1,0,0,0-.11.11v1.93c0,.06,0,.09.11.09h9.66q.12,0,.12-.09Zm-9.89,7.14c0,.06,0,.09.11.09h9.66q.12,0,.12-.09v-1.88q0-.09-.12-.09h-9.66c-.07,0-.11,0-.11.09Z"/></g></g></svg>