<svg xmlns="http://www.w3.org/2000/svg" viewBox="0 0 129.45 145.27"><defs><style>.cls-1{fill:#fff;}.cls-2{fill:#e85e38;}.cls-3{fill:#d4145a;}.cls-4{fill:#00a99d;}</style></defs><g id="圖層_2" data-name="圖層 2"><g id="圖層_1-2" data-name="圖層 1"><rect class="cls-1" x="8.36" y="1.5" width="113.49" height="57.88"/><path d="M123.35,60.88H6.86V0H123.35Zm-113.49-3H120.35V3H9.86Z"/><rect y="92.35" width="43.88" height="24.18"/><rect x="42.17" y="121.09" width="87.28" height="24.18"/><path class="cls-2" d="M17,110.71a.07.07,0,0,0,.08.08h4.81a.65.65,0,0,1,.5.22.67.67,0,0,1,.22.52V113a.67.67,0,0,1-.22.52.65.65,0,0,1-.5.22H8.48a.75.75,0,0,1-.74-.74v-1.46a.75.75,0,0,1,.74-.74h5.3a.07.07,0,0,0,.08-.08v-4.38c0-.07,0-.11-.08-.11h-3a.72.72,0,0,1-.71-.71v-.41h0a21.55,21.55,0,0,1-4.79,7.55.6.6,0,0,1-.49.17.64.64,0,0,1-.47-.27c-.34-.45-.7-.89-1.06-1.33a.66.66,0,0,1-.19-.47.69.69,0,0,1,.23-.53Q6.6,107,8.33,100.64c0-.06,0-.09-.08-.09H4.32a.7.7,0,0,1-.52-.21.69.69,0,0,1-.22-.52V98.35a.73.73,0,0,1,.74-.73H9c.06,0,.1,0,.1-.08.15-.75.29-1.6.43-2.55a.67.67,0,0,1,.28-.49.75.75,0,0,1,.45-.14h.08l1.76.22a.55.55,0,0,1,.45.27.73.73,0,0,1,.14.53c-.15.85-.29,1.57-.41,2.16,0,0,0,.08.08.08h9.26a.72.72,0,0,1,.52.21.73.73,0,0,1,.21.52v1.47a.72.72,0,0,1-.73.73h-10a.12.12,0,0,0-.13.09c-.24.93-.5,1.8-.77,2.61,0,0,0,.08.06.08H21.22a.66.66,0,0,1,.51.21.7.7,0,0,1,.21.5v1.47a.69.69,0,0,1-.21.5.66.66,0,0,1-.51.21H17.08s-.08,0-.08.11Z"/><path class="cls-2" d="M43.14,99.88a.7.7,0,0,1-.21.52.73.73,0,0,1-.52.22H32.56c-.07,0-.11,0-.12.08a29.79,29.79,0,0,1-1.25,2.81c0,.06,0,.08,0,.08H41a.66.66,0,0,1,.5.22.71.71,0,0,1,.22.52v9a.7.7,0,0,1-.22.5.69.69,0,0,1-.5.21H39.27a.73.73,0,0,1-.74-.71v-.24c0-.06,0-.09-.08-.09H31.7c-.05,0-.08,0-.08.09v.34a.66.66,0,0,1-.21.51.73.73,0,0,1-.52.21H29.3a.7.7,0,0,1-.52-.21.64.64,0,0,1-.22-.51v-5.81s0,0,0,0,0,0,0,0a15.82,15.82,0,0,1-2.24,2.18.61.61,0,0,1-.52.13.66.66,0,0,1-.46-.27c-.34-.45-.71-.89-1.1-1.33a.6.6,0,0,1-.16-.42.65.65,0,0,1,.24-.53,16.09,16.09,0,0,0,4.85-6.63c0-.06,0-.08-.06-.08H25.16a.71.71,0,0,1-.52-.22.67.67,0,0,1-.22-.52V98.37a.73.73,0,0,1,.74-.73h4.95c.07,0,.11,0,.12-.08A26.53,26.53,0,0,0,30.87,95a.7.7,0,0,1,.3-.45.64.64,0,0,1,.41-.14.36.36,0,0,1,.14,0l1.78.32A.64.64,0,0,1,34,95a.65.65,0,0,1,.08.54c-.14.57-.32,1.24-.53,2,0,0,0,.08.06.08h8.85a.72.72,0,0,1,.52.21.73.73,0,0,1,.21.52Zm-4.61,6.73s0-.08-.08-.08H31.7a.07.07,0,0,0-.08.08V110c0,.06,0,.1.08.1h6.75c.06,0,.08,0,.08-.1Z"/><path d="M49.63,101.49a.65.65,0,0,1,.29.46.68.68,0,0,1-.11.54l-.94,1.35a.61.61,0,0,1-.44.28.71.71,0,0,1-.54-.14,16.67,16.67,0,0,0-2.54-1.43.59.59,0,0,1-.33-.38,1,1,0,0,1,0-.17.51.51,0,0,1,.1-.32l.8-1.13a.88.88,0,0,1,.49-.35,1,1,0,0,1,.61,0A18,18,0,0,1,49.63,101.49ZM48.3,113.2a.63.63,0,0,1-.43.31.6.6,0,0,1-.53-.11l-1.46-1.06a.68.68,0,0,1-.31-.47v-.14a.8.8,0,0,1,.1-.41,56.47,56.47,0,0,0,3-5.38.57.57,0,0,1,.88-.19l1.2,1a1,1,0,0,1,.32.51,1,1,0,0,1-.08.62Q49.7,110.67,48.3,113.2Zm2.53-17.31a.64.64,0,0,1,.32.46.67.67,0,0,1-.14.55l-.91,1.31a.66.66,0,0,1-.46.27.69.69,0,0,1-.52-.15,16.35,16.35,0,0,0-2.51-1.47.61.61,0,0,1-.32-.38.62.62,0,0,1,.1-.51l.77-1.06a.82.82,0,0,1,.49-.35.84.84,0,0,1,.27,0,1,1,0,0,1,.34.06A18.54,18.54,0,0,1,50.83,95.89Zm12.89,4.64a.69.69,0,0,1,.5.21.66.66,0,0,1,.21.51v2.69a.69.69,0,0,1-.21.51.68.68,0,0,1-.5.2H62.48c-.06,0-.09,0-.09.11v6.77a3.51,3.51,0,0,1-.22,1.42,1.61,1.61,0,0,1-.82.78,6.53,6.53,0,0,1-2.5.39.8.8,0,0,1-.54-.2,1,1,0,0,1-.34-.5,7.54,7.54,0,0,0-.33-1,.45.45,0,0,1,.06-.42.46.46,0,0,1,.39-.21l1.12,0c.25,0,.37-.11.37-.34v-.31c0-.06,0-.08-.1-.08H55.24c-.06,0-.09,0-.09.08v2.22a.66.66,0,0,1-.21.51.72.72,0,0,1-.52.21H53.09a.73.73,0,0,1-.52-.21.66.66,0,0,1-.21-.51v-8.64c0-.07,0-.11-.08-.11h-1a.69.69,0,0,1-.52-.2.7.7,0,0,1-.22-.51v-2.69a.67.67,0,0,1,.22-.51.7.7,0,0,1,.52-.21h1c.05,0,.08,0,.08-.1V95.7a.72.72,0,0,1,.21-.52A.73.73,0,0,1,53,95h8.71a.72.72,0,0,1,.52.21.73.73,0,0,1,.22.52v4.73c0,.07,0,.1.08.1Zm-2.29,3c.07,0,.11,0,.11-.08v-.55c0-.07,0-.1-.11-.1H53.36c-.07,0-.1,0-.1.1v.55c0,.06,0,.08.1.08Zm-6.32-6.28c-.06,0-.1,0-.1.08v3.1a.09.09,0,0,0,.1.1h.82c.07,0,.1,0,.1-.1V98.66a.7.7,0,0,1,.71-.72h2.78c.07,0,.1,0,.1-.1v-.51s0-.08-.1-.08Zm0,9a.08.08,0,0,0,.09.09h4.24c.07,0,.1,0,.1-.09v-.34c0-.06,0-.08-.1-.08H55.24c-.06,0-.09,0-.09.08Zm0,2.66s0,.08.09.08h4.24c.07,0,.1,0,.1-.08v-.37c0-.06,0-.08-.1-.08H55.24c-.06,0-.09,0-.09.08Zm3.1-8.47c0,.07,0,.1.11.1h1.16c.07,0,.1,0,.1-.1v-.61s0-.08-.1-.08H58.36c-.07,0-.11,0-.11.08Z"/><path d="M80.89,98.8c0,.07,0,.1.1.1h3.3a.72.72,0,0,1,.72.72v.57q-.15,6.72-.33,9.3a8.25,8.25,0,0,1-.65,3.28,2.64,2.64,0,0,1-.78.81,3.16,3.16,0,0,1-1,.39,8.43,8.43,0,0,1-1.83.15h-.08a.75.75,0,0,1-.53-.22.93.93,0,0,1-.29-.52,7.58,7.58,0,0,0-.47-1.51.48.48,0,0,1,0-.42.4.4,0,0,1,.36-.17l1.24,0a.84.84,0,0,0,.72-.37,6.59,6.59,0,0,0,.44-2.44q.15-2,.21-6.73c0-.06,0-.08-.08-.08H80.91c-.07,0-.1,0-.1.08A30,30,0,0,1,79.68,109a10.7,10.7,0,0,1-3,4.82.52.52,0,0,1-.48.16.65.65,0,0,1-.46-.28,9.85,9.85,0,0,0-.88-1,.2.2,0,0,0-.14-.06l-8.08.75a.72.72,0,0,1-.54-.17.8.8,0,0,1-.27-.5l-.14-1.06a.62.62,0,0,1,.15-.52.6.6,0,0,1,.48-.24l3.28-.2a.09.09,0,0,0,.08-.1v-.72c0-.06,0-.1-.08-.1H66.92a.75.75,0,0,1-.52-.2.69.69,0,0,1-.21-.51v-.67a.73.73,0,0,1,.73-.72h2.69c.06,0,.08,0,.08-.1v-.35c0-.06,0-.1-.08-.1H67a.72.72,0,0,1-.52-.21.7.7,0,0,1-.21-.5v-5.2a.66.66,0,0,1,.21-.51.72.72,0,0,1,.52-.21h2.61c.06,0,.08,0,.08-.1v-.32c0-.07,0-.11-.08-.11H66.49a.7.7,0,0,1-.5-.21.69.69,0,0,1-.21-.5v-.71a.66.66,0,0,1,.21-.51.7.7,0,0,1,.5-.21h3.12c.06,0,.08,0,.08-.1v-.3c0-.07,0-.11-.08-.11-.84.06-1.68.09-2.51.11a.81.81,0,0,1-.55-.18.89.89,0,0,1-.32-.5c-.07-.26-.15-.51-.23-.75a.57.57,0,0,1,0-.48.51.51,0,0,1,.4-.24,60.56,60.56,0,0,0,7.61-.83h.2a1.19,1.19,0,0,1,.41.08,1,1,0,0,1,.47.41l.55,1a.53.53,0,0,1,0,.49.48.48,0,0,1-.38.28c-.76.14-1.7.27-2.81.39-.07,0-.1,0-.1.1v.55c0,.07,0,.1.1.1h3a.7.7,0,0,1,.52.21.64.64,0,0,1,.22.51v.71a.66.66,0,0,1-.22.5.7.7,0,0,1-.52.21h-3c-.07,0-.1,0-.1.11v.32c0,.07,0,.1.1.1h2.69a.7.7,0,0,1,.71.72v5.2a.74.74,0,0,1-.2.5.69.69,0,0,1-.51.21H72.53a.09.09,0,0,0-.1.1v.35c0,.07,0,.1.1.1h2.81a.67.67,0,0,1,.52.22.7.7,0,0,1,.22.5v1.3s0,0,0,0h0a10.92,10.92,0,0,0,1.3-3.38,28.66,28.66,0,0,0,.53-4.57c0-.07,0-.1-.1-.1H77a.68.68,0,0,1-.5-.22.7.7,0,0,1-.21-.52V99.62a.69.69,0,0,1,.21-.5.68.68,0,0,1,.5-.22h.9c.07,0,.1,0,.1-.1V95.38a.75.75,0,0,1,.72-.72h1.46a.65.65,0,0,1,.5.22.66.66,0,0,1,.22.5C80.91,96.83,80.9,98,80.89,98.8Zm-12.13,3.55c-.07,0-.11,0-.11.08v.45c0,.05,0,.08.11.08h.85c.06,0,.08,0,.08-.08v-.45c0-.05,0-.08-.08-.08Zm-.11,2.87c0,.06,0,.09.11.09h.85c.06,0,.08,0,.08-.09v-.44c0-.07,0-.11-.08-.11h-.85a.1.1,0,0,0-.11.11Zm4.82-2.79c0-.05,0-.08-.11-.08h-.83c-.07,0-.1,0-.1.08v.45c0,.05,0,.08.1.08h.83c.07,0,.11,0,.11-.08Zm-.11,2.88c.07,0,.11,0,.11-.09v-.44a.1.1,0,0,0-.11-.11h-.83c-.07,0-.1,0-.1.11v.44c0,.06,0,.09.1.09Zm-.83,4.48a.09.09,0,0,0-.1.1v.53c0,.06,0,.09.1.09l3.14-.25a.19.19,0,0,0,.14-.08c.08-.12.15-.22.2-.31s0-.08,0-.08Z"/><path d="M103.73,108.61a.66.66,0,0,1-.22.5.7.7,0,0,1-.52.21h-2.4v0q2.89,1.06,4.89,2a.38.38,0,0,1,.23.37.41.41,0,0,1-.19.33l-1.85,1.22a1.26,1.26,0,0,1-.64.2,1.22,1.22,0,0,1-.61-.18,32,32,0,0,0-4.61-2.1.42.42,0,0,1-.12-.71l1.25-1.07v0a0,0,0,0,0,0,0h-5s0,0,0,0v0l1.3,1.07a.41.41,0,0,1,.17.39.47.47,0,0,1-.27.38,36.74,36.74,0,0,1-5.59,2.18,1.06,1.06,0,0,1-.34.06,1,1,0,0,1-.8-.43c-.37-.43-.74-.84-1.12-1.24a.39.39,0,0,1-.12-.28.27.27,0,0,1,0-.13.37.37,0,0,1,.28-.28A26.06,26.06,0,0,0,92,109.36s0,0,0,0H89.94a.7.7,0,0,1-.5-.21.69.69,0,0,1-.21-.5V99.07a.69.69,0,0,1,.21-.5.68.68,0,0,1,.5-.22h4.49a.09.09,0,0,0,.1-.08c0-.15.06-.39.1-.73,0-.06,0-.08-.08-.08H88.27a.7.7,0,0,1-.5-.22.69.69,0,0,1-.21-.5v-1.3a.7.7,0,0,1,.21-.52.66.66,0,0,1,.5-.22h16.15a.66.66,0,0,1,.5.22.7.7,0,0,1,.21.52v1.3a.69.69,0,0,1-.21.5.7.7,0,0,1-.5.22H98.26c-.07,0-.11,0-.12.08-.11.31-.2.55-.26.73s0,.08.06.08h5a.67.67,0,0,1,.52.22.66.66,0,0,1,.22.5Zm-11.26-8s-.08,0-.08.08v.57a.07.07,0,0,0,.08.08h7.83c.07,0,.1,0,.1-.08v-.57c0-.06,0-.08-.1-.08Zm0,2.85a.07.07,0,0,0-.08.08v.53c0,.07,0,.1.08.1h7.83c.07,0,.1,0,.1-.1v-.53s0-.08-.1-.08Zm0,2.86s-.08,0-.08.08V107a.07.07,0,0,0,.08.08h7.83c.07,0,.1,0,.1-.08v-.57c0-.06,0-.08-.1-.08Z"/><path d="M126.89,97a.7.7,0,0,1-.21.5.72.72,0,0,1-.52.21h-7.34a.13.13,0,0,0-.13.08l-.42,1.31c0,.05,0,.08.06.08h6.93a.69.69,0,0,1,.5.21.74.74,0,0,1,.22.52v13a.75.75,0,0,1-.72.72h-1.67a.73.73,0,0,1-.71-.74v-.2c0-.07,0-.1-.11-.1H111.64c-.07,0-.1,0-.1.1v.2a.67.67,0,0,1-.22.52.7.7,0,0,1-.5.22h-1.46a.71.71,0,0,1-.52-.22.67.67,0,0,1-.22-.52v-13a.68.68,0,0,1,.22-.5.7.7,0,0,1,.52-.21h5.58a.09.09,0,0,0,.1-.08l.11-.65.08-.66s0-.08-.08-.08h-6.61a.72.72,0,0,1-.52-.21.7.7,0,0,1-.21-.5V95.6a.69.69,0,0,1,.21-.5.72.72,0,0,1,.52-.21h17.62a.72.72,0,0,1,.52.21.69.69,0,0,1,.21.5Zm-15.25,5a.09.09,0,0,0-.1.1v7.63c0,.07,0,.1.1.1h1.47s.08,0,.08-.1v-7.63c0-.06,0-.1-.08-.1Zm6.69,1s.08,0,.08-.1v-.78c0-.06,0-.1-.08-.1H116s-.08,0-.08.1v.78c0,.07,0,.1.08.1Zm0,3.45a.07.07,0,0,0,.08-.08v-.94c0-.06,0-.08-.08-.08H116s-.08,0-.08.08v.94a.07.07,0,0,0,.08.08ZM116,108.75s-.08,0-.08.1v.86c0,.07,0,.1.08.1h2.37s.08,0,.08-.1v-.86c0-.06,0-.1-.08-.1Zm6.81,1.06c.07,0,.11,0,.11-.1v-7.63a.1.1,0,0,0-.11-.1h-1.55a.09.09,0,0,0-.1.1v7.63a.09.09,0,0,0,.1.1Z"/><path d="M7,130.48a.71.71,0,0,1,.28.49.65.65,0,0,1-.16.55l-.88,1.17a.57.57,0,0,1-.45.24.74.74,0,0,1-.52-.16,19.16,19.16,0,0,0-1.86-1.27.61.61,0,0,1-.31-.42V131a.55.55,0,0,1,.13-.36l.75-1a.93.93,0,0,1,.51-.32.87.87,0,0,1,.59.07A17.54,17.54,0,0,1,7,130.48Zm-1.2,11.63a.61.61,0,0,1-.37.38.57.57,0,0,1-.51,0l-1.35-.67a.7.7,0,0,1-.37-.42.69.69,0,0,1,0-.58c.62-1.63,1.21-3.4,1.75-5.32a.5.5,0,0,1,.32-.37.59.59,0,0,1,.5,0l1.1.64a.92.92,0,0,1,.4.45,1,1,0,0,1,0,.63C6.86,138.68,6.35,140.42,5.81,142.11Zm8.85-6.67a.7.7,0,0,1-.22.5.69.69,0,0,1-.5.21h-.63a.09.09,0,0,0-.1.1v.33c0,.07,0,.1.1.1h1.9a.67.67,0,0,1,.51.22.72.72,0,0,1,.2.5V138a.74.74,0,0,1-.2.5.69.69,0,0,1-.51.21H15s0,0,0,0l.17,0a.56.56,0,0,1,.36.8l-.34.63s0,0,0,0,0,0,0,0l.18,0a.73.73,0,0,1,.52.17.74.74,0,0,1,.24.48v.53a.81.81,0,0,1-.7.8c-2.51.28-4.8.54-6.87.75a.78.78,0,0,1-.55-.16.8.8,0,0,1-.31-.49l-.1-.71a.61.61,0,0,1,.12-.52.66.66,0,0,1,.47-.26l.68,0c.06,0,.09,0,.08-.1a7.59,7.59,0,0,0-.29-1,.7.7,0,0,1,0-.55.63.63,0,0,1,.41-.35l.33-.1v0H8.84a.69.69,0,0,1-.51-.21.74.74,0,0,1-.2-.5v-.55a.72.72,0,0,1,.2-.5.67.67,0,0,1,.51-.22h2c.07,0,.1,0,.1-.1v-.33a.09.09,0,0,0-.1-.1H9.86a.33.33,0,0,1-.27-.11.35.35,0,0,1-.11-.27.06.06,0,0,0-.05,0l-.3.22a.75.75,0,0,1-.56.11.78.78,0,0,1-.5-.29,6,6,0,0,0-.65-.68.55.55,0,0,1-.18-.43.46.46,0,0,1,.24-.38,10.08,10.08,0,0,0,3.12-2.88.35.35,0,0,1,.3-.16s0,0,0,0l0,0a.61.61,0,0,1-.12-.42.64.64,0,0,1,.18-.4,1.84,1.84,0,0,0,.29-.26c-.08,0-.13,0-.14-.1V130h0L8.44,131.1a.62.62,0,0,1-.53,0,.71.71,0,0,1-.37-.41l-.31-1a.48.48,0,0,1,0-.39.55.55,0,0,1,.32-.24s.06,0,.06-.08v-2.7s0,0,0,0h0l-.88,1.1a.55.55,0,0,1-.45.24.69.69,0,0,1-.5-.17A14,14,0,0,0,3.91,126a.64.64,0,0,1-.29-.43v-.12a.6.6,0,0,1,.15-.39l.77-.94a.89.89,0,0,1,.52-.3.82.82,0,0,1,.58.08,15.57,15.57,0,0,1,1.94,1.26s.08,0,.08,0v-.41a.48.48,0,0,1,.22-.42.5.5,0,0,1,.47-.09l.76.25a.17.17,0,0,0,.16,0,10.66,10.66,0,0,0,.92-.72.83.83,0,0,1,.53-.18.79.79,0,0,1,.53.2l.63.64s0,0,0,0a.34.34,0,0,1,.07-.19.28.28,0,0,1,.2-.08H16a.64.64,0,0,1,.51.22.7.7,0,0,1,.21.52.16.16,0,0,1,0,.08c0,2-.05,3.49-.12,4.36a4,4,0,0,1-.36,1.67,1.62,1.62,0,0,1-1,.68,4.39,4.39,0,0,1-.66.08.7.7,0,0,1-.52-.19.87.87,0,0,1-.29-.51,5.25,5.25,0,0,0-.23-.91s0,0,0,0,0,0,0,0a4.55,4.55,0,0,1-.73,1.14v0a.81.81,0,0,1,.39.1,21.81,21.81,0,0,1,3.22,2.33.71.71,0,0,1,.24.52.77.77,0,0,1-.18.56l-.57.69a.58.58,0,0,1-.46.23.6.6,0,0,1-.48-.19l-.14-.14s0,0,0,0,0,0,0,.05Zm-3.76,3.32a.09.09,0,0,0-.1-.1h-.51s-.07,0,0,.08a5.72,5.72,0,0,1,.33.78.73.73,0,0,1,0,.56.81.81,0,0,1-.45.38l-.72.24v0l1.43-.1c.07,0,.1-.05.1-.1Zm-1.06-10.4c0,.06,0,.08.1.06l.6-.18a.08.08,0,0,0,.06-.1l-.12-.33a.76.76,0,0,1,.4-1l.17-.06a.7.7,0,0,1,.95.39c0,.06.1.21.21.47a0,0,0,0,0,0,0,0,0,0,0,0,0,0c.05-.44.09-.92.1-1.47,0,0,0,0,0,0A.42.42,0,0,1,12,126a.4.4,0,0,1-.12-.29v-.51s0-.06-.08,0c-.75.49-1.37.87-1.88,1.14a.15.15,0,0,0-.1.13Zm1.37,5.92s0,0,0,0l0,0h2.28s0,0,0,0,0,0,0,0a14.9,14.9,0,0,0-1.26-1,.11.11,0,0,0-.14,0C11.94,133.54,11.63,133.86,11.21,134.28Zm2.69,4.46c0-.05,0-.08-.06-.08h-.53a.09.09,0,0,0-.1.1v1.55c0,.06,0,.08.1.08l.79-.08s0,0,0,0a.56.56,0,0,1-.39-.29.73.73,0,0,1-.06-.5C13.77,139.21,13.85,139,13.9,138.74Zm.69-12.52s0-.08-.1-.08h-.22c-.07,0-.1,0-.1.08a12.69,12.69,0,0,1-.53,3.37s0,.08.06.08l.26,0a.41.41,0,0,0,.41-.23A15.42,15.42,0,0,0,14.59,126.22Zm3.92-.1a.72.72,0,0,1,.5.2.69.69,0,0,1,.21.51v10.59a.73.73,0,0,1-.21.52.69.69,0,0,1-.5.21h-.9a.69.69,0,0,1-.51-.21.77.77,0,0,1-.2-.52V126.83a.68.68,0,0,1,.71-.71Zm1.3-1.88a.72.72,0,0,1,.22-.5.69.69,0,0,1,.5-.21h1a.73.73,0,0,1,.52.21.7.7,0,0,1,.21.5v15.83A4.62,4.62,0,0,1,22,141.7a1.79,1.79,0,0,1-.78.9,6.6,6.6,0,0,1-2.83.53h0a.79.79,0,0,1-.53-.21,1,1,0,0,1-.31-.51,12.3,12.3,0,0,0-.37-1.3.53.53,0,0,1,0-.16.48.48,0,0,1,.11-.29.42.42,0,0,1,.38-.2l1.72,0a.46.46,0,0,0,.35-.1.47.47,0,0,0,.09-.33Z"/><path d="M38.31,140.7h2.1a.82.82,0,0,0,.5-.12.9.9,0,0,0,.23-.53.55.55,0,0,1,.29-.37.48.48,0,0,1,.45,0,7.71,7.71,0,0,0,1.12.39.85.85,0,0,1,.47.32.74.74,0,0,1,.12.39.78.78,0,0,1,0,.16,2.5,2.5,0,0,1-.9,1.6,3.57,3.57,0,0,1-2,.42H37.9a4.5,4.5,0,0,1-2.76-.59,2.77,2.77,0,0,1-.71-2.2v-.41c0-.07,0-.1-.1-.1H32.66s-.09,0-.12.1a3.59,3.59,0,0,1-1,1.58,5.36,5.36,0,0,1-2.07,1.07,19.77,19.77,0,0,1-3.73.7h-.08a.86.86,0,0,1-.49-.15,1.05,1.05,0,0,1-.41-.47,7.75,7.75,0,0,0-.57-1,.35.35,0,0,1-.08-.22.42.42,0,0,1,.12-.29.37.37,0,0,1,.24-.1,20.6,20.6,0,0,0,3.46-.35,2.59,2.59,0,0,0,1.46-.75c0-.05,0-.08,0-.08H27.75a.7.7,0,0,1-.52-.21.68.68,0,0,1-.22-.5v-5.75a.66.66,0,0,1,.22-.5.67.67,0,0,1,.52-.22H39.84a.73.73,0,0,1,.73.72v5.75a.7.7,0,0,1-.21.5.72.72,0,0,1-.52.21H37.49a.09.09,0,0,0-.1.1v.39c0,.26.06.42.17.48A1.88,1.88,0,0,0,38.31,140.7ZM33,130.38a.72.72,0,0,1,.52.21.66.66,0,0,1,.21.51v.18a.69.69,0,0,1-.21.51.71.71,0,0,1-.52.2H25.59a.72.72,0,0,1-.72-.71v-6.65a.69.69,0,0,1,.22-.52.67.67,0,0,1,.5-.21h7.26a.73.73,0,0,1,.73.73v.21a.68.68,0,0,1-.22.5.69.69,0,0,1-.51.21H30.93c-.06,0-.08,0-.08.1V126c0,.07,0,.1.08.1h2.22c.07,0,.1,0,.1.1s0,0,0,0a6.71,6.71,0,0,0,1.84-2.2,1.24,1.24,0,0,1,.43-.45,1,1,0,0,1,.44-.1h.15l1.32.22a.41.41,0,0,1,.31.21.38.38,0,0,1,0,.36s0,.07,0,.07h4.67a.71.71,0,0,1,.52.2.69.69,0,0,1,.21.51v.37a.73.73,0,0,1-.21.52.72.72,0,0,1-.52.21H36.84a.19.19,0,0,0-.14.08l-.21.29s0,.06,0,.06h5.05a.73.73,0,0,1,.74.73v.17a.68.68,0,0,1-.22.5.7.7,0,0,1-.52.21H36.41a.68.68,0,0,1-.69-.69l-.06,0a2.23,2.23,0,0,1-.27.26.6.6,0,0,1-.52.17.8.8,0,0,1-.5-.23,8.58,8.58,0,0,0-1-.9s-.08,0-.08,0V129a.77.77,0,0,1-.2.52.69.69,0,0,1-.51.21H30.93c-.06,0-.08,0-.08.08v.49c0,.07,0,.1.08.1Zm-4.53-4.73c0-.07,0-.1-.1-.1h-.9c-.05,0-.08,0-.08.1V126c0,.07,0,.1.08.1h.9c.07,0,.1,0,.1-.1Zm2.22,2.06c0-.07,0-.1-.08-.1H27.5c-.05,0-.08,0-.08.1v.43a.07.07,0,0,0,.08.08h3.14c.06,0,.08,0,.08-.08Zm-3.22,2a.07.07,0,0,0-.08.08v.49c0,.07,0,.1.08.1h.9c.07,0,.1,0,.1-.1v-.49s0-.08-.1-.08ZM30,133.93a.07.07,0,0,0-.08.08v.33a.07.07,0,0,0,.08.08h7.5c.06,0,.09,0,.09-.08V134s0-.08-.09-.08Zm0,1.88s-.08,0-.08.08v.32c0,.06,0,.09.08.09h7.5a.08.08,0,0,0,.09-.09v-.32c0-.06,0-.08-.09-.08Zm0,1.87a.07.07,0,0,0-.08.08v.33c0,.07,0,.1.08.1h7.5c.06,0,.09,0,.09-.1v-.33s0-.08-.09-.08ZM35.15,132a.72.72,0,0,1-.5-.2.7.7,0,0,1-.22-.51v-1.94a.7.7,0,0,1,.22-.51.72.72,0,0,1,.5-.2h7a.7.7,0,0,1,.72.71v1.94a.7.7,0,0,1-.72.71Zm1.3-2.08c-.05,0-.08,0-.08.1v.58c0,.06,0,.1.08.1h.39a.09.09,0,0,0,.1-.1V130a.09.09,0,0,0-.1-.1Zm2,0a.09.09,0,0,0-.1.1v.58a.09.09,0,0,0,.1.1h.39a.09.09,0,0,0,.1-.1V130a.09.09,0,0,0-.1-.1Zm2,0a.09.09,0,0,0-.1.1v.58a.09.09,0,0,0,.1.1h.41s.08,0,.08-.1V130c0-.06,0-.1-.08-.1Z"/><path class="cls-2" d="M56.36,131.4c0,.07,0,.08.06,0l.94-.77a.76.76,0,0,1,.54-.21,1,1,0,0,1,.58.19,74.11,74.11,0,0,1,5.77,4.81.7.7,0,0,1,.2.49.71.71,0,0,1-.24.53l-1.53,1.37a.66.66,0,0,1-.52.17.7.7,0,0,1-.48-.24,56.58,56.58,0,0,0-5.26-4.85s-.06,0-.06,0v9.42a.66.66,0,0,1-.22.5.67.67,0,0,1-.52.22H53.75a.67.67,0,0,1-.52-.22.66.66,0,0,1-.22-.5v-8.62s0,0,0,0,0,0,0,0A24.29,24.29,0,0,1,47.51,138a.79.79,0,0,1-1-.27c-.38-.55-.79-1.1-1.23-1.63a.57.57,0,0,1-.12-.35v-.12a.54.54,0,0,1,.31-.38A18.67,18.67,0,0,0,49.9,132a21.29,21.29,0,0,0,3.44-4.18s0-.06,0-.06H46.24a.73.73,0,0,1-.52-.21.72.72,0,0,1-.21-.52v-1.65a.73.73,0,0,1,.73-.74H63.13a.73.73,0,0,1,.73.74v1.65a.72.72,0,0,1-.21.52.73.73,0,0,1-.52.21H57.52c-.07,0-.12,0-.14.06-.33.59-.66,1.12-1,1.59a.35.35,0,0,0,0,.17Z"/><path class="cls-2" d="M83.89,124.26a.7.7,0,0,1,.71.72v14.8a5.06,5.06,0,0,1-.26,1.81,2,2,0,0,1-.9,1,7.19,7.19,0,0,1-3.12.57h0a.79.79,0,0,1-.53-.21.94.94,0,0,1-.31-.51,10.78,10.78,0,0,0-.55-1.63.42.42,0,0,1,0-.43.4.4,0,0,1,.38-.18l1.81,0a.61.61,0,0,0,.38-.12.51.51,0,0,0,.11-.37V127.2s0-.08-.1-.08h-12c-.07,0-.1,0-.1.08v15.23a.66.66,0,0,1-.22.5.64.64,0,0,1-.49.22H67.25a.64.64,0,0,1-.51-.22.69.69,0,0,1-.21-.5V125a.72.72,0,0,1,.72-.72ZM80,128.2a.72.72,0,0,1,.52.21.73.73,0,0,1,.21.52V130a.7.7,0,0,1-.21.52.69.69,0,0,1-.52.22H71.06a.69.69,0,0,1-.52-.22.7.7,0,0,1-.21-.52v-1.06a.73.73,0,0,1,.21-.52.72.72,0,0,1,.52-.21Zm-.08,10.3a.69.69,0,0,1-.22.52.7.7,0,0,1-.52.21h-5c-.07,0-.1,0-.1.08v.51a.75.75,0,0,1-.72.72H72a.67.67,0,0,1-.52-.22.66.66,0,0,1-.22-.5v-7.11A.75.75,0,0,1,72,132h7.13a.75.75,0,0,1,.74.74Zm-2.8-4c0-.07,0-.1-.1-.1H74.14c-.07,0-.1,0-.1.1v2.1c0,.07,0,.1.1.1H77c.07,0,.1,0,.1-.1Z"/><path class="cls-2" d="M100.51,138.8c0,.06,0,.09,0,.09h4.77a.72.72,0,0,1,.73.73v1.59a.69.69,0,0,1-.21.5.72.72,0,0,1-.52.21H87.58a.69.69,0,0,1-.5-.21.66.66,0,0,1-.22-.5v-1.59a.73.73,0,0,1,.72-.73h9.58a.12.12,0,0,0,.12-.09,41.09,41.09,0,0,0,2-8.28.71.71,0,0,1,.7-.59h.12l2.06.37a.62.62,0,0,1,.45.29.74.74,0,0,1,.1.55A70.29,70.29,0,0,1,100.51,138.8Zm4.16-12.56a.73.73,0,0,1,.73.74v1.55a.7.7,0,0,1-.21.5.73.73,0,0,1-.52.21H88.27a.72.72,0,0,1-.52-.21.7.7,0,0,1-.21-.5V127a.7.7,0,0,1,.21-.52.69.69,0,0,1,.52-.22h6.44c.06,0,.09,0,.09-.08v-2.61a.69.69,0,0,1,.21-.5.72.72,0,0,1,.52-.21h1.75a.69.69,0,0,1,.5.21.66.66,0,0,1,.22.5v2.61c0,.06,0,.08.1.08ZM94.9,136.89a.74.74,0,0,1-.11.56.81.81,0,0,1-.48.33l-1.74.49a.61.61,0,0,1-.5-.1.56.56,0,0,1-.25-.43,32.27,32.27,0,0,0-1.43-6.42.72.72,0,0,1,0-.54.68.68,0,0,1,.42-.34l1.51-.38a.69.69,0,0,1,.56.06.74.74,0,0,1,.38.43A33.06,33.06,0,0,1,94.9,136.89Z"/><path class="cls-2" d="M127.24,133.44a.75.75,0,0,1-.2.52.7.7,0,0,1-.51.22H119.1a.12.12,0,0,0-.12.08q-.14.26-.33.57s0,.08,0,.08h7.45a.69.69,0,0,1,.51.21.68.68,0,0,1,.18.5,2,2,0,0,1,0,.29,40,40,0,0,1-.47,4.37,4.32,4.32,0,0,1-.69,1.93,2.35,2.35,0,0,1-1.51.79,7.83,7.83,0,0,1-1.43.11.73.73,0,0,1-.53-.22.92.92,0,0,1-.28-.52,6.79,6.79,0,0,0-.37-1.22l0,0s0,0,0,0a13.06,13.06,0,0,1-1.41,1.61.73.73,0,0,1-.54.19.8.8,0,0,1-.54-.21,12.79,12.79,0,0,0-1-.8.42.42,0,0,1-.2-.38.52.52,0,0,1,.18-.41,11.19,11.19,0,0,0,3.1-3.81c0-.05,0-.07,0-.07h-.55c-.07,0-.12,0-.14.07a15.78,15.78,0,0,1-1.88,2.46,15.56,15.56,0,0,1-2.29,2.08.72.72,0,0,1-.55.15.93.93,0,0,1-.53-.27,7.49,7.49,0,0,0-.89-.81.46.46,0,0,1-.19-.41.45.45,0,0,1,.23-.37,13,13,0,0,0,3.26-2.83c0-.05,0-.07,0-.07h-.55a.19.19,0,0,0-.16.07,12.09,12.09,0,0,1-1.55,1.34.8.8,0,0,1-.56.15.83.83,0,0,1-.54-.25l-1-.88a.17.17,0,0,0-.17,0c-1.21.63-2.53,1.29-4,2a.68.68,0,0,1-.54,0,.54.54,0,0,1-.36-.39l-.63-1.71a.67.67,0,0,1,0-.24.63.63,0,0,1,.08-.29.69.69,0,0,1,.41-.39c.46-.16,1-.36,1.65-.61a.14.14,0,0,0,.08-.12v-5.34c0-.06,0-.09-.08-.09h-1.12a.73.73,0,0,1-.72-.73v-1.41a.7.7,0,0,1,.22-.52.69.69,0,0,1,.5-.21h1.12a.07.07,0,0,0,.08-.08v-3.2a.69.69,0,0,1,.21-.5.7.7,0,0,1,.52-.22h1.37a.65.65,0,0,1,.51.22.68.68,0,0,1,.2.5v3.2s0,.08.11.08h.94a.66.66,0,0,1,.5.21.73.73,0,0,1,.21.52v1.41a.72.72,0,0,1-.21.52.66.66,0,0,1-.5.21h-.94c-.07,0-.11,0-.11.09v4.18c0,.06,0,.08.11.06l.63-.27a.56.56,0,0,1,.52,0,.63.63,0,0,1,.33.4l.25,1c0,.05.06.06.1,0a10.49,10.49,0,0,0,1.61-1.77c0-.06,0-.08,0-.08h-1.22a.71.71,0,0,1-.52-.22.73.73,0,0,1-.22-.52v-1.06a.73.73,0,0,1,.22-.52.7.7,0,0,1,.52-.21h11.81a.69.69,0,0,1,.51.21.75.75,0,0,1,.2.52Zm-2.14-9.64a.72.72,0,0,1,.73.73v5.81a.66.66,0,0,1-.21.51.72.72,0,0,1-.52.21h-8.67a.72.72,0,0,1-.52-.21.66.66,0,0,1-.21-.51v-5.81a.72.72,0,0,1,.73-.73Zm-2.16,2.67c.06,0,.1,0,.1-.08v-.45a.1.1,0,0,0-.1-.11h-4.47c-.07,0-.1,0-.1.11v.45s0,.08.1.08Zm0,2.55c.06,0,.1,0,.1-.09v-.44a.1.1,0,0,0-.1-.11h-4.47c-.07,0-.1,0-.1.11v.44c0,.06,0,.09.1.09Zm1,8.34q0-.09-.09-.09h-.14a.1.1,0,0,0-.12.09,17.36,17.36,0,0,1-1.82,3.34c0,.05,0,.08,0,.08.25,0,.53,0,.86,0a.73.73,0,0,0,.61-.26Q123.67,140.11,123.92,137.36Z"/><path d="M92.53,34.26H37.68a2,2,0,0,1,0-4H92.53a2,2,0,1,1,0,4Z"/><polygon points="79.27 15.9 76.55 18.83 90.99 32.25 76.55 45.68 79.27 48.61 96.86 32.25 79.27 15.9"/><polygon points="50.93 15.9 53.66 18.83 39.22 32.25 53.66 45.68 50.93 48.61 33.34 32.25 50.93 15.9"/><path class="cls-3" d="M17.88,14.76a.4.4,0,0,1,0,.3.44.44,0,0,1-.24.2l-.44.16a.33.33,0,0,1-.29,0,.33.33,0,0,1-.17-.23c-.08-.3-.2-.68-.35-1.14,0,0,0,0,0,0v2.74a.37.37,0,0,1-.12.27.33.33,0,0,1-.26.11h-.64a.35.35,0,0,1-.27-.11.37.37,0,0,1-.12-.27V13.93h0A10.71,10.71,0,0,1,14.49,16a.29.29,0,0,1-.19.2.32.32,0,0,1-.27,0l-.53-.24a.45.45,0,0,1-.21-.2.57.57,0,0,1,0-.18.59.59,0,0,1,0-.13,8.44,8.44,0,0,0,.34-1.83.39.39,0,0,1,.14-.25.31.31,0,0,1,.28-.07l.86.15s0,0,0,0v-.62s0,0,0,0l-1.13.07a.34.34,0,0,1-.28-.1.4.4,0,0,1-.14-.26l-.06-.63a.34.34,0,0,1,.09-.27.34.34,0,0,1,.26-.12l.42,0a.08.08,0,0,0,.07,0,5.55,5.55,0,0,0,.35-.46s0,0,0-.07a9.2,9.2,0,0,0-1-1.17.5.5,0,0,1-.12-.29A.48.48,0,0,1,13.47,9l.4-.59A.18.18,0,0,1,14,8.35a.17.17,0,0,1,.16.06s0,0,0,0a13,13,0,0,0,.6-1.5.41.41,0,0,1,.2-.21.34.34,0,0,1,.28,0l.68.24a.34.34,0,0,1,.19.2.31.31,0,0,1,0,.28c-.47.89-.82,1.52-1,1.89,0,0,0,.05,0,.08a2,2,0,0,1,.16.2h0s0,0,0,0c.28-.46.52-.9.73-1.32A.37.37,0,0,1,16.31,8a.33.33,0,0,1,.29,0l.6.27a.33.33,0,0,1,.19.21.32.32,0,0,1-.05.27c-.39.59-.78,1.15-1.17,1.67v0h0l.45-.18a.42.42,0,0,1,.31,0,.43.43,0,0,1,.23.21,9.85,9.85,0,0,1,.59,1.4h0l-.09-1a.39.39,0,0,1,.35-.42l.39,0s.06,0,.07,0a11.27,11.27,0,0,0,.41-1.24s0-.06,0-.06H18a.36.36,0,0,1-.26-.11.37.37,0,0,1-.12-.27V8.12a.34.34,0,0,1,.12-.27A.34.34,0,0,1,18,7.73h1.72s0,0,0,0V6.91a.38.38,0,0,1,.12-.28.37.37,0,0,1,.27-.11H21a.39.39,0,0,1,.27.11.38.38,0,0,1,.12.28v.78s0,0,0,0h2a.34.34,0,0,1,.26.12.34.34,0,0,1,.12.27v.67a.37.37,0,0,1-.12.27.36.36,0,0,1-.26.11h-.9s0,0,0,0a16.41,16.41,0,0,1,1.4,2.1.39.39,0,0,1,0,.3.35.35,0,0,1-.2.23L23,12.2a.34.34,0,0,1-.28,0,.38.38,0,0,1-.21-.2l-.19-.38s0,0-.08,0l-1.48.14-1.67.15L17.86,12s0,0,0,.05l.05.14a.5.5,0,0,1,0,.32.47.47,0,0,1-.24.22l-.41.18a.26.26,0,0,1-.27,0,.39.39,0,0,1-.17-.21.19.19,0,0,0,0-.08s0-.05-.06,0H16.4a0,0,0,0,0,0,.05v.71s0,0,0,0l.54-.17a.38.38,0,0,1,.51.24C17.62,13.94,17.77,14.37,17.88,14.76Zm-2.33-3.47v0l0,0,.66,0s.05,0,0-.05c-.14-.32-.21-.49-.23-.52h0C15.92,10.83,15.77,11,15.55,11.29Zm3.13,1.36a.39.39,0,0,1,.13-.27.41.41,0,0,1,.28-.11h.75a.37.37,0,0,1,.27.11.35.35,0,0,1,.1.27,12.42,12.42,0,0,1-.12,1.41,6.06,6.06,0,0,1-.32,1.16,3,3,0,0,1-.61,1,3.71,3.71,0,0,1-1,.76.36.36,0,0,1-.29,0,.39.39,0,0,1-.24-.19,3.86,3.86,0,0,0-.44-.6.29.29,0,0,1,.07-.45,2.12,2.12,0,0,0,.6-.44,2.36,2.36,0,0,0,.4-.51,2.3,2.3,0,0,0,.24-.63,4.89,4.89,0,0,0,.12-.7C18.65,13.26,18.67,13,18.68,12.65Zm3.6-3.46h-1.5a.1.1,0,0,0-.07,0l-.26.56-.28.58v0h0l1.29-.09s0,0,0,0a.9.9,0,0,1-.11-.16.33.33,0,0,1,.12-.49Zm.1,6.46h.17a.11.11,0,0,0,.08,0,.93.93,0,0,0,.05-.14q0-.12,0-.3c0-.13,0-.3,0-.51a.2.2,0,0,1,.12-.19.28.28,0,0,1,.22,0,3.83,3.83,0,0,0,.64.29A.44.44,0,0,1,24,15a.43.43,0,0,1,.09.25,2.4,2.4,0,0,1-.41,1.47,1.1,1.1,0,0,1-.92.39h-.63A1.26,1.26,0,0,1,21,16.69a2.77,2.77,0,0,1-.26-1.42V12.65a.39.39,0,0,1,.1-.27.41.41,0,0,1,.28-.11h.74a.41.41,0,0,1,.28.11.4.4,0,0,1,.11.27v2.61a1.78,1.78,0,0,0,0,.33A.08.08,0,0,0,22.38,15.65Z"/><path class="cls-3" d="M24.6,11a.36.36,0,0,1,.11-.27.41.41,0,0,1,.28-.11h9.62a.41.41,0,0,1,.28.11A.4.4,0,0,1,35,11v1a.39.39,0,0,1-.11.28.38.38,0,0,1-.28.12H25a.38.38,0,0,1-.28-.12A.36.36,0,0,1,24.6,12Z"/><path class="cls-4" d="M102.08,10.45s0,0,0,0h4.19a.36.36,0,0,1,.26.11.33.33,0,0,1,.11.26v.24c0,1.33-.06,2.35-.08,3.06s-.08,1.27-.13,1.69a2.5,2.5,0,0,1-.23.85,1.39,1.39,0,0,1-.35.37,1.1,1.1,0,0,1-.44.17,3.22,3.22,0,0,1-.73.08.45.45,0,0,1-.28-.11.51.51,0,0,1-.15-.28c0-.13,0-.25-.08-.37a.05.05,0,0,0-.06,0h0a.24.24,0,0,1-.23,0,.24.24,0,0,1-.13-.18,0,0,0,0,0,0-.05l-3.4.41a.39.39,0,0,1-.29-.09.31.31,0,0,1-.13-.25l-.07-.54a.38.38,0,0,1,.35-.4l1.58-.13a.05.05,0,0,0,.06-.06v-.44s0,0-.06,0h-1.18a.35.35,0,0,1-.27-.11.38.38,0,0,1-.12-.28V12.4a.13.13,0,0,0,0-.08c-.06-.05-.21-.18-.46-.37h0a0,0,0,0,0,0,0c0,.2,0,.5,0,.91,0,2-.21,3.27-.63,3.86a1.19,1.19,0,0,1-.72.48,3.65,3.65,0,0,1-1,.12.36.36,0,0,1-.26-.11.5.5,0,0,1-.14-.28,3.42,3.42,0,0,0-.18-.81.21.21,0,0,1,0-.23.23.23,0,0,1,.2-.1h.58a.54.54,0,0,0,.34-.18,5,5,0,0,0,.27-2h0c-.24.28-.47.53-.69.74a.31.31,0,0,1-.26.1.39.39,0,0,1-.25-.15,5.4,5.4,0,0,0-.53-.61.33.33,0,0,1-.09-.23.31.31,0,0,1,.12-.26A6.76,6.76,0,0,0,98,11.36a.09.09,0,0,0,0-.08c0-.19-.06-.45-.12-.77,0,0,0,0,0,0l-.4.36a.32.32,0,0,1-.28.09.43.43,0,0,1-.27-.13,6.81,6.81,0,0,0-.54-.53.3.3,0,0,1-.11-.24.34.34,0,0,1,.11-.24A7.56,7.56,0,0,0,97.29,9s0-.05,0-.08a6.75,6.75,0,0,0-.8-1,.29.29,0,0,1-.1-.26.29.29,0,0,1,.13-.24L97,7a.44.44,0,0,1,.28-.1h0a.46.46,0,0,1,.29.13c.2.2.39.41.57.62,0,0,0,0,0,0h0a4,4,0,0,0,.27-.44A.42.42,0,0,1,99.05,7l1,.47s0,0,0,0a.4.4,0,0,1,.1-.26.33.33,0,0,1,.26-.11H106a.38.38,0,0,1,.38.39V9.65a.37.37,0,0,1-.11.28A.33.33,0,0,1,106,10h-3.7a.06.06,0,0,0-.06.05ZM100.42,10a.33.33,0,0,1-.26-.11.38.38,0,0,1-.12-.28V7.74h0a9.9,9.9,0,0,1-.9,1.35.28.28,0,0,0,0,.09,7.17,7.17,0,0,1,.5,2.13s0,0,.05,0a4.87,4.87,0,0,0,1-1.23s0-.05,0-.05Zm4.29,4.42a.27.27,0,0,1-.08.19.24.24,0,0,1-.18.07s0,0,0,0a8.15,8.15,0,0,1,.37,1.08h0l0-.08a18,18,0,0,0,.28-3.95s0-.05-.06-.05h-3.85a.09.09,0,0,0-.08,0,5.47,5.47,0,0,1-.47.5,0,0,0,0,0,0,0s0,0,0,0h1a.05.05,0,0,0,.06-.06h0a.38.38,0,0,1,.38-.38h.44a.33.33,0,0,1,.26.11.34.34,0,0,1,.12.27h0s0,.06,0,.06h1.27a.4.4,0,0,1,.28.1.41.41,0,0,1,.11.28Zm-3.36-.75s0,0,0,0h.35s.06,0,.06,0v-.35s0,0-.06,0h-.35s0,0,0,0Zm.09-5.43s0,0,0,0v.49s0,0,0,0h.35s0,0,0,0V8.32s0,0,0,0Zm1.56,0s0,0,0,0v.49s0,0,0,0h.36s0,0,0,0V8.32s0,0,0,0Zm0,5s0,0,0,0v.35s0,0,0,0h.37s0,0,0,0v-.35s0,0,0,0Zm0,1.8s0,.05,0,0l.33,0s0,0,0,0a.23.23,0,0,1,0-.2.24.24,0,0,1,.14-.12l.19-.06h-.68a0,0,0,0,0,0,0Zm1.57-6.84s-.06,0-.06,0v.49s0,0,.06,0h.37s0,0,0,0V8.32s0,0,0,0Z"/><path class="cls-4" d="M114.91,15s0,0,0,0h2.55a.38.38,0,0,1,.28.12.34.34,0,0,1,.12.27v.85a.34.34,0,0,1-.12.27.38.38,0,0,1-.28.12H108a.34.34,0,0,1-.26-.12.34.34,0,0,1-.12-.27v-.85a.34.34,0,0,1,.12-.27.34.34,0,0,1,.26-.12h5.13a.05.05,0,0,0,.06,0,21.26,21.26,0,0,0,1.07-4.43.38.38,0,0,1,.16-.25.34.34,0,0,1,.22-.07h.06l1.1.2a.32.32,0,0,1,.24.15.39.39,0,0,1,.06.3A39,39,0,0,1,114.91,15Zm2.22-6.72a.39.39,0,0,1,.28.11.38.38,0,0,1,.12.28v.83a.37.37,0,0,1-.12.27.39.39,0,0,1-.28.11h-8.77a.37.37,0,0,1-.27-.11.37.37,0,0,1-.12-.27V8.68a.38.38,0,0,1,.12-.28.37.37,0,0,1,.27-.11h3.45s0,0,0,0V6.85a.37.37,0,0,1,.12-.27.37.37,0,0,1,.28-.11h.93a.33.33,0,0,1,.27.11.37.37,0,0,1,.12.27V8.24a0,0,0,0,0,.05,0ZM111.91,14a.39.39,0,0,1-.06.3.44.44,0,0,1-.26.18l-.92.26a.29.29,0,0,1-.27-.05.3.3,0,0,1-.14-.23A17.23,17.23,0,0,0,109.5,11a.37.37,0,0,1,0-.29.33.33,0,0,1,.22-.18l.81-.2a.4.4,0,0,1,.3,0,.45.45,0,0,1,.2.23A17.52,17.52,0,0,1,111.91,14Z"/></g></g></svg>