<svg xmlns="http://www.w3.org/2000/svg" viewBox="0 0 320.48 343.61"><defs><style>.cls-1{fill:#fbb03b;}</style></defs><g id="圖層_2" data-name="圖層 2"><g id="圖層_1-2" data-name="圖層 1"><path class="cls-1" d="M99.79,155a1.89,1.89,0,0,1-.6-1.57A1.87,1.87,0,0,1,100,152l4-3a3.3,3.3,0,0,1,1.91-.6,2.78,2.78,0,0,1,1.84.67q10.5,9,15.39,15.92a2.17,2.17,0,0,1,.47,1.34,1.61,1.61,0,0,1-.07.47,2.57,2.57,0,0,1-1,1.61l-4.89,3.74a2,2,0,0,1-1.27.47,1.12,1.12,0,0,1-.4-.07,2.22,2.22,0,0,1-1.47-1q-1.08-1.6-2.61-3.68a.75.75,0,0,0-.54-.2q-7,.33-46.9,2a2.3,2.3,0,0,1-1.74-.6,2.19,2.19,0,0,1-.74-1.68L61.65,162a2.5,2.5,0,0,1,.63-1.67,2.08,2.08,0,0,1,1.64-.74q6.83-.19,8-.2a.43.43,0,0,0,.4-.27,115.7,115.7,0,0,0,8.44-16.46,2.21,2.21,0,0,1,1.27-1.34,2.44,2.44,0,0,1,1.07-.26,2.25,2.25,0,0,1,.73.13l7,2.28a1.76,1.76,0,0,1,1.2,1.13,2,2,0,0,1-.06,1.68q-3.42,6.21-7.5,12.44c-.13.18-.09.27.14.27,2.09-.14,5.18-.28,9.26-.44s7.08-.25,9-.3c.09,0,.15,0,.17-.1a.15.15,0,0,0,0-.16Q101,156,99.79,155Zm-29,51.19a2.39,2.39,0,0,1-2.34-2.34v-26.3a2.3,2.3,0,0,1,.7-1.7,2.24,2.24,0,0,1,1.64-.71H113.1a2.24,2.24,0,0,1,1.64.71,2.3,2.3,0,0,1,.7,1.7v26.3a2.39,2.39,0,0,1-2.34,2.34H107a2.3,2.3,0,0,1-1.64-.67,2.15,2.15,0,0,1-.7-1.6c0-.23-.09-.34-.27-.34H78.91c-.22,0-.33.11-.33.34a2.29,2.29,0,0,1-2.28,2.27ZM104.67,185a.24.24,0,0,0-.27-.27H78.91q-.33,0-.33.27v8.7a.29.29,0,0,0,.33.33H104.4q.27,0,.27-.33Z"/><path class="cls-1" d="M141.07,164.69a2.29,2.29,0,0,1,.94,1.6,2.25,2.25,0,0,1-.54,1.81l-2.87,3.81a2,2,0,0,1-1.51.81,2.38,2.38,0,0,1-1.71-.54A59.37,59.37,0,0,0,129.3,168a2.06,2.06,0,0,1-1-1.4v-.4a2,2,0,0,1,.4-1.21l2.48-3.21a3.15,3.15,0,0,1,1.67-1.07,3.05,3.05,0,0,1,.67-.07,2.49,2.49,0,0,1,1.27.34A54.46,54.46,0,0,1,141.07,164.69Zm-2.41,38.6a2,2,0,0,1-1.24,1.21,1.88,1.88,0,0,1-1.7-.14L131,201.69a2.52,2.52,0,0,1-1.21-1.41,2.48,2.48,0,0,1-.13-.8,2.36,2.36,0,0,1,.27-1.07q3.67-8.29,6.89-17.8a1.72,1.72,0,0,1,1.14-1.17,1.67,1.67,0,0,1,1.6.23l3.88,2.48a3.29,3.29,0,0,1,1.24,1.57,2.81,2.81,0,0,1,0,2Q141.68,195.39,138.66,203.29Zm4.62-53.12-3.41,4.21a1.81,1.81,0,0,1-1.48.77,2.44,2.44,0,0,1-1.67-.57,52.87,52.87,0,0,0-6.09-4.55,2.07,2.07,0,0,1-.46-3.08l2.54-3.07a2.94,2.94,0,0,1,3.61-.74,37.18,37.18,0,0,1,7.7,5.29c.13.13.26.11.4-.07l.73-1.14a1.12,1.12,0,0,1,.71-.5,1.2,1.2,0,0,1,.83.1c.09.05.16.05.2,0,.72-1.34,1.34-2.61,1.88-3.81a2.24,2.24,0,0,1,1.33-1.21,2,2,0,0,1,.74-.13,2,2,0,0,1,1,.27l1.21.6a2.19,2.19,0,0,1,1,1.37,2.06,2.06,0,0,1-.31,1.71c-1.47,2.27-2.4,3.68-2.81,4.21a.29.29,0,0,0,.07.4,7.58,7.58,0,0,1,.67.61c.13.13.27.11.4-.07l1.27-1.87a2.39,2.39,0,0,1,1.51-1.11,2.2,2.2,0,0,1,1.77.3l1.94,1.14c.09,0,.14,0,.14-.07a1.15,1.15,0,0,1,.36-.83A1.23,1.23,0,0,1,160,148h14.25a.81.81,0,0,1,.87.87h.07l1.07-1.54a.88.88,0,0,1,1.4-.2c.05,0,.09,0,.13-.07.81-1.51,1.45-2.79,1.95-3.81a2.54,2.54,0,0,1,1.37-1.21,2.08,2.08,0,0,1,1.77.14l1.2.6a2,2,0,0,1,1,1.37,2,2,0,0,1-.34,1.64l-3.07,4.42a.29.29,0,0,0,.06.47,2.35,2.35,0,0,0,.27.36,1.06,1.06,0,0,0,.34.3q.19.21.33,0c.71-.93,1.36-1.85,1.94-2.74a2.48,2.48,0,0,1,1.51-1,2.2,2.2,0,0,1,1.77.3l1.2.67a1.85,1.85,0,0,1,.94,1.41,1.91,1.91,0,0,1-.47,1.61q-3.62,4.08-5.35,5.88a.35.35,0,0,0,0,.14.11.11,0,0,0,.1.06l2.21-.06c.13,0,.18-.07.13-.2a2,2,0,0,1,0-1.48,1.71,1.71,0,0,1,1-1l.67-.27a2.17,2.17,0,0,1,1.8,0,2.49,2.49,0,0,1,1.34,1.27c.54,1.39,1,2.77,1.41,4.15a5.12,5.12,0,0,1,.06.74,2.64,2.64,0,0,1-1.74,2.54l-1.4.6a1,1,0,0,1-.94-.06,1.24,1.24,0,0,1-.6-.74.18.18,0,0,0-.2-.2l-1.47.07c-.23,0-.34.11-.34.33v2.14c0,.18.09.25.27.2l1.61-.53a2.7,2.7,0,0,1,1.87.13,2.51,2.51,0,0,1,1.34,1.34c.58,1.43,1.09,2.81,1.54,4.15a2.3,2.3,0,0,1,.13.73,2.1,2.1,0,0,1-.33,1.14,2.55,2.55,0,0,1-1.41,1.21l-.53.2a2,2,0,0,1-1.68-.2,2.33,2.33,0,0,1-1.07-1.34,50.36,50.36,0,0,0-1.6-4.82c-.05,0-.08-.07-.1-.07s0,0,0,.07v6.22a2.32,2.32,0,0,1-.7,1.71,2.25,2.25,0,0,1-1.64.7h-1.47a2.23,2.23,0,0,1-1.64-.7,2.32,2.32,0,0,1-.7-1.71V170s0-.07,0-.07-.05,0-.1.07c-.4,1.2-.82,2.34-1.27,3.41a2,2,0,0,1-1.34,1.07,2.15,2.15,0,0,1-1.74-.2c-.44-.27-.93-.53-1.47-.8-.13-.09-.2-.05-.2.13a2.17,2.17,0,0,1-.63,1.54,2.09,2.09,0,0,1-1.58.67h-8.7a2.39,2.39,0,0,1-2.4-2.41v-1.14c0-.22-.09-.31-.27-.26l-1.81.53a2.09,2.09,0,0,1-1.74-.23,2,2,0,0,1-.93-1.44c-.23-1-.52-2.23-.87-3.61,0-.05,0-.05-.07,0v6.55a2.36,2.36,0,0,1-.7,1.71,2.25,2.25,0,0,1-1.64.7h-1.41a2.25,2.25,0,0,1-1.64-.7,2.32,2.32,0,0,1-.7-1.71v-4.08s0-.07,0-.07-.06,0-.1.07c-.5,1.34-1,2.59-1.54,3.75a2,2,0,0,1-1.34,1.14,2.34,2.34,0,0,1-1.81-.21c-.22-.08-.49-.2-.8-.33a2.13,2.13,0,0,1-1.1-1.34,2.34,2.34,0,0,1,.1-1.8,34.76,34.76,0,0,0,1.6-4.29,2.55,2.55,0,0,1,1.11-1.47,2.09,2.09,0,0,1,1.77-.27l1.87.41q.27.06.27-.27v-1.61q0-.33-.33-.27l-3.62.27a2.28,2.28,0,0,1-1.74-.57,2.53,2.53,0,0,1-.87-1.64l-.13-1.07a2.16,2.16,0,0,1,.57-1.7,2.22,2.22,0,0,1,1.57-.77l2-.07a.67.67,0,0,0,.47-.2,3.59,3.59,0,0,1,.5-.6,4.5,4.5,0,0,0,.63-.81c.14-.13.14-.28,0-.46a34,34,0,0,0-4.41-4A1,1,0,0,1,143.28,150.17Zm13.65,40.41c-.05.18,0,.27.2.27h31.05a2,2,0,0,1,1.6.67,2,2,0,0,1,.54,1.34v.33a9.71,9.71,0,0,1-.27,1q-1.28,7.69-3.88,10-2.34,1.82-7,2c-1.16,0-2.43.07-3.81.07s-3,0-4.75-.07a2.42,2.42,0,0,1-1.74-.7,3.54,3.54,0,0,1-1-1.71,17.33,17.33,0,0,0-1-2.67,1.3,1.3,0,0,1,.07-1.34,1.29,1.29,0,0,1,1.14-.6q3.94.25,7.82.26a5.82,5.82,0,0,0,2.95-.53,4.27,4.27,0,0,0,1.27-1.94c.09-.18,0-.27-.2-.27H155.66a.32.32,0,0,0-.34.2,2,2,0,0,1-.83,1.24,1.91,1.91,0,0,1-1.44.3l-4.75-.54a1.85,1.85,0,0,1-1.41-.93,1.81,1.81,0,0,1-.33-1.07,3.58,3.58,0,0,1,.06-.61c.81-2.76,1.54-5.75,2.21-9a2.84,2.84,0,0,1,1-1.67,2.81,2.81,0,0,1,1.87-.67H177.6a.24.24,0,0,0,.27-.27v-.8a.24.24,0,0,0-.27-.27H149.9a2.41,2.41,0,0,1-2.41-2.41v-.54a2.33,2.33,0,0,1,.71-1.7,2.3,2.3,0,0,1,1.7-.7h34.8a2.2,2.2,0,0,1,1.67.7,2.37,2.37,0,0,1,.67,1.7V187a2.29,2.29,0,0,1-2.34,2.34H157.53q-.27,0-.33.33Zm3.14-37.67a1.26,1.26,0,0,1-.93-.4,1.28,1.28,0,0,1-.4-.94s0-.06-.07-.06c-2,2.36-3.73,4.26-5,5.68,0,.05-.06.09,0,.14a.1.1,0,0,0,.1.06l1.54-.06c.09,0,.13-.05.13-.14a1.31,1.31,0,0,1,0-1,1.38,1.38,0,0,1,.77-.71l.74-.26a2,2,0,0,1,1.67.06,2,2,0,0,1,1.07,1.21c.36,1.07.69,2.29,1,3.68a.36.36,0,0,1,.4-.41h10.77a2.17,2.17,0,0,1,2.14,2.15,2,2,0,0,1-.63,1.47,2.14,2.14,0,0,1-1.51.6h-10.3a.93.93,0,0,1-.61-.23.73.73,0,0,1-.26-.57c0-.09,0-.11-.07-.07l-2.34.8a1.21,1.21,0,0,1-1.11-.13,1.27,1.27,0,0,1-.57-.94.18.18,0,0,0-.2-.2l-1.07.14a.29.29,0,0,0-.33.33v2.34c0,.18.09.25.27.2l1.6-.4a2.77,2.77,0,0,1,1.88.27,2.27,2.27,0,0,1,1.13,1.47c.27.94.52,1.92.74,2.95q0,.06,0,.06s0,0,0-.06v-2a2.39,2.39,0,0,1,2.4-2.41h8.5A2.39,2.39,0,0,1,174,167.9V170s0,.07,0,.07,0,0,0-.07a24.34,24.34,0,0,0,1.14-3.35,2.37,2.37,0,0,1,1.1-1.44,2.4,2.4,0,0,1,1.77-.3l1.81.47c.18.05.27,0,.27-.2v-1.6c0-.23-.11-.32-.34-.27l-2.87.13a2.29,2.29,0,0,1-1.71-.57,2.26,2.26,0,0,1-.84-1.64l-.13-1.07a2.16,2.16,0,0,1,.57-1.7,2,2,0,0,1,1.57-.71l.54-.06a.72.72,0,0,0,.53-.2c.4-.4.74-.76,1-1.07a.44.44,0,0,0,0-.47,32.07,32.07,0,0,0-3.27-3.48h-.07c0,.27-.11.4-.34.4Zm11.78,1.34a2.14,2.14,0,0,1,0,4.28h-9a2.14,2.14,0,0,1,0-4.28Zm-.74-12.05a2.18,2.18,0,0,1,1.54.64,2.1,2.1,0,0,1,0,3.08,2.17,2.17,0,0,1-1.54.63h-7.69a2.13,2.13,0,0,1-1.57-.63,2.17,2.17,0,0,1,0-3.08,2.13,2.13,0,0,1,1.57-.64Zm-3.27,29.51q.33,0,.33-.27v-1.53c0-.23-.11-.34-.33-.34h-1.28c-.22,0-.33.11-.33.34v1.53q0,.27.33.27Z"/><path class="cls-1" d="M221.9,143.41a2.56,2.56,0,0,1,.77-1.71,2.32,2.32,0,0,1,1.71-.7h6.69a2.2,2.2,0,0,1,1.67.7,2.34,2.34,0,0,1,.67,1.64c0,.67-.09,1.41-.14,2.21.09,1.74.24,3.49.44,5.25s.59,4,1.17,6.83a74.54,74.54,0,0,0,2.11,8,57.1,57.1,0,0,0,3.51,8.3,51.28,51.28,0,0,0,5.19,8.23,47.76,47.76,0,0,0,7.26,7.36,45.83,45.83,0,0,0,7.42,5,1.52,1.52,0,0,1,.81,1.4,1.45,1.45,0,0,1-.54,1.14,28.06,28.06,0,0,0-4.55,5,2.88,2.88,0,0,1-1.54,1.07,1.74,1.74,0,0,1-.67.13,2.09,2.09,0,0,1-1.13-.33q-16.94-9.57-24.23-30.71c0-.05,0-.07-.06-.07s-.07,0-.07.07q-6.76,19.53-22.28,30.57a2.35,2.35,0,0,1-1.34.41h-.4a3,3,0,0,1-1.67-.94,27.41,27.41,0,0,0-5.09-4.75,1.64,1.64,0,0,1-.67-1.34,1.51,1.51,0,0,1,.74-1.34,47,47,0,0,0,5.28-3.94,53,53,0,0,0,5.89-5.73,38.56,38.56,0,0,0,4.45-6.29,67.52,67.52,0,0,0,3.28-6.39,47.53,47.53,0,0,0,2.31-6.55q1-3.61,1.5-6.19t.84-5.92c.22-2.23.37-3.95.44-5.16s.12-2.69.16-4.48A4.33,4.33,0,0,0,221.9,143.41Z"/><path class="cls-1" d="M64.73,248.58a2.2,2.2,0,0,1,.9-1.51,2,2,0,0,1,1.71-.37l5.08,1.08a2.53,2.53,0,0,1,1.61,1,2.43,2.43,0,0,1,.47,1.81,133.15,133.15,0,0,1-2.15,13.18A37.94,37.94,0,0,1,69.08,273a2.29,2.29,0,0,1-1.44,1.14,2.22,2.22,0,0,1-1.84-.27l-5.29-2.94a2.22,2.22,0,0,1-1.07-1.48,1.59,1.59,0,0,1-.13-.6,2.47,2.47,0,0,1,.33-1.2Q63.32,260.62,64.73,248.58Zm13-4.48a2.33,2.33,0,0,1,.71-1.71,2.22,2.22,0,0,1,1.64-.7h5.75a2.25,2.25,0,0,1,1.64.7,2.32,2.32,0,0,1,.7,1.71v29.44c0,1.69.18,2.75.54,3.17s1.27.64,2.74.64H99a2.89,2.89,0,0,0,3-2.21,38.74,38.74,0,0,0,.94-7.56,1.34,1.34,0,0,1,2.07-1.07,22.4,22.4,0,0,0,5,2.21,3,3,0,0,1,1.6,1.2,2.58,2.58,0,0,1,.47,1.54q0,6.9-3.14,11.31-2.55,3.62-9,3.61H90q-7.17,0-9.7-2.74t-2.55-10.1Zm2.28-13.39a1.9,1.9,0,0,1-1-1.23,1.52,1.52,0,0,1,.37-1.51l3.41-4.08a3.22,3.22,0,0,1,1.74-1.07,2.54,2.54,0,0,1,.8-.14,2.91,2.91,0,0,1,1.21.27,84.31,84.31,0,0,1,9.84,4.69,89,89,0,0,1,8.69,5.28,2.29,2.29,0,0,1,.94,1.57,2.25,2.25,0,0,1-.4,1.71l-3.81,5a2,2,0,0,1-1.51.83,2.23,2.23,0,0,1-1.71-.5,81.78,81.78,0,0,0-8.36-5.68A99.48,99.48,0,0,0,80.05,230.71Zm25.36,19.14a2,2,0,0,1,.8-3l4.89-2.48a2.78,2.78,0,0,1,1.94-.23,2.64,2.64,0,0,1,1.6,1.1,68.38,68.38,0,0,1,6.16,10.31,57.53,57.53,0,0,1,4.08,9.9,2.53,2.53,0,0,1,.13.8,2.93,2.93,0,0,1-.26,1.14,3.15,3.15,0,0,1-1.41,1.41l-5.89,2.87a1.68,1.68,0,0,1-1.6,0,2,2,0,0,1-1.07-1.27,54.86,54.86,0,0,0-3.62-9.9A77.9,77.9,0,0,0,105.41,249.85Z"/><path class="cls-1" d="M191.79,259.75a2.23,2.23,0,0,1-.7,1.64,2.32,2.32,0,0,1-1.71.7H177.8c-.17,0-.24.09-.2.27a53.63,53.63,0,0,0,2.58,10.77q1.57,4.15,3,4.15c.81,0,1.34-1.91,1.61-5.75a1.1,1.1,0,0,1,.7-1,1.23,1.23,0,0,1,1.24.13,22.74,22.74,0,0,0,3.68,2.14,3.34,3.34,0,0,1,1.47,1.41,2.75,2.75,0,0,1,.4,1.47v.4c-.66,4.15-1.74,7-3.21,8.43s-3.54,2.14-6.35,2.14h-.2a9,9,0,0,1-6.73-3.24,24.76,24.76,0,0,1-4.85-8.54,70.54,70.54,0,0,1-3-12.51c0-.18-.11-.27-.34-.27H157c-.18,0-.27.12-.27.34v4.88c0,.23.09.34.27.34l8.56-.94a2.3,2.3,0,0,1,2.48,2.14l.13,3.75a2.59,2.59,0,0,1-.67,1.77,2.55,2.55,0,0,1-1.6.91q-4,.47-11,1.23t-9,1a2.18,2.18,0,0,1-1.71-.46,2.39,2.39,0,0,1-.9-1.61l-.47-4.15a2.12,2.12,0,0,1,.5-1.74,2.22,2.22,0,0,1,1.58-.8c1-.09,1.67-.13,2.07-.13a.32.32,0,0,0,.27-.34V243a1.75,1.75,0,0,1,.73-1.44,1.68,1.68,0,0,1,1.61-.3l4.68,1.2a2.5,2.5,0,0,0,.54.07,155.11,155.11,0,0,0,22.68-4.08v-.07H143.15a.24.24,0,0,0-.27.27v9.9q0,25-6.43,37.8a1.81,1.81,0,0,1-1.27,1h-.4a2.11,2.11,0,0,1-1.27-.4,45.93,45.93,0,0,0-4.21-2.88,2.2,2.2,0,0,1-1.14-1.41A2.29,2.29,0,0,1,128,282a2.33,2.33,0,0,1,.27-1.07,39,39,0,0,0,2.74-7.6,58.68,58.68,0,0,0,1.54-8.8q.48-4.61.64-8.06t.17-7.86V231.92a2.29,2.29,0,0,1,2.34-2.34h21.41c.22,0,.33-.11.33-.34v-3.48a2.29,2.29,0,0,1,.71-1.7,2.24,2.24,0,0,1,1.64-.71h5.68a2.33,2.33,0,0,1,1.71.71,2.29,2.29,0,0,1,.7,1.7v3.48c0,.23.09.34.27.34h21.68a2.3,2.3,0,0,1,1.64.67,2.19,2.19,0,0,1,.7,1.67V236a2.32,2.32,0,0,1-.7,1.71,2.29,2.29,0,0,1-1.64.7h-9.5a.1.1,0,0,0-.1.07s0,.09,0,.13l4.82,4.62a1.51,1.51,0,0,1,.37,1.37,1.24,1.24,0,0,1-1,1c-2.19.62-4.84,1.25-8,1.87a.33.33,0,0,0-.26.34c0,1.25.13,3.05.26,5.42a.33.33,0,0,0,.34.26h12.51a2.33,2.33,0,0,1,1.71.71,2.29,2.29,0,0,1,.7,1.7Zm-46,27.64a2.42,2.42,0,0,1-2.41-2.41v-3.75a2.26,2.26,0,0,1,.71-1.64,2.29,2.29,0,0,1,1.7-.7h23.69a2.39,2.39,0,0,1,2.34,2.34V285a2.29,2.29,0,0,1-.7,1.7,2.26,2.26,0,0,1-1.64.71Zm10.91-34.19a.24.24,0,0,0,.27.26h9.63q.27,0,.27-.33c-.05-.4-.1-1-.17-1.91s-.1-1.5-.1-1.91c0-.22-.16-.31-.33-.26q-4,.6-9.3,1a.32.32,0,0,0-.27.34Z"/><path class="cls-1" d="M241.37,233.59c-.09.18,0,.27.2.27h16a2.32,2.32,0,0,1,1.71.7,2.25,2.25,0,0,1,.7,1.64c0,.71,0,1.38-.07,2q-.66,24.09-1.5,33.35t-2.91,12a9.62,9.62,0,0,1-3.11,3,14,14,0,0,1-4.12,1.37,36,36,0,0,1-6.22.4c-.8,0-1.65,0-2.54-.06a2.47,2.47,0,0,1-1.71-.71,3,3,0,0,1-1-1.7,24.3,24.3,0,0,0-1.81-5.22,1.26,1.26,0,0,1,.07-1.31,1.13,1.13,0,0,1,1.14-.56q3.48.19,8,.2a4,4,0,0,0,3-1.21c1-1.07,1.72-4.22,2.21-9.47s.87-13.59,1.14-25c0-.23,0-.34-.27-.34H237.89a.48.48,0,0,0-.47.27,75,75,0,0,1-4.35,8,2,2,0,0,1-1.47.94,2.07,2.07,0,0,1-1.67-.47q-1.81-1.34-3.55-2.54c-.18-.14-.27-.09-.27.13v29.91a2.32,2.32,0,0,1-.7,1.71,2.27,2.27,0,0,1-1.64.7H208.45a.24.24,0,0,0-.27.27V284a2.39,2.39,0,0,1-2.41,2.41h-4.21a2.19,2.19,0,0,1-1.67-.7,2.38,2.38,0,0,1-.67-1.71v-47a2.38,2.38,0,0,1,.67-1.71,2.19,2.19,0,0,1,1.67-.7h5.15a.32.32,0,0,0,.34-.27c.57-2.9,1-5.73,1.27-8.5a2.05,2.05,0,0,1,.87-1.6,2.12,2.12,0,0,1,1.33-.47h.34l6.16.87a1.94,1.94,0,0,1,1.43.93,1.8,1.8,0,0,1,.17,1.68q-1.67,4.82-2.54,7.09c-.09.18,0,.27.2.27h7.49a2.23,2.23,0,0,1,1.64.7,2.32,2.32,0,0,1,.7,1.71v6.42a.12.12,0,0,0,.07.1s.07,0,.07,0a72,72,0,0,0,7.43-17.53,2.48,2.48,0,0,1,1.1-1.48,2.1,2.1,0,0,1,1.77-.26l5,1.13A2.28,2.28,0,0,1,243,226.4a2.13,2.13,0,0,1,.2,1.7C242.69,229.8,242.08,231.63,241.37,233.59Zm-24.56,18.87c.23,0,.34-.11.34-.33v-8.64c0-.22-.11-.33-.34-.33h-8.36q-.27,0-.27.33v8.64q0,.33.27.33Zm-8.63,20q0,.33.27.33h8.36c.23,0,.34-.11.34-.33V261.29c0-.18-.11-.27-.34-.27h-8.36a.24.24,0,0,0-.27.27Zm38.88-9a2.47,2.47,0,0,1,.33,1.2,1.74,1.74,0,0,1-.13.67,2.51,2.51,0,0,1-1.14,1.48l-4.35,2.67a2.36,2.36,0,0,1-1.07.27,2.25,2.25,0,0,1-.6-.07,2,2,0,0,1-1.34-1.13q-1.94-3.88-6.76-11.78a2.48,2.48,0,0,1-.33-1.21,2.84,2.84,0,0,1,.07-.6,2.2,2.2,0,0,1,1.13-1.4l3.62-2.08a2.59,2.59,0,0,1,1.27-.33,2.77,2.77,0,0,1,.6.07,2.53,2.53,0,0,1,1.54,1.07Q245.18,260.28,247.06,263.5Z"/><path d="M65.66,339.45a1.43,1.43,0,0,1-1-.45,1.5,1.5,0,0,1-.44-1.08v-3.23a1.41,1.41,0,0,1,.44-1.06,1.49,1.49,0,0,1,1-.43H70c.11,0,.17-.07.17-.21V315.62a.15.15,0,0,0-.17-.17H66.47a1.52,1.52,0,0,1-1.53-1.52v-1.75a1.87,1.87,0,0,1,1.49-1.82A16.75,16.75,0,0,0,71,308.53a5.17,5.17,0,0,1,2.75-.85h2.64a1.4,1.4,0,0,1,1.06.45,1.53,1.53,0,0,1,.42,1.08V333c0,.14.07.21.22.21h3.35a1.48,1.48,0,0,1,1,.43,1.38,1.38,0,0,1,.45,1.06v3.23A1.47,1.47,0,0,1,82.5,339a1.42,1.42,0,0,1-1,.45Z"/><path d="M102.08,335.77a7.86,7.86,0,0,1-13.89,0q-2.52-4.18-2.53-12.42t2.51-12.18a8.06,8.06,0,0,1,13.93,0q2.5,4,2.5,12.18T102.08,335.77Zm-7.63-1.95a1.06,1.06,0,0,0,.68.23,1,1,0,0,0,.68-.23,2.3,2.3,0,0,0,.58-1,11.22,11.22,0,0,0,.48-1.86,23.81,23.81,0,0,0,.32-3.1c.07-1.31.11-2.82.11-4.55s0-3.23-.13-4.5a27.36,27.36,0,0,0-.32-3,6.65,6.65,0,0,0-.49-1.72,2.13,2.13,0,0,0-.57-.85,1.13,1.13,0,0,0-1.31,0,2.23,2.23,0,0,0-.58.85,7.07,7.07,0,0,0-.49,1.72c-.12.72-.23,1.72-.31,3s-.13,2.78-.13,4.5,0,3.24.1,4.55a25.71,25.71,0,0,0,.32,3.1,11.12,11.12,0,0,0,.49,1.86A2.3,2.3,0,0,0,94.45,333.82Z"/><path d="M123.82,335.77a7.86,7.86,0,0,1-13.89,0q-2.52-4.18-2.53-12.42t2.51-12.18a8.06,8.06,0,0,1,13.93,0q2.5,4,2.5,12.18T123.82,335.77Zm-7.63-1.95a1.06,1.06,0,0,0,.68.23,1,1,0,0,0,.68-.23,2.3,2.3,0,0,0,.58-1,11.22,11.22,0,0,0,.48-1.86,23.81,23.81,0,0,0,.32-3.1c.07-1.31.11-2.82.11-4.55s0-3.23-.13-4.5a27.36,27.36,0,0,0-.32-3,7.11,7.11,0,0,0-.48-1.72,2.23,2.23,0,0,0-.58-.85,1.13,1.13,0,0,0-1.31,0,2.23,2.23,0,0,0-.58.85,7.07,7.07,0,0,0-.49,1.72c-.12.72-.23,1.72-.31,3s-.13,2.78-.13,4.5,0,3.24.1,4.55a25.71,25.71,0,0,0,.32,3.1,11.12,11.12,0,0,0,.49,1.86A2.3,2.3,0,0,0,116.19,333.82Z"/><path d="M136.11,303.78a1.53,1.53,0,0,1,.76-.89,1.46,1.46,0,0,1,.68-.17,1.4,1.4,0,0,1,.47.08l2.89.89a1.42,1.42,0,0,1,.87.72,1.44,1.44,0,0,1,.06,1.15,66.14,66.14,0,0,1-2.72,6.62,1,1,0,0,0-.08.39v29.55a1.38,1.38,0,0,1-.45,1.06,1.46,1.46,0,0,1-1,.43h-3a1.46,1.46,0,0,1-1-.43,1.38,1.38,0,0,1-.45-1.06V322.8s0,0,0,0h-.09c-.34.48-.68.93-1,1.36a.8.8,0,0,1-.81.27.84.84,0,0,1-.64-.57c-.54-1.44-1.13-2.83-1.78-4.16a2.54,2.54,0,0,1-.26-1.06,2.28,2.28,0,0,1,.56-1.45A43.86,43.86,0,0,0,136.11,303.78Zm6.33,2a1.39,1.39,0,0,1,.44-1.06,1.53,1.53,0,0,1,1.08-.42h23.49a1.53,1.53,0,0,1,1.08.42,1.39,1.39,0,0,1,.44,1.06v35.88a1.39,1.39,0,0,1-.44,1,1.47,1.47,0,0,1-1.08.45h-3a1.47,1.47,0,0,1-1.08-.45,1.4,1.4,0,0,1-.45-1v-.46c0-.12-.05-.17-.17-.17H148.38c-.14,0-.21.05-.21.17V342a1.52,1.52,0,0,1-1.49,1.48H144a1.5,1.5,0,0,1-1.08-.44,1.42,1.42,0,0,1-.44-1Zm5.73,29.6a.19.19,0,0,0,.21.21h14.39c.12,0,.17-.07.17-.21V309.89a.15.15,0,0,0-.17-.17H148.38c-.14,0-.21.06-.21.17Zm14.1-17.92a1.46,1.46,0,0,1-.45,1.08,1.42,1.42,0,0,1-1,.45H158a.15.15,0,0,0-.17.17V322a.15.15,0,0,0,.17.17h2a1.54,1.54,0,0,1,1.53,1.53v8.75a1.54,1.54,0,0,1-1.53,1.53h-8.88a1.54,1.54,0,0,1-1.53-1.53v-8.75a1.54,1.54,0,0,1,1.53-1.53h1.62c.14,0,.21-.05.21-.17v-2.84c0-.11-.07-.17-.21-.17h-2.38a1.38,1.38,0,0,1-1.06-.45,1.48,1.48,0,0,1-.43-1.08V316a1.5,1.5,0,0,1,.43-1.09,1.41,1.41,0,0,1,1.06-.44h2.38c.14,0,.21-.06.21-.17V311.8a1.5,1.5,0,0,1,1.48-1.48h1.83a1.47,1.47,0,0,1,1.08.44,1.43,1.43,0,0,1,.45,1v2.51a.15.15,0,0,0,.17.17h2.76a1.45,1.45,0,0,1,1,.44,1.48,1.48,0,0,1,.45,1.09Zm-5.57,12.31c.12,0,.17-.07.17-.21v-2.93a.15.15,0,0,0-.17-.17h-2.42a.15.15,0,0,0-.17.17v2.93c0,.14.06.21.17.21Z"/><path d="M201.58,337.45h2.6c.48,0,.82-.3,1-.89a16.46,16.46,0,0,0,.43-3.61.75.75,0,0,1,.44-.7.84.84,0,0,1,.88,0,21.41,21.41,0,0,0,2.8,1.23,2.17,2.17,0,0,1,1,.79,1.59,1.59,0,0,1,.27,1.16c-.34,2.86-1,4.87-1.89,6a5.18,5.18,0,0,1-4.31,1.72h-4.33a7.66,7.66,0,0,1-4-.83,4.57,4.57,0,0,1-1.89-2.82c0-.11-.1-.13-.21,0a34.9,34.9,0,0,1-3.23,2.46,1.47,1.47,0,0,1-1.17.26,1.76,1.76,0,0,1-1-.6,23.16,23.16,0,0,0-2.37-2.46,1,1,0,0,1-.41-.89.92.92,0,0,1,.49-.81,37.9,37.9,0,0,0,7.39-6.24.6.6,0,0,0,.13-.34V320.76h0q-.54,7.35-2.08,11a1.42,1.42,0,0,1-.87.77,1.5,1.5,0,0,1-1.16-.05l-2.13-1a1.41,1.41,0,0,1-.76-.83,1.54,1.54,0,0,1,0-1.17,24.05,24.05,0,0,0,.81-2.63s-.05,0-.05,0l-1.48,1.87a.92.92,0,0,1-.83.32.85.85,0,0,1-.7-.54l-.25-.5a2.92,2.92,0,0,0-.22-.39,0,0,0,1,0-.08,0v14.4a1.43,1.43,0,0,1-.45,1,1.41,1.41,0,0,1-1,.44h-3.06a1.42,1.42,0,0,1-1-.44,1.46,1.46,0,0,1-.44-1v-12a.08.08,0,0,0-.09,0,38.12,38.12,0,0,1-2.76,5.61.62.62,0,0,1-.68.32.75.75,0,0,1-.63-.49,36.74,36.74,0,0,0-1.62-3.4,2.47,2.47,0,0,1-.29-1.14,2.37,2.37,0,0,1,.46-1.36,39.23,39.23,0,0,0,4.46-9.18c0-.14,0-.21-.13-.21h-3a1.48,1.48,0,0,1-1-.42,1.39,1.39,0,0,1-.44-1.06V316a1.5,1.5,0,0,1,1.48-1.53h4c.14,0,.21-.06.21-.17v-3.87c0-.11-.06-.15-.17-.12l-2.8.42a1.61,1.61,0,0,1-1.17-.27,1.91,1.91,0,0,1-.74-1c-.2-.63-.43-1.26-.68-1.91a1.12,1.12,0,0,1,.06-1,1.1,1.1,0,0,1,.83-.6,59.11,59.11,0,0,0,10.1-2.59,2.7,2.7,0,0,1,.9-.17,1.92,1.92,0,0,1,1.48.72l2.21,2.51A1,1,0,0,1,188,308c-1.1.37-2.22.7-3.35,1a.24.24,0,0,0-.21.26v5.05c0,.11.07.17.21.17H187a1.5,1.5,0,0,1,1.08.44,1.48,1.48,0,0,1,.45,1.09v2.76a1.4,1.4,0,0,1-.45,1.06,1.53,1.53,0,0,1-1.08.42h-2.51c-.05,0-.08,0-.08.09a.29.29,0,0,0,.08.17q1.2,1.07,3.91,4s.06,0,.11,0,.06,0,.06-.11a47.24,47.24,0,0,0,.64-5.09,1.25,1.25,0,0,1,.51-1,1.21,1.21,0,0,1,1.06-.23l3.22.59c.15,0,.22,0,.22-.17v-4.88a1.47,1.47,0,0,1,.42-1,1.4,1.4,0,0,1,1.06-.45h4.16c.06,0,.1,0,.11,0a.08.08,0,0,0,0-.09,35.57,35.57,0,0,0-5.82-4.5,1.17,1.17,0,0,1-.55-.87,1,1,0,0,1,.34-.95l1.87-1.91a2.18,2.18,0,0,1,1.14-.6h.3a1.82,1.82,0,0,1,.94.26,30.47,30.47,0,0,1,7,5.09c.09.09.15.07.17,0l.51-2.25a1.44,1.44,0,0,1,.66-1,1.55,1.55,0,0,1,1.13-.19l2.93.68a1.67,1.67,0,0,1,.93.7,1.43,1.43,0,0,1,.21,1.13,97.07,97.07,0,0,1-2.88,10.06.12.12,0,0,0,0,.09.1.1,0,0,0,.08,0l.17,0a1.74,1.74,0,0,1,1.23.1,1.48,1.48,0,0,1,.81.92,43.21,43.21,0,0,1,2.63,9.93v.21a1.66,1.66,0,0,1-.29.94,1.76,1.76,0,0,1-1,.72l-2.8.77a1.2,1.2,0,0,1-1-.17,1.22,1.22,0,0,1-.53-.94,50.13,50.13,0,0,0-1.35-7,.18.18,0,0,0-.09,0,0,0,0,0,0,0,0,50,50,0,0,1-6.16,10.07.6.6,0,0,0-.13.34v1.57a4.7,4.7,0,0,0,.22,1.87C200.71,337.32,201.05,337.45,201.58,337.45Zm-1.1-24.88s-.06,0-.08,0a.06.06,0,0,0-.05.06v9.3s0,0,.05,0a0,0,0,0,0,0,0,59.49,59.49,0,0,0,4.63-12.27s0-.05,0-.07,0,0,0,0l-2.93,3a1,1,0,0,1-.8.32A1.08,1.08,0,0,1,200.48,312.57Z"/><path d="M245.7,336.26a.15.15,0,0,0,.17-.17v-4.54a1.4,1.4,0,0,1,.45-1,1.47,1.47,0,0,1,1.08-.45h3.31a1.48,1.48,0,0,1,1.09.45,1.43,1.43,0,0,1,.44,1v10.53a1.5,1.5,0,0,1-1.53,1.48h-3.52a1.3,1.3,0,0,1-1.32-1.31c0-.12-.05-.17-.17-.17H227.36a.15.15,0,0,0-.17.17,1.3,1.3,0,0,1-1.32,1.31h-3.44a1.46,1.46,0,0,1-1.08-.44,1.42,1.42,0,0,1-.44-1V330.61c0-.14-.06-.19-.17-.17a.36.36,0,0,1-.13.05,1.64,1.64,0,0,1-1.25-.07,2.05,2.05,0,0,1-1-.83c-.59-1-1.18-1.84-1.74-2.63a.84.84,0,0,1-.21-.55.71.71,0,0,1,.08-.34.79.79,0,0,1,.64-.55c1.1-.26,2.14-.51,3.1-.77t.06-.06s0-.08-.06-.11l-2.8-1.86a1,1,0,0,1-.45-.85,1.06,1.06,0,0,1,.4-.9,13.46,13.46,0,0,0,3.53-4.71,1.8,1.8,0,0,1,.85-.81,1.45,1.45,0,0,1,1.14,0l2.34.85a1.5,1.5,0,0,1,.87.79,1.35,1.35,0,0,1,0,1.16,16.9,16.9,0,0,1-3.86,5.91c0,.05,0,.07,0,0a41.92,41.92,0,0,0,4.71-1.57.23.23,0,0,0,.17-.26v-6.07a1.47,1.47,0,0,1,.45-1.08,1.4,1.4,0,0,1,1-.45h3.39s0,0,0,0c-.74-.34-1.4-.64-2-.89a1.09,1.09,0,0,1-.66-.74,1,1,0,0,1,.19-1l.9-1.15c.08-.11,0-.17-.09-.17h-6.62c-.12,0-.17.07-.17.22v2.25a1.4,1.4,0,0,1-.45,1.06,1.53,1.53,0,0,1-1.08.42H219a1.43,1.43,0,0,1-1.06-.42,1.42,1.42,0,0,1-.43-1.06v-6.5a1.46,1.46,0,0,1,.43-1.08,1.38,1.38,0,0,1,1.06-.45h13.84a.15.15,0,0,0,.17-.17v-1.23a1.43,1.43,0,0,1,.44-1.06,1.54,1.54,0,0,1,1.09-.43h3.48a1.52,1.52,0,0,1,1.08.43,1.4,1.4,0,0,1,.45,1.06v1.23a.15.15,0,0,0,.17.17H253.9a1.4,1.4,0,0,1,1.06.45,1.49,1.49,0,0,1,.42,1.08v6.5a1.44,1.44,0,0,1-1.48,1.48h-3.48a1.45,1.45,0,0,1-1-.42,1.4,1.4,0,0,1-.45-1.06V311c0-.15-.07-.22-.21-.22H235.09s-.05,0-.05.09c1.22.51,2.26,1,3.1,1.44a1.27,1.27,0,0,1,.62.91,1.39,1.39,0,0,1-.28,1.13L237.25,316a1.49,1.49,0,0,1-1,.56,1.62,1.62,0,0,1-1.14-.26c-.65-.39-1.35-.78-2.08-1.15-.12-.08-.17-.05-.17.09v4.59c0,.11,0,.14.17.08a28.06,28.06,0,0,0,8.4-6.75,2,2,0,0,1,1-.68,2,2,0,0,1,1.26.08l2.63,1.15a1.09,1.09,0,0,1,.66.79,1,1,0,0,1-.24,1,35.91,35.91,0,0,1-8.49,7.52s0,0,0,0,0,.05,0,.05h3a2.72,2.72,0,0,0,1.21-.22,1.33,1.33,0,0,0,.61-.76,1.36,1.36,0,0,1,.64-.77,1,1,0,0,1,.93,0,14.44,14.44,0,0,0,2.17.81,1.64,1.64,0,0,1,1,.7,1.49,1.49,0,0,1,.21,1.12,4.9,4.9,0,0,1-2,3.13,8.45,8.45,0,0,1-4.22.82h-7.13a14.86,14.86,0,0,1-4.46-.51.52.52,0,0,0-.39,0,70,70,0,0,1-7.51,2.68s0,0,0,0h3.27a1.44,1.44,0,0,1,1.08.45,1.4,1.4,0,0,1,.45,1v4.54a.15.15,0,0,0,.17.17H233a.15.15,0,0,0,.17-.17v-6.37a1.43,1.43,0,0,1,.45-1,1.46,1.46,0,0,1,1.08-.44h3.4a1.45,1.45,0,0,1,1.08.44,1.43,1.43,0,0,1,.45,1v6.37a.15.15,0,0,0,.17.17Zm1.06-17a1.19,1.19,0,0,1-.34-.85,1.11,1.11,0,0,1,.56-1l2-1.36a1.9,1.9,0,0,1,1.06-.3h.17a1.86,1.86,0,0,1,1.15.51,50.27,50.27,0,0,1,5,5.31,1.39,1.39,0,0,1,.29.85.73.73,0,0,1,0,.25,1.31,1.31,0,0,1-.64,1l-2.29,1.61a1.42,1.42,0,0,1-.81.26h-.29a1.62,1.62,0,0,1-1-.64A45.31,45.31,0,0,0,246.76,319.28Z"/><path d="M152.56,68l18.06,31.27a1.8,1.8,0,0,1,0,1.86,1.78,1.78,0,0,1-.62.6,1.81,1.81,0,0,1-1.05.23l-17.82-1.55-6,3.48a1.78,1.78,0,0,1-2.45-.66l-7.49-13a1.79,1.79,0,0,1,.66-2.45l6.05-3.49,7.56-16.21a1.78,1.78,0,0,1,1.56-1A1.82,1.82,0,0,1,152.56,68Z"/><path d="M178.14,74.07a1.8,1.8,0,0,1-.66,2.46l-10,5.76a1.8,1.8,0,0,1-1.8-3.11l10-5.77A1.81,1.81,0,0,1,178.14,74.07Z"/><path d="M185.6,87.38a1.77,1.77,0,0,1-.9,1.66,1.81,1.81,0,0,1-.78.23l-13.54.8a1.79,1.79,0,0,1-.22-3.58l13.54-.78A1.8,1.8,0,0,1,185.6,87.38Z"/><path d="M160.92,75.26a1.78,1.78,0,0,1-.51-2.48l7.46-11.33a1.79,1.79,0,1,1,3,2l-7.45,11.33a1.75,1.75,0,0,1-.59.56A1.81,1.81,0,0,1,160.92,75.26Z"/><path d="M27.31,73.54a1.36,1.36,0,0,1,.62.95,1.51,1.51,0,0,1-.25,1.16l-1,1.52a1.22,1.22,0,0,1-.91.6,1.26,1.26,0,0,1-1-.29q-1.4-1.07-3.69-2.64s0,0,0,0,0,0,0,.05l6.29,8.18a1.43,1.43,0,0,1,.27,1.07,1.38,1.38,0,0,1-.54,1l-1.9,1.46a1.38,1.38,0,0,1-1.09.29,1.37,1.37,0,0,1-1-.53l-6.52-8.48h0A41.52,41.52,0,0,1,20,85a1.12,1.12,0,0,1-.12,1,1.18,1.18,0,0,1-.88.57c-.69.15-1.4.31-2.13.49a1.56,1.56,0,0,1-1.1-.14,2.17,2.17,0,0,1-.5-.45,1.37,1.37,0,0,1-.23-.45,34.12,34.12,0,0,0-3.22-6.27,1.45,1.45,0,0,1-.15-1.08,1.15,1.15,0,0,1,.67-.83l2.94-1.53a.15.15,0,0,0,0-.23l-1.44-1.87a.15.15,0,0,0-.23,0l-3.19,2.82a1.35,1.35,0,0,1-1.08.36,1.56,1.56,0,0,1-1-.46L6.72,75.2a1.22,1.22,0,0,1-.37-1,1.25,1.25,0,0,1,.51-1l1.19-1a.36.36,0,0,0,.13-.31c0-.7,0-1.43,0-2.18A.25.25,0,0,0,8,69.48a38.5,38.5,0,0,0-5.58-1.29,1.79,1.79,0,0,1-1-.58,1.81,1.81,0,0,1-.5-1.09l-.15-2.7A.7.7,0,0,1,1,63.19.79.79,0,0,1,1.6,63c.1,0,.14-.05.11-.13A47.66,47.66,0,0,0,.06,57a1.48,1.48,0,0,1,.1-1.09A1.27,1.27,0,0,1,1,55.2l2.59-.84a1.22,1.22,0,0,1,1.05.15,1.26,1.26,0,0,1,.61.86Q6.16,61,6.43,63.45c0,.11,0,.19.18.23a8.49,8.49,0,0,1,1,.24.13.13,0,0,0,.1,0,.11.11,0,0,0,0-.13q-.33-3.07-.85-5.64A1.58,1.58,0,0,1,7.1,57,1.4,1.4,0,0,1,8,56.35l2.43-.56a1.21,1.21,0,0,1,1,.21,1.08,1.08,0,0,1,.49.9c.18,2.67.29,5.24.35,7.7a.1.1,0,0,0,.06.05s0,0,0,0l1-1.61a1.55,1.55,0,0,1,.89-.74,1.52,1.52,0,0,1,1.16.1,34.25,34.25,0,0,1,5,2.83l0,0L18,62.52a1.46,1.46,0,0,1-.37-1.07,1.35,1.35,0,0,1,.47-1c.48-.41.86-.73,1.12-1s.15-.18.1-.28a43.8,43.8,0,0,0-1.62-4.69c0-.14-.12-.17-.23-.09l-2.75,2.11a1.37,1.37,0,0,1-1.06.28,1.41,1.41,0,0,1-1-.54l-1.54-2a1.48,1.48,0,0,1,.24-2.06l5.14-3.95a.14.14,0,0,0,0-.23l-1.78-2.32a1.39,1.39,0,0,1-.3-1.1,1.41,1.41,0,0,1,.57-1l2.62-2a1.44,1.44,0,0,1,1.1-.3,1.48,1.48,0,0,1,1,.57l1.79,2.33a.15.15,0,0,0,.23,0l5.89-4.53a1.39,1.39,0,0,1,1.07-.27,1.41,1.41,0,0,1,1,.57l1.54,2a1.44,1.44,0,0,1,.27,1.07,1.34,1.34,0,0,1-.54,1l-2.68,2.06c-.11.09-.1.15,0,.19a56.89,56.89,0,0,1,9,3.06,1.63,1.63,0,0,1,.76.88A1.45,1.45,0,0,1,38,51.39L36.9,54a1.16,1.16,0,0,1-.78.71,1.38,1.38,0,0,1-1.09-.1l-1.44-.72a.23.23,0,0,0-.3.08l-4.14,3.83q-2.22,2.05-4.67,4.29l-3.54,3.25c-.11.08-.1.16,0,.24a5.53,5.53,0,0,1,.46.32,1.63,1.63,0,0,1,.63,1,1.66,1.66,0,0,1-.21,1.21L21,69.63a1.1,1.1,0,0,1-.82.6,1.36,1.36,0,0,1-1-.25L19,69.8a.19.19,0,0,0-.3,0l-.76.63c-.1.11-.11.21,0,.29l1.64,2.13c.06.09.13.09.2,0l1.2-1.76a1.56,1.56,0,0,1,1-.67,1.46,1.46,0,0,1,1.12.21C24.66,71.67,26.09,72.63,27.31,73.54Zm-15-5.05s0,.06.06.08.08,0,.1,0L14.39,67q.16-.12,0-.21c-1.15-.64-1.79-1-1.9-1s0,0-.07,0a.18.18,0,0,0-.06.09C12.36,66.26,12.35,67.16,12.34,68.49ZM27.7,46.68s0,0,0,0-.05,0-.07,0l-4.48,3.45a.27.27,0,0,0-.1.28c.1.44.26,1.2.48,2.26s.39,1.86.5,2.4a.29.29,0,0,0,.08.07s.07,0,.09-.05l3.66-3.23q.13-.09,0-.18a5.46,5.46,0,0,1-.71-.24,1.19,1.19,0,0,1-.77-.7,1.21,1.21,0,0,1,0-1.05ZM24.88,65.36a1.47,1.47,0,0,1-.26-1.11,1.5,1.5,0,0,1,.59-1l2.25-1.73a1.39,1.39,0,0,1,1.09-.29,1.31,1.31,0,0,1,.91.58,46,46,0,0,1,2.88,4.53,21.75,21.75,0,0,1,1.73,4.18,12.08,12.08,0,0,1,.5,4.44,14.08,14.08,0,0,1-1.22,4.58,1.5,1.5,0,0,1-.85.73,1.6,1.6,0,0,1-1.16,0,15,15,0,0,0-2.69-.79A1.06,1.06,0,0,1,28,79.1,1.07,1.07,0,0,1,27.81,78a8.48,8.48,0,0,0,.81-2.7,10.16,10.16,0,0,0,0-2.46,8.9,8.9,0,0,0-.74-2.45A22.12,22.12,0,0,0,26.64,68C26.19,67.27,25.6,66.4,24.88,65.36Zm18,.47.49-.37a.38.38,0,0,0,.17-.29,1.49,1.49,0,0,0-.18-.54,7.63,7.63,0,0,0-.59-1c-.27-.4-.64-.93-1.11-1.58a.71.71,0,0,1-.08-.82.94.94,0,0,1,.67-.51,16.48,16.48,0,0,0,2.59-.64,1.71,1.71,0,0,1,1.2,0,1.5,1.5,0,0,1,.84.55A8.75,8.75,0,0,1,49,66a4.12,4.12,0,0,1-1.85,3.29l-1.89,1.46c-1.6,1.22-3,1.66-4.08,1.31s-2.47-1.57-4.07-3.64l-6-7.86a1.4,1.4,0,0,1-.28-1,1.33,1.33,0,0,1,.55-1l2.23-1.72a1.38,1.38,0,0,1,1.09-.29,1.37,1.37,0,0,1,1,.53l6,7.83a8.7,8.7,0,0,0,.81,1A.32.32,0,0,0,42.89,65.83Z"/><path d="M68.48,30.21a1.45,1.45,0,0,1,.24-1.1,1.5,1.5,0,0,1,.93-.65L73,27.69a1.28,1.28,0,0,1,1.06.2,1.38,1.38,0,0,1,.59.93,57.14,57.14,0,0,1,.08,15.28.3.3,0,0,0,.11.31c1.69,1.66,2.85,2.34,3.5,2s.13-2.25-1.38-5.9a.58.58,0,0,1,.1-.69.65.65,0,0,1,.71-.2,15.61,15.61,0,0,0,3.48.57,2.08,2.08,0,0,1,1.21.42,1.67,1.67,0,0,1,.66.69,1.09,1.09,0,0,1,.08.28,19,19,0,0,1,1.08,5.51,5.39,5.39,0,0,1-.88,3.29,7.81,7.81,0,0,1-2.86,2.11q-3,1.45-7.2-1.24c-.1-.08-.17-.06-.21,0a35.44,35.44,0,0,1-2,5.25,1.48,1.48,0,0,1-.85.76,1.74,1.74,0,0,1-1.17,0,35.24,35.24,0,0,0-3.64-1.18,1.16,1.16,0,0,1-.71-.66,1,1,0,0,1,.07-1c.13-.25.27-.5.42-.76l0-.05h0q-2.45,2-6.89,5.39t-5.39,4.2a1.3,1.3,0,0,1-1.06.28,1.44,1.44,0,0,1-1-.58l-2-2.82a1.55,1.55,0,0,1-.25-1.12,1.33,1.33,0,0,1,.59-.92q5.76-4,13.26-9.75a1.24,1.24,0,0,1,1.05-.25,1.18,1.18,0,0,1,.87.61l1.75,2.87c.05.1.1.08.17,0a30,30,0,0,0,1.67-5,.35.35,0,0,0-.07-.33,85.66,85.66,0,0,1-10-14,.18.18,0,0,0-.27-.1L40.77,40.33a1.46,1.46,0,0,1-1.14.07,1.42,1.42,0,0,1-.83-.72l-1.36-2.83a1.36,1.36,0,0,1,0-1.1,1.39,1.39,0,0,1,.76-.85l16.5-8c.1-.05.12-.14.06-.26-.62-1.11-1.26-2.33-1.9-3.67a1.22,1.22,0,0,1-.1-1.1,1.47,1.47,0,0,1,.77-.82l3.31-1.6a1.42,1.42,0,0,1,1.09-.07,1.37,1.37,0,0,1,.84.74c.11.29.23.56.36.84.49,1,1,2,1.47,2.86a.18.18,0,0,0,.28.1l4.35-2.1a0,0,0,0,0,0-.06.16.16,0,0,0-.08-.05c-1-.15-1.88-.27-2.78-.35a1.16,1.16,0,0,1-.88-.5,1.07,1.07,0,0,1-.11-1l.73-2.18a1.88,1.88,0,0,1,.74-1,2.1,2.1,0,0,1,1.2-.37,25.06,25.06,0,0,1,4.18.41,1.13,1.13,0,0,1,.88.63,1.38,1.38,0,0,1,.1,1.1L68.69,20s0,0,0,.06a.1.1,0,0,0,.12,0l1.3-.63a1.42,1.42,0,0,1,1.14-.06,1.38,1.38,0,0,1,.83.72L73.45,23a1.36,1.36,0,0,1,0,1.1,1.42,1.42,0,0,1-.76.85l-9,4.33c-.12.06-.14.14-.06.25q2.39,3.9,5.14,7.79a.18.18,0,0,0,.1,0s0,0,0,0A42.89,42.89,0,0,0,68.48,30.21ZM42.57,43.4a1.47,1.47,0,0,1,.69-2l12.23-5.9a1.37,1.37,0,0,1,1.12-.06,1.43,1.43,0,0,1,.83.77l4.68,9.7A1.42,1.42,0,0,1,62.19,47a1.37,1.37,0,0,1-.74.84l-12.23,5.9a1.46,1.46,0,0,1-1.14.07,1.38,1.38,0,0,1-.83-.72ZM55,45.28a.15.15,0,0,0,.08-.22l-1.34-2.79c-.06-.13-.14-.16-.24-.12l-4.17,2a.19.19,0,0,0-.09.28l1.34,2.79c0,.1.14.12.26.06Z"/><path d="M102.16,18.73c0,.12,0,.17.16.13l15.39-3.8a1.41,1.41,0,0,1,1.7,1l.22.88q1.65,7.38,2.46,11.31t1,6.33a8.66,8.66,0,0,1-.07,3.33,4.77,4.77,0,0,1-.92,1.67,4.62,4.62,0,0,1-1.47,1,13.12,13.12,0,0,1-2.61.94,1.52,1.52,0,0,1-1.13-.17,1.65,1.65,0,0,1-.79-.88q-.3-.66-.66-1.29a.15.15,0,0,0-.23-.07l-.15.08a1.1,1.1,0,0,1-.87.09,1,1,0,0,1-.65-.56.15.15,0,0,0-.2-.12c-2.75,1-6.78,2.57-12.1,4.56a1.35,1.35,0,0,1-1.13,0,1.31,1.31,0,0,1-.74-.81l-.72-1.91a1.4,1.4,0,0,1,.07-1.08,1.37,1.37,0,0,1,.84-.72q2.4-.77,5.69-1.92a.17.17,0,0,0,.15-.25l-.4-1.64c0-.11-.11-.14-.24-.11l-4.33,1.07a1.45,1.45,0,0,1-1.13-.17,1.41,1.41,0,0,1-.67-.92l-1.75-7.09a.43.43,0,0,0-.19-.25c-.27-.16-.95-.48-2-.95q-.06,0-.09,0a.07.07,0,0,0,0,.07c.23.71.53,1.81.9,3.31q2.7,10.93,1.18,14.76A4.63,4.63,0,0,1,94.48,47,13.79,13.79,0,0,1,91,48.34a1.36,1.36,0,0,1-1.09-.17,1.79,1.79,0,0,1-.75-.9,12.06,12.06,0,0,0-1.42-2.8.87.87,0,0,1-.15-.86.78.78,0,0,1,.66-.54l.92-.23c.48-.12.88-.23,1.19-.34a2,2,0,0,0,1.07-1c.38-.88.11-3.4-.8-7.54,0,0,0,0-.07,0s-.07,0-.06,0a37.07,37.07,0,0,1-1.85,3.35,1.27,1.27,0,0,1-.9.59,1.3,1.3,0,0,1-1-.32,24.62,24.62,0,0,0-2.52-1.76,1.24,1.24,0,0,1-.53-.76,1.22,1.22,0,0,1,.2-1.07,26.26,26.26,0,0,0,4.35-8.22.4.4,0,0,0,0-.34A24.59,24.59,0,0,0,87,22.73c0-.1-.1-.1-.17,0-.43.65-.82,1.21-1.15,1.69a1.28,1.28,0,0,1-.94.59,1.52,1.52,0,0,1-1.11-.26,23.65,23.65,0,0,0-2.47-1.42,1.17,1.17,0,0,1-.62-.79,1.16,1.16,0,0,1,.18-1,32.64,32.64,0,0,0,2.47-3.93.29.29,0,0,0,0-.33,26.53,26.53,0,0,0-3.88-3,1.18,1.18,0,0,1-.6-.87,1.16,1.16,0,0,1,.26-1l1.51-1.82a1.71,1.71,0,0,1,1-.62l.08,0a1.67,1.67,0,0,1,1.2.21A25.45,25.45,0,0,1,85.35,12a.14.14,0,0,0,.11,0,.13.13,0,0,0,.09-.07q.32-.93.6-1.89a1.45,1.45,0,0,1,.64-.9,1.55,1.55,0,0,1,1.12-.21l3.91.86c.12,0,.17,0,.14-.12a1.4,1.4,0,0,1,.15-1.06A1.24,1.24,0,0,1,93,8l20.68-5.12a1.36,1.36,0,0,1,1.1.17,1.5,1.5,0,0,1,.66.93l2,7.93A1.45,1.45,0,0,1,117.2,13a1.35,1.35,0,0,1-.9.67L102.72,17a.26.26,0,0,0-.2.22C102.41,17.72,102.29,18.22,102.16,18.73Zm-6.45,0a1.41,1.41,0,0,1-1.09-.18,1.43,1.43,0,0,1-.67-.92l-1.74-7s0,0,0,0,0,0-.07.06A42.45,42.45,0,0,1,90,16.46a.53.53,0,0,0,0,.33,27.43,27.43,0,0,1,3.78,7.36c.05.1.11.1.17,0a19.17,19.17,0,0,0,2.53-5.43c0-.12,0-.17-.12-.14Zm2.12-7.42a.15.15,0,0,0-.12.2l.44,1.81a.16.16,0,0,0,.2.12l1.28-.32c.14,0,.19-.1.17-.21l-.45-1.8c0-.11-.11-.15-.24-.11Zm17.64,19.75a.94.94,0,0,1-.11.75.93.93,0,0,1-.61.45c-.08,0-.1.05-.06.1A31.76,31.76,0,0,1,117,36s0,0,.07,0,.08,0,.1,0a1.27,1.27,0,0,1,.13-.33q.45-1.47-2.59-14.75a.17.17,0,0,0-.25-.15l-14.14,3.5a.36.36,0,0,0-.28.24,16,16,0,0,1-1.27,2.26.1.1,0,0,0,.12.15l3.73-.93a.18.18,0,0,0,.15-.25v0a1.41,1.41,0,0,1,1-1.75l1.61-.39a1.42,1.42,0,0,1,1.08.15,1.4,1.4,0,0,1,.67.9v0a.17.17,0,0,0,.25.15l4.64-1.15a1.48,1.48,0,0,1,1.13.15,1.39,1.39,0,0,1,.66.9Zm-13,.29c0,.13.11.19.21.16l1.29-.32a.18.18,0,0,0,.15-.25l-.32-1.28c0-.1-.11-.14-.24-.11l-1.28.32a.14.14,0,0,0-.12.2Zm1.12-21.45a.14.14,0,0,0-.12.2l.44,1.8a.15.15,0,0,0,.2.12l1.33-.33c.13,0,.18-.1.16-.21l-.45-1.8c0-.11-.11-.15-.24-.11Zm4.78,18.46c-.14,0-.19.1-.16.21l.31,1.28c0,.14.12.19.25.15l1.37-.33c.1,0,.14-.11.11-.24l-.32-1.29a.15.15,0,0,0-.2-.12Zm1-19.89c-.14,0-.19.1-.16.21l.44,1.8c0,.11.11.15.24.11l1.37-.34c.1,0,.14-.09.12-.2l-.45-1.8c0-.11-.09-.15-.2-.12Zm.44,26.55c0,.14.12.17.24.11l1.19-.37c.08,0,.09-.07,0-.14a.83.83,0,0,1-.18-.7.84.84,0,0,1,.41-.59l.63-.37s0,0,0,0,0,0-.05,0l-2.48.61c-.14,0-.19.1-.16.21Z"/><path d="M148.38,22.14a2.33,2.33,0,0,1-.55,1.07,1.37,1.37,0,0,1-1,.47l-3.67.14a1.52,1.52,0,0,1-1.09-.4,1.17,1.17,0,0,1-.41-1,5.71,5.71,0,0,1,.93-2.72,9.75,9.75,0,0,1,1.9-2.17c.73-.61,1.44-1.18,2.15-1.73A9.3,9.3,0,0,0,148.39,14a2.91,2.91,0,0,0,.66-1.87,2.83,2.83,0,0,0-1.37-2.48,6.12,6.12,0,0,0-3.5-.72,7.28,7.28,0,0,0-5,2.21,1.64,1.64,0,0,1-1,.47,1.41,1.41,0,0,1-1.06-.36l-2.05-1.74a1.46,1.46,0,0,1-.54-1.09,1.36,1.36,0,0,1,.38-1,14.54,14.54,0,0,1,4.46-3.26,13.74,13.74,0,0,1,5.45-1.32,13.32,13.32,0,0,1,8.07,1.93,7.59,7.59,0,0,1,3.31,6.45,5.3,5.3,0,0,1-.64,2.81,7.18,7.18,0,0,1-1.78,2.19c-.72.61-1.45,1.19-2.18,1.76a13.63,13.63,0,0,0-2,1.91A5,5,0,0,0,148.38,22.14ZM140.28,31a4.4,4.4,0,0,1,1.28-3.38,5.61,5.61,0,0,1,7.18-.26,4.32,4.32,0,0,1,1.53,3.27A4.4,4.4,0,0,1,149,34a5.56,5.56,0,0,1-7.18.27A4.43,4.43,0,0,1,140.28,31Z"/><path d="M204.77,20.65s-.05,0-.05,0a.25.25,0,0,0,0,.08l2.73,2.18a1.8,1.8,0,0,1,.64,1,1.61,1.61,0,0,1-.22,1.18,43.3,43.3,0,0,1-6.79,9,.55.55,0,0,0-.1.32c.23,1.46.6,2.24,1.12,2.33s1-1.15,1.62-3.67a.63.63,0,0,1,.5-.48.67.67,0,0,1,.67.26,19.83,19.83,0,0,0,1.84,2,2.07,2.07,0,0,1,.72,1.92,3.13,3.13,0,0,1-.11.44q-2.81,7.44-6.43,6.83h-.08q-3.39-.75-4.83-5.38c0-.12-.1-.14-.19-.08a25.2,25.2,0,0,1-4.63,2.61,1.45,1.45,0,0,1-1.14,0,1.69,1.69,0,0,1-.92-.72,23.8,23.8,0,0,0-2-2.63A.88.88,0,0,1,187,37a1,1,0,0,1,.6-.65l.17-.06s0,0,0,0a.1.1,0,0,0-.05-.06l-6.27-1c-.11,0-.18,0-.2.17l-.65,3.83a1.39,1.39,0,0,1-.59.93,1.45,1.45,0,0,1-1.11.25L176,39.87a1.45,1.45,0,0,1-1-.6,1.43,1.43,0,0,1-.26-1.07l.65-3.83c0-.13,0-.21-.13-.23l-7-1.18a1.37,1.37,0,0,1-.95-.6,1.44,1.44,0,0,1-.24-1.06l.41-2.4a1.44,1.44,0,0,1,.58-1,1.36,1.36,0,0,1,1.09-.26l7,1.18c.11,0,.17,0,.19-.14l.21-1.22c0-.13,0-.21-.13-.23l-5.38-.9a1.43,1.43,0,0,1-1-.61,1.39,1.39,0,0,1-.26-1.07L172,11.82a1.47,1.47,0,0,1,1.71-1.22L191,13.51a1.37,1.37,0,0,1,.93.6,1.45,1.45,0,0,1,.25,1.11L190,28.08a1.47,1.47,0,0,1-1.66,1.18l-5.74-1c-.11,0-.18,0-.2.17l-.21,1.23a.14.14,0,0,0,.14.18L189,31a1.45,1.45,0,0,1,1,.6,1.43,1.43,0,0,1,.25,1.11l-.44,2.61c0,.13,0,.17.11.1a26.58,26.58,0,0,0,5-3.1A.37.37,0,0,0,195,32a91,91,0,0,1,.37-11.62c0-.14-.07-.21-.18-.2l-1.29-.05a1.4,1.4,0,0,1-1-.46,1.31,1.31,0,0,1-.34-1.07l.1-2.83a1.56,1.56,0,0,1,.5-1,1.49,1.49,0,0,1,1.07-.39l1.58.1c.11,0,.18-.06.19-.17.31-2.8.73-6.08,1.28-9.84a1.28,1.28,0,0,1,.56-.93,1.43,1.43,0,0,1,1.07-.26l2.85.48a1.45,1.45,0,0,1,.93.58,1.35,1.35,0,0,1,.25,1.09c-.43,2.74-.85,5.79-1.24,9.12,0,.14,0,.21.17.2l7,.34a1.47,1.47,0,0,1,1,.5,1.51,1.51,0,0,1,.38,1L210,19.4a1.55,1.55,0,0,1-.51,1,1.42,1.42,0,0,1-1.07.38ZM182,1.19a1.45,1.45,0,0,1,1,.6,1.41,1.41,0,0,1,.25,1.11L182.1,9.29a1.31,1.31,0,0,1-.6,1,1.46,1.46,0,0,1-1.1.23l-6.92-1.16a1.48,1.48,0,0,1-1-.59,1.36,1.36,0,0,1-.26-1.09l1.08-6.39a1.41,1.41,0,0,1,.6-1A1.41,1.41,0,0,1,175,0Zm-6.25,20c-.14,0-.21,0-.23.13l-.19,1.1a.19.19,0,0,0,.17.24l2.08.35a.19.19,0,0,0,.24-.17l.18-1.1c0-.11,0-.18-.17-.2Zm.93-5.53c-.13,0-.21,0-.23.12l-.18,1.1c0,.11,0,.18.17.2l2.08.35c.13,0,.21,0,.23-.13l.19-1.1c0-.11-.05-.17-.18-.19Zm1.29-9.37a.15.15,0,0,0,.19-.14l.26-1.55c0-.13,0-.21-.13-.23l-.94-.16c-.1,0-.17,0-.19.18l-.26,1.55a.14.14,0,0,0,.13.19Zm7.22,18c.11,0,.18,0,.2-.18l.18-1.1a.13.13,0,0,0-.13-.18l-2.2-.38a.15.15,0,0,0-.19.14l-.19,1.1c0,.13,0,.21.13.23Zm7.93-21.19a1.39,1.39,0,0,1,.92.6,1.41,1.41,0,0,1,.25,1.11l-1.07,6.39a1.39,1.39,0,0,1-.6.95,1.41,1.41,0,0,1-1.07.23l-7-1.17a1.4,1.4,0,0,1-1.18-1.66l1.07-6.4a1.53,1.53,0,0,1,.58-1,1.42,1.42,0,0,1,1.1-.25Zm-7,15.61a.14.14,0,0,0,.19-.13l.19-1.1c0-.11,0-.17-.14-.19l-2.2-.37a.14.14,0,0,0-.19.13l-.18,1.1a.14.14,0,0,0,.13.19ZM189,8.11c.14,0,.21,0,.23-.13l.26-1.54a.18.18,0,0,0-.17-.24L188.39,6c-.11,0-.18,0-.2.18l-.26,1.54a.14.14,0,0,0,.14.19Zm15.32,12.67s0-.05,0-.1a.15.15,0,0,0-.11-.08l-2.95-.12c-.12,0-.18.08-.21.22-.17,2-.29,3.88-.35,5.55,0,0,0,0,.06.05s.06,0,.07,0A37.9,37.9,0,0,0,204.32,20.78Zm6.31-9.36a1.46,1.46,0,0,1-.17,1.14,1.8,1.8,0,0,1-.94.77L207,14.2a1.23,1.23,0,0,1-1-.13,1.26,1.26,0,0,1-.61-.86,32.81,32.81,0,0,0-1.44-5.14A1.4,1.4,0,0,1,204,7a1.37,1.37,0,0,1,.84-.72l2.2-.67a1.5,1.5,0,0,1,1.14.06,1.55,1.55,0,0,1,.8.85A37.52,37.52,0,0,1,210.63,11.42Z"/><path d="M244.32,32.91a1.42,1.42,0,0,1,1-.57,1.53,1.53,0,0,1,1.11.23l2.86,2a1.28,1.28,0,0,1,.58.91,1.35,1.35,0,0,1-.29,1.06A56.72,56.72,0,0,1,238.41,47a.28.28,0,0,0-.16.29c-.07,2.37.22,3.69.89,3.95s1.74-1.43,3.38-5a.61.61,0,0,1,.58-.39.65.65,0,0,1,.63.38,15.64,15.64,0,0,0,2,2.94,2,2,0,0,1,.51,1.17,1.67,1.67,0,0,1-.06.95,1,1,0,0,1-.14.26A19.07,19.07,0,0,1,242.68,56a5.32,5.32,0,0,1-3,1.59,7.85,7.85,0,0,1-3.49-.66c-2.07-.81-3.4-2.86-4-6.13,0-.12-.07-.16-.18-.11a36.55,36.55,0,0,1-5.24,2.06,1.47,1.47,0,0,1-1.13-.11,1.66,1.66,0,0,1-.79-.86,37.2,37.2,0,0,0-1.61-3.47,1.2,1.2,0,0,1,0-1,1,1,0,0,1,.74-.59l.84-.21,0,0s0,0,0,0q-3.1-.47-8.63-1.39c-3.69-.62-5.94-1-6.76-1.1a1.35,1.35,0,0,1-.92-.58,1.4,1.4,0,0,1-.23-1.11l.67-3.42a1.55,1.55,0,0,1,.66-.94,1.39,1.39,0,0,1,1.08-.2q6.85,1.5,16.16,3.11a1.23,1.23,0,0,1,.9.6,1.19,1.19,0,0,1,.14,1L227,45.7c0,.1,0,.14.14.1a30.16,30.16,0,0,0,4.79-2.15.45.45,0,0,0,.2-.28,84.71,84.71,0,0,1,3.49-16.81.18.18,0,0,0-.12-.27l-17.41-6.83a1.45,1.45,0,0,1-.82-.79,1.4,1.4,0,0,1,0-1.1l1.15-2.92a1.37,1.37,0,0,1,.77-.78,1.41,1.41,0,0,1,1.14,0l17.07,6.69c.1,0,.17,0,.22-.13.39-1.21.85-2.5,1.4-3.89a1.24,1.24,0,0,1,.74-.82,1.47,1.47,0,0,1,1.13,0l3.42,1.35a1.42,1.42,0,0,1,.79.75,1.36,1.36,0,0,1,0,1.12,8.75,8.75,0,0,0-.37.83c-.41,1.05-.78,2.06-1.1,3a.18.18,0,0,0,.12.26l4.49,1.77a0,0,0,0,0,.06,0,.18.18,0,0,0,0-.1c-.55-.8-1.09-1.56-1.64-2.28a1.13,1.13,0,0,1-.23-1,1,1,0,0,1,.65-.76l2.1-1a1.84,1.84,0,0,1,1.26-.15,2,2,0,0,1,1.09.62A25.32,25.32,0,0,1,254,23.54a1.12,1.12,0,0,1,.13,1.08,1.3,1.3,0,0,1-.74.81l-1.47.71s0,0-.05.05a.11.11,0,0,0,.08.1l1.34.52a1.47,1.47,0,0,1,.83.79,1.4,1.4,0,0,1,0,1.1L253,31.62a1.42,1.42,0,0,1-.77.79,1.45,1.45,0,0,1-1.14,0l-9.26-3.64c-.13-.05-.2,0-.23.13-.82,2.93-1.57,5.95-2.22,9.06a.19.19,0,0,0,0,.09s0,0,.05,0A44.22,44.22,0,0,0,244.32,32.91ZM217,22.87A1.49,1.49,0,0,1,219,22l12.64,5a1.38,1.38,0,0,1,.81.78,1.47,1.47,0,0,1,0,1.13l-3.94,10a1.42,1.42,0,0,1-.75.79,1.37,1.37,0,0,1-1.12,0l-12.65-5a1.48,1.48,0,0,1-.82-.79,1.4,1.4,0,0,1,0-1.1Zm7.09,10.41a.15.15,0,0,0,.22-.09l1.13-2.89c.05-.12,0-.21-.08-.25l-4.3-1.69a.18.18,0,0,0-.27.12l-1.13,2.88c0,.1,0,.18.13.23Z"/><path d="M269.48,61.46q-.18-.1-.27,0l-2.67,4.07a.2.2,0,0,0,0,.27,44.07,44.07,0,0,0,4.8,3.59c.93.64,1.89,1.28,2.88,1.93,1.63,1.08,3.35,2.17,5.15,3.29a.85.85,0,0,1,.4.75,1,1,0,0,1-.17.48,1,1,0,0,1-.27.26c-.37.26-.78.56-1.24.92s-1,.75-1.42,1.1a2,2,0,0,1-1.11.5,1.77,1.77,0,0,1-1.2-.29l-6.52-4.28a35.83,35.83,0,0,1-8.64-7.53,16.45,16.45,0,0,1-3.5-9c0-.12-.09-.14-.2-.08a21.8,21.8,0,0,1-7.17,3.19,1.47,1.47,0,0,1-1.1-.25,1.56,1.56,0,0,1-.64-.94,23.9,23.9,0,0,0-.9-3,1.22,1.22,0,0,1,.14-1,1.27,1.27,0,0,1,.81-.55q6.15-1.26,12.51-8.54a1.49,1.49,0,0,1,1-.5,1.32,1.32,0,0,1,1.05.31l2.67,2.25a1.35,1.35,0,0,1,.47,1,1.23,1.23,0,0,1-.39,1c-.87.88-1.82,1.8-2.85,2.77a.47.47,0,0,0-.14.3,13.56,13.56,0,0,0,1.18,6.85c.06.11.13.11.19,0l6.88-10.49a.15.15,0,0,0-.05-.23l-11.74-7.7a1.49,1.49,0,0,1-.43-2.06l1.5-2.28a1.36,1.36,0,0,1,.91-.6,1.38,1.38,0,0,1,1.09.19l11.73,7.69a.18.18,0,0,0,.29-.06l1.54-2.34c.06-.1,0-.18-.08-.25l-8.56-5.62a1.36,1.36,0,0,1-.61-.91,1.42,1.42,0,0,1,.21-1.12l1.45-2.21a1.46,1.46,0,0,1,.94-.65,1.4,1.4,0,0,1,1.08.2l8.57,5.61c.11.08.2.07.26,0l1.31-2a1.42,1.42,0,0,1,.92-.61,1.36,1.36,0,0,1,1.08.2l2.9,1.9a1.33,1.33,0,0,1,.61.91A1.42,1.42,0,0,1,284,39l-1.31,2c-.06.09,0,.18.08.25l9.18,6a1.39,1.39,0,0,1,.61.92,1.48,1.48,0,0,1-.21,1.12l-1.45,2.21a1.45,1.45,0,0,1-.94.64,1.43,1.43,0,0,1-1.09-.19l-9.18-6c-.11-.08-.2-.07-.26,0l-1.54,2.35a.18.18,0,0,0,.06.29l12,7.87a1.46,1.46,0,0,1,.65.94,1.4,1.4,0,0,1-.2,1.08l-1.49,2.28a1.46,1.46,0,0,1-.94.65,1.44,1.44,0,0,1-1.12-.22l-12-7.87c-.12-.08-.21-.07-.27,0l-2.17,3.32c-.06.09,0,.17.08.25l9.6,6.29a1.49,1.49,0,0,1,.43,2.06l-1.36,2.07a1.42,1.42,0,0,1-.94.64,1.48,1.48,0,0,1-1.12-.21Z"/><path d="M292.61,86.08A4.3,4.3,0,0,1,296,84.72,5.63,5.63,0,0,1,301,89.8a4.66,4.66,0,0,1-4.72,4.71,5.54,5.54,0,0,1-5.08-5.07A4.39,4.39,0,0,1,292.61,86.08Zm12-.09a2.34,2.34,0,0,1-1.17.32,1.39,1.39,0,0,1-1-.41l-2.6-2.6a1.49,1.49,0,0,1-.45-1.06,1.17,1.17,0,0,1,.48-1,5.83,5.83,0,0,1,2.63-1.17,9.72,9.72,0,0,1,2.89-.09c.93.12,1.84.25,2.73.4a9.88,9.88,0,0,0,2.46.1,2.89,2.89,0,0,0,1.81-.79,2.83,2.83,0,0,0,.89-2.7,6.15,6.15,0,0,0-1.85-3,7.26,7.26,0,0,0-5-2.13,1.63,1.63,0,0,1-1.05-.44,1.43,1.43,0,0,1-.46-1l-.12-2.69a1.45,1.45,0,0,1,.44-1.14,1.34,1.34,0,0,1,1-.4,14.29,14.29,0,0,1,5.43,1,13.68,13.68,0,0,1,4.67,3.1,13.24,13.24,0,0,1,4.07,7.22,7.61,7.61,0,0,1-2.46,6.82,5.34,5.34,0,0,1-2.49,1.44,7.31,7.31,0,0,1-2.82.19c-.94-.11-1.86-.25-2.77-.4a13.69,13.69,0,0,0-2.79-.19A4.94,4.94,0,0,0,304.61,86Z"/></g></g></svg>