<svg xmlns="http://www.w3.org/2000/svg" width="452.294" height="47.928" viewBox="0 0 452.294 47.928"><g transform="translate(-467.942 -702)"><g transform="translate(-1912 -1216.667)"><rect width="2.899" height="2.898" transform="translate(2379.942 1963.696)" fill="#1a1a1a"/><rect width="2.898" height="2.898" transform="translate(2383.99 1963.696)" fill="#1a1a1a"/><rect width="2.898" height="2.898" transform="translate(2388.037 1963.696)" fill="#1a1a1a"/><rect width="2.899" height="2.898" transform="translate(2392.083 1963.696)" fill="#1a1a1a"/><rect width="2.899" height="2.898" transform="translate(2396.13 1963.696)" fill="#1a1a1a"/><rect width="2.898" height="2.898" transform="translate(2400.177 1963.696)" fill="#1a1a1a"/><rect width="2.899" height="2.898" transform="translate(2404.224 1963.696)" fill="#1a1a1a"/><rect width="2.899" height="2.898" transform="translate(2408.27 1963.696)" fill="#1a1a1a"/><rect width="2.899" height="2.898" transform="translate(2412.316 1963.696)" fill="#1a1a1a"/><rect width="2.899" height="2.898" transform="translate(2416.363 1963.696)" fill="#1a1a1a"/><rect width="2.898" height="2.898" transform="translate(2420.411 1963.696)" fill="#1a1a1a"/><rect width="2.899" height="2.898" transform="translate(2424.458 1963.696)" fill="#1a1a1a"/><rect width="2.899" height="2.898" transform="translate(2428.504 1963.696)" fill="#1a1a1a"/><rect width="2.898" height="2.898" transform="translate(2432.551 1963.696)" fill="#1a1a1a"/><rect width="2.899" height="2.898" transform="translate(2436.598 1963.696)" fill="#1a1a1a"/><rect width="2.899" height="2.898" transform="translate(2440.644 1963.696)" fill="#1a1a1a"/><rect width="2.899" height="2.898" transform="translate(2444.691 1963.696)" fill="#1a1a1a"/><rect width="2.897" height="2.898" transform="translate(2448.738 1963.696)" fill="#1a1a1a"/><rect width="2.897" height="2.898" transform="translate(2452.785 1963.696)" fill="#1a1a1a"/><rect width="2.899" height="2.898" transform="translate(2456.831 1963.696)" fill="#1a1a1a"/><rect width="2.899" height="2.898" transform="translate(2460.878 1963.696)" fill="#1a1a1a"/><rect width="2.899" height="2.898" transform="translate(2464.925 1963.696)" fill="#1a1a1a"/><rect width="2.898" height="2.898" transform="translate(2468.972 1963.696)" fill="#1a1a1a"/><rect width="2.898" height="2.898" transform="translate(2473.019 1963.696)" fill="#1a1a1a"/><rect width="2.899" height="2.898" transform="translate(2477.065 1963.696)" fill="#1a1a1a"/><rect width="2.898" height="2.898" transform="translate(2481.112 1963.696)" fill="#1a1a1a"/><rect width="2.899" height="2.898" transform="translate(2485.159 1963.696)" fill="#1a1a1a"/><rect width="2.899" height="2.898" transform="translate(2489.206 1963.696)" fill="#1a1a1a"/><rect width="2.899" height="2.898" transform="translate(2493.251 1963.696)" fill="#1a1a1a"/><rect width="2.899" height="2.898" transform="translate(2497.299 1963.696)" fill="#1a1a1a"/><rect width="2.898" height="2.898" transform="translate(2501.346 1963.696)" fill="#1a1a1a"/><rect width="2.899" height="2.898" transform="translate(2505.393 1963.696)" fill="#1a1a1a"/><rect width="2.898" height="2.898" transform="translate(2509.439 1963.696)" fill="#1a1a1a"/><rect width="2.898" height="2.898" transform="translate(2513.486 1963.696)" fill="#1a1a1a"/><rect width="2.899" height="2.898" transform="translate(2517.533 1963.696)" fill="#1a1a1a"/><rect width="2.899" height="2.898" transform="translate(2521.579 1963.696)" fill="#1a1a1a"/><rect width="2.899" height="2.898" transform="translate(2525.626 1963.696)" fill="#1a1a1a"/><rect width="2.897" height="2.898" transform="translate(2529.674 1963.696)" fill="#1a1a1a"/><rect width="2.897" height="2.898" transform="translate(2533.721 1963.696)" fill="#1a1a1a"/><rect width="2.899" height="2.898" transform="translate(2537.767 1963.696)" fill="#1a1a1a"/><rect width="2.899" height="2.898" transform="translate(2541.813 1963.696)" fill="#1a1a1a"/><rect width="2.899" height="2.898" transform="translate(2545.86 1963.696)" fill="#1a1a1a"/><rect width="2.898" height="2.898" transform="translate(2549.907 1963.696)" fill="#1a1a1a"/><rect width="2.899" height="2.898" transform="translate(2553.953 1963.696)" fill="#1a1a1a"/><rect width="2.899" height="2.898" transform="translate(2558 1963.696)" fill="#1a1a1a"/><rect width="2.898" height="2.898" transform="translate(2562.047 1963.696)" fill="#1a1a1a"/><rect width="2.899" height="2.898" transform="translate(2566.094 1963.696)" fill="#1a1a1a"/><rect width="2.899" height="2.898" transform="translate(2570.141 1963.696)" fill="#1a1a1a"/><rect width="2.899" height="2.898" transform="translate(2574.187 1963.696)" fill="#1a1a1a"/><rect width="2.899" height="2.898" transform="translate(2578.234 1963.696)" fill="#1a1a1a"/><rect width="2.898" height="2.898" transform="translate(2582.282 1963.696)" fill="#1a1a1a"/><rect width="2.899" height="2.898" transform="translate(2586.328 1963.696)" fill="#1a1a1a"/><rect width="2.898" height="2.898" transform="translate(2590.375 1963.696)" fill="#1a1a1a"/><rect width="2.897" height="2.898" transform="translate(2594.422 1963.696)" fill="#1a1a1a"/><rect width="2.898" height="2.898" transform="translate(2598.469 1963.696)" fill="#1a1a1a"/><rect width="2.899" height="2.898" transform="translate(2602.515 1963.696)" fill="#1a1a1a"/><rect width="2.899" height="2.898" transform="translate(2379.942 1959.869)" fill="#1a1a1a"/><rect width="2.899" height="2.898" transform="translate(2379.942 1956.064)" fill="#1a1a1a" opacity="0.5"/><rect width="2.899" height="2.898" transform="translate(2379.942 1952.26)" fill="#1a1a1a" opacity="0.2"/><rect width="2.898" height="2.898" transform="translate(2383.99 1959.869)" fill="#1a1a1a"/><rect width="2.898" height="2.898" transform="translate(2383.99 1956.064)" fill="#1a1a1a"/><rect width="2.898" height="2.898" transform="translate(2383.99 1952.26)" fill="#1a1a1a"/><rect width="2.898" height="2.898" transform="translate(2383.99 1948.455)" fill="#1a1a1a" opacity="0.5"/><rect width="2.898" height="2.899" transform="translate(2383.99 1944.651)" fill="#1a1a1a" opacity="0.2"/><rect width="2.898" height="2.898" transform="translate(2388.037 1959.869)" fill="#1a1a1a"/><rect width="2.898" height="2.898" transform="translate(2388.037 1956.064)" fill="#1a1a1a"/><rect width="2.898" height="2.898" transform="translate(2388.037 1952.26)" fill="#1a1a1a"/><rect width="2.898" height="2.898" transform="translate(2388.037 1948.455)" fill="#1a1a1a"/><rect width="2.898" height="2.899" transform="translate(2388.037 1944.651)" fill="#1a1a1a"/><rect width="2.898" height="2.899" transform="translate(2388.037 1940.846)" fill="#1a1a1a"/><rect width="2.898" height="2.899" transform="translate(2388.037 1937.149)" fill="#1a1a1a" opacity="0.5"/><rect width="2.898" height="2.899" transform="translate(2388.037 1933.453)" fill="#1a1a1a" opacity="0.2"/><rect width="2.899" height="2.898" transform="translate(2392.083 1959.869)" fill="#1a1a1a"/><rect width="2.899" height="2.898" transform="translate(2392.083 1956.064)" fill="#1a1a1a"/><rect width="2.899" height="2.898" transform="translate(2392.083 1952.26)" fill="#1a1a1a"/><rect width="2.899" height="2.898" transform="translate(2392.083 1948.455)" fill="#1a1a1a" opacity="0.5"/><rect width="2.899" height="2.899" transform="translate(2392.083 1944.651)" fill="#1a1a1a" opacity="0.2"/><rect width="2.899" height="2.898" transform="translate(2396.13 1959.869)" fill="#1a1a1a"/><rect width="2.899" height="2.898" transform="translate(2396.13 1956.064)" fill="#1a1a1a"/><rect width="2.899" height="2.898" transform="translate(2396.13 1952.26)" fill="#1a1a1a"/><rect width="2.899" height="2.898" transform="translate(2396.13 1948.455)" fill="#1a1a1a" opacity="0.5"/><rect width="2.899" height="2.899" transform="translate(2396.13 1944.651)" fill="#1a1a1a" opacity="0.2"/><rect width="2.898" height="2.898" transform="translate(2400.177 1959.869)" fill="#1a1a1a"/><rect width="2.898" height="2.898" transform="translate(2400.177 1956.064)" fill="#1a1a1a"/><rect width="2.898" height="2.898" transform="translate(2400.177 1952.26)" fill="#1a1a1a"/><rect width="2.898" height="2.898" transform="translate(2400.177 1948.455)" fill="#1a1a1a"/><rect width="2.898" height="2.899" transform="translate(2400.177 1944.651)" fill="#1a1a1a" opacity="0.5"/><rect width="2.898" height="2.899" transform="translate(2400.177 1940.846)" fill="#1a1a1a" opacity="0.2"/><rect width="2.899" height="2.898" transform="translate(2404.224 1959.869)" fill="#1a1a1a"/><rect width="2.899" height="2.898" transform="translate(2404.224 1956.064)" fill="#1a1a1a" opacity="0.5"/><rect width="2.899" height="2.898" transform="translate(2404.224 1952.26)" fill="#1a1a1a" opacity="0.2"/><rect width="2.899" height="2.898" transform="translate(2408.27 1959.869)" fill="#1a1a1a"/><rect width="2.899" height="2.898" transform="translate(2408.27 1956.064)" fill="#1a1a1a" opacity="0.5"/><rect width="2.899" height="2.898" transform="translate(2408.27 1952.26)" fill="#1a1a1a" opacity="0.2"/><rect width="2.899" height="2.898" transform="translate(2412.316 1959.869)" fill="#1a1a1a"/><rect width="2.899" height="2.898" transform="translate(2412.316 1956.064)" fill="#1a1a1a"/><rect width="2.899" height="2.898" transform="translate(2412.316 1952.26)" fill="#1a1a1a" opacity="0.5"/><rect width="2.899" height="2.898" transform="translate(2412.316 1948.455)" fill="#1a1a1a" opacity="0.2"/><rect width="2.899" height="2.898" transform="translate(2416.363 1959.869)" fill="#1a1a1a"/><rect width="2.898" height="2.898" transform="translate(2420.411 1959.869)" fill="#1a1a1a"/><rect width="2.898" height="2.898" transform="translate(2420.411 1956.064)" fill="#1a1a1a" opacity="0.5"/><rect width="2.899" height="2.898" transform="translate(2424.458 1959.869)" fill="#1a1a1a"/><rect width="2.899" height="2.898" transform="translate(2424.458 1956.064)" fill="#1a1a1a"/><rect width="2.899" height="2.898" transform="translate(2424.458 1952.26)" fill="#1a1a1a"/><rect width="2.899" height="2.898" transform="translate(2424.458 1948.455)" fill="#1a1a1a" opacity="0.5"/><rect width="2.899" height="2.899" transform="translate(2424.458 1944.651)" fill="#1a1a1a" opacity="0.2"/><rect width="2.899" height="2.898" transform="translate(2428.504 1959.869)" fill="#1a1a1a"/><rect width="2.899" height="2.898" transform="translate(2428.504 1956.064)" fill="#1a1a1a"/><rect width="2.899" height="2.898" transform="translate(2428.504 1952.26)" fill="#1a1a1a"/><rect width="2.899" height="2.898" transform="translate(2428.504 1948.455)" fill="#1a1a1a"/><rect width="2.899" height="2.899" transform="translate(2428.504 1944.651)" fill="#1a1a1a" opacity="0.5"/><rect width="2.898" height="2.898" transform="translate(2432.551 1959.869)" fill="#1a1a1a"/><rect width="2.898" height="2.898" transform="translate(2432.551 1956.064)" fill="#1a1a1a"/><rect width="2.898" height="2.898" transform="translate(2432.551 1952.26)" fill="#1a1a1a"/><rect width="2.898" height="2.898" transform="translate(2432.551 1948.455)" fill="#1a1a1a"/><rect width="2.898" height="2.899" transform="translate(2432.551 1944.651)" fill="#1a1a1a"/><rect width="2.898" height="2.899" transform="translate(2432.551 1940.846)" fill="#1a1a1a"/><rect width="2.898" height="2.899" transform="translate(2432.551 1937.149)" fill="#1a1a1a"/><rect width="2.898" height="2.899" transform="translate(2432.551 1933.453)" fill="#1a1a1a" opacity="0.5"/><rect width="2.899" height="2.898" transform="translate(2436.598 1959.869)" fill="#1a1a1a"/><rect width="2.899" height="2.898" transform="translate(2436.598 1956.064)" fill="#1a1a1a"/><rect width="2.899" height="2.898" transform="translate(2436.598 1952.26)" fill="#1a1a1a" opacity="0.5"/><rect width="2.899" height="2.898" transform="translate(2440.644 1959.869)" fill="#1a1a1a" opacity="0.5"/><rect width="2.899" height="2.898" transform="translate(2444.691 1959.869)" fill="#1a1a1a"/><rect width="2.899" height="2.898" transform="translate(2444.691 1956.064)" fill="#1a1a1a" opacity="0.5"/><rect width="2.897" height="2.898" transform="translate(2448.738 1959.869)" fill="#1a1a1a"/><rect width="2.897" height="2.898" transform="translate(2448.738 1956.064)" fill="#1a1a1a"/><rect width="2.897" height="2.898" transform="translate(2448.738 1952.26)" fill="#1a1a1a"/><rect width="2.897" height="2.898" transform="translate(2448.738 1948.455)" fill="#1a1a1a"/><rect width="2.897" height="2.899" transform="translate(2448.738 1944.651)" fill="#1a1a1a" opacity="0.5"/><rect width="2.897" height="2.898" transform="translate(2452.785 1959.869)" fill="#1a1a1a"/><rect width="2.897" height="2.898" transform="translate(2452.785 1956.064)" fill="#1a1a1a"/><rect width="2.897" height="2.898" transform="translate(2452.785 1952.26)" fill="#1a1a1a"/><rect width="2.897" height="2.898" transform="translate(2452.785 1948.455)" fill="#1a1a1a"/><rect width="2.897" height="2.899" transform="translate(2452.785 1944.651)" fill="#1a1a1a"/><rect width="2.897" height="2.899" transform="translate(2452.785 1940.846)" fill="#1a1a1a"/><rect width="2.897" height="2.899" transform="translate(2452.785 1937.149)" fill="#1a1a1a"/><rect width="2.897" height="2.899" transform="translate(2452.785 1933.453)" fill="#1a1a1a"/><rect width="2.897" height="2.898" transform="translate(2452.785 1929.756)" fill="#1a1a1a"/><rect width="2.897" height="2.898" transform="translate(2452.785 1926.06)" fill="#1a1a1a"/><rect width="2.897" height="2.899" transform="translate(2452.785 1922.363)" fill="#1a1a1a" opacity="0.5"/><rect width="2.899" height="2.898" transform="translate(2456.831 1959.869)" fill="#1a1a1a"/><rect width="2.899" height="2.898" transform="translate(2456.831 1956.064)" fill="#1a1a1a"/><rect width="2.899" height="2.898" transform="translate(2456.831 1952.26)" fill="#1a1a1a"/><rect width="2.899" height="2.898" transform="translate(2456.831 1948.455)" fill="#1a1a1a"/><rect width="2.899" height="2.899" transform="translate(2456.831 1944.651)" fill="#1a1a1a"/><rect width="2.899" height="2.899" transform="translate(2456.831 1940.846)" fill="#1a1a1a"/><rect width="2.899" height="2.899" transform="translate(2456.831 1937.149)" fill="#1a1a1a" opacity="0.5"/><rect width="2.899" height="2.898" transform="translate(2460.878 1959.869)" fill="#1a1a1a" opacity="0.5"/><rect width="2.899" height="2.898" transform="translate(2464.925 1959.869)" fill="#1a1a1a" opacity="0.5"/><rect width="2.898" height="2.898" transform="translate(2468.972 1959.869)" fill="#1a1a1a"/><rect width="2.898" height="2.898" transform="translate(2468.972 1956.064)" fill="#1a1a1a"/><rect width="2.898" height="2.898" transform="translate(2468.972 1952.26)" fill="#1a1a1a" opacity="0.5"/><rect width="2.898" height="2.898" transform="translate(2473.019 1959.869)" fill="#1a1a1a"/><rect width="2.898" height="2.898" transform="translate(2473.019 1956.064)" fill="#1a1a1a"/><rect width="2.898" height="2.898" transform="translate(2473.019 1952.26)" fill="#1a1a1a"/><rect width="2.898" height="2.898" transform="translate(2473.019 1948.455)" fill="#1a1a1a"/><rect width="2.898" height="2.899" transform="translate(2473.019 1944.651)" fill="#1a1a1a" opacity="0.5"/><rect width="2.899" height="2.898" transform="translate(2477.065 1959.869)" fill="#1a1a1a"/><rect width="2.899" height="2.898" transform="translate(2477.065 1956.064)" fill="#1a1a1a" opacity="0.5"/><rect width="2.898" height="2.898" transform="translate(2481.112 1959.869)" fill="#1a1a1a"/><rect width="2.899" height="2.898" transform="translate(2485.159 1959.869)" fill="#1a1a1a"/><rect width="2.899" height="2.898" transform="translate(2485.159 1956.064)" fill="#1a1a1a" opacity="0.5"/><rect width="2.899" height="2.898" transform="translate(2489.206 1959.869)" fill="#1a1a1a"/><rect width="2.899" height="2.898" transform="translate(2489.206 1956.064)" fill="#1a1a1a"/><rect width="2.899" height="2.898" transform="translate(2489.206 1952.26)" fill="#1a1a1a"/><rect width="2.899" height="2.898" transform="translate(2489.206 1948.455)" fill="#1a1a1a" opacity="0.5"/><rect width="2.899" height="2.898" transform="translate(2493.251 1959.869)" fill="#1a1a1a"/><rect width="2.899" height="2.898" transform="translate(2497.299 1959.869)" fill="#1a1a1a"/><rect width="2.899" height="2.898" transform="translate(2497.299 1956.064)" fill="#1a1a1a" opacity="0.5"/><rect width="2.898" height="2.898" transform="translate(2501.346 1959.869)" fill="#1a1a1a"/><rect width="2.898" height="2.898" transform="translate(2501.346 1956.064)" fill="#1a1a1a"/><rect width="2.898" height="2.898" transform="translate(2501.346 1952.26)" fill="#1a1a1a"/><rect width="2.898" height="2.898" transform="translate(2501.346 1948.455)" fill="#1a1a1a"/><rect width="2.898" height="2.899" transform="translate(2501.346 1944.651)" fill="#1a1a1a" opacity="0.5"/><rect width="2.899" height="2.898" transform="translate(2505.393 1959.869)" fill="#1a1a1a"/><rect width="2.899" height="2.898" transform="translate(2505.393 1956.064)" fill="#1a1a1a"/><rect width="2.899" height="2.898" transform="translate(2505.393 1952.26)" fill="#1a1a1a" opacity="0.2"/><rect width="2.898" height="2.898" transform="translate(2509.439 1959.869)" fill="#1a1a1a"/><rect width="2.898" height="2.898" transform="translate(2509.439 1956.064)" fill="#1a1a1a"/><rect width="2.898" height="2.898" transform="translate(2509.439 1952.26)" fill="#1a1a1a"/><rect width="2.898" height="2.898" transform="translate(2509.439 1948.455)" fill="#1a1a1a"/><rect width="2.898" height="2.899" transform="translate(2509.439 1944.651)" fill="#1a1a1a"/><rect width="2.898" height="2.899" transform="translate(2509.439 1940.846)" fill="#1a1a1a"/><rect width="2.898" height="2.899" transform="translate(2509.439 1937.149)" fill="#1a1a1a" opacity="0.5"/><rect width="2.898" height="2.898" transform="translate(2513.486 1959.869)" fill="#1a1a1a"/><rect width="2.898" height="2.898" transform="translate(2513.486 1956.064)" fill="#1a1a1a"/><rect width="2.898" height="2.898" transform="translate(2513.486 1952.26)" fill="#1a1a1a"/><rect width="2.898" height="2.898" transform="translate(2513.486 1948.455)" fill="#1a1a1a"/><rect width="2.898" height="2.899" transform="translate(2513.486 1944.651)" fill="#1a1a1a"/><rect width="2.898" height="2.899" transform="translate(2513.486 1940.846)" fill="#1a1a1a"/><rect width="2.898" height="2.899" transform="translate(2513.486 1937.149)" fill="#1a1a1a"/><rect width="2.898" height="2.899" transform="translate(2513.486 1933.453)" fill="#1a1a1a"/><rect width="2.898" height="2.898" transform="translate(2513.486 1929.756)" fill="#1a1a1a"/><rect width="2.898" height="2.898" transform="translate(2513.486 1926.06)" fill="#1a1a1a"/><rect width="2.898" height="2.899" transform="translate(2513.486 1922.363)" fill="#1a1a1a" opacity="0.5"/><rect width="2.899" height="2.898" transform="translate(2517.533 1959.869)" fill="#1a1a1a"/><rect width="2.899" height="2.898" transform="translate(2517.533 1956.064)" fill="#1a1a1a"/><rect width="2.899" height="2.898" transform="translate(2517.533 1952.26)" fill="#1a1a1a"/><rect width="2.899" height="2.898" transform="translate(2517.533 1948.455)" fill="#1a1a1a"/><rect width="2.899" height="2.899" transform="translate(2517.533 1944.651)" fill="#1a1a1a"/><rect width="2.899" height="2.899" transform="translate(2517.533 1940.846)" fill="#1a1a1a"/><rect width="2.899" height="2.899" transform="translate(2517.533 1937.149)" fill="#1a1a1a" opacity="0.5"/><rect width="2.899" height="2.898" transform="translate(2521.579 1959.869)" fill="#1a1a1a"/><rect width="2.899" height="2.898" transform="translate(2521.579 1956.064)" fill="#1a1a1a"/><rect width="2.899" height="2.898" transform="translate(2521.579 1952.26)" fill="#1a1a1a"/><rect width="2.899" height="2.898" transform="translate(2525.626 1959.869)" fill="#1a1a1a"/><rect width="2.897" height="2.898" transform="translate(2529.674 1959.869)" fill="#1a1a1a"/><rect width="2.897" height="2.898" transform="translate(2529.674 1956.064)" fill="#1a1a1a" opacity="0.5"/><rect width="2.897" height="2.898" transform="translate(2533.721 1959.869)" fill="#1a1a1a"/><rect width="2.897" height="2.898" transform="translate(2533.721 1956.064)" fill="#1a1a1a"/><rect width="2.897" height="2.898" transform="translate(2533.721 1952.26)" fill="#1a1a1a"/><rect width="2.897" height="2.898" transform="translate(2533.721 1948.455)" fill="#1a1a1a"/><rect width="2.897" height="2.899" transform="translate(2533.721 1944.651)" fill="#1a1a1a" opacity="0.5"/><rect width="2.899" height="2.898" transform="translate(2537.767 1959.869)" fill="#1a1a1a"/><rect width="2.899" height="2.898" transform="translate(2537.767 1956.064)" fill="#1a1a1a"/><rect width="2.899" height="2.898" transform="translate(2537.767 1952.26)" fill="#1a1a1a"/><rect width="2.899" height="2.898" transform="translate(2537.767 1948.455)" fill="#1a1a1a"/><rect width="2.899" height="2.899" transform="translate(2537.767 1944.651)" fill="#1a1a1a"/><rect width="2.899" height="2.899" transform="translate(2537.767 1940.846)" fill="#1a1a1a"/><rect width="2.899" height="2.899" transform="translate(2537.767 1937.149)" fill="#1a1a1a"/><rect width="2.899" height="2.899" transform="translate(2537.767 1933.453)" fill="#1a1a1a"/><rect width="2.899" height="2.898" transform="translate(2537.767 1929.756)" fill="#1a1a1a"/><rect width="2.899" height="2.898" transform="translate(2537.767 1926.06)" fill="#1a1a1a"/><rect width="2.899" height="2.899" transform="translate(2537.767 1922.363)" fill="#1a1a1a" opacity="0.5"/><rect width="2.899" height="2.898" transform="translate(2537.767 1918.667)" fill="#1a1a1a" opacity="0.2"/><rect width="2.899" height="2.898" transform="translate(2541.813 1959.869)" fill="#1a1a1a"/><rect width="2.899" height="2.898" transform="translate(2541.813 1956.064)" fill="#1a1a1a"/><rect width="2.899" height="2.898" transform="translate(2541.813 1952.26)" fill="#1a1a1a"/><rect width="2.899" height="2.898" transform="translate(2541.813 1948.455)" fill="#1a1a1a"/><rect width="2.899" height="2.899" transform="translate(2541.813 1944.651)" fill="#1a1a1a" opacity="0.5"/><rect width="2.899" height="2.898" transform="translate(2545.86 1959.869)" fill="#1a1a1a"/><rect width="2.899" height="2.898" transform="translate(2545.86 1956.064)" fill="#1a1a1a" opacity="0.5"/><rect width="2.898" height="2.898" transform="translate(2549.907 1959.869)" fill="#1a1a1a"/><rect width="2.899" height="2.898" transform="translate(2553.953 1959.869)" fill="#1a1a1a"/><rect width="2.899" height="2.898" transform="translate(2558 1959.869)" fill="#1a1a1a"/><rect width="2.898" height="2.898" transform="translate(2562.047 1959.869)" fill="#1a1a1a"/><rect width="2.898" height="2.898" transform="translate(2562.047 1956.064)" fill="#1a1a1a"/><rect width="2.898" height="2.898" transform="translate(2562.047 1952.26)" fill="#1a1a1a" opacity="0.5"/><rect width="2.899" height="2.898" transform="translate(2566.094 1959.869)" fill="#1a1a1a"/><rect width="2.899" height="2.899" transform="translate(2428.504 1940.846)" fill="#1a1a1a" opacity="0.2"/><rect width="2.898" height="2.898" transform="translate(2432.551 1929.756)" fill="#1a1a1a" opacity="0.2"/><rect width="2.899" height="2.898" transform="translate(2436.598 1948.455)" fill="#1a1a1a" opacity="0.2"/><rect width="2.899" height="2.898" transform="translate(2440.644 1956.064)" fill="#1a1a1a" opacity="0.2"/><rect width="2.899" height="2.898" transform="translate(2444.691 1952.26)" fill="#1a1a1a" opacity="0.2"/><rect width="2.897" height="2.899" transform="translate(2448.738 1940.846)" fill="#1a1a1a" opacity="0.2"/><rect width="2.897" height="2.898" transform="translate(2452.785 1918.667)" fill="#1a1a1a" opacity="0.2"/><rect width="2.899" height="2.899" transform="translate(2456.831 1933.453)" fill="#1a1a1a" opacity="0.2"/><rect width="2.899" height="2.898" transform="translate(2460.878 1956.064)" fill="#1a1a1a" opacity="0.2"/><rect width="2.899" height="2.898" transform="translate(2464.925 1956.064)" fill="#1a1a1a" opacity="0.2"/><rect width="2.898" height="2.898" transform="translate(2468.972 1948.455)" fill="#1a1a1a" opacity="0.2"/><rect width="2.898" height="2.899" transform="translate(2473.019 1940.846)" fill="#1a1a1a" opacity="0.2"/><rect width="2.899" height="2.898" transform="translate(2477.065 1952.26)" fill="#1a1a1a" opacity="0.2"/><rect width="2.899" height="2.898" transform="translate(2485.159 1952.26)" fill="#1a1a1a" opacity="0.2"/><rect width="2.899" height="2.899" transform="translate(2489.206 1944.651)" fill="#1a1a1a" opacity="0.2"/><rect width="2.899" height="2.898" transform="translate(2497.299 1952.26)" fill="#1a1a1a" opacity="0.2"/><rect width="2.898" height="2.899" transform="translate(2501.346 1940.846)" fill="#1a1a1a" opacity="0.2"/><rect width="2.898" height="2.899" transform="translate(2509.439 1933.453)" fill="#1a1a1a" opacity="0.2"/><rect width="2.898" height="2.898" transform="translate(2513.486 1918.667)" fill="#1a1a1a" opacity="0.2"/><rect width="2.899" height="2.899" transform="translate(2517.533 1933.453)" fill="#1a1a1a" opacity="0.2"/><rect width="2.897" height="2.898" transform="translate(2529.674 1952.26)" fill="#1a1a1a" opacity="0.2"/><rect width="2.897" height="2.899" transform="translate(2533.721 1940.846)" fill="#1a1a1a" opacity="0.2"/><rect width="2.899" height="2.899" transform="translate(2541.813 1940.846)" fill="#1a1a1a" opacity="0.2"/><rect width="2.899" height="2.898" transform="translate(2545.86 1952.26)" fill="#1a1a1a" opacity="0.2"/><rect width="2.899" height="2.898" transform="translate(2558 1956.064)" fill="#1a1a1a" opacity="0.2"/><rect width="2.898" height="2.898" transform="translate(2562.047 1948.455)" fill="#1a1a1a" opacity="0.2"/><rect width="2.899" height="2.898" transform="translate(2566.094 1956.064)" fill="#1a1a1a" opacity="0.2"/><rect width="2.899" height="2.898" transform="translate(2570.141 1959.869)" fill="#1a1a1a"/><rect width="2.899" height="2.898" transform="translate(2574.187 1959.869)" fill="#1a1a1a"/><rect width="2.899" height="2.898" transform="translate(2574.187 1956.064)" fill="#1a1a1a" opacity="0.5"/><rect width="2.899" height="2.898" transform="translate(2574.187 1952.26)" fill="#1a1a1a" opacity="0.2"/><rect width="2.899" height="2.898" transform="translate(2578.234 1959.869)" fill="#1a1a1a"/><rect width="2.899" height="2.898" transform="translate(2578.234 1956.064)" fill="#1a1a1a"/><rect width="2.899" height="2.898" transform="translate(2578.234 1952.26)" fill="#1a1a1a"/><rect width="2.899" height="2.898" transform="translate(2578.234 1948.455)" fill="#1a1a1a" opacity="0.5"/><rect width="2.899" height="2.899" transform="translate(2578.234 1944.651)" fill="#1a1a1a" opacity="0.2"/><rect width="2.898" height="2.898" transform="translate(2582.282 1959.869)" fill="#1a1a1a"/><rect width="2.898" height="2.898" transform="translate(2582.282 1956.064)" fill="#1a1a1a" opacity="0.5"/><rect width="2.898" height="2.898" transform="translate(2582.282 1952.26)" fill="#1a1a1a" opacity="0.2"/><rect width="2.899" height="2.898" transform="translate(2586.328 1959.869)" fill="#1a1a1a"/><rect width="2.898" height="2.898" transform="translate(2590.375 1959.869)" fill="#1a1a1a"/><rect width="2.898" height="2.898" transform="translate(2590.375 1956.064)" fill="#1a1a1a"/><rect width="2.898" height="2.898" transform="translate(2590.375 1952.26)" fill="#1a1a1a"/><rect width="2.898" height="2.898" transform="translate(2590.375 1948.455)" fill="#1a1a1a" opacity="0.5"/><rect width="2.898" height="2.899" transform="translate(2590.375 1944.651)" fill="#1a1a1a" opacity="0.2"/><rect width="2.897" height="2.898" transform="translate(2594.422 1959.869)" fill="#1a1a1a"/><rect width="2.897" height="2.898" transform="translate(2594.422 1956.064)" fill="#1a1a1a"/><rect width="2.897" height="2.898" transform="translate(2594.422 1952.26)" fill="#1a1a1a"/><rect width="2.897" height="2.898" transform="translate(2594.422 1948.455)" fill="#1a1a1a"/><rect width="2.897" height="2.899" transform="translate(2594.422 1944.651)" fill="#1a1a1a"/><rect width="2.897" height="2.899" transform="translate(2594.422 1940.846)" fill="#1a1a1a"/><rect width="2.897" height="2.899" transform="translate(2594.422 1937.149)" fill="#1a1a1a" opacity="0.5"/><rect width="2.897" height="2.899" transform="translate(2594.422 1933.453)" fill="#1a1a1a" opacity="0.2"/><rect width="2.898" height="2.898" transform="translate(2598.469 1959.869)" fill="#1a1a1a"/><rect width="2.898" height="2.898" transform="translate(2598.469 1956.064)" fill="#1a1a1a"/><rect width="2.898" height="2.898" transform="translate(2598.469 1952.26)" fill="#1a1a1a"/><rect width="2.898" height="2.898" transform="translate(2598.469 1948.455)" fill="#1a1a1a" opacity="0.5"/><rect width="2.898" height="2.899" transform="translate(2598.469 1944.651)" fill="#1a1a1a" opacity="0.2"/><rect width="2.899" height="2.898" transform="translate(2602.515 1959.869)" fill="#1a1a1a"/></g><g transform="translate(-1912 -1216.667)"><rect width="2.899" height="2.898" transform="translate(2606.765 1963.696)" fill="#1a1a1a"/><rect width="2.898" height="2.898" transform="translate(2610.812 1963.696)" fill="#1a1a1a"/><rect width="2.898" height="2.898" transform="translate(2614.859 1963.696)" fill="#1a1a1a"/><rect width="2.899" height="2.898" transform="translate(2618.905 1963.696)" fill="#1a1a1a"/><rect width="2.899" height="2.898" transform="translate(2622.952 1963.696)" fill="#1a1a1a"/><rect width="2.898" height="2.898" transform="translate(2626.999 1963.696)" fill="#1a1a1a"/><rect width="2.899" height="2.898" transform="translate(2631.046 1963.696)" fill="#1a1a1a"/><rect width="2.899" height="2.898" transform="translate(2635.093 1963.696)" fill="#1a1a1a"/><rect width="2.899" height="2.898" transform="translate(2639.139 1963.696)" fill="#1a1a1a"/><rect width="2.899" height="2.898" transform="translate(2643.186 1963.696)" fill="#1a1a1a"/><rect width="2.898" height="2.898" transform="translate(2647.233 1963.696)" fill="#1a1a1a"/><rect width="2.899" height="2.898" transform="translate(2651.28 1963.696)" fill="#1a1a1a"/><rect width="2.899" height="2.898" transform="translate(2655.326 1963.696)" fill="#1a1a1a"/><rect width="2.898" height="2.898" transform="translate(2659.374 1963.696)" fill="#1a1a1a"/><rect width="2.899" height="2.898" transform="translate(2663.42 1963.696)" fill="#1a1a1a"/><rect width="2.899" height="2.898" transform="translate(2667.467 1963.696)" fill="#1a1a1a"/><rect width="2.899" height="2.898" transform="translate(2671.513 1963.696)" fill="#1a1a1a"/><rect width="2.897" height="2.898" transform="translate(2675.561 1963.696)" fill="#1a1a1a"/><rect width="2.897" height="2.898" transform="translate(2679.608 1963.696)" fill="#1a1a1a"/><rect width="2.899" height="2.898" transform="translate(2683.654 1963.696)" fill="#1a1a1a"/><rect width="2.899" height="2.898" transform="translate(2687.7 1963.696)" fill="#1a1a1a"/><rect width="2.899" height="2.898" transform="translate(2691.747 1963.696)" fill="#1a1a1a"/><rect width="2.898" height="2.898" transform="translate(2695.794 1963.696)" fill="#1a1a1a"/><rect width="2.898" height="2.898" transform="translate(2699.841 1963.696)" fill="#1a1a1a"/><rect width="2.899" height="2.898" transform="translate(2703.887 1963.696)" fill="#1a1a1a"/><rect width="2.898" height="2.898" transform="translate(2707.934 1963.696)" fill="#1a1a1a"/><rect width="2.899" height="2.898" transform="translate(2711.981 1963.696)" fill="#1a1a1a"/><rect width="2.899" height="2.898" transform="translate(2716.028 1963.696)" fill="#1a1a1a"/><rect width="2.899" height="2.898" transform="translate(2720.074 1963.696)" fill="#1a1a1a"/><rect width="2.899" height="2.898" transform="translate(2724.121 1963.696)" fill="#1a1a1a"/><rect width="2.898" height="2.898" transform="translate(2728.169 1963.696)" fill="#1a1a1a"/><rect width="2.899" height="2.898" transform="translate(2732.215 1963.696)" fill="#1a1a1a"/><rect width="2.898" height="2.898" transform="translate(2736.262 1963.696)" fill="#1a1a1a"/><rect width="2.898" height="2.898" transform="translate(2740.309 1963.696)" fill="#1a1a1a"/><rect width="2.899" height="2.898" transform="translate(2744.355 1963.696)" fill="#1a1a1a"/><rect width="2.899" height="2.898" transform="translate(2748.402 1963.696)" fill="#1a1a1a"/><rect width="2.899" height="2.898" transform="translate(2752.448 1963.696)" fill="#1a1a1a"/><rect width="2.897" height="2.898" transform="translate(2756.496 1963.696)" fill="#1a1a1a"/><rect width="2.897" height="2.898" transform="translate(2760.543 1963.696)" fill="#1a1a1a"/><rect width="2.899" height="2.898" transform="translate(2764.589 1963.696)" fill="#1a1a1a"/><rect width="2.899" height="2.898" transform="translate(2768.635 1963.696)" fill="#1a1a1a"/><rect width="2.899" height="2.898" transform="translate(2772.683 1963.696)" fill="#1a1a1a"/><rect width="2.898" height="2.898" transform="translate(2776.73 1963.696)" fill="#1a1a1a"/><rect width="2.899" height="2.898" transform="translate(2780.775 1963.696)" fill="#1a1a1a"/><rect width="2.899" height="2.898" transform="translate(2784.823 1963.696)" fill="#1a1a1a"/><rect width="2.898" height="2.898" transform="translate(2788.87 1963.696)" fill="#1a1a1a"/><rect width="2.899" height="2.898" transform="translate(2792.917 1963.696)" fill="#1a1a1a"/><rect width="2.899" height="2.898" transform="translate(2796.963 1963.696)" fill="#1a1a1a"/><rect width="2.899" height="2.898" transform="translate(2801.009 1963.696)" fill="#1a1a1a"/><rect width="2.899" height="2.898" transform="translate(2805.056 1963.696)" fill="#1a1a1a"/><rect width="2.898" height="2.898" transform="translate(2809.104 1963.696)" fill="#1a1a1a"/><rect width="2.899" height="2.898" transform="translate(2813.15 1963.696)" fill="#1a1a1a"/><rect width="2.898" height="2.898" transform="translate(2817.197 1963.696)" fill="#1a1a1a"/><rect width="2.897" height="2.898" transform="translate(2821.244 1963.696)" fill="#1a1a1a"/><rect width="2.898" height="2.898" transform="translate(2825.291 1963.696)" fill="#1a1a1a"/><rect width="2.899" height="2.898" transform="translate(2829.337 1963.696)" fill="#1a1a1a"/><rect width="2.899" height="2.898" transform="translate(2606.765 1959.869)" fill="#1a1a1a"/><rect width="2.899" height="2.898" transform="translate(2606.765 1956.064)" fill="#1a1a1a" opacity="0.5"/><rect width="2.899" height="2.898" transform="translate(2606.765 1952.26)" fill="#1a1a1a" opacity="0.2"/><rect width="2.898" height="2.898" transform="translate(2610.812 1959.869)" fill="#1a1a1a"/><rect width="2.898" height="2.898" transform="translate(2610.812 1956.064)" fill="#1a1a1a"/><rect width="2.898" height="2.898" transform="translate(2610.812 1952.26)" fill="#1a1a1a"/><rect width="2.898" height="2.898" transform="translate(2610.812 1948.455)" fill="#1a1a1a" opacity="0.5"/><rect width="2.898" height="2.899" transform="translate(2610.812 1944.651)" fill="#1a1a1a" opacity="0.2"/><rect width="2.898" height="2.898" transform="translate(2614.859 1959.869)" fill="#1a1a1a"/><rect width="2.898" height="2.898" transform="translate(2614.859 1956.064)" fill="#1a1a1a"/><rect width="2.898" height="2.898" transform="translate(2614.859 1952.26)" fill="#1a1a1a"/><rect width="2.898" height="2.898" transform="translate(2614.859 1948.455)" fill="#1a1a1a"/><rect width="2.898" height="2.899" transform="translate(2614.859 1944.651)" fill="#1a1a1a"/><rect width="2.898" height="2.899" transform="translate(2614.859 1940.846)" fill="#1a1a1a"/><rect width="2.898" height="2.899" transform="translate(2614.859 1937.149)" fill="#1a1a1a" opacity="0.5"/><rect width="2.898" height="2.899" transform="translate(2614.859 1933.453)" fill="#1a1a1a" opacity="0.2"/><rect width="2.899" height="2.898" transform="translate(2618.905 1959.869)" fill="#1a1a1a"/><rect width="2.899" height="2.898" transform="translate(2618.905 1956.064)" fill="#1a1a1a"/><rect width="2.899" height="2.898" transform="translate(2618.905 1952.26)" fill="#1a1a1a"/><rect width="2.899" height="2.898" transform="translate(2618.905 1948.455)" fill="#1a1a1a" opacity="0.5"/><rect width="2.899" height="2.899" transform="translate(2618.905 1944.651)" fill="#1a1a1a" opacity="0.2"/><rect width="2.899" height="2.898" transform="translate(2622.952 1959.869)" fill="#1a1a1a"/><rect width="2.899" height="2.898" transform="translate(2622.952 1956.064)" fill="#1a1a1a"/><rect width="2.899" height="2.898" transform="translate(2622.952 1952.26)" fill="#1a1a1a"/><rect width="2.899" height="2.898" transform="translate(2622.952 1948.455)" fill="#1a1a1a" opacity="0.5"/><rect width="2.899" height="2.899" transform="translate(2622.952 1944.651)" fill="#1a1a1a" opacity="0.2"/><rect width="2.898" height="2.898" transform="translate(2626.999 1959.869)" fill="#1a1a1a"/><rect width="2.898" height="2.898" transform="translate(2626.999 1956.064)" fill="#1a1a1a"/><rect width="2.898" height="2.898" transform="translate(2626.999 1952.26)" fill="#1a1a1a"/><rect width="2.898" height="2.898" transform="translate(2626.999 1948.455)" fill="#1a1a1a"/><rect width="2.898" height="2.899" transform="translate(2626.999 1944.651)" fill="#1a1a1a" opacity="0.5"/><rect width="2.898" height="2.899" transform="translate(2626.999 1940.846)" fill="#1a1a1a" opacity="0.2"/><rect width="2.899" height="2.898" transform="translate(2631.046 1959.869)" fill="#1a1a1a"/><rect width="2.899" height="2.898" transform="translate(2631.046 1956.064)" fill="#1a1a1a" opacity="0.5"/><rect width="2.899" height="2.898" transform="translate(2631.046 1952.26)" fill="#1a1a1a" opacity="0.2"/><rect width="2.899" height="2.898" transform="translate(2635.093 1959.869)" fill="#1a1a1a"/><rect width="2.899" height="2.898" transform="translate(2635.093 1956.064)" fill="#1a1a1a" opacity="0.5"/><rect width="2.899" height="2.898" transform="translate(2635.093 1952.26)" fill="#1a1a1a" opacity="0.2"/><rect width="2.899" height="2.898" transform="translate(2639.139 1959.869)" fill="#1a1a1a"/><rect width="2.899" height="2.898" transform="translate(2639.139 1956.064)" fill="#1a1a1a"/><rect width="2.899" height="2.898" transform="translate(2639.139 1952.26)" fill="#1a1a1a" opacity="0.5"/><rect width="2.899" height="2.898" transform="translate(2639.139 1948.455)" fill="#1a1a1a" opacity="0.2"/><rect width="2.899" height="2.898" transform="translate(2643.186 1959.869)" fill="#1a1a1a"/><rect width="2.898" height="2.898" transform="translate(2647.233 1959.869)" fill="#1a1a1a"/><rect width="2.898" height="2.898" transform="translate(2647.233 1956.064)" fill="#1a1a1a" opacity="0.5"/><rect width="2.899" height="2.898" transform="translate(2651.28 1959.869)" fill="#1a1a1a"/><rect width="2.899" height="2.898" transform="translate(2651.28 1956.064)" fill="#1a1a1a"/><rect width="2.899" height="2.898" transform="translate(2651.28 1952.26)" fill="#1a1a1a"/><rect width="2.899" height="2.898" transform="translate(2651.28 1948.455)" fill="#1a1a1a" opacity="0.5"/><rect width="2.899" height="2.899" transform="translate(2651.28 1944.651)" fill="#1a1a1a" opacity="0.2"/><rect width="2.899" height="2.898" transform="translate(2655.326 1959.869)" fill="#1a1a1a"/><rect width="2.899" height="2.898" transform="translate(2655.326 1956.064)" fill="#1a1a1a"/><rect width="2.899" height="2.898" transform="translate(2655.326 1952.26)" fill="#1a1a1a"/><rect width="2.899" height="2.898" transform="translate(2655.326 1948.455)" fill="#1a1a1a"/><rect width="2.899" height="2.899" transform="translate(2655.326 1944.651)" fill="#1a1a1a" opacity="0.5"/><rect width="2.898" height="2.898" transform="translate(2659.374 1959.869)" fill="#1a1a1a"/><rect width="2.898" height="2.898" transform="translate(2659.374 1956.064)" fill="#1a1a1a"/><rect width="2.898" height="2.898" transform="translate(2659.374 1952.26)" fill="#1a1a1a"/><rect width="2.898" height="2.898" transform="translate(2659.374 1948.455)" fill="#1a1a1a"/><rect width="2.898" height="2.899" transform="translate(2659.374 1944.651)" fill="#1a1a1a"/><rect width="2.898" height="2.899" transform="translate(2659.374 1940.846)" fill="#1a1a1a"/><rect width="2.898" height="2.899" transform="translate(2659.374 1937.149)" fill="#1a1a1a"/><rect width="2.898" height="2.899" transform="translate(2659.374 1933.453)" fill="#1a1a1a" opacity="0.5"/><rect width="2.899" height="2.898" transform="translate(2663.42 1959.869)" fill="#1a1a1a"/><rect width="2.899" height="2.898" transform="translate(2663.42 1956.064)" fill="#1a1a1a"/><rect width="2.899" height="2.898" transform="translate(2663.42 1952.26)" fill="#1a1a1a" opacity="0.5"/><rect width="2.899" height="2.898" transform="translate(2667.467 1959.869)" fill="#1a1a1a" opacity="0.5"/><rect width="2.899" height="2.898" transform="translate(2671.513 1959.869)" fill="#1a1a1a"/><rect width="2.899" height="2.898" transform="translate(2671.513 1956.064)" fill="#1a1a1a" opacity="0.5"/><rect width="2.897" height="2.898" transform="translate(2675.561 1959.869)" fill="#1a1a1a"/><rect width="2.897" height="2.898" transform="translate(2675.561 1956.064)" fill="#1a1a1a"/><rect width="2.897" height="2.898" transform="translate(2675.561 1952.26)" fill="#1a1a1a"/><rect width="2.897" height="2.898" transform="translate(2675.561 1948.455)" fill="#1a1a1a"/><rect width="2.897" height="2.899" transform="translate(2675.561 1944.651)" fill="#1a1a1a" opacity="0.5"/><rect width="2.897" height="2.898" transform="translate(2679.608 1959.869)" fill="#1a1a1a"/><rect width="2.897" height="2.898" transform="translate(2679.608 1956.064)" fill="#1a1a1a"/><rect width="2.897" height="2.898" transform="translate(2679.608 1952.26)" fill="#1a1a1a"/><rect width="2.897" height="2.898" transform="translate(2679.608 1948.455)" fill="#1a1a1a"/><rect width="2.897" height="2.899" transform="translate(2679.608 1944.651)" fill="#1a1a1a"/><rect width="2.897" height="2.899" transform="translate(2679.608 1940.846)" fill="#1a1a1a"/><rect width="2.897" height="2.899" transform="translate(2679.608 1937.149)" fill="#1a1a1a"/><rect width="2.897" height="2.899" transform="translate(2679.608 1933.453)" fill="#1a1a1a"/><rect width="2.897" height="2.898" transform="translate(2679.608 1929.756)" fill="#1a1a1a"/><rect width="2.897" height="2.898" transform="translate(2679.608 1926.06)" fill="#1a1a1a"/><rect width="2.897" height="2.899" transform="translate(2679.608 1922.363)" fill="#1a1a1a" opacity="0.5"/><rect width="2.899" height="2.898" transform="translate(2683.654 1959.869)" fill="#1a1a1a"/><rect width="2.899" height="2.898" transform="translate(2683.654 1956.064)" fill="#1a1a1a"/><rect width="2.899" height="2.898" transform="translate(2683.654 1952.26)" fill="#1a1a1a"/><rect width="2.899" height="2.898" transform="translate(2683.654 1948.455)" fill="#1a1a1a"/><rect width="2.899" height="2.899" transform="translate(2683.654 1944.651)" fill="#1a1a1a"/><rect width="2.899" height="2.899" transform="translate(2683.654 1940.846)" fill="#1a1a1a"/><rect width="2.899" height="2.899" transform="translate(2683.654 1937.149)" fill="#1a1a1a" opacity="0.5"/><rect width="2.899" height="2.898" transform="translate(2687.7 1959.869)" fill="#1a1a1a" opacity="0.5"/><rect width="2.899" height="2.898" transform="translate(2691.747 1959.869)" fill="#1a1a1a" opacity="0.5"/><rect width="2.898" height="2.898" transform="translate(2695.794 1959.869)" fill="#1a1a1a"/><rect width="2.898" height="2.898" transform="translate(2695.794 1956.064)" fill="#1a1a1a"/><rect width="2.898" height="2.898" transform="translate(2695.794 1952.26)" fill="#1a1a1a" opacity="0.5"/><rect width="2.898" height="2.898" transform="translate(2699.841 1959.869)" fill="#1a1a1a"/><rect width="2.898" height="2.898" transform="translate(2699.841 1956.064)" fill="#1a1a1a"/><rect width="2.898" height="2.898" transform="translate(2699.841 1952.26)" fill="#1a1a1a"/><rect width="2.898" height="2.898" transform="translate(2699.841 1948.455)" fill="#1a1a1a"/><rect width="2.898" height="2.899" transform="translate(2699.841 1944.651)" fill="#1a1a1a" opacity="0.5"/><rect width="2.899" height="2.898" transform="translate(2703.887 1959.869)" fill="#1a1a1a"/><rect width="2.899" height="2.898" transform="translate(2703.887 1956.064)" fill="#1a1a1a" opacity="0.5"/><rect width="2.898" height="2.898" transform="translate(2707.934 1959.869)" fill="#1a1a1a"/><rect width="2.899" height="2.898" transform="translate(2711.981 1959.869)" fill="#1a1a1a"/><rect width="2.899" height="2.898" transform="translate(2711.981 1956.064)" fill="#1a1a1a" opacity="0.5"/><rect width="2.899" height="2.898" transform="translate(2716.028 1959.869)" fill="#1a1a1a"/><rect width="2.899" height="2.898" transform="translate(2716.028 1956.064)" fill="#1a1a1a"/><rect width="2.899" height="2.898" transform="translate(2716.028 1952.26)" fill="#1a1a1a"/><rect width="2.899" height="2.898" transform="translate(2716.028 1948.455)" fill="#1a1a1a" opacity="0.5"/><rect width="2.899" height="2.898" transform="translate(2720.074 1959.869)" fill="#1a1a1a"/><rect width="2.899" height="2.898" transform="translate(2724.121 1959.869)" fill="#1a1a1a"/><rect width="2.899" height="2.898" transform="translate(2724.121 1956.064)" fill="#1a1a1a" opacity="0.5"/><rect width="2.898" height="2.898" transform="translate(2728.169 1959.869)" fill="#1a1a1a"/><rect width="2.898" height="2.898" transform="translate(2728.169 1956.064)" fill="#1a1a1a"/><rect width="2.898" height="2.898" transform="translate(2728.169 1952.26)" fill="#1a1a1a"/><rect width="2.898" height="2.898" transform="translate(2728.169 1948.455)" fill="#1a1a1a"/><rect width="2.898" height="2.899" transform="translate(2728.169 1944.651)" fill="#1a1a1a" opacity="0.5"/><rect width="2.899" height="2.898" transform="translate(2732.215 1959.869)" fill="#1a1a1a"/><rect width="2.899" height="2.898" transform="translate(2732.215 1956.064)" fill="#1a1a1a"/><rect width="2.899" height="2.898" transform="translate(2732.215 1952.26)" fill="#1a1a1a" opacity="0.2"/><rect width="2.898" height="2.898" transform="translate(2736.262 1959.869)" fill="#1a1a1a"/><rect width="2.898" height="2.898" transform="translate(2736.262 1956.064)" fill="#1a1a1a"/><rect width="2.898" height="2.898" transform="translate(2736.262 1952.26)" fill="#1a1a1a"/><rect width="2.898" height="2.898" transform="translate(2736.262 1948.455)" fill="#1a1a1a"/><rect width="2.898" height="2.899" transform="translate(2736.262 1944.651)" fill="#1a1a1a"/><rect width="2.898" height="2.899" transform="translate(2736.262 1940.846)" fill="#1a1a1a"/><rect width="2.898" height="2.899" transform="translate(2736.262 1937.149)" fill="#1a1a1a" opacity="0.5"/><rect width="2.898" height="2.898" transform="translate(2740.309 1959.869)" fill="#1a1a1a"/><rect width="2.898" height="2.898" transform="translate(2740.309 1956.064)" fill="#1a1a1a"/><rect width="2.898" height="2.898" transform="translate(2740.309 1952.26)" fill="#1a1a1a"/><rect width="2.898" height="2.898" transform="translate(2740.309 1948.455)" fill="#1a1a1a"/><rect width="2.898" height="2.899" transform="translate(2740.309 1944.651)" fill="#1a1a1a"/><rect width="2.898" height="2.899" transform="translate(2740.309 1940.846)" fill="#1a1a1a"/><rect width="2.898" height="2.899" transform="translate(2740.309 1937.149)" fill="#1a1a1a"/><rect width="2.898" height="2.899" transform="translate(2740.309 1933.453)" fill="#1a1a1a"/><rect width="2.898" height="2.898" transform="translate(2740.309 1929.756)" fill="#1a1a1a"/><rect width="2.898" height="2.898" transform="translate(2740.309 1926.06)" fill="#1a1a1a"/><rect width="2.898" height="2.899" transform="translate(2740.309 1922.363)" fill="#1a1a1a" opacity="0.5"/><rect width="2.899" height="2.898" transform="translate(2744.355 1959.869)" fill="#1a1a1a"/><rect width="2.899" height="2.898" transform="translate(2744.355 1956.064)" fill="#1a1a1a"/><rect width="2.899" height="2.898" transform="translate(2744.355 1952.26)" fill="#1a1a1a"/><rect width="2.899" height="2.898" transform="translate(2744.355 1948.455)" fill="#1a1a1a"/><rect width="2.899" height="2.899" transform="translate(2744.355 1944.651)" fill="#1a1a1a"/><rect width="2.899" height="2.899" transform="translate(2744.355 1940.846)" fill="#1a1a1a"/><rect width="2.899" height="2.899" transform="translate(2744.355 1937.149)" fill="#1a1a1a" opacity="0.5"/><rect width="2.899" height="2.898" transform="translate(2748.402 1959.869)" fill="#1a1a1a"/><rect width="2.899" height="2.898" transform="translate(2748.402 1956.064)" fill="#1a1a1a"/><rect width="2.899" height="2.898" transform="translate(2748.402 1952.26)" fill="#1a1a1a"/><rect width="2.899" height="2.898" transform="translate(2752.448 1959.869)" fill="#1a1a1a"/><rect width="2.897" height="2.898" transform="translate(2756.496 1959.869)" fill="#1a1a1a"/><rect width="2.897" height="2.898" transform="translate(2756.496 1956.064)" fill="#1a1a1a" opacity="0.5"/><rect width="2.897" height="2.898" transform="translate(2760.543 1959.869)" fill="#1a1a1a"/><rect width="2.897" height="2.898" transform="translate(2760.543 1956.064)" fill="#1a1a1a"/><rect width="2.897" height="2.898" transform="translate(2760.543 1952.26)" fill="#1a1a1a"/><rect width="2.897" height="2.898" transform="translate(2760.543 1948.455)" fill="#1a1a1a"/><rect width="2.897" height="2.899" transform="translate(2760.543 1944.651)" fill="#1a1a1a" opacity="0.5"/><rect width="2.899" height="2.898" transform="translate(2764.589 1959.869)" fill="#1a1a1a"/><rect width="2.899" height="2.898" transform="translate(2764.589 1956.064)" fill="#1a1a1a"/><rect width="2.899" height="2.898" transform="translate(2764.589 1952.26)" fill="#1a1a1a"/><rect width="2.899" height="2.898" transform="translate(2764.589 1948.455)" fill="#1a1a1a"/><rect width="2.899" height="2.899" transform="translate(2764.589 1944.651)" fill="#1a1a1a"/><rect width="2.899" height="2.899" transform="translate(2764.589 1940.846)" fill="#1a1a1a"/><rect width="2.899" height="2.899" transform="translate(2764.589 1937.149)" fill="#1a1a1a"/><rect width="2.899" height="2.899" transform="translate(2764.589 1933.453)" fill="#1a1a1a"/><rect width="2.899" height="2.898" transform="translate(2764.589 1929.756)" fill="#1a1a1a"/><rect width="2.899" height="2.898" transform="translate(2764.589 1926.06)" fill="#1a1a1a"/><rect width="2.899" height="2.899" transform="translate(2764.589 1922.363)" fill="#1a1a1a" opacity="0.5"/><rect width="2.899" height="2.898" transform="translate(2764.589 1918.667)" fill="#1a1a1a" opacity="0.2"/><rect width="2.899" height="2.898" transform="translate(2768.635 1959.869)" fill="#1a1a1a"/><rect width="2.899" height="2.898" transform="translate(2768.635 1956.064)" fill="#1a1a1a"/><rect width="2.899" height="2.898" transform="translate(2768.635 1952.26)" fill="#1a1a1a"/><rect width="2.899" height="2.898" transform="translate(2768.635 1948.455)" fill="#1a1a1a"/><rect width="2.899" height="2.899" transform="translate(2768.635 1944.651)" fill="#1a1a1a" opacity="0.5"/><rect width="2.899" height="2.898" transform="translate(2772.683 1959.869)" fill="#1a1a1a"/><rect width="2.899" height="2.898" transform="translate(2772.683 1956.064)" fill="#1a1a1a" opacity="0.5"/><rect width="2.898" height="2.898" transform="translate(2776.73 1959.869)" fill="#1a1a1a"/><rect width="2.899" height="2.898" transform="translate(2780.775 1959.869)" fill="#1a1a1a"/><rect width="2.899" height="2.898" transform="translate(2784.823 1959.869)" fill="#1a1a1a"/><rect width="2.898" height="2.898" transform="translate(2788.87 1959.869)" fill="#1a1a1a"/><rect width="2.898" height="2.898" transform="translate(2788.87 1956.064)" fill="#1a1a1a"/><rect width="2.898" height="2.898" transform="translate(2788.87 1952.26)" fill="#1a1a1a" opacity="0.5"/><rect width="2.899" height="2.898" transform="translate(2792.917 1959.869)" fill="#1a1a1a"/><rect width="2.899" height="2.899" transform="translate(2655.326 1940.846)" fill="#1a1a1a" opacity="0.2"/><rect width="2.898" height="2.898" transform="translate(2659.374 1929.756)" fill="#1a1a1a" opacity="0.2"/><rect width="2.899" height="2.898" transform="translate(2663.42 1948.455)" fill="#1a1a1a" opacity="0.2"/><rect width="2.899" height="2.898" transform="translate(2667.467 1956.064)" fill="#1a1a1a" opacity="0.2"/><rect width="2.899" height="2.898" transform="translate(2671.513 1952.26)" fill="#1a1a1a" opacity="0.2"/><rect width="2.897" height="2.899" transform="translate(2675.561 1940.846)" fill="#1a1a1a" opacity="0.2"/><rect width="2.897" height="2.898" transform="translate(2679.608 1918.667)" fill="#1a1a1a" opacity="0.2"/><rect width="2.899" height="2.899" transform="translate(2683.654 1933.453)" fill="#1a1a1a" opacity="0.2"/><rect width="2.899" height="2.898" transform="translate(2687.7 1956.064)" fill="#1a1a1a" opacity="0.2"/><rect width="2.899" height="2.898" transform="translate(2691.747 1956.064)" fill="#1a1a1a" opacity="0.2"/><rect width="2.898" height="2.898" transform="translate(2695.794 1948.455)" fill="#1a1a1a" opacity="0.2"/><rect width="2.898" height="2.899" transform="translate(2699.841 1940.846)" fill="#1a1a1a" opacity="0.2"/><rect width="2.899" height="2.898" transform="translate(2703.887 1952.26)" fill="#1a1a1a" opacity="0.2"/><rect width="2.899" height="2.898" transform="translate(2711.981 1952.26)" fill="#1a1a1a" opacity="0.2"/><rect width="2.899" height="2.899" transform="translate(2716.028 1944.651)" fill="#1a1a1a" opacity="0.2"/><rect width="2.899" height="2.898" transform="translate(2724.121 1952.26)" fill="#1a1a1a" opacity="0.2"/><rect width="2.898" height="2.899" transform="translate(2728.169 1940.846)" fill="#1a1a1a" opacity="0.2"/><rect width="2.898" height="2.899" transform="translate(2736.262 1933.453)" fill="#1a1a1a" opacity="0.2"/><rect width="2.898" height="2.898" transform="translate(2740.309 1918.667)" fill="#1a1a1a" opacity="0.2"/><rect width="2.899" height="2.899" transform="translate(2744.355 1933.453)" fill="#1a1a1a" opacity="0.2"/><rect width="2.897" height="2.898" transform="translate(2756.496 1952.26)" fill="#1a1a1a" opacity="0.2"/><rect width="2.897" height="2.899" transform="translate(2760.543 1940.846)" fill="#1a1a1a" opacity="0.2"/><rect width="2.899" height="2.899" transform="translate(2768.635 1940.846)" fill="#1a1a1a" opacity="0.2"/><rect width="2.899" height="2.898" transform="translate(2772.683 1952.26)" fill="#1a1a1a" opacity="0.2"/><rect width="2.899" height="2.898" transform="translate(2784.823 1956.064)" fill="#1a1a1a" opacity="0.2"/><rect width="2.898" height="2.898" transform="translate(2788.87 1948.455)" fill="#1a1a1a" opacity="0.2"/><rect width="2.899" height="2.898" transform="translate(2792.917 1956.064)" fill="#1a1a1a" opacity="0.2"/><rect width="2.899" height="2.898" transform="translate(2796.963 1959.869)" fill="#1a1a1a"/><rect width="2.899" height="2.898" transform="translate(2801.009 1959.869)" fill="#1a1a1a"/><rect width="2.899" height="2.898" transform="translate(2801.009 1956.064)" fill="#1a1a1a" opacity="0.5"/><rect width="2.899" height="2.898" transform="translate(2801.009 1952.26)" fill="#1a1a1a" opacity="0.2"/><rect width="2.899" height="2.898" transform="translate(2805.056 1959.869)" fill="#1a1a1a"/><rect width="2.899" height="2.898" transform="translate(2805.056 1956.064)" fill="#1a1a1a"/><rect width="2.899" height="2.898" transform="translate(2805.056 1952.26)" fill="#1a1a1a"/><rect width="2.899" height="2.898" transform="translate(2805.056 1948.455)" fill="#1a1a1a" opacity="0.5"/><rect width="2.899" height="2.899" transform="translate(2805.056 1944.651)" fill="#1a1a1a" opacity="0.2"/><rect width="2.898" height="2.898" transform="translate(2809.104 1959.869)" fill="#1a1a1a"/><rect width="2.898" height="2.898" transform="translate(2809.104 1956.064)" fill="#1a1a1a" opacity="0.5"/><rect width="2.898" height="2.898" transform="translate(2809.104 1952.26)" fill="#1a1a1a" opacity="0.2"/><rect width="2.899" height="2.898" transform="translate(2813.15 1959.869)" fill="#1a1a1a"/><rect width="2.898" height="2.898" transform="translate(2817.197 1959.869)" fill="#1a1a1a"/><rect width="2.898" height="2.898" transform="translate(2817.197 1956.064)" fill="#1a1a1a"/><rect width="2.898" height="2.898" transform="translate(2817.197 1952.26)" fill="#1a1a1a"/><rect width="2.898" height="2.898" transform="translate(2817.197 1948.455)" fill="#1a1a1a" opacity="0.5"/><rect width="2.898" height="2.899" transform="translate(2817.197 1944.651)" fill="#1a1a1a" opacity="0.2"/><rect width="2.897" height="2.898" transform="translate(2821.244 1959.869)" fill="#1a1a1a"/><rect width="2.897" height="2.898" transform="translate(2821.244 1956.064)" fill="#1a1a1a"/><rect width="2.897" height="2.898" transform="translate(2821.244 1952.26)" fill="#1a1a1a"/><rect width="2.897" height="2.898" transform="translate(2821.244 1948.455)" fill="#1a1a1a"/><rect width="2.897" height="2.899" transform="translate(2821.244 1944.651)" fill="#1a1a1a"/><rect width="2.897" height="2.899" transform="translate(2821.244 1940.846)" fill="#1a1a1a"/><rect width="2.897" height="2.899" transform="translate(2821.244 1937.149)" fill="#1a1a1a" opacity="0.5"/><rect width="2.897" height="2.899" transform="translate(2821.244 1933.453)" fill="#1a1a1a" opacity="0.2"/><rect width="2.898" height="2.898" transform="translate(2825.291 1959.869)" fill="#1a1a1a"/><rect width="2.898" height="2.898" transform="translate(2825.291 1956.064)" fill="#1a1a1a"/><rect width="2.898" height="2.898" transform="translate(2825.291 1952.26)" fill="#1a1a1a"/><rect width="2.898" height="2.898" transform="translate(2825.291 1948.455)" fill="#1a1a1a" opacity="0.5"/><rect width="2.898" height="2.899" transform="translate(2825.291 1944.651)" fill="#1a1a1a" opacity="0.2"/><rect width="2.899" height="2.898" transform="translate(2829.337 1959.869)" fill="#1a1a1a"/></g></g></svg>