<svg xmlns="http://www.w3.org/2000/svg" width="320.497" height="94.528" viewBox="0 0 320.497 94.528"><g transform="translate(0.001 0.017)"><path d="M27.31,73.54a1.36,1.36,0,0,1,.62.95,1.51,1.51,0,0,1-.25,1.16l-1,1.52a1.22,1.22,0,0,1-.91.6,1.26,1.26,0,0,1-1-.29q-1.4-1.07-3.69-2.64h0v.05l6.29,8.18a1.43,1.43,0,0,1,.27,1.07,1.38,1.38,0,0,1-.54,1L25.2,86.6a1.547,1.547,0,0,1-2.09-.24l-6.52-8.48h0A41.52,41.52,0,0,1,20,85a1.12,1.12,0,0,1-.12,1,1.18,1.18,0,0,1-.88.57c-.69.15-1.4.31-2.13.49a1.56,1.56,0,0,1-1.1-.14,2.17,2.17,0,0,1-.5-.45,1.37,1.37,0,0,1-.23-.45,34.12,34.12,0,0,0-3.22-6.27,1.45,1.45,0,0,1-.15-1.08,1.15,1.15,0,0,1,.67-.83l2.94-1.53a.15.15,0,0,0,0-.23l-1.44-1.87a.15.15,0,0,0-.23,0l-3.19,2.82a1.35,1.35,0,0,1-1.08.36,1.56,1.56,0,0,1-1-.46L6.72,75.2a1.22,1.22,0,0,1-.37-1,1.25,1.25,0,0,1,.51-1l1.19-1a.36.36,0,0,0,.13-.31V69.71A.25.25,0,0,0,8,69.48a38.5,38.5,0,0,0-5.58-1.29,1.79,1.79,0,0,1-1-.58,1.81,1.81,0,0,1-.5-1.09l-.15-2.7A.7.7,0,0,1,1,63.19.79.79,0,0,1,1.6,63c.1,0,.14-.05.11-.13A47.659,47.659,0,0,0,.06,57a1.48,1.48,0,0,1,.1-1.09A1.27,1.27,0,0,1,1,55.2l2.59-.84a1.22,1.22,0,0,1,1.05.15,1.26,1.26,0,0,1,.61.86Q6.16,61,6.43,63.45c0,.11,0,.19.18.23a8.489,8.489,0,0,1,1,.24.13.13,0,0,0,.1,0,.11.11,0,0,0,0-.13q-.33-3.07-.85-5.64A1.58,1.58,0,0,1,7.1,57a1.4,1.4,0,0,1,.9-.65l2.43-.56a1.21,1.21,0,0,1,1,.21,1.08,1.08,0,0,1,.49.9c.18,2.67.29,5.24.35,7.7a.1.1,0,0,0,.06.05h0l1-1.61a1.55,1.55,0,0,1,.89-.74,1.52,1.52,0,0,1,1.16.1,34.251,34.251,0,0,1,5,2.83h0L18,62.52a1.46,1.46,0,0,1-.37-1.07,1.35,1.35,0,0,1,.47-1c.48-.41.86-.73,1.12-1s.15-.18.1-.28a43.8,43.8,0,0,0-1.62-4.69c0-.14-.12-.17-.23-.09L14.72,56.5a1.37,1.37,0,0,1-1.06.28,1.41,1.41,0,0,1-1-.54l-1.54-2a1.48,1.48,0,0,1,.24-2.06l5.14-3.95a.14.14,0,0,0,0-.23l-1.78-2.32a1.39,1.39,0,0,1-.3-1.1,1.41,1.41,0,0,1,.57-1l2.62-2a1.44,1.44,0,0,1,1.1-.3,1.48,1.48,0,0,1,1,.57l1.79,2.33a.15.15,0,0,0,.23,0l5.89-4.53a1.39,1.39,0,0,1,1.07-.27,1.41,1.41,0,0,1,1,.57l1.54,2a1.44,1.44,0,0,1,.27,1.07,1.34,1.34,0,0,1-.54,1l-2.68,2.06c-.11.09-.1.15,0,.19a56.891,56.891,0,0,1,9,3.06,1.63,1.63,0,0,1,.76.88A1.45,1.45,0,0,1,38,51.39L36.9,54a1.16,1.16,0,0,1-.78.71,1.38,1.38,0,0,1-1.09-.1l-1.44-.72a.23.23,0,0,0-.3.08L29.15,57.8q-2.22,2.05-4.67,4.29l-3.54,3.25c-.11.08-.1.16,0,.24a5.53,5.53,0,0,1,.46.32,1.63,1.63,0,0,1,.63,1,1.66,1.66,0,0,1-.21,1.21L21,69.63a1.1,1.1,0,0,1-.82.6,1.36,1.36,0,0,1-1-.25L19,69.8a.19.19,0,0,0-.3,0l-.76.63c-.1.11-.11.21,0,.29l1.64,2.13c.06.09.13.09.2,0l1.2-1.76a1.56,1.56,0,0,1,1-.67,1.46,1.46,0,0,1,1.12.21C24.66,71.67,26.09,72.63,27.31,73.54Zm-15-5.05a.087.087,0,0,0,.06.08.156.156,0,0,0,.1,0L14.39,67q.16-.12,0-.21a15.373,15.373,0,0,0-1.9-1h-.07a.18.18,0,0,0-.06.09c0,.38-.01,1.28-.02,2.61ZM27.7,46.68h-.07l-4.48,3.45a.27.27,0,0,0-.1.28c.1.44.26,1.2.48,2.26s.39,1.86.5,2.4a.29.29,0,0,0,.08.07s.07,0,.09-.05l3.66-3.23q.13-.09,0-.18a5.461,5.461,0,0,1-.71-.24,1.19,1.19,0,0,1-.77-.7,1.21,1.21,0,0,1,0-1.05ZM24.88,65.36a1.47,1.47,0,0,1-.26-1.11,1.5,1.5,0,0,1,.59-1l2.25-1.73a1.39,1.39,0,0,1,1.09-.29,1.31,1.31,0,0,1,.91.58,46,46,0,0,1,2.88,4.53,21.75,21.75,0,0,1,1.73,4.18,12.08,12.08,0,0,1,.5,4.44,14.08,14.08,0,0,1-1.22,4.58,1.5,1.5,0,0,1-.85.73,1.6,1.6,0,0,1-1.16,0,15,15,0,0,0-2.69-.79A1.113,1.113,0,0,1,27.81,78a8.48,8.48,0,0,0,.81-2.7,10.16,10.16,0,0,0,0-2.46,8.9,8.9,0,0,0-.74-2.45A22.12,22.12,0,0,0,26.64,68C26.19,67.27,25.6,66.4,24.88,65.36Zm18,.47.49-.37a.38.38,0,0,0,.17-.29,1.49,1.49,0,0,0-.18-.54,7.631,7.631,0,0,0-.59-1c-.27-.4-.64-.93-1.11-1.58a.71.71,0,0,1-.08-.82.94.94,0,0,1,.67-.51,16.48,16.48,0,0,0,2.59-.64,1.71,1.71,0,0,1,1.2,0,1.5,1.5,0,0,1,.84.55A8.75,8.75,0,0,1,49,66a4.12,4.12,0,0,1-1.85,3.29l-1.89,1.46c-1.6,1.22-3,1.66-4.08,1.31s-2.47-1.57-4.07-3.64l-6-7.86a1.4,1.4,0,0,1-.28-1,1.33,1.33,0,0,1,.55-1l2.23-1.72a1.547,1.547,0,0,1,2.09.24l6,7.83a8.7,8.7,0,0,0,.81,1,.32.32,0,0,0,.38-.08Z"/><path d="M68.48,30.21a1.45,1.45,0,0,1,.24-1.1,1.5,1.5,0,0,1,.93-.65L73,27.69a1.28,1.28,0,0,1,1.06.2,1.38,1.38,0,0,1,.59.93,57.14,57.14,0,0,1,.08,15.28.3.3,0,0,0,.11.31c1.69,1.66,2.85,2.34,3.5,2s.13-2.25-1.38-5.9a.58.58,0,0,1,.1-.69.65.65,0,0,1,.71-.2,15.61,15.61,0,0,0,3.48.57,2.08,2.08,0,0,1,1.21.42,1.67,1.67,0,0,1,.66.69,1.09,1.09,0,0,1,.08.28,19,19,0,0,1,1.08,5.51,5.39,5.39,0,0,1-.88,3.29,7.81,7.81,0,0,1-2.86,2.11q-3,1.45-7.2-1.24c-.1-.08-.17-.06-.21,0a35.44,35.44,0,0,1-2,5.25,1.48,1.48,0,0,1-.85.76,1.74,1.74,0,0,1-1.17,0,35.242,35.242,0,0,0-3.64-1.18,1.16,1.16,0,0,1-.71-.66,1,1,0,0,1,.07-1c.13-.25.27-.5.42-.76v-.05h0q-2.45,2-6.89,5.39t-5.39,4.2a1.3,1.3,0,0,1-1.06.28,1.44,1.44,0,0,1-1-.58l-2-2.82a1.55,1.55,0,0,1-.25-1.12,1.33,1.33,0,0,1,.59-.92q5.76-4,13.26-9.75a1.24,1.24,0,0,1,1.05-.25,1.18,1.18,0,0,1,.87.61l1.75,2.87c.05.1.1.08.17,0a30,30,0,0,0,1.67-5,.35.35,0,0,0-.07-.33,85.66,85.66,0,0,1-10-14,.18.18,0,0,0-.27-.1L40.77,40.33a1.46,1.46,0,0,1-1.14.07,1.42,1.42,0,0,1-.83-.72l-1.36-2.83a1.36,1.36,0,0,1,0-1.1,1.39,1.39,0,0,1,.76-.85l16.5-8c.1-.05.12-.14.06-.26-.62-1.11-1.26-2.33-1.9-3.67a1.22,1.22,0,0,1-.1-1.1,1.47,1.47,0,0,1,.77-.82l3.31-1.6a1.42,1.42,0,0,1,1.09-.07,1.37,1.37,0,0,1,.84.74c.11.29.23.56.36.84.49,1,1,2,1.47,2.86a.18.18,0,0,0,.28.1l4.35-2.1v-.06a.16.16,0,0,0-.08-.05c-1-.15-1.88-.27-2.78-.35a1.16,1.16,0,0,1-.88-.5,1.07,1.07,0,0,1-.11-1l.73-2.18a1.88,1.88,0,0,1,.74-1,2.1,2.1,0,0,1,1.2-.37,25.06,25.06,0,0,1,4.18.41,1.13,1.13,0,0,1,.88.63,1.38,1.38,0,0,1,.1,1.1L68.69,20v.06a.1.1,0,0,0,.12,0l1.3-.63a1.42,1.42,0,0,1,1.14-.06,1.38,1.38,0,0,1,.83.72L73.45,23a1.36,1.36,0,0,1,0,1.1,1.42,1.42,0,0,1-.76.85l-9,4.33c-.12.06-.14.14-.06.25q2.39,3.9,5.14,7.79a.18.18,0,0,0,.1,0h0A42.891,42.891,0,0,0,68.48,30.21ZM42.57,43.4a1.47,1.47,0,0,1,.69-2l12.23-5.9a1.37,1.37,0,0,1,1.12-.06,1.43,1.43,0,0,1,.83.77l4.68,9.7A1.42,1.42,0,0,1,62.19,47a1.37,1.37,0,0,1-.74.84l-12.23,5.9a1.46,1.46,0,0,1-1.14.07,1.38,1.38,0,0,1-.83-.72ZM55,45.28a.15.15,0,0,0,.08-.22l-1.34-2.79c-.06-.13-.14-.16-.24-.12l-4.17,2a.19.19,0,0,0-.09.28l1.34,2.79c0,.1.14.12.26.06Z"/><path d="M102.16,18.73c0,.12,0,.17.16.13l15.39-3.8a1.41,1.41,0,0,1,1.7,1l.22.88q1.65,7.38,2.46,11.31a54.139,54.139,0,0,1,1,6.33,8.66,8.66,0,0,1-.07,3.33,4.77,4.77,0,0,1-.92,1.67,4.62,4.62,0,0,1-1.47,1,13.12,13.12,0,0,1-2.61.94,1.52,1.52,0,0,1-1.13-.17,1.65,1.65,0,0,1-.79-.88q-.3-.66-.66-1.29a.15.15,0,0,0-.23-.07l-.15.08a1.1,1.1,0,0,1-.87.09,1,1,0,0,1-.65-.56.15.15,0,0,0-.2-.12c-2.75,1-6.78,2.57-12.1,4.56a1.35,1.35,0,0,1-1.13,0,1.31,1.31,0,0,1-.74-.81l-.72-1.91a1.4,1.4,0,0,1,.07-1.08,1.37,1.37,0,0,1,.84-.72q2.4-.77,5.69-1.92a.17.17,0,0,0,.15-.25l-.4-1.64c0-.11-.11-.14-.24-.11l-4.33,1.07a1.45,1.45,0,0,1-1.13-.17,1.41,1.41,0,0,1-.67-.92l-1.75-7.09a.43.43,0,0,0-.19-.25c-.27-.16-.95-.48-2-.95H94.6a.07.07,0,0,0,0,.07c.23.71.53,1.81.9,3.31q2.7,10.93,1.18,14.76A4.63,4.63,0,0,1,94.48,47,13.79,13.79,0,0,1,91,48.34a1.36,1.36,0,0,1-1.09-.17,1.79,1.79,0,0,1-.75-.9,12.06,12.06,0,0,0-1.42-2.8.87.87,0,0,1-.15-.86.78.78,0,0,1,.66-.54l.92-.23c.48-.12.88-.23,1.19-.34a2,2,0,0,0,1.07-1c.38-.88.11-3.4-.8-7.54H90.5a37.067,37.067,0,0,1-1.85,3.35,1.27,1.27,0,0,1-.9.59,1.3,1.3,0,0,1-1-.32,24.619,24.619,0,0,0-2.52-1.76,1.24,1.24,0,0,1-.53-.76,1.22,1.22,0,0,1,.2-1.07,26.26,26.26,0,0,0,4.35-8.22.4.4,0,0,0,0-.34A24.59,24.59,0,0,0,87,22.73c0-.1-.1-.1-.17,0-.43.65-.82,1.21-1.15,1.69a1.28,1.28,0,0,1-.94.59,1.52,1.52,0,0,1-1.11-.26,23.65,23.65,0,0,0-2.47-1.42,1.234,1.234,0,0,1-.44-1.79,32.64,32.64,0,0,0,2.47-3.93.29.29,0,0,0,0-.33,26.529,26.529,0,0,0-3.88-3,1.18,1.18,0,0,1-.6-.87,1.16,1.16,0,0,1,.26-1l1.51-1.82a1.71,1.71,0,0,1,1-.62h.08a1.67,1.67,0,0,1,1.2.21A25.45,25.45,0,0,1,85.35,12a.14.14,0,0,0,.11,0,.13.13,0,0,0,.09-.07q.32-.93.6-1.89a1.45,1.45,0,0,1,.64-.9,1.55,1.55,0,0,1,1.12-.21l3.91.86c.12,0,.17,0,.14-.12a1.4,1.4,0,0,1,.15-1.06A1.24,1.24,0,0,1,93,8l20.68-5.12a1.36,1.36,0,0,1,1.1.17,1.5,1.5,0,0,1,.66.93l2,7.93A1.45,1.45,0,0,1,117.2,13a1.35,1.35,0,0,1-.9.67L102.72,17a.26.26,0,0,0-.2.22C102.41,17.72,102.29,18.22,102.16,18.73Zm-6.45,0a1.41,1.41,0,0,1-1.09-.18,1.43,1.43,0,0,1-.67-.92l-1.74-7h0l-.07.06A42.45,42.45,0,0,1,90,16.46a.53.53,0,0,0,0,.33,27.43,27.43,0,0,1,3.78,7.36c.05.1.11.1.17,0a19.17,19.17,0,0,0,2.53-5.43c0-.12,0-.17-.12-.14Zm2.12-7.42a.15.15,0,0,0-.12.2l.44,1.81a.16.16,0,0,0,.2.12l1.28-.32a.162.162,0,0,0,.17-.21l-.45-1.8c0-.11-.11-.15-.24-.11Zm17.64,19.75a.94.94,0,0,1-.11.75.93.93,0,0,1-.61.45c-.08,0-.1.05-.06.1A31.759,31.759,0,0,1,117,36h.17a1.27,1.27,0,0,1,.13-.33q.45-1.47-2.59-14.75a.17.17,0,0,0-.25-.15l-14.14,3.5a.36.36,0,0,0-.28.24,16,16,0,0,1-1.27,2.26.1.1,0,0,0,.12.15l3.73-.93a.18.18,0,0,0,.15-.25h0a1.41,1.41,0,0,1,1-1.75l1.61-.39a1.42,1.42,0,0,1,1.08.15,1.4,1.4,0,0,1,.67.9h0a.17.17,0,0,0,.25.15l4.64-1.15a1.48,1.48,0,0,1,1.13.15,1.39,1.39,0,0,1,.66.9Zm-13,.29a.159.159,0,0,0,.21.16l1.29-.32a.18.18,0,0,0,.15-.25l-.32-1.28c0-.1-.11-.14-.24-.11l-1.28.32a.14.14,0,0,0-.12.2ZM103.59,9.9a.14.14,0,0,0-.12.2l.44,1.8a.15.15,0,0,0,.2.12l1.33-.33a.16.16,0,0,0,.16-.21l-.45-1.8c0-.11-.11-.15-.24-.11Zm4.78,18.46a.153.153,0,0,0-.16.21l.31,1.28c0,.14.12.19.25.15l1.37-.33c.1,0,.14-.11.11-.24l-.32-1.29a.15.15,0,0,0-.2-.12Zm1-19.89a.153.153,0,0,0-.16.21l.44,1.8c0,.11.11.15.24.11l1.37-.34c.1,0,.14-.09.12-.2l-.45-1.8c0-.11-.09-.15-.2-.12Zm.44,26.55c0,.14.12.17.24.11l1.19-.37c.08,0,.09-.07,0-.14a.83.83,0,0,1-.18-.7.84.84,0,0,1,.41-.59l.63-.37h-.05l-2.48.61a.153.153,0,0,0-.16.21Z"/><path d="M148.38,22.14a2.33,2.33,0,0,1-.55,1.07,1.37,1.37,0,0,1-1,.47l-3.67.14a1.52,1.52,0,0,1-1.09-.4,1.17,1.17,0,0,1-.41-1,5.71,5.71,0,0,1,.93-2.72,9.75,9.75,0,0,1,1.9-2.17c.73-.61,1.44-1.18,2.15-1.73a9.3,9.3,0,0,0,1.75-1.8,2.91,2.91,0,0,0,.66-1.87,2.83,2.83,0,0,0-1.37-2.48,6.12,6.12,0,0,0-3.5-.72,7.28,7.28,0,0,0-5,2.21,1.64,1.64,0,0,1-1,.47,1.41,1.41,0,0,1-1.06-.36l-2.05-1.74a1.46,1.46,0,0,1-.54-1.09,1.36,1.36,0,0,1,.38-1,14.54,14.54,0,0,1,4.46-3.26,13.74,13.74,0,0,1,5.45-1.32,13.32,13.32,0,0,1,8.07,1.93,7.59,7.59,0,0,1,3.31,6.45,5.3,5.3,0,0,1-.64,2.81,7.18,7.18,0,0,1-1.78,2.19c-.72.61-1.45,1.19-2.18,1.76a13.631,13.631,0,0,0-2,1.91,5,5,0,0,0-1.22,2.25ZM140.28,31a4.4,4.4,0,0,1,1.28-3.38,5.61,5.61,0,0,1,7.18-.26,4.32,4.32,0,0,1,1.53,3.27A4.4,4.4,0,0,1,149,34a5.56,5.56,0,0,1-7.18.27A4.43,4.43,0,0,1,140.28,31Z"/><path d="M204.77,20.65h-.05a.25.25,0,0,0,0,.08l2.73,2.18a1.8,1.8,0,0,1,.64,1,1.61,1.61,0,0,1-.22,1.18,43.3,43.3,0,0,1-6.79,9,.55.55,0,0,0-.1.32c.23,1.46.6,2.24,1.12,2.33s1-1.15,1.62-3.67a.63.63,0,0,1,.5-.48.67.67,0,0,1,.67.26,19.829,19.829,0,0,0,1.84,2,2.07,2.07,0,0,1,.72,1.92,3.131,3.131,0,0,1-.11.44q-2.81,7.44-6.43,6.83h-.08q-3.39-.75-4.83-5.38c0-.12-.1-.14-.19-.08a25.2,25.2,0,0,1-4.63,2.61,1.45,1.45,0,0,1-1.14,0,1.69,1.69,0,0,1-.92-.72,23.8,23.8,0,0,0-2-2.63A.88.88,0,0,1,187,37a1,1,0,0,1,.6-.65l.17-.06h0a.1.1,0,0,0-.05-.06l-6.27-1c-.11,0-.18,0-.2.17l-.65,3.83a1.39,1.39,0,0,1-.59.93,1.45,1.45,0,0,1-1.11.25l-2.9-.54a1.45,1.45,0,0,1-1-.6,1.43,1.43,0,0,1-.26-1.07l.65-3.83c0-.13,0-.21-.13-.23l-7-1.18a1.37,1.37,0,0,1-.95-.6,1.44,1.44,0,0,1-.24-1.06l.41-2.4a1.44,1.44,0,0,1,.58-1,1.36,1.36,0,0,1,1.09-.26l7,1.18c.11,0,.17,0,.19-.14l.21-1.22c0-.13,0-.21-.13-.23l-5.38-.9a1.43,1.43,0,0,1-1-.61,1.39,1.39,0,0,1-.26-1.07L172,11.82a1.47,1.47,0,0,1,1.71-1.22L191,13.51a1.37,1.37,0,0,1,.93.6,1.45,1.45,0,0,1,.25,1.11L190,28.08a1.47,1.47,0,0,1-1.66,1.18l-5.74-1c-.11,0-.18,0-.2.17l-.21,1.23a.14.14,0,0,0,.14.18L189,31a1.45,1.45,0,0,1,1,.6,1.43,1.43,0,0,1,.25,1.11l-.44,2.61c0,.13,0,.17.11.1a26.58,26.58,0,0,0,5-3.1A.37.37,0,0,0,195,32a91,91,0,0,1,.37-11.62c0-.14-.07-.21-.18-.2l-1.29-.05a1.4,1.4,0,0,1-1-.46,1.31,1.31,0,0,1-.34-1.07l.1-2.83a1.56,1.56,0,0,1,.5-1,1.49,1.49,0,0,1,1.07-.39l1.58.1a.174.174,0,0,0,.19-.17c.31-2.8.73-6.08,1.28-9.84a1.28,1.28,0,0,1,.56-.93,1.43,1.43,0,0,1,1.07-.26l2.85.48a1.45,1.45,0,0,1,.93.58,1.35,1.35,0,0,1,.25,1.09c-.43,2.74-.85,5.79-1.24,9.12,0,.14,0,.21.17.2l7,.34a1.47,1.47,0,0,1,1,.5,1.51,1.51,0,0,1,.38,1L210,19.4a1.55,1.55,0,0,1-.51,1,1.42,1.42,0,0,1-1.07.38ZM182,1.19a1.45,1.45,0,0,1,1,.6,1.41,1.41,0,0,1,.25,1.11L182.1,9.29a1.31,1.31,0,0,1-.6,1,1.46,1.46,0,0,1-1.1.23l-6.92-1.16a1.48,1.48,0,0,1-1-.59,1.36,1.36,0,0,1-.26-1.09l1.08-6.39a1.41,1.41,0,0,1,.6-1A1.41,1.41,0,0,1,175,0Zm-6.25,20c-.14,0-.21,0-.23.13l-.19,1.1a.19.19,0,0,0,.17.24l2.08.35a.19.19,0,0,0,.24-.17l.18-1.1c0-.11,0-.18-.17-.2Zm.93-5.53c-.13,0-.21,0-.23.12l-.18,1.1c0,.11,0,.18.17.2l2.08.35c.13,0,.21,0,.23-.13l.19-1.1c0-.11-.05-.17-.18-.19Zm1.29-9.37a.15.15,0,0,0,.19-.14l.26-1.55c0-.13,0-.21-.13-.23l-.94-.16c-.1,0-.17,0-.19.18l-.26,1.55a.14.14,0,0,0,.13.19Zm7.22,18c.11,0,.18,0,.2-.18l.18-1.1a.13.13,0,0,0-.13-.18l-2.2-.38a.15.15,0,0,0-.19.14l-.19,1.1c0,.13,0,.21.13.23ZM193.12,3.1a1.39,1.39,0,0,1,.92.6,1.41,1.41,0,0,1,.25,1.11l-1.07,6.39a1.39,1.39,0,0,1-.6.95,1.41,1.41,0,0,1-1.07.23l-7-1.17a1.4,1.4,0,0,1-1.18-1.66l1.07-6.4a1.53,1.53,0,0,1,.58-1,1.42,1.42,0,0,1,1.1-.25Zm-7,15.61a.14.14,0,0,0,.19-.13l.19-1.1c0-.11,0-.17-.14-.19l-2.2-.37a.14.14,0,0,0-.19.13l-.18,1.1a.14.14,0,0,0,.13.19ZM189,8.11c.14,0,.21,0,.23-.13l.26-1.54a.18.18,0,0,0-.17-.24l-.93-.2c-.11,0-.18,0-.2.18l-.26,1.54a.14.14,0,0,0,.14.19Zm15.32,12.67v-.1a.15.15,0,0,0-.11-.08l-2.95-.12c-.12,0-.18.08-.21.22-.17,2-.29,3.88-.35,5.55l.06.05c.06.05.06,0,.07,0a37.9,37.9,0,0,0,3.49-5.52Zm6.31-9.36a1.46,1.46,0,0,1-.17,1.14,1.8,1.8,0,0,1-.94.77L207,14.2a1.23,1.23,0,0,1-1-.13,1.26,1.26,0,0,1-.61-.86,32.808,32.808,0,0,0-1.44-5.14A1.4,1.4,0,0,1,204,7a1.37,1.37,0,0,1,.84-.72l2.2-.67a1.5,1.5,0,0,1,1.14.06,1.55,1.55,0,0,1,.8.85,37.521,37.521,0,0,1,1.65,4.9Z"/><path d="M244.32,32.91a1.42,1.42,0,0,1,1-.57,1.53,1.53,0,0,1,1.11.23l2.86,2a1.28,1.28,0,0,1,.58.91,1.35,1.35,0,0,1-.29,1.06A56.721,56.721,0,0,1,238.41,47a.28.28,0,0,0-.16.29c-.07,2.37.22,3.69.89,3.95s1.74-1.43,3.38-5a.61.61,0,0,1,.58-.39.65.65,0,0,1,.63.38,15.641,15.641,0,0,0,2,2.94,2,2,0,0,1,.51,1.17,1.67,1.67,0,0,1-.06.95,1,1,0,0,1-.14.26A19.07,19.07,0,0,1,242.68,56a5.32,5.32,0,0,1-3,1.59,7.85,7.85,0,0,1-3.49-.66c-2.07-.81-3.4-2.86-4-6.13,0-.12-.07-.16-.18-.11a36.549,36.549,0,0,1-5.24,2.06,1.47,1.47,0,0,1-1.13-.11,1.66,1.66,0,0,1-.79-.86,37.206,37.206,0,0,0-1.61-3.47,1.2,1.2,0,0,1,0-1,1,1,0,0,1,.74-.59l.84-.21h0q-3.1-.47-8.63-1.39c-3.69-.62-5.94-1-6.76-1.1a1.35,1.35,0,0,1-.92-.58,1.4,1.4,0,0,1-.23-1.11l.67-3.42a1.55,1.55,0,0,1,.66-.94,1.39,1.39,0,0,1,1.08-.2q6.85,1.5,16.16,3.11a1.23,1.23,0,0,1,.9.6,1.19,1.19,0,0,1,.14,1L227,45.7c0,.1,0,.14.14.1a30.159,30.159,0,0,0,4.79-2.15.45.45,0,0,0,.2-.28,84.711,84.711,0,0,1,3.49-16.81.18.18,0,0,0-.12-.27l-17.41-6.83a1.45,1.45,0,0,1-.82-.79,1.4,1.4,0,0,1,0-1.1l1.15-2.92a1.37,1.37,0,0,1,.77-.78,1.41,1.41,0,0,1,1.14,0l17.07,6.69c.1,0,.17,0,.22-.13.39-1.21.85-2.5,1.4-3.89a1.24,1.24,0,0,1,.74-.82,1.47,1.47,0,0,1,1.13,0l3.42,1.35a1.42,1.42,0,0,1,.79.75,1.36,1.36,0,0,1,0,1.12,8.743,8.743,0,0,0-.37.83c-.41,1.05-.78,2.06-1.1,3a.18.18,0,0,0,.12.26l4.49,1.77h.06a.18.18,0,0,0,0-.1c-.55-.8-1.09-1.56-1.64-2.28a1.13,1.13,0,0,1-.23-1,1,1,0,0,1,.65-.76l2.1-1a1.84,1.84,0,0,1,1.26-.15,2,2,0,0,1,1.09.62A25.323,25.323,0,0,1,254,23.54a1.12,1.12,0,0,1,.13,1.08,1.3,1.3,0,0,1-.74.81l-1.47.71-.05.05a.11.11,0,0,0,.08.1l1.34.52a1.47,1.47,0,0,1,.83.79,1.4,1.4,0,0,1,0,1.1L253,31.62a1.42,1.42,0,0,1-.77.79,1.45,1.45,0,0,1-1.14,0l-9.26-3.64c-.13-.05-.2,0-.23.13-.82,2.93-1.57,5.95-2.22,9.06a.19.19,0,0,0,0,.09h.05a44.221,44.221,0,0,0,4.89-5.14ZM217,22.87a1.49,1.49,0,0,1,2-.87l12.64,5a1.38,1.38,0,0,1,.81.78,1.47,1.47,0,0,1,0,1.13l-3.94,10a1.42,1.42,0,0,1-.75.79,1.37,1.37,0,0,1-1.12,0l-12.65-5a1.48,1.48,0,0,1-.82-.79,1.4,1.4,0,0,1,0-1.1Zm7.09,10.41a.15.15,0,0,0,.22-.09l1.13-2.89a.182.182,0,0,0-.08-.25l-4.3-1.69a.18.18,0,0,0-.27.12l-1.13,2.88c0,.1,0,.18.13.23Z"/><path d="M269.48,61.46q-.18-.1-.27,0l-2.67,4.07a.2.2,0,0,0,0,.27,44.068,44.068,0,0,0,4.8,3.59c.93.64,1.89,1.28,2.88,1.93,1.63,1.08,3.35,2.17,5.15,3.29a.85.85,0,0,1,.4.75.962.962,0,0,1-.44.74c-.37.26-.78.56-1.24.92s-1,.75-1.42,1.1a2,2,0,0,1-1.11.5,1.77,1.77,0,0,1-1.2-.29l-6.52-4.28a35.83,35.83,0,0,1-8.64-7.53,16.45,16.45,0,0,1-3.5-9c0-.12-.09-.14-.2-.08a21.8,21.8,0,0,1-7.17,3.19,1.47,1.47,0,0,1-1.1-.25,1.56,1.56,0,0,1-.64-.94,23.9,23.9,0,0,0-.9-3,1.22,1.22,0,0,1,.14-1,1.27,1.27,0,0,1,.81-.55q6.15-1.26,12.51-8.54a1.49,1.49,0,0,1,1-.5,1.32,1.32,0,0,1,1.05.31l2.67,2.25a1.35,1.35,0,0,1,.47,1,1.23,1.23,0,0,1-.39,1c-.87.88-1.82,1.8-2.85,2.77a.47.47,0,0,0-.14.3,13.56,13.56,0,0,0,1.18,6.85c.06.11.13.11.19,0l6.88-10.49a.15.15,0,0,0-.05-.23l-11.74-7.7a1.49,1.49,0,0,1-.43-2.06l1.5-2.28a1.36,1.36,0,0,1,.91-.6,1.38,1.38,0,0,1,1.09.19l11.73,7.69a.18.18,0,0,0,.29-.06l1.54-2.34c.06-.1,0-.18-.08-.25l-8.56-5.62a1.36,1.36,0,0,1-.61-.91,1.42,1.42,0,0,1,.21-1.12l1.45-2.21a1.46,1.46,0,0,1,.94-.65,1.4,1.4,0,0,1,1.08.2l8.57,5.61c.11.08.2.07.26,0l1.31-2a1.42,1.42,0,0,1,.92-.61,1.36,1.36,0,0,1,1.08.2l2.9,1.9a1.33,1.33,0,0,1,.61.91A1.42,1.42,0,0,1,284,39l-1.31,2c-.06.09,0,.18.08.25l9.18,6a1.39,1.39,0,0,1,.61.92,1.48,1.48,0,0,1-.21,1.12L290.9,51.5a1.45,1.45,0,0,1-.94.64,1.43,1.43,0,0,1-1.09-.19l-9.18-6c-.11-.08-.2-.07-.26,0l-1.54,2.35a.18.18,0,0,0,.06.29l12,7.87a1.46,1.46,0,0,1,.65.94,1.4,1.4,0,0,1-.2,1.08l-1.49,2.28a1.46,1.46,0,0,1-.94.65,1.44,1.44,0,0,1-1.12-.22l-12-7.87c-.12-.08-.21-.07-.27,0l-2.17,3.32c-.06.09,0,.17.08.25l9.6,6.29a1.49,1.49,0,0,1,.43,2.06l-1.36,2.07a1.42,1.42,0,0,1-.94.64,1.48,1.48,0,0,1-1.12-.21Z"/><path d="M292.61,86.08A4.3,4.3,0,0,1,296,84.72a5.63,5.63,0,0,1,5,5.08,4.66,4.66,0,0,1-4.72,4.71,5.54,5.54,0,0,1-5.08-5.07A4.39,4.39,0,0,1,292.61,86.08Zm12-.09a2.34,2.34,0,0,1-1.17.32,1.39,1.39,0,0,1-1-.41l-2.6-2.6a1.49,1.49,0,0,1-.45-1.06,1.17,1.17,0,0,1,.48-1,5.83,5.83,0,0,1,2.63-1.17,9.72,9.72,0,0,1,2.89-.09c.93.12,1.84.25,2.73.4a9.88,9.88,0,0,0,2.46.1,2.89,2.89,0,0,0,1.81-.79,2.83,2.83,0,0,0,.89-2.7,6.15,6.15,0,0,0-1.85-3,7.26,7.26,0,0,0-5-2.13,1.63,1.63,0,0,1-1.05-.44,1.43,1.43,0,0,1-.46-1l-.12-2.69a1.45,1.45,0,0,1,.44-1.14,1.34,1.34,0,0,1,1-.4,14.29,14.29,0,0,1,5.43,1,13.68,13.68,0,0,1,4.67,3.1,13.24,13.24,0,0,1,4.07,7.22,7.61,7.61,0,0,1-2.46,6.82,5.34,5.34,0,0,1-2.49,1.44,7.31,7.31,0,0,1-2.82.19c-.94-.11-1.86-.25-2.77-.4a13.69,13.69,0,0,0-2.79-.19,4.94,4.94,0,0,0-2.47.63Z"/></g></svg>