<svg xmlns="http://www.w3.org/2000/svg" width="200.67" height="65.649" viewBox="0 0 200.67 65.649">
  <g id="Group_1940" data-name="Group 1940" transform="translate(-59.31 -222.68)">
    <path id="Path_3235" data-name="Path 3235" d="M64.73,248.58a2.2,2.2,0,0,1,.9-1.51,2,2,0,0,1,1.71-.37l5.08,1.08a2.53,2.53,0,0,1,1.61,1,2.43,2.43,0,0,1,.47,1.81,133.151,133.151,0,0,1-2.15,13.18A37.94,37.94,0,0,1,69.08,273a2.29,2.29,0,0,1-1.44,1.14,2.22,2.22,0,0,1-1.84-.27l-5.29-2.94a2.22,2.22,0,0,1-1.07-1.48,1.59,1.59,0,0,1-.13-.6,2.47,2.47,0,0,1,.33-1.2Q63.32,260.62,64.73,248.58Zm13-4.48a2.33,2.33,0,0,1,.71-1.71,2.22,2.22,0,0,1,1.64-.7h5.75a2.25,2.25,0,0,1,1.64.7,2.32,2.32,0,0,1,.7,1.71v29.44c0,1.69.18,2.75.54,3.17s1.27.64,2.74.64H99a2.89,2.89,0,0,0,3-2.21,38.74,38.74,0,0,0,.94-7.56,1.34,1.34,0,0,1,2.07-1.07,22.4,22.4,0,0,0,5,2.21,3,3,0,0,1,1.6,1.2,2.58,2.58,0,0,1,.47,1.54q0,6.9-3.14,11.31-2.55,3.62-9,3.61H90q-7.17,0-9.7-2.74t-2.55-10.1Zm2.28-13.39a1.9,1.9,0,0,1-1-1.23,1.52,1.52,0,0,1,.37-1.51l3.41-4.08a3.22,3.22,0,0,1,1.74-1.07,2.54,2.54,0,0,1,.8-.14,2.91,2.91,0,0,1,1.21.27,84.313,84.313,0,0,1,9.84,4.69,89.008,89.008,0,0,1,8.69,5.28,2.29,2.29,0,0,1,.94,1.57,2.25,2.25,0,0,1-.4,1.71l-3.81,5a2,2,0,0,1-1.51.83,2.23,2.23,0,0,1-1.71-.5,81.782,81.782,0,0,0-8.36-5.68,99.474,99.474,0,0,0-10.17-5.14Zm25.36,19.14a2,2,0,0,1,.8-3l4.89-2.48a2.78,2.78,0,0,1,1.94-.23,2.64,2.64,0,0,1,1.6,1.1,68.382,68.382,0,0,1,6.16,10.31,57.529,57.529,0,0,1,4.08,9.9,2.53,2.53,0,0,1,.13.8,2.931,2.931,0,0,1-.26,1.14,3.15,3.15,0,0,1-1.41,1.41l-5.89,2.87a1.68,1.68,0,0,1-1.6,0,2,2,0,0,1-1.07-1.27,54.86,54.86,0,0,0-3.62-9.9,77.9,77.9,0,0,0-5.71-10.65Z" fill="#fbb03b"/>
    <path id="Path_3236" data-name="Path 3236" d="M191.79,259.75a2.23,2.23,0,0,1-.7,1.64,2.32,2.32,0,0,1-1.71.7H177.8c-.17,0-.24.09-.2.27a53.628,53.628,0,0,0,2.58,10.77q1.57,4.15,3,4.15c.81,0,1.34-1.91,1.61-5.75a1.1,1.1,0,0,1,.7-1,1.23,1.23,0,0,1,1.24.13,22.739,22.739,0,0,0,3.68,2.14,3.34,3.34,0,0,1,1.47,1.41,2.75,2.75,0,0,1,.4,1.47v.4c-.66,4.15-1.74,7-3.21,8.43s-3.54,2.14-6.35,2.14h-.2a9,9,0,0,1-6.73-3.24,24.76,24.76,0,0,1-4.85-8.54,70.543,70.543,0,0,1-3-12.51c0-.18-.11-.27-.34-.27H157c-.18,0-.27.12-.27.34v4.88c0,.23.09.34.27.34l8.56-.94a2.3,2.3,0,0,1,2.48,2.14l.13,3.75a2.59,2.59,0,0,1-.67,1.77,2.55,2.55,0,0,1-1.6.91q-4,.47-11,1.23t-9,1a2.18,2.18,0,0,1-1.71-.46,2.39,2.39,0,0,1-.9-1.61l-.47-4.15a2.12,2.12,0,0,1,.5-1.74,2.22,2.22,0,0,1,1.58-.8c1-.09,1.67-.13,2.07-.13a.32.32,0,0,0,.27-.34V243a1.75,1.75,0,0,1,.73-1.44,1.68,1.68,0,0,1,1.61-.3l4.68,1.2a2.5,2.5,0,0,0,.54.07,155.106,155.106,0,0,0,22.68-4.08v-.07H143.15a.24.24,0,0,0-.27.27v9.9q0,25-6.43,37.8a1.81,1.81,0,0,1-1.27,1h-.4a2.11,2.11,0,0,1-1.27-.4,45.934,45.934,0,0,0-4.21-2.88,2.2,2.2,0,0,1-1.14-1.41A2.289,2.289,0,0,1,128,282a2.33,2.33,0,0,1,.27-1.07,39,39,0,0,0,2.74-7.6,58.682,58.682,0,0,0,1.54-8.8q.48-4.61.64-8.06t.17-7.86V231.92a2.29,2.29,0,0,1,2.34-2.34h21.41c.22,0,.33-.11.33-.34v-3.48a2.29,2.29,0,0,1,.71-1.7,2.24,2.24,0,0,1,1.64-.71h5.68a2.33,2.33,0,0,1,1.71.71,2.29,2.29,0,0,1,.7,1.7v3.48c0,.23.09.34.27.34h21.68a2.3,2.3,0,0,1,1.64.67,2.19,2.19,0,0,1,.7,1.67V236a2.32,2.32,0,0,1-.7,1.71,2.29,2.29,0,0,1-1.64.7h-9.5a.1.1,0,0,0-.1.07s0,.09,0,.13l4.82,4.62a1.51,1.51,0,0,1,.37,1.37,1.24,1.24,0,0,1-1,1c-2.19.62-4.84,1.25-8,1.87a.33.33,0,0,0-.26.34c0,1.25.13,3.05.26,5.42a.33.33,0,0,0,.34.26h12.51a2.33,2.33,0,0,1,1.71.71,2.29,2.29,0,0,1,.7,1.7Zm-46,27.64a2.42,2.42,0,0,1-2.41-2.41v-3.75a2.26,2.26,0,0,1,.71-1.64,2.29,2.29,0,0,1,1.7-.7h23.69a2.39,2.39,0,0,1,2.34,2.34V285a2.29,2.29,0,0,1-.7,1.7,2.26,2.26,0,0,1-1.64.71ZM156.7,253.2a.24.24,0,0,0,.27.26h9.63q.27,0,.27-.33c-.05-.4-.1-1-.17-1.91s-.1-1.5-.1-1.91a.245.245,0,0,0-.33-.26q-4,.6-9.3,1a.32.32,0,0,0-.27.34Z" fill="#fbb03b"/>
    <path id="Path_3237" data-name="Path 3237" d="M241.37,233.59c-.09.18,0,.27.2.27h16a2.32,2.32,0,0,1,1.71.7,2.25,2.25,0,0,1,.7,1.64,18.246,18.246,0,0,1-.07,2q-.66,24.09-1.5,33.35t-2.91,12a9.62,9.62,0,0,1-3.11,3,14,14,0,0,1-4.12,1.37,36,36,0,0,1-6.22.4c-.8,0-1.65,0-2.54-.06a2.47,2.47,0,0,1-1.71-.71,3,3,0,0,1-1-1.7,24.3,24.3,0,0,0-1.81-5.22,1.26,1.26,0,0,1,.07-1.31,1.13,1.13,0,0,1,1.14-.56q3.48.19,8,.2a4,4,0,0,0,3-1.21c1-1.07,1.72-4.22,2.21-9.47s.87-13.59,1.14-25c0-.23,0-.34-.27-.34H237.89a.48.48,0,0,0-.47.27,75,75,0,0,1-4.35,8,2,2,0,0,1-1.47.94,2.07,2.07,0,0,1-1.67-.47q-1.81-1.34-3.55-2.54c-.18-.14-.27-.09-.27.13v29.91a2.32,2.32,0,0,1-.7,1.71,2.27,2.27,0,0,1-1.64.7H208.45a.24.24,0,0,0-.27.27V284a2.39,2.39,0,0,1-2.41,2.41h-4.21a2.19,2.19,0,0,1-1.67-.7,2.38,2.38,0,0,1-.67-1.71V237a2.38,2.38,0,0,1,.67-1.71,2.19,2.19,0,0,1,1.67-.7h5.15a.32.32,0,0,0,.34-.27c.57-2.9,1-5.73,1.27-8.5a2.05,2.05,0,0,1,.87-1.6,2.12,2.12,0,0,1,1.33-.47h.34l6.16.87a1.94,1.94,0,0,1,1.43.93,1.8,1.8,0,0,1,.17,1.68q-1.67,4.82-2.54,7.09c-.09.18,0,.27.2.27h7.49a2.23,2.23,0,0,1,1.64.7,2.32,2.32,0,0,1,.7,1.71v6.42a.12.12,0,0,0,.07.1h.07a72,72,0,0,0,7.43-17.53,2.48,2.48,0,0,1,1.1-1.48,2.1,2.1,0,0,1,1.77-.26l5,1.13A2.28,2.28,0,0,1,243,226.4a2.13,2.13,0,0,1,.2,1.7Q242.435,230.65,241.37,233.59Zm-24.56,18.87c.23,0,.34-.11.34-.33v-8.64c0-.22-.11-.33-.34-.33h-8.36q-.27,0-.27.33v8.64q0,.33.27.33Zm-8.63,20q0,.33.27.33h8.36c.23,0,.34-.11.34-.33V261.29c0-.18-.11-.27-.34-.27h-8.36a.24.24,0,0,0-.27.27Zm38.88-9a2.47,2.47,0,0,1,.33,1.2,1.74,1.74,0,0,1-.13.67,2.51,2.51,0,0,1-1.14,1.48l-4.35,2.67a2.36,2.36,0,0,1-1.07.27,2.249,2.249,0,0,1-.6-.07,2,2,0,0,1-1.34-1.13q-1.94-3.88-6.76-11.78a2.48,2.48,0,0,1-.33-1.21,2.839,2.839,0,0,1,.07-.6,2.2,2.2,0,0,1,1.13-1.4l3.62-2.08a2.59,2.59,0,0,1,1.27-.33,2.77,2.77,0,0,1,.6.07,2.53,2.53,0,0,1,1.54,1.07q5.28,7.99,7.16,11.21Z" fill="#fbb03b"/>
  </g>
</svg>
