<svg xmlns="http://www.w3.org/2000/svg" width="50.655" height="43.487" viewBox="0 0 50.655 43.487"><g transform="translate(-134.949 -60.647)"><path d="M152.56,68l18.06,31.27a1.8,1.8,0,0,1,0,1.86,1.78,1.78,0,0,1-.62.6,1.81,1.81,0,0,1-1.05.23l-17.82-1.55-6,3.48a1.78,1.78,0,0,1-2.45-.66l-7.49-13a1.79,1.79,0,0,1,.66-2.45l6.05-3.49,7.56-16.21a1.78,1.78,0,0,1,1.56-1,1.82,1.82,0,0,1,1.54.92Z"/><path d="M178.14,74.07a1.8,1.8,0,0,1-.66,2.46l-10,5.76a1.8,1.8,0,0,1-1.8-3.11l10-5.77A1.81,1.81,0,0,1,178.14,74.07Z"/><path d="M185.6,87.38a1.77,1.77,0,0,1-.9,1.66,1.81,1.81,0,0,1-.78.23l-13.54.8a1.793,1.793,0,0,1-.22-3.58l13.54-.78a1.8,1.8,0,0,1,1.9,1.67Z"/><path d="M160.92,75.26a1.78,1.78,0,0,1-.51-2.48l7.46-11.33a1.8,1.8,0,0,1,3,2l-7.45,11.33a1.75,1.75,0,0,1-.59.56,1.81,1.81,0,0,1-1.91-.08Z"/></g></svg>