<svg xmlns="http://www.w3.org/2000/svg" width="192.441" height="41.28" viewBox="0 0 192.441 41.28">
  <g id="Group_1941" data-name="Group 1941" transform="translate(-64.22 -302.33)">
    <path id="Path_3238" data-name="Path 3238" d="M65.66,339.45a1.43,1.43,0,0,1-1-.45,1.5,1.5,0,0,1-.44-1.08v-3.23a1.41,1.41,0,0,1,.44-1.06,1.49,1.49,0,0,1,1-.43H70c.11,0,.17-.07.17-.21V315.62a.15.15,0,0,0-.17-.17H66.47a1.52,1.52,0,0,1-1.53-1.52v-1.75a1.87,1.87,0,0,1,1.49-1.82A16.75,16.75,0,0,0,71,308.53a5.17,5.17,0,0,1,2.75-.85h2.64a1.4,1.4,0,0,1,1.06.45,1.53,1.53,0,0,1,.42,1.08V333c0,.14.07.21.22.21h3.35a1.48,1.48,0,0,1,1,.43,1.38,1.38,0,0,1,.45,1.06v3.23A1.47,1.47,0,0,1,82.5,339a1.42,1.42,0,0,1-1,.45Z"/>
    <path id="Path_3239" data-name="Path 3239" d="M102.08,335.77a7.86,7.86,0,0,1-13.89,0q-2.52-4.18-2.53-12.42t2.51-12.18a8.06,8.06,0,0,1,13.93,0q2.5,4,2.5,12.18T102.08,335.77Zm-7.63-1.95a1.06,1.06,0,0,0,.68.23,1,1,0,0,0,.68-.23,2.3,2.3,0,0,0,.58-1,11.221,11.221,0,0,0,.48-1.86,23.809,23.809,0,0,0,.32-3.1c.07-1.31.11-2.82.11-4.55s0-3.23-.13-4.5a27.359,27.359,0,0,0-.32-3,6.65,6.65,0,0,0-.49-1.72,2.13,2.13,0,0,0-.57-.85,1.13,1.13,0,0,0-1.31,0,2.23,2.23,0,0,0-.58.85,7.071,7.071,0,0,0-.49,1.72c-.12.72-.23,1.72-.31,3s-.13,2.78-.13,4.5,0,3.24.1,4.55a25.71,25.71,0,0,0,.32,3.1,11.12,11.12,0,0,0,.49,1.86,2.3,2.3,0,0,0,.57,1Z"/>
    <path id="Path_3240" data-name="Path 3240" d="M123.82,335.77a7.86,7.86,0,0,1-13.89,0q-2.52-4.18-2.53-12.42t2.51-12.18a8.06,8.06,0,0,1,13.93,0q2.5,4,2.5,12.18T123.82,335.77Zm-7.63-1.95a1.06,1.06,0,0,0,.68.23,1,1,0,0,0,.68-.23,2.3,2.3,0,0,0,.58-1,11.219,11.219,0,0,0,.48-1.86,23.811,23.811,0,0,0,.32-3.1c.07-1.31.11-2.82.11-4.55s0-3.23-.13-4.5a27.363,27.363,0,0,0-.32-3,7.11,7.11,0,0,0-.48-1.72,2.23,2.23,0,0,0-.58-.85,1.13,1.13,0,0,0-1.31,0,2.23,2.23,0,0,0-.58.85,7.07,7.07,0,0,0-.49,1.72c-.12.72-.23,1.72-.31,3s-.13,2.78-.13,4.5,0,3.24.1,4.55a25.71,25.71,0,0,0,.32,3.1,11.119,11.119,0,0,0,.49,1.86,2.3,2.3,0,0,0,.57,1Z"/>
    <path id="Path_3241" data-name="Path 3241" d="M136.11,303.78a1.53,1.53,0,0,1,.76-.89,1.46,1.46,0,0,1,.68-.17,1.4,1.4,0,0,1,.47.08l2.89.89a1.42,1.42,0,0,1,.87.72,1.44,1.44,0,0,1,.06,1.15,66.149,66.149,0,0,1-2.72,6.62,1,1,0,0,0-.08.39v29.55a1.38,1.38,0,0,1-.45,1.06,1.46,1.46,0,0,1-1,.43h-3a1.46,1.46,0,0,1-1-.43,1.38,1.38,0,0,1-.45-1.06V322.8h-.09c-.34.48-.68.93-1,1.36a.8.8,0,0,1-.81.27.84.84,0,0,1-.64-.57c-.54-1.44-1.13-2.83-1.78-4.16a2.54,2.54,0,0,1-.26-1.06,2.28,2.28,0,0,1,.56-1.45,43.859,43.859,0,0,0,6.99-13.41Zm6.33,2a1.39,1.39,0,0,1,.44-1.06,1.53,1.53,0,0,1,1.08-.42h23.49a1.53,1.53,0,0,1,1.08.42,1.39,1.39,0,0,1,.44,1.06v35.88a1.39,1.39,0,0,1-.44,1,1.47,1.47,0,0,1-1.08.45h-3a1.47,1.47,0,0,1-1.08-.45,1.4,1.4,0,0,1-.45-1v-.46c0-.12-.05-.17-.17-.17H148.38c-.14,0-.21.05-.21.17v.8a1.52,1.52,0,0,1-1.49,1.48H144a1.5,1.5,0,0,1-1.08-.44,1.42,1.42,0,0,1-.44-1Zm5.73,29.6a.19.19,0,0,0,.21.21h14.39c.12,0,.17-.07.17-.21V309.89a.15.15,0,0,0-.17-.17H148.38c-.14,0-.21.06-.21.17Zm14.1-17.92a1.46,1.46,0,0,1-.45,1.08,1.42,1.42,0,0,1-1,.45H158a.15.15,0,0,0-.17.17V322a.15.15,0,0,0,.17.17h2a1.54,1.54,0,0,1,1.53,1.53v8.75a1.54,1.54,0,0,1-1.53,1.53h-8.88a1.54,1.54,0,0,1-1.53-1.53V323.7a1.54,1.54,0,0,1,1.53-1.53h1.62c.14,0,.21-.05.21-.17v-2.84c0-.11-.07-.17-.21-.17h-2.38a1.38,1.38,0,0,1-1.06-.45,1.48,1.48,0,0,1-.43-1.08V316a1.5,1.5,0,0,1,.43-1.09,1.41,1.41,0,0,1,1.06-.44h2.38c.14,0,.21-.06.21-.17v-2.5a1.5,1.5,0,0,1,1.48-1.48h1.83a1.47,1.47,0,0,1,1.08.44,1.43,1.43,0,0,1,.45,1v2.51a.15.15,0,0,0,.17.17h2.76a1.45,1.45,0,0,1,1,.44,1.48,1.48,0,0,1,.45,1.09Zm-5.57,12.31c.12,0,.17-.07.17-.21v-2.93a.15.15,0,0,0-.17-.17h-2.42a.15.15,0,0,0-.17.17v2.93c0,.14.06.21.17.21Z"/>
    <path id="Path_3242" data-name="Path 3242" d="M201.58,337.45h2.6c.48,0,.82-.3,1-.89a16.46,16.46,0,0,0,.43-3.61.75.75,0,0,1,.44-.7.84.84,0,0,1,.88,0,21.41,21.41,0,0,0,2.8,1.23,2.17,2.17,0,0,1,1,.79,1.59,1.59,0,0,1,.27,1.16c-.34,2.86-1,4.87-1.89,6a5.18,5.18,0,0,1-4.31,1.72h-4.33a7.66,7.66,0,0,1-4-.83,4.57,4.57,0,0,1-1.89-2.82c0-.11-.1-.13-.21,0a34.9,34.9,0,0,1-3.23,2.46,1.47,1.47,0,0,1-1.17.26,1.76,1.76,0,0,1-1-.6,23.159,23.159,0,0,0-2.37-2.46,1,1,0,0,1-.41-.89.92.92,0,0,1,.49-.81,37.9,37.9,0,0,0,7.39-6.24.6.6,0,0,0,.13-.34V320.76h0q-.54,7.35-2.08,11a1.42,1.42,0,0,1-.87.77,1.5,1.5,0,0,1-1.16-.05l-2.13-1a1.41,1.41,0,0,1-.76-.83,1.54,1.54,0,0,1,0-1.17,24.051,24.051,0,0,0,.81-2.63h-.05l-1.48,1.87a.92.92,0,0,1-.83.32.85.85,0,0,1-.7-.54l-.25-.5a2.921,2.921,0,0,0-.22-.39h-.08v14.4a1.43,1.43,0,0,1-.45,1,1.41,1.41,0,0,1-1,.44h-3.06a1.42,1.42,0,0,1-1-.44,1.46,1.46,0,0,1-.44-1v-12a.08.08,0,0,0-.09,0,38.121,38.121,0,0,1-2.76,5.61.62.62,0,0,1-.68.32.75.75,0,0,1-.63-.49,36.739,36.739,0,0,0-1.62-3.4,2.47,2.47,0,0,1-.29-1.14,2.37,2.37,0,0,1,.46-1.36,39.23,39.23,0,0,0,4.46-9.18c0-.14,0-.21-.13-.21h-3a1.48,1.48,0,0,1-1-.42,1.39,1.39,0,0,1-.44-1.06V316a1.5,1.5,0,0,1,1.48-1.53h4c.14,0,.21-.06.21-.17v-3.87c0-.11-.06-.15-.17-.12l-2.8.42a1.61,1.61,0,0,1-1.17-.27,1.91,1.91,0,0,1-.74-1c-.2-.63-.43-1.26-.68-1.91a1.12,1.12,0,0,1,.06-1,1.1,1.1,0,0,1,.83-.6,59.11,59.11,0,0,0,10.1-2.59,2.7,2.7,0,0,1,.9-.17,1.92,1.92,0,0,1,1.48.72l2.21,2.51A1,1,0,0,1,188,308c-1.1.37-2.22.7-3.35,1a.24.24,0,0,0-.21.26v5.05c0,.11.07.17.21.17H187a1.5,1.5,0,0,1,1.08.44,1.48,1.48,0,0,1,.45,1.09v2.76a1.4,1.4,0,0,1-.45,1.06,1.53,1.53,0,0,1-1.08.42h-2.51c-.05,0-.08,0-.08.09a.29.29,0,0,0,.08.17q1.2,1.07,3.91,4h.11c.05,0,.06,0,.06-.11a47.244,47.244,0,0,0,.64-5.09,1.25,1.25,0,0,1,.51-1,1.21,1.21,0,0,1,1.06-.23l3.22.59c.15,0,.22,0,.22-.17v-4.88a1.47,1.47,0,0,1,.42-1,1.4,1.4,0,0,1,1.06-.45h4.27a.08.08,0,0,0,0-.09,35.57,35.57,0,0,0-5.82-4.5,1.17,1.17,0,0,1-.55-.87,1,1,0,0,1,.34-.95l1.87-1.91a2.18,2.18,0,0,1,1.14-.6h.3a1.819,1.819,0,0,1,.94.26,30.471,30.471,0,0,1,7,5.09c.09.09.15.07.17,0l.51-2.25a1.44,1.44,0,0,1,.66-1,1.55,1.55,0,0,1,1.13-.19l2.93.68a1.67,1.67,0,0,1,.93.7,1.43,1.43,0,0,1,.21,1.13,97.064,97.064,0,0,1-2.88,10.06.12.12,0,0,0,0,.09.1.1,0,0,0,.08,0h.17a1.74,1.74,0,0,1,1.23.1,1.48,1.48,0,0,1,.81.92,43.209,43.209,0,0,1,2.63,9.93v.21a1.66,1.66,0,0,1-.29.94,1.76,1.76,0,0,1-1,.72l-2.8.77a1.2,1.2,0,0,1-1-.17,1.22,1.22,0,0,1-.53-.94,50.128,50.128,0,0,0-1.35-7,.18.18,0,0,0-.09,0,50,50,0,0,1-6.16,10.07.6.6,0,0,0-.13.34v1.57a4.7,4.7,0,0,0,.22,1.87C200.71,337.32,201.05,337.45,201.58,337.45Zm-1.1-24.88h-.08a.06.06,0,0,0-.05.06v9.3h.05a59.49,59.49,0,0,0,4.63-12.27v-.07h0l-2.93,3a1,1,0,0,1-.8.32A1.08,1.08,0,0,1,200.48,312.57Z"/>
    <path id="Path_3243" data-name="Path 3243" d="M245.7,336.26a.15.15,0,0,0,.17-.17v-4.54a1.4,1.4,0,0,1,.45-1,1.47,1.47,0,0,1,1.08-.45h3.31a1.48,1.48,0,0,1,1.09.45,1.43,1.43,0,0,1,.44,1v10.53a1.5,1.5,0,0,1-1.53,1.48h-3.52a1.3,1.3,0,0,1-1.32-1.31c0-.12-.05-.17-.17-.17H227.36a.15.15,0,0,0-.17.17,1.3,1.3,0,0,1-1.32,1.31h-3.44a1.46,1.46,0,0,1-1.08-.44,1.42,1.42,0,0,1-.44-1V330.61c0-.14-.06-.19-.17-.17a.36.36,0,0,1-.13.05,1.64,1.64,0,0,1-1.25-.07,2.05,2.05,0,0,1-1-.83c-.59-1-1.18-1.84-1.74-2.63a.84.84,0,0,1-.21-.55.71.71,0,0,1,.08-.34.79.79,0,0,1,.64-.55c1.1-.26,2.14-.51,3.1-.77l.06-.06a.131.131,0,0,0-.06-.11l-2.8-1.86a1,1,0,0,1-.45-.85,1.06,1.06,0,0,1,.4-.9,13.46,13.46,0,0,0,3.53-4.71,1.8,1.8,0,0,1,.85-.81,1.45,1.45,0,0,1,1.14,0l2.34.85a1.5,1.5,0,0,1,.87.79,1.35,1.35,0,0,1,0,1.16,16.9,16.9,0,0,1-3.86,5.91h0a41.917,41.917,0,0,0,4.71-1.57.23.23,0,0,0,.17-.26v-6.07a1.47,1.47,0,0,1,.45-1.08,1.4,1.4,0,0,1,1-.45h3.39c-.74-.34-1.4-.64-2-.89a1.09,1.09,0,0,1-.66-.74,1,1,0,0,1,.19-1l.9-1.15c.08-.11,0-.17-.09-.17h-6.62c-.12,0-.17.07-.17.22v2.25a1.4,1.4,0,0,1-.45,1.06,1.53,1.53,0,0,1-1.08.42H219a1.452,1.452,0,0,1-1.49-1.48v-6.5a1.46,1.46,0,0,1,.43-1.08,1.38,1.38,0,0,1,1.06-.45h13.84a.15.15,0,0,0,.17-.17v-1.23a1.43,1.43,0,0,1,.44-1.06,1.54,1.54,0,0,1,1.09-.43h3.48a1.52,1.52,0,0,1,1.08.43,1.4,1.4,0,0,1,.45,1.06v1.23a.15.15,0,0,0,.17.17H253.9a1.4,1.4,0,0,1,1.06.45,1.49,1.49,0,0,1,.42,1.08v6.5a1.44,1.44,0,0,1-1.48,1.48h-3.48a1.45,1.45,0,0,1-1-.42,1.4,1.4,0,0,1-.45-1.06V311c0-.15-.07-.22-.21-.22H235.09s-.05,0-.05.09c1.22.51,2.26,1,3.1,1.44a1.27,1.27,0,0,1,.62.91,1.39,1.39,0,0,1-.28,1.13L237.25,316a1.49,1.49,0,0,1-1,.56,1.62,1.62,0,0,1-1.14-.26c-.65-.39-1.35-.78-2.08-1.15-.12-.08-.17-.05-.17.09v4.59c0,.11,0,.14.17.08a28.06,28.06,0,0,0,8.4-6.75,1.906,1.906,0,0,1,2.26-.6l2.63,1.15a1.09,1.09,0,0,1,.66.79,1,1,0,0,1-.24,1,35.91,35.91,0,0,1-8.49,7.52h0v.05h3a2.72,2.72,0,0,0,1.21-.22,1.33,1.33,0,0,0,.61-.76,1.36,1.36,0,0,1,.64-.77,1,1,0,0,1,.93,0,14.444,14.444,0,0,0,2.17.81,1.64,1.64,0,0,1,1,.7,1.49,1.49,0,0,1,.21,1.12,4.9,4.9,0,0,1-2,3.13,8.45,8.45,0,0,1-4.22.82h-7.13a14.859,14.859,0,0,1-4.46-.51.52.52,0,0,0-.39,0,69.99,69.99,0,0,1-7.51,2.68h3.27a1.44,1.44,0,0,1,1.08.45,1.4,1.4,0,0,1,.45,1v4.54a.15.15,0,0,0,.17.17H233a.15.15,0,0,0,.17-.17v-6.37a1.43,1.43,0,0,1,.45-1,1.46,1.46,0,0,1,1.08-.44h3.4a1.45,1.45,0,0,1,1.08.44,1.43,1.43,0,0,1,.45,1v6.37a.15.15,0,0,0,.17.17Zm1.06-17a1.19,1.19,0,0,1-.34-.85,1.11,1.11,0,0,1,.56-1l2-1.36a1.9,1.9,0,0,1,1.06-.3h.17a1.86,1.86,0,0,1,1.15.51,50.268,50.268,0,0,1,5,5.31,1.39,1.39,0,0,1,.29.85.73.73,0,0,1,0,.25,1.31,1.31,0,0,1-.64,1l-2.29,1.61a1.42,1.42,0,0,1-.81.26h-.29a1.62,1.62,0,0,1-1-.64,45.308,45.308,0,0,0-4.86-5.62Z"/>
  </g>
</svg>
