<svg xmlns="http://www.w3.org/2000/svg" width="199.531" height="65.261" viewBox="0 0 199.531 65.261">
  <g id="Group_1939" data-name="Group 1939" transform="translate(-61.65 -140.999)">
    <path id="Path_3232" data-name="Path 3232" d="M99.79,155a1.89,1.89,0,0,1-.6-1.57A1.87,1.87,0,0,1,100,152l4-3a3.3,3.3,0,0,1,1.91-.6,2.78,2.78,0,0,1,1.84.67q10.5,9,15.39,15.92a2.17,2.17,0,0,1,.47,1.34,1.61,1.61,0,0,1-.07.47,2.57,2.57,0,0,1-1,1.61l-4.89,3.74a2,2,0,0,1-1.27.47,1.12,1.12,0,0,1-.4-.07,2.22,2.22,0,0,1-1.47-1q-1.08-1.6-2.61-3.68a.75.75,0,0,0-.54-.2q-7,.33-46.9,2a2.3,2.3,0,0,1-1.74-.6,2.19,2.19,0,0,1-.74-1.68L61.65,162a2.5,2.5,0,0,1,.63-1.67,2.08,2.08,0,0,1,1.64-.74q6.83-.19,8-.2a.43.43,0,0,0,.4-.27,115.7,115.7,0,0,0,8.44-16.46,2.21,2.21,0,0,1,1.27-1.34,2.44,2.44,0,0,1,1.07-.26,2.25,2.25,0,0,1,.73.13l7,2.28a1.76,1.76,0,0,1,1.2,1.13,2,2,0,0,1-.06,1.68q-3.42,6.21-7.5,12.44c-.13.18-.09.27.14.27,2.09-.14,5.18-.28,9.26-.44s7.08-.25,9-.3c.09,0,.15,0,.17-.1a.15.15,0,0,0,0-.16Q101,156,99.79,155Zm-29,51.19a2.39,2.39,0,0,1-2.34-2.34v-26.3a2.3,2.3,0,0,1,.7-1.7,2.24,2.24,0,0,1,1.64-.71H113.1a2.24,2.24,0,0,1,1.64.71,2.3,2.3,0,0,1,.7,1.7v26.3a2.39,2.39,0,0,1-2.34,2.34H107a2.3,2.3,0,0,1-1.64-.67,2.15,2.15,0,0,1-.7-1.6c0-.23-.09-.34-.27-.34H78.91c-.22,0-.33.11-.33.34a2.29,2.29,0,0,1-2.28,2.27ZM104.67,185a.24.24,0,0,0-.27-.27H78.91q-.33,0-.33.27v8.7a.29.29,0,0,0,.33.33H104.4q.27,0,.27-.33Z" fill="#fbb03b"/>
    <path id="Path_3233" data-name="Path 3233" d="M141.07,164.69a2.29,2.29,0,0,1,.94,1.6,2.25,2.25,0,0,1-.54,1.81l-2.87,3.81a2,2,0,0,1-1.51.81,2.38,2.38,0,0,1-1.71-.54A59.369,59.369,0,0,0,129.3,168a2.06,2.06,0,0,1-1-1.4v-.4a2,2,0,0,1,.4-1.21l2.48-3.21a3.15,3.15,0,0,1,1.67-1.07,3.05,3.05,0,0,1,.67-.07,2.49,2.49,0,0,1,1.27.34A54.456,54.456,0,0,1,141.07,164.69Zm-2.41,38.6a2,2,0,0,1-1.24,1.21,1.88,1.88,0,0,1-1.7-.14L131,201.69a2.52,2.52,0,0,1-1.21-1.41,2.48,2.48,0,0,1-.13-.8,2.36,2.36,0,0,1,.27-1.07q3.67-8.29,6.89-17.8a1.72,1.72,0,0,1,1.14-1.17,1.67,1.67,0,0,1,1.6.23l3.88,2.48a3.29,3.29,0,0,1,1.24,1.57,2.81,2.81,0,0,1,0,2q-3,9.67-6.02,17.57Zm4.62-53.12-3.41,4.21a1.81,1.81,0,0,1-1.48.77,2.44,2.44,0,0,1-1.67-.57,52.871,52.871,0,0,0-6.09-4.55,2.07,2.07,0,0,1-.46-3.08l2.54-3.07a2.94,2.94,0,0,1,3.61-.74,37.181,37.181,0,0,1,7.7,5.29c.13.13.26.11.4-.07l.73-1.14a1.12,1.12,0,0,1,.71-.5,1.2,1.2,0,0,1,.83.1c.09.05.16.05.2,0,.72-1.34,1.34-2.61,1.88-3.81a2.24,2.24,0,0,1,1.33-1.21,2.06,2.06,0,0,1,1.74.14l1.21.6a2.19,2.19,0,0,1,1,1.37,2.06,2.06,0,0,1-.31,1.71c-1.47,2.27-2.4,3.68-2.81,4.21a.29.29,0,0,0,.07.4,7.578,7.578,0,0,1,.67.61c.13.13.27.11.4-.07l1.27-1.87a2.39,2.39,0,0,1,1.51-1.11,2.2,2.2,0,0,1,1.77.3l1.94,1.14c.09,0,.14,0,.14-.07a1.15,1.15,0,0,1,.36-.83A1.23,1.23,0,0,1,160,148h14.25a.81.81,0,0,1,.87.87h.07l1.07-1.54a.88.88,0,0,1,1.4-.2.121.121,0,0,0,.13-.07c.81-1.51,1.45-2.79,1.95-3.81a2.54,2.54,0,0,1,1.37-1.21,2.08,2.08,0,0,1,1.77.14l1.2.6a2.079,2.079,0,0,1,.66,3.01l-3.07,4.42a.29.29,0,0,0,.06.47,2.351,2.351,0,0,0,.27.36,1.06,1.06,0,0,0,.34.3q.19.21.33,0c.71-.93,1.36-1.85,1.94-2.74a2.48,2.48,0,0,1,1.51-1,2.2,2.2,0,0,1,1.77.3l1.2.67a1.85,1.85,0,0,1,.94,1.41,1.91,1.91,0,0,1-.47,1.61q-3.62,4.08-5.35,5.88a.35.35,0,0,0,0,.14.11.11,0,0,0,.1.06l2.21-.06c.13,0,.18-.07.13-.2a2,2,0,0,1,0-1.48,1.71,1.71,0,0,1,1-1l.67-.27a2.17,2.17,0,0,1,1.8,0,2.49,2.49,0,0,1,1.34,1.27c.54,1.39,1,2.77,1.41,4.15a5.121,5.121,0,0,1,.06.74,2.64,2.64,0,0,1-1.74,2.54l-1.4.6a1,1,0,0,1-.94-.06,1.24,1.24,0,0,1-.6-.74.18.18,0,0,0-.2-.2l-1.47.07c-.23,0-.34.11-.34.33v2.14c0,.18.09.25.27.2l1.61-.53a2.7,2.7,0,0,1,1.87.13,2.51,2.51,0,0,1,1.34,1.34c.58,1.43,1.09,2.81,1.54,4.15a2.3,2.3,0,0,1,.13.73,2.1,2.1,0,0,1-.33,1.14,2.55,2.55,0,0,1-1.41,1.21l-.53.2a2,2,0,0,1-1.68-.2,2.33,2.33,0,0,1-1.07-1.34,50.362,50.362,0,0,0-1.6-4.82c-.05,0-.08-.07-.1-.07s0,0,0,.07v6.22a2.32,2.32,0,0,1-.7,1.71,2.25,2.25,0,0,1-1.64.7h-1.47a2.23,2.23,0,0,1-1.64-.7,2.32,2.32,0,0,1-.7-1.71v-4s-.05,0-.1.07c-.4,1.2-.82,2.34-1.27,3.41a2,2,0,0,1-1.34,1.07,2.15,2.15,0,0,1-1.74-.2c-.44-.27-.93-.53-1.47-.8-.13-.09-.2-.05-.2.13a2.17,2.17,0,0,1-.63,1.54,2.09,2.09,0,0,1-1.58.67h-8.7a2.39,2.39,0,0,1-2.4-2.41v-1.14c0-.22-.09-.31-.27-.26l-1.81.53a2.09,2.09,0,0,1-1.74-.23,2,2,0,0,1-.93-1.44c-.23-1-.52-2.23-.87-3.61,0-.05,0-.05-.07,0v6.55a2.36,2.36,0,0,1-.7,1.71,2.25,2.25,0,0,1-1.64.7h-1.41a2.25,2.25,0,0,1-1.64-.7,2.32,2.32,0,0,1-.7-1.71v-4.15a.125.125,0,0,0-.1.07c-.5,1.34-1,2.59-1.54,3.75a2,2,0,0,1-1.34,1.14,2.34,2.34,0,0,1-1.81-.21c-.22-.08-.49-.2-.8-.33a2.13,2.13,0,0,1-1.1-1.34,2.34,2.34,0,0,1,.1-1.8,34.76,34.76,0,0,0,1.6-4.29,2.55,2.55,0,0,1,1.11-1.47,2.09,2.09,0,0,1,1.77-.27l1.87.41q.27.06.27-.27v-1.61q0-.33-.33-.27l-3.62.27a2.28,2.28,0,0,1-1.74-.57,2.53,2.53,0,0,1-.87-1.64l-.13-1.07a2.16,2.16,0,0,1,.57-1.7,2.22,2.22,0,0,1,1.57-.77l2-.07a.67.67,0,0,0,.47-.2,3.592,3.592,0,0,1,.5-.6,4.5,4.5,0,0,0,.63-.81c.14-.13.14-.28,0-.46a34,34,0,0,0-4.41-4,1,1,0,0,1-.31-1.38Zm13.65,40.41c-.05.18,0,.27.2.27h31.05a2.064,2.064,0,0,1,2.14,2.01v.33a9.714,9.714,0,0,1-.27,1q-1.28,7.69-3.88,10-2.34,1.82-7,2c-1.16,0-2.43.07-3.81.07s-3,0-4.75-.07a2.42,2.42,0,0,1-1.74-.7,3.54,3.54,0,0,1-1-1.71,17.332,17.332,0,0,0-1-2.67,1.33,1.33,0,0,1,1.21-1.94q3.94.25,7.82.26a5.82,5.82,0,0,0,2.95-.53,4.27,4.27,0,0,0,1.27-1.94c.09-.18,0-.27-.2-.27H155.66a.32.32,0,0,0-.34.2,2,2,0,0,1-.83,1.24,1.91,1.91,0,0,1-1.44.3l-4.75-.54a1.85,1.85,0,0,1-1.41-.93,1.81,1.81,0,0,1-.33-1.07,3.581,3.581,0,0,1,.06-.61c.81-2.76,1.54-5.75,2.21-9a2.84,2.84,0,0,1,1-1.67,2.81,2.81,0,0,1,1.87-.67h25.9a.24.24,0,0,0,.27-.27v-.8a.24.24,0,0,0-.27-.27H149.9a2.41,2.41,0,0,1-2.41-2.41v-.54a2.33,2.33,0,0,1,.71-1.7,2.3,2.3,0,0,1,1.7-.7h34.8a2.2,2.2,0,0,1,1.67.7,2.37,2.37,0,0,1,.67,1.7V187a2.29,2.29,0,0,1-2.34,2.34H157.53q-.27,0-.33.33Zm3.14-37.67a1.26,1.26,0,0,1-.93-.4,1.28,1.28,0,0,1-.4-.94.062.062,0,0,0-.07-.06c-2,2.36-3.73,4.26-5,5.68,0,.05-.06.09,0,.14a.1.1,0,0,0,.1.06l1.54-.06c.09,0,.13-.05.13-.14a1.31,1.31,0,0,1,0-1,1.38,1.38,0,0,1,.77-.71l.74-.26a2.083,2.083,0,0,1,2.74,1.27,36.583,36.583,0,0,1,1,3.68.36.36,0,0,1,.4-.41h10.77a2.17,2.17,0,0,1,2.14,2.15,2,2,0,0,1-.63,1.47,2.14,2.14,0,0,1-1.51.6h-10.3a.93.93,0,0,1-.61-.23.73.73,0,0,1-.26-.57c0-.09,0-.11-.07-.07l-2.34.8a1.21,1.21,0,0,1-1.11-.13,1.27,1.27,0,0,1-.57-.94.18.18,0,0,0-.2-.2l-1.07.14a.29.29,0,0,0-.33.33v2.34c0,.18.09.25.27.2l1.6-.4a2.77,2.77,0,0,1,1.88.27,2.27,2.27,0,0,1,1.13,1.47c.27.94.52,1.92.74,2.95v-2a2.39,2.39,0,0,1,2.4-2.41h8.5A2.39,2.39,0,0,1,174,167.9V170a24.344,24.344,0,0,0,1.14-3.35,2.37,2.37,0,0,1,1.1-1.44,2.4,2.4,0,0,1,1.77-.3l1.81.47c.18.05.27,0,.27-.2v-1.6c0-.23-.11-.32-.34-.27l-2.87.13a2.29,2.29,0,0,1-1.71-.57,2.26,2.26,0,0,1-.84-1.64l-.13-1.07a2.16,2.16,0,0,1,.57-1.7,2,2,0,0,1,1.57-.71l.54-.06a.72.72,0,0,0,.53-.2c.4-.4.74-.76,1-1.07a.44.44,0,0,0,0-.47,32.073,32.073,0,0,0-3.27-3.48h-.07c0,.27-.11.4-.34.4Zm11.78,1.34a2.14,2.14,0,0,1,0,4.28h-9a2.14,2.14,0,0,1,0-4.28Zm-.74-12.05a2.18,2.18,0,0,1,1.54.64,2.1,2.1,0,0,1,0,3.08,2.17,2.17,0,0,1-1.54.63h-7.69a2.13,2.13,0,0,1-1.57-.63,2.17,2.17,0,0,1,0-3.08,2.13,2.13,0,0,1,1.57-.64Zm-3.27,29.51q.33,0,.33-.27v-1.53c0-.23-.11-.34-.33-.34h-1.28c-.22,0-.33.11-.33.34v1.53q0,.27.33.27Z" fill="#fbb03b"/>
    <path id="Path_3234" data-name="Path 3234" d="M221.9,143.41a2.56,2.56,0,0,1,.77-1.71,2.32,2.32,0,0,1,1.71-.7h6.69a2.2,2.2,0,0,1,1.67.7,2.34,2.34,0,0,1,.67,1.64c0,.67-.09,1.41-.14,2.21.09,1.74.24,3.49.44,5.25s.59,4,1.17,6.83a74.546,74.546,0,0,0,2.11,8,57.1,57.1,0,0,0,3.51,8.3,51.281,51.281,0,0,0,5.19,8.23,47.759,47.759,0,0,0,7.26,7.36,45.83,45.83,0,0,0,7.42,5,1.52,1.52,0,0,1,.81,1.4,1.45,1.45,0,0,1-.54,1.14,28.06,28.06,0,0,0-4.55,5,2.88,2.88,0,0,1-1.54,1.07,1.74,1.74,0,0,1-.67.13,2.09,2.09,0,0,1-1.13-.33q-16.94-9.57-24.23-30.71c0-.05,0-.07-.06-.07s-.07,0-.07.07q-6.76,19.53-22.28,30.57a2.35,2.35,0,0,1-1.34.41h-.4a3,3,0,0,1-1.67-.94,27.41,27.41,0,0,0-5.09-4.75,1.64,1.64,0,0,1-.67-1.34,1.51,1.51,0,0,1,.74-1.34,47,47,0,0,0,5.28-3.94,53,53,0,0,0,5.89-5.73,38.562,38.562,0,0,0,4.45-6.29,67.519,67.519,0,0,0,3.28-6.39,47.532,47.532,0,0,0,2.31-6.55q1-3.61,1.5-6.19t.84-5.92c.22-2.23.37-3.95.44-5.16s.12-2.69.16-4.48A4.331,4.331,0,0,0,221.9,143.41Z" fill="#fbb03b"/>
  </g>
</svg>
